<?xml version="1.0" encoding="utf-8" standalone="no"?>
<!DOCTYPE svg PUBLIC "-//W3C//DTD SVG 1.1//EN"
  "http://www.w3.org/Graphics/SVG/1.1/DTD/svg11.dtd">
<!-- Created with matplotlib (https://matplotlib.org/) -->
<svg height="288pt" version="1.1" viewBox="0 0 432 288" width="432pt" xmlns="http://www.w3.org/2000/svg" xmlns:xlink="http://www.w3.org/1999/xlink">
 <defs>
  <style type="text/css">
*{stroke-linecap:butt;stroke-linejoin:round;white-space:pre;}
  </style>
 </defs>
 <g id="figure_1">
  <g id="patch_1">
   <path d="M 0 288 
L 432 288 
L 432 0 
L 0 0 
z
" style="fill:#ffffff;"/>
  </g>
  <g id="axes_1">
   <g id="patch_2">
    <path d="M 25.234646 274.465354 
L 425.385354 274.465354 
L 425.385354 5.714646 
L 25.234646 5.714646 
z
" style="fill:#ffffff;"/>
   </g>
   <g id="LineCollection_1">
    <path clip-path="url(#pe0749dcf1c)" d="M 112.651875 144.16198 
" style="fill:none;stroke:#000004;"/>
   </g>
   <g id="LineCollection_2">
    <path clip-path="url(#pe0749dcf1c)" d="M 191.37683 160.591455 
L 194.091483 161.343362 
L 196.806137 161.569763 
L 199.520791 161.343362 
L 202.235444 160.591455 
L 202.551758 160.449902 
L 204.950098 159.646031 
L 207.664751 157.97111 
L 207.967509 157.735249 
L 210.379405 155.824575 
L 211.183385 155.020595 
L 213.094059 152.608699 
L 213.32992 152.305941 
L 215.004841 149.591288 
L 215.808712 147.192948 
L 215.950266 146.876634 
L 216.702172 144.16198 
L 216.928574 141.447327 
L 216.702172 138.732673 
L 215.950266 136.01802 
L 215.808712 135.701706 
L 215.004841 133.303366 
L 213.32992 130.588712 
L 213.094059 130.285954 
L 211.183385 127.874059 
L 210.379405 127.070079 
L 207.967509 125.159405 
L 207.664751 124.923544 
L 204.950098 123.248623 
L 202.551758 122.444751 
L 202.235444 122.303198 
L 199.520791 121.551292 
L 196.806137 121.32489 
L 194.091483 121.551292 
L 191.37683 122.303198 
L 191.060516 122.444751 
L 188.662176 123.248623 
L 185.947522 124.923544 
L 185.644765 125.159405 
L 183.232869 127.070079 
L 182.428889 127.874059 
L 180.518215 130.285954 
L 180.282354 130.588712 
L 178.607433 133.303366 
L 177.803562 135.701706 
L 177.662008 136.01802 
L 176.910102 138.732673 
L 176.6837 141.447327 
L 176.910102 144.16198 
L 177.662008 146.876634 
L 177.803562 147.192948 
L 178.607433 149.591288 
L 180.282354 152.305941 
L 180.518215 152.608699 
L 182.428889 155.020595 
L 183.232869 155.824575 
L 185.644765 157.735249 
L 185.947522 157.97111 
L 188.662176 159.646031 
L 191.060516 160.449902 
L 191.37683 160.591455 
" style="fill:none;stroke:#0d0827;"/>
   </g>
   <g id="LineCollection_3">
    <path clip-path="url(#pe0749dcf1c)" d="M 194.091483 158.423054 
L 196.806137 158.684433 
L 199.520791 158.423054 
L 201.738869 157.735249 
L 202.235444 157.61909 
L 204.950098 156.477822 
L 206.982525 155.020595 
L 207.664751 154.508826 
L 209.867636 152.305941 
L 210.379405 151.623715 
L 211.836633 149.591288 
L 212.977901 146.876634 
L 213.094059 146.380059 
L 213.781864 144.16198 
L 214.043244 141.447327 
L 213.781864 138.732673 
L 213.094059 136.514594 
L 212.977901 136.01802 
L 211.836633 133.303366 
L 210.379405 131.270939 
L 209.867636 130.588712 
L 207.664751 128.385828 
L 206.982525 127.874059 
L 204.950098 126.416831 
L 202.235444 125.275563 
L 201.738869 125.159405 
L 199.520791 124.4716 
L 196.806137 124.21022 
L 194.091483 124.4716 
L 191.873405 125.159405 
L 191.37683 125.275563 
L 188.662176 126.416831 
L 186.629749 127.874059 
L 185.947522 128.385828 
L 183.744638 130.588712 
L 183.232869 131.270939 
L 181.775641 133.303366 
L 180.634373 136.01802 
L 180.518215 136.514594 
L 179.83041 138.732673 
L 179.56903 141.447327 
L 179.83041 144.16198 
L 180.518215 146.380059 
L 180.634373 146.876634 
L 181.775641 149.591288 
L 183.232869 151.623715 
L 183.744638 152.305941 
L 185.947522 154.508826 
L 186.629749 155.020595 
L 188.662176 156.477822 
L 191.37683 157.61909 
L 191.873405 157.735249 
L 194.091483 158.423054 
" style="fill:none;stroke:#240c4e;"/>
   </g>
   <g id="LineCollection_4">
    <path clip-path="url(#pe0749dcf1c)" d="M 191.37683 155.701066 
L 194.091483 156.540095 
L 196.806137 156.792729 
L 199.520791 156.540095 
L 202.235444 155.701066 
L 203.487473 155.020595 
L 204.950098 154.267891 
L 207.326135 152.305941 
L 207.664751 151.967324 
L 209.626701 149.591288 
L 210.379405 148.128662 
L 211.059877 146.876634 
L 211.898905 144.16198 
L 212.151539 141.447327 
L 211.898905 138.732673 
L 211.059877 136.01802 
L 210.379405 134.765991 
L 209.626701 133.303366 
L 207.664751 130.927329 
L 207.326135 130.588712 
L 204.950098 128.626763 
L 203.487473 127.874059 
L 202.235444 127.193587 
L 199.520791 126.354559 
L 196.806137 126.101925 
L 194.091483 126.354559 
L 191.37683 127.193587 
L 190.124801 127.874059 
L 188.662176 128.626763 
L 186.286139 130.588712 
L 185.947522 130.927329 
L 183.985573 133.303366 
L 183.232869 134.765991 
L 182.552397 136.01802 
L 181.713369 138.732673 
L 181.460735 141.447327 
L 181.713369 144.16198 
L 182.552397 146.876634 
L 183.232869 148.128662 
L 183.985573 149.591288 
L 185.947522 151.967324 
L 186.286139 152.305941 
L 188.662176 154.267891 
L 190.124801 155.020595 
L 191.37683 155.701066 
" style="fill:none;stroke:#420a67;"/>
   </g>
   <g id="LineCollection_5">
    <path clip-path="url(#pe0749dcf1c)" d="M 196.806137 155.238592 
L 198.595436 155.020595 
L 199.520791 154.933863 
L 202.235444 154.11747 
L 204.950098 152.45175 
L 205.126681 152.305941 
L 207.664751 149.767871 
L 207.81056 149.591288 
L 209.47628 146.876634 
L 210.292673 144.16198 
L 210.379405 143.236626 
L 210.597402 141.447327 
L 210.379405 139.658027 
L 210.292673 138.732673 
L 209.47628 136.01802 
L 207.81056 133.303366 
L 207.664751 133.126783 
L 205.126681 130.588712 
L 204.950098 130.442904 
L 202.235444 128.777184 
L 199.520791 127.96079 
L 198.595436 127.874059 
L 196.806137 127.656061 
L 195.016838 127.874059 
L 194.091483 127.96079 
L 191.37683 128.777184 
L 188.662176 130.442904 
L 188.485593 130.588712 
L 185.947522 133.126783 
L 185.801714 133.303366 
L 184.135994 136.01802 
L 183.3196 138.732673 
L 183.232869 139.658027 
L 183.014872 141.447327 
L 183.232869 143.236626 
L 183.3196 144.16198 
L 184.135994 146.876634 
L 185.801714 149.591288 
L 185.947522 149.767871 
L 188.485593 152.305941 
L 188.662176 152.45175 
L 191.37683 154.11747 
L 194.091483 154.933863 
L 195.016838 155.020595 
L 196.806137 155.238592 
" style="fill:none;stroke:#5d126e;"/>
   </g>
   <g id="LineCollection_6">
    <path clip-path="url(#pe0749dcf1c)" d="M 191.37683 152.717759 
L 194.091483 153.738251 
L 196.806137 154.045524 
L 199.520791 153.738251 
L 202.235444 152.717759 
L 202.893385 152.305941 
L 204.950098 150.894966 
L 206.253776 149.591288 
L 207.664751 147.534575 
L 208.076569 146.876634 
L 209.097061 144.16198 
L 209.404334 141.447327 
L 209.097061 138.732673 
L 208.076569 136.01802 
L 207.664751 135.360079 
L 206.253776 133.303366 
L 204.950098 131.999688 
L 202.893385 130.588712 
L 202.235444 130.176895 
L 199.520791 129.156403 
L 196.806137 128.849129 
L 194.091483 129.156403 
L 191.37683 130.176895 
L 190.718889 130.588712 
L 188.662176 131.999688 
L 187.358498 133.303366 
L 185.947522 135.360079 
L 185.535705 136.01802 
L 184.515213 138.732673 
L 184.20794 141.447327 
L 184.515213 144.16198 
L 185.535705 146.876634 
L 185.947522 147.534575 
L 187.358498 149.591288 
L 188.662176 150.894966 
L 190.718889 152.305941 
L 191.37683 152.717759 
" style="fill:none;stroke:#781c6d;"/>
   </g>
   <g id="LineCollection_7">
    <path clip-path="url(#pe0749dcf1c)" d="M 194.091483 152.542638 
L 196.806137 152.911366 
L 199.520791 152.542638 
L 200.115446 152.305941 
L 202.235444 151.47144 
L 204.715776 149.591288 
L 204.950098 149.356966 
L 206.830251 146.876634 
L 207.664751 144.756636 
L 207.901448 144.16198 
L 208.270177 141.447327 
L 207.901448 138.732673 
L 207.664751 138.138017 
L 206.830251 136.01802 
L 204.950098 133.537688 
L 204.715776 133.303366 
L 202.235444 131.423213 
L 200.115446 130.588712 
L 199.520791 130.352015 
L 196.806137 129.983287 
L 194.091483 130.352015 
L 193.496828 130.588712 
L 191.37683 131.423213 
L 188.896498 133.303366 
L 188.662176 133.537688 
L 186.782023 136.01802 
L 185.947522 138.138017 
L 185.710826 138.732673 
L 185.342097 141.447327 
L 185.710826 144.16198 
L 185.947522 144.756636 
L 186.782023 146.876634 
L 188.662176 149.356966 
L 188.896498 149.591288 
L 191.37683 151.47144 
L 193.496828 152.305941 
L 194.091483 152.542638 
" style="fill:none;stroke:#942667;"/>
   </g>
   <g id="LineCollection_8">
    <path clip-path="url(#pe0749dcf1c)" d="M 191.37683 150.289066 
L 194.091483 151.495919 
L 196.806137 151.859306 
L 199.520791 151.495919 
L 202.235444 150.289066 
L 203.155966 149.591288 
L 204.950098 147.797156 
L 205.647876 146.876634 
L 206.854729 144.16198 
L 207.218116 141.447327 
L 206.854729 138.732673 
L 205.647876 136.01802 
L 204.950098 135.097498 
L 203.155966 133.303366 
L 202.235444 132.605588 
L 199.520791 131.398735 
L 196.806137 131.035347 
L 194.091483 131.398735 
L 191.37683 132.605588 
L 190.456308 133.303366 
L 188.662176 135.097498 
L 187.964398 136.01802 
L 186.757545 138.732673 
L 186.394158 141.447327 
L 186.757545 144.16198 
L 187.964398 146.876634 
L 188.662176 147.797156 
L 190.456308 149.591288 
L 191.37683 150.289066 
" style="fill:none;stroke:#ae305c;"/>
   </g>
   <g id="LineCollection_9">
    <path clip-path="url(#pe0749dcf1c)" d="M 194.091483 150.485952 
L 196.806137 150.901252 
L 199.520791 150.485952 
L 201.376748 149.591288 
L 202.235444 149.098585 
L 204.457395 146.876634 
L 204.950098 146.017938 
L 205.844762 144.16198 
L 206.260062 141.447327 
L 205.844762 138.732673 
L 204.950098 136.876716 
L 204.457395 136.01802 
L 202.235444 133.796069 
L 201.376748 133.303366 
L 199.520791 132.408702 
L 196.806137 131.993402 
L 194.091483 132.408702 
L 192.235526 133.303366 
L 191.37683 133.796069 
L 189.154879 136.01802 
L 188.662176 136.876716 
L 187.767512 138.732673 
L 187.352212 141.447327 
L 187.767512 144.16198 
L 188.662176 146.017938 
L 189.154879 146.876634 
L 191.37683 149.098585 
L 192.235526 149.591288 
L 194.091483 150.485952 
" style="fill:none;stroke:#c73e4c;"/>
   </g>
   <g id="LineCollection_10">
    <path clip-path="url(#pe0749dcf1c)" d="M 196.806137 149.943197 
L 198.877117 149.591288 
L 199.520791 149.474056 
L 202.235444 147.896429 
L 203.25524 146.876634 
L 204.832866 144.16198 
L 204.950098 143.518307 
L 205.302008 141.447327 
L 204.950098 139.376347 
L 204.832866 138.732673 
L 203.25524 136.01802 
L 202.235444 134.998224 
L 199.520791 133.420597 
L 198.877117 133.303366 
L 196.806137 132.951456 
L 194.735157 133.303366 
L 194.091483 133.420597 
L 191.37683 134.998224 
L 190.357034 136.01802 
L 188.779407 138.732673 
L 188.662176 139.376347 
L 188.310266 141.447327 
L 188.662176 143.518307 
L 188.779407 144.16198 
L 190.357034 146.876634 
L 191.37683 147.896429 
L 194.091483 149.474056 
L 194.735157 149.591288 
L 196.806137 149.943197 
" style="fill:none;stroke:#dc503a;"/>
   </g>
   <g id="LineCollection_11">
    <path clip-path="url(#pe0749dcf1c)" d="M 194.091483 148.447193 
L 196.806137 148.975003 
L 199.520791 148.447193 
L 201.990497 146.876634 
L 202.235444 146.631687 
L 203.806003 144.16198 
L 204.333813 141.447327 
L 203.806003 138.732673 
L 202.235444 136.262967 
L 201.990497 136.01802 
L 199.520791 134.447461 
L 196.806137 133.919651 
L 194.091483 134.447461 
L 191.621777 136.01802 
L 191.37683 136.262967 
L 189.806271 138.732673 
L 189.278461 141.447327 
L 189.806271 144.16198 
L 191.37683 146.631687 
L 191.621777 146.876634 
L 194.091483 148.447193 
" style="fill:none;stroke:#ed6925;"/>
   </g>
   <g id="LineCollection_12">
    <path clip-path="url(#pe0749dcf1c)" d="M 194.091483 147.42033 
L 196.806137 148.00092 
L 199.520791 147.42033 
L 200.375753 146.876634 
L 202.235444 145.016943 
L 202.77914 144.16198 
L 203.35973 141.447327 
L 202.77914 138.732673 
L 202.235444 137.877711 
L 200.375753 136.01802 
L 199.520791 135.474324 
L 196.806137 134.893733 
L 194.091483 135.474324 
L 193.236521 136.01802 
L 191.37683 137.877711 
L 190.833134 138.732673 
L 190.252543 141.447327 
L 190.833134 144.16198 
L 191.37683 145.016943 
L 193.236521 146.876634 
L 194.091483 147.42033 
" style="fill:none;stroke:#f8860f;"/>
   </g>
   <g id="LineCollection_13">
    <path clip-path="url(#pe0749dcf1c)" d="M 196.806137 147.026838 
L 197.47619 146.876634 
L 199.520791 146.22764 
L 201.58645 144.16198 
L 202.235444 142.11738 
L 202.385648 141.447327 
L 202.235444 140.777274 
L 201.58645 138.732673 
L 199.520791 136.667014 
L 197.47619 136.01802 
L 196.806137 135.867816 
L 196.136084 136.01802 
L 194.091483 136.667014 
L 192.025824 138.732673 
L 191.37683 140.777274 
L 191.226626 141.447327 
L 191.37683 142.11738 
L 192.025824 144.16198 
L 194.091483 146.22764 
L 196.136084 146.876634 
L 196.806137 147.026838 
" style="fill:none;stroke:#fca40b;"/>
   </g>
   <g id="LineCollection_14">
    <path clip-path="url(#pe0749dcf1c)" d="M 194.091483 144.848349 
L 196.806137 145.769994 
L 199.520791 144.848349 
L 200.207159 144.16198 
L 201.128804 141.447327 
L 200.207159 138.732673 
L 199.520791 138.046304 
L 196.806137 137.124659 
L 194.091483 138.046304 
L 193.405115 138.732673 
L 192.483469 141.447327 
L 193.405115 144.16198 
L 194.091483 144.848349 
" style="fill:none;stroke:#f9c62e;"/>
   </g>
   <g id="LineCollection_15">
    <path clip-path="url(#pe0749dcf1c)" d="M 196.806137 144.461599 
L 197.656112 144.16198 
L 199.520791 142.297302 
L 199.82041 141.447327 
L 199.520791 140.597352 
L 197.656112 138.732673 
L 196.806137 138.433054 
L 195.956162 138.732673 
L 194.091483 140.597352 
L 193.791864 141.447327 
L 194.091483 142.297302 
L 195.956162 144.16198 
L 196.806137 144.461599 
" style="fill:none;stroke:#f3e660;"/>
   </g>
   <g id="LineCollection_16"/>
   <g id="matplotlib.axis_1">
    <g id="xtick_1">
     <g id="line2d_1">
      <defs>
       <path d="M 0 0 
L 0 -3.5 
" id="md1b1d78ccf" style="stroke:#000000;stroke-width:0.8;"/>
      </defs>
      <g>
       <use style="stroke:#000000;stroke-width:0.8;" x="88.219992" xlink:href="#md1b1d78ccf" y="274.465354"/>
      </g>
     </g>
     <g id="text_1">
      <!-- 0 -->
      <defs>
       <path d="M 31.78125 66.40625 
Q 24.171875 66.40625 20.328125 58.90625 
Q 16.5 51.421875 16.5 36.375 
Q 16.5 21.390625 20.328125 13.890625 
Q 24.171875 6.390625 31.78125 6.390625 
Q 39.453125 6.390625 43.28125 13.890625 
Q 47.125 21.390625 47.125 36.375 
Q 47.125 51.421875 43.28125 58.90625 
Q 39.453125 66.40625 31.78125 66.40625 
z
M 31.78125 74.21875 
Q 44.046875 74.21875 50.515625 64.515625 
Q 56.984375 54.828125 56.984375 36.375 
Q 56.984375 17.96875 50.515625 8.265625 
Q 44.046875 -1.421875 31.78125 -1.421875 
Q 19.53125 -1.421875 13.0625 8.265625 
Q 6.59375 17.96875 6.59375 36.375 
Q 6.59375 54.828125 13.0625 64.515625 
Q 19.53125 74.21875 31.78125 74.21875 
z
" id="DejaVuSans-48"/>
      </defs>
      <g transform="translate(85.674992 284.044104)scale(0.08 -0.08)">
       <use xlink:href="#DejaVuSans-48"/>
      </g>
     </g>
    </g>
    <g id="xtick_2">
     <g id="line2d_2">
      <g>
       <use style="stroke:#000000;stroke-width:0.8;" x="156.086333" xlink:href="#md1b1d78ccf" y="274.465354"/>
      </g>
     </g>
     <g id="text_2">
      <!-- 25 -->
      <defs>
       <path d="M 19.1875 8.296875 
L 53.609375 8.296875 
L 53.609375 0 
L 7.328125 0 
L 7.328125 8.296875 
Q 12.9375 14.109375 22.625 23.890625 
Q 32.328125 33.6875 34.8125 36.53125 
Q 39.546875 41.84375 41.421875 45.53125 
Q 43.3125 49.21875 43.3125 52.78125 
Q 43.3125 58.59375 39.234375 62.25 
Q 35.15625 65.921875 28.609375 65.921875 
Q 23.96875 65.921875 18.8125 64.3125 
Q 13.671875 62.703125 7.8125 59.421875 
L 7.8125 69.390625 
Q 13.765625 71.78125 18.9375 73 
Q 24.125 74.21875 28.421875 74.21875 
Q 39.75 74.21875 46.484375 68.546875 
Q 53.21875 62.890625 53.21875 53.421875 
Q 53.21875 48.921875 51.53125 44.890625 
Q 49.859375 40.875 45.40625 35.40625 
Q 44.1875 33.984375 37.640625 27.21875 
Q 31.109375 20.453125 19.1875 8.296875 
z
" id="DejaVuSans-50"/>
       <path d="M 10.796875 72.90625 
L 49.515625 72.90625 
L 49.515625 64.59375 
L 19.828125 64.59375 
L 19.828125 46.734375 
Q 21.96875 47.46875 24.109375 47.828125 
Q 26.265625 48.1875 28.421875 48.1875 
Q 40.625 48.1875 47.75 41.5 
Q 54.890625 34.8125 54.890625 23.390625 
Q 54.890625 11.625 47.5625 5.09375 
Q 40.234375 -1.421875 26.90625 -1.421875 
Q 22.3125 -1.421875 17.546875 -0.640625 
Q 12.796875 0.140625 7.71875 1.703125 
L 7.71875 11.625 
Q 12.109375 9.234375 16.796875 8.0625 
Q 21.484375 6.890625 26.703125 6.890625 
Q 35.15625 6.890625 40.078125 11.328125 
Q 45.015625 15.765625 45.015625 23.390625 
Q 45.015625 31 40.078125 35.4375 
Q 35.15625 39.890625 26.703125 39.890625 
Q 22.75 39.890625 18.8125 39.015625 
Q 14.890625 38.140625 10.796875 36.28125 
z
" id="DejaVuSans-53"/>
      </defs>
      <g transform="translate(150.996333 284.044104)scale(0.08 -0.08)">
       <use xlink:href="#DejaVuSans-50"/>
       <use x="63.623047" xlink:href="#DejaVuSans-53"/>
      </g>
     </g>
    </g>
    <g id="xtick_3">
     <g id="line2d_3">
      <g>
       <use style="stroke:#000000;stroke-width:0.8;" x="223.952673" xlink:href="#md1b1d78ccf" y="274.465354"/>
      </g>
     </g>
     <g id="text_3">
      <!-- 50 -->
      <g transform="translate(218.862673 284.044104)scale(0.08 -0.08)">
       <use xlink:href="#DejaVuSans-53"/>
       <use x="63.623047" xlink:href="#DejaVuSans-48"/>
      </g>
     </g>
    </g>
    <g id="xtick_4">
     <g id="line2d_4">
      <g>
       <use style="stroke:#000000;stroke-width:0.8;" x="291.819014" xlink:href="#md1b1d78ccf" y="274.465354"/>
      </g>
     </g>
     <g id="text_4">
      <!-- 75 -->
      <defs>
       <path d="M 8.203125 72.90625 
L 55.078125 72.90625 
L 55.078125 68.703125 
L 28.609375 0 
L 18.3125 0 
L 43.21875 64.59375 
L 8.203125 64.59375 
z
" id="DejaVuSans-55"/>
      </defs>
      <g transform="translate(286.729014 284.044104)scale(0.08 -0.08)">
       <use xlink:href="#DejaVuSans-55"/>
       <use x="63.623047" xlink:href="#DejaVuSans-53"/>
      </g>
     </g>
    </g>
    <g id="xtick_5">
     <g id="line2d_5">
      <g>
       <use style="stroke:#000000;stroke-width:0.8;" x="359.685354" xlink:href="#md1b1d78ccf" y="274.465354"/>
      </g>
     </g>
     <g id="text_5">
      <!-- 100 -->
      <defs>
       <path d="M 12.40625 8.296875 
L 28.515625 8.296875 
L 28.515625 63.921875 
L 10.984375 60.40625 
L 10.984375 69.390625 
L 28.421875 72.90625 
L 38.28125 72.90625 
L 38.28125 8.296875 
L 54.390625 8.296875 
L 54.390625 0 
L 12.40625 0 
z
" id="DejaVuSans-49"/>
      </defs>
      <g transform="translate(352.050354 284.044104)scale(0.08 -0.08)">
       <use xlink:href="#DejaVuSans-49"/>
       <use x="63.623047" xlink:href="#DejaVuSans-48"/>
       <use x="127.246094" xlink:href="#DejaVuSans-48"/>
      </g>
     </g>
    </g>
   </g>
   <g id="matplotlib.axis_2">
    <g id="ytick_1">
     <g id="line2d_6">
      <defs>
       <path d="M 0 0 
L 3.5 0 
" id="mcc2818bc59" style="stroke:#000000;stroke-width:0.8;"/>
      </defs>
      <g>
       <use style="stroke:#000000;stroke-width:0.8;" x="25.234646" xlink:href="#mcc2818bc59" y="222.886935"/>
      </g>
     </g>
     <g id="text_6">
      <!-- 20 -->
      <g transform="translate(11.554646 225.92631)scale(0.08 -0.08)">
       <use xlink:href="#DejaVuSans-50"/>
       <use x="63.623047" xlink:href="#DejaVuSans-48"/>
      </g>
     </g>
    </g>
    <g id="ytick_2">
     <g id="line2d_7">
      <g>
       <use style="stroke:#000000;stroke-width:0.8;" x="25.234646" xlink:href="#mcc2818bc59" y="168.593863"/>
      </g>
     </g>
     <g id="text_7">
      <!-- 40 -->
      <defs>
       <path d="M 37.796875 64.3125 
L 12.890625 25.390625 
L 37.796875 25.390625 
z
M 35.203125 72.90625 
L 47.609375 72.90625 
L 47.609375 25.390625 
L 58.015625 25.390625 
L 58.015625 17.1875 
L 47.609375 17.1875 
L 47.609375 0 
L 37.796875 0 
L 37.796875 17.1875 
L 4.890625 17.1875 
L 4.890625 26.703125 
z
" id="DejaVuSans-52"/>
      </defs>
      <g transform="translate(11.554646 171.633238)scale(0.08 -0.08)">
       <use xlink:href="#DejaVuSans-52"/>
       <use x="63.623047" xlink:href="#DejaVuSans-48"/>
      </g>
     </g>
    </g>
    <g id="ytick_3">
     <g id="line2d_8">
      <g>
       <use style="stroke:#000000;stroke-width:0.8;" x="25.234646" xlink:href="#mcc2818bc59" y="114.300791"/>
      </g>
     </g>
     <g id="text_8">
      <!-- 60 -->
      <defs>
       <path d="M 33.015625 40.375 
Q 26.375 40.375 22.484375 35.828125 
Q 18.609375 31.296875 18.609375 23.390625 
Q 18.609375 15.53125 22.484375 10.953125 
Q 26.375 6.390625 33.015625 6.390625 
Q 39.65625 6.390625 43.53125 10.953125 
Q 47.40625 15.53125 47.40625 23.390625 
Q 47.40625 31.296875 43.53125 35.828125 
Q 39.65625 40.375 33.015625 40.375 
z
M 52.59375 71.296875 
L 52.59375 62.3125 
Q 48.875 64.0625 45.09375 64.984375 
Q 41.3125 65.921875 37.59375 65.921875 
Q 27.828125 65.921875 22.671875 59.328125 
Q 17.53125 52.734375 16.796875 39.40625 
Q 19.671875 43.65625 24.015625 45.921875 
Q 28.375 48.1875 33.59375 48.1875 
Q 44.578125 48.1875 50.953125 41.515625 
Q 57.328125 34.859375 57.328125 23.390625 
Q 57.328125 12.15625 50.6875 5.359375 
Q 44.046875 -1.421875 33.015625 -1.421875 
Q 20.359375 -1.421875 13.671875 8.265625 
Q 6.984375 17.96875 6.984375 36.375 
Q 6.984375 53.65625 15.1875 63.9375 
Q 23.390625 74.21875 37.203125 74.21875 
Q 40.921875 74.21875 44.703125 73.484375 
Q 48.484375 72.75 52.59375 71.296875 
z
" id="DejaVuSans-54"/>
      </defs>
      <g transform="translate(11.554646 117.340166)scale(0.08 -0.08)">
       <use xlink:href="#DejaVuSans-54"/>
       <use x="63.623047" xlink:href="#DejaVuSans-48"/>
      </g>
     </g>
    </g>
    <g id="ytick_4">
     <g id="line2d_9">
      <g>
       <use style="stroke:#000000;stroke-width:0.8;" x="25.234646" xlink:href="#mcc2818bc59" y="60.007718"/>
      </g>
     </g>
     <g id="text_9">
      <!-- 80 -->
      <defs>
       <path d="M 31.78125 34.625 
Q 24.75 34.625 20.71875 30.859375 
Q 16.703125 27.09375 16.703125 20.515625 
Q 16.703125 13.921875 20.71875 10.15625 
Q 24.75 6.390625 31.78125 6.390625 
Q 38.8125 6.390625 42.859375 10.171875 
Q 46.921875 13.96875 46.921875 20.515625 
Q 46.921875 27.09375 42.890625 30.859375 
Q 38.875 34.625 31.78125 34.625 
z
M 21.921875 38.8125 
Q 15.578125 40.375 12.03125 44.71875 
Q 8.5 49.078125 8.5 55.328125 
Q 8.5 64.0625 14.71875 69.140625 
Q 20.953125 74.21875 31.78125 74.21875 
Q 42.671875 74.21875 48.875 69.140625 
Q 55.078125 64.0625 55.078125 55.328125 
Q 55.078125 49.078125 51.53125 44.71875 
Q 48 40.375 41.703125 38.8125 
Q 48.828125 37.15625 52.796875 32.3125 
Q 56.78125 27.484375 56.78125 20.515625 
Q 56.78125 9.90625 50.3125 4.234375 
Q 43.84375 -1.421875 31.78125 -1.421875 
Q 19.734375 -1.421875 13.25 4.234375 
Q 6.78125 9.90625 6.78125 20.515625 
Q 6.78125 27.484375 10.78125 32.3125 
Q 14.796875 37.15625 21.921875 38.8125 
z
M 18.3125 54.390625 
Q 18.3125 48.734375 21.84375 45.5625 
Q 25.390625 42.390625 31.78125 42.390625 
Q 38.140625 42.390625 41.71875 45.5625 
Q 45.3125 48.734375 45.3125 54.390625 
Q 45.3125 60.0625 41.71875 63.234375 
Q 38.140625 66.40625 31.78125 66.40625 
Q 25.390625 66.40625 21.84375 63.234375 
Q 18.3125 60.0625 18.3125 54.390625 
z
" id="DejaVuSans-56"/>
      </defs>
      <g transform="translate(11.554646 63.047093)scale(0.08 -0.08)">
       <use xlink:href="#DejaVuSans-56"/>
       <use x="63.623047" xlink:href="#DejaVuSans-48"/>
      </g>
     </g>
    </g>
    <g id="ytick_5">
     <g id="line2d_10">
      <g>
       <use style="stroke:#000000;stroke-width:0.8;" x="25.234646" xlink:href="#mcc2818bc59" y="5.714646"/>
      </g>
     </g>
     <g id="text_10">
      <!-- 100 -->
      <g transform="translate(6.464646 8.754021)scale(0.08 -0.08)">
       <use xlink:href="#DejaVuSans-49"/>
       <use x="63.623047" xlink:href="#DejaVuSans-48"/>
       <use x="127.246094" xlink:href="#DejaVuSans-48"/>
      </g>
     </g>
    </g>
   </g>
   <g id="patch_3">
    <path d="M 25.234646 274.465354 
L 25.234646 5.714646 
" style="fill:none;stroke:#000000;stroke-linecap:square;stroke-linejoin:miter;"/>
   </g>
   <g id="patch_4">
    <path d="M 425.385354 274.465354 
L 425.385354 5.714646 
" style="fill:none;stroke:#000000;stroke-linecap:square;stroke-linejoin:miter;stroke-width:0.8;"/>
   </g>
   <g id="patch_5">
    <path d="M 25.234646 274.465354 
L 425.385354 274.465354 
" style="fill:none;stroke:#000000;stroke-linecap:square;stroke-linejoin:miter;"/>
   </g>
   <g id="patch_6">
    <path d="M 25.234646 5.714646 
L 425.385354 5.714646 
" style="fill:none;stroke:#000000;stroke-linecap:square;stroke-linejoin:miter;stroke-width:0.8;"/>
   </g>
  </g>
 </g>
 <defs>
  <clipPath id="pe0749dcf1c">
   <rect height="268.750709" width="400.150709" x="25.234646" y="5.714646"/>
  </clipPath>
 </defs>
</svg>
