<?xml version="1.0" encoding="utf-8" standalone="no"?>
<!DOCTYPE svg PUBLIC "-//W3C//DTD SVG 1.1//EN"
  "http://www.w3.org/Graphics/SVG/1.1/DTD/svg11.dtd">
<!-- Created with matplotlib (https://matplotlib.org/) -->
<svg height="288pt" version="1.1" viewBox="0 0 432 288" width="432pt" xmlns="http://www.w3.org/2000/svg" xmlns:xlink="http://www.w3.org/1999/xlink">
 <defs>
  <style type="text/css">
*{stroke-linecap:butt;stroke-linejoin:round;white-space:pre;}
  </style>
 </defs>
 <g id="figure_1">
  <g id="patch_1">
   <path d="M 0 288 
L 432 288 
L 432 0 
L 0 0 
z
" style="fill:#ffffff;"/>
  </g>
  <g id="axes_1">
   <g id="patch_2">
    <path d="M 19.024646 274.465354 
L 429.165354 274.465354 
L 429.165354 2.834646 
L 19.024646 2.834646 
z
" style="fill:#ffffff;"/>
   </g>
   <g id="LineCollection_1">
    <path clip-path="url(#pe5e22f54d0)" d="M 286.25596 139.918591 
L 286.25596 137.381409 
L 286.25596 139.918591 
" style="fill:none;stroke:#000004;"/>
   </g>
   <g id="LineCollection_2">
    <path clip-path="url(#pe5e22f54d0)" d="M 278.644414 170.641198 
L 278.463022 170.364775 
L 278.011385 167.827593 
L 277.969042 165.290411 
L 277.975116 162.753229 
L 277.969443 160.216047 
L 277.966998 157.678865 
L 277.963822 155.141683 
L 277.961594 152.604501 
L 277.962172 150.067319 
L 277.96547 147.530137 
L 277.968396 144.992955 
L 277.96959 142.455773 
L 277.969723 139.918591 
L 277.969723 137.381409 
L 277.96959 134.844227 
L 277.968396 132.307045 
L 277.96547 129.769863 
L 277.962172 127.232681 
L 277.961594 124.695499 
L 277.963822 122.158317 
L 277.966998 119.621135 
L 277.969443 117.083953 
L 277.975116 114.546771 
L 277.969042 112.009589 
L 278.011385 109.472407 
L 278.463022 106.935225 
L 278.644414 106.658802 
L 281.181596 106.93515 
L 281.181715 106.935225 
L 283.718778 108.666617 
L 284.771657 109.472407 
L 286.25596 110.751442 
L 287.617483 112.009589 
L 288.793142 113.251948 
L 289.965352 114.546771 
L 291.330324 116.299902 
L 291.925407 117.083953 
L 293.566165 119.621135 
L 293.867506 120.174638 
L 294.950743 122.158317 
L 296.073403 124.695499 
L 296.404688 125.626227 
L 296.992669 127.232681 
L 297.712845 129.769863 
L 298.235265 132.307045 
L 298.575678 134.844227 
L 298.743587 137.381409 
L 298.743587 139.918591 
L 298.575678 142.455773 
L 298.235265 144.992955 
L 297.712845 147.530137 
L 296.992669 150.067319 
L 296.404688 151.673773 
L 296.073403 152.604501 
L 294.950743 155.141683 
L 293.867506 157.125362 
L 293.566165 157.678865 
L 291.925407 160.216047 
L 291.330324 161.000098 
L 289.965352 162.753229 
L 288.793142 164.048052 
L 287.617483 165.290411 
L 286.25596 166.548558 
L 284.771657 167.827593 
L 283.718778 168.633383 
L 281.181715 170.364775 
L 281.181596 170.36485 
L 278.644414 170.641198 
" style="fill:none;stroke:#0d0827;"/>
   </g>
   <g id="LineCollection_3">
    <path clip-path="url(#pe5e22f54d0)" d="M 271.032868 182.184729 
L 269.891802 180.513504 
L 269.681304 177.976322 
L 269.677881 175.43914 
L 269.676567 172.901957 
L 269.677157 170.364775 
L 269.678503 167.827593 
L 269.679172 165.290411 
L 269.679366 162.753229 
L 269.679147 160.216047 
L 269.678739 157.678865 
L 269.678334 155.141683 
L 269.678106 152.604501 
L 269.678153 150.067319 
L 269.678439 147.530137 
L 269.678812 144.992955 
L 269.679122 142.455773 
L 269.679287 139.918591 
L 269.679287 137.381409 
L 269.679122 134.844227 
L 269.678812 132.307045 
L 269.678439 129.769863 
L 269.678153 127.232681 
L 269.678106 124.695499 
L 269.678334 122.158317 
L 269.678739 119.621135 
L 269.679147 117.083953 
L 269.679366 114.546771 
L 269.679172 112.009589 
L 269.678503 109.472407 
L 269.677157 106.935225 
L 269.676567 104.398043 
L 269.677881 101.86086 
L 269.681304 99.323678 
L 269.891802 96.786496 
L 271.032868 95.115271 
L 273.57005 94.843465 
L 276.107232 95.192089 
L 278.644414 95.734939 
L 281.181596 96.439924 
L 282.227169 96.786496 
L 283.718778 97.3062 
L 286.25596 98.350405 
L 288.275955 99.323678 
L 288.793142 99.590653 
L 291.330324 101.040243 
L 292.617874 101.86086 
L 293.867506 102.728508 
L 296.062766 104.398043 
L 296.404688 104.68505 
L 298.915512 106.935225 
L 298.94187 106.96164 
L 301.336781 109.472407 
L 301.479052 109.641475 
L 303.416292 112.009589 
L 304.016234 112.852782 
L 305.204469 114.546771 
L 306.553416 116.791932 
L 306.728441 117.083953 
L 308.054861 119.621135 
L 309.090598 122.008961 
L 309.156364 122.158317 
L 310.103719 124.695499 
L 310.86375 127.232681 
L 311.453026 129.769863 
L 311.62778 130.788546 
L 311.89932 132.307045 
L 312.198698 134.844227 
L 312.346939 137.381409 
L 312.346939 139.918591 
L 312.198698 142.455773 
L 311.89932 144.992955 
L 311.62778 146.511454 
L 311.453026 147.530137 
L 310.86375 150.067319 
L 310.103719 152.604501 
L 309.156364 155.141683 
L 309.090598 155.291039 
L 308.054861 157.678865 
L 306.728441 160.216047 
L 306.553416 160.508068 
L 305.204469 162.753229 
L 304.016234 164.447218 
L 303.416292 165.290411 
L 301.479052 167.658525 
L 301.336781 167.827593 
L 298.94187 170.33836 
L 298.915512 170.364775 
L 296.404688 172.61495 
L 296.062766 172.901957 
L 293.867506 174.571492 
L 292.617874 175.43914 
L 291.330324 176.259757 
L 288.793142 177.709347 
L 288.275955 177.976322 
L 286.25596 178.949595 
L 283.718778 179.9938 
L 282.227169 180.513504 
L 281.181596 180.860076 
L 278.644414 181.565061 
L 276.107232 182.107911 
L 273.57005 182.456535 
L 271.032868 182.184729 
" style="fill:none;stroke:#240c4e;"/>
   </g>
   <g id="LineCollection_4">
    <path clip-path="url(#pe5e22f54d0)" d="M 265.958504 191.253048 
L 263.421322 190.529561 
L 261.518946 188.12505 
L 261.394684 185.587868 
L 261.390633 144.992955 
L 261.394684 91.712132 
L 261.518946 89.17495 
L 263.421322 86.770439 
L 263.795745 86.637768 
L 265.958504 86.046952 
L 268.495686 85.528836 
L 271.032868 85.138795 
L 273.57005 84.871656 
L 276.107232 84.724222 
L 278.644414 84.695001 
L 281.181596 84.784059 
L 283.718778 84.992825 
L 286.25596 85.323861 
L 288.793142 85.780655 
L 292.313848 86.637768 
L 293.867506 87.079757 
L 296.404688 87.92789 
L 299.51806 89.17495 
L 301.479052 90.070329 
L 304.608095 91.712132 
L 308.659394 94.249314 
L 311.62778 96.454789 
L 312.046014 96.786496 
L 314.95333 99.323678 
L 317.483413 101.86086 
L 319.703921 104.398043 
L 321.776508 107.099943 
L 324.31369 110.970185 
L 324.941001 112.009589 
L 326.850872 115.74263 
L 327.481424 117.083953 
L 328.515209 119.621135 
L 330.14677 124.695499 
L 330.763642 127.232681 
L 331.247165 129.769863 
L 331.604069 132.307045 
L 331.925236 136.709134 
L 331.957596 137.381409 
L 331.925236 140.590866 
L 331.8393 142.455773 
L 331.604069 144.992955 
L 331.247165 147.530137 
L 330.763642 150.067319 
L 330.14677 152.604501 
L 328.515209 157.678865 
L 326.850872 161.55737 
L 326.294115 162.753229 
L 324.31369 166.329815 
L 323.407564 167.827593 
L 321.662091 170.364775 
L 319.239326 173.444005 
L 316.702144 176.243229 
L 314.164962 178.690268 
L 311.62778 180.845211 
L 308.659394 183.050686 
L 304.608095 185.587868 
L 301.479052 187.229671 
L 298.94187 188.375095 
L 296.404688 189.37211 
L 292.313848 190.662232 
L 288.793142 191.519345 
L 286.25596 191.976139 
L 283.718778 192.307175 
L 281.181596 192.515941 
L 278.644414 192.604999 
L 276.107232 192.575778 
L 273.57005 192.428344 
L 271.032868 192.161205 
L 268.495686 191.771164 
L 265.958504 191.253048 
L 265.958504 191.253048 
" style="fill:none;stroke:#420a67;"/>
   </g>
   <g id="LineCollection_5">
    <path clip-path="url(#pe5e22f54d0)" d="M 352.222693 175.451561 
L 349.685511 179.20977 
L 347.148329 182.517445 
L 346.718373 183.050686 
L 344.492933 185.587868 
L 342.036316 188.12505 
L 339.311119 190.662232 
L 336.263625 193.199414 
L 332.815839 195.736596 
L 329.388054 197.952586 
L 326.850872 199.418895 
L 324.181762 200.81096 
L 319.239326 203.021408 
L 316.702144 203.983129 
L 311.62778 205.573445 
L 306.553416 206.754922 
L 301.479052 207.540957 
L 296.404688 207.944534 
L 291.330324 207.977602 
L 286.25596 207.642548 
L 281.181596 206.927941 
L 276.107232 205.806385 
L 273.57005 205.114013 
L 271.032868 204.304464 
L 265.958504 202.348785 
L 260.88414 199.909511 
L 255.809775 196.924808 
L 254.294673 195.736596 
L 253.134415 193.199414 
L 253.101902 180.513504 
L 253.134415 84.100586 
L 253.272593 83.638456 
L 254.294673 81.563404 
L 255.809775 80.375192 
L 260.88414 77.390489 
L 265.958504 74.951215 
L 271.032868 72.995536 
L 273.57005 72.185987 
L 278.644414 70.88063 
L 283.718778 69.965896 
L 288.793142 69.443583 
L 293.867506 69.293032 
L 298.94187 69.51038 
L 304.016234 70.103216 
L 309.090598 71.087162 
L 311.62778 71.726555 
L 316.702144 73.316871 
L 319.239326 74.278592 
L 324.181762 76.48904 
L 326.850872 77.881105 
L 329.388054 79.347414 
L 332.815839 81.563404 
L 336.263625 84.100586 
L 339.536783 86.840805 
L 342.073965 89.212732 
L 344.611147 91.844112 
L 347.148329 94.782555 
L 349.685511 98.09023 
L 350.572123 99.323678 
L 352.222693 101.848439 
L 352.222693 101.848439 
" style="fill:none;stroke:#5d126e;"/>
   </g>
   <g id="LineCollection_6">
    <path clip-path="url(#pe5e22f54d0)" d="M 352.222693 230.641487 
L 347.148329 232.202274 
L 342.073965 233.463351 
L 336.999601 234.443286 
L 331.925236 235.146931 
L 326.850872 235.577839 
L 321.776508 235.742144 
L 316.702144 235.642737 
L 311.62778 235.278331 
L 306.553416 234.642165 
L 301.479052 233.722949 
L 296.404688 232.541034 
L 291.330324 231.045192 
L 286.25596 229.255433 
L 281.181596 227.138309 
L 276.107232 224.666125 
L 271.032868 221.807485 
L 265.958504 218.512716 
L 262.567285 216.034052 
L 260.88414 214.773536 
L 255.809775 210.450079 
L 250.735411 205.465969 
L 246.650189 200.81096 
L 245.661047 199.394181 
L 245.061733 198.273778 
L 244.815145 195.736596 
L 244.815145 81.563404 
L 245.061733 79.026222 
L 245.661047 77.905819 
L 246.650189 76.48904 
L 248.828172 73.951858 
L 251.166105 71.414676 
L 253.687414 68.877494 
L 256.413165 66.340312 
L 259.365516 63.80313 
L 260.88414 62.526464 
L 266.050389 58.728766 
L 269.9486 56.191584 
L 271.032868 55.492515 
L 276.107232 52.633875 
L 281.181596 50.161691 
L 286.25596 48.044567 
L 291.330324 46.254808 
L 296.404688 44.758966 
L 301.862916 43.505674 
L 306.553416 42.657835 
L 311.62778 42.021669 
L 316.702144 41.657263 
L 321.776508 41.557856 
L 326.850872 41.722161 
L 331.925236 42.153069 
L 336.999601 42.856714 
L 342.073965 43.836649 
L 347.148329 45.097726 
L 352.222693 46.658513 
L 352.222693 46.658513 
" style="fill:none;stroke:#781c6d;"/>
   </g>
   <g id="LineCollection_7">
    <path clip-path="url(#pe5e22f54d0)" d="M 287.079947 266.777693 
L 283.718778 264.128606 
L 278.644414 259.829017 
L 271.032868 252.643365 
L 265.258516 246.480236 
L 263.033879 243.943054 
L 258.346957 238.2381 
L 253.207652 231.257144 
L 249.822283 226.18278 
L 246.692952 221.108416 
L 245.21664 218.571234 
L 242.459904 213.49687 
L 239.928961 208.422506 
L 237.610597 203.348142 
L 236.708866 200.81096 
L 236.521354 198.273778 
L 236.52672 101.86086 
L 236.521354 79.026222 
L 236.708866 76.48904 
L 238.049501 72.901643 
L 241.165997 66.340312 
L 243.810897 61.265948 
L 246.692952 56.191584 
L 249.822283 51.11722 
L 251.485479 48.580038 
L 255.809775 42.396238 
L 260.896787 35.894128 
L 265.958504 30.010965 
L 271.032868 24.656635 
L 276.107232 19.762459 
L 281.181596 15.276906 
L 287.079947 10.522307 
L 287.079947 10.522307 
" style="fill:none;stroke:#942667;"/>
   </g>
   <g id="LineCollection_8">
    <path clip-path="url(#pe5e22f54d0)" d="M 241.307257 266.777693 
L 240.616591 264.240511 
L 240.586683 264.132811 
L 239.948034 261.703329 
L 239.292013 259.166147 
L 238.647952 256.628965 
L 238.049501 254.232696 
L 238.016264 254.091783 
L 237.405989 251.554601 
L 236.808013 249.017419 
L 236.222242 246.480236 
L 235.648573 243.943054 
L 235.512319 243.349048 
L 235.093807 241.405872 
L 234.553716 238.86869 
L 234.026112 236.331508 
L 233.510912 233.794326 
L 233.008019 231.257144 
L 232.975137 231.095415 
L 232.524859 228.719962 
L 232.055004 226.18278 
L 231.597884 223.645598 
L 231.153436 221.108416 
L 230.72159 218.571234 
L 230.437955 216.890193 
L 230.304426 216.034052 
L 229.904595 213.49687 
L 229.517883 210.959688 
L 229.144359 208.422506 
L 228.784163 205.885324 
L 228.437422 203.348142 
L 228.245487 200.81096 
L 228.240397 198.273778 
L 228.239536 195.736596 
L 228.239123 193.199414 
L 228.238961 190.662232 
L 228.238911 188.12505 
L 228.238903 185.587868 
L 228.238906 183.050686 
L 228.238908 180.513504 
L 228.238908 177.976322 
L 228.238906 175.43914 
L 228.238903 172.901957 
L 228.2389 170.364775 
L 228.238899 167.827593 
L 228.238899 165.290411 
L 228.2389 162.753229 
L 228.238902 160.216047 
L 228.238905 157.678865 
L 228.238909 155.141683 
L 228.238913 152.604501 
L 228.238916 150.067319 
L 228.238919 147.530137 
L 228.238921 144.992955 
L 228.238923 142.455773 
L 228.238924 139.918591 
L 228.238924 137.381409 
L 228.238923 134.844227 
L 228.238921 132.307045 
L 228.238919 129.769863 
L 228.238916 127.232681 
L 228.238913 124.695499 
L 228.238909 122.158317 
L 228.238905 119.621135 
L 228.238902 117.083953 
L 228.2389 114.546771 
L 228.238899 112.009589 
L 228.238899 109.472407 
L 228.2389 106.935225 
L 228.238903 104.398043 
L 228.238906 101.86086 
L 228.238908 99.323678 
L 228.238908 96.786496 
L 228.238906 94.249314 
L 228.238903 91.712132 
L 228.238911 89.17495 
L 228.238961 86.637768 
L 228.239123 84.100586 
L 228.239536 81.563404 
L 228.240397 79.026222 
L 228.245487 76.48904 
L 228.437422 73.951858 
L 228.784163 71.414676 
L 229.144359 68.877494 
L 229.517883 66.340312 
L 229.904595 63.80313 
L 230.304426 61.265948 
L 230.437955 60.409807 
L 230.72159 58.728766 
L 231.153436 56.191584 
L 231.597884 53.654402 
L 232.055004 51.11722 
L 232.524859 48.580038 
L 232.975137 46.204585 
L 233.008019 46.042856 
L 233.510912 43.505674 
L 234.026112 40.968492 
L 234.553716 38.43131 
L 235.093807 35.894128 
L 235.512319 33.950952 
L 235.648573 33.356946 
L 236.222242 30.819764 
L 236.808013 28.282581 
L 237.405989 25.745399 
L 238.016264 23.208217 
L 238.049501 23.067304 
L 238.647952 20.671035 
L 239.292013 18.133853 
L 239.948034 15.596671 
L 240.586683 13.167189 
L 240.616591 13.059489 
L 241.307257 10.522307 
" style="fill:none;stroke:#ae305c;"/>
   </g>
   <g id="LineCollection_9">
    <path clip-path="url(#pe5e22f54d0)" d="M 206.882743 266.777693 
L 207.573409 264.240511 
L 207.603317 264.132811 
L 208.241966 261.703329 
L 208.897987 259.166147 
L 209.542048 256.628965 
L 210.140499 254.232696 
L 210.173736 254.091783 
L 210.784011 251.554601 
L 211.381987 249.017419 
L 211.967758 246.480236 
L 212.541427 243.943054 
L 212.677681 243.349048 
L 213.096193 241.405872 
L 213.636284 238.86869 
L 214.163888 236.331508 
L 214.679088 233.794326 
L 215.181981 231.257144 
L 215.214863 231.095415 
L 215.665141 228.719962 
L 216.134996 226.18278 
L 216.592116 223.645598 
L 217.036564 221.108416 
L 217.46841 218.571234 
L 217.752045 216.890193 
L 217.885574 216.034052 
L 218.285405 213.49687 
L 218.672117 210.959688 
L 219.045641 208.422506 
L 219.405837 205.885324 
L 219.752578 203.348142 
L 219.944513 200.81096 
L 219.949603 198.273778 
L 219.950464 195.736596 
L 219.950877 193.199414 
L 219.951039 190.662232 
L 219.951089 188.12505 
L 219.951097 185.587868 
L 219.951094 183.050686 
L 219.951092 180.513504 
L 219.951092 177.976322 
L 219.951094 175.43914 
L 219.951097 172.901957 
L 219.9511 170.364775 
L 219.951101 167.827593 
L 219.951101 165.290411 
L 219.9511 162.753229 
L 219.951098 160.216047 
L 219.951095 157.678865 
L 219.951091 155.141683 
L 219.951087 152.604501 
L 219.951084 150.067319 
L 219.951081 147.530137 
L 219.951079 144.992955 
L 219.951077 142.455773 
L 219.951076 139.918591 
L 219.951076 137.381409 
L 219.951077 134.844227 
L 219.951079 132.307045 
L 219.951081 129.769863 
L 219.951084 127.232681 
L 219.951087 124.695499 
L 219.951091 122.158317 
L 219.951095 119.621135 
L 219.951098 117.083953 
L 219.9511 114.546771 
L 219.951101 112.009589 
L 219.951101 109.472407 
L 219.9511 106.935225 
L 219.951097 104.398043 
L 219.951094 101.86086 
L 219.951092 99.323678 
L 219.951092 96.786496 
L 219.951094 94.249314 
L 219.951097 91.712132 
L 219.951089 89.17495 
L 219.951039 86.637768 
L 219.950877 84.100586 
L 219.950464 81.563404 
L 219.949603 79.026222 
L 219.944513 76.48904 
L 219.752578 73.951858 
L 219.405837 71.414676 
L 219.045641 68.877494 
L 218.672117 66.340312 
L 218.285405 63.80313 
L 217.885574 61.265948 
L 217.752045 60.409807 
L 217.46841 58.728766 
L 217.036564 56.191584 
L 216.592116 53.654402 
L 216.134996 51.11722 
L 215.665141 48.580038 
L 215.214863 46.204585 
L 215.181981 46.042856 
L 214.679088 43.505674 
L 214.163888 40.968492 
L 213.636284 38.43131 
L 213.096193 35.894128 
L 212.677681 33.950952 
L 212.541427 33.356946 
L 211.967758 30.819764 
L 211.381987 28.282581 
L 210.784011 25.745399 
L 210.173736 23.208217 
L 210.140499 23.067304 
L 209.542048 20.671035 
L 208.897987 18.133853 
L 208.241966 15.596671 
L 207.603317 13.167189 
L 207.573409 13.059489 
L 206.882743 10.522307 
" style="fill:none;stroke:#c73e4c;"/>
   </g>
   <g id="LineCollection_10">
    <path clip-path="url(#pe5e22f54d0)" d="M 161.110053 266.777693 
L 164.471222 264.128606 
L 169.545586 259.829017 
L 177.157132 252.643365 
L 182.931484 246.480236 
L 185.156121 243.943054 
L 189.843043 238.2381 
L 194.982348 231.257144 
L 198.367717 226.18278 
L 201.497048 221.108416 
L 202.97336 218.571234 
L 205.730096 213.49687 
L 208.261039 208.422506 
L 210.579403 203.348142 
L 211.481134 200.81096 
L 211.668646 198.273778 
L 211.66328 101.86086 
L 211.668646 79.026222 
L 211.481134 76.48904 
L 210.140499 72.901643 
L 207.024003 66.340312 
L 204.379103 61.265948 
L 201.497048 56.191584 
L 198.367717 51.11722 
L 196.704521 48.580038 
L 192.380225 42.396238 
L 187.293213 35.894128 
L 182.231496 30.010965 
L 177.157132 24.656635 
L 172.082768 19.762459 
L 167.008404 15.276906 
L 161.110053 10.522307 
L 161.110053 10.522307 
" style="fill:none;stroke:#dc503a;"/>
   </g>
   <g id="LineCollection_11">
    <path clip-path="url(#pe5e22f54d0)" d="M 95.967307 230.641487 
L 101.041671 232.202274 
L 106.116035 233.463351 
L 111.190399 234.443286 
L 116.264764 235.146931 
L 121.339128 235.577839 
L 126.413492 235.742144 
L 131.487856 235.642737 
L 136.56222 235.278331 
L 141.636584 234.642165 
L 146.710948 233.722949 
L 151.785312 232.541034 
L 156.859676 231.045192 
L 161.93404 229.255433 
L 167.008404 227.138309 
L 172.082768 224.666125 
L 177.157132 221.807485 
L 182.231496 218.512716 
L 185.622715 216.034052 
L 187.30586 214.773536 
L 192.380225 210.450079 
L 197.454589 205.465969 
L 201.539811 200.81096 
L 202.528953 199.394181 
L 203.128267 198.273778 
L 203.374855 195.736596 
L 203.374855 81.563404 
L 203.128267 79.026222 
L 202.528953 77.905819 
L 201.539811 76.48904 
L 199.361828 73.951858 
L 197.023895 71.414676 
L 194.502586 68.877494 
L 191.776835 66.340312 
L 188.824484 63.80313 
L 187.30586 62.526464 
L 182.139611 58.728766 
L 178.2414 56.191584 
L 177.157132 55.492515 
L 172.082768 52.633875 
L 167.008404 50.161691 
L 161.93404 48.044567 
L 156.859676 46.254808 
L 151.785312 44.758966 
L 146.327084 43.505674 
L 141.636584 42.657835 
L 136.56222 42.021669 
L 131.487856 41.657263 
L 126.413492 41.557856 
L 121.339128 41.722161 
L 116.264764 42.153069 
L 111.190399 42.856714 
L 106.116035 43.836649 
L 101.041671 45.097726 
L 95.967307 46.658513 
L 95.967307 46.658513 
" style="fill:none;stroke:#ed6925;"/>
   </g>
   <g id="LineCollection_12">
    <path clip-path="url(#pe5e22f54d0)" d="M 95.967307 175.451561 
L 98.504489 179.20977 
L 101.041671 182.517445 
L 101.471627 183.050686 
L 103.697067 185.587868 
L 106.153684 188.12505 
L 108.878881 190.662232 
L 111.926375 193.199414 
L 115.374161 195.736596 
L 118.801946 197.952586 
L 121.339128 199.418895 
L 124.008238 200.81096 
L 128.950674 203.021408 
L 131.487856 203.983129 
L 136.56222 205.573445 
L 141.636584 206.754922 
L 146.710948 207.540957 
L 151.785312 207.944534 
L 156.859676 207.977602 
L 161.93404 207.642548 
L 167.008404 206.927941 
L 172.082768 205.806385 
L 174.61995 205.114013 
L 177.157132 204.304464 
L 182.231496 202.348785 
L 187.30586 199.909511 
L 192.380225 196.924808 
L 193.895327 195.736596 
L 195.055585 193.199414 
L 195.088098 180.513504 
L 195.055585 84.100586 
L 194.917407 83.638456 
L 193.895327 81.563404 
L 192.380225 80.375192 
L 187.30586 77.390489 
L 182.231496 74.951215 
L 177.157132 72.995536 
L 174.61995 72.185987 
L 169.545586 70.88063 
L 164.471222 69.965896 
L 159.396858 69.443583 
L 154.322494 69.293032 
L 149.24813 69.51038 
L 144.173766 70.103216 
L 139.099402 71.087162 
L 136.56222 71.726555 
L 131.487856 73.316871 
L 128.950674 74.278592 
L 124.008238 76.48904 
L 121.339128 77.881105 
L 118.801946 79.347414 
L 115.374161 81.563404 
L 111.926375 84.100586 
L 108.653217 86.840805 
L 106.116035 89.212732 
L 103.578853 91.844112 
L 101.041671 94.782555 
L 98.504489 98.09023 
L 97.617877 99.323678 
L 95.967307 101.848439 
L 95.967307 101.848439 
" style="fill:none;stroke:#f8860f;"/>
   </g>
   <g id="LineCollection_13">
    <path clip-path="url(#pe5e22f54d0)" d="M 156.859676 190.932553 
L 159.396858 191.519345 
L 161.93404 191.976139 
L 164.471222 192.307175 
L 167.008404 192.515941 
L 169.545586 192.604999 
L 172.082768 192.575778 
L 174.61995 192.428344 
L 177.157132 192.161205 
L 179.694314 191.771164 
L 182.231496 191.253048 
L 184.768678 190.529561 
L 186.671054 188.12505 
L 186.795316 185.587868 
L 186.799367 144.992955 
L 186.795316 91.712132 
L 186.671054 89.17495 
L 184.768678 86.770439 
L 184.394255 86.637768 
L 182.231496 86.046952 
L 179.694314 85.528836 
L 177.157132 85.138795 
L 174.61995 84.871656 
L 172.082768 84.724222 
L 169.545586 84.695001 
L 167.008404 84.784059 
L 164.471222 84.992825 
L 161.93404 85.323861 
L 159.396858 85.780655 
L 155.876152 86.637768 
L 154.322494 87.079757 
L 151.785312 87.92789 
L 148.67194 89.17495 
L 146.710948 90.070329 
L 143.581905 91.712132 
L 139.530606 94.249314 
L 136.56222 96.454789 
L 136.143986 96.786496 
L 133.23667 99.323678 
L 130.706587 101.86086 
L 128.486079 104.398043 
L 126.413492 107.099943 
L 123.87631 110.970185 
L 123.248999 112.009589 
L 121.339128 115.74263 
L 120.708576 117.083953 
L 119.674791 119.621135 
L 118.04323 124.695499 
L 117.426358 127.232681 
L 116.942835 129.769863 
L 116.585931 132.307045 
L 116.264764 136.709134 
L 116.232404 137.381409 
L 116.264764 140.590866 
L 116.3507 142.455773 
L 116.585931 144.992955 
L 116.942835 147.530137 
L 117.426358 150.067319 
L 118.04323 152.604501 
L 119.674791 157.678865 
L 121.339128 161.55737 
L 121.895885 162.753229 
L 123.87631 166.329815 
L 124.782436 167.827593 
L 126.527909 170.364775 
L 128.950674 173.444005 
L 131.487856 176.243229 
L 134.025038 178.690268 
L 136.56222 180.845211 
L 139.530606 183.050686 
L 143.581905 185.587868 
L 146.710948 187.229671 
L 149.24813 188.375095 
L 151.785312 189.37211 
L 155.876152 190.662232 
L 156.859676 190.932553 
L 156.859676 190.932553 
" style="fill:none;stroke:#fca40b;"/>
   </g>
   <g id="LineCollection_14">
    <path clip-path="url(#pe5e22f54d0)" d="M 167.008404 180.860076 
L 169.545586 181.565061 
L 172.082768 182.107911 
L 174.61995 182.456535 
L 177.157132 182.184729 
L 178.298198 180.513504 
L 178.508696 177.976322 
L 178.512119 175.43914 
L 178.513433 172.901957 
L 178.512843 170.364775 
L 178.511497 167.827593 
L 178.510828 165.290411 
L 178.510634 162.753229 
L 178.510853 160.216047 
L 178.511261 157.678865 
L 178.511666 155.141683 
L 178.511894 152.604501 
L 178.511847 150.067319 
L 178.511561 147.530137 
L 178.511188 144.992955 
L 178.510878 142.455773 
L 178.510713 139.918591 
L 178.510713 137.381409 
L 178.510878 134.844227 
L 178.511188 132.307045 
L 178.511561 129.769863 
L 178.511847 127.232681 
L 178.511894 124.695499 
L 178.511666 122.158317 
L 178.511261 119.621135 
L 178.510853 117.083953 
L 178.510634 114.546771 
L 178.510828 112.009589 
L 178.511497 109.472407 
L 178.512843 106.935225 
L 178.513433 104.398043 
L 178.512119 101.86086 
L 178.508696 99.323678 
L 178.298198 96.786496 
L 177.157132 95.115271 
L 174.61995 94.843465 
L 172.082768 95.192089 
L 169.545586 95.734939 
L 167.008404 96.439924 
L 165.962831 96.786496 
L 164.471222 97.3062 
L 161.93404 98.350405 
L 159.914045 99.323678 
L 159.396858 99.590653 
L 156.859676 101.040243 
L 155.572126 101.86086 
L 154.322494 102.728508 
L 152.127234 104.398043 
L 151.785312 104.68505 
L 149.274488 106.935225 
L 149.24813 106.96164 
L 146.853219 109.472407 
L 146.710948 109.641475 
L 144.773708 112.009589 
L 144.173766 112.852782 
L 142.985531 114.546771 
L 141.636584 116.791932 
L 141.461559 117.083953 
L 140.135139 119.621135 
L 139.099402 122.008961 
L 139.033636 122.158317 
L 138.086281 124.695499 
L 137.32625 127.232681 
L 136.736974 129.769863 
L 136.56222 130.788546 
L 136.29068 132.307045 
L 135.991302 134.844227 
L 135.843061 137.381409 
L 135.843061 139.918591 
L 135.991302 142.455773 
L 136.29068 144.992955 
L 136.56222 146.511454 
L 136.736974 147.530137 
L 137.32625 150.067319 
L 138.086281 152.604501 
L 139.033636 155.141683 
L 139.099402 155.291039 
L 140.135139 157.678865 
L 141.461559 160.216047 
L 141.636584 160.508068 
L 142.985531 162.753229 
L 144.173766 164.447218 
L 144.773708 165.290411 
L 146.710948 167.658525 
L 146.853219 167.827593 
L 149.24813 170.33836 
L 149.274488 170.364775 
L 151.785312 172.61495 
L 152.127234 172.901957 
L 154.322494 174.571492 
L 155.572126 175.43914 
L 156.859676 176.259757 
L 159.396858 177.709347 
L 159.914045 177.976322 
L 161.93404 178.949595 
L 164.471222 179.9938 
L 165.962831 180.513504 
L 167.008404 180.860076 
" style="fill:none;stroke:#f9c62e;"/>
   </g>
   <g id="LineCollection_15">
    <path clip-path="url(#pe5e22f54d0)" d="M 167.008404 170.36485 
L 169.545586 170.641198 
L 169.726978 170.364775 
L 170.178615 167.827593 
L 170.220958 165.290411 
L 170.214884 162.753229 
L 170.220557 160.216047 
L 170.223002 157.678865 
L 170.226178 155.141683 
L 170.228406 152.604501 
L 170.227828 150.067319 
L 170.22453 147.530137 
L 170.221604 144.992955 
L 170.22041 142.455773 
L 170.220277 139.918591 
L 170.220277 137.381409 
L 170.22041 134.844227 
L 170.221604 132.307045 
L 170.22453 129.769863 
L 170.227828 127.232681 
L 170.228406 124.695499 
L 170.226178 122.158317 
L 170.223002 119.621135 
L 170.220557 117.083953 
L 170.214884 114.546771 
L 170.220958 112.009589 
L 170.178615 109.472407 
L 169.726978 106.935225 
L 169.545586 106.658802 
L 167.008404 106.93515 
L 167.008285 106.935225 
L 164.471222 108.666617 
L 163.418343 109.472407 
L 161.93404 110.751442 
L 160.572517 112.009589 
L 159.396858 113.251948 
L 158.224648 114.546771 
L 156.859676 116.299902 
L 156.264593 117.083953 
L 154.623835 119.621135 
L 154.322494 120.174638 
L 153.239257 122.158317 
L 152.116597 124.695499 
L 151.785312 125.626227 
L 151.197331 127.232681 
L 150.477155 129.769863 
L 149.954735 132.307045 
L 149.614322 134.844227 
L 149.446413 137.381409 
L 149.446413 139.918591 
L 149.614322 142.455773 
L 149.954735 144.992955 
L 150.477155 147.530137 
L 151.197331 150.067319 
L 151.785312 151.673773 
L 152.116597 152.604501 
L 153.239257 155.141683 
L 154.322494 157.125362 
L 154.623835 157.678865 
L 156.264593 160.216047 
L 156.859676 161.000098 
L 158.224648 162.753229 
L 159.396858 164.048052 
L 160.572517 165.290411 
L 161.93404 166.548558 
L 163.418343 167.827593 
L 164.471222 168.633383 
L 167.008285 170.364775 
L 167.008404 170.36485 
" style="fill:none;stroke:#f3e660;"/>
   </g>
   <g id="LineCollection_16"/>
   <g id="matplotlib.axis_1">
    <g id="xtick_1">
     <g id="line2d_1">
      <defs>
       <path d="M 0 0 
L 0 -3.5 
" id="m20a928682c" style="stroke:#000000;stroke-width:0.8;"/>
      </defs>
      <g>
       <use style="stroke:#000000;stroke-width:0.8;" x="33.806347" xlink:href="#m20a928682c" y="274.465354"/>
      </g>
     </g>
     <g id="text_1">
      <!-- -0.5 -->
      <defs>
       <path d="M 4.890625 31.390625 
L 31.203125 31.390625 
L 31.203125 23.390625 
L 4.890625 23.390625 
z
" id="DejaVuSans-45"/>
       <path d="M 31.78125 66.40625 
Q 24.171875 66.40625 20.328125 58.90625 
Q 16.5 51.421875 16.5 36.375 
Q 16.5 21.390625 20.328125 13.890625 
Q 24.171875 6.390625 31.78125 6.390625 
Q 39.453125 6.390625 43.28125 13.890625 
Q 47.125 21.390625 47.125 36.375 
Q 47.125 51.421875 43.28125 58.90625 
Q 39.453125 66.40625 31.78125 66.40625 
z
M 31.78125 74.21875 
Q 44.046875 74.21875 50.515625 64.515625 
Q 56.984375 54.828125 56.984375 36.375 
Q 56.984375 17.96875 50.515625 8.265625 
Q 44.046875 -1.421875 31.78125 -1.421875 
Q 19.53125 -1.421875 13.0625 8.265625 
Q 6.59375 17.96875 6.59375 36.375 
Q 6.59375 54.828125 13.0625 64.515625 
Q 19.53125 74.21875 31.78125 74.21875 
z
" id="DejaVuSans-48"/>
       <path d="M 10.6875 12.40625 
L 21 12.40625 
L 21 0 
L 10.6875 0 
z
" id="DejaVuSans-46"/>
       <path d="M 10.796875 72.90625 
L 49.515625 72.90625 
L 49.515625 64.59375 
L 19.828125 64.59375 
L 19.828125 46.734375 
Q 21.96875 47.46875 24.109375 47.828125 
Q 26.265625 48.1875 28.421875 48.1875 
Q 40.625 48.1875 47.75 41.5 
Q 54.890625 34.8125 54.890625 23.390625 
Q 54.890625 11.625 47.5625 5.09375 
Q 40.234375 -1.421875 26.90625 -1.421875 
Q 22.3125 -1.421875 17.546875 -0.640625 
Q 12.796875 0.140625 7.71875 1.703125 
L 7.71875 11.625 
Q 12.109375 9.234375 16.796875 8.0625 
Q 21.484375 6.890625 26.703125 6.890625 
Q 35.15625 6.890625 40.078125 11.328125 
Q 45.015625 15.765625 45.015625 23.390625 
Q 45.015625 31 40.078125 35.4375 
Q 35.15625 39.890625 26.703125 39.890625 
Q 22.75 39.890625 18.8125 39.015625 
Q 14.890625 38.140625 10.796875 36.28125 
z
" id="DejaVuSans-53"/>
      </defs>
      <g transform="translate(26.001972 284.044104)scale(0.08 -0.08)">
       <use xlink:href="#DejaVuSans-45"/>
       <use x="36.083984" xlink:href="#DejaVuSans-48"/>
       <use x="99.707031" xlink:href="#DejaVuSans-46"/>
       <use x="131.494141" xlink:href="#DejaVuSans-53"/>
      </g>
     </g>
    </g>
    <g id="xtick_2">
     <g id="line2d_2">
      <g>
       <use style="stroke:#000000;stroke-width:0.8;" x="97.235898" xlink:href="#m20a928682c" y="274.465354"/>
      </g>
     </g>
     <g id="text_2">
      <!-- 0.0 -->
      <g transform="translate(90.874648 284.044104)scale(0.08 -0.08)">
       <use xlink:href="#DejaVuSans-48"/>
       <use x="63.623047" xlink:href="#DejaVuSans-46"/>
       <use x="95.410156" xlink:href="#DejaVuSans-48"/>
      </g>
     </g>
    </g>
    <g id="xtick_3">
     <g id="line2d_3">
      <g>
       <use style="stroke:#000000;stroke-width:0.8;" x="160.665449" xlink:href="#m20a928682c" y="274.465354"/>
      </g>
     </g>
     <g id="text_3">
      <!-- 0.5 -->
      <g transform="translate(154.304199 284.044104)scale(0.08 -0.08)">
       <use xlink:href="#DejaVuSans-48"/>
       <use x="63.623047" xlink:href="#DejaVuSans-46"/>
       <use x="95.410156" xlink:href="#DejaVuSans-53"/>
      </g>
     </g>
    </g>
    <g id="xtick_4">
     <g id="line2d_4">
      <g>
       <use style="stroke:#000000;stroke-width:0.8;" x="224.095" xlink:href="#m20a928682c" y="274.465354"/>
      </g>
     </g>
     <g id="text_4">
      <!-- 1.0 -->
      <defs>
       <path d="M 12.40625 8.296875 
L 28.515625 8.296875 
L 28.515625 63.921875 
L 10.984375 60.40625 
L 10.984375 69.390625 
L 28.421875 72.90625 
L 38.28125 72.90625 
L 38.28125 8.296875 
L 54.390625 8.296875 
L 54.390625 0 
L 12.40625 0 
z
" id="DejaVuSans-49"/>
      </defs>
      <g transform="translate(217.73375 284.044104)scale(0.08 -0.08)">
       <use xlink:href="#DejaVuSans-49"/>
       <use x="63.623047" xlink:href="#DejaVuSans-46"/>
       <use x="95.410156" xlink:href="#DejaVuSans-48"/>
      </g>
     </g>
    </g>
    <g id="xtick_5">
     <g id="line2d_5">
      <g>
       <use style="stroke:#000000;stroke-width:0.8;" x="287.524551" xlink:href="#m20a928682c" y="274.465354"/>
      </g>
     </g>
     <g id="text_5">
      <!-- 1.5 -->
      <g transform="translate(281.163301 284.044104)scale(0.08 -0.08)">
       <use xlink:href="#DejaVuSans-49"/>
       <use x="63.623047" xlink:href="#DejaVuSans-46"/>
       <use x="95.410156" xlink:href="#DejaVuSans-53"/>
      </g>
     </g>
    </g>
    <g id="xtick_6">
     <g id="line2d_6">
      <g>
       <use style="stroke:#000000;stroke-width:0.8;" x="350.954102" xlink:href="#m20a928682c" y="274.465354"/>
      </g>
     </g>
     <g id="text_6">
      <!-- 2.0 -->
      <defs>
       <path d="M 19.1875 8.296875 
L 53.609375 8.296875 
L 53.609375 0 
L 7.328125 0 
L 7.328125 8.296875 
Q 12.9375 14.109375 22.625 23.890625 
Q 32.328125 33.6875 34.8125 36.53125 
Q 39.546875 41.84375 41.421875 45.53125 
Q 43.3125 49.21875 43.3125 52.78125 
Q 43.3125 58.59375 39.234375 62.25 
Q 35.15625 65.921875 28.609375 65.921875 
Q 23.96875 65.921875 18.8125 64.3125 
Q 13.671875 62.703125 7.8125 59.421875 
L 7.8125 69.390625 
Q 13.765625 71.78125 18.9375 73 
Q 24.125 74.21875 28.421875 74.21875 
Q 39.75 74.21875 46.484375 68.546875 
Q 53.21875 62.890625 53.21875 53.421875 
Q 53.21875 48.921875 51.53125 44.890625 
Q 49.859375 40.875 45.40625 35.40625 
Q 44.1875 33.984375 37.640625 27.21875 
Q 31.109375 20.453125 19.1875 8.296875 
z
" id="DejaVuSans-50"/>
      </defs>
      <g transform="translate(344.592852 284.044104)scale(0.08 -0.08)">
       <use xlink:href="#DejaVuSans-50"/>
       <use x="63.623047" xlink:href="#DejaVuSans-46"/>
       <use x="95.410156" xlink:href="#DejaVuSans-48"/>
      </g>
     </g>
    </g>
    <g id="xtick_7">
     <g id="line2d_7">
      <g>
       <use style="stroke:#000000;stroke-width:0.8;" x="414.383653" xlink:href="#m20a928682c" y="274.465354"/>
      </g>
     </g>
     <g id="text_7">
      <!-- 2.5 -->
      <g transform="translate(408.022403 284.044104)scale(0.08 -0.08)">
       <use xlink:href="#DejaVuSans-50"/>
       <use x="63.623047" xlink:href="#DejaVuSans-46"/>
       <use x="95.410156" xlink:href="#DejaVuSans-53"/>
      </g>
     </g>
    </g>
   </g>
   <g id="matplotlib.axis_2">
    <g id="ytick_1">
     <g id="line2d_8">
      <defs>
       <path d="M 0 0 
L 3.5 0 
" id="mf6df869759" style="stroke:#000000;stroke-width:0.8;"/>
      </defs>
      <g>
       <use style="stroke:#000000;stroke-width:0.8;" x="19.024646" xlink:href="#mf6df869759" y="265.509102"/>
      </g>
     </g>
     <g id="text_8">
      <!-- 0.0 -->
      <g transform="translate(2.802146 268.548477)scale(0.08 -0.08)">
       <use xlink:href="#DejaVuSans-48"/>
       <use x="63.623047" xlink:href="#DejaVuSans-46"/>
       <use x="95.410156" xlink:href="#DejaVuSans-48"/>
      </g>
     </g>
    </g>
    <g id="ytick_2">
     <g id="line2d_9">
      <g>
       <use style="stroke:#000000;stroke-width:0.8;" x="19.024646" xlink:href="#mf6df869759" y="202.079551"/>
      </g>
     </g>
     <g id="text_9">
      <!-- 0.5 -->
      <g transform="translate(2.802146 205.118926)scale(0.08 -0.08)">
       <use xlink:href="#DejaVuSans-48"/>
       <use x="63.623047" xlink:href="#DejaVuSans-46"/>
       <use x="95.410156" xlink:href="#DejaVuSans-53"/>
      </g>
     </g>
    </g>
    <g id="ytick_3">
     <g id="line2d_10">
      <g>
       <use style="stroke:#000000;stroke-width:0.8;" x="19.024646" xlink:href="#mf6df869759" y="138.65"/>
      </g>
     </g>
     <g id="text_10">
      <!-- 1.0 -->
      <g transform="translate(2.802146 141.689375)scale(0.08 -0.08)">
       <use xlink:href="#DejaVuSans-49"/>
       <use x="63.623047" xlink:href="#DejaVuSans-46"/>
       <use x="95.410156" xlink:href="#DejaVuSans-48"/>
      </g>
     </g>
    </g>
    <g id="ytick_4">
     <g id="line2d_11">
      <g>
       <use style="stroke:#000000;stroke-width:0.8;" x="19.024646" xlink:href="#mf6df869759" y="75.220449"/>
      </g>
     </g>
     <g id="text_11">
      <!-- 1.5 -->
      <g transform="translate(2.802146 78.259824)scale(0.08 -0.08)">
       <use xlink:href="#DejaVuSans-49"/>
       <use x="63.623047" xlink:href="#DejaVuSans-46"/>
       <use x="95.410156" xlink:href="#DejaVuSans-53"/>
      </g>
     </g>
    </g>
    <g id="ytick_5">
     <g id="line2d_12">
      <g>
       <use style="stroke:#000000;stroke-width:0.8;" x="19.024646" xlink:href="#mf6df869759" y="11.790898"/>
      </g>
     </g>
     <g id="text_12">
      <!-- 2.0 -->
      <g transform="translate(2.802146 14.830273)scale(0.08 -0.08)">
       <use xlink:href="#DejaVuSans-50"/>
       <use x="63.623047" xlink:href="#DejaVuSans-46"/>
       <use x="95.410156" xlink:href="#DejaVuSans-48"/>
      </g>
     </g>
    </g>
   </g>
   <g id="PolyCollection_1">
    <path clip-path="url(#pe5e22f54d0)" d="M 287.524551 138.65 
L 287.524551 265.509102 
L 287.448147 265.509102 
L 287.21912 265.509102 
L 286.838022 265.509102 
L 286.30577 265.509102 
L 285.623647 265.509102 
L 284.793296 265.509102 
L 283.816717 265.509102 
L 282.696264 265.509102 
L 281.434635 265.509102 
L 280.03487 265.509102 
L 278.500341 265.509102 
L 276.834744 265.509102 
L 275.042093 265.509102 
L 273.126706 265.509102 
L 271.093197 265.509102 
L 268.946466 265.509102 
L 266.691683 265.509102 
L 264.334281 265.509102 
L 261.879939 265.509102 
L 259.33457 265.509102 
L 256.704306 265.509102 
L 253.995483 265.509102 
L 251.214628 265.509102 
L 248.368438 265.509102 
L 245.463772 265.509102 
L 242.507627 265.509102 
L 239.507124 265.509102 
L 236.469492 265.509102 
L 233.402048 265.509102 
L 230.312183 265.509102 
L 227.207341 265.509102 
L 224.095 265.509102 
L 220.982659 265.509102 
L 217.877817 265.509102 
L 214.787952 265.509102 
L 211.720508 265.509102 
L 208.682876 265.509102 
L 205.682373 265.509102 
L 202.726228 265.509102 
L 199.821562 265.509102 
L 196.975372 265.509102 
L 194.194517 265.509102 
L 191.485694 265.509102 
L 188.85543 265.509102 
L 186.310061 265.509102 
L 183.855719 265.509102 
L 181.498317 265.509102 
L 179.243534 265.509102 
L 177.096803 265.509102 
L 175.063294 265.509102 
L 173.147907 265.509102 
L 171.355256 265.509102 
L 169.689659 265.509102 
L 168.15513 265.509102 
L 166.755365 265.509102 
L 165.493736 265.509102 
L 164.373283 265.509102 
L 163.396704 265.509102 
L 162.566353 265.509102 
L 161.88423 265.509102 
L 161.351978 265.509102 
L 160.97088 265.509102 
L 160.741853 265.509102 
L 160.665449 265.509102 
L 160.741853 265.509102 
L 160.97088 265.509102 
L 161.351978 265.509102 
L 161.88423 265.509102 
L 162.566353 265.509102 
L 163.396704 265.509102 
L 164.373283 265.509102 
L 165.493736 265.509102 
L 166.755365 265.509102 
L 168.15513 265.509102 
L 169.689659 265.509102 
L 171.355256 265.509102 
L 173.147907 265.509102 
L 175.063294 265.509102 
L 177.096803 265.509102 
L 179.243534 265.509102 
L 181.498317 265.509102 
L 183.855719 265.509102 
L 186.310061 265.509102 
L 188.85543 265.509102 
L 191.485694 265.509102 
L 194.194517 265.509102 
L 196.975372 265.509102 
L 199.821562 265.509102 
L 202.726228 265.509102 
L 205.682373 265.509102 
L 208.682876 265.509102 
L 211.720508 265.509102 
L 214.787952 265.509102 
L 217.877817 265.509102 
L 220.982659 265.509102 
L 224.095 265.509102 
L 227.207341 265.509102 
L 230.312183 265.509102 
L 233.402048 265.509102 
L 236.469492 265.509102 
L 239.507124 265.509102 
L 242.507627 265.509102 
L 245.463772 265.509102 
L 248.368438 265.509102 
L 251.214628 265.509102 
L 253.995483 265.509102 
L 256.704306 265.509102 
L 259.33457 265.509102 
L 261.879939 265.509102 
L 264.334281 265.509102 
L 266.691683 265.509102 
L 268.946466 265.509102 
L 271.093197 265.509102 
L 273.126706 265.509102 
L 275.042093 265.509102 
L 276.834744 265.509102 
L 278.500341 265.509102 
L 280.03487 265.509102 
L 281.434635 265.509102 
L 282.696264 265.509102 
L 283.816717 265.509102 
L 284.793296 265.509102 
L 285.623647 265.509102 
L 286.30577 265.509102 
L 286.838022 265.509102 
L 287.21912 265.509102 
L 287.448147 265.509102 
L 287.448147 141.762341 
L 287.448147 141.762341 
L 287.21912 144.867183 
L 286.838022 147.957048 
L 286.30577 151.024492 
L 285.623647 154.062124 
L 284.793296 157.062627 
L 283.816717 160.018772 
L 282.696264 162.923438 
L 281.434635 165.769628 
L 280.03487 168.550483 
L 278.500341 171.259306 
L 276.834744 173.88957 
L 275.042093 176.434939 
L 273.126706 178.889281 
L 271.093197 181.246683 
L 268.946466 183.501466 
L 266.691683 185.648197 
L 264.334281 187.681706 
L 261.879939 189.597093 
L 259.33457 191.389744 
L 256.704306 193.055341 
L 253.995483 194.58987 
L 251.214628 195.989635 
L 248.368438 197.251264 
L 245.463772 198.371717 
L 242.507627 199.348296 
L 239.507124 200.178647 
L 236.469492 200.86077 
L 233.402048 201.393022 
L 230.312183 201.77412 
L 227.207341 202.003147 
L 224.095 202.079551 
L 220.982659 202.003147 
L 217.877817 201.77412 
L 214.787952 201.393022 
L 211.720508 200.86077 
L 208.682876 200.178647 
L 205.682373 199.348296 
L 202.726228 198.371717 
L 199.821562 197.251264 
L 196.975372 195.989635 
L 194.194517 194.58987 
L 191.485694 193.055341 
L 188.85543 191.389744 
L 186.310061 189.597093 
L 183.855719 187.681706 
L 181.498317 185.648197 
L 179.243534 183.501466 
L 177.096803 181.246683 
L 175.063294 178.889281 
L 173.147907 176.434939 
L 171.355256 173.88957 
L 169.689659 171.259306 
L 168.15513 168.550483 
L 166.755365 165.769628 
L 165.493736 162.923438 
L 164.373283 160.018772 
L 163.396704 157.062627 
L 162.566353 154.062124 
L 161.88423 151.024492 
L 161.351978 147.957048 
L 160.97088 144.867183 
L 160.741853 141.762341 
L 160.665449 138.65 
L 160.741853 135.537659 
L 160.97088 132.432817 
L 161.351978 129.342952 
L 161.88423 126.275508 
L 162.566353 123.237876 
L 163.396704 120.237373 
L 164.373283 117.281228 
L 165.493736 114.376562 
L 166.755365 111.530372 
L 168.15513 108.749517 
L 169.689659 106.040694 
L 171.355256 103.41043 
L 173.147907 100.865061 
L 175.063294 98.410719 
L 177.096803 96.053317 
L 179.243534 93.798534 
L 181.498317 91.651803 
L 183.855719 89.618294 
L 186.310061 87.702907 
L 188.85543 85.910256 
L 191.485694 84.244659 
L 194.194517 82.71013 
L 196.975372 81.310365 
L 199.821562 80.048736 
L 202.726228 78.928283 
L 205.682373 77.951704 
L 208.682876 77.121353 
L 211.720508 76.43923 
L 214.787952 75.906978 
L 217.877817 75.52588 
L 220.982659 75.296853 
L 224.095 75.220449 
L 227.207341 75.296853 
L 230.312183 75.52588 
L 233.402048 75.906978 
L 236.469492 76.43923 
L 239.507124 77.121353 
L 242.507627 77.951704 
L 245.463772 78.928283 
L 248.368438 80.048736 
L 251.214628 81.310365 
L 253.995483 82.71013 
L 256.704306 84.244659 
L 259.33457 85.910256 
L 261.879939 87.702907 
L 264.334281 89.618294 
L 266.691683 91.651803 
L 268.946466 93.798534 
L 271.093197 96.053317 
L 273.126706 98.410719 
L 275.042093 100.865061 
L 276.834744 103.41043 
L 278.500341 106.040694 
L 280.03487 108.749517 
L 281.434635 111.530372 
L 282.696264 114.376562 
L 283.816717 117.281228 
L 284.793296 120.237373 
L 285.623647 123.237876 
L 286.30577 126.275508 
L 286.838022 129.342952 
L 287.21912 132.432817 
L 287.448147 135.537659 
L 287.524551 138.65 
z
" style="fill-opacity:0.25;"/>
   </g>
   <g id="line2d_13">
    <path clip-path="url(#pe5e22f54d0)" d="M 287.524551 138.65 
L 287.448147 135.537659 
L 287.21912 132.432817 
L 286.838022 129.342952 
L 286.30577 126.275508 
L 285.623647 123.237876 
L 284.793296 120.237373 
L 283.816717 117.281228 
L 282.696264 114.376562 
L 281.434635 111.530372 
L 280.03487 108.749517 
L 278.500341 106.040694 
L 276.834744 103.41043 
L 275.042093 100.865061 
L 273.126706 98.410719 
L 271.093197 96.053317 
L 268.946466 93.798534 
L 266.691683 91.651803 
L 264.334281 89.618294 
L 261.879939 87.702907 
L 259.33457 85.910256 
L 256.704306 84.244659 
L 253.995483 82.71013 
L 251.214628 81.310365 
L 248.368438 80.048736 
L 245.463772 78.928283 
L 242.507627 77.951704 
L 239.507124 77.121353 
L 236.469492 76.43923 
L 233.402048 75.906978 
L 230.312183 75.52588 
L 227.207341 75.296853 
L 224.095 75.220449 
L 220.982659 75.296853 
L 217.877817 75.52588 
L 214.787952 75.906978 
L 211.720508 76.43923 
L 208.682876 77.121353 
L 205.682373 77.951704 
L 202.726228 78.928283 
L 199.821562 80.048736 
L 196.975372 81.310365 
L 194.194517 82.71013 
L 191.485694 84.244659 
L 188.85543 85.910256 
L 186.310061 87.702907 
L 183.855719 89.618294 
L 181.498317 91.651803 
L 179.243534 93.798534 
L 177.096803 96.053317 
L 175.063294 98.410719 
L 173.147907 100.865061 
L 171.355256 103.41043 
L 169.689659 106.040694 
L 168.15513 108.749517 
L 166.755365 111.530372 
L 165.493736 114.376562 
L 164.373283 117.281228 
L 163.396704 120.237373 
L 162.566353 123.237876 
L 161.88423 126.275508 
L 161.351978 129.342952 
L 160.97088 132.432817 
L 160.741853 135.537659 
L 160.665449 138.65 
L 160.741853 141.762341 
L 160.97088 144.867183 
L 161.351978 147.957048 
L 161.88423 151.024492 
L 162.566353 154.062124 
L 163.396704 157.062627 
L 164.373283 160.018772 
L 165.493736 162.923438 
L 166.755365 165.769628 
L 168.15513 168.550483 
L 169.689659 171.259306 
L 171.355256 173.88957 
L 173.147907 176.434939 
L 175.063294 178.889281 
L 177.096803 181.246683 
L 179.243534 183.501466 
L 181.498317 185.648197 
L 183.855719 187.681706 
L 186.310061 189.597093 
L 188.85543 191.389744 
L 191.485694 193.055341 
L 194.194517 194.58987 
L 196.975372 195.989635 
L 199.821562 197.251264 
L 202.726228 198.371717 
L 205.682373 199.348296 
L 208.682876 200.178647 
L 211.720508 200.86077 
L 214.787952 201.393022 
L 217.877817 201.77412 
L 220.982659 202.003147 
L 224.095 202.079551 
L 227.207341 202.003147 
L 230.312183 201.77412 
L 233.402048 201.393022 
L 236.469492 200.86077 
L 239.507124 200.178647 
L 242.507627 199.348296 
L 245.463772 198.371717 
L 248.368438 197.251264 
L 251.214628 195.989635 
L 253.995483 194.58987 
L 256.704306 193.055341 
L 259.33457 191.389744 
L 261.879939 189.597093 
L 264.334281 187.681706 
L 266.691683 185.648197 
L 268.946466 183.501466 
L 271.093197 181.246683 
L 273.126706 178.889281 
L 275.042093 176.434939 
L 276.834744 173.88957 
L 278.500341 171.259306 
L 280.03487 168.550483 
L 281.434635 165.769628 
L 282.696264 162.923438 
L 283.816717 160.018772 
L 284.793296 157.062627 
L 285.623647 154.062124 
L 286.30577 151.024492 
L 286.838022 147.957048 
L 287.21912 144.867183 
L 287.448147 141.762341 
L 287.448147 141.762341 
" style="fill:none;stroke:#000000;stroke-linecap:round;"/>
   </g>
   <g id="patch_3">
    <path d="M 19.024646 274.465354 
L 19.024646 2.834646 
" style="fill:none;stroke:#000000;stroke-linecap:square;stroke-linejoin:miter;"/>
   </g>
   <g id="patch_4">
    <path d="M 429.165354 274.465354 
L 429.165354 2.834646 
" style="fill:none;stroke:#000000;stroke-linecap:square;stroke-linejoin:miter;stroke-width:0.8;"/>
   </g>
   <g id="patch_5">
    <path d="M 19.024646 274.465354 
L 429.165354 274.465354 
" style="fill:none;stroke:#000000;stroke-linecap:square;stroke-linejoin:miter;"/>
   </g>
   <g id="patch_6">
    <path d="M 19.024646 2.834646 
L 429.165354 2.834646 
" style="fill:none;stroke:#000000;stroke-linecap:square;stroke-linejoin:miter;stroke-width:0.8;"/>
   </g>
  </g>
 </g>
 <defs>
  <clipPath id="pe5e22f54d0">
   <rect height="271.630709" width="410.140709" x="19.024646" y="2.834646"/>
  </clipPath>
 </defs>
</svg>
