<?xml version="1.0" encoding="utf-8"?>
<svg xmlns="http://www.w3.org/2000/svg" xmlns:xlink="http://www.w3.org/1999/xlink" width="600" height="400" viewBox="0 0 2400 1600">
<defs>
  <clipPath id="clip930">
    <rect x="0" y="0" width="2400" height="1600"/>
  </clipPath>
</defs>
<path clip-path="url(#clip930)" d="M0 1600 L2400 1600 L2400 0 L0 0  Z" fill="#ffffff" fill-rule="evenodd" fill-opacity="1"/>
<defs>
  <clipPath id="clip931">
    <rect x="480" y="0" width="1681" height="1600"/>
  </clipPath>
</defs>
<path clip-path="url(#clip930)" d="M224.26 1423.18 L2352.76 1423.18 L2352.76 47.2441 L224.26 47.2441  Z" fill="#ffffff" fill-rule="evenodd" fill-opacity="1"/>
<defs>
  <clipPath id="clip932">
    <rect x="224" y="47" width="2129" height="1377"/>
  </clipPath>
</defs>
<polyline clip-path="url(#clip932)" style="stroke:#000000; stroke-linecap:round; stroke-linejoin:round; stroke-width:2; stroke-opacity:0.1; fill:none" points="284.5,1423.18 284.5,47.2441 "/>
<polyline clip-path="url(#clip932)" style="stroke:#000000; stroke-linecap:round; stroke-linejoin:round; stroke-width:2; stroke-opacity:0.1; fill:none" points="685.302,1423.18 685.302,47.2441 "/>
<polyline clip-path="url(#clip932)" style="stroke:#000000; stroke-linecap:round; stroke-linejoin:round; stroke-width:2; stroke-opacity:0.1; fill:none" points="1086.1,1423.18 1086.1,47.2441 "/>
<polyline clip-path="url(#clip932)" style="stroke:#000000; stroke-linecap:round; stroke-linejoin:round; stroke-width:2; stroke-opacity:0.1; fill:none" points="1486.9,1423.18 1486.9,47.2441 "/>
<polyline clip-path="url(#clip932)" style="stroke:#000000; stroke-linecap:round; stroke-linejoin:round; stroke-width:2; stroke-opacity:0.1; fill:none" points="1887.71,1423.18 1887.71,47.2441 "/>
<polyline clip-path="url(#clip932)" style="stroke:#000000; stroke-linecap:round; stroke-linejoin:round; stroke-width:2; stroke-opacity:0.1; fill:none" points="2288.51,1423.18 2288.51,47.2441 "/>
<polyline clip-path="url(#clip930)" style="stroke:#000000; stroke-linecap:round; stroke-linejoin:round; stroke-width:4; stroke-opacity:1; fill:none" points="224.26,1423.18 2352.76,1423.18 "/>
<polyline clip-path="url(#clip930)" style="stroke:#000000; stroke-linecap:round; stroke-linejoin:round; stroke-width:4; stroke-opacity:1; fill:none" points="284.5,1423.18 284.5,1404.28 "/>
<polyline clip-path="url(#clip930)" style="stroke:#000000; stroke-linecap:round; stroke-linejoin:round; stroke-width:4; stroke-opacity:1; fill:none" points="685.302,1423.18 685.302,1404.28 "/>
<polyline clip-path="url(#clip930)" style="stroke:#000000; stroke-linecap:round; stroke-linejoin:round; stroke-width:4; stroke-opacity:1; fill:none" points="1086.1,1423.18 1086.1,1404.28 "/>
<polyline clip-path="url(#clip930)" style="stroke:#000000; stroke-linecap:round; stroke-linejoin:round; stroke-width:4; stroke-opacity:1; fill:none" points="1486.9,1423.18 1486.9,1404.28 "/>
<polyline clip-path="url(#clip930)" style="stroke:#000000; stroke-linecap:round; stroke-linejoin:round; stroke-width:4; stroke-opacity:1; fill:none" points="1887.71,1423.18 1887.71,1404.28 "/>
<polyline clip-path="url(#clip930)" style="stroke:#000000; stroke-linecap:round; stroke-linejoin:round; stroke-width:4; stroke-opacity:1; fill:none" points="2288.51,1423.18 2288.51,1404.28 "/>
<path clip-path="url(#clip930)" d="M261.885 1454.1 Q258.274 1454.1 256.445 1457.66 Q254.639 1461.2 254.639 1468.33 Q254.639 1475.44 256.445 1479.01 Q258.274 1482.55 261.885 1482.55 Q265.519 1482.55 267.325 1479.01 Q269.153 1475.44 269.153 1468.33 Q269.153 1461.2 267.325 1457.66 Q265.519 1454.1 261.885 1454.1 M261.885 1450.39 Q267.695 1450.39 270.75 1455 Q273.829 1459.58 273.829 1468.33 Q273.829 1477.06 270.75 1481.67 Q267.695 1486.25 261.885 1486.25 Q256.075 1486.25 252.996 1481.67 Q249.94 1477.06 249.94 1468.33 Q249.94 1459.58 252.996 1455 Q256.075 1450.39 261.885 1450.39 Z" fill="#000000" fill-rule="nonzero" fill-opacity="1" /><path clip-path="url(#clip930)" d="M282.047 1479.7 L286.931 1479.7 L286.931 1485.58 L282.047 1485.58 L282.047 1479.7 Z" fill="#000000" fill-rule="nonzero" fill-opacity="1" /><path clip-path="url(#clip930)" d="M307.116 1454.1 Q303.505 1454.1 301.676 1457.66 Q299.871 1461.2 299.871 1468.33 Q299.871 1475.44 301.676 1479.01 Q303.505 1482.55 307.116 1482.55 Q310.75 1482.55 312.556 1479.01 Q314.384 1475.44 314.384 1468.33 Q314.384 1461.2 312.556 1457.66 Q310.75 1454.1 307.116 1454.1 M307.116 1450.39 Q312.926 1450.39 315.982 1455 Q319.06 1459.58 319.06 1468.33 Q319.06 1477.06 315.982 1481.67 Q312.926 1486.25 307.116 1486.25 Q301.306 1486.25 298.227 1481.67 Q295.172 1477.06 295.172 1468.33 Q295.172 1459.58 298.227 1455 Q301.306 1450.39 307.116 1450.39 Z" fill="#000000" fill-rule="nonzero" fill-opacity="1" /><path clip-path="url(#clip930)" d="M663.184 1454.1 Q659.573 1454.1 657.744 1457.66 Q655.939 1461.2 655.939 1468.33 Q655.939 1475.44 657.744 1479.01 Q659.573 1482.55 663.184 1482.55 Q666.818 1482.55 668.624 1479.01 Q670.452 1475.44 670.452 1468.33 Q670.452 1461.2 668.624 1457.66 Q666.818 1454.1 663.184 1454.1 M663.184 1450.39 Q668.994 1450.39 672.05 1455 Q675.128 1459.58 675.128 1468.33 Q675.128 1477.06 672.05 1481.67 Q668.994 1486.25 663.184 1486.25 Q657.374 1486.25 654.295 1481.67 Q651.239 1477.06 651.239 1468.33 Q651.239 1459.58 654.295 1455 Q657.374 1450.39 663.184 1450.39 Z" fill="#000000" fill-rule="nonzero" fill-opacity="1" /><path clip-path="url(#clip930)" d="M683.346 1479.7 L688.23 1479.7 L688.23 1485.58 L683.346 1485.58 L683.346 1479.7 Z" fill="#000000" fill-rule="nonzero" fill-opacity="1" /><path clip-path="url(#clip930)" d="M698.461 1451.02 L716.818 1451.02 L716.818 1454.96 L702.744 1454.96 L702.744 1463.43 Q703.762 1463.08 704.781 1462.92 Q705.799 1462.73 706.818 1462.73 Q712.605 1462.73 715.984 1465.9 Q719.364 1469.08 719.364 1474.49 Q719.364 1480.07 715.892 1483.17 Q712.42 1486.25 706.1 1486.25 Q703.924 1486.25 701.656 1485.88 Q699.41 1485.51 697.003 1484.77 L697.003 1480.07 Q699.086 1481.2 701.309 1481.76 Q703.531 1482.32 706.008 1482.32 Q710.012 1482.32 712.35 1480.21 Q714.688 1478.1 714.688 1474.49 Q714.688 1470.88 712.35 1468.77 Q710.012 1466.67 706.008 1466.67 Q704.133 1466.67 702.258 1467.08 Q700.406 1467.5 698.461 1468.38 L698.461 1451.02 Z" fill="#000000" fill-rule="nonzero" fill-opacity="1" /><path clip-path="url(#clip930)" d="M1053.26 1481.64 L1060.89 1481.64 L1060.89 1455.28 L1052.58 1456.95 L1052.58 1452.69 L1060.85 1451.02 L1065.52 1451.02 L1065.52 1481.64 L1073.16 1481.64 L1073.16 1485.58 L1053.26 1485.58 L1053.26 1481.64 Z" fill="#000000" fill-rule="nonzero" fill-opacity="1" /><path clip-path="url(#clip930)" d="M1082.61 1479.7 L1087.49 1479.7 L1087.49 1485.58 L1082.61 1485.58 L1082.61 1479.7 Z" fill="#000000" fill-rule="nonzero" fill-opacity="1" /><path clip-path="url(#clip930)" d="M1107.68 1454.1 Q1104.07 1454.1 1102.24 1457.66 Q1100.43 1461.2 1100.43 1468.33 Q1100.43 1475.44 1102.24 1479.01 Q1104.07 1482.55 1107.68 1482.55 Q1111.31 1482.55 1113.12 1479.01 Q1114.95 1475.44 1114.95 1468.33 Q1114.95 1461.2 1113.12 1457.66 Q1111.31 1454.1 1107.68 1454.1 M1107.68 1450.39 Q1113.49 1450.39 1116.54 1455 Q1119.62 1459.58 1119.62 1468.33 Q1119.62 1477.06 1116.54 1481.67 Q1113.49 1486.25 1107.68 1486.25 Q1101.87 1486.25 1098.79 1481.67 Q1095.73 1477.06 1095.73 1468.33 Q1095.73 1459.58 1098.79 1455 Q1101.87 1450.39 1107.68 1450.39 Z" fill="#000000" fill-rule="nonzero" fill-opacity="1" /><path clip-path="url(#clip930)" d="M1454.56 1481.64 L1462.19 1481.64 L1462.19 1455.28 L1453.88 1456.95 L1453.88 1452.69 L1462.15 1451.02 L1466.82 1451.02 L1466.82 1481.64 L1474.46 1481.64 L1474.46 1485.58 L1454.56 1485.58 L1454.56 1481.64 Z" fill="#000000" fill-rule="nonzero" fill-opacity="1" /><path clip-path="url(#clip930)" d="M1483.91 1479.7 L1488.79 1479.7 L1488.79 1485.58 L1483.91 1485.58 L1483.91 1479.7 Z" fill="#000000" fill-rule="nonzero" fill-opacity="1" /><path clip-path="url(#clip930)" d="M1499.02 1451.02 L1517.38 1451.02 L1517.38 1454.96 L1503.3 1454.96 L1503.3 1463.43 Q1504.32 1463.08 1505.34 1462.92 Q1506.36 1462.73 1507.38 1462.73 Q1513.17 1462.73 1516.55 1465.9 Q1519.93 1469.08 1519.93 1474.49 Q1519.93 1480.07 1516.45 1483.17 Q1512.98 1486.25 1506.66 1486.25 Q1504.49 1486.25 1502.22 1485.88 Q1499.97 1485.51 1497.56 1484.77 L1497.56 1480.07 Q1499.65 1481.2 1501.87 1481.76 Q1504.09 1482.32 1506.57 1482.32 Q1510.57 1482.32 1512.91 1480.21 Q1515.25 1478.1 1515.25 1474.49 Q1515.25 1470.88 1512.91 1468.77 Q1510.57 1466.67 1506.57 1466.67 Q1504.69 1466.67 1502.82 1467.08 Q1500.97 1467.5 1499.02 1468.38 L1499.02 1451.02 Z" fill="#000000" fill-rule="nonzero" fill-opacity="1" /><path clip-path="url(#clip930)" d="M1858.94 1481.64 L1875.26 1481.64 L1875.26 1485.58 L1853.32 1485.58 L1853.32 1481.64 Q1855.98 1478.89 1860.56 1474.26 Q1865.17 1469.61 1866.35 1468.27 Q1868.6 1465.74 1869.48 1464.01 Q1870.38 1462.25 1870.38 1460.56 Q1870.38 1457.8 1868.44 1456.07 Q1866.51 1454.33 1863.41 1454.33 Q1861.21 1454.33 1858.76 1455.09 Q1856.33 1455.86 1853.55 1457.41 L1853.55 1452.69 Q1856.38 1451.55 1858.83 1450.97 Q1861.28 1450.39 1863.32 1450.39 Q1868.69 1450.39 1871.88 1453.08 Q1875.08 1455.77 1875.08 1460.26 Q1875.08 1462.39 1874.27 1464.31 Q1873.48 1466.2 1871.38 1468.8 Q1870.8 1469.47 1867.69 1472.69 Q1864.59 1475.88 1858.94 1481.64 Z" fill="#000000" fill-rule="nonzero" fill-opacity="1" /><path clip-path="url(#clip930)" d="M1885.08 1479.7 L1889.96 1479.7 L1889.96 1485.58 L1885.08 1485.58 L1885.08 1479.7 Z" fill="#000000" fill-rule="nonzero" fill-opacity="1" /><path clip-path="url(#clip930)" d="M1910.15 1454.1 Q1906.54 1454.1 1904.71 1457.66 Q1902.9 1461.2 1902.9 1468.33 Q1902.9 1475.44 1904.71 1479.01 Q1906.54 1482.55 1910.15 1482.55 Q1913.78 1482.55 1915.59 1479.01 Q1917.42 1475.44 1917.42 1468.33 Q1917.42 1461.2 1915.59 1457.66 Q1913.78 1454.1 1910.15 1454.1 M1910.15 1450.39 Q1915.96 1450.39 1919.01 1455 Q1922.09 1459.58 1922.09 1468.33 Q1922.09 1477.06 1919.01 1481.67 Q1915.96 1486.25 1910.15 1486.25 Q1904.34 1486.25 1901.26 1481.67 Q1898.2 1477.06 1898.2 1468.33 Q1898.2 1459.58 1901.26 1455 Q1904.34 1450.39 1910.15 1450.39 Z" fill="#000000" fill-rule="nonzero" fill-opacity="1" /><path clip-path="url(#clip930)" d="M2260.24 1481.64 L2276.56 1481.64 L2276.56 1485.58 L2254.62 1485.58 L2254.62 1481.64 Q2257.28 1478.89 2261.86 1474.26 Q2266.47 1469.61 2267.65 1468.27 Q2269.9 1465.74 2270.78 1464.01 Q2271.68 1462.25 2271.68 1460.56 Q2271.68 1457.8 2269.73 1456.07 Q2267.81 1454.33 2264.71 1454.33 Q2262.51 1454.33 2260.06 1455.09 Q2257.63 1455.86 2254.85 1457.41 L2254.85 1452.69 Q2257.67 1451.55 2260.13 1450.97 Q2262.58 1450.39 2264.62 1450.39 Q2269.99 1450.39 2273.18 1453.08 Q2276.38 1455.77 2276.38 1460.26 Q2276.38 1462.39 2275.57 1464.31 Q2274.78 1466.2 2272.67 1468.8 Q2272.1 1469.47 2268.99 1472.69 Q2265.89 1475.88 2260.24 1481.64 Z" fill="#000000" fill-rule="nonzero" fill-opacity="1" /><path clip-path="url(#clip930)" d="M2286.38 1479.7 L2291.26 1479.7 L2291.26 1485.58 L2286.38 1485.58 L2286.38 1479.7 Z" fill="#000000" fill-rule="nonzero" fill-opacity="1" /><path clip-path="url(#clip930)" d="M2301.49 1451.02 L2319.85 1451.02 L2319.85 1454.96 L2305.78 1454.96 L2305.78 1463.43 Q2306.79 1463.08 2307.81 1462.92 Q2308.83 1462.73 2309.85 1462.73 Q2315.64 1462.73 2319.02 1465.9 Q2322.4 1469.08 2322.4 1474.49 Q2322.4 1480.07 2318.92 1483.17 Q2315.45 1486.25 2309.13 1486.25 Q2306.96 1486.25 2304.69 1485.88 Q2302.44 1485.51 2300.04 1484.77 L2300.04 1480.07 Q2302.12 1481.2 2304.34 1481.76 Q2306.56 1482.32 2309.04 1482.32 Q2313.04 1482.32 2315.38 1480.21 Q2317.72 1478.1 2317.72 1474.49 Q2317.72 1470.88 2315.38 1468.77 Q2313.04 1466.67 2309.04 1466.67 Q2307.16 1466.67 2305.29 1467.08 Q2303.44 1467.5 2301.49 1468.38 L2301.49 1451.02 Z" fill="#000000" fill-rule="nonzero" fill-opacity="1" /><path clip-path="url(#clip930)" d="M1296.98 1531.91 Q1296.98 1532.81 1296.56 1533.04 Q1296.14 1533.23 1294.98 1533.23 L1288.8 1533.23 L1283.9 1552.69 Q1283.52 1554.39 1283.52 1555.84 Q1283.52 1557.45 1284 1558.16 Q1284.52 1558.87 1285.58 1558.87 Q1287.67 1558.87 1289.93 1556.97 Q1292.21 1555.07 1294.14 1550.43 Q1294.4 1549.82 1294.53 1549.69 Q1294.69 1549.53 1295.11 1549.53 Q1295.92 1549.53 1295.92 1550.17 Q1295.92 1550.4 1295.47 1551.43 Q1295.05 1552.46 1294.11 1553.97 Q1293.21 1555.49 1292.02 1556.9 Q1290.86 1558.32 1289.09 1559.35 Q1287.32 1560.35 1285.42 1560.35 Q1282.74 1560.35 1281.04 1558.64 Q1279.36 1556.94 1279.36 1554.26 Q1279.36 1553.39 1280.04 1550.62 Q1280.71 1547.82 1284.39 1533.23 L1278.56 1533.23 Q1277.75 1533.23 1277.43 1533.2 Q1277.14 1533.17 1276.91 1533.01 Q1276.72 1532.81 1276.72 1532.43 Q1276.72 1531.82 1276.98 1531.56 Q1277.24 1531.27 1277.56 1531.24 Q1277.91 1531.17 1278.72 1531.17 L1284.9 1531.17 L1287.48 1520.71 Q1287.74 1519.67 1288.38 1519.09 Q1289.06 1518.48 1289.44 1518.42 Q1289.83 1518.32 1290.12 1518.32 Q1290.99 1518.32 1291.5 1518.81 Q1292.02 1519.26 1292.02 1520.09 Q1292.02 1520.54 1289.31 1531.17 L1295.11 1531.17 Q1295.85 1531.17 1296.14 1531.2 Q1296.46 1531.24 1296.72 1531.4 Q1296.98 1531.56 1296.98 1531.91 Z" fill="#000000" fill-rule="nonzero" fill-opacity="1" /><polyline clip-path="url(#clip932)" style="stroke:#000000; stroke-linecap:round; stroke-linejoin:round; stroke-width:2; stroke-opacity:0.1; fill:none" points="224.26,1239.49 2352.76,1239.49 "/>
<polyline clip-path="url(#clip932)" style="stroke:#000000; stroke-linecap:round; stroke-linejoin:round; stroke-width:2; stroke-opacity:0.1; fill:none" points="224.26,982.687 2352.76,982.687 "/>
<polyline clip-path="url(#clip932)" style="stroke:#000000; stroke-linecap:round; stroke-linejoin:round; stroke-width:2; stroke-opacity:0.1; fill:none" points="224.26,725.887 2352.76,725.887 "/>
<polyline clip-path="url(#clip932)" style="stroke:#000000; stroke-linecap:round; stroke-linejoin:round; stroke-width:2; stroke-opacity:0.1; fill:none" points="224.26,469.086 2352.76,469.086 "/>
<polyline clip-path="url(#clip932)" style="stroke:#000000; stroke-linecap:round; stroke-linejoin:round; stroke-width:2; stroke-opacity:0.1; fill:none" points="224.26,212.285 2352.76,212.285 "/>
<polyline clip-path="url(#clip930)" style="stroke:#000000; stroke-linecap:round; stroke-linejoin:round; stroke-width:4; stroke-opacity:1; fill:none" points="224.26,1423.18 224.26,47.2441 "/>
<polyline clip-path="url(#clip930)" style="stroke:#000000; stroke-linecap:round; stroke-linejoin:round; stroke-width:4; stroke-opacity:1; fill:none" points="224.26,1239.49 243.158,1239.49 "/>
<polyline clip-path="url(#clip930)" style="stroke:#000000; stroke-linecap:round; stroke-linejoin:round; stroke-width:4; stroke-opacity:1; fill:none" points="224.26,982.687 243.158,982.687 "/>
<polyline clip-path="url(#clip930)" style="stroke:#000000; stroke-linecap:round; stroke-linejoin:round; stroke-width:4; stroke-opacity:1; fill:none" points="224.26,725.887 243.158,725.887 "/>
<polyline clip-path="url(#clip930)" style="stroke:#000000; stroke-linecap:round; stroke-linejoin:round; stroke-width:4; stroke-opacity:1; fill:none" points="224.26,469.086 243.158,469.086 "/>
<polyline clip-path="url(#clip930)" style="stroke:#000000; stroke-linecap:round; stroke-linejoin:round; stroke-width:4; stroke-opacity:1; fill:none" points="224.26,212.285 243.158,212.285 "/>
<path clip-path="url(#clip930)" d="M50.9921 1239.94 L80.6679 1239.94 L80.6679 1243.87 L50.9921 1243.87 L50.9921 1239.94 Z" fill="#000000" fill-rule="nonzero" fill-opacity="1" /><path clip-path="url(#clip930)" d="M100.76 1225.29 Q97.1493 1225.29 95.3206 1228.85 Q93.515 1232.39 93.515 1239.52 Q93.515 1246.63 95.3206 1250.19 Q97.1493 1253.74 100.76 1253.74 Q104.395 1253.74 106.2 1250.19 Q108.029 1246.63 108.029 1239.52 Q108.029 1232.39 106.2 1228.85 Q104.395 1225.29 100.76 1225.29 M100.76 1221.58 Q106.571 1221.58 109.626 1226.19 Q112.705 1230.77 112.705 1239.52 Q112.705 1248.25 109.626 1252.86 Q106.571 1257.44 100.76 1257.44 Q94.9502 1257.44 91.8715 1252.86 Q88.816 1248.25 88.816 1239.52 Q88.816 1230.77 91.8715 1226.19 Q94.9502 1221.58 100.76 1221.58 Z" fill="#000000" fill-rule="nonzero" fill-opacity="1" /><path clip-path="url(#clip930)" d="M120.922 1250.89 L125.807 1250.89 L125.807 1256.77 L120.922 1256.77 L120.922 1250.89 Z" fill="#000000" fill-rule="nonzero" fill-opacity="1" /><path clip-path="url(#clip930)" d="M145.992 1225.29 Q142.381 1225.29 140.552 1228.85 Q138.746 1232.39 138.746 1239.52 Q138.746 1246.63 140.552 1250.19 Q142.381 1253.74 145.992 1253.74 Q149.626 1253.74 151.431 1250.19 Q153.26 1246.63 153.26 1239.52 Q153.26 1232.39 151.431 1228.85 Q149.626 1225.29 145.992 1225.29 M145.992 1221.58 Q151.802 1221.58 154.857 1226.19 Q157.936 1230.77 157.936 1239.52 Q157.936 1248.25 154.857 1252.86 Q151.802 1257.44 145.992 1257.44 Q140.181 1257.44 137.103 1252.86 Q134.047 1248.25 134.047 1239.52 Q134.047 1230.77 137.103 1226.19 Q140.181 1221.58 145.992 1221.58 Z" fill="#000000" fill-rule="nonzero" fill-opacity="1" /><path clip-path="url(#clip930)" d="M176.732 1237.62 Q173.584 1237.62 171.732 1239.78 Q169.904 1241.93 169.904 1245.68 Q169.904 1249.41 171.732 1251.58 Q173.584 1253.74 176.732 1253.74 Q179.88 1253.74 181.709 1251.58 Q183.561 1249.41 183.561 1245.68 Q183.561 1241.93 181.709 1239.78 Q179.88 1237.62 176.732 1237.62 M186.015 1222.97 L186.015 1227.23 Q184.255 1226.4 182.45 1225.96 Q180.667 1225.52 178.908 1225.52 Q174.279 1225.52 171.825 1228.64 Q169.394 1231.77 169.047 1238.09 Q170.413 1236.07 172.473 1235.01 Q174.533 1233.92 177.01 1233.92 Q182.218 1233.92 185.228 1237.09 Q188.26 1240.24 188.26 1245.68 Q188.26 1251 185.112 1254.22 Q181.964 1257.44 176.732 1257.44 Q170.737 1257.44 167.566 1252.86 Q164.394 1248.25 164.394 1239.52 Q164.394 1231.33 168.283 1226.47 Q172.172 1221.58 178.723 1221.58 Q180.482 1221.58 182.265 1221.93 Q184.07 1222.28 186.015 1222.97 Z" fill="#000000" fill-rule="nonzero" fill-opacity="1" /><path clip-path="url(#clip930)" d="M51.8023 983.139 L81.4781 983.139 L81.4781 987.074 L51.8023 987.074 L51.8023 983.139 Z" fill="#000000" fill-rule="nonzero" fill-opacity="1" /><path clip-path="url(#clip930)" d="M101.571 968.486 Q97.9595 968.486 96.1308 972.051 Q94.3252 975.593 94.3252 982.722 Q94.3252 989.829 96.1308 993.393 Q97.9595 996.935 101.571 996.935 Q105.205 996.935 107.01 993.393 Q108.839 989.829 108.839 982.722 Q108.839 975.593 107.01 972.051 Q105.205 968.486 101.571 968.486 M101.571 964.782 Q107.381 964.782 110.436 969.389 Q113.515 973.972 113.515 982.722 Q113.515 991.449 110.436 996.055 Q107.381 1000.64 101.571 1000.64 Q95.7604 1000.64 92.6817 996.055 Q89.6262 991.449 89.6262 982.722 Q89.6262 973.972 92.6817 969.389 Q95.7604 964.782 101.571 964.782 Z" fill="#000000" fill-rule="nonzero" fill-opacity="1" /><path clip-path="url(#clip930)" d="M121.732 994.088 L126.617 994.088 L126.617 999.967 L121.732 999.967 L121.732 994.088 Z" fill="#000000" fill-rule="nonzero" fill-opacity="1" /><path clip-path="url(#clip930)" d="M146.802 968.486 Q143.191 968.486 141.362 972.051 Q139.556 975.593 139.556 982.722 Q139.556 989.829 141.362 993.393 Q143.191 996.935 146.802 996.935 Q150.436 996.935 152.242 993.393 Q154.07 989.829 154.07 982.722 Q154.07 975.593 152.242 972.051 Q150.436 968.486 146.802 968.486 M146.802 964.782 Q152.612 964.782 155.667 969.389 Q158.746 973.972 158.746 982.722 Q158.746 991.449 155.667 996.055 Q152.612 1000.64 146.802 1000.64 Q140.992 1000.64 137.913 996.055 Q134.857 991.449 134.857 982.722 Q134.857 973.972 137.913 969.389 Q140.992 964.782 146.802 964.782 Z" fill="#000000" fill-rule="nonzero" fill-opacity="1" /><path clip-path="url(#clip930)" d="M181.13 981.333 Q184.487 982.051 186.362 984.319 Q188.26 986.588 188.26 989.921 Q188.26 995.037 184.741 997.838 Q181.223 1000.64 174.741 1000.64 Q172.566 1000.64 170.251 1000.2 Q167.959 999.782 165.505 998.926 L165.505 994.412 Q167.45 995.546 169.765 996.125 Q172.079 996.704 174.603 996.704 Q179.001 996.704 181.292 994.967 Q183.607 993.231 183.607 989.921 Q183.607 986.866 181.454 985.153 Q179.325 983.417 175.505 983.417 L171.478 983.417 L171.478 979.574 L175.691 979.574 Q179.14 979.574 180.968 978.208 Q182.797 976.819 182.797 974.227 Q182.797 971.565 180.899 970.153 Q179.024 968.718 175.505 968.718 Q173.584 968.718 171.385 969.134 Q169.186 969.551 166.547 970.431 L166.547 966.264 Q169.209 965.523 171.524 965.153 Q173.862 964.782 175.922 964.782 Q181.246 964.782 184.348 967.213 Q187.45 969.62 187.45 973.741 Q187.45 976.611 185.806 978.602 Q184.163 980.569 181.13 981.333 Z" fill="#000000" fill-rule="nonzero" fill-opacity="1" /><path clip-path="url(#clip930)" d="M100.922 711.685 Q97.3113 711.685 95.4826 715.25 Q93.6771 718.792 93.6771 725.921 Q93.6771 733.028 95.4826 736.593 Q97.3113 740.134 100.922 740.134 Q104.557 740.134 106.362 736.593 Q108.191 733.028 108.191 725.921 Q108.191 718.792 106.362 715.25 Q104.557 711.685 100.922 711.685 M100.922 707.982 Q106.733 707.982 109.788 712.588 Q112.867 717.171 112.867 725.921 Q112.867 734.648 109.788 739.255 Q106.733 743.838 100.922 743.838 Q95.1123 743.838 92.0336 739.255 Q88.978 734.648 88.978 725.921 Q88.978 717.171 92.0336 712.588 Q95.1123 707.982 100.922 707.982 Z" fill="#000000" fill-rule="nonzero" fill-opacity="1" /><path clip-path="url(#clip930)" d="M121.084 737.287 L125.969 737.287 L125.969 743.167 L121.084 743.167 L121.084 737.287 Z" fill="#000000" fill-rule="nonzero" fill-opacity="1" /><path clip-path="url(#clip930)" d="M146.154 711.685 Q142.543 711.685 140.714 715.25 Q138.908 718.792 138.908 725.921 Q138.908 733.028 140.714 736.593 Q142.543 740.134 146.154 740.134 Q149.788 740.134 151.593 736.593 Q153.422 733.028 153.422 725.921 Q153.422 718.792 151.593 715.25 Q149.788 711.685 146.154 711.685 M146.154 707.982 Q151.964 707.982 155.019 712.588 Q158.098 717.171 158.098 725.921 Q158.098 734.648 155.019 739.255 Q151.964 743.838 146.154 743.838 Q140.343 743.838 137.265 739.255 Q134.209 734.648 134.209 725.921 Q134.209 717.171 137.265 712.588 Q140.343 707.982 146.154 707.982 Z" fill="#000000" fill-rule="nonzero" fill-opacity="1" /><path clip-path="url(#clip930)" d="M176.316 711.685 Q172.704 711.685 170.876 715.25 Q169.07 718.792 169.07 725.921 Q169.07 733.028 170.876 736.593 Q172.704 740.134 176.316 740.134 Q179.95 740.134 181.755 736.593 Q183.584 733.028 183.584 725.921 Q183.584 718.792 181.755 715.25 Q179.95 711.685 176.316 711.685 M176.316 707.982 Q182.126 707.982 185.181 712.588 Q188.26 717.171 188.26 725.921 Q188.26 734.648 185.181 739.255 Q182.126 743.838 176.316 743.838 Q170.505 743.838 167.427 739.255 Q164.371 734.648 164.371 725.921 Q164.371 717.171 167.427 712.588 Q170.505 707.982 176.316 707.982 Z" fill="#000000" fill-rule="nonzero" fill-opacity="1" /><path clip-path="url(#clip930)" d="M101.571 454.885 Q97.9595 454.885 96.1308 458.449 Q94.3252 461.991 94.3252 469.121 Q94.3252 476.227 96.1308 479.792 Q97.9595 483.334 101.571 483.334 Q105.205 483.334 107.01 479.792 Q108.839 476.227 108.839 469.121 Q108.839 461.991 107.01 458.449 Q105.205 454.885 101.571 454.885 M101.571 451.181 Q107.381 451.181 110.436 455.787 Q113.515 460.371 113.515 469.121 Q113.515 477.847 110.436 482.454 Q107.381 487.037 101.571 487.037 Q95.7604 487.037 92.6817 482.454 Q89.6262 477.847 89.6262 469.121 Q89.6262 460.371 92.6817 455.787 Q95.7604 451.181 101.571 451.181 Z" fill="#000000" fill-rule="nonzero" fill-opacity="1" /><path clip-path="url(#clip930)" d="M121.732 480.486 L126.617 480.486 L126.617 486.366 L121.732 486.366 L121.732 480.486 Z" fill="#000000" fill-rule="nonzero" fill-opacity="1" /><path clip-path="url(#clip930)" d="M146.802 454.885 Q143.191 454.885 141.362 458.449 Q139.556 461.991 139.556 469.121 Q139.556 476.227 141.362 479.792 Q143.191 483.334 146.802 483.334 Q150.436 483.334 152.242 479.792 Q154.07 476.227 154.07 469.121 Q154.07 461.991 152.242 458.449 Q150.436 454.885 146.802 454.885 M146.802 451.181 Q152.612 451.181 155.667 455.787 Q158.746 460.371 158.746 469.121 Q158.746 477.847 155.667 482.454 Q152.612 487.037 146.802 487.037 Q140.992 487.037 137.913 482.454 Q134.857 477.847 134.857 469.121 Q134.857 460.371 137.913 455.787 Q140.992 451.181 146.802 451.181 Z" fill="#000000" fill-rule="nonzero" fill-opacity="1" /><path clip-path="url(#clip930)" d="M181.13 467.732 Q184.487 468.449 186.362 470.718 Q188.26 472.986 188.26 476.32 Q188.26 481.435 184.741 484.236 Q181.223 487.037 174.741 487.037 Q172.566 487.037 170.251 486.597 Q167.959 486.181 165.505 485.324 L165.505 480.81 Q167.45 481.945 169.765 482.523 Q172.079 483.102 174.603 483.102 Q179.001 483.102 181.292 481.366 Q183.607 479.63 183.607 476.32 Q183.607 473.264 181.454 471.551 Q179.325 469.815 175.505 469.815 L171.478 469.815 L171.478 465.973 L175.691 465.973 Q179.14 465.973 180.968 464.607 Q182.797 463.218 182.797 460.625 Q182.797 457.963 180.899 456.551 Q179.024 455.116 175.505 455.116 Q173.584 455.116 171.385 455.533 Q169.186 455.949 166.547 456.829 L166.547 452.662 Q169.209 451.922 171.524 451.551 Q173.862 451.181 175.922 451.181 Q181.246 451.181 184.348 453.611 Q187.45 456.019 187.45 460.139 Q187.45 463.01 185.806 465 Q184.163 466.968 181.13 467.732 Z" fill="#000000" fill-rule="nonzero" fill-opacity="1" /><path clip-path="url(#clip930)" d="M100.76 198.084 Q97.1493 198.084 95.3206 201.649 Q93.515 205.19 93.515 212.32 Q93.515 219.426 95.3206 222.991 Q97.1493 226.533 100.76 226.533 Q104.395 226.533 106.2 222.991 Q108.029 219.426 108.029 212.32 Q108.029 205.19 106.2 201.649 Q104.395 198.084 100.76 198.084 M100.76 194.38 Q106.571 194.38 109.626 198.987 Q112.705 203.57 112.705 212.32 Q112.705 221.047 109.626 225.653 Q106.571 230.236 100.76 230.236 Q94.9502 230.236 91.8715 225.653 Q88.816 221.047 88.816 212.32 Q88.816 203.57 91.8715 198.987 Q94.9502 194.38 100.76 194.38 Z" fill="#000000" fill-rule="nonzero" fill-opacity="1" /><path clip-path="url(#clip930)" d="M120.922 223.686 L125.807 223.686 L125.807 229.565 L120.922 229.565 L120.922 223.686 Z" fill="#000000" fill-rule="nonzero" fill-opacity="1" /><path clip-path="url(#clip930)" d="M145.992 198.084 Q142.381 198.084 140.552 201.649 Q138.746 205.19 138.746 212.32 Q138.746 219.426 140.552 222.991 Q142.381 226.533 145.992 226.533 Q149.626 226.533 151.431 222.991 Q153.26 219.426 153.26 212.32 Q153.26 205.19 151.431 201.649 Q149.626 198.084 145.992 198.084 M145.992 194.38 Q151.802 194.38 154.857 198.987 Q157.936 203.57 157.936 212.32 Q157.936 221.047 154.857 225.653 Q151.802 230.236 145.992 230.236 Q140.181 230.236 137.103 225.653 Q134.047 221.047 134.047 212.32 Q134.047 203.57 137.103 198.987 Q140.181 194.38 145.992 194.38 Z" fill="#000000" fill-rule="nonzero" fill-opacity="1" /><path clip-path="url(#clip930)" d="M176.732 210.422 Q173.584 210.422 171.732 212.575 Q169.904 214.727 169.904 218.477 Q169.904 222.204 171.732 224.38 Q173.584 226.533 176.732 226.533 Q179.88 226.533 181.709 224.38 Q183.561 222.204 183.561 218.477 Q183.561 214.727 181.709 212.575 Q179.88 210.422 176.732 210.422 M186.015 195.769 L186.015 200.028 Q184.255 199.195 182.45 198.755 Q180.667 198.315 178.908 198.315 Q174.279 198.315 171.825 201.44 Q169.394 204.565 169.047 210.885 Q170.413 208.871 172.473 207.806 Q174.533 206.718 177.01 206.718 Q182.218 206.718 185.228 209.889 Q188.26 213.037 188.26 218.477 Q188.26 223.801 185.112 227.019 Q181.964 230.236 176.732 230.236 Q170.737 230.236 167.566 225.653 Q164.394 221.047 164.394 212.32 Q164.394 204.126 168.283 199.264 Q172.172 194.38 178.723 194.38 Q180.482 194.38 182.265 194.727 Q184.07 195.075 186.015 195.769 Z" fill="#000000" fill-rule="nonzero" fill-opacity="1" /><polyline clip-path="url(#clip932)" style="stroke:#009af9; stroke-linecap:round; stroke-linejoin:round; stroke-width:4; stroke-opacity:1; fill:none" points="284.5,725.887 290.512,725.64 296.524,725.078 302.536,724.7 308.548,724.22 314.56,723.302 320.572,722.146 326.585,720.862 332.597,719.699 338.609,718.5 344.621,717.355 350.633,716.658 356.645,716.496 362.657,716.254 368.669,715.766 374.681,714.962 380.693,713.839 386.705,712.802 392.717,711.894 398.729,711.006 404.741,709.674 410.753,707.722 416.765,705.478 422.777,703.327 428.789,701.166 434.801,699.091 440.813,696.933 446.825,694.752 452.837,693.018 458.849,691.812 464.861,690.79 470.873,689.704 476.885,688.689 482.897,687.809 488.909,687.255 494.921,686.673 500.933,685.825 506.945,684.783 512.957,683.721 518.969,683.043 524.981,683.05 530.993,683.846 537.005,684.935 543.017,685.877 549.029,686.732 555.041,688.025 561.053,690.124 567.065,692.53 573.077,694.622 579.089,696.402 585.101,697.935 591.113,699.18 597.125,700.174 603.137,701.419 609.15,703.276 615.162,705.069 621.174,706.683 627.186,708.589 633.198,710.645 639.21,712.592 645.222,714.463 651.234,716.626 657.246,718.801 663.258,721.16 669.27,724.346 675.282,727.512 681.294,730.277 687.306,732.99 693.318,735.454 699.33,737.305 705.342,738.799 711.354,740.332 717.366,741.836 723.378,743.208 729.39,744.408 735.402,745.252 741.414,745.443 747.426,745.38 753.438,745.804 759.45,746.568 765.462,746.978 771.474,747.054 777.486,747.191 783.498,747.823 789.51,749.015 795.522,750.215 801.534,751.539 807.546,753.14 813.558,754.669 819.57,755.975 825.582,756.958 831.594,757.766 837.606,758.731 843.618,760.331 849.63,762.539 855.642,765.413 861.654,768.419 867.666,771.397 873.678,774.788 879.69,778.564 885.702,782.818 891.715,787.319 897.727,791.854 903.739,796.277 909.751,800.677 915.763,805.078 921.775,809.628 927.787,814.328 933.799,819.087 939.811,823.839 945.823,828.364 951.835,832.302 957.847,835.685 963.859,838.333 969.871,840.975 975.883,844.209 981.895,847.235 987.907,850.516 993.919,854.508 999.931,858.823 1005.94,863.376 1011.95,867.99 1017.97,872.69 1023.98,877.558 1029.99,882.452 1036,887.06 1042.02,891.121 1048.03,894.224 1054.04,896.222 1060.05,897.963 1066.06,899.662 1072.08,901.134 1078.09,902.725 1084.1,904.845 1090.11,906.944 1096.12,908.497 1102.14,909.928 1108.15,911.174 1114.16,912.067 1120.17,912.973 1126.18,913.865 1132.2,914.443 1138.21,914.647 1144.22,914.498 1150.23,914.151 1156.24,913.582 1162.26,912.586 1168.27,911.005 1174.28,908.578 1180.29,905.485 1186.3,902.142 1192.32,898.914 1198.33,895.419 1204.34,891.684 1210.35,888.301 1216.36,884.987 1222.38,881.309 1228.39,877.227 1234.4,872.83 1240.41,868.232 1246.42,863.728 1252.44,859.351 1258.45,854.83 1264.46,850.242 1270.47,846.125 1276.48,842.517 1282.5,839.076 1288.51,835.899 1294.52,833.086 1300.53,830.346 1306.54,827.359 1312.56,823.9 1318.57,820.201 1324.58,816.347 1330.59,812.551 1336.6,808.975 1342.62,805.399 1348.63,801.837 1354.64,798.521 1360.65,795.356 1366.66,791.969 1372.68,788.777 1378.69,785.716 1384.7,782.662 1390.71,779.007 1396.72,774.922 1402.74,771.456 1408.75,768.486 1414.76,765.275 1420.77,761.196 1426.78,756.563 1432.8,752.033 1438.81,747.714 1444.82,743.288 1450.83,739.066 1456.84,734.885 1462.86,730.756 1468.87,727.2 1474.88,723.768 1480.89,720.102 1486.9,716.5 1492.92,712.957 1498.93,709.481 1504.94,706.101 1510.95,702.711 1516.96,699.432 1522.98,696.638 1528.99,694.186 1535,691.754 1541.01,689.822 1547.02,687.976 1553.04,685.417 1559.05,682.706 1565.06,680.008 1571.07,677.166 1577.08,674.346 1583.1,671.768 1589.11,669.379 1595.12,666.777 1601.13,664.38 1607.15,662.175 1613.16,660.204 1619.17,658.372 1625.18,655.978 1631.19,653.634 1637.21,651.6 1643.22,649.175 1649.23,646.471 1655.24,643.961 1661.25,641.518 1667.27,638.982 1673.28,636.529 1679.29,634.03 1685.3,631.426 1691.31,629.006 1697.33,626.925 1703.34,624.992 1709.35,623.593 1715.36,622.997 1721.37,622.706 1727.39,622.259 1733.4,621.768 1739.41,621.525 1745.42,621.218 1751.43,620.888 1757.45,620.79 1763.46,620.868 1769.47,620.928 1775.48,620.692 1781.49,620.33 1787.51,620.25 1793.52,620.195 1799.53,620.317 1805.54,620.539 1811.55,620.774 1817.57,621.278 1823.58,621.907 1829.59,622.551 1835.6,622.844 1841.61,622.915 1847.63,623.332 1853.64,624.13 1859.65,625.092 1865.66,626.344 1871.67,628.08 1877.69,630.129 1883.7,632.125 1889.71,634.148 1895.72,636.316 1901.73,638.717 1907.75,641.617 1913.76,644.753 1919.77,647.714 1925.78,650.607 1931.79,653.759 1937.81,656.89 1943.82,659.972 1949.83,662.795 1955.84,665.104 1961.85,667.372 1967.87,669.952 1973.88,672.638 1979.89,675.211 1985.9,677.782 1991.91,679.853 1997.93,681.129 2003.94,681.582 2009.95,681.456 2015.96,681.784 2021.97,682.325 2027.99,682.446 2034,682.732 2040.01,683.297 2046.02,684.225 2052.03,685.208 2058.05,686.084 2064.06,687.199 2070.07,688.386 2076.08,689.392 2082.09,689.887 2088.11,689.659 2094.12,688.869 2100.13,687.776 2106.14,686.26 2112.15,684.451 2118.17,683.02 2124.18,682.245 2130.19,681.437 2136.2,680.398 2142.21,679.558 2148.23,679.436 2154.24,680.114 2160.25,680.92 2166.26,681.881 2172.28,683.136 2178.29,684.367 2184.3,685.69 2190.31,687.708 2196.32,690.155 2202.34,692.332 2208.35,694.737 2214.36,697.543 2220.37,700.73 2226.38,704.239 2232.4,707.472 2238.41,710.428 2244.42,713.513 2250.43,716.465 2256.44,719.174 2262.46,721.962 2268.47,725.209 2274.48,728.989 2280.49,732.928 2286.5,737.091 2292.52,741.155 "/>
<polyline clip-path="url(#clip932)" style="stroke:#e26f46; stroke-linecap:round; stroke-linejoin:round; stroke-width:4; stroke-opacity:1; fill:none" points="284.5,725.887 290.512,660.097 296.524,641.765 302.536,709.368 308.548,614.3 314.56,592.604 320.572,550.872 326.585,558.664 332.597,583.031 338.609,548.85 344.621,597.767 350.633,668.068 356.645,740.48 362.657,646.746 368.669,674.956 374.681,562.418 380.693,589.804 386.705,585.558 392.717,623.907 398.729,591.012 404.741,505.635 410.753,425.511 416.765,427.879 422.777,450.331 428.789,425.27 434.801,473.124 440.813,403.154 446.825,466.961 452.837,522.605 458.849,607.374 464.861,572.006 470.873,590.02 476.885,591.344 482.897,625.533 488.909,678.579 494.921,618.002 500.933,607.772 506.945,565.891 512.957,602.696 518.969,668.366 524.981,785.421 530.993,878.486 537.005,863.825 543.017,839.13 549.029,840.555 555.041,956.091 561.053,1055.46 567.065,1037.89 573.077,971.762 579.089,954.553 585.101,906.128 591.113,877.428 597.125,839.48 603.137,944.395 609.15,1002.42 615.162,927.504 621.174,954.707 627.186,1005.31 633.198,994.724 639.21,976.342 645.222,974.42 651.234,1054.1 657.246,977.693 663.258,1103.1 669.27,1198.19 675.282,1097.94 681.294,1091.29 687.306,1083.71 693.318,1025.26 699.33,920.017 705.342,930.28 711.354,930.217 717.366,922.607 723.378,895.021 729.39,876.838 735.402,799.869 741.414,702.862 747.426,732.208 753.438,832.631 759.45,822.984 765.462,737.904 771.474,734.326 777.486,754.01 783.498,866.105 789.51,903.612 795.522,868.039 801.534,936.95 807.546,941.675 813.558,917.762 819.57,882.269 825.582,831.869 831.594,835.363 837.606,873.735 843.618,1004.61 849.63,1035.85 855.642,1182.44 861.654,1070.89 867.666,1175.16 873.678,1180.9 879.69,1277.65 885.702,1308.56 891.715,1343.36 897.727,1317.92 903.739,1313.33 909.751,1311.84 915.763,1313.33 921.775,1351.79 927.787,1353.31 933.799,1367.5 939.811,1351.5 945.823,1306.98 951.835,1194.93 957.847,1159.01 963.859,998.844 969.871,1157.43 975.883,1156.85 981.895,1101.72 987.907,1225.06 993.919,1291.18 999.931,1311.44 1005.94,1354.42 1011.95,1327.7 1017.97,1377.32 1023.98,1372.67 1029.99,1384.24 1036,1296.36 1042.02,1238.32 1048.03,1040.75 1054.04,943.942 1060.05,972.117 1066.06,932.761 1072.08,911.401 1078.09,964.719 1084.1,1052.24 1090.11,959.49 1096.12,906.39 1102.14,926.824 1108.15,857.169 1114.16,832.93 1120.17,860.477 1126.18,828.963 1132.2,777.056 1138.21,729.183 1144.22,682.689 1150.23,676.711 1156.24,623.346 1162.26,562.616 1168.27,467.632 1174.28,337.103 1180.29,289.826 1186.3,270.358 1192.32,320.579 1198.33,199.241 1204.34,256.525 1210.35,293.03 1216.36,275.107 1222.38,195.847 1228.39,167.451 1234.4,111.787 1240.41,113.92 1246.42,136.742 1252.44,147.762 1258.45,98.5213 1264.46,129.697 1270.47,224.242 1276.48,265.293 1282.5,268.985 1288.51,335.48 1294.52,366.234 1300.53,354.916 1306.54,300.373 1312.56,228.955 1318.57,236.422 1324.58,187.488 1330.59,252.039 1336.6,246.202 1342.62,252.103 1348.63,249.6 1354.64,318.062 1360.65,289.647 1366.66,259.044 1372.68,341.429 1378.69,293.929 1384.7,343.494 1390.71,133.698 1396.72,228.839 1402.74,298.492 1408.75,361.444 1414.76,234.015 1420.77,130.092 1426.78,86.1857 1432.8,157.481 1438.81,142.576 1444.82,128.819 1450.83,197.314 1456.84,139.494 1462.86,211.211 1468.87,292.347 1474.88,243.995 1480.89,230.395 1486.9,260.74 1492.92,246.102 1498.93,278.84 1504.94,271.714 1510.95,275.942 1516.96,301.538 1522.98,405.076 1528.99,392.733 1535,410.551 1541.01,526.106 1547.02,433.401 1553.04,335.947 1559.05,392.929 1565.06,339.479 1571.07,354.356 1577.08,345.365 1583.1,418.925 1589.11,395.854 1595.12,361.891 1601.13,450.664 1607.15,413.212 1613.16,512.986 1619.17,450.321 1625.18,362.972 1631.19,463.621 1637.21,445.855 1643.22,359.166 1649.23,371.564 1655.24,410.955 1661.25,389.298 1667.27,386.281 1673.28,411.246 1679.29,374.283 1685.3,383.094 1691.31,423.41 1697.33,473.329 1703.34,462.949 1709.35,615.664 1715.36,677.381 1721.37,696.658 1727.39,635.953 1733.4,684.832 1739.41,702.145 1745.42,667.676 1751.43,696.226 1757.45,729.305 1763.46,743.364 1769.47,724.438 1775.48,664.489 1781.49,690.521 1787.51,739.996 1793.52,697.199 1799.53,787.185 1805.54,723.721 1811.55,790.558 1817.57,795.773 1823.58,823.61 1829.59,800.005 1835.6,729.95 1841.61,740.736 1847.63,822.301 1853.64,842.249 1859.65,865.831 1865.66,919.923 1871.67,994.9 1877.69,1003.11 1883.7,980.947 1889.71,1010.19 1895.72,1019.78 1901.73,1072.41 1907.75,1152.71 1913.76,1135.27 1919.77,1106.18 1925.78,1116.92 1931.79,1175.3 1937.81,1111.44 1943.82,1162.36 1949.83,1042.01 1955.84,1025.67 1961.85,1030.76 1967.87,1109.09 1973.88,1058.89 1979.89,1079.12 1985.9,1058.1 1991.91,946.147 1997.93,845.664 2003.94,726.905 2009.95,691.334 2015.96,847.906 2021.97,748.164 2027.99,735.915 2034,792.105 2040.01,810.336 2046.02,888.882 2052.03,825.061 2058.05,860.223 2064.06,888.845 2070.07,879.563 2076.08,840.537 2082.09,743.141 2088.11,648.002 2094.12,593.03 2100.13,567.375 2106.14,479.896 2112.15,489.589 2118.17,580.511 2124.18,664.701 2130.19,571.636 2136.2,603.118 2142.21,624.415 2148.23,795.043 2154.24,837.454 2160.25,829.252 2166.26,878.669 2172.28,907.811 2178.29,872.293 2184.3,932.331 2190.31,1057.44 2196.32,1046.83 2202.34,985.649 2208.35,1107.47 2214.36,1092.43 2220.37,1209.38 2226.38,1178.02 2232.4,1135.96 2238.41,1103.98 2244.42,1170.45 2250.43,1068.64 2256.44,1105.58 2262.46,1089.52 2268.47,1228.3 2274.48,1231.27 2280.49,1271.09 2286.5,1290.8 2292.52,1244.54 "/>
<path clip-path="url(#clip930)" d="M2045.69 248.629 L2281.81 248.629 L2281.81 93.1086 L2045.69 93.1086  Z" fill="#ffffff" fill-rule="evenodd" fill-opacity="1"/>
<polyline clip-path="url(#clip930)" style="stroke:#000000; stroke-linecap:round; stroke-linejoin:round; stroke-width:4; stroke-opacity:1; fill:none" points="2045.69,248.629 2281.81,248.629 2281.81,93.1086 2045.69,93.1086 2045.69,248.629 "/>
<polyline clip-path="url(#clip930)" style="stroke:#009af9; stroke-linecap:round; stroke-linejoin:round; stroke-width:4; stroke-opacity:1; fill:none" points="2069.34,144.949 2211.24,144.949 "/>
<path clip-path="url(#clip930)" d="M2257.03 131.203 Q2257.03 131.531 2256.82 132.304 L2252.23 150.62 Q2251.22 154.696 2247.94 157.554 Q2244.68 160.411 2240.98 160.411 Q2238.76 160.411 2237.33 159.217 Q2235.9 158.045 2235.9 156.242 Q2235.9 154.649 2236.74 153.876 Q2237.59 153.127 2238.59 153.127 Q2238.92 153.127 2239.27 153.22 Q2239.62 153.314 2240 153.712 Q2240.37 154.11 2240.37 154.79 Q2240.37 155.891 2239.41 156.757 Q2238.95 157.155 2238.5 157.249 Q2238.08 157.343 2237.35 157.343 Q2237.63 157.999 2238.15 158.444 Q2238.66 158.889 2239.25 159.053 Q2239.84 159.24 2240.21 159.287 Q2240.61 159.357 2240.98 159.357 Q2243.98 159.357 2246.28 156.336 Q2246.96 155.422 2247.45 154.509 Q2247.96 153.619 2248.34 152.518 Q2248.71 151.44 2248.88 150.855 Q2249.06 150.269 2249.39 148.934 Q2247.21 151.112 2244.54 151.112 Q2243.42 151.112 2242.41 150.808 Q2241.43 150.503 2240.56 149.871 Q2239.69 149.215 2239.18 148.067 Q2238.69 146.92 2238.69 145.397 Q2238.69 143.781 2239.32 141.579 Q2239.95 139.378 2241.47 135.326 Q2242.29 133.054 2242.29 131.953 Q2242.29 131.414 2242.18 131.086 Q2242.06 130.735 2241.83 130.618 Q2241.59 130.477 2241.45 130.454 Q2241.33 130.43 2241.1 130.43 Q2239.72 130.43 2238.43 131.836 Q2237.14 133.241 2236.25 136.38 Q2236.06 136.965 2235.95 137.106 Q2235.83 137.246 2235.48 137.246 Q2234.89 137.223 2234.89 136.754 Q2234.89 136.567 2235.1 135.841 Q2235.31 135.091 2235.81 133.991 Q2236.32 132.866 2237.02 131.859 Q2237.73 130.828 2238.83 130.102 Q2239.95 129.376 2241.24 129.376 Q2243 129.376 2244.07 130.524 Q2245.18 131.648 2245.18 133.311 Q2245.18 133.991 2244.99 134.6 Q2244.82 135.185 2244.22 136.754 Q2241.76 143.078 2241.76 146.17 Q2241.76 146.92 2241.87 147.552 Q2242.01 148.161 2242.32 148.77 Q2242.62 149.356 2243.23 149.707 Q2243.86 150.035 2244.73 150.035 Q2245.83 150.035 2246.86 149.52 Q2247.92 148.981 2248.57 148.255 Q2249.25 147.529 2249.65 146.92 Q2250.07 146.287 2250.16 145.959 L2252.32 137.34 L2253.28 133.499 Q2253.72 131.414 2253.94 130.899 Q2254.22 130.407 2254.71 130.149 Q2255.2 129.892 2255.62 129.892 Q2256.21 129.892 2256.61 130.243 Q2257.03 130.594 2257.03 131.203 Z" fill="#000000" fill-rule="nonzero" fill-opacity="1" /><polyline clip-path="url(#clip930)" style="stroke:#e26f46; stroke-linecap:round; stroke-linejoin:round; stroke-width:4; stroke-opacity:1; fill:none" points="2069.34,196.789 2211.24,196.789 "/>
<path clip-path="url(#clip930)" d="M2255.95 189.167 Q2255.95 189.776 2255.79 190.971 Q2255.62 192.165 2255.22 193.899 Q2254.83 195.632 2254.24 197.459 Q2253.68 199.286 2252.79 201.113 Q2251.9 202.916 2250.84 204.345 Q2249.79 205.774 2248.31 206.664 Q2246.84 207.554 2245.18 207.554 Q2244.4 207.554 2243.65 207.437 Q2242.9 207.32 2241.97 206.945 Q2241.03 206.57 2240.35 205.961 Q2239.67 205.329 2239.2 204.204 Q2238.73 203.08 2238.73 201.605 Q2238.73 200.082 2239.3 198.044 Q2239.88 195.983 2241.47 191.767 Q2242.29 189.589 2242.29 188.394 Q2242.29 187.856 2242.18 187.528 Q2242.06 187.176 2241.83 187.059 Q2241.59 186.919 2241.45 186.895 Q2241.33 186.872 2241.1 186.872 Q2239.81 186.872 2238.5 188.207 Q2237.19 189.542 2236.25 192.821 Q2236.06 193.407 2235.95 193.547 Q2235.83 193.688 2235.48 193.688 Q2234.89 193.664 2234.89 193.196 Q2234.89 193.055 2235.06 192.517 Q2235.22 191.955 2235.53 191.111 Q2235.83 190.245 2236.37 189.355 Q2236.91 188.441 2237.56 187.645 Q2238.24 186.848 2239.2 186.333 Q2240.16 185.818 2241.24 185.818 Q2243 185.818 2244.07 186.966 Q2245.18 188.09 2245.18 189.753 Q2245.18 190.666 2244.59 192.142 Q2243.61 194.812 2243.16 196.1 Q2242.72 197.389 2242.25 199.216 Q2241.8 201.042 2241.8 202.307 Q2241.8 204.228 2242.69 205.352 Q2243.58 206.476 2245.36 206.476 Q2246.96 206.476 2248.38 205.329 Q2249.84 204.158 2250.8 202.495 Q2251.76 200.808 2252.48 198.934 Q2253.21 197.037 2253.54 195.608 Q2253.89 194.156 2253.89 193.477 Q2253.89 191.111 2252.27 189.565 Q2251.83 189.12 2251.66 188.839 Q2251.5 188.558 2251.5 188.113 Q2251.5 187.293 2252.23 186.567 Q2252.98 185.818 2253.84 185.818 Q2254.64 185.818 2255.29 186.614 Q2255.95 187.411 2255.95 189.167 Z" fill="#000000" fill-rule="nonzero" fill-opacity="1" /></svg>
