<?xml version="1.0" encoding="utf-8"?>
<svg xmlns="http://www.w3.org/2000/svg" xmlns:xlink="http://www.w3.org/1999/xlink" width="600" height="400" viewBox="0 0 2400 1600">
<defs>
  <clipPath id="clip840">
    <rect x="0" y="0" width="2400" height="1600"/>
  </clipPath>
</defs>
<path clip-path="url(#clip840)" d="M0 1600 L2400 1600 L2400 0 L0 0  Z" fill="#ffffff" fill-rule="evenodd" fill-opacity="1"/>
<defs>
  <clipPath id="clip841">
    <rect x="480" y="0" width="1681" height="1600"/>
  </clipPath>
</defs>
<path clip-path="url(#clip840)" d="M793.543 1486.45 L1706.69 1486.45 L1706.69 123.472 L793.543 123.472  Z" fill="#ffffff" fill-rule="evenodd" fill-opacity="1"/>
<defs>
  <clipPath id="clip842">
    <rect x="793" y="123" width="914" height="1364"/>
  </clipPath>
</defs>
<polyline clip-path="url(#clip840)" style="stroke:#000000; stroke-linecap:round; stroke-linejoin:round; stroke-width:4; stroke-opacity:1; fill:none" points="793.543,1486.45 1706.69,1486.45 "/>
<polyline clip-path="url(#clip840)" style="stroke:#000000; stroke-linecap:round; stroke-linejoin:round; stroke-width:4; stroke-opacity:1; fill:none" points="793.543,123.472 1706.69,123.472 "/>
<polyline clip-path="url(#clip840)" style="stroke:#000000; stroke-linecap:round; stroke-linejoin:round; stroke-width:4; stroke-opacity:1; fill:none" points="800.29,1486.45 800.29,1467.55 "/>
<polyline clip-path="url(#clip840)" style="stroke:#000000; stroke-linecap:round; stroke-linejoin:round; stroke-width:4; stroke-opacity:1; fill:none" points="1025.2,1486.45 1025.2,1467.55 "/>
<polyline clip-path="url(#clip840)" style="stroke:#000000; stroke-linecap:round; stroke-linejoin:round; stroke-width:4; stroke-opacity:1; fill:none" points="1250.12,1486.45 1250.12,1467.55 "/>
<polyline clip-path="url(#clip840)" style="stroke:#000000; stroke-linecap:round; stroke-linejoin:round; stroke-width:4; stroke-opacity:1; fill:none" points="1475.03,1486.45 1475.03,1467.55 "/>
<polyline clip-path="url(#clip840)" style="stroke:#000000; stroke-linecap:round; stroke-linejoin:round; stroke-width:4; stroke-opacity:1; fill:none" points="1699.94,1486.45 1699.94,1467.55 "/>
<path clip-path="url(#clip840)" d="M770.232 1532.02 L799.908 1532.02 L799.908 1535.95 L770.232 1535.95 L770.232 1532.02 Z" fill="#000000" fill-rule="nonzero" fill-opacity="1" /><path clip-path="url(#clip840)" d="M814.028 1544.91 L830.348 1544.91 L830.348 1548.85 L808.403 1548.85 L808.403 1544.91 Q811.065 1542.16 815.649 1537.53 Q820.255 1532.88 821.436 1531.53 Q823.681 1529.01 824.561 1527.27 Q825.463 1525.51 825.463 1523.82 Q825.463 1521.07 823.519 1519.33 Q821.598 1517.6 818.496 1517.6 Q816.297 1517.6 813.843 1518.36 Q811.413 1519.13 808.635 1520.68 L808.635 1515.95 Q811.459 1514.82 813.913 1514.24 Q816.366 1513.66 818.403 1513.66 Q823.774 1513.66 826.968 1516.35 Q830.162 1519.03 830.162 1523.52 Q830.162 1525.65 829.352 1527.57 Q828.565 1529.47 826.459 1532.07 Q825.88 1532.74 822.778 1535.95 Q819.676 1539.15 814.028 1544.91 Z" fill="#000000" fill-rule="nonzero" fill-opacity="1" /><path clip-path="url(#clip840)" d="M994.961 1532.02 L1024.64 1532.02 L1024.64 1535.95 L994.961 1535.95 L994.961 1532.02 Z" fill="#000000" fill-rule="nonzero" fill-opacity="1" /><path clip-path="url(#clip840)" d="M1035.54 1544.91 L1043.18 1544.91 L1043.18 1518.55 L1034.87 1520.21 L1034.87 1515.95 L1043.13 1514.29 L1047.81 1514.29 L1047.81 1544.91 L1055.45 1544.91 L1055.45 1548.85 L1035.54 1548.85 L1035.54 1544.91 Z" fill="#000000" fill-rule="nonzero" fill-opacity="1" /><path clip-path="url(#clip840)" d="M1250.12 1517.37 Q1246.51 1517.37 1244.68 1520.93 Q1242.87 1524.47 1242.87 1531.6 Q1242.87 1538.71 1244.68 1542.27 Q1246.51 1545.82 1250.12 1545.82 Q1253.75 1545.82 1255.56 1542.27 Q1257.39 1538.71 1257.39 1531.6 Q1257.39 1524.47 1255.56 1520.93 Q1253.75 1517.37 1250.12 1517.37 M1250.12 1513.66 Q1255.93 1513.66 1258.98 1518.27 Q1262.06 1522.85 1262.06 1531.6 Q1262.06 1540.33 1258.98 1544.94 Q1255.93 1549.52 1250.12 1549.52 Q1244.31 1549.52 1241.23 1544.94 Q1238.17 1540.33 1238.17 1531.6 Q1238.17 1522.85 1241.23 1518.27 Q1244.31 1513.66 1250.12 1513.66 Z" fill="#000000" fill-rule="nonzero" fill-opacity="1" /><path clip-path="url(#clip840)" d="M1465.41 1544.91 L1473.05 1544.91 L1473.05 1518.55 L1464.74 1520.21 L1464.74 1515.95 L1473 1514.29 L1477.68 1514.29 L1477.68 1544.91 L1485.32 1544.91 L1485.32 1548.85 L1465.41 1548.85 L1465.41 1544.91 Z" fill="#000000" fill-rule="nonzero" fill-opacity="1" /><path clip-path="url(#clip840)" d="M1694.6 1544.91 L1710.92 1544.91 L1710.92 1548.85 L1688.97 1548.85 L1688.97 1544.91 Q1691.63 1542.16 1696.22 1537.53 Q1700.82 1532.88 1702 1531.53 Q1704.25 1529.01 1705.13 1527.27 Q1706.03 1525.51 1706.03 1523.82 Q1706.03 1521.07 1704.09 1519.33 Q1702.17 1517.6 1699.06 1517.6 Q1696.87 1517.6 1694.41 1518.36 Q1691.98 1519.13 1689.2 1520.68 L1689.2 1515.95 Q1692.03 1514.82 1694.48 1514.24 Q1696.93 1513.66 1698.97 1513.66 Q1704.34 1513.66 1707.54 1516.35 Q1710.73 1519.03 1710.73 1523.52 Q1710.73 1525.65 1709.92 1527.57 Q1709.13 1529.47 1707.03 1532.07 Q1706.45 1532.74 1703.35 1535.95 Q1700.24 1539.15 1694.6 1544.91 Z" fill="#000000" fill-rule="nonzero" fill-opacity="1" /><polyline clip-path="url(#clip840)" style="stroke:#000000; stroke-linecap:round; stroke-linejoin:round; stroke-width:4; stroke-opacity:1; fill:none" points="793.543,1486.45 793.543,123.472 "/>
<polyline clip-path="url(#clip840)" style="stroke:#000000; stroke-linecap:round; stroke-linejoin:round; stroke-width:4; stroke-opacity:1; fill:none" points="1706.69,1486.45 1706.69,123.472 "/>
<polyline clip-path="url(#clip840)" style="stroke:#000000; stroke-linecap:round; stroke-linejoin:round; stroke-width:4; stroke-opacity:1; fill:none" points="793.543,1479.7 801.368,1479.7 "/>
<polyline clip-path="url(#clip840)" style="stroke:#000000; stroke-linecap:round; stroke-linejoin:round; stroke-width:4; stroke-opacity:1; fill:none" points="793.543,1254.79 801.368,1254.79 "/>
<polyline clip-path="url(#clip840)" style="stroke:#000000; stroke-linecap:round; stroke-linejoin:round; stroke-width:4; stroke-opacity:1; fill:none" points="793.543,1029.87 801.368,1029.87 "/>
<polyline clip-path="url(#clip840)" style="stroke:#000000; stroke-linecap:round; stroke-linejoin:round; stroke-width:4; stroke-opacity:1; fill:none" points="793.543,804.96 801.368,804.96 "/>
<polyline clip-path="url(#clip840)" style="stroke:#000000; stroke-linecap:round; stroke-linejoin:round; stroke-width:4; stroke-opacity:1; fill:none" points="793.543,580.047 801.368,580.047 "/>
<polyline clip-path="url(#clip840)" style="stroke:#000000; stroke-linecap:round; stroke-linejoin:round; stroke-width:4; stroke-opacity:1; fill:none" points="793.543,355.133 801.368,355.133 "/>
<polyline clip-path="url(#clip840)" style="stroke:#000000; stroke-linecap:round; stroke-linejoin:round; stroke-width:4; stroke-opacity:1; fill:none" points="793.543,130.22 801.368,130.22 "/>
<path clip-path="url(#clip840)" d="M697.427 1480.15 L727.103 1480.15 L727.103 1484.09 L697.427 1484.09 L697.427 1480.15 Z" fill="#000000" fill-rule="nonzero" fill-opacity="1" /><path clip-path="url(#clip840)" d="M741.223 1493.05 L757.543 1493.05 L757.543 1496.98 L735.598 1496.98 L735.598 1493.05 Q738.26 1490.29 742.844 1485.66 Q747.45 1481.01 748.631 1479.67 Q750.876 1477.14 751.756 1475.41 Q752.658 1473.65 752.658 1471.96 Q752.658 1469.2 750.714 1467.47 Q748.793 1465.73 745.691 1465.73 Q743.492 1465.73 741.038 1466.49 Q738.607 1467.26 735.83 1468.81 L735.83 1464.09 Q738.654 1462.95 741.107 1462.37 Q743.561 1461.8 745.598 1461.8 Q750.968 1461.8 754.163 1464.48 Q757.357 1467.17 757.357 1471.66 Q757.357 1473.79 756.547 1475.71 Q755.76 1477.61 753.654 1480.2 Q753.075 1480.87 749.973 1484.09 Q746.871 1487.28 741.223 1493.05 Z" fill="#000000" fill-rule="nonzero" fill-opacity="1" /><path clip-path="url(#clip840)" d="M697.057 1255.24 L726.733 1255.24 L726.733 1259.17 L697.057 1259.17 L697.057 1255.24 Z" fill="#000000" fill-rule="nonzero" fill-opacity="1" /><path clip-path="url(#clip840)" d="M737.635 1268.13 L745.274 1268.13 L745.274 1241.77 L736.964 1243.43 L736.964 1239.17 L745.228 1237.51 L749.904 1237.51 L749.904 1268.13 L757.543 1268.13 L757.543 1272.07 L737.635 1272.07 L737.635 1268.13 Z" fill="#000000" fill-rule="nonzero" fill-opacity="1" /><path clip-path="url(#clip840)" d="M745.598 1015.67 Q741.987 1015.67 740.158 1019.24 Q738.353 1022.78 738.353 1029.91 Q738.353 1037.01 740.158 1040.58 Q741.987 1044.12 745.598 1044.12 Q749.232 1044.12 751.038 1040.58 Q752.867 1037.01 752.867 1029.91 Q752.867 1022.78 751.038 1019.24 Q749.232 1015.67 745.598 1015.67 M745.598 1011.97 Q751.408 1011.97 754.464 1016.57 Q757.543 1021.16 757.543 1029.91 Q757.543 1038.64 754.464 1043.24 Q751.408 1047.82 745.598 1047.82 Q739.788 1047.82 736.709 1043.24 Q733.654 1038.64 733.654 1029.91 Q733.654 1021.16 736.709 1016.57 Q739.788 1011.97 745.598 1011.97 Z" fill="#000000" fill-rule="nonzero" fill-opacity="1" /><path clip-path="url(#clip840)" d="M737.635 818.305 L745.274 818.305 L745.274 791.939 L736.964 793.606 L736.964 789.347 L745.228 787.68 L749.904 787.68 L749.904 818.305 L757.543 818.305 L757.543 822.24 L737.635 822.24 L737.635 818.305 Z" fill="#000000" fill-rule="nonzero" fill-opacity="1" /><path clip-path="url(#clip840)" d="M741.223 593.391 L757.543 593.391 L757.543 597.327 L735.598 597.327 L735.598 593.391 Q738.26 590.637 742.844 586.007 Q747.45 581.354 748.631 580.012 Q750.876 577.489 751.756 575.753 Q752.658 573.993 752.658 572.303 Q752.658 569.549 750.714 567.813 Q748.793 566.077 745.691 566.077 Q743.492 566.077 741.038 566.841 Q738.607 567.604 735.83 569.155 L735.83 564.433 Q738.654 563.299 741.107 562.72 Q743.561 562.142 745.598 562.142 Q750.968 562.142 754.163 564.827 Q757.357 567.512 757.357 572.003 Q757.357 574.132 756.547 576.053 Q755.76 577.952 753.654 580.544 Q753.075 581.215 749.973 584.433 Q746.871 587.627 741.223 593.391 Z" fill="#000000" fill-rule="nonzero" fill-opacity="1" /><path clip-path="url(#clip840)" d="M750.413 353.779 Q753.769 354.496 755.644 356.765 Q757.543 359.033 757.543 362.367 Q757.543 367.482 754.024 370.283 Q750.506 373.084 744.024 373.084 Q741.848 373.084 739.533 372.645 Q737.242 372.228 734.788 371.371 L734.788 366.857 Q736.732 367.992 739.047 368.57 Q741.362 369.149 743.885 369.149 Q748.283 369.149 750.575 367.413 Q752.89 365.677 752.89 362.367 Q752.89 359.311 750.737 357.598 Q748.607 355.862 744.788 355.862 L740.76 355.862 L740.76 352.02 L744.973 352.02 Q748.422 352.02 750.251 350.654 Q752.08 349.265 752.08 346.672 Q752.08 344.01 750.181 342.598 Q748.306 341.163 744.788 341.163 Q742.867 341.163 740.668 341.58 Q738.469 341.997 735.83 342.876 L735.83 338.709 Q738.492 337.969 740.807 337.598 Q743.144 337.228 745.205 337.228 Q750.529 337.228 753.631 339.659 Q756.732 342.066 756.732 346.186 Q756.732 349.057 755.089 351.047 Q753.445 353.015 750.413 353.779 Z" fill="#000000" fill-rule="nonzero" fill-opacity="1" /><path clip-path="url(#clip840)" d="M747.959 117.014 L736.154 135.463 L747.959 135.463 L747.959 117.014 M746.732 112.94 L752.612 112.94 L752.612 135.463 L757.543 135.463 L757.543 139.351 L752.612 139.351 L752.612 147.5 L747.959 147.5 L747.959 139.351 L732.357 139.351 L732.357 134.838 L746.732 112.94 Z" fill="#000000" fill-rule="nonzero" fill-opacity="1" /><path clip-path="url(#clip840)" d="M738.265 14.0809 L738.265 22.0612 Q733.606 19.8332 729.474 18.7395 Q725.343 17.6457 721.494 17.6457 Q714.81 17.6457 711.164 20.2383 Q707.559 22.8309 707.559 27.611 Q707.559 31.6214 709.949 33.6873 Q712.38 35.7128 719.104 36.9686 L724.046 37.9813 Q733.201 39.7232 737.536 44.1387 Q741.911 48.5136 741.911 55.8863 Q741.911 64.6767 735.996 69.2137 Q730.123 73.7508 718.74 73.7508 Q714.446 73.7508 709.585 72.7785 Q704.764 71.8063 699.579 69.9024 L699.579 61.4765 Q704.561 64.2716 709.341 65.6895 Q714.122 67.1073 718.74 67.1073 Q725.748 67.1073 729.555 64.3527 Q733.363 61.598 733.363 56.4939 Q733.363 52.0379 730.609 49.5264 Q727.895 47.0148 721.656 45.759 L716.674 44.7868 Q707.519 42.9639 703.427 39.075 Q699.336 35.1862 699.336 28.2591 Q699.336 20.2383 704.966 15.6203 Q710.638 11.0023 720.562 11.0023 Q724.816 11.0023 729.231 11.7719 Q733.647 12.5416 738.265 14.0809 Z" fill="#000000" fill-rule="nonzero" fill-opacity="1" /><path clip-path="url(#clip840)" d="M761.72 14.324 L761.72 27.2059 L777.073 27.2059 L777.073 32.9987 L761.72 32.9987 L761.72 57.6282 Q761.72 63.1779 763.218 64.7578 Q764.758 66.3376 769.416 66.3376 L777.073 66.3376 L777.073 72.576 L769.416 72.576 Q760.788 72.576 757.507 69.3758 Q754.225 66.1351 754.225 57.6282 L754.225 32.9987 L748.757 32.9987 L748.757 27.2059 L754.225 27.2059 L754.225 14.324 L761.72 14.324 Z" fill="#000000" fill-rule="nonzero" fill-opacity="1" /><path clip-path="url(#clip840)" d="M813.166 34.1734 Q811.91 33.4443 810.412 33.1202 Q808.953 32.7556 807.171 32.7556 Q800.851 32.7556 797.449 36.8875 Q794.086 40.9789 794.086 48.6757 L794.086 72.576 L786.592 72.576 L786.592 27.2059 L794.086 27.2059 L794.086 34.2544 Q796.436 30.1225 800.203 28.1376 Q803.971 26.1121 809.358 26.1121 Q810.128 26.1121 811.06 26.2337 Q811.991 26.3147 813.126 26.5172 L813.166 34.1734 Z" fill="#000000" fill-rule="nonzero" fill-opacity="1" /><path clip-path="url(#clip840)" d="M857.969 48.0275 L857.969 51.6733 L823.698 51.6733 Q824.185 59.3701 828.317 63.421 Q832.489 67.4314 839.902 67.4314 Q844.196 67.4314 848.206 66.3781 Q852.257 65.3249 856.227 63.2184 L856.227 70.267 Q852.217 71.9684 848.004 72.8596 Q843.791 73.7508 839.456 73.7508 Q828.6 73.7508 822.24 67.4314 Q815.921 61.1119 815.921 50.3365 Q815.921 39.1965 821.916 32.6746 Q827.952 26.1121 838.16 26.1121 Q847.315 26.1121 852.622 32.0264 Q857.969 37.9003 857.969 48.0275 M850.515 45.84 Q850.434 39.7232 847.072 36.0774 Q843.75 32.4315 838.241 32.4315 Q832.003 32.4315 828.235 35.9558 Q824.509 39.4801 823.942 45.8805 L850.515 45.84 Z" fill="#000000" fill-rule="nonzero" fill-opacity="1" /><path clip-path="url(#clip840)" d="M890.822 49.7694 Q881.788 49.7694 878.305 51.8354 Q874.821 53.9013 874.821 58.8839 Q874.821 62.8538 877.413 65.2034 Q880.047 67.5124 884.543 67.5124 Q890.741 67.5124 894.468 63.1374 Q898.235 58.7219 898.235 51.4303 L898.235 49.7694 L890.822 49.7694 M905.689 46.6907 L905.689 72.576 L898.235 72.576 L898.235 65.6895 Q895.683 69.8214 891.875 71.8063 Q888.067 73.7508 882.558 73.7508 Q875.591 73.7508 871.459 69.8619 Q867.367 65.9325 867.367 59.3701 Q867.367 51.7138 872.471 47.825 Q877.616 43.9361 887.784 43.9361 L898.235 43.9361 L898.235 43.2069 Q898.235 38.0623 894.832 35.2672 Q891.47 32.4315 885.353 32.4315 Q881.464 32.4315 877.778 33.3632 Q874.092 34.295 870.689 36.1584 L870.689 29.2718 Q874.78 27.692 878.629 26.9223 Q882.477 26.1121 886.123 26.1121 Q895.967 26.1121 900.828 31.2163 Q905.689 36.3204 905.689 46.6907 Z" fill="#000000" fill-rule="nonzero" fill-opacity="1" /><path clip-path="url(#clip840)" d="M956.366 35.9153 Q959.161 30.8922 963.05 28.5022 Q966.938 26.1121 972.205 26.1121 Q979.294 26.1121 983.142 31.0947 Q986.99 36.0368 986.99 45.1919 L986.99 72.576 L979.496 72.576 L979.496 45.4349 Q979.496 38.913 977.187 35.7533 Q974.878 32.5936 970.139 32.5936 Q964.346 32.5936 960.984 36.4419 Q957.621 40.2903 957.621 46.9338 L957.621 72.576 L950.127 72.576 L950.127 45.4349 Q950.127 38.8725 947.818 35.7533 Q945.509 32.5936 940.689 32.5936 Q934.977 32.5936 931.615 36.4824 Q928.252 40.3308 928.252 46.9338 L928.252 72.576 L920.758 72.576 L920.758 27.2059 L928.252 27.2059 L928.252 34.2544 Q930.804 30.082 934.369 28.0971 Q937.934 26.1121 942.836 26.1121 Q947.778 26.1121 951.221 28.6237 Q954.705 31.1352 956.366 35.9153 Z" fill="#000000" fill-rule="nonzero" fill-opacity="1" /><path clip-path="url(#clip840)" d="M1024.83 9.54393 L1024.83 15.7418 L1017.7 15.7418 Q1013.69 15.7418 1012.11 17.3622 Q1010.57 18.9825 1010.57 23.1955 L1010.57 27.2059 L1022.84 27.2059 L1022.84 32.9987 L1010.57 32.9987 L1010.57 72.576 L1003.07 72.576 L1003.07 32.9987 L995.943 32.9987 L995.943 27.2059 L1003.07 27.2059 L1003.07 24.0462 Q1003.07 16.471 1006.6 13.0277 Q1010.12 9.54393 1017.78 9.54393 L1024.83 9.54393 Z" fill="#000000" fill-rule="nonzero" fill-opacity="1" /><path clip-path="url(#clip840)" d="M1030.29 54.671 L1030.29 27.2059 L1037.75 27.2059 L1037.75 54.3874 Q1037.75 60.8284 1040.26 64.0691 Q1042.77 67.2693 1047.79 67.2693 Q1053.83 67.2693 1057.31 63.421 Q1060.84 59.5726 1060.84 52.9291 L1060.84 27.2059 L1068.29 27.2059 L1068.29 72.576 L1060.84 72.576 L1060.84 65.6084 Q1058.12 69.7404 1054.52 71.7658 Q1050.95 73.7508 1046.21 73.7508 Q1038.4 73.7508 1034.35 68.8897 Q1030.29 64.0286 1030.29 54.671 M1049.05 26.1121 L1049.05 26.1121 Z" fill="#000000" fill-rule="nonzero" fill-opacity="1" /><path clip-path="url(#clip840)" d="M1121.36 45.1919 L1121.36 72.576 L1113.91 72.576 L1113.91 45.4349 Q1113.91 38.994 1111.39 35.7938 Q1108.88 32.5936 1103.86 32.5936 Q1097.82 32.5936 1094.34 36.4419 Q1090.86 40.2903 1090.86 46.9338 L1090.86 72.576 L1083.36 72.576 L1083.36 27.2059 L1090.86 27.2059 L1090.86 34.2544 Q1093.53 30.163 1097.13 28.1376 Q1100.78 26.1121 1105.52 26.1121 Q1113.34 26.1121 1117.35 30.9732 Q1121.36 35.7938 1121.36 45.1919 Z" fill="#000000" fill-rule="nonzero" fill-opacity="1" /><path clip-path="url(#clip840)" d="M1168.88 28.9478 L1168.88 35.9153 Q1165.72 34.1734 1162.52 33.3227 Q1159.36 32.4315 1156.12 32.4315 Q1148.86 32.4315 1144.85 37.0496 Q1140.84 41.6271 1140.84 49.9314 Q1140.84 58.2358 1144.85 62.8538 Q1148.86 67.4314 1156.12 67.4314 Q1159.36 67.4314 1162.52 66.5807 Q1165.72 65.6895 1168.88 63.9476 L1168.88 70.8341 Q1165.76 72.2924 1162.39 73.0216 Q1159.07 73.7508 1155.31 73.7508 Q1145.06 73.7508 1139.02 67.3098 Q1132.99 60.8689 1132.99 49.9314 Q1132.99 38.832 1139.06 32.472 Q1145.18 26.1121 1155.79 26.1121 Q1159.23 26.1121 1162.52 26.8413 Q1165.8 27.5299 1168.88 28.9478 Z" fill="#000000" fill-rule="nonzero" fill-opacity="1" /><path clip-path="url(#clip840)" d="M1189.21 14.324 L1189.21 27.2059 L1204.56 27.2059 L1204.56 32.9987 L1189.21 32.9987 L1189.21 57.6282 Q1189.21 63.1779 1190.71 64.7578 Q1192.25 66.3376 1196.91 66.3376 L1204.56 66.3376 L1204.56 72.576 L1196.91 72.576 Q1188.28 72.576 1185 69.3758 Q1181.72 66.1351 1181.72 57.6282 L1181.72 32.9987 L1176.25 32.9987 L1176.25 27.2059 L1181.72 27.2059 L1181.72 14.324 L1189.21 14.324 Z" fill="#000000" fill-rule="nonzero" fill-opacity="1" /><path clip-path="url(#clip840)" d="M1214.37 27.2059 L1221.82 27.2059 L1221.82 72.576 L1214.37 72.576 L1214.37 27.2059 M1214.37 9.54393 L1221.82 9.54393 L1221.82 18.9825 L1214.37 18.9825 L1214.37 9.54393 Z" fill="#000000" fill-rule="nonzero" fill-opacity="1" /><path clip-path="url(#clip840)" d="M1255 32.4315 Q1249 32.4315 1245.52 37.1306 Q1242.04 41.7891 1242.04 49.9314 Q1242.04 58.0738 1245.48 62.7728 Q1248.96 67.4314 1255 67.4314 Q1260.95 67.4314 1264.44 62.7323 Q1267.92 58.0333 1267.92 49.9314 Q1267.92 41.8701 1264.44 37.1711 Q1260.95 32.4315 1255 32.4315 M1255 26.1121 Q1264.72 26.1121 1270.27 32.4315 Q1275.82 38.7509 1275.82 49.9314 Q1275.82 61.0714 1270.27 67.4314 Q1264.72 73.7508 1255 73.7508 Q1245.24 73.7508 1239.69 67.4314 Q1234.18 61.0714 1234.18 49.9314 Q1234.18 38.7509 1239.69 32.4315 Q1245.24 26.1121 1255 26.1121 Z" fill="#000000" fill-rule="nonzero" fill-opacity="1" /><path clip-path="url(#clip840)" d="M1325.89 45.1919 L1325.89 72.576 L1318.44 72.576 L1318.44 45.4349 Q1318.44 38.994 1315.92 35.7938 Q1313.41 32.5936 1308.39 32.5936 Q1302.35 32.5936 1298.87 36.4419 Q1295.39 40.2903 1295.39 46.9338 L1295.39 72.576 L1287.89 72.576 L1287.89 27.2059 L1295.39 27.2059 L1295.39 34.2544 Q1298.06 30.163 1301.66 28.1376 Q1305.31 26.1121 1310.05 26.1121 Q1317.87 26.1121 1321.88 30.9732 Q1325.89 35.7938 1325.89 45.1919 Z" fill="#000000" fill-rule="nonzero" fill-opacity="1" /><path clip-path="url(#clip840)" d="M1387.75 49.7694 Q1378.71 49.7694 1375.23 51.8354 Q1371.75 53.9013 1371.75 58.8839 Q1371.75 62.8538 1374.34 65.2034 Q1376.97 67.5124 1381.47 67.5124 Q1387.67 67.5124 1391.39 63.1374 Q1395.16 58.7219 1395.16 51.4303 L1395.16 49.7694 L1387.75 49.7694 M1402.61 46.6907 L1402.61 72.576 L1395.16 72.576 L1395.16 65.6895 Q1392.61 69.8214 1388.8 71.8063 Q1384.99 73.7508 1379.48 73.7508 Q1372.51 73.7508 1368.38 69.8619 Q1364.29 65.9325 1364.29 59.3701 Q1364.29 51.7138 1369.4 47.825 Q1374.54 43.9361 1384.71 43.9361 L1395.16 43.9361 L1395.16 43.2069 Q1395.16 38.0623 1391.76 35.2672 Q1388.39 32.4315 1382.28 32.4315 Q1378.39 32.4315 1374.7 33.3632 Q1371.02 34.295 1367.61 36.1584 L1367.61 29.2718 Q1371.7 27.692 1375.55 26.9223 Q1379.4 26.1121 1383.05 26.1121 Q1392.89 26.1121 1397.75 31.2163 Q1402.61 36.3204 1402.61 46.6907 Z" fill="#000000" fill-rule="nonzero" fill-opacity="1" /><path clip-path="url(#clip840)" d="M1425.34 14.324 L1425.34 27.2059 L1440.69 27.2059 L1440.69 32.9987 L1425.34 32.9987 L1425.34 57.6282 Q1425.34 63.1779 1426.84 64.7578 Q1428.38 66.3376 1433.04 66.3376 L1440.69 66.3376 L1440.69 72.576 L1433.04 72.576 Q1424.41 72.576 1421.13 69.3758 Q1417.84 66.1351 1417.84 57.6282 L1417.84 32.9987 L1412.38 32.9987 L1412.38 27.2059 L1417.84 27.2059 L1417.84 14.324 L1425.34 14.324 Z" fill="#000000" fill-rule="nonzero" fill-opacity="1" /><path clip-path="url(#clip840)" d="M1484.24 14.324 L1484.24 27.2059 L1499.59 27.2059 L1499.59 32.9987 L1484.24 32.9987 L1484.24 57.6282 Q1484.24 63.1779 1485.74 64.7578 Q1487.28 66.3376 1491.94 66.3376 L1499.59 66.3376 L1499.59 72.576 L1491.94 72.576 Q1483.31 72.576 1480.03 69.3758 Q1476.74 66.1351 1476.74 57.6282 L1476.74 32.9987 L1471.28 32.9987 L1471.28 27.2059 L1476.74 27.2059 L1476.74 14.324 L1484.24 14.324 Z" fill="#000000" fill-rule="nonzero" fill-opacity="1" /><path clip-path="url(#clip840)" d="M1536.74 34.9026 L1588.67 34.9026 L1588.67 41.7081 L1536.74 41.7081 L1536.74 34.9026 M1536.74 51.4303 L1588.67 51.4303 L1588.67 58.3168 L1536.74 58.3168 L1536.74 51.4303 Z" fill="#000000" fill-rule="nonzero" fill-opacity="1" /><path clip-path="url(#clip840)" d="M1655.19 19.2256 L1634.53 51.5113 L1655.19 51.5113 L1655.19 19.2256 M1653.04 12.096 L1663.33 12.096 L1663.33 51.5113 L1671.96 51.5113 L1671.96 58.3168 L1663.33 58.3168 L1663.33 72.576 L1655.19 72.576 L1655.19 58.3168 L1627.88 58.3168 L1627.88 50.4176 L1653.04 12.096 Z" fill="#000000" fill-rule="nonzero" fill-opacity="1" /><path clip-path="url(#clip840)" d="M1685.49 62.2867 L1694.04 62.2867 L1694.04 72.576 L1685.49 72.576 L1685.49 62.2867 Z" fill="#000000" fill-rule="nonzero" fill-opacity="1" /><path clip-path="url(#clip840)" d="M1729.36 17.4837 Q1723.04 17.4837 1719.84 23.7221 Q1716.68 29.92 1716.68 42.3968 Q1716.68 54.833 1719.84 61.0714 Q1723.04 67.2693 1729.36 67.2693 Q1735.72 67.2693 1738.88 61.0714 Q1742.08 54.833 1742.08 42.3968 Q1742.08 29.92 1738.88 23.7221 Q1735.72 17.4837 1729.36 17.4837 M1729.36 11.0023 Q1739.53 11.0023 1744.87 19.0636 Q1750.26 27.0843 1750.26 42.3968 Q1750.26 57.6687 1744.87 65.73 Q1739.53 73.7508 1729.36 73.7508 Q1719.19 73.7508 1713.8 65.73 Q1708.46 57.6687 1708.46 42.3968 Q1708.46 27.0843 1713.8 19.0636 Q1719.19 11.0023 1729.36 11.0023 Z" fill="#000000" fill-rule="nonzero" fill-opacity="1" /><path clip-path="url(#clip840)" d="M1766.06 65.6895 L1779.43 65.6895 L1779.43 19.5497 L1764.89 22.4663 L1764.89 15.0127 L1779.35 12.096 L1787.53 12.096 L1787.53 65.6895 L1800.9 65.6895 L1800.9 72.576 L1766.06 72.576 L1766.06 65.6895 Z" fill="#000000" fill-rule="nonzero" fill-opacity="1" /><polyline clip-path="url(#clip842)" style="stroke:#c73e4c; stroke-linecap:round; stroke-linejoin:round; stroke-width:4; stroke-opacity:1; fill:none" points="1034.96,1486.45 1036.45,1484.35 1038.12,1481.95 1040.95,1477.88 1041.24,1477.45 1044.32,1472.95 1045.45,1471.32 1047.37,1468.45 1049.94,1464.64 1050.4,1463.96 1053.38,1459.46 1054.44,1457.86 1056.33,1454.96 1058.94,1450.97 1059.26,1450.46 1062.15,1445.96 1063.44,1443.96 1065.01,1441.47 1067.85,1436.97 1067.94,1436.83 1070.65,1432.47 1072.44,1429.6 1073.43,1427.97 1076.17,1423.47 1076.93,1422.24 1078.89,1418.97 1081.43,1414.75 1081.59,1414.48 1084.25,1409.98 1085.93,1407.15 1086.9,1405.48 1089.51,1400.98 1090.43,1399.41 1092.1,1396.48 1094.67,1391.98 1094.93,1391.54 1097.21,1387.49 1099.42,1383.54 1099.73,1382.99 1102.22,1378.49 1103.92,1375.41 1104.69,1373.99 1107.13,1369.49 1108.42,1367.13 1109.56,1364.99 1111.96,1360.5 1112.92,1358.7 1114.33,1356 1116.69,1351.5 1117.42,1350.11 1119.01,1347 1121.33,1342.5 1121.92,1341.36 1123.61,1338 1125.87,1333.51 1126.41,1332.44 1128.11,1329.01 1130.33,1324.51 1130.91,1323.34 1132.52,1320.01 1134.7,1315.51 1135.41,1314.04 1136.84,1311.02 1138.97,1306.52 1139.91,1304.55 1141.08,1302.02 1143.16,1297.52 1144.41,1294.84 1145.23,1293.02 1147.26,1288.52 1148.91,1284.89 1149.29,1284.03 1151.28,1279.53 1153.26,1275.03 1153.4,1274.7 1155.2,1270.53 1157.14,1266.03 1157.9,1264.26 1159.04,1261.53 1160.93,1257.04 1162.4,1253.52 1162.8,1252.54 1164.63,1248.04 1166.46,1243.54 1166.9,1242.47 1168.25,1239.04 1170.03,1234.54 1171.4,1231.07 1171.79,1230.05 1173.52,1225.55 1175.23,1221.05 1175.9,1219.31 1176.92,1216.55 1178.58,1212.05 1180.23,1207.56 1180.39,1207.11 1181.85,1203.06 1183.44,1198.56 1184.89,1194.45 1185.02,1194.06 1186.57,1189.56 1188.1,1185.06 1189.39,1181.26 1189.62,1180.57 1191.1,1176.07 1192.56,1171.57 1193.89,1167.43 1194,1167.07 1195.41,1162.57 1196.8,1158.07 1198.17,1153.58 1198.39,1152.88 1199.51,1149.08 1200.83,1144.58 1202.13,1140.08 1202.89,1137.45 1203.4,1135.58 1204.65,1131.08 1205.87,1126.59 1207.07,1122.09 1207.38,1120.91 1208.24,1117.59 1209.38,1113.09 1210.51,1108.59 1211.61,1104.09 1211.88,1102.98 1212.68,1099.6 1213.72,1095.1 1214.75,1090.6 1215.74,1086.1 1216.38,1083.2 1216.72,1081.6 1217.66,1077.11 1218.58,1072.61 1219.48,1068.11 1220.35,1063.61 1220.88,1060.86 1221.2,1059.11 1222.02,1054.61 1222.82,1050.12 1223.6,1045.62 1224.35,1041.12 1225.09,1036.62 1225.38,1034.82 1225.8,1032.12 1226.48,1027.62 1227.15,1023.13 1227.8,1018.63 1228.43,1014.13 1229.04,1009.63 1229.63,1005.13 1229.87,1003.27 1230.21,1000.63 1230.76,996.136 1231.3,991.638 1231.83,987.14 1232.34,982.642 1232.83,978.143 1233.32,973.645 1233.79,969.147 1234.25,964.649 1234.37,963.439 1234.7,960.15 1235.13,955.652 1235.55,951.154 1235.96,946.655 1236.36,942.157 1236.76,937.659 1237.14,933.161 1237.51,928.662 1237.87,924.164 1238.23,919.666 1238.57,915.168 1238.87,911.159 1238.91,910.669 1239.23,906.171 1239.54,901.673 1239.85,897.175 1240.14,892.676 1240.43,888.178 1240.7,883.68 1240.97,879.181 1241.22,874.683 1241.47,870.185 1241.7,865.687 1241.92,861.188 1242.14,856.69 1242.34,852.192 1242.54,847.694 1242.72,843.195 1242.89,838.697 1243.05,834.199 1243.21,829.7 1243.35,825.202 1243.37,824.513 1243.48,820.704 1243.6,816.206 1243.71,811.707 1243.82,807.209 1243.91,802.711 1243.99,798.213 1244.07,793.714 1244.13,789.216 1244.18,784.718 1244.23,780.22 1244.27,775.721 1244.29,771.223 1244.31,766.725 1244.32,762.226 1244.32,757.728 1244.31,753.23 1244.29,748.732 1244.26,744.233 1244.22,739.735 1244.17,735.237 1244.11,730.739 1244.04,726.24 1243.96,721.742 1243.87,717.244 1243.77,712.745 1243.66,708.247 1243.53,703.749 1243.4,699.251 1243.37,698.465 1243.24,694.752 1243.08,690.254 1242.9,685.756 1242.71,681.258 1242.5,676.759 1242.28,672.261 1242.04,667.763 1241.78,663.265 1241.5,658.766 1241.2,654.268 1240.88,649.77 1240.53,645.271 1240.17,640.773 1239.78,636.275 1239.36,631.777 1238.92,627.278 1238.87,626.815 1238.45,622.78 1237.95,618.282 1237.42,613.784 1236.87,609.285 1236.29,604.787 1235.69,600.289 1235.06,595.79 1234.41,591.292 1234.37,591.065 1233.73,586.794 1233.02,582.296 1232.3,577.797 1231.56,573.299 1230.8,568.801 1230.02,564.303 1229.87,563.488 1229.21,559.804 1228.38,555.306 1227.54,550.808 1226.68,546.309 1225.8,541.811 1225.38,539.635 1224.9,537.313 1223.98,532.815 1223.05,528.316 1222.09,523.818 1221.12,519.32 1220.88,518.166 1220.13,514.822 1219.12,510.323 1218.1,505.825 1217.05,501.327 1216.38,498.434 1215.99,496.829 1214.91,492.33 1213.81,487.832 1212.69,483.334 1211.88,480.094 1211.55,478.835 1210.4,474.337 1209.22,469.839 1208.03,465.341 1207.38,462.887 1206.82,460.842 1205.59,456.344 1204.34,451.846 1203.08,447.348 1202.89,446.654 1201.79,442.849 1200.48,438.351 1199.16,433.853 1198.39,431.222 1197.82,429.354 1196.45,424.856 1195.07,420.358 1193.89,416.526 1193.68,415.86 1192.25,411.361 1190.81,406.863 1189.39,402.459 1189.36,402.365 1187.88,397.867 1186.38,393.368 1184.89,388.947 1184.87,388.87 1183.32,384.372 1181.77,379.874 1180.39,375.933 1180.19,375.375 1178.59,370.877 1176.98,366.379 1175.9,363.375 1175.34,361.88 1173.68,357.382 1172.01,352.884 1171.4,351.242 1170.31,348.386 1168.59,343.887 1166.9,339.504 1166.85,339.389 1165.09,334.891 1163.31,330.393 1162.4,328.091 1161.51,325.894 1159.68,321.396 1157.9,317.032 1157.85,316.898 1155.98,312.399 1154.09,307.901 1153.4,306.25 1152.18,303.403 1150.25,298.905 1148.91,295.764 1148.31,294.406 1146.33,289.908 1144.41,285.552 1144.34,285.41 1142.32,280.912 1140.29,276.413 1139.91,275.572 1138.22,271.915 1136.14,267.417 1135.41,265.828 1134.04,262.918 1131.91,258.42 1130.91,256.309 1129.76,253.922 1127.58,249.424 1126.41,247 1125.39,244.925 1123.17,240.427 1121.92,237.89 1120.92,235.929 1118.66,231.431 1117.42,228.968 1116.37,226.932 1114.05,222.434 1112.92,220.226 1111.71,217.936 1109.35,213.438 1108.42,211.656 1106.97,208.939 1104.56,204.441 1103.92,203.252 1102.12,199.943 1099.66,195.444 1099.42,195.007 1097.17,190.946 1094.93,186.907 1094.67,186.448 1092.12,181.95 1090.43,178.946 1089.56,177.451 1086.98,172.953 1085.93,171.128 1084.36,168.455 1081.73,163.957 1081.43,163.449 1079.06,159.458 1076.93,155.89 1076.37,154.96 1073.65,150.462 1072.44,148.451 1070.9,145.963 1068.13,141.465 1067.94,141.141 1065.33,136.967 1063.44,133.929 1062.51,132.469 1059.66,127.97 1058.94,126.83 1056.78,123.472 "/>
<polyline clip-path="url(#clip842)" style="stroke:#dc5039; stroke-linecap:round; stroke-linejoin:round; stroke-width:4; stroke-opacity:1; fill:none" points="793.543,378.506 798.041,377.963 802.539,377.474 807.037,377.038 811.536,376.654 816.034,376.321 820.532,376.04 825.03,375.809 829.529,375.628 834.027,375.497 838.525,375.416 843.023,375.385 847.522,375.403 852.02,375.471 856.518,375.588 861.017,375.755 865.515,375.971 870.013,376.238 874.511,376.554 879.01,376.921 883.508,377.338 888.006,377.807 892.504,378.327 897.003,378.899 901.501,379.523 903.818,379.874 905.999,380.196 910.498,380.916 914.996,381.69 919.494,382.519 923.992,383.402 928.491,384.342 928.624,384.372 932.989,385.324 937.487,386.362 941.985,387.458 946.484,388.614 947.423,388.87 950.982,389.815 955.48,391.073 959.979,392.393 963.139,393.368 964.477,393.771 968.975,395.196 973.473,396.687 976.867,397.867 977.972,398.241 982.47,399.842 986.968,401.514 989.152,402.365 991.466,403.244 995.965,405.031 1000.38,406.863 1000.46,406.897 1004.96,408.804 1009.46,410.795 1010.68,411.361 1013.96,412.839 1018.46,414.958 1020.29,415.86 1022.95,417.141 1027.45,419.398 1029.28,420.358 1031.95,421.721 1036.45,424.123 1037.76,424.856 1040.95,426.59 1045.45,429.148 1045.79,429.354 1049.94,431.761 1053.39,433.853 1054.44,434.472 1058.94,437.253 1060.64,438.351 1063.44,440.117 1067.58,442.849 1067.94,443.081 1072.44,446.111 1074.19,447.348 1076.93,449.238 1080.55,451.846 1081.43,452.468 1085.93,455.786 1086.65,456.344 1090.43,459.193 1092.51,460.842 1094.93,462.709 1098.17,465.341 1099.42,466.336 1103.63,469.839 1103.92,470.076 1108.42,473.918 1108.89,474.337 1112.92,477.872 1113.96,478.835 1117.42,481.952 1118.87,483.334 1121.92,486.16 1123.62,487.832 1126.41,490.502 1128.23,492.33 1130.91,494.985 1132.68,496.829 1135.41,499.613 1137,501.327 1139.91,504.397 1141.19,505.825 1144.41,509.345 1145.25,510.323 1148.91,514.469 1149.2,514.822 1153.02,519.32 1153.4,519.764 1156.72,523.818 1157.9,525.242 1160.31,528.316 1162.4,530.936 1163.81,532.815 1166.9,536.872 1167.22,537.313 1170.5,541.811 1171.4,543.021 1173.69,546.309 1175.9,549.443 1176.8,550.808 1179.81,555.306 1180.39,556.162 1182.72,559.804 1184.89,563.197 1185.56,564.303 1188.29,568.801 1189.39,570.599 1190.94,573.299 1193.51,577.797 1193.89,578.454 1195.97,582.296 1198.37,586.794 1198.39,586.828 1200.64,591.292 1202.86,595.79 1202.89,595.835 1204.96,600.289 1206.98,604.787 1207.38,605.68 1208.89,609.285 1210.72,613.784 1211.88,616.734 1212.45,618.282 1214.07,622.78 1215.61,627.278 1216.38,629.608 1217.05,631.777 1218.39,636.275 1219.65,640.773 1220.83,645.271 1220.88,645.442 1221.92,649.77 1222.94,654.268 1223.88,658.766 1224.77,663.265 1225.38,666.572 1225.59,667.763 1226.34,672.261 1227.04,676.759 1227.68,681.258 1228.28,685.756 1228.84,690.254 1229.35,694.752 1229.81,699.251 1229.87,699.89 1230.24,703.749 1230.62,708.247 1230.97,712.745 1231.28,717.244 1231.56,721.742 1231.8,726.24 1232.02,730.739 1232.2,735.237 1232.35,739.735 1232.47,744.233 1232.56,748.732 1232.62,753.23 1232.66,757.728 1232.66,762.226 1232.64,766.725 1232.58,771.223 1232.5,775.721 1232.39,780.22 1232.25,784.718 1232.09,789.216 1231.89,793.714 1231.66,798.213 1231.41,802.711 1231.12,807.209 1230.81,811.707 1230.46,816.206 1230.09,820.704 1229.87,823.084 1229.68,825.202 1229.24,829.7 1228.76,834.199 1228.26,838.697 1227.72,843.195 1227.14,847.694 1226.54,852.192 1225.9,856.69 1225.38,860.212 1225.23,861.188 1224.51,865.687 1223.76,870.185 1222.98,874.683 1222.17,879.181 1221.32,883.68 1220.88,885.967 1220.43,888.178 1219.5,892.676 1218.54,897.175 1217.55,901.673 1216.53,906.171 1216.38,906.838 1215.46,910.669 1214.36,915.168 1213.22,919.666 1212.07,924.164 1211.88,924.886 1210.85,928.662 1209.61,933.161 1208.34,937.659 1207.38,941.027 1207.04,942.157 1205.68,946.655 1204.31,951.154 1202.9,955.652 1202.89,955.714 1201.43,960.15 1199.94,964.649 1198.42,969.147 1198.39,969.242 1196.82,973.645 1195.2,978.143 1193.89,981.759 1193.55,982.642 1191.82,987.14 1190.06,991.638 1189.39,993.352 1188.23,996.136 1186.35,1000.63 1184.89,1004.1 1184.43,1005.13 1182.41,1009.63 1180.39,1014.06 1180.36,1014.13 1178.2,1018.63 1176,1023.13 1175.9,1023.33 1173.67,1027.62 1171.4,1031.95 1171.3,1032.12 1168.8,1036.62 1166.9,1039.99 1166.23,1041.12 1163.53,1045.62 1162.4,1047.5 1160.73,1050.12 1157.9,1054.51 1157.83,1054.61 1154.77,1059.11 1153.4,1061.11 1151.59,1063.61 1148.91,1067.3 1148.28,1068.11 1144.82,1072.61 1144.41,1073.14 1141.18,1077.11 1139.91,1078.66 1137.37,1081.6 1135.41,1083.88 1133.39,1086.1 1130.91,1088.83 1129.22,1090.6 1126.41,1093.54 1124.84,1095.1 1121.92,1098.02 1120.24,1099.6 1117.42,1102.29 1115.41,1104.09 1112.92,1106.37 1110.34,1108.59 1108.42,1110.26 1105,1113.09 1103.92,1113.99 1099.42,1117.56 1099.39,1117.59 1094.93,1121 1093.43,1122.09 1090.43,1124.3 1087.17,1126.59 1085.93,1127.47 1081.43,1130.52 1080.55,1131.08 1076.93,1133.46 1073.54,1135.58 1072.44,1136.29 1067.94,1139.02 1066.1,1140.08 1063.44,1141.66 1058.94,1144.19 1058.22,1144.58 1054.44,1146.66 1049.94,1149.02 1049.83,1149.08 1045.45,1151.33 1040.95,1153.53 1040.86,1153.58 1036.45,1155.69 1031.95,1157.75 1031.22,1158.07 1027.45,1159.77 1022.95,1161.7 1020.83,1162.57 1018.46,1163.57 1013.96,1165.39 1009.6,1167.07 1009.46,1167.13 1004.96,1168.83 1000.46,1170.45 997.245,1171.57 995.965,1172.02 991.466,1173.55 986.968,1175.01 983.548,1176.07 982.47,1176.41 977.972,1177.77 973.473,1179.07 968.975,1180.31 968.008,1180.57 964.477,1181.51 959.979,1182.66 955.48,1183.76 950.982,1184.79 949.747,1185.06 946.484,1185.79 941.985,1186.74 937.487,1187.64 932.989,1188.48 928.491,1189.28 926.759,1189.56 923.992,1190.03 919.494,1190.73 914.996,1191.39 910.498,1192 905.999,1192.55 901.501,1193.06 897.003,1193.52 892.504,1193.94 890.991,1194.06 888.006,1194.31 883.508,1194.63 879.01,1194.9 874.511,1195.13 870.013,1195.31 865.515,1195.44 861.017,1195.53 856.518,1195.56 852.02,1195.55 847.522,1195.49 843.023,1195.38 838.525,1195.23 834.027,1195.02 829.529,1194.77 825.03,1194.47 820.532,1194.12 819.856,1194.06 816.034,1193.72 811.536,1193.28 807.037,1192.79 802.539,1192.25 798.041,1191.66 793.543,1191.03 "/>
<polyline clip-path="url(#clip842)" style="stroke:#ed6825; stroke-linecap:round; stroke-linejoin:round; stroke-width:4; stroke-opacity:1; fill:none" points="793.543,894.242 795.101,897.175 797.621,901.673 798.041,902.39 800.258,906.171 802.539,909.867 803.036,910.669 805.943,915.168 807.037,916.787 808.993,919.666 811.536,923.24 812.197,924.164 815.554,928.662 816.034,929.281 819.071,933.161 820.532,934.952 822.762,937.659 825.03,940.304 826.638,942.157 829.529,945.364 830.708,946.655 834.027,950.158 834.984,951.154 838.525,954.708 839.481,955.652 843.023,959.032 844.217,960.15 847.522,963.147 849.212,964.649 852.02,967.067 854.489,969.147 856.518,970.805 860.079,973.645 861.017,974.372 865.515,977.774 866.014,978.143 870.013,981.021 872.335,982.642 874.511,984.123 879.01,987.083 879.098,987.14 883.508,989.909 886.368,991.638 888.006,992.607 892.504,995.18 894.237,996.136 897.003,997.633 901.501,999.97 902.826,1000.63 905.999,1002.2 910.498,1004.31 912.315,1005.13 914.996,1006.32 919.494,1008.23 922.969,1009.63 923.992,1010.04 928.491,1011.75 932.989,1013.36 935.261,1014.13 937.487,1014.88 941.985,1016.3 946.484,1017.63 950.09,1018.63 950.982,1018.87 955.48,1020.03 959.979,1021.09 964.477,1022.06 968.975,1022.95 969.981,1023.13 973.473,1023.75 977.972,1024.46 982.47,1025.09 986.968,1025.62 991.466,1026.07 995.965,1026.43 1000.46,1026.7 1004.96,1026.87 1009.46,1026.96 1013.96,1026.96 1018.46,1026.86 1022.95,1026.66 1027.45,1026.37 1031.95,1025.97 1036.45,1025.48 1040.95,1024.87 1045.45,1024.16 1049.94,1023.33 1050.9,1023.13 1054.44,1022.4 1058.94,1021.35 1063.44,1020.17 1067.94,1018.86 1068.66,1018.63 1072.44,1017.44 1076.93,1015.88 1081.43,1014.16 1081.51,1014.13 1085.93,1012.33 1090.43,1010.33 1091.87,1009.63 1094.93,1008.19 1099.42,1005.87 1100.75,1005.13 1103.92,1003.4 1108.42,1000.74 1108.58,1000.63 1112.92,997.924 1115.55,996.136 1117.42,994.902 1121.92,991.668 1121.95,991.638 1126.41,988.259 1127.77,987.14 1130.91,984.624 1133.19,982.642 1135.41,980.756 1138.24,978.143 1139.91,976.644 1142.97,973.645 1144.41,972.278 1147.42,969.147 1148.91,967.641 1151.62,964.649 1153.4,962.715 1155.58,960.15 1157.9,957.471 1159.35,955.652 1162.4,951.876 1162.94,951.154 1166.33,946.655 1166.9,945.917 1169.55,942.157 1171.4,939.554 1172.64,937.659 1175.59,933.161 1175.9,932.698 1178.37,928.662 1180.39,925.336 1181.05,924.164 1183.59,919.666 1184.89,917.352 1186.03,915.168 1188.35,910.669 1189.39,908.631 1190.56,906.171 1192.67,901.673 1193.89,899.019 1194.68,897.175 1196.59,892.676 1198.39,888.271 1198.42,888.178 1200.14,883.68 1201.78,879.181 1202.89,876.071 1203.35,874.683 1204.82,870.185 1206.22,865.687 1207.38,861.775 1207.55,861.188 1208.79,856.69 1209.96,852.192 1211.07,847.694 1211.88,844.231 1212.11,843.195 1213.08,838.697 1213.98,834.199 1214.83,829.7 1215.61,825.202 1216.34,820.704 1216.38,820.446 1217,816.206 1217.61,811.707 1218.16,807.209 1218.66,802.711 1219.1,798.213 1219.5,793.714 1219.84,789.216 1220.13,784.718 1220.37,780.22 1220.56,775.721 1220.7,771.223 1220.79,766.725 1220.83,762.226 1220.82,757.728 1220.76,753.23 1220.64,748.732 1220.48,744.233 1220.27,739.735 1220,735.237 1219.68,730.739 1219.3,726.24 1218.87,721.742 1218.38,717.244 1217.82,712.745 1217.21,708.247 1216.53,703.749 1216.38,702.852 1215.77,699.251 1214.93,694.752 1214.02,690.254 1213.03,685.756 1211.96,681.258 1211.88,680.949 1210.77,676.759 1209.49,672.261 1208.1,667.763 1207.38,665.551 1206.59,663.265 1204.94,658.766 1203.17,654.268 1202.89,653.558 1201.22,649.77 1199.13,645.271 1198.39,643.73 1196.84,640.773 1194.38,636.275 1193.89,635.406 1191.67,631.777 1189.39,628.168 1188.78,627.278 1185.63,622.78 1184.89,621.746 1182.21,618.282 1180.39,615.949 1178.55,613.784 1175.9,610.662 1174.62,609.285 1171.4,605.784 1170.4,604.787 1166.9,601.244 1165.87,600.289 1162.4,596.993 1161.02,595.79 1157.9,592.998 1155.83,591.292 1153.4,589.235 1150.28,586.794 1148.91,585.686 1144.41,582.338 1144.35,582.296 1139.91,579.127 1137.89,577.797 1135.41,576.097 1131,573.299 1130.91,573.243 1126.41,570.491 1123.43,568.801 1121.92,567.906 1117.42,565.441 1115.18,564.303 1112.92,563.104 1108.42,560.891 1106.04,559.804 1103.92,558.794 1099.42,556.805 1095.77,555.306 1094.93,554.943 1090.43,553.163 1085.93,551.509 1083.86,550.808 1081.43,549.947 1076.93,548.48 1072.44,547.125 1069.48,546.309 1067.94,545.863 1063.44,544.683 1058.94,543.604 1054.44,542.624 1050.31,541.811 1049.94,541.736 1045.45,540.922 1040.95,540.2 1036.45,539.57 1031.95,539.028 1027.45,538.573 1022.95,538.205 1018.46,537.922 1013.96,537.724 1009.46,537.61 1004.96,537.58 1000.46,537.635 995.965,537.773 991.466,537.996 986.968,538.304 982.47,538.697 977.972,539.177 973.473,539.744 968.975,540.399 964.477,541.143 960.861,541.811 959.979,541.976 955.48,542.891 950.982,543.9 946.484,545.002 941.985,546.2 941.598,546.309 937.487,547.485 932.989,548.869 928.491,550.353 927.182,550.808 923.992,551.934 919.494,553.616 915.243,555.306 914.996,555.406 910.498,557.297 905.999,559.302 904.913,559.804 901.501,561.416 897.003,563.647 895.727,564.303 892.504,565.997 888.006,568.47 887.422,568.801 883.508,571.071 879.824,573.299 879.01,573.805 874.511,576.676 872.81,577.797 870.013,579.692 866.294,582.296 865.515,582.857 861.017,586.182 860.207,586.794 856.518,589.674 854.497,591.292 852.02,593.341 849.125,595.79 847.522,597.194 844.058,600.289 843.023,601.246 839.266,604.787 838.525,605.511 834.725,609.285 834.027,610.005 830.416,613.784 829.529,614.749 826.322,618.282 825.03,619.764 822.43,622.78 820.532,625.076 818.727,627.278 816.034,630.712 815.205,631.777 811.85,636.275 811.536,636.715 808.646,640.773 807.037,643.144 805.599,645.271 802.701,649.77 802.539,650.032 799.927,654.268 798.041,657.494 797.297,658.766 794.787,663.265 793.543,665.614 "/>
<polyline clip-path="url(#clip842)" style="stroke:#ae305b; stroke-linecap:round; stroke-linejoin:round; stroke-width:4; stroke-opacity:1; fill:none" points="1443.45,123.472 1441.29,126.83 1440.58,127.97 1437.73,132.469 1436.8,133.929 1434.9,136.967 1432.3,141.141 1432.1,141.465 1429.33,145.963 1427.8,148.451 1426.59,150.462 1423.87,154.96 1423.3,155.89 1421.18,159.458 1418.8,163.449 1418.51,163.957 1415.87,168.455 1414.3,171.128 1413.26,172.953 1410.67,177.451 1409.81,178.946 1408.11,181.95 1405.57,186.448 1405.31,186.907 1403.06,190.946 1400.81,195.007 1400.57,195.444 1398.12,199.943 1396.31,203.252 1395.68,204.441 1393.27,208.939 1391.81,211.656 1390.88,213.438 1388.52,217.936 1387.31,220.226 1386.18,222.434 1383.87,226.932 1382.82,228.968 1381.58,231.431 1379.31,235.929 1378.32,237.89 1377.07,240.427 1374.85,244.925 1373.82,247 1372.65,249.424 1370.48,253.922 1369.32,256.309 1368.33,258.42 1366.2,262.918 1364.82,265.828 1364.09,267.417 1362.01,271.915 1360.32,275.572 1359.95,276.413 1357.91,280.912 1355.89,285.41 1355.83,285.552 1353.9,289.908 1351.93,294.406 1351.33,295.764 1349.98,298.905 1348.05,303.403 1346.83,306.25 1346.14,307.901 1344.26,312.399 1342.39,316.898 1342.33,317.032 1340.55,321.396 1338.73,325.894 1337.83,328.091 1336.92,330.393 1335.15,334.891 1333.38,339.389 1333.33,339.504 1331.65,343.887 1329.93,348.386 1328.84,351.242 1328.23,352.884 1326.55,357.382 1324.89,361.88 1324.34,363.375 1323.26,366.379 1321.64,370.877 1320.04,375.375 1319.84,375.933 1318.47,379.874 1316.91,384.372 1315.37,388.87 1315.34,388.947 1313.86,393.368 1312.36,397.867 1310.88,402.365 1310.84,402.459 1309.42,406.863 1307.98,411.361 1306.56,415.86 1306.35,416.526 1305.16,420.358 1303.78,424.856 1302.42,429.354 1301.85,431.222 1301.07,433.853 1299.75,438.351 1298.45,442.849 1297.35,446.654 1297.16,447.348 1295.89,451.846 1294.64,456.344 1293.41,460.842 1292.85,462.887 1292.2,465.341 1291.01,469.839 1289.84,474.337 1288.68,478.835 1288.35,480.094 1287.54,483.334 1286.43,487.832 1285.33,492.33 1284.24,496.829 1283.85,498.434 1283.18,501.327 1282.14,505.825 1281.11,510.323 1280.1,514.822 1279.36,518.166 1279.11,519.32 1278.14,523.818 1277.19,528.316 1276.25,532.815 1275.33,537.313 1274.86,539.635 1274.43,541.811 1273.55,546.309 1272.69,550.808 1271.85,555.306 1271.03,559.804 1270.36,563.488 1270.22,564.303 1269.44,568.801 1268.68,573.299 1267.93,577.797 1267.21,582.296 1266.51,586.794 1265.86,591.065 1265.83,591.292 1265.18,595.79 1264.55,600.289 1263.94,604.787 1263.37,609.285 1262.81,613.784 1262.29,618.282 1261.79,622.78 1261.36,626.815 1261.32,627.278 1260.87,631.777 1260.46,636.275 1260.07,640.773 1259.7,645.271 1259.36,649.77 1259.04,654.268 1258.74,658.766 1258.46,663.265 1258.2,667.763 1257.96,672.261 1257.73,676.759 1257.52,681.258 1257.33,685.756 1257.15,690.254 1256.99,694.752 1256.86,698.465 1256.84,699.251 1256.7,703.749 1256.58,708.247 1256.46,712.745 1256.36,717.244 1256.27,721.742 1256.19,726.24 1256.12,730.739 1256.06,735.237 1256.02,739.735 1255.98,744.233 1255.95,748.732 1255.93,753.23 1255.92,757.728 1255.92,762.226 1255.92,766.725 1255.94,771.223 1255.97,775.721 1256,780.22 1256.05,784.718 1256.1,789.216 1256.17,793.714 1256.24,798.213 1256.32,802.711 1256.42,807.209 1256.52,811.707 1256.63,816.206 1256.75,820.704 1256.86,824.513 1256.88,825.202 1257.03,829.7 1257.18,834.199 1257.34,838.697 1257.51,843.195 1257.7,847.694 1257.89,852.192 1258.1,856.69 1258.31,861.188 1258.53,865.687 1258.77,870.185 1259.01,874.683 1259.27,879.181 1259.53,883.68 1259.81,888.178 1260.09,892.676 1260.39,897.175 1260.69,901.673 1261,906.171 1261.33,910.669 1261.36,911.159 1261.66,915.168 1262.01,919.666 1262.36,924.164 1262.72,928.662 1263.1,933.161 1263.48,937.659 1263.87,942.157 1264.27,946.655 1264.68,951.154 1265.11,955.652 1265.54,960.15 1265.86,963.439 1265.98,964.649 1266.44,969.147 1266.92,973.645 1267.4,978.143 1267.9,982.642 1268.41,987.14 1268.93,991.638 1269.47,996.136 1270.03,1000.63 1270.36,1003.27 1270.6,1005.13 1271.2,1009.63 1271.81,1014.13 1272.44,1018.63 1273.08,1023.13 1273.75,1027.62 1274.44,1032.12 1274.86,1034.82 1275.15,1036.62 1275.88,1041.12 1276.64,1045.62 1277.41,1050.12 1278.21,1054.61 1279.03,1059.11 1279.36,1060.86 1279.88,1063.61 1280.76,1068.11 1281.65,1072.61 1282.57,1077.11 1283.52,1081.6 1283.85,1083.2 1284.49,1086.1 1285.49,1090.6 1286.51,1095.1 1287.56,1099.6 1288.35,1102.98 1288.63,1104.09 1289.73,1108.59 1290.85,1113.09 1291.99,1117.59 1292.85,1120.91 1293.17,1122.09 1294.37,1126.59 1295.59,1131.08 1296.83,1135.58 1297.35,1137.45 1298.1,1140.08 1299.4,1144.58 1300.72,1149.08 1301.85,1152.88 1302.06,1153.58 1303.43,1158.07 1304.82,1162.57 1306.23,1167.07 1306.35,1167.43 1307.68,1171.57 1309.14,1176.07 1310.62,1180.57 1310.84,1181.26 1312.13,1185.06 1313.66,1189.56 1315.21,1194.06 1315.34,1194.45 1316.79,1198.56 1318.39,1203.06 1319.84,1207.11 1320,1207.56 1321.65,1212.05 1323.32,1216.55 1324.34,1219.31 1325,1221.05 1326.72,1225.55 1328.44,1230.05 1328.84,1231.07 1330.2,1234.54 1331.98,1239.04 1333.33,1242.47 1333.77,1243.54 1335.6,1248.04 1337.44,1252.54 1337.83,1253.52 1339.3,1257.04 1341.19,1261.53 1342.33,1264.26 1343.1,1266.03 1345.03,1270.53 1346.83,1274.7 1346.98,1275.03 1348.96,1279.53 1350.95,1284.03 1351.33,1284.89 1352.97,1288.52 1355.01,1293.02 1355.83,1294.84 1357.07,1297.52 1359.15,1302.02 1360.32,1304.55 1361.26,1306.52 1363.39,1311.02 1364.82,1314.04 1365.54,1315.51 1367.71,1320.01 1369.32,1323.34 1369.9,1324.51 1372.13,1329.01 1373.82,1332.44 1374.36,1333.51 1376.63,1338 1378.32,1341.36 1378.91,1342.5 1381.22,1347 1382.82,1350.11 1383.55,1351.5 1385.9,1356 1387.31,1358.7 1388.28,1360.5 1390.68,1364.99 1391.81,1367.13 1393.1,1369.49 1395.54,1373.99 1396.31,1375.41 1398.02,1378.49 1400.5,1382.99 1400.81,1383.54 1403.03,1387.49 1405.31,1391.54 1405.56,1391.98 1408.13,1396.48 1409.81,1399.41 1410.72,1400.98 1413.34,1405.48 1414.3,1407.15 1415.98,1409.98 1418.64,1414.48 1418.8,1414.75 1421.34,1418.97 1423.3,1422.24 1424.06,1423.47 1426.81,1427.97 1427.8,1429.6 1429.59,1432.47 1432.3,1436.83 1432.38,1436.97 1435.22,1441.47 1436.8,1443.96 1438.08,1445.96 1440.97,1450.46 1441.29,1450.97 1443.9,1454.96 1445.79,1457.86 1446.85,1459.46 1449.84,1463.96 1450.29,1464.64 1452.86,1468.45 1454.79,1471.32 1455.91,1472.95 1458.99,1477.45 1459.29,1477.88 1462.12,1481.95 1463.78,1484.35 1465.27,1486.45 "/>
<polyline clip-path="url(#clip842)" style="stroke:#932567; stroke-linecap:round; stroke-linejoin:round; stroke-width:4; stroke-opacity:1; fill:none" points="1706.69,1191.03 1702.19,1191.66 1697.69,1192.25 1693.2,1192.79 1688.7,1193.28 1684.2,1193.72 1680.38,1194.06 1679.7,1194.12 1675.2,1194.47 1670.71,1194.77 1666.21,1195.02 1661.71,1195.23 1657.21,1195.38 1652.71,1195.49 1648.21,1195.55 1643.72,1195.56 1639.22,1195.53 1634.72,1195.44 1630.22,1195.31 1625.72,1195.13 1621.22,1194.9 1616.73,1194.63 1612.23,1194.31 1609.24,1194.06 1607.73,1193.94 1603.23,1193.52 1598.73,1193.06 1594.23,1192.55 1589.74,1192 1585.24,1191.39 1580.74,1190.73 1576.24,1190.03 1573.47,1189.56 1571.74,1189.28 1567.24,1188.48 1562.75,1187.64 1558.25,1186.74 1553.75,1185.79 1550.49,1185.06 1549.25,1184.79 1544.75,1183.76 1540.26,1182.66 1535.76,1181.51 1532.23,1180.57 1531.26,1180.31 1526.76,1179.07 1522.26,1177.77 1517.76,1176.41 1516.69,1176.07 1513.27,1175.01 1508.77,1173.55 1504.27,1172.02 1502.99,1171.57 1499.77,1170.45 1495.27,1168.83 1490.77,1167.13 1490.63,1167.07 1486.28,1165.39 1481.78,1163.57 1479.4,1162.57 1477.28,1161.7 1472.78,1159.77 1469.02,1158.07 1468.28,1157.75 1463.78,1155.69 1459.38,1153.58 1459.29,1153.53 1454.79,1151.33 1450.4,1149.08 1450.29,1149.02 1445.79,1146.66 1442.01,1144.58 1441.29,1144.19 1436.8,1141.66 1434.13,1140.08 1432.3,1139.02 1427.8,1136.29 1426.7,1135.58 1423.3,1133.46 1419.68,1131.08 1418.8,1130.52 1414.3,1127.47 1413.07,1126.59 1409.81,1124.3 1406.8,1122.09 1405.31,1121 1400.85,1117.59 1400.81,1117.56 1396.31,1113.99 1395.24,1113.09 1391.81,1110.26 1389.9,1108.59 1387.31,1106.37 1384.82,1104.09 1382.82,1102.29 1379.99,1099.6 1378.32,1098.02 1375.39,1095.1 1373.82,1093.54 1371.02,1090.6 1369.32,1088.83 1366.84,1086.1 1364.82,1083.88 1362.86,1081.6 1360.32,1078.66 1359.06,1077.11 1355.83,1073.14 1355.42,1072.61 1351.95,1068.11 1351.33,1067.3 1348.64,1063.61 1346.83,1061.11 1345.46,1059.11 1342.4,1054.61 1342.33,1054.51 1339.5,1050.12 1337.83,1047.5 1336.7,1045.62 1334.01,1041.12 1333.33,1039.99 1331.44,1036.62 1328.93,1032.12 1328.84,1031.95 1326.56,1027.62 1324.34,1023.33 1324.24,1023.13 1322.04,1018.63 1319.87,1014.13 1319.84,1014.06 1317.82,1009.63 1315.81,1005.13 1315.34,1004.1 1313.88,1000.63 1312,996.136 1310.84,993.352 1310.17,991.638 1308.42,987.14 1306.69,982.642 1306.35,981.759 1305.03,978.143 1303.41,973.645 1301.85,969.242 1301.82,969.147 1300.3,964.649 1298.8,960.15 1297.35,955.714 1297.33,955.652 1295.93,951.154 1294.55,946.655 1293.19,942.157 1292.85,941.027 1291.89,937.659 1290.62,933.161 1289.38,928.662 1288.35,924.886 1288.17,924.164 1287.01,919.666 1285.88,915.168 1284.77,910.669 1283.85,906.838 1283.7,906.171 1282.68,901.673 1281.69,897.175 1280.73,892.676 1279.8,888.178 1279.36,885.967 1278.92,883.68 1278.07,879.181 1277.25,874.683 1276.47,870.185 1275.72,865.687 1275.01,861.188 1274.86,860.212 1274.34,856.69 1273.7,852.192 1273.09,847.694 1272.52,843.195 1271.98,838.697 1271.47,834.199 1271,829.7 1270.55,825.202 1270.36,823.084 1270.15,820.704 1269.77,816.206 1269.42,811.707 1269.11,807.209 1268.82,802.711 1268.57,798.213 1268.34,793.714 1268.15,789.216 1267.98,784.718 1267.84,780.22 1267.73,775.721 1267.65,771.223 1267.6,766.725 1267.57,762.226 1267.58,757.728 1267.61,753.23 1267.67,748.732 1267.76,744.233 1267.88,739.735 1268.03,735.237 1268.22,730.739 1268.43,726.24 1268.67,721.742 1268.95,717.244 1269.27,712.745 1269.61,708.247 1270,703.749 1270.36,699.89 1270.42,699.251 1270.89,694.752 1271.4,690.254 1271.95,685.756 1272.55,681.258 1273.2,676.759 1273.9,672.261 1274.65,667.763 1274.86,666.572 1275.47,663.265 1276.35,658.766 1277.3,654.268 1278.31,649.77 1279.36,645.442 1279.4,645.271 1280.58,640.773 1281.84,636.275 1283.18,631.777 1283.85,629.608 1284.62,627.278 1286.16,622.78 1287.78,618.282 1288.35,616.734 1289.51,613.784 1291.34,609.285 1292.85,605.68 1293.25,604.787 1295.28,600.289 1297.35,595.835 1297.37,595.79 1299.59,591.292 1301.85,586.828 1301.87,586.794 1304.27,582.296 1306.35,578.454 1306.73,577.797 1309.3,573.299 1310.84,570.599 1311.94,568.801 1314.68,564.303 1315.34,563.197 1317.51,559.804 1319.84,556.162 1320.42,555.306 1323.43,550.808 1324.34,549.443 1326.54,546.309 1328.84,543.021 1329.73,541.811 1333.02,537.313 1333.33,536.872 1336.42,532.815 1337.83,530.936 1339.92,528.316 1342.33,525.242 1343.52,523.818 1346.83,519.764 1347.21,519.32 1351.03,514.822 1351.33,514.469 1354.98,510.323 1355.83,509.345 1359.04,505.825 1360.32,504.397 1363.23,501.327 1364.82,499.613 1367.55,496.829 1369.32,494.985 1372.01,492.33 1373.82,490.502 1376.61,487.832 1378.32,486.16 1381.36,483.334 1382.82,481.952 1386.27,478.835 1387.31,477.872 1391.34,474.337 1391.81,473.918 1396.31,470.076 1396.6,469.839 1400.81,466.336 1402.07,465.341 1405.31,462.709 1407.72,460.842 1409.81,459.193 1413.58,456.344 1414.3,455.786 1418.8,452.468 1419.69,451.846 1423.3,449.238 1426.05,447.348 1427.8,446.111 1432.3,443.081 1432.66,442.849 1436.8,440.117 1439.59,438.351 1441.29,437.253 1445.79,434.472 1446.84,433.853 1450.29,431.761 1454.44,429.354 1454.79,429.148 1459.29,426.59 1462.47,424.856 1463.78,424.123 1468.28,421.721 1470.95,420.358 1472.78,419.398 1477.28,417.141 1479.95,415.86 1481.78,414.958 1486.28,412.839 1489.55,411.361 1490.77,410.795 1495.27,408.804 1499.77,406.897 1499.86,406.863 1504.27,405.031 1508.77,403.244 1511.08,402.365 1513.27,401.514 1517.76,399.842 1522.26,398.241 1523.37,397.867 1526.76,396.687 1531.26,395.196 1535.76,393.771 1537.09,393.368 1540.26,392.393 1544.75,391.073 1549.25,389.815 1552.81,388.87 1553.75,388.614 1558.25,387.458 1562.75,386.362 1567.24,385.324 1571.61,384.372 1571.74,384.342 1576.24,383.402 1580.74,382.519 1585.24,381.69 1589.74,380.916 1594.23,380.196 1596.42,379.874 1598.73,379.523 1603.23,378.899 1607.73,378.327 1612.23,377.807 1616.73,377.338 1621.22,376.921 1625.72,376.554 1630.22,376.238 1634.72,375.971 1639.22,375.755 1643.72,375.588 1648.21,375.471 1652.71,375.403 1657.21,375.385 1661.71,375.416 1666.21,375.497 1670.71,375.628 1675.2,375.809 1679.7,376.04 1684.2,376.321 1688.7,376.654 1693.2,377.038 1697.69,377.474 1702.19,377.963 1706.69,378.506 "/>
<polyline clip-path="url(#clip842)" style="stroke:#781c6d; stroke-linecap:round; stroke-linejoin:round; stroke-width:4; stroke-opacity:1; fill:none" points="1706.69,665.614 1705.45,663.265 1702.94,658.766 1702.19,657.494 1700.31,654.268 1697.69,650.032 1697.53,649.77 1694.64,645.271 1693.2,643.144 1691.59,640.773 1688.7,636.715 1688.38,636.275 1685.03,631.777 1684.2,630.712 1681.51,627.278 1679.7,625.076 1677.8,622.78 1675.2,619.764 1673.91,618.282 1670.71,614.749 1669.82,613.784 1666.21,610.005 1665.51,609.285 1661.71,605.511 1660.97,604.787 1657.21,601.246 1656.18,600.289 1652.71,597.194 1651.11,595.79 1648.21,593.341 1645.74,591.292 1643.72,589.674 1640.03,586.794 1639.22,586.182 1634.72,582.857 1633.94,582.296 1630.22,579.692 1627.42,577.797 1625.72,576.676 1621.22,573.805 1620.41,573.299 1616.73,571.071 1612.81,568.801 1612.23,568.47 1607.73,565.997 1604.51,564.303 1603.23,563.647 1598.73,561.416 1595.32,559.804 1594.23,559.302 1589.74,557.297 1585.24,555.406 1584.99,555.306 1580.74,553.616 1576.24,551.934 1573.05,550.808 1571.74,550.353 1567.24,548.869 1562.75,547.485 1558.64,546.309 1558.25,546.2 1553.75,545.002 1549.25,543.9 1544.75,542.891 1540.26,541.976 1539.37,541.811 1535.76,541.143 1531.26,540.399 1526.76,539.744 1522.26,539.177 1517.76,538.697 1513.27,538.304 1508.77,537.996 1504.27,537.773 1499.77,537.635 1495.27,537.58 1490.77,537.61 1486.28,537.724 1481.78,537.922 1477.28,538.205 1472.78,538.573 1468.28,539.028 1463.78,539.57 1459.29,540.2 1454.79,540.922 1450.29,541.736 1449.92,541.811 1445.79,542.624 1441.29,543.604 1436.8,544.683 1432.3,545.863 1430.75,546.309 1427.8,547.125 1423.3,548.48 1418.8,549.947 1416.37,550.808 1414.3,551.509 1409.81,553.163 1405.31,554.943 1404.46,555.306 1400.81,556.805 1396.31,558.794 1394.19,559.804 1391.81,560.891 1387.31,563.104 1385.05,564.303 1382.82,565.441 1378.32,567.906 1376.8,568.801 1373.82,570.491 1369.32,573.243 1369.24,573.299 1364.82,576.097 1362.34,577.797 1360.32,579.127 1355.89,582.296 1355.83,582.338 1351.33,585.686 1349.96,586.794 1346.83,589.235 1344.4,591.292 1342.33,592.998 1339.21,595.79 1337.83,596.993 1334.36,600.289 1333.33,601.244 1329.84,604.787 1328.84,605.784 1325.62,609.285 1324.34,610.662 1321.68,613.784 1319.84,615.949 1318.02,618.282 1315.34,621.746 1314.61,622.78 1311.46,627.278 1310.84,628.168 1308.56,631.777 1306.35,635.406 1305.86,636.275 1303.39,640.773 1301.85,643.73 1301.1,645.271 1299.01,649.77 1297.35,653.558 1297.06,654.268 1295.29,658.766 1293.64,663.265 1292.85,665.551 1292.13,667.763 1290.75,672.261 1289.46,676.759 1288.35,680.949 1288.27,681.258 1287.2,685.756 1286.21,690.254 1285.3,694.752 1284.47,699.251 1283.85,702.852 1283.71,703.749 1283.03,708.247 1282.41,712.745 1281.86,717.244 1281.37,721.742 1280.93,726.24 1280.56,730.739 1280.23,735.237 1279.97,739.735 1279.75,744.233 1279.59,748.732 1279.48,753.23 1279.42,757.728 1279.41,762.226 1279.45,766.725 1279.54,771.223 1279.68,775.721 1279.87,780.22 1280.11,784.718 1280.4,789.216 1280.74,793.714 1281.13,798.213 1281.58,802.711 1282.07,807.209 1282.63,811.707 1283.23,816.206 1283.85,820.446 1283.89,820.704 1284.62,825.202 1285.41,829.7 1286.25,834.199 1287.16,838.697 1288.12,843.195 1288.35,844.231 1289.16,847.694 1290.27,852.192 1291.45,856.69 1292.69,861.188 1292.85,861.775 1294.02,865.687 1295.42,870.185 1296.89,874.683 1297.35,876.071 1298.45,879.181 1300.1,883.68 1301.81,888.178 1301.85,888.271 1303.65,892.676 1305.55,897.175 1306.35,899.019 1307.57,901.673 1309.67,906.171 1310.84,908.631 1311.89,910.669 1314.21,915.168 1315.34,917.352 1316.64,919.666 1319.18,924.164 1319.84,925.336 1321.86,928.662 1324.34,932.698 1324.65,933.161 1327.6,937.659 1328.84,939.554 1330.68,942.157 1333.33,945.917 1333.9,946.655 1337.3,951.154 1337.83,951.876 1340.88,955.652 1342.33,957.471 1344.65,960.15 1346.83,962.715 1348.62,964.649 1351.33,967.641 1352.81,969.147 1355.83,972.278 1357.26,973.645 1360.32,976.644 1361.99,978.143 1364.82,980.756 1367.05,982.642 1369.32,984.624 1372.46,987.14 1373.82,988.259 1378.28,991.638 1378.32,991.668 1382.82,994.902 1384.69,996.136 1387.31,997.924 1391.65,1000.63 1391.81,1000.74 1396.31,1003.4 1399.49,1005.13 1400.81,1005.87 1405.31,1008.19 1408.37,1009.63 1409.81,1010.33 1414.3,1012.33 1418.72,1014.13 1418.8,1014.16 1423.3,1015.88 1427.8,1017.44 1431.57,1018.63 1432.3,1018.86 1436.8,1020.17 1441.29,1021.35 1445.79,1022.4 1449.34,1023.13 1450.29,1023.33 1454.79,1024.16 1459.29,1024.87 1463.78,1025.48 1468.28,1025.97 1472.78,1026.37 1477.28,1026.66 1481.78,1026.86 1486.28,1026.96 1490.77,1026.96 1495.27,1026.87 1499.77,1026.7 1504.27,1026.43 1508.77,1026.07 1513.27,1025.62 1517.76,1025.09 1522.26,1024.46 1526.76,1023.75 1530.25,1023.13 1531.26,1022.95 1535.76,1022.06 1540.26,1021.09 1544.75,1020.03 1549.25,1018.87 1550.14,1018.63 1553.75,1017.63 1558.25,1016.3 1562.75,1014.88 1564.97,1014.13 1567.24,1013.36 1571.74,1011.75 1576.24,1010.04 1577.26,1009.63 1580.74,1008.23 1585.24,1006.32 1587.92,1005.13 1589.74,1004.31 1594.23,1002.2 1597.41,1000.63 1598.73,999.97 1603.23,997.633 1606,996.136 1607.73,995.18 1612.23,992.607 1613.87,991.638 1616.73,989.909 1621.14,987.14 1621.22,987.083 1625.72,984.123 1627.9,982.642 1630.22,981.021 1634.22,978.143 1634.72,977.774 1639.22,974.372 1640.15,973.645 1643.72,970.805 1645.74,969.147 1648.21,967.067 1651.02,964.649 1652.71,963.147 1656.02,960.15 1657.21,959.032 1660.75,955.652 1661.71,954.708 1665.25,951.154 1666.21,950.158 1669.53,946.655 1670.71,945.364 1673.6,942.157 1675.2,940.304 1677.47,937.659 1679.7,934.952 1681.16,933.161 1684.2,929.281 1684.68,928.662 1688.04,924.164 1688.7,923.24 1691.24,919.666 1693.2,916.787 1694.29,915.168 1697.2,910.669 1697.69,909.867 1699.98,906.171 1702.19,902.39 1702.61,901.673 1705.13,897.175 1706.69,894.242 "/>
<polyline clip-path="url(#clip842)" style="stroke:#5d126e; stroke-linecap:round; stroke-linejoin:round; stroke-width:4; stroke-opacity:1; fill:none" points="1595.37,784.718 1595.08,789.216 1594.67,793.714 1594.23,797.322 1594.13,798.213 1593.48,802.711 1592.71,807.209 1591.81,811.707 1590.77,816.206 1589.74,820.188 1589.6,820.704 1588.32,825.202 1586.89,829.7 1585.31,834.199 1585.24,834.39 1583.61,838.697 1581.74,843.195 1580.74,845.431 1579.73,847.694 1577.55,852.192 1576.24,854.707 1575.21,856.69 1572.69,861.188 1571.74,862.764 1569.99,865.687 1567.24,869.927 1567.08,870.185 1563.98,874.683 1562.75,876.355 1560.65,879.181 1558.25,882.213 1557.07,883.68 1553.75,887.584 1553.24,888.178 1549.25,892.529 1549.11,892.676 1544.75,897.1 1544.68,897.175 1540.26,901.338 1539.89,901.673 1535.76,905.277 1534.69,906.171 1531.26,908.943 1529.03,910.669 1526.76,912.36 1522.81,915.168 1522.26,915.543 1517.76,918.508 1515.91,919.666 1513.27,921.267 1508.77,923.83 1508.15,924.164 1504.27,926.212 1499.77,928.41 1499.23,928.662 1495.27,930.446 1490.77,932.312 1488.56,933.161 1486.28,934.02 1481.78,935.577 1477.28,936.975 1474.84,937.659 1472.78,938.229 1468.28,939.342 1463.78,940.307 1459.29,941.127 1454.79,941.802 1451.83,942.157 1450.29,942.341 1445.79,942.744 1441.29,943.005 1436.8,943.123 1432.3,943.097 1427.8,942.925 1423.3,942.604 1419.06,942.157 1418.8,942.131 1414.3,941.521 1409.81,940.752 1405.31,939.819 1400.81,938.711 1397.16,937.659 1396.31,937.425 1391.81,935.988 1387.31,934.346 1384.46,933.161 1382.82,932.505 1378.32,930.475 1374.75,928.662 1373.82,928.204 1369.32,925.728 1366.79,924.164 1364.82,922.991 1360.32,919.98 1359.9,919.666 1355.83,916.71 1353.92,915.168 1351.33,913.117 1348.55,910.669 1346.83,909.179 1343.7,906.171 1342.33,904.866 1339.3,901.673 1337.83,900.134 1335.27,897.175 1333.33,894.927 1331.57,892.676 1328.84,889.166 1328.13,888.178 1324.97,883.68 1324.34,882.772 1322.05,879.181 1319.84,875.617 1319.31,874.683 1316.78,870.185 1315.34,867.527 1314.42,865.687 1312.22,861.188 1310.84,858.233 1310.17,856.69 1308.28,852.192 1306.49,847.694 1306.35,847.317 1304.86,843.195 1303.33,838.697 1301.91,834.199 1301.85,834.007 1300.61,829.7 1299.41,825.202 1298.3,820.704 1297.35,816.516 1297.28,816.206 1296.37,811.707 1295.54,807.209 1294.8,802.711 1294.13,798.213 1293.54,793.714 1293.04,789.216 1292.85,787.292 1292.61,784.718 1292.26,780.22 1291.99,775.721 1291.79,771.223 1291.67,766.725 1291.61,762.226 1291.64,757.728 1291.73,753.23 1291.91,748.732 1292.16,744.233 1292.48,739.735 1292.85,735.653 1292.89,735.237 1293.39,730.739 1293.97,726.24 1294.64,721.742 1295.4,717.244 1296.25,712.745 1297.2,708.247 1297.35,707.615 1298.28,703.749 1299.48,699.251 1300.78,694.752 1301.85,691.368 1302.22,690.254 1303.83,685.756 1305.57,681.258 1306.35,679.386 1307.51,676.759 1309.64,672.261 1310.84,669.863 1311.99,667.763 1314.58,663.265 1315.34,661.999 1317.47,658.766 1319.84,655.349 1320.67,654.268 1324.23,649.77 1324.34,649.633 1328.26,645.271 1328.84,644.646 1332.8,640.773 1333.33,640.259 1337.83,636.368 1337.95,636.275 1342.33,632.875 1343.92,631.777 1346.83,629.737 1350.77,627.278 1351.33,626.922 1355.83,624.349 1358.91,622.78 1360.32,622.033 1364.82,619.917 1368.72,618.282 1369.32,618.021 1373.82,616.277 1378.32,614.726 1381.41,613.784 1382.82,613.336 1387.31,612.082 1391.81,610.986 1396.31,610.039 1400.52,609.285 1400.81,609.231 1405.31,608.537 1409.81,607.978 1414.3,607.55 1418.8,607.249 1423.3,607.073 1427.8,607.021 1432.3,607.091 1436.8,607.284 1441.29,607.599 1445.79,608.039 1450.29,608.603 1454.73,609.285 1454.79,609.295 1459.29,610.101 1463.78,611.037 1468.28,612.108 1472.78,613.315 1474.38,613.784 1477.28,614.651 1481.78,616.125 1486.28,617.747 1487.66,618.282 1490.77,619.512 1495.27,621.43 1498.23,622.78 1499.77,623.507 1504.27,625.746 1507.16,627.278 1508.77,628.158 1513.27,630.75 1514.96,631.777 1517.76,633.532 1521.91,636.275 1522.26,636.514 1526.76,639.713 1528.19,640.773 1531.26,643.143 1533.91,645.271 1535.76,646.82 1539.16,649.77 1540.26,650.766 1544,654.268 1544.75,655.008 1548.49,658.766 1549.25,659.582 1552.65,663.265 1553.75,664.528 1556.53,667.763 1558.25,669.895 1560.14,672.261 1562.75,675.745 1563.5,676.759 1566.64,681.258 1567.24,682.18 1569.58,685.756 1571.74,689.325 1572.31,690.254 1574.86,694.752 1576.24,697.382 1577.23,699.251 1579.43,703.749 1580.74,706.649 1581.47,708.247 1583.36,712.745 1585.08,717.244 1585.24,717.693 1586.68,721.742 1588.13,726.24 1589.43,730.739 1589.74,731.899 1590.62,735.237 1591.67,739.735 1592.59,744.233 1593.38,748.732 1594.05,753.23 1594.23,754.77 1594.6,757.728 1595.03,762.226 1595.34,766.725 1595.53,771.223 1595.6,775.721 1595.54,780.22 1595.37,784.718 "/>
<polyline clip-path="url(#clip842)" style="stroke:#410967; stroke-linecap:round; stroke-linejoin:round; stroke-width:4; stroke-opacity:1; fill:none" points="1517.99,757.728 1518.49,762.226 1518.82,766.725 1519,771.223 1519.01,775.721 1518.87,780.22 1518.56,784.718 1518.09,789.216 1517.76,791.546 1517.47,793.714 1516.68,798.213 1515.73,802.711 1514.6,807.209 1513.27,811.707 1513.27,811.726 1511.79,816.206 1510.11,820.704 1508.77,823.895 1508.22,825.202 1506.14,829.7 1504.27,833.312 1503.81,834.199 1501.26,838.697 1499.77,841.097 1498.45,843.195 1495.36,847.694 1495.27,847.806 1491.97,852.192 1490.77,853.654 1488.23,856.69 1486.28,858.858 1484.11,861.188 1481.78,863.521 1479.53,865.687 1477.28,867.719 1474.42,870.185 1472.78,871.512 1468.64,874.683 1468.28,874.945 1463.78,878.045 1462.01,879.181 1459.29,880.846 1454.79,883.366 1454.18,883.68 1450.29,885.626 1445.79,887.632 1444.44,888.178 1441.29,889.404 1436.8,890.945 1432.3,892.256 1430.6,892.676 1427.8,893.355 1423.3,894.24 1418.8,894.909 1414.3,895.364 1409.81,895.604 1405.31,895.629 1400.81,895.436 1396.31,895.019 1391.81,894.371 1387.31,893.481 1384.16,892.676 1382.82,892.345 1378.32,890.964 1373.82,889.3 1371.26,888.178 1369.32,887.347 1364.82,885.092 1362.39,883.68 1360.32,882.499 1355.83,879.541 1355.34,879.181 1351.33,876.197 1349.53,874.683 1346.83,872.404 1344.5,870.185 1342.33,868.11 1340.08,865.687 1337.83,863.24 1336.14,861.188 1333.33,857.692 1332.61,856.69 1329.43,852.192 1328.84,851.329 1326.57,847.694 1324.34,843.941 1323.93,843.195 1321.57,838.697 1319.84,835.194 1319.39,834.199 1317.43,829.7 1315.61,825.202 1315.34,824.497 1313.99,820.704 1312.52,816.206 1311.17,811.707 1310.84,810.531 1309.98,807.209 1308.92,802.711 1307.98,798.213 1307.15,793.714 1306.43,789.216 1306.35,788.575 1305.84,784.718 1305.37,780.22 1304.99,775.721 1304.73,771.223 1304.56,766.725 1304.51,762.226 1304.56,757.728 1304.71,753.23 1304.97,748.732 1305.35,744.233 1305.83,739.735 1306.35,735.869 1306.43,735.237 1307.18,730.739 1308.04,726.24 1309.04,721.742 1310.17,717.244 1310.84,714.839 1311.47,712.745 1312.95,708.247 1314.59,703.749 1315.34,701.835 1316.45,699.251 1318.53,694.752 1319.84,692.13 1320.87,690.254 1323.5,685.756 1324.34,684.399 1326.5,681.258 1328.84,678.042 1329.88,676.759 1333.33,672.714 1333.77,672.261 1337.83,668.202 1338.34,667.763 1342.33,664.353 1343.8,663.265 1346.83,661.06 1350.49,658.766 1351.33,658.245 1355.83,655.836 1359.29,654.268 1360.32,653.796 1364.82,652.067 1369.32,650.637 1372.69,649.77 1373.82,649.472 1378.32,648.538 1382.82,647.835 1387.31,647.348 1391.81,647.064 1396.31,646.976 1400.81,647.076 1405.31,647.362 1409.81,647.831 1414.3,648.483 1418.8,649.32 1420.82,649.77 1423.3,650.335 1427.8,651.533 1432.3,652.925 1436.12,654.268 1436.8,654.514 1441.29,656.299 1445.79,658.297 1446.77,658.766 1450.29,660.513 1454.79,662.962 1455.31,663.265 1459.29,665.658 1462.53,667.763 1463.78,668.617 1468.28,671.863 1468.81,672.261 1472.78,675.428 1474.37,676.759 1477.28,679.343 1479.35,681.258 1481.78,683.652 1483.85,685.756 1486.28,688.414 1487.92,690.254 1490.77,693.708 1491.62,694.752 1495,699.251 1495.27,699.646 1498.09,703.749 1499.77,706.426 1500.91,708.247 1503.47,712.745 1504.27,714.289 1505.81,717.244 1507.91,721.742 1508.77,723.768 1509.82,726.24 1511.53,730.739 1513.04,735.237 1513.27,736.02 1514.38,739.735 1515.54,744.233 1516.53,748.732 1517.34,753.23 1517.76,756.205 1517.99,757.728 "/>
<polyline clip-path="url(#clip842)" style="stroke:#240b4e; stroke-linecap:round; stroke-linejoin:round; stroke-width:4; stroke-opacity:1; fill:none" points="1468.39,753.23 1469.18,757.728 1469.75,762.226 1470.11,766.725 1470.26,771.223 1470.21,775.721 1469.94,780.22 1469.47,784.718 1468.78,789.216 1468.28,791.678 1467.88,793.714 1466.75,798.213 1465.38,802.711 1463.78,807.127 1463.76,807.209 1461.88,811.707 1459.7,816.206 1459.29,816.97 1457.22,820.704 1454.79,824.567 1454.38,825.202 1451.14,829.7 1450.29,830.772 1447.44,834.199 1445.79,835.997 1443.17,838.697 1441.29,840.471 1438.19,843.195 1436.8,844.328 1432.3,847.661 1432.25,847.694 1427.8,850.513 1424.77,852.192 1423.3,852.959 1418.8,855.015 1414.38,856.69 1414.3,856.717 1409.81,858.069 1405.31,859.092 1400.81,859.793 1396.31,860.173 1391.81,860.233 1387.31,859.969 1382.82,859.374 1378.32,858.436 1373.82,857.138 1372.63,856.69 1369.32,855.46 1364.82,853.374 1362.72,852.192 1360.32,850.842 1355.83,847.819 1355.67,847.694 1351.33,844.236 1350.2,843.195 1346.83,840.008 1345.62,838.697 1342.33,835.012 1341.69,834.199 1338.29,829.7 1337.83,829.058 1335.36,825.202 1333.33,821.838 1332.72,820.704 1330.43,816.206 1328.84,812.799 1328.37,811.707 1326.6,807.209 1325,802.711 1324.34,800.623 1323.63,798.213 1322.46,793.714 1321.45,789.216 1320.6,784.718 1319.91,780.22 1319.84,779.616 1319.41,775.721 1319.05,771.223 1318.85,766.725 1318.79,762.226 1318.89,757.728 1319.14,753.23 1319.54,748.732 1319.84,746.348 1320.12,744.233 1320.89,739.735 1321.83,735.237 1322.95,730.739 1324.26,726.24 1324.34,726.008 1325.87,721.742 1327.69,717.244 1328.84,714.685 1329.8,712.745 1332.27,708.247 1333.33,706.452 1335.15,703.749 1337.83,700.04 1338.49,699.251 1342.33,694.893 1342.48,694.752 1346.83,690.713 1347.41,690.254 1351.33,687.297 1353.79,685.756 1355.83,684.511 1360.32,682.272 1362.9,681.258 1364.82,680.51 1369.32,679.178 1373.82,678.232 1378.32,677.643 1382.82,677.388 1387.31,677.45 1391.81,677.815 1396.31,678.474 1400.81,679.424 1405.31,680.662 1407.1,681.258 1409.81,682.196 1414.3,684.03 1417.96,685.756 1418.8,686.175 1423.3,688.658 1425.9,690.254 1427.8,691.495 1432.3,694.715 1432.35,694.752 1436.8,698.39 1437.78,699.251 1441.29,702.564 1442.49,703.749 1445.79,707.331 1446.6,708.247 1450.24,712.745 1450.29,712.819 1453.46,717.244 1454.79,719.314 1456.32,721.742 1458.84,726.24 1459.29,727.133 1461.08,730.739 1463.03,735.237 1463.78,737.248 1464.73,739.735 1466.18,744.233 1467.4,748.732 1468.28,752.763 1468.39,753.23 "/>
<polyline clip-path="url(#clip842)" style="stroke:#0b0726; stroke-linecap:round; stroke-linejoin:round; stroke-width:4; stroke-opacity:1; fill:none" points="1432.32,762.226 1432.69,766.725 1432.76,771.223 1432.53,775.721 1432.3,777.704 1431.99,780.22 1431.13,784.718 1429.94,789.216 1428.39,793.714 1427.8,795.102 1426.41,798.213 1423.99,802.711 1423.3,803.804 1420.98,807.209 1418.8,809.975 1417.29,811.707 1414.3,814.707 1412.6,816.206 1409.81,818.407 1406.33,820.704 1405.31,821.318 1400.81,823.519 1396.31,825.153 1396.11,825.202 1391.81,826.196 1387.31,826.72 1382.82,826.73 1378.32,826.221 1373.92,825.202 1373.82,825.179 1369.32,823.527 1364.82,821.273 1363.94,820.704 1360.32,818.271 1357.85,816.206 1355.83,814.425 1353.27,811.707 1351.33,809.493 1349.63,807.209 1346.83,803.096 1346.6,802.711 1344.21,798.213 1342.33,794.229 1342.12,793.714 1340.5,789.216 1339.13,784.718 1338.03,780.22 1337.83,779.162 1337.26,775.721 1336.74,771.223 1336.46,766.725 1336.42,762.226 1336.63,757.728 1337.09,753.23 1337.81,748.732 1337.83,748.611 1338.89,744.233 1340.26,739.735 1341.94,735.237 1342.33,734.346 1344.15,730.739 1346.76,726.24 1346.83,726.133 1350.2,721.742 1351.33,720.42 1354.61,717.244 1355.83,716.157 1360.32,712.959 1360.72,712.745 1364.82,710.651 1369.32,709.019 1372.74,708.247 1373.82,708.013 1378.32,707.589 1382.82,707.686 1387.05,708.247 1387.31,708.284 1391.81,709.414 1396.31,711.042 1399.94,712.745 1400.81,713.189 1405.31,715.949 1407.11,717.244 1409.81,719.364 1412.47,721.742 1414.3,723.559 1416.76,726.24 1418.8,728.763 1420.29,730.739 1423.24,735.237 1423.3,735.341 1425.68,739.735 1427.72,744.233 1427.8,744.454 1429.36,748.732 1430.67,753.23 1431.65,757.728 1432.3,762.053 1432.32,762.226 "/>
<polyline clip-path="url(#clip842)" style="stroke:#f7850e; stroke-linecap:round; stroke-linejoin:round; stroke-width:4; stroke-opacity:1; fill:none" points="1207.75,739.735 1208.08,744.233 1208.33,748.732 1208.5,753.23 1208.6,757.728 1208.62,762.226 1208.57,766.725 1208.44,771.223 1208.24,775.721 1207.97,780.22 1207.62,784.718 1207.38,787.292 1207.2,789.216 1206.69,793.714 1206.1,798.213 1205.44,802.711 1204.69,807.209 1203.86,811.707 1202.95,816.206 1202.89,816.516 1201.93,820.704 1200.82,825.202 1199.62,829.7 1198.39,834.007 1198.33,834.199 1196.9,838.697 1195.38,843.195 1193.89,847.317 1193.74,847.694 1191.96,852.192 1190.06,856.69 1189.39,858.233 1188.01,861.188 1185.82,865.687 1184.89,867.527 1183.45,870.185 1180.93,874.683 1180.39,875.617 1178.19,879.181 1175.9,882.772 1175.27,883.68 1172.1,888.178 1171.4,889.166 1168.67,892.676 1166.9,894.927 1164.96,897.175 1162.4,900.134 1160.93,901.673 1157.9,904.866 1156.53,906.171 1153.4,909.179 1151.69,910.669 1148.91,913.117 1146.32,915.168 1144.41,916.71 1140.33,919.666 1139.91,919.98 1135.41,922.991 1133.45,924.164 1130.91,925.728 1126.41,928.204 1125.48,928.662 1121.92,930.475 1117.42,932.505 1115.77,933.161 1112.92,934.346 1108.42,935.988 1103.92,937.425 1103.07,937.659 1099.42,938.711 1094.93,939.819 1090.43,940.752 1085.93,941.521 1081.43,942.131 1081.17,942.157 1076.93,942.604 1072.44,942.925 1067.94,943.097 1063.44,943.123 1058.94,943.005 1054.44,942.744 1049.94,942.341 1048.41,942.157 1045.45,941.802 1040.95,941.127 1036.45,940.307 1031.95,939.342 1027.45,938.229 1025.39,937.659 1022.95,936.975 1018.46,935.577 1013.96,934.02 1011.67,933.161 1009.46,932.312 1004.96,930.446 1001.01,928.662 1000.46,928.41 995.965,926.212 992.082,924.164 991.466,923.83 986.968,921.267 984.322,919.666 982.47,918.508 977.972,915.543 977.423,915.168 973.473,912.36 971.203,910.669 968.975,908.943 965.539,906.171 964.477,905.277 960.345,901.673 959.979,901.338 955.556,897.175 955.48,897.1 951.12,892.676 950.982,892.529 946.998,888.178 946.484,887.584 943.162,883.68 941.985,882.213 939.588,879.181 937.487,876.355 936.258,874.683 933.157,870.185 932.989,869.927 930.248,865.687 928.491,862.764 927.547,861.188 925.026,856.69 923.992,854.707 922.681,852.192 920.506,847.694 919.494,845.431 918.49,843.195 916.625,838.697 914.996,834.39 914.923,834.199 913.342,829.7 911.913,825.202 910.63,820.704 910.498,820.188 909.461,816.206 908.426,811.707 907.524,807.209 906.751,802.711 906.104,798.213 905.999,797.322 905.568,793.714 905.154,789.216 904.861,784.718 904.689,780.22 904.637,775.721 904.706,771.223 904.894,766.725 905.203,762.226 905.634,757.728 905.999,754.77 906.185,753.23 906.849,748.732 907.64,744.233 908.56,739.735 909.615,735.237 910.498,731.899 910.8,730.739 912.103,726.24 913.553,721.742 914.996,717.693 915.154,717.244 916.877,712.745 918.768,708.247 919.494,706.649 920.804,703.749 923.007,699.251 923.992,697.382 925.375,694.752 927.928,690.254 928.491,689.325 930.655,685.756 932.989,682.18 933.593,681.258 936.734,676.759 937.487,675.745 940.097,672.261 941.985,669.895 943.707,667.763 946.484,664.528 947.584,663.265 950.982,659.582 951.749,658.766 955.48,655.008 956.232,654.268 959.979,650.766 961.073,649.77 964.477,646.82 966.32,645.271 968.975,643.143 972.041,640.773 973.473,639.713 977.972,636.514 978.319,636.275 982.47,633.532 985.269,631.777 986.968,630.75 991.466,628.158 993.072,627.278 995.965,625.746 1000.46,623.507 1002.01,622.78 1004.96,621.43 1009.46,619.512 1012.57,618.282 1013.96,617.747 1018.46,616.125 1022.95,614.651 1025.85,613.784 1027.45,613.315 1031.95,612.108 1036.45,611.037 1040.95,610.101 1045.45,609.295 1045.51,609.285 1049.94,608.603 1054.44,608.039 1058.94,607.599 1063.44,607.284 1067.94,607.091 1072.44,607.021 1076.93,607.073 1081.43,607.249 1085.93,607.55 1090.43,607.978 1094.93,608.537 1099.42,609.231 1099.71,609.285 1103.92,610.039 1108.42,610.986 1112.92,612.082 1117.42,613.336 1118.82,613.784 1121.92,614.726 1126.41,616.277 1130.91,618.021 1131.51,618.282 1135.41,619.917 1139.91,622.033 1141.33,622.78 1144.41,624.349 1148.91,626.922 1149.46,627.278 1153.4,629.737 1156.31,631.777 1157.9,632.875 1162.28,636.275 1162.4,636.368 1166.9,640.259 1167.43,640.773 1171.4,644.646 1171.97,645.271 1175.9,649.633 1176.01,649.77 1179.57,654.268 1180.39,655.349 1182.76,658.766 1184.89,661.999 1185.65,663.265 1188.24,667.763 1189.39,669.863 1190.59,672.261 1192.72,676.759 1193.89,679.386 1194.66,681.258 1196.4,685.756 1198.01,690.254 1198.39,691.368 1199.45,694.752 1200.76,699.251 1201.95,703.749 1202.89,707.615 1203.03,708.247 1203.98,712.745 1204.83,717.244 1205.59,721.742 1206.26,726.24 1206.85,730.739 1207.34,735.237 1207.38,735.653 1207.75,739.735 "/>
<polyline clip-path="url(#clip842)" style="stroke:#fba40a; stroke-linecap:round; stroke-linejoin:round; stroke-width:4; stroke-opacity:1; fill:none" points="1194.4,739.735 1194.89,744.233 1195.26,748.732 1195.52,753.23 1195.68,757.728 1195.73,762.226 1195.67,766.725 1195.51,771.223 1195.24,775.721 1194.87,780.22 1194.39,784.718 1193.89,788.575 1193.8,789.216 1193.09,793.714 1192.26,798.213 1191.31,802.711 1190.25,807.209 1189.39,810.531 1189.07,811.707 1187.72,816.206 1186.24,820.704 1184.89,824.497 1184.62,825.202 1182.81,829.7 1180.85,834.199 1180.39,835.194 1178.66,838.697 1176.3,843.195 1175.9,843.941 1173.66,847.694 1171.4,851.329 1170.81,852.192 1167.63,856.69 1166.9,857.692 1164.09,861.188 1162.4,863.24 1160.16,865.687 1157.9,868.11 1155.74,870.185 1153.4,872.404 1150.7,874.683 1148.91,876.197 1144.89,879.181 1144.41,879.541 1139.91,882.499 1137.84,883.68 1135.41,885.092 1130.91,887.347 1128.97,888.178 1126.41,889.3 1121.92,890.964 1117.42,892.345 1116.07,892.676 1112.92,893.481 1108.42,894.371 1103.92,895.019 1099.42,895.436 1094.93,895.629 1090.43,895.604 1085.93,895.364 1081.43,894.909 1076.93,894.24 1072.44,893.355 1069.64,892.676 1067.94,892.256 1063.44,890.945 1058.94,889.404 1055.8,888.178 1054.44,887.632 1049.94,885.626 1046.05,883.68 1045.45,883.366 1040.95,880.846 1038.22,879.181 1036.45,878.045 1031.95,874.945 1031.59,874.683 1027.45,871.512 1025.82,870.185 1022.95,867.719 1020.7,865.687 1018.46,863.521 1016.13,861.188 1013.96,858.858 1012,856.69 1009.46,853.654 1008.26,852.192 1004.96,847.806 1004.88,847.694 1001.78,843.195 1000.46,841.097 998.969,838.697 996.423,834.199 995.965,833.312 994.098,829.7 992.013,825.202 991.466,823.895 990.123,820.704 988.439,816.206 986.968,811.726 986.962,811.707 985.638,807.209 984.504,802.711 983.549,798.213 982.768,793.714 982.47,791.546 982.142,789.216 981.672,784.718 981.366,780.22 981.221,775.721 981.236,771.223 981.41,766.725 981.746,762.226 982.245,757.728 982.47,756.205 982.897,753.23 983.707,748.732 984.69,744.233 985.854,739.735 986.968,736.02 987.199,735.237 988.703,730.739 990.414,726.24 991.466,723.768 992.32,721.742 994.428,717.244 995.965,714.289 996.765,712.745 999.327,708.247 1000.46,706.426 1002.14,703.749 1004.96,699.646 1005.24,699.251 1008.61,694.752 1009.46,693.708 1012.31,690.254 1013.96,688.414 1016.39,685.756 1018.46,683.652 1020.88,681.258 1022.95,679.343 1025.86,676.759 1027.45,675.428 1031.42,672.261 1031.95,671.863 1036.45,668.617 1037.7,667.763 1040.95,665.658 1044.92,663.265 1045.45,662.962 1049.94,660.513 1053.46,658.766 1054.44,658.297 1058.94,656.299 1063.44,654.514 1064.12,654.268 1067.94,652.925 1072.44,651.533 1076.93,650.335 1079.42,649.77 1081.43,649.32 1085.93,648.483 1090.43,647.831 1094.93,647.362 1099.42,647.076 1103.92,646.976 1108.42,647.064 1112.92,647.348 1117.42,647.835 1121.92,648.538 1126.41,649.472 1127.54,649.77 1130.91,650.637 1135.41,652.067 1139.91,653.796 1140.94,654.268 1144.41,655.836 1148.91,658.245 1149.74,658.766 1153.4,661.06 1156.43,663.265 1157.9,664.353 1161.9,667.763 1162.4,668.202 1166.46,672.261 1166.9,672.714 1170.35,676.759 1171.4,678.042 1173.74,681.258 1175.9,684.399 1176.74,685.756 1179.37,690.254 1180.39,692.13 1181.7,694.752 1183.79,699.251 1184.89,701.835 1185.65,703.749 1187.28,708.247 1188.76,712.745 1189.39,714.839 1190.06,717.244 1191.19,721.742 1192.19,726.24 1193.06,730.739 1193.8,735.237 1193.89,735.869 1194.4,739.735 "/>
<polyline clip-path="url(#clip842)" style="stroke:#f9c52c; stroke-linecap:round; stroke-linejoin:round; stroke-width:4; stroke-opacity:1; fill:none" points="1180.69,748.732 1181.09,753.23 1181.34,757.728 1181.44,762.226 1181.39,766.725 1181.18,771.223 1180.83,775.721 1180.39,779.616 1180.32,780.22 1179.63,784.718 1178.78,789.216 1177.77,793.714 1176.6,798.213 1175.9,800.623 1175.23,802.711 1173.64,807.209 1171.86,811.707 1171.4,812.799 1169.8,816.206 1167.51,820.704 1166.9,821.838 1164.88,825.202 1162.4,829.058 1161.94,829.7 1158.54,834.199 1157.9,835.012 1154.62,838.697 1153.4,840.008 1150.03,843.195 1148.91,844.236 1144.57,847.694 1144.41,847.819 1139.91,850.842 1137.52,852.192 1135.41,853.374 1130.91,855.46 1127.61,856.69 1126.41,857.138 1121.92,858.436 1117.42,859.374 1112.92,859.969 1108.42,860.233 1103.92,860.173 1099.42,859.793 1094.93,859.092 1090.43,858.069 1085.93,856.717 1085.86,856.69 1081.43,855.015 1076.93,852.959 1075.47,852.192 1072.44,850.513 1067.98,847.694 1067.94,847.661 1063.44,844.328 1062.05,843.195 1058.94,840.471 1057.06,838.697 1054.44,835.997 1052.8,834.199 1049.94,830.772 1049.09,829.7 1045.86,825.202 1045.45,824.567 1043.02,820.704 1040.95,816.97 1040.53,816.206 1038.35,811.707 1036.48,807.209 1036.45,807.127 1034.85,802.711 1033.48,798.213 1032.36,793.714 1031.95,791.678 1031.45,789.216 1030.76,784.718 1030.29,780.22 1030.03,775.721 1029.97,771.223 1030.13,766.725 1030.49,762.226 1031.06,757.728 1031.85,753.23 1031.95,752.763 1032.83,748.732 1034.05,744.233 1035.51,739.735 1036.45,737.248 1037.21,735.237 1039.15,730.739 1040.95,727.133 1041.39,726.24 1043.91,721.742 1045.45,719.314 1046.77,717.244 1049.94,712.819 1050,712.745 1053.63,708.247 1054.44,707.331 1057.75,703.749 1058.94,702.564 1062.45,699.251 1063.44,698.39 1067.89,694.752 1067.94,694.715 1072.44,691.495 1074.34,690.254 1076.93,688.658 1081.43,686.175 1082.28,685.756 1085.93,684.03 1090.43,682.196 1093.14,681.258 1094.93,680.662 1099.42,679.424 1103.92,678.474 1108.42,677.815 1112.92,677.45 1117.42,677.388 1121.92,677.643 1126.41,678.232 1130.91,679.178 1135.41,680.51 1137.33,681.258 1139.91,682.272 1144.41,684.511 1146.45,685.756 1148.91,687.297 1152.82,690.254 1153.4,690.713 1157.76,694.752 1157.9,694.893 1161.75,699.251 1162.4,700.04 1165.09,703.749 1166.9,706.452 1167.97,708.247 1170.43,712.745 1171.4,714.685 1172.55,717.244 1174.37,721.742 1175.9,726.008 1175.97,726.24 1177.28,730.739 1178.4,735.237 1179.34,739.735 1180.11,744.233 1180.39,746.348 1180.69,748.732 "/>
<polyline clip-path="url(#clip842)" style="stroke:#f2e660; stroke-linecap:round; stroke-linejoin:round; stroke-width:4; stroke-opacity:1; fill:none" points="1162.43,748.732 1163.14,753.23 1163.6,757.728 1163.81,762.226 1163.77,766.725 1163.5,771.223 1162.98,775.721 1162.4,779.162 1162.2,780.22 1161.1,784.718 1159.74,789.216 1158.12,793.714 1157.9,794.229 1156.03,798.213 1153.63,802.711 1153.4,803.096 1150.61,807.209 1148.91,809.493 1146.97,811.707 1144.41,814.425 1142.39,816.206 1139.91,818.271 1136.29,820.704 1135.41,821.273 1130.91,823.527 1126.41,825.179 1126.32,825.202 1121.92,826.221 1117.42,826.73 1112.92,826.72 1108.42,826.196 1104.12,825.202 1103.92,825.153 1099.42,823.519 1094.93,821.318 1093.91,820.704 1090.43,818.407 1087.63,816.206 1085.93,814.707 1082.95,811.707 1081.43,809.975 1079.25,807.209 1076.93,803.804 1076.25,802.711 1073.82,798.213 1072.44,795.102 1071.85,793.714 1070.3,789.216 1069.1,784.718 1068.24,780.22 1067.94,777.704 1067.7,775.721 1067.47,771.223 1067.54,766.725 1067.91,762.226 1067.94,762.053 1068.58,757.728 1069.57,753.23 1070.87,748.732 1072.44,744.454 1072.52,744.233 1074.56,739.735 1076.93,735.341 1076.99,735.237 1079.94,730.739 1081.43,728.763 1083.48,726.24 1085.93,723.559 1087.76,721.742 1090.43,719.364 1093.12,717.244 1094.93,715.949 1099.42,713.189 1100.3,712.745 1103.92,711.042 1108.42,709.414 1112.92,708.284 1113.18,708.247 1117.42,707.686 1121.92,707.589 1126.41,708.013 1127.5,708.247 1130.91,709.019 1135.41,710.651 1139.52,712.745 1139.91,712.959 1144.41,716.157 1145.63,717.244 1148.91,720.42 1150.03,721.742 1153.4,726.133 1153.47,726.24 1156.09,730.739 1157.9,734.346 1158.29,735.237 1159.97,739.735 1161.35,744.233 1162.4,748.611 1162.43,748.732 "/>
</svg>
