<?xml version="1.0" encoding="utf-8"?>
<svg xmlns="http://www.w3.org/2000/svg" xmlns:xlink="http://www.w3.org/1999/xlink" width="800" height="350" viewBox="0 0 3200 1400">
<defs>
  <clipPath id="clip590">
    <rect x="0" y="0" width="3200" height="1400"/>
  </clipPath>
</defs>
<path clip-path="url(#clip590)" d="M0 1400 L3200 1400 L3200 0 L0 0  Z" fill="#ffffff" fill-rule="evenodd" fill-opacity="1"/>
<defs>
  <clipPath id="clip591">
    <rect x="640" y="0" width="2241" height="1400"/>
  </clipPath>
</defs>
<path clip-path="url(#clip590)" d="M204.124 553.395 L1552.76 553.395 L1552.76 47.2441 L204.124 47.2441  Z" fill="#ffffff" fill-rule="evenodd" fill-opacity="1"/>
<defs>
  <clipPath id="clip592">
    <rect x="204" y="47" width="1350" height="507"/>
  </clipPath>
</defs>
<polyline clip-path="url(#clip592)" style="stroke:#000000; stroke-linecap:round; stroke-linejoin:round; stroke-width:2; stroke-opacity:0.1; fill:none" points="204.124,553.395 204.124,47.2441 "/>
<polyline clip-path="url(#clip592)" style="stroke:#000000; stroke-linecap:round; stroke-linejoin:round; stroke-width:2; stroke-opacity:0.1; fill:none" points="541.282,553.395 541.282,47.2441 "/>
<polyline clip-path="url(#clip592)" style="stroke:#000000; stroke-linecap:round; stroke-linejoin:round; stroke-width:2; stroke-opacity:0.1; fill:none" points="878.44,553.395 878.44,47.2441 "/>
<polyline clip-path="url(#clip592)" style="stroke:#000000; stroke-linecap:round; stroke-linejoin:round; stroke-width:2; stroke-opacity:0.1; fill:none" points="1215.6,553.395 1215.6,47.2441 "/>
<polyline clip-path="url(#clip592)" style="stroke:#000000; stroke-linecap:round; stroke-linejoin:round; stroke-width:2; stroke-opacity:0.1; fill:none" points="1552.76,553.395 1552.76,47.2441 "/>
<polyline clip-path="url(#clip590)" style="stroke:#000000; stroke-linecap:round; stroke-linejoin:round; stroke-width:4; stroke-opacity:1; fill:none" points="204.124,553.395 1552.76,553.395 "/>
<polyline clip-path="url(#clip590)" style="stroke:#000000; stroke-linecap:round; stroke-linejoin:round; stroke-width:4; stroke-opacity:1; fill:none" points="204.124,553.395 204.124,534.497 "/>
<polyline clip-path="url(#clip590)" style="stroke:#000000; stroke-linecap:round; stroke-linejoin:round; stroke-width:4; stroke-opacity:1; fill:none" points="541.282,553.395 541.282,534.497 "/>
<polyline clip-path="url(#clip590)" style="stroke:#000000; stroke-linecap:round; stroke-linejoin:round; stroke-width:4; stroke-opacity:1; fill:none" points="878.44,553.395 878.44,534.497 "/>
<polyline clip-path="url(#clip590)" style="stroke:#000000; stroke-linecap:round; stroke-linejoin:round; stroke-width:4; stroke-opacity:1; fill:none" points="1215.6,553.395 1215.6,534.497 "/>
<polyline clip-path="url(#clip590)" style="stroke:#000000; stroke-linecap:round; stroke-linejoin:round; stroke-width:4; stroke-opacity:1; fill:none" points="1552.76,553.395 1552.76,534.497 "/>
<path clip-path="url(#clip590)" d="M166.427 590.714 Q162.816 590.714 160.988 594.278 Q159.182 597.82 159.182 604.95 Q159.182 612.056 160.988 615.621 Q162.816 619.162 166.427 619.162 Q170.062 619.162 171.867 615.621 Q173.696 612.056 173.696 604.95 Q173.696 597.82 171.867 594.278 Q170.062 590.714 166.427 590.714 M166.427 587.01 Q172.237 587.01 175.293 591.616 Q178.372 596.2 178.372 604.95 Q178.372 613.676 175.293 618.283 Q172.237 622.866 166.427 622.866 Q160.617 622.866 157.538 618.283 Q154.483 613.676 154.483 604.95 Q154.483 596.2 157.538 591.616 Q160.617 587.01 166.427 587.01 Z" fill="#000000" fill-rule="nonzero" fill-opacity="1" /><path clip-path="url(#clip590)" d="M186.589 616.315 L191.474 616.315 L191.474 622.195 L186.589 622.195 L186.589 616.315 Z" fill="#000000" fill-rule="nonzero" fill-opacity="1" /><path clip-path="url(#clip590)" d="M211.659 590.714 Q208.047 590.714 206.219 594.278 Q204.413 597.82 204.413 604.95 Q204.413 612.056 206.219 615.621 Q208.047 619.162 211.659 619.162 Q215.293 619.162 217.098 615.621 Q218.927 612.056 218.927 604.95 Q218.927 597.82 217.098 594.278 Q215.293 590.714 211.659 590.714 M211.659 587.01 Q217.469 587.01 220.524 591.616 Q223.603 596.2 223.603 604.95 Q223.603 613.676 220.524 618.283 Q217.469 622.866 211.659 622.866 Q205.848 622.866 202.77 618.283 Q199.714 613.676 199.714 604.95 Q199.714 596.2 202.77 591.616 Q205.848 587.01 211.659 587.01 Z" fill="#000000" fill-rule="nonzero" fill-opacity="1" /><path clip-path="url(#clip590)" d="M241.82 590.714 Q238.209 590.714 236.381 594.278 Q234.575 597.82 234.575 604.95 Q234.575 612.056 236.381 615.621 Q238.209 619.162 241.82 619.162 Q245.455 619.162 247.26 615.621 Q249.089 612.056 249.089 604.95 Q249.089 597.82 247.26 594.278 Q245.455 590.714 241.82 590.714 M241.82 587.01 Q247.631 587.01 250.686 591.616 Q253.765 596.2 253.765 604.95 Q253.765 613.676 250.686 618.283 Q247.631 622.866 241.82 622.866 Q236.01 622.866 232.932 618.283 Q229.876 613.676 229.876 604.95 Q229.876 596.2 232.932 591.616 Q236.01 587.01 241.82 587.01 Z" fill="#000000" fill-rule="nonzero" fill-opacity="1" /><path clip-path="url(#clip590)" d="M504.083 590.714 Q500.472 590.714 498.643 594.278 Q496.838 597.82 496.838 604.95 Q496.838 612.056 498.643 615.621 Q500.472 619.162 504.083 619.162 Q507.717 619.162 509.523 615.621 Q511.352 612.056 511.352 604.95 Q511.352 597.82 509.523 594.278 Q507.717 590.714 504.083 590.714 M504.083 587.01 Q509.893 587.01 512.949 591.616 Q516.027 596.2 516.027 604.95 Q516.027 613.676 512.949 618.283 Q509.893 622.866 504.083 622.866 Q498.273 622.866 495.194 618.283 Q492.139 613.676 492.139 604.95 Q492.139 596.2 495.194 591.616 Q498.273 587.01 504.083 587.01 Z" fill="#000000" fill-rule="nonzero" fill-opacity="1" /><path clip-path="url(#clip590)" d="M524.245 616.315 L529.129 616.315 L529.129 622.195 L524.245 622.195 L524.245 616.315 Z" fill="#000000" fill-rule="nonzero" fill-opacity="1" /><path clip-path="url(#clip590)" d="M543.342 618.26 L559.661 618.26 L559.661 622.195 L537.717 622.195 L537.717 618.26 Q540.379 615.505 544.962 610.875 Q549.569 606.223 550.749 604.88 Q552.995 602.357 553.874 600.621 Q554.777 598.862 554.777 597.172 Q554.777 594.417 552.833 592.681 Q550.911 590.945 547.81 590.945 Q545.611 590.945 543.157 591.709 Q540.726 592.473 537.949 594.024 L537.949 589.302 Q540.773 588.167 543.226 587.589 Q545.68 587.01 547.717 587.01 Q553.087 587.01 556.282 589.695 Q559.476 592.38 559.476 596.871 Q559.476 599.001 558.666 600.922 Q557.879 602.82 555.773 605.413 Q555.194 606.084 552.092 609.301 Q548.99 612.496 543.342 618.26 Z" fill="#000000" fill-rule="nonzero" fill-opacity="1" /><path clip-path="url(#clip590)" d="M569.522 587.635 L587.879 587.635 L587.879 591.57 L573.805 591.57 L573.805 600.042 Q574.823 599.695 575.842 599.533 Q576.86 599.348 577.879 599.348 Q583.666 599.348 587.046 602.519 Q590.425 605.69 590.425 611.107 Q590.425 616.686 586.953 619.787 Q583.481 622.866 577.161 622.866 Q574.985 622.866 572.717 622.496 Q570.472 622.125 568.064 621.385 L568.064 616.686 Q570.147 617.82 572.37 618.375 Q574.592 618.931 577.069 618.931 Q581.073 618.931 583.411 616.825 Q585.749 614.718 585.749 611.107 Q585.749 607.496 583.411 605.389 Q581.073 603.283 577.069 603.283 Q575.194 603.283 573.319 603.7 Q571.467 604.116 569.522 604.996 L569.522 587.635 Z" fill="#000000" fill-rule="nonzero" fill-opacity="1" /><path clip-path="url(#clip590)" d="M840.743 590.714 Q837.132 590.714 835.304 594.278 Q833.498 597.82 833.498 604.95 Q833.498 612.056 835.304 615.621 Q837.132 619.162 840.743 619.162 Q844.378 619.162 846.183 615.621 Q848.012 612.056 848.012 604.95 Q848.012 597.82 846.183 594.278 Q844.378 590.714 840.743 590.714 M840.743 587.01 Q846.553 587.01 849.609 591.616 Q852.688 596.2 852.688 604.95 Q852.688 613.676 849.609 618.283 Q846.553 622.866 840.743 622.866 Q834.933 622.866 831.855 618.283 Q828.799 613.676 828.799 604.95 Q828.799 596.2 831.855 591.616 Q834.933 587.01 840.743 587.01 Z" fill="#000000" fill-rule="nonzero" fill-opacity="1" /><path clip-path="url(#clip590)" d="M860.905 616.315 L865.79 616.315 L865.79 622.195 L860.905 622.195 L860.905 616.315 Z" fill="#000000" fill-rule="nonzero" fill-opacity="1" /><path clip-path="url(#clip590)" d="M876.021 587.635 L894.377 587.635 L894.377 591.57 L880.303 591.57 L880.303 600.042 Q881.322 599.695 882.34 599.533 Q883.359 599.348 884.377 599.348 Q890.164 599.348 893.544 602.519 Q896.924 605.69 896.924 611.107 Q896.924 616.686 893.451 619.787 Q889.979 622.866 883.66 622.866 Q881.484 622.866 879.215 622.496 Q876.97 622.125 874.563 621.385 L874.563 616.686 Q876.646 617.82 878.868 618.375 Q881.09 618.931 883.567 618.931 Q887.572 618.931 889.91 616.825 Q892.248 614.718 892.248 611.107 Q892.248 607.496 889.91 605.389 Q887.572 603.283 883.567 603.283 Q881.692 603.283 879.817 603.7 Q877.965 604.116 876.021 604.996 L876.021 587.635 Z" fill="#000000" fill-rule="nonzero" fill-opacity="1" /><path clip-path="url(#clip590)" d="M916.136 590.714 Q912.525 590.714 910.697 594.278 Q908.891 597.82 908.891 604.95 Q908.891 612.056 910.697 615.621 Q912.525 619.162 916.136 619.162 Q919.771 619.162 921.576 615.621 Q923.405 612.056 923.405 604.95 Q923.405 597.82 921.576 594.278 Q919.771 590.714 916.136 590.714 M916.136 587.01 Q921.947 587.01 925.002 591.616 Q928.081 596.2 928.081 604.95 Q928.081 613.676 925.002 618.283 Q921.947 622.866 916.136 622.866 Q910.326 622.866 907.248 618.283 Q904.192 613.676 904.192 604.95 Q904.192 596.2 907.248 591.616 Q910.326 587.01 916.136 587.01 Z" fill="#000000" fill-rule="nonzero" fill-opacity="1" /><path clip-path="url(#clip590)" d="M1178.4 590.714 Q1174.79 590.714 1172.96 594.278 Q1171.15 597.82 1171.15 604.95 Q1171.15 612.056 1172.96 615.621 Q1174.79 619.162 1178.4 619.162 Q1182.03 619.162 1183.84 615.621 Q1185.67 612.056 1185.67 604.95 Q1185.67 597.82 1183.84 594.278 Q1182.03 590.714 1178.4 590.714 M1178.4 587.01 Q1184.21 587.01 1187.26 591.616 Q1190.34 596.2 1190.34 604.95 Q1190.34 613.676 1187.26 618.283 Q1184.21 622.866 1178.4 622.866 Q1172.59 622.866 1169.51 618.283 Q1166.45 613.676 1166.45 604.95 Q1166.45 596.2 1169.51 591.616 Q1172.59 587.01 1178.4 587.01 Z" fill="#000000" fill-rule="nonzero" fill-opacity="1" /><path clip-path="url(#clip590)" d="M1198.56 616.315 L1203.45 616.315 L1203.45 622.195 L1198.56 622.195 L1198.56 616.315 Z" fill="#000000" fill-rule="nonzero" fill-opacity="1" /><path clip-path="url(#clip590)" d="M1212.45 587.635 L1234.67 587.635 L1234.67 589.626 L1222.13 622.195 L1217.24 622.195 L1229.05 591.57 L1212.45 591.57 L1212.45 587.635 Z" fill="#000000" fill-rule="nonzero" fill-opacity="1" /><path clip-path="url(#clip590)" d="M1243.84 587.635 L1262.19 587.635 L1262.19 591.57 L1248.12 591.57 L1248.12 600.042 Q1249.14 599.695 1250.16 599.533 Q1251.18 599.348 1252.19 599.348 Q1257.98 599.348 1261.36 602.519 Q1264.74 605.69 1264.74 611.107 Q1264.74 616.686 1261.27 619.787 Q1257.8 622.866 1251.48 622.866 Q1249.3 622.866 1247.03 622.496 Q1244.79 622.125 1242.38 621.385 L1242.38 616.686 Q1244.46 617.82 1246.69 618.375 Q1248.91 618.931 1251.38 618.931 Q1255.39 618.931 1257.73 616.825 Q1260.07 614.718 1260.07 611.107 Q1260.07 607.496 1257.73 605.389 Q1255.39 603.283 1251.38 603.283 Q1249.51 603.283 1247.63 603.7 Q1245.78 604.116 1243.84 604.996 L1243.84 587.635 Z" fill="#000000" fill-rule="nonzero" fill-opacity="1" /><path clip-path="url(#clip590)" d="M1504.83 618.26 L1512.47 618.26 L1512.47 591.894 L1504.16 593.561 L1504.16 589.302 L1512.42 587.635 L1517.1 587.635 L1517.1 618.26 L1524.74 618.26 L1524.74 622.195 L1504.83 622.195 L1504.83 618.26 Z" fill="#000000" fill-rule="nonzero" fill-opacity="1" /><path clip-path="url(#clip590)" d="M1534.18 616.315 L1539.06 616.315 L1539.06 622.195 L1534.18 622.195 L1534.18 616.315 Z" fill="#000000" fill-rule="nonzero" fill-opacity="1" /><path clip-path="url(#clip590)" d="M1559.25 590.714 Q1555.64 590.714 1553.81 594.278 Q1552 597.82 1552 604.95 Q1552 612.056 1553.81 615.621 Q1555.64 619.162 1559.25 619.162 Q1562.88 619.162 1564.69 615.621 Q1566.52 612.056 1566.52 604.95 Q1566.52 597.82 1564.69 594.278 Q1562.88 590.714 1559.25 590.714 M1559.25 587.01 Q1565.06 587.01 1568.11 591.616 Q1571.19 596.2 1571.19 604.95 Q1571.19 613.676 1568.11 618.283 Q1565.06 622.866 1559.25 622.866 Q1553.44 622.866 1550.36 618.283 Q1547.3 613.676 1547.3 604.95 Q1547.3 596.2 1550.36 591.616 Q1553.44 587.01 1559.25 587.01 Z" fill="#000000" fill-rule="nonzero" fill-opacity="1" /><path clip-path="url(#clip590)" d="M1589.41 590.714 Q1585.8 590.714 1583.97 594.278 Q1582.17 597.82 1582.17 604.95 Q1582.17 612.056 1583.97 615.621 Q1585.8 619.162 1589.41 619.162 Q1593.05 619.162 1594.85 615.621 Q1596.68 612.056 1596.68 604.95 Q1596.68 597.82 1594.85 594.278 Q1593.05 590.714 1589.41 590.714 M1589.41 587.01 Q1595.22 587.01 1598.28 591.616 Q1601.36 596.2 1601.36 604.95 Q1601.36 613.676 1598.28 618.283 Q1595.22 622.866 1589.41 622.866 Q1583.6 622.866 1580.52 618.283 Q1577.47 613.676 1577.47 604.95 Q1577.47 596.2 1580.52 591.616 Q1583.6 587.01 1589.41 587.01 Z" fill="#000000" fill-rule="nonzero" fill-opacity="1" /><path clip-path="url(#clip590)" d="M654.542 666.399 L654.542 673.179 Q651.296 670.155 647.603 668.659 Q643.943 667.163 639.805 667.163 Q631.657 667.163 627.329 672.16 Q623 677.125 623 686.547 Q623 695.936 627.329 700.933 Q631.657 705.898 639.805 705.898 Q643.943 705.898 647.603 704.402 Q651.296 702.906 654.542 699.883 L654.542 706.599 Q651.168 708.89 647.381 710.036 Q643.625 711.182 639.424 711.182 Q628.634 711.182 622.427 704.593 Q616.221 697.973 616.221 686.547 Q616.221 675.088 622.427 668.5 Q628.634 661.879 639.424 661.879 Q643.689 661.879 647.444 663.025 Q651.232 664.139 654.542 666.399 Z" fill="#000000" fill-rule="nonzero" fill-opacity="1" /><path clip-path="url(#clip590)" d="M678.032 678.717 Q673.321 678.717 670.584 682.409 Q667.846 686.069 667.846 692.467 Q667.846 698.864 670.552 702.556 Q673.289 706.217 678.032 706.217 Q682.71 706.217 685.448 702.525 Q688.185 698.832 688.185 692.467 Q688.185 686.133 685.448 682.441 Q682.71 678.717 678.032 678.717 M678.032 673.752 Q685.67 673.752 690.031 678.717 Q694.391 683.682 694.391 692.467 Q694.391 701.22 690.031 706.217 Q685.67 711.182 678.032 711.182 Q670.361 711.182 666 706.217 Q661.672 701.22 661.672 692.467 Q661.672 683.682 666 678.717 Q670.361 673.752 678.032 673.752 Z" fill="#000000" fill-rule="nonzero" fill-opacity="1" /><path clip-path="url(#clip590)" d="M733.731 688.743 L733.731 710.259 L727.875 710.259 L727.875 688.934 Q727.875 683.873 725.902 681.359 Q723.928 678.844 719.982 678.844 Q715.239 678.844 712.502 681.868 Q709.765 684.892 709.765 690.111 L709.765 710.259 L703.876 710.259 L703.876 674.611 L709.765 674.611 L709.765 680.149 Q711.865 676.934 714.698 675.343 Q717.563 673.752 721.287 673.752 Q727.429 673.752 730.58 677.571 Q733.731 681.359 733.731 688.743 Z" fill="#000000" fill-rule="nonzero" fill-opacity="1" /><path clip-path="url(#clip590)" d="M741.211 674.611 L747.418 674.611 L758.558 704.53 L769.698 674.611 L775.904 674.611 L762.536 710.259 L754.579 710.259 L741.211 674.611 Z" fill="#000000" fill-rule="nonzero" fill-opacity="1" /><path clip-path="url(#clip590)" d="M814.48 690.971 L814.48 693.835 L787.554 693.835 Q787.935 699.883 791.182 703.066 Q794.46 706.217 800.285 706.217 Q803.659 706.217 806.81 705.389 Q809.993 704.562 813.112 702.906 L813.112 708.445 Q809.961 709.781 806.651 710.482 Q803.34 711.182 799.935 711.182 Q791.405 711.182 786.408 706.217 Q781.442 701.251 781.442 692.785 Q781.442 684.032 786.153 678.908 Q790.896 673.752 798.916 673.752 Q806.11 673.752 810.279 678.398 Q814.48 683.014 814.48 690.971 M808.624 689.252 Q808.56 684.446 805.919 681.581 Q803.309 678.717 798.98 678.717 Q794.078 678.717 791.118 681.486 Q788.19 684.255 787.744 689.284 L808.624 689.252 Z" fill="#000000" fill-rule="nonzero" fill-opacity="1" /><path clip-path="url(#clip590)" d="M849.746 675.98 L849.746 681.454 Q847.264 680.085 844.749 679.417 Q842.267 678.717 839.72 678.717 Q834.023 678.717 830.872 682.345 Q827.721 685.942 827.721 692.467 Q827.721 698.992 830.872 702.62 Q834.023 706.217 839.72 706.217 Q842.267 706.217 844.749 705.548 Q847.264 704.848 849.746 703.479 L849.746 708.89 Q847.296 710.036 844.654 710.609 Q842.044 711.182 839.084 711.182 Q831.031 711.182 826.289 706.121 Q821.546 701.06 821.546 692.467 Q821.546 683.746 826.321 678.749 Q831.127 673.752 839.466 673.752 Q842.171 673.752 844.749 674.324 Q847.328 674.866 849.746 675.98 Z" fill="#000000" fill-rule="nonzero" fill-opacity="1" /><path clip-path="url(#clip590)" d="M865.724 664.489 L865.724 674.611 L877.787 674.611 L877.787 679.162 L865.724 679.162 L865.724 698.514 Q865.724 702.875 866.902 704.116 Q868.112 705.357 871.772 705.357 L877.787 705.357 L877.787 710.259 L871.772 710.259 Q864.992 710.259 862.414 707.744 Q859.836 705.198 859.836 698.514 L859.836 679.162 L855.539 679.162 L855.539 674.611 L859.836 674.611 L859.836 664.489 L865.724 664.489 Z" fill="#000000" fill-rule="nonzero" fill-opacity="1" /><path clip-path="url(#clip590)" d="M885.49 674.611 L891.346 674.611 L891.346 710.259 L885.49 710.259 L885.49 674.611 M885.49 660.734 L891.346 660.734 L891.346 668.15 L885.49 668.15 L885.49 660.734 Z" fill="#000000" fill-rule="nonzero" fill-opacity="1" /><path clip-path="url(#clip590)" d="M899.399 674.611 L905.606 674.611 L916.746 704.53 L927.886 674.611 L934.092 674.611 L920.724 710.259 L912.767 710.259 L899.399 674.611 Z" fill="#000000" fill-rule="nonzero" fill-opacity="1" /><path clip-path="url(#clip590)" d="M972.668 690.971 L972.668 693.835 L945.741 693.835 Q946.123 699.883 949.37 703.066 Q952.648 706.217 958.473 706.217 Q961.847 706.217 964.998 705.389 Q968.18 704.562 971.3 702.906 L971.3 708.445 Q968.149 709.781 964.838 710.482 Q961.528 711.182 958.123 711.182 Q949.593 711.182 944.596 706.217 Q939.63 701.251 939.63 692.785 Q939.63 684.032 944.341 678.908 Q949.083 673.752 957.104 673.752 Q964.297 673.752 968.467 678.398 Q972.668 683.014 972.668 690.971 M966.812 689.252 Q966.748 684.446 964.106 681.581 Q961.496 678.717 957.168 678.717 Q952.266 678.717 949.306 681.486 Q946.378 684.255 945.932 689.284 L966.812 689.252 Z" fill="#000000" fill-rule="nonzero" fill-opacity="1" /><path clip-path="url(#clip590)" d="M1008.79 664.489 L1008.79 674.611 L1020.86 674.611 L1020.86 679.162 L1008.79 679.162 L1008.79 698.514 Q1008.79 702.875 1009.97 704.116 Q1011.18 705.357 1014.84 705.357 L1020.86 705.357 L1020.86 710.259 L1014.84 710.259 Q1008.06 710.259 1005.48 707.744 Q1002.91 705.198 1002.91 698.514 L1002.91 679.162 L998.609 679.162 L998.609 674.611 L1002.91 674.611 L1002.91 664.489 L1008.79 664.489 Z" fill="#000000" fill-rule="nonzero" fill-opacity="1" /><path clip-path="url(#clip590)" d="M1028.56 674.611 L1034.42 674.611 L1034.42 710.259 L1028.56 710.259 L1028.56 674.611 M1028.56 660.734 L1034.42 660.734 L1034.42 668.15 L1028.56 668.15 L1028.56 660.734 Z" fill="#000000" fill-rule="nonzero" fill-opacity="1" /><path clip-path="url(#clip590)" d="M1074.42 681.454 Q1076.62 677.507 1079.68 675.629 Q1082.73 673.752 1086.87 673.752 Q1092.44 673.752 1095.46 677.666 Q1098.49 681.55 1098.49 688.743 L1098.49 710.259 L1092.6 710.259 L1092.6 688.934 Q1092.6 683.809 1090.78 681.327 Q1088.97 678.844 1085.25 678.844 Q1080.69 678.844 1078.05 681.868 Q1075.41 684.892 1075.41 690.111 L1075.41 710.259 L1069.52 710.259 L1069.52 688.934 Q1069.52 683.778 1067.71 681.327 Q1065.89 678.844 1062.11 678.844 Q1057.62 678.844 1054.98 681.9 Q1052.34 684.923 1052.34 690.111 L1052.34 710.259 L1046.45 710.259 L1046.45 674.611 L1052.34 674.611 L1052.34 680.149 Q1054.34 676.871 1057.14 675.311 Q1059.94 673.752 1063.79 673.752 Q1067.68 673.752 1070.38 675.725 Q1073.12 677.698 1074.42 681.454 Z" fill="#000000" fill-rule="nonzero" fill-opacity="1" /><path clip-path="url(#clip590)" d="M1140.66 690.971 L1140.66 693.835 L1113.73 693.835 Q1114.11 699.883 1117.36 703.066 Q1120.64 706.217 1126.46 706.217 Q1129.84 706.217 1132.99 705.389 Q1136.17 704.562 1139.29 702.906 L1139.29 708.445 Q1136.14 709.781 1132.83 710.482 Q1129.52 711.182 1126.11 711.182 Q1117.58 711.182 1112.59 706.217 Q1107.62 701.251 1107.62 692.785 Q1107.62 684.032 1112.33 678.908 Q1117.07 673.752 1125.1 673.752 Q1132.29 673.752 1136.46 678.398 Q1140.66 683.014 1140.66 690.971 M1134.8 689.252 Q1134.74 684.446 1132.1 681.581 Q1129.49 678.717 1125.16 678.717 Q1120.26 678.717 1117.3 681.486 Q1114.37 684.255 1113.92 689.284 L1134.8 689.252 Z" fill="#000000" fill-rule="nonzero" fill-opacity="1" /><polyline clip-path="url(#clip592)" style="stroke:#000000; stroke-linecap:round; stroke-linejoin:round; stroke-width:2; stroke-opacity:0.1; fill:none" points="204.124,553.395 1552.76,553.395 "/>
<polyline clip-path="url(#clip592)" style="stroke:#000000; stroke-linecap:round; stroke-linejoin:round; stroke-width:2; stroke-opacity:0.1; fill:none" points="204.124,426.857 1552.76,426.857 "/>
<polyline clip-path="url(#clip592)" style="stroke:#000000; stroke-linecap:round; stroke-linejoin:round; stroke-width:2; stroke-opacity:0.1; fill:none" points="204.124,300.319 1552.76,300.319 "/>
<polyline clip-path="url(#clip592)" style="stroke:#000000; stroke-linecap:round; stroke-linejoin:round; stroke-width:2; stroke-opacity:0.1; fill:none" points="204.124,173.782 1552.76,173.782 "/>
<polyline clip-path="url(#clip592)" style="stroke:#000000; stroke-linecap:round; stroke-linejoin:round; stroke-width:2; stroke-opacity:0.1; fill:none" points="204.124,47.2441 1552.76,47.2441 "/>
<polyline clip-path="url(#clip590)" style="stroke:#000000; stroke-linecap:round; stroke-linejoin:round; stroke-width:4; stroke-opacity:1; fill:none" points="204.124,553.395 204.124,47.2441 "/>
<polyline clip-path="url(#clip590)" style="stroke:#000000; stroke-linecap:round; stroke-linejoin:round; stroke-width:4; stroke-opacity:1; fill:none" points="204.124,553.395 223.022,553.395 "/>
<polyline clip-path="url(#clip590)" style="stroke:#000000; stroke-linecap:round; stroke-linejoin:round; stroke-width:4; stroke-opacity:1; fill:none" points="204.124,426.857 223.022,426.857 "/>
<polyline clip-path="url(#clip590)" style="stroke:#000000; stroke-linecap:round; stroke-linejoin:round; stroke-width:4; stroke-opacity:1; fill:none" points="204.124,300.319 223.022,300.319 "/>
<polyline clip-path="url(#clip590)" style="stroke:#000000; stroke-linecap:round; stroke-linejoin:round; stroke-width:4; stroke-opacity:1; fill:none" points="204.124,173.782 223.022,173.782 "/>
<polyline clip-path="url(#clip590)" style="stroke:#000000; stroke-linecap:round; stroke-linejoin:round; stroke-width:4; stroke-opacity:1; fill:none" points="204.124,47.2441 223.022,47.2441 "/>
<path clip-path="url(#clip590)" d="M144.18 539.194 Q140.568 539.194 138.74 542.758 Q136.934 546.3 136.934 553.43 Q136.934 560.536 138.74 564.101 Q140.568 567.642 144.18 567.642 Q147.814 567.642 149.619 564.101 Q151.448 560.536 151.448 553.43 Q151.448 546.3 149.619 542.758 Q147.814 539.194 144.18 539.194 M144.18 535.49 Q149.99 535.49 153.045 540.096 Q156.124 544.68 156.124 553.43 Q156.124 562.156 153.045 566.763 Q149.99 571.346 144.18 571.346 Q138.369 571.346 135.291 566.763 Q132.235 562.156 132.235 553.43 Q132.235 544.68 135.291 540.096 Q138.369 535.49 144.18 535.49 Z" fill="#000000" fill-rule="nonzero" fill-opacity="1" /><path clip-path="url(#clip590)" d="M136.217 440.202 L143.855 440.202 L143.855 413.836 L135.545 415.503 L135.545 411.244 L143.809 409.577 L148.485 409.577 L148.485 440.202 L156.124 440.202 L156.124 444.137 L136.217 444.137 L136.217 440.202 Z" fill="#000000" fill-rule="nonzero" fill-opacity="1" /><path clip-path="url(#clip590)" d="M139.805 313.664 L156.124 313.664 L156.124 317.599 L134.18 317.599 L134.18 313.664 Q136.842 310.91 141.425 306.28 Q146.031 301.627 147.212 300.285 Q149.457 297.762 150.337 296.026 Q151.24 294.266 151.24 292.576 Q151.24 289.822 149.295 288.086 Q147.374 286.35 144.272 286.35 Q142.073 286.35 139.619 287.114 Q137.189 287.877 134.411 289.428 L134.411 284.706 Q137.235 283.572 139.689 282.993 Q142.142 282.414 144.18 282.414 Q149.55 282.414 152.744 285.1 Q155.939 287.785 155.939 292.276 Q155.939 294.405 155.129 296.326 Q154.342 298.225 152.235 300.817 Q151.656 301.488 148.554 304.706 Q145.453 307.9 139.805 313.664 Z" fill="#000000" fill-rule="nonzero" fill-opacity="1" /><path clip-path="url(#clip590)" d="M148.994 172.428 Q152.351 173.145 154.226 175.414 Q156.124 177.682 156.124 181.016 Q156.124 186.131 152.605 188.932 Q149.087 191.733 142.605 191.733 Q140.43 191.733 138.115 191.293 Q135.823 190.877 133.369 190.02 L133.369 185.506 Q135.314 186.641 137.629 187.219 Q139.943 187.798 142.467 187.798 Q146.865 187.798 149.156 186.062 Q151.471 184.326 151.471 181.016 Q151.471 177.96 149.318 176.247 Q147.189 174.511 143.369 174.511 L139.342 174.511 L139.342 170.668 L143.555 170.668 Q147.004 170.668 148.832 169.303 Q150.661 167.914 150.661 165.321 Q150.661 162.659 148.763 161.247 Q146.888 159.812 143.369 159.812 Q141.448 159.812 139.249 160.229 Q137.05 160.645 134.411 161.525 L134.411 157.358 Q137.073 156.618 139.388 156.247 Q141.726 155.877 143.786 155.877 Q149.11 155.877 152.212 158.307 Q155.314 160.715 155.314 164.835 Q155.314 167.705 153.67 169.696 Q152.027 171.664 148.994 172.428 Z" fill="#000000" fill-rule="nonzero" fill-opacity="1" /><path clip-path="url(#clip590)" d="M146.541 34.0381 L134.735 52.4871 L146.541 52.4871 L146.541 34.0381 M145.314 29.9641 L151.193 29.9641 L151.193 52.4871 L156.124 52.4871 L156.124 56.376 L151.193 56.376 L151.193 64.5241 L146.541 64.5241 L146.541 56.376 L130.939 56.376 L130.939 51.8621 L145.314 29.9641 Z" fill="#000000" fill-rule="nonzero" fill-opacity="1" /><path clip-path="url(#clip590)" d="M21.5287 301.173 L38.3402 305.327 Q39.403 305.617 39.5318 305.81 Q39.6606 305.971 39.6606 306.487 Q39.6606 307.485 38.9843 307.485 Q38.9199 307.485 38.0826 307.389 Q37.213 307.292 35.6349 307.292 Q29.8056 307.292 26.3596 310.126 Q22.9136 312.928 22.9136 317.92 Q22.9136 322.235 25.1036 326.583 Q27.2936 330.899 30.8684 333.991 Q33.5737 336.309 36.9876 338.016 Q40.4014 339.691 43.5253 340.496 Q46.6493 341.269 49.0003 341.623 Q51.3514 341.978 53.0583 341.978 Q55.5381 341.978 57.6315 341.462 Q59.7249 340.915 61.2064 339.949 Q62.6556 338.982 63.7828 337.759 Q64.8778 336.503 65.5219 335.053 Q66.1661 333.572 66.4881 332.09 Q66.778 330.609 66.778 329.063 Q66.778 322.847 61.9471 316.921 Q57.9858 312.219 51.5124 310.255 Q50.8683 310.094 50.8683 309.417 Q50.8683 308.612 51.5124 308.612 Q51.6412 308.612 52.2853 308.773 Q52.8972 308.934 54.1533 309.417 Q55.3771 309.901 56.762 310.641 Q58.1468 311.382 59.8859 312.767 Q61.625 314.152 63.1387 315.859 Q65.6508 318.757 67.2289 322.429 Q68.8069 326.1 68.8069 330.126 Q68.8069 335.15 66.5847 339.208 Q64.3625 343.266 60.208 345.649 Q56.0534 348 50.7395 348 Q45.1356 348 39.6284 345.424 Q34.1212 342.847 30.0311 338.757 Q25.9409 334.667 23.3967 329.256 Q20.8524 323.846 20.8524 318.435 Q20.8524 316.374 21.3999 314.538 Q21.9474 312.702 22.6237 311.607 Q23.3001 310.48 24.2984 309.482 Q25.2646 308.484 25.7155 308.161 Q26.1664 307.807 26.7139 307.485 L21.6576 302.88 Q20.8524 302.075 20.8524 301.881 Q20.8524 301.495 21.0779 301.334 Q21.3033 301.173 21.5287 301.173 Z" fill="#000000" fill-rule="nonzero" fill-opacity="1" /><path clip-path="url(#clip590)" d="M67.6763 259.324 Q71.3961 259.324 75.0482 260.925 Q78.6778 262.503 81.4282 265.073 Q84.1561 267.621 85.8469 271.07 Q87.5377 274.519 87.5377 278.036 L87.5377 293.321 Q87.5377 293.862 87.5151 294.087 Q87.4926 294.29 87.3799 294.448 Q87.2446 294.606 86.9741 294.606 Q86.5457 294.606 86.3654 294.426 Q86.1625 294.245 86.1399 294.042 Q86.1174 293.839 86.1174 293.321 Q86.1174 292.194 86.0498 291.517 Q85.9821 290.841 85.892 290.413 Q85.7792 289.962 85.4636 289.736 Q85.148 289.488 84.8775 289.376 Q84.5844 289.263 83.9306 289.105 L59.1321 282.928 Q58.3882 282.748 58.2754 282.748 Q57.8922 282.748 57.7569 282.973 Q57.5991 283.176 57.5315 283.762 Q57.4413 284.889 57.4413 285.746 Q57.4413 286.31 57.4188 286.535 Q57.3962 286.738 57.2835 286.918 Q57.1482 287.076 56.8777 287.076 Q56.4494 287.076 56.269 286.896 Q56.0661 286.693 56.0436 286.468 Q55.9985 286.242 55.9985 285.701 L55.9985 270.191 Q55.9985 266.832 57.5766 264.329 Q59.1321 261.827 61.7698 260.587 Q64.3849 259.324 67.6763 259.324 M65.9855 263.36 Q61.6796 263.36 59.5604 265.704 Q57.4413 268.026 57.4413 271.701 L57.4413 276.638 Q57.4413 278.104 57.7118 278.464 Q57.9598 278.825 59.1997 279.141 L84.5393 285.476 Q85.3734 285.701 85.5989 285.701 Q85.8469 285.701 85.9371 285.588 Q86.0047 285.453 86.0498 285.092 Q86.1174 284.687 86.1174 284.078 L86.1174 278.87 Q86.1174 276.864 85.5763 275.038 Q85.0127 273.189 84.1335 271.859 Q83.2318 270.529 82.4653 269.672 Q81.6762 268.815 80.8872 268.207 Q79.1062 266.832 76.7841 265.817 Q74.4621 264.78 72.343 264.307 Q70.2013 263.811 68.6232 263.585 Q67.0225 263.36 65.9855 263.36 Z" fill="#000000" fill-rule="nonzero" fill-opacity="1" /><polyline clip-path="url(#clip592)" style="stroke:#009af9; stroke-linecap:round; stroke-linejoin:round; stroke-width:4; stroke-opacity:1; fill:none" points="204.124,553.395 217.61,32810.2 231.097,230.208 244.583,243.067 258.069,254.421 271.555,264.048 285.042,272.207 298.528,279.178 312.014,285.15 325.501,290.249 338.987,294.58 352.473,298.247 365.96,301.355 379.446,303.998 392.932,306.254 406.419,308.184 419.905,309.835 433.391,311.243 446.878,312.438 460.364,313.446 473.85,314.289 487.337,314.986 500.823,315.554 514.309,316.006 527.796,316.355 541.282,316.611 554.768,316.785 568.255,316.884 581.741,316.916 595.227,316.887 608.714,316.803 622.2,316.669 635.686,316.491 649.172,316.272 662.659,316.016 676.145,315.727 689.631,315.407 703.118,315.06 716.604,314.688 730.09,314.294 743.577,313.879 757.063,313.445 770.549,312.995 784.036,312.531 797.522,312.053 811.008,311.564 824.495,311.064 837.981,310.555 851.467,310.039 864.954,309.516 878.44,308.987 891.926,308.453 905.413,307.917 918.899,307.377 932.385,306.835 945.872,306.292 959.358,305.749 972.844,305.206 986.33,304.663 999.817,304.123 1013.3,303.584 1026.79,303.048 1040.28,302.515 1053.76,301.986 1067.25,301.461 1080.73,300.941 1094.22,300.426 1107.71,299.916 1121.19,299.412 1134.68,298.915 1148.17,298.425 1161.65,297.941 1175.14,297.465 1188.63,296.996 1202.11,296.536 1215.6,296.084 1229.08,295.641 1242.57,295.206 1256.06,294.781 1269.54,294.364 1283.03,293.958 1296.52,293.561 1310,293.174 1323.49,292.798 1336.97,292.432 1350.46,292.077 1363.95,291.733 1377.43,291.399 1390.92,291.077 1404.41,290.767 1417.89,290.468 1431.38,290.182 1444.87,289.907 1458.35,289.645 1471.84,289.396 1485.32,289.16 1498.81,288.936 1512.3,288.726 1525.78,288.53 1539.27,288.347 1552.76,288.179 "/>
<path clip-path="url(#clip590)" d="M1804.12 553.395 L3152.76 553.395 L3152.76 47.2441 L1804.12 47.2441  Z" fill="#ffffff" fill-rule="evenodd" fill-opacity="1"/>
<defs>
  <clipPath id="clip593">
    <rect x="1804" y="47" width="1350" height="507"/>
  </clipPath>
</defs>
<polyline clip-path="url(#clip593)" style="stroke:#000000; stroke-linecap:round; stroke-linejoin:round; stroke-width:2; stroke-opacity:0.1; fill:none" points="1804.12,553.395 1804.12,47.2441 "/>
<polyline clip-path="url(#clip593)" style="stroke:#000000; stroke-linecap:round; stroke-linejoin:round; stroke-width:2; stroke-opacity:0.1; fill:none" points="2141.28,553.395 2141.28,47.2441 "/>
<polyline clip-path="url(#clip593)" style="stroke:#000000; stroke-linecap:round; stroke-linejoin:round; stroke-width:2; stroke-opacity:0.1; fill:none" points="2478.44,553.395 2478.44,47.2441 "/>
<polyline clip-path="url(#clip593)" style="stroke:#000000; stroke-linecap:round; stroke-linejoin:round; stroke-width:2; stroke-opacity:0.1; fill:none" points="2815.6,553.395 2815.6,47.2441 "/>
<polyline clip-path="url(#clip593)" style="stroke:#000000; stroke-linecap:round; stroke-linejoin:round; stroke-width:2; stroke-opacity:0.1; fill:none" points="3152.76,553.395 3152.76,47.2441 "/>
<polyline clip-path="url(#clip590)" style="stroke:#000000; stroke-linecap:round; stroke-linejoin:round; stroke-width:4; stroke-opacity:1; fill:none" points="1804.12,553.395 3152.76,553.395 "/>
<polyline clip-path="url(#clip590)" style="stroke:#000000; stroke-linecap:round; stroke-linejoin:round; stroke-width:4; stroke-opacity:1; fill:none" points="1804.12,553.395 1804.12,534.497 "/>
<polyline clip-path="url(#clip590)" style="stroke:#000000; stroke-linecap:round; stroke-linejoin:round; stroke-width:4; stroke-opacity:1; fill:none" points="2141.28,553.395 2141.28,534.497 "/>
<polyline clip-path="url(#clip590)" style="stroke:#000000; stroke-linecap:round; stroke-linejoin:round; stroke-width:4; stroke-opacity:1; fill:none" points="2478.44,553.395 2478.44,534.497 "/>
<polyline clip-path="url(#clip590)" style="stroke:#000000; stroke-linecap:round; stroke-linejoin:round; stroke-width:4; stroke-opacity:1; fill:none" points="2815.6,553.395 2815.6,534.497 "/>
<polyline clip-path="url(#clip590)" style="stroke:#000000; stroke-linecap:round; stroke-linejoin:round; stroke-width:4; stroke-opacity:1; fill:none" points="3152.76,553.395 3152.76,534.497 "/>
<path clip-path="url(#clip590)" d="M1766.43 590.714 Q1762.82 590.714 1760.99 594.278 Q1759.18 597.82 1759.18 604.95 Q1759.18 612.056 1760.99 615.621 Q1762.82 619.162 1766.43 619.162 Q1770.06 619.162 1771.87 615.621 Q1773.7 612.056 1773.7 604.95 Q1773.7 597.82 1771.87 594.278 Q1770.06 590.714 1766.43 590.714 M1766.43 587.01 Q1772.24 587.01 1775.29 591.616 Q1778.37 596.2 1778.37 604.95 Q1778.37 613.676 1775.29 618.283 Q1772.24 622.866 1766.43 622.866 Q1760.62 622.866 1757.54 618.283 Q1754.48 613.676 1754.48 604.95 Q1754.48 596.2 1757.54 591.616 Q1760.62 587.01 1766.43 587.01 Z" fill="#000000" fill-rule="nonzero" fill-opacity="1" /><path clip-path="url(#clip590)" d="M1786.59 616.315 L1791.47 616.315 L1791.47 622.195 L1786.59 622.195 L1786.59 616.315 Z" fill="#000000" fill-rule="nonzero" fill-opacity="1" /><path clip-path="url(#clip590)" d="M1811.66 590.714 Q1808.05 590.714 1806.22 594.278 Q1804.41 597.82 1804.41 604.95 Q1804.41 612.056 1806.22 615.621 Q1808.05 619.162 1811.66 619.162 Q1815.29 619.162 1817.1 615.621 Q1818.93 612.056 1818.93 604.95 Q1818.93 597.82 1817.1 594.278 Q1815.29 590.714 1811.66 590.714 M1811.66 587.01 Q1817.47 587.01 1820.52 591.616 Q1823.6 596.2 1823.6 604.95 Q1823.6 613.676 1820.52 618.283 Q1817.47 622.866 1811.66 622.866 Q1805.85 622.866 1802.77 618.283 Q1799.71 613.676 1799.71 604.95 Q1799.71 596.2 1802.77 591.616 Q1805.85 587.01 1811.66 587.01 Z" fill="#000000" fill-rule="nonzero" fill-opacity="1" /><path clip-path="url(#clip590)" d="M1841.82 590.714 Q1838.21 590.714 1836.38 594.278 Q1834.58 597.82 1834.58 604.95 Q1834.58 612.056 1836.38 615.621 Q1838.21 619.162 1841.82 619.162 Q1845.45 619.162 1847.26 615.621 Q1849.09 612.056 1849.09 604.95 Q1849.09 597.82 1847.26 594.278 Q1845.45 590.714 1841.82 590.714 M1841.82 587.01 Q1847.63 587.01 1850.69 591.616 Q1853.76 596.2 1853.76 604.95 Q1853.76 613.676 1850.69 618.283 Q1847.63 622.866 1841.82 622.866 Q1836.01 622.866 1832.93 618.283 Q1829.88 613.676 1829.88 604.95 Q1829.88 596.2 1832.93 591.616 Q1836.01 587.01 1841.82 587.01 Z" fill="#000000" fill-rule="nonzero" fill-opacity="1" /><path clip-path="url(#clip590)" d="M2104.08 590.714 Q2100.47 590.714 2098.64 594.278 Q2096.84 597.82 2096.84 604.95 Q2096.84 612.056 2098.64 615.621 Q2100.47 619.162 2104.08 619.162 Q2107.72 619.162 2109.52 615.621 Q2111.35 612.056 2111.35 604.95 Q2111.35 597.82 2109.52 594.278 Q2107.72 590.714 2104.08 590.714 M2104.08 587.01 Q2109.89 587.01 2112.95 591.616 Q2116.03 596.2 2116.03 604.95 Q2116.03 613.676 2112.95 618.283 Q2109.89 622.866 2104.08 622.866 Q2098.27 622.866 2095.19 618.283 Q2092.14 613.676 2092.14 604.95 Q2092.14 596.2 2095.19 591.616 Q2098.27 587.01 2104.08 587.01 Z" fill="#000000" fill-rule="nonzero" fill-opacity="1" /><path clip-path="url(#clip590)" d="M2124.24 616.315 L2129.13 616.315 L2129.13 622.195 L2124.24 622.195 L2124.24 616.315 Z" fill="#000000" fill-rule="nonzero" fill-opacity="1" /><path clip-path="url(#clip590)" d="M2143.34 618.26 L2159.66 618.26 L2159.66 622.195 L2137.72 622.195 L2137.72 618.26 Q2140.38 615.505 2144.96 610.875 Q2149.57 606.223 2150.75 604.88 Q2152.99 602.357 2153.87 600.621 Q2154.78 598.862 2154.78 597.172 Q2154.78 594.417 2152.83 592.681 Q2150.91 590.945 2147.81 590.945 Q2145.61 590.945 2143.16 591.709 Q2140.73 592.473 2137.95 594.024 L2137.95 589.302 Q2140.77 588.167 2143.23 587.589 Q2145.68 587.01 2147.72 587.01 Q2153.09 587.01 2156.28 589.695 Q2159.48 592.38 2159.48 596.871 Q2159.48 599.001 2158.67 600.922 Q2157.88 602.82 2155.77 605.413 Q2155.19 606.084 2152.09 609.301 Q2148.99 612.496 2143.34 618.26 Z" fill="#000000" fill-rule="nonzero" fill-opacity="1" /><path clip-path="url(#clip590)" d="M2169.52 587.635 L2187.88 587.635 L2187.88 591.57 L2173.8 591.57 L2173.8 600.042 Q2174.82 599.695 2175.84 599.533 Q2176.86 599.348 2177.88 599.348 Q2183.67 599.348 2187.05 602.519 Q2190.43 605.69 2190.43 611.107 Q2190.43 616.686 2186.95 619.787 Q2183.48 622.866 2177.16 622.866 Q2174.99 622.866 2172.72 622.496 Q2170.47 622.125 2168.06 621.385 L2168.06 616.686 Q2170.15 617.82 2172.37 618.375 Q2174.59 618.931 2177.07 618.931 Q2181.07 618.931 2183.41 616.825 Q2185.75 614.718 2185.75 611.107 Q2185.75 607.496 2183.41 605.389 Q2181.07 603.283 2177.07 603.283 Q2175.19 603.283 2173.32 603.7 Q2171.47 604.116 2169.52 604.996 L2169.52 587.635 Z" fill="#000000" fill-rule="nonzero" fill-opacity="1" /><path clip-path="url(#clip590)" d="M2440.74 590.714 Q2437.13 590.714 2435.3 594.278 Q2433.5 597.82 2433.5 604.95 Q2433.5 612.056 2435.3 615.621 Q2437.13 619.162 2440.74 619.162 Q2444.38 619.162 2446.18 615.621 Q2448.01 612.056 2448.01 604.95 Q2448.01 597.82 2446.18 594.278 Q2444.38 590.714 2440.74 590.714 M2440.74 587.01 Q2446.55 587.01 2449.61 591.616 Q2452.69 596.2 2452.69 604.95 Q2452.69 613.676 2449.61 618.283 Q2446.55 622.866 2440.74 622.866 Q2434.93 622.866 2431.85 618.283 Q2428.8 613.676 2428.8 604.95 Q2428.8 596.2 2431.85 591.616 Q2434.93 587.01 2440.74 587.01 Z" fill="#000000" fill-rule="nonzero" fill-opacity="1" /><path clip-path="url(#clip590)" d="M2460.91 616.315 L2465.79 616.315 L2465.79 622.195 L2460.91 622.195 L2460.91 616.315 Z" fill="#000000" fill-rule="nonzero" fill-opacity="1" /><path clip-path="url(#clip590)" d="M2476.02 587.635 L2494.38 587.635 L2494.38 591.57 L2480.3 591.57 L2480.3 600.042 Q2481.32 599.695 2482.34 599.533 Q2483.36 599.348 2484.38 599.348 Q2490.16 599.348 2493.54 602.519 Q2496.92 605.69 2496.92 611.107 Q2496.92 616.686 2493.45 619.787 Q2489.98 622.866 2483.66 622.866 Q2481.48 622.866 2479.22 622.496 Q2476.97 622.125 2474.56 621.385 L2474.56 616.686 Q2476.65 617.82 2478.87 618.375 Q2481.09 618.931 2483.57 618.931 Q2487.57 618.931 2489.91 616.825 Q2492.25 614.718 2492.25 611.107 Q2492.25 607.496 2489.91 605.389 Q2487.57 603.283 2483.57 603.283 Q2481.69 603.283 2479.82 603.7 Q2477.97 604.116 2476.02 604.996 L2476.02 587.635 Z" fill="#000000" fill-rule="nonzero" fill-opacity="1" /><path clip-path="url(#clip590)" d="M2516.14 590.714 Q2512.53 590.714 2510.7 594.278 Q2508.89 597.82 2508.89 604.95 Q2508.89 612.056 2510.7 615.621 Q2512.53 619.162 2516.14 619.162 Q2519.77 619.162 2521.58 615.621 Q2523.4 612.056 2523.4 604.95 Q2523.4 597.82 2521.58 594.278 Q2519.77 590.714 2516.14 590.714 M2516.14 587.01 Q2521.95 587.01 2525 591.616 Q2528.08 596.2 2528.08 604.95 Q2528.08 613.676 2525 618.283 Q2521.95 622.866 2516.14 622.866 Q2510.33 622.866 2507.25 618.283 Q2504.19 613.676 2504.19 604.95 Q2504.19 596.2 2507.25 591.616 Q2510.33 587.01 2516.14 587.01 Z" fill="#000000" fill-rule="nonzero" fill-opacity="1" /><path clip-path="url(#clip590)" d="M2778.4 590.714 Q2774.79 590.714 2772.96 594.278 Q2771.15 597.82 2771.15 604.95 Q2771.15 612.056 2772.96 615.621 Q2774.79 619.162 2778.4 619.162 Q2782.03 619.162 2783.84 615.621 Q2785.67 612.056 2785.67 604.95 Q2785.67 597.82 2783.84 594.278 Q2782.03 590.714 2778.4 590.714 M2778.4 587.01 Q2784.21 587.01 2787.26 591.616 Q2790.34 596.2 2790.34 604.95 Q2790.34 613.676 2787.26 618.283 Q2784.21 622.866 2778.4 622.866 Q2772.59 622.866 2769.51 618.283 Q2766.45 613.676 2766.45 604.95 Q2766.45 596.2 2769.51 591.616 Q2772.59 587.01 2778.4 587.01 Z" fill="#000000" fill-rule="nonzero" fill-opacity="1" /><path clip-path="url(#clip590)" d="M2798.56 616.315 L2803.45 616.315 L2803.45 622.195 L2798.56 622.195 L2798.56 616.315 Z" fill="#000000" fill-rule="nonzero" fill-opacity="1" /><path clip-path="url(#clip590)" d="M2812.45 587.635 L2834.67 587.635 L2834.67 589.626 L2822.13 622.195 L2817.24 622.195 L2829.05 591.57 L2812.45 591.57 L2812.45 587.635 Z" fill="#000000" fill-rule="nonzero" fill-opacity="1" /><path clip-path="url(#clip590)" d="M2843.84 587.635 L2862.19 587.635 L2862.19 591.57 L2848.12 591.57 L2848.12 600.042 Q2849.14 599.695 2850.16 599.533 Q2851.18 599.348 2852.19 599.348 Q2857.98 599.348 2861.36 602.519 Q2864.74 605.69 2864.74 611.107 Q2864.74 616.686 2861.27 619.787 Q2857.8 622.866 2851.48 622.866 Q2849.3 622.866 2847.03 622.496 Q2844.79 622.125 2842.38 621.385 L2842.38 616.686 Q2844.46 617.82 2846.69 618.375 Q2848.91 618.931 2851.38 618.931 Q2855.39 618.931 2857.73 616.825 Q2860.07 614.718 2860.07 611.107 Q2860.07 607.496 2857.73 605.389 Q2855.39 603.283 2851.38 603.283 Q2849.51 603.283 2847.63 603.7 Q2845.78 604.116 2843.84 604.996 L2843.84 587.635 Z" fill="#000000" fill-rule="nonzero" fill-opacity="1" /><path clip-path="url(#clip590)" d="M3104.83 618.26 L3112.47 618.26 L3112.47 591.894 L3104.16 593.561 L3104.16 589.302 L3112.42 587.635 L3117.1 587.635 L3117.1 618.26 L3124.74 618.26 L3124.74 622.195 L3104.83 622.195 L3104.83 618.26 Z" fill="#000000" fill-rule="nonzero" fill-opacity="1" /><path clip-path="url(#clip590)" d="M3134.18 616.315 L3139.06 616.315 L3139.06 622.195 L3134.18 622.195 L3134.18 616.315 Z" fill="#000000" fill-rule="nonzero" fill-opacity="1" /><path clip-path="url(#clip590)" d="M3159.25 590.714 Q3155.64 590.714 3153.81 594.278 Q3152 597.82 3152 604.95 Q3152 612.056 3153.81 615.621 Q3155.64 619.162 3159.25 619.162 Q3162.88 619.162 3164.69 615.621 Q3166.52 612.056 3166.52 604.95 Q3166.52 597.82 3164.69 594.278 Q3162.88 590.714 3159.25 590.714 M3159.25 587.01 Q3165.06 587.01 3168.11 591.616 Q3171.19 596.2 3171.19 604.95 Q3171.19 613.676 3168.11 618.283 Q3165.06 622.866 3159.25 622.866 Q3153.44 622.866 3150.36 618.283 Q3147.3 613.676 3147.3 604.95 Q3147.3 596.2 3150.36 591.616 Q3153.44 587.01 3159.25 587.01 Z" fill="#000000" fill-rule="nonzero" fill-opacity="1" /><path clip-path="url(#clip590)" d="M3189.41 590.714 Q3185.8 590.714 3183.97 594.278 Q3182.17 597.82 3182.17 604.95 Q3182.17 612.056 3183.97 615.621 Q3185.8 619.162 3189.41 619.162 Q3193.05 619.162 3194.85 615.621 Q3196.68 612.056 3196.68 604.95 Q3196.68 597.82 3194.85 594.278 Q3193.05 590.714 3189.41 590.714 M3189.41 587.01 Q3195.22 587.01 3198.28 591.616 Q3201.36 596.2 3201.36 604.95 Q3201.36 613.676 3198.28 618.283 Q3195.22 622.866 3189.41 622.866 Q3183.6 622.866 3180.52 618.283 Q3177.47 613.676 3177.47 604.95 Q3177.47 596.2 3180.52 591.616 Q3183.6 587.01 3189.41 587.01 Z" fill="#000000" fill-rule="nonzero" fill-opacity="1" /><path clip-path="url(#clip590)" d="M2254.54 666.399 L2254.54 673.179 Q2251.3 670.155 2247.6 668.659 Q2243.94 667.163 2239.81 667.163 Q2231.66 667.163 2227.33 672.16 Q2223 677.125 2223 686.547 Q2223 695.936 2227.33 700.933 Q2231.66 705.898 2239.81 705.898 Q2243.94 705.898 2247.6 704.402 Q2251.3 702.906 2254.54 699.883 L2254.54 706.599 Q2251.17 708.89 2247.38 710.036 Q2243.62 711.182 2239.42 711.182 Q2228.63 711.182 2222.43 704.593 Q2216.22 697.973 2216.22 686.547 Q2216.22 675.088 2222.43 668.5 Q2228.63 661.879 2239.42 661.879 Q2243.69 661.879 2247.44 663.025 Q2251.23 664.139 2254.54 666.399 Z" fill="#000000" fill-rule="nonzero" fill-opacity="1" /><path clip-path="url(#clip590)" d="M2278.03 678.717 Q2273.32 678.717 2270.58 682.409 Q2267.85 686.069 2267.85 692.467 Q2267.85 698.864 2270.55 702.556 Q2273.29 706.217 2278.03 706.217 Q2282.71 706.217 2285.45 702.525 Q2288.18 698.832 2288.18 692.467 Q2288.18 686.133 2285.45 682.441 Q2282.71 678.717 2278.03 678.717 M2278.03 673.752 Q2285.67 673.752 2290.03 678.717 Q2294.39 683.682 2294.39 692.467 Q2294.39 701.22 2290.03 706.217 Q2285.67 711.182 2278.03 711.182 Q2270.36 711.182 2266 706.217 Q2261.67 701.22 2261.67 692.467 Q2261.67 683.682 2266 678.717 Q2270.36 673.752 2278.03 673.752 Z" fill="#000000" fill-rule="nonzero" fill-opacity="1" /><path clip-path="url(#clip590)" d="M2333.73 688.743 L2333.73 710.259 L2327.88 710.259 L2327.88 688.934 Q2327.88 683.873 2325.9 681.359 Q2323.93 678.844 2319.98 678.844 Q2315.24 678.844 2312.5 681.868 Q2309.76 684.892 2309.76 690.111 L2309.76 710.259 L2303.88 710.259 L2303.88 674.611 L2309.76 674.611 L2309.76 680.149 Q2311.87 676.934 2314.7 675.343 Q2317.56 673.752 2321.29 673.752 Q2327.43 673.752 2330.58 677.571 Q2333.73 681.359 2333.73 688.743 Z" fill="#000000" fill-rule="nonzero" fill-opacity="1" /><path clip-path="url(#clip590)" d="M2341.21 674.611 L2347.42 674.611 L2358.56 704.53 L2369.7 674.611 L2375.9 674.611 L2362.54 710.259 L2354.58 710.259 L2341.21 674.611 Z" fill="#000000" fill-rule="nonzero" fill-opacity="1" /><path clip-path="url(#clip590)" d="M2414.48 690.971 L2414.48 693.835 L2387.55 693.835 Q2387.94 699.883 2391.18 703.066 Q2394.46 706.217 2400.28 706.217 Q2403.66 706.217 2406.81 705.389 Q2409.99 704.562 2413.11 702.906 L2413.11 708.445 Q2409.96 709.781 2406.65 710.482 Q2403.34 711.182 2399.93 711.182 Q2391.4 711.182 2386.41 706.217 Q2381.44 701.251 2381.44 692.785 Q2381.44 684.032 2386.15 678.908 Q2390.9 673.752 2398.92 673.752 Q2406.11 673.752 2410.28 678.398 Q2414.48 683.014 2414.48 690.971 M2408.62 689.252 Q2408.56 684.446 2405.92 681.581 Q2403.31 678.717 2398.98 678.717 Q2394.08 678.717 2391.12 681.486 Q2388.19 684.255 2387.74 689.284 L2408.62 689.252 Z" fill="#000000" fill-rule="nonzero" fill-opacity="1" /><path clip-path="url(#clip590)" d="M2449.75 675.98 L2449.75 681.454 Q2447.26 680.085 2444.75 679.417 Q2442.27 678.717 2439.72 678.717 Q2434.02 678.717 2430.87 682.345 Q2427.72 685.942 2427.72 692.467 Q2427.72 698.992 2430.87 702.62 Q2434.02 706.217 2439.72 706.217 Q2442.27 706.217 2444.75 705.548 Q2447.26 704.848 2449.75 703.479 L2449.75 708.89 Q2447.3 710.036 2444.65 710.609 Q2442.04 711.182 2439.08 711.182 Q2431.03 711.182 2426.29 706.121 Q2421.55 701.06 2421.55 692.467 Q2421.55 683.746 2426.32 678.749 Q2431.13 673.752 2439.47 673.752 Q2442.17 673.752 2444.75 674.324 Q2447.33 674.866 2449.75 675.98 Z" fill="#000000" fill-rule="nonzero" fill-opacity="1" /><path clip-path="url(#clip590)" d="M2465.72 664.489 L2465.72 674.611 L2477.79 674.611 L2477.79 679.162 L2465.72 679.162 L2465.72 698.514 Q2465.72 702.875 2466.9 704.116 Q2468.11 705.357 2471.77 705.357 L2477.79 705.357 L2477.79 710.259 L2471.77 710.259 Q2464.99 710.259 2462.41 707.744 Q2459.84 705.198 2459.84 698.514 L2459.84 679.162 L2455.54 679.162 L2455.54 674.611 L2459.84 674.611 L2459.84 664.489 L2465.72 664.489 Z" fill="#000000" fill-rule="nonzero" fill-opacity="1" /><path clip-path="url(#clip590)" d="M2485.49 674.611 L2491.35 674.611 L2491.35 710.259 L2485.49 710.259 L2485.49 674.611 M2485.49 660.734 L2491.35 660.734 L2491.35 668.15 L2485.49 668.15 L2485.49 660.734 Z" fill="#000000" fill-rule="nonzero" fill-opacity="1" /><path clip-path="url(#clip590)" d="M2499.4 674.611 L2505.61 674.611 L2516.75 704.53 L2527.89 674.611 L2534.09 674.611 L2520.72 710.259 L2512.77 710.259 L2499.4 674.611 Z" fill="#000000" fill-rule="nonzero" fill-opacity="1" /><path clip-path="url(#clip590)" d="M2572.67 690.971 L2572.67 693.835 L2545.74 693.835 Q2546.12 699.883 2549.37 703.066 Q2552.65 706.217 2558.47 706.217 Q2561.85 706.217 2565 705.389 Q2568.18 704.562 2571.3 702.906 L2571.3 708.445 Q2568.15 709.781 2564.84 710.482 Q2561.53 711.182 2558.12 711.182 Q2549.59 711.182 2544.6 706.217 Q2539.63 701.251 2539.63 692.785 Q2539.63 684.032 2544.34 678.908 Q2549.08 673.752 2557.1 673.752 Q2564.3 673.752 2568.47 678.398 Q2572.67 683.014 2572.67 690.971 M2566.81 689.252 Q2566.75 684.446 2564.11 681.581 Q2561.5 678.717 2557.17 678.717 Q2552.27 678.717 2549.31 681.486 Q2546.38 684.255 2545.93 689.284 L2566.81 689.252 Z" fill="#000000" fill-rule="nonzero" fill-opacity="1" /><path clip-path="url(#clip590)" d="M2608.79 664.489 L2608.79 674.611 L2620.86 674.611 L2620.86 679.162 L2608.79 679.162 L2608.79 698.514 Q2608.79 702.875 2609.97 704.116 Q2611.18 705.357 2614.84 705.357 L2620.86 705.357 L2620.86 710.259 L2614.84 710.259 Q2608.06 710.259 2605.48 707.744 Q2602.91 705.198 2602.91 698.514 L2602.91 679.162 L2598.61 679.162 L2598.61 674.611 L2602.91 674.611 L2602.91 664.489 L2608.79 664.489 Z" fill="#000000" fill-rule="nonzero" fill-opacity="1" /><path clip-path="url(#clip590)" d="M2628.56 674.611 L2634.42 674.611 L2634.42 710.259 L2628.56 710.259 L2628.56 674.611 M2628.56 660.734 L2634.42 660.734 L2634.42 668.15 L2628.56 668.15 L2628.56 660.734 Z" fill="#000000" fill-rule="nonzero" fill-opacity="1" /><path clip-path="url(#clip590)" d="M2674.42 681.454 Q2676.62 677.507 2679.68 675.629 Q2682.73 673.752 2686.87 673.752 Q2692.44 673.752 2695.46 677.666 Q2698.49 681.55 2698.49 688.743 L2698.49 710.259 L2692.6 710.259 L2692.6 688.934 Q2692.6 683.809 2690.78 681.327 Q2688.97 678.844 2685.25 678.844 Q2680.69 678.844 2678.05 681.868 Q2675.41 684.892 2675.41 690.111 L2675.41 710.259 L2669.52 710.259 L2669.52 688.934 Q2669.52 683.778 2667.71 681.327 Q2665.89 678.844 2662.11 678.844 Q2657.62 678.844 2654.98 681.9 Q2652.34 684.923 2652.34 690.111 L2652.34 710.259 L2646.45 710.259 L2646.45 674.611 L2652.34 674.611 L2652.34 680.149 Q2654.34 676.871 2657.14 675.311 Q2659.94 673.752 2663.79 673.752 Q2667.68 673.752 2670.38 675.725 Q2673.12 677.698 2674.42 681.454 Z" fill="#000000" fill-rule="nonzero" fill-opacity="1" /><path clip-path="url(#clip590)" d="M2740.66 690.971 L2740.66 693.835 L2713.73 693.835 Q2714.11 699.883 2717.36 703.066 Q2720.64 706.217 2726.46 706.217 Q2729.84 706.217 2732.99 705.389 Q2736.17 704.562 2739.29 702.906 L2739.29 708.445 Q2736.14 709.781 2732.83 710.482 Q2729.52 711.182 2726.11 711.182 Q2717.58 711.182 2712.59 706.217 Q2707.62 701.251 2707.62 692.785 Q2707.62 684.032 2712.33 678.908 Q2717.07 673.752 2725.1 673.752 Q2732.29 673.752 2736.46 678.398 Q2740.66 683.014 2740.66 690.971 M2734.8 689.252 Q2734.74 684.446 2732.1 681.581 Q2729.49 678.717 2725.16 678.717 Q2720.26 678.717 2717.3 681.486 Q2714.37 684.255 2713.92 689.284 L2734.8 689.252 Z" fill="#000000" fill-rule="nonzero" fill-opacity="1" /><polyline clip-path="url(#clip593)" style="stroke:#000000; stroke-linecap:round; stroke-linejoin:round; stroke-width:2; stroke-opacity:0.1; fill:none" points="1804.12,553.395 3152.76,553.395 "/>
<polyline clip-path="url(#clip593)" style="stroke:#000000; stroke-linecap:round; stroke-linejoin:round; stroke-width:2; stroke-opacity:0.1; fill:none" points="1804.12,426.857 3152.76,426.857 "/>
<polyline clip-path="url(#clip593)" style="stroke:#000000; stroke-linecap:round; stroke-linejoin:round; stroke-width:2; stroke-opacity:0.1; fill:none" points="1804.12,300.319 3152.76,300.319 "/>
<polyline clip-path="url(#clip593)" style="stroke:#000000; stroke-linecap:round; stroke-linejoin:round; stroke-width:2; stroke-opacity:0.1; fill:none" points="1804.12,173.782 3152.76,173.782 "/>
<polyline clip-path="url(#clip593)" style="stroke:#000000; stroke-linecap:round; stroke-linejoin:round; stroke-width:2; stroke-opacity:0.1; fill:none" points="1804.12,47.2441 3152.76,47.2441 "/>
<polyline clip-path="url(#clip590)" style="stroke:#000000; stroke-linecap:round; stroke-linejoin:round; stroke-width:4; stroke-opacity:1; fill:none" points="1804.12,553.395 1804.12,47.2441 "/>
<polyline clip-path="url(#clip590)" style="stroke:#000000; stroke-linecap:round; stroke-linejoin:round; stroke-width:4; stroke-opacity:1; fill:none" points="1804.12,553.395 1823.02,553.395 "/>
<polyline clip-path="url(#clip590)" style="stroke:#000000; stroke-linecap:round; stroke-linejoin:round; stroke-width:4; stroke-opacity:1; fill:none" points="1804.12,426.857 1823.02,426.857 "/>
<polyline clip-path="url(#clip590)" style="stroke:#000000; stroke-linecap:round; stroke-linejoin:round; stroke-width:4; stroke-opacity:1; fill:none" points="1804.12,300.319 1823.02,300.319 "/>
<polyline clip-path="url(#clip590)" style="stroke:#000000; stroke-linecap:round; stroke-linejoin:round; stroke-width:4; stroke-opacity:1; fill:none" points="1804.12,173.782 1823.02,173.782 "/>
<polyline clip-path="url(#clip590)" style="stroke:#000000; stroke-linecap:round; stroke-linejoin:round; stroke-width:4; stroke-opacity:1; fill:none" points="1804.12,47.2441 1823.02,47.2441 "/>
<path clip-path="url(#clip590)" d="M1693.93 553.846 L1723.6 553.846 L1723.6 557.781 L1693.93 557.781 L1693.93 553.846 Z" fill="#000000" fill-rule="nonzero" fill-opacity="1" /><path clip-path="url(#clip590)" d="M1746.54 540.189 L1734.74 558.638 L1746.54 558.638 L1746.54 540.189 M1745.31 536.115 L1751.19 536.115 L1751.19 558.638 L1756.12 558.638 L1756.12 562.527 L1751.19 562.527 L1751.19 570.675 L1746.54 570.675 L1746.54 562.527 L1730.94 562.527 L1730.94 558.013 L1745.31 536.115 Z" fill="#000000" fill-rule="nonzero" fill-opacity="1" /><path clip-path="url(#clip590)" d="M1696.01 427.309 L1725.68 427.309 L1725.68 431.244 L1696.01 431.244 L1696.01 427.309 Z" fill="#000000" fill-rule="nonzero" fill-opacity="1" /><path clip-path="url(#clip590)" d="M1739.8 440.202 L1756.12 440.202 L1756.12 444.137 L1734.18 444.137 L1734.18 440.202 Q1736.84 437.447 1741.42 432.818 Q1746.03 428.165 1747.21 426.822 Q1749.46 424.299 1750.34 422.563 Q1751.24 420.804 1751.24 419.114 Q1751.24 416.36 1749.3 414.623 Q1747.37 412.887 1744.27 412.887 Q1742.07 412.887 1739.62 413.651 Q1737.19 414.415 1734.41 415.966 L1734.41 411.244 Q1737.24 410.11 1739.69 409.531 Q1742.14 408.952 1744.18 408.952 Q1749.55 408.952 1752.74 411.637 Q1755.94 414.323 1755.94 418.813 Q1755.94 420.943 1755.13 422.864 Q1754.34 424.762 1752.24 427.355 Q1751.66 428.026 1748.55 431.244 Q1745.45 434.438 1739.8 440.202 Z" fill="#000000" fill-rule="nonzero" fill-opacity="1" /><path clip-path="url(#clip590)" d="M1744.18 286.118 Q1740.57 286.118 1738.74 289.683 Q1736.93 293.225 1736.93 300.354 Q1736.93 307.461 1738.74 311.025 Q1740.57 314.567 1744.18 314.567 Q1747.81 314.567 1749.62 311.025 Q1751.45 307.461 1751.45 300.354 Q1751.45 293.225 1749.62 289.683 Q1747.81 286.118 1744.18 286.118 M1744.18 282.414 Q1749.99 282.414 1753.05 287.021 Q1756.12 291.604 1756.12 300.354 Q1756.12 309.081 1753.05 313.687 Q1749.99 318.271 1744.18 318.271 Q1738.37 318.271 1735.29 313.687 Q1732.24 309.081 1732.24 300.354 Q1732.24 291.604 1735.29 287.021 Q1738.37 282.414 1744.18 282.414 Z" fill="#000000" fill-rule="nonzero" fill-opacity="1" /><path clip-path="url(#clip590)" d="M1739.8 187.127 L1756.12 187.127 L1756.12 191.062 L1734.18 191.062 L1734.18 187.127 Q1736.84 184.372 1741.42 179.742 Q1746.03 175.09 1747.21 173.747 Q1749.46 171.224 1750.34 169.488 Q1751.24 167.729 1751.24 166.039 Q1751.24 163.284 1749.3 161.548 Q1747.37 159.812 1744.27 159.812 Q1742.07 159.812 1739.62 160.576 Q1737.19 161.34 1734.41 162.891 L1734.41 158.168 Q1737.24 157.034 1739.69 156.455 Q1742.14 155.877 1744.18 155.877 Q1749.55 155.877 1752.74 158.562 Q1755.94 161.247 1755.94 165.738 Q1755.94 167.867 1755.13 169.789 Q1754.34 171.687 1752.24 174.279 Q1751.66 174.951 1748.55 178.168 Q1745.45 181.363 1739.8 187.127 Z" fill="#000000" fill-rule="nonzero" fill-opacity="1" /><path clip-path="url(#clip590)" d="M1746.54 34.0381 L1734.74 52.4871 L1746.54 52.4871 L1746.54 34.0381 M1745.31 29.9641 L1751.19 29.9641 L1751.19 52.4871 L1756.12 52.4871 L1756.12 56.376 L1751.19 56.376 L1751.19 64.5241 L1746.54 64.5241 L1746.54 56.376 L1730.94 56.376 L1730.94 51.8621 L1745.31 29.9641 Z" fill="#000000" fill-rule="nonzero" fill-opacity="1" /><path clip-path="url(#clip590)" d="M1584.52 297.512 L1601.33 301.667 Q1602.39 301.957 1602.52 302.15 Q1602.65 302.311 1602.65 302.826 Q1602.65 303.825 1601.97 303.825 Q1601.91 303.825 1601.07 303.728 Q1600.2 303.631 1598.62 303.631 Q1592.79 303.631 1589.35 306.466 Q1585.9 309.267 1585.9 314.259 Q1585.9 318.575 1588.09 322.923 Q1590.28 327.238 1593.85 330.33 Q1596.56 332.649 1599.97 334.356 Q1603.39 336.031 1606.51 336.836 Q1609.64 337.609 1611.99 337.963 Q1614.34 338.317 1616.04 338.317 Q1618.52 338.317 1620.62 337.802 Q1622.71 337.254 1624.19 336.288 Q1625.64 335.322 1626.77 334.098 Q1627.86 332.842 1628.51 331.393 Q1629.15 329.911 1629.47 328.43 Q1629.76 326.949 1629.76 325.403 Q1629.76 319.187 1624.93 313.261 Q1620.97 308.559 1614.5 306.594 Q1613.85 306.433 1613.85 305.757 Q1613.85 304.952 1614.5 304.952 Q1614.63 304.952 1615.27 305.113 Q1615.88 305.274 1617.14 305.757 Q1618.36 306.24 1619.75 306.981 Q1621.13 307.722 1622.87 309.106 Q1624.61 310.491 1626.13 312.198 Q1628.64 315.097 1630.22 318.768 Q1631.79 322.44 1631.79 326.465 Q1631.79 331.49 1629.57 335.547 Q1627.35 339.605 1623.19 341.989 Q1619.04 344.34 1613.73 344.34 Q1608.12 344.34 1602.61 341.763 Q1597.11 339.187 1593.02 335.097 Q1588.93 331.006 1586.38 325.596 Q1583.84 320.185 1583.84 314.775 Q1583.84 312.714 1584.39 310.878 Q1584.93 309.042 1585.61 307.947 Q1586.29 306.82 1587.28 305.821 Q1588.25 304.823 1588.7 304.501 Q1589.15 304.147 1589.7 303.825 L1584.64 299.219 Q1583.84 298.414 1583.84 298.221 Q1583.84 297.834 1584.06 297.673 Q1584.29 297.512 1584.52 297.512 Z" fill="#000000" fill-rule="nonzero" fill-opacity="1" /><path clip-path="url(#clip590)" d="M1639.12 263.058 Q1639.25 263.058 1639.77 263.239 L1649.73 266.891 Q1650.32 267.094 1650.43 267.297 Q1650.52 267.5 1650.52 268.334 L1650.52 289.706 Q1650.52 290.224 1650.5 290.427 Q1650.48 290.63 1650.37 290.788 Q1650.25 290.946 1650.01 290.946 Q1649.55 290.946 1649.35 290.788 Q1649.15 290.607 1649.13 290.404 Q1649.1 290.202 1649.1 289.706 Q1649.1 288.578 1649.04 287.902 Q1648.97 287.226 1648.88 286.797 Q1648.77 286.347 1648.45 286.121 Q1648.13 285.873 1647.86 285.76 Q1647.57 285.648 1646.92 285.49 L1622.12 279.313 Q1621.37 279.132 1621.26 279.132 Q1620.83 279.132 1620.72 279.403 Q1620.59 279.651 1620.52 280.372 L1620.43 282.131 Q1620.43 282.672 1620.41 282.897 Q1620.38 283.1 1620.27 283.258 Q1620.16 283.416 1619.91 283.416 Q1619.48 283.416 1619.28 283.258 Q1619.05 283.078 1619.03 282.942 Q1618.98 282.785 1618.98 282.537 L1619.12 276.405 L1618.98 269.574 Q1618.98 268.83 1619.55 268.83 Q1620.18 268.83 1620.31 269.145 Q1620.43 269.461 1620.43 270.588 Q1620.43 272.752 1620.65 273.744 Q1620.88 274.714 1621.26 274.984 Q1621.62 275.232 1622.59 275.48 L1647.53 281.725 Q1648.36 281.95 1648.59 281.95 Q1648.83 281.95 1648.92 281.838 Q1648.99 281.702 1649.04 281.342 Q1649.1 280.936 1649.1 280.327 L1649.1 275.999 Q1649.1 274.691 1648.9 273.541 Q1648.7 272.392 1648.4 271.512 Q1648.11 270.611 1647.57 269.799 Q1647.03 268.988 1646.56 268.424 Q1646.06 267.838 1645.29 267.274 Q1644.5 266.688 1643.96 266.35 Q1643.4 265.989 1642.5 265.583 Q1641.57 265.178 1641.06 264.975 Q1640.51 264.749 1639.59 264.411 Q1639.12 264.208 1638.98 264.141 Q1638.85 264.073 1638.73 263.96 Q1638.62 263.825 1638.62 263.622 Q1638.62 263.352 1638.78 263.216 Q1638.94 263.058 1639.12 263.058 Z" fill="#000000" fill-rule="nonzero" fill-opacity="1" /><polyline clip-path="url(#clip593)" style="stroke:#009af9; stroke-linecap:round; stroke-linejoin:round; stroke-width:4; stroke-opacity:1; fill:none" points="1804.12,300.319 1817.61,-4491.97 1831.1,321.389 1844.58,321.197 1858.07,321.032 1871.56,320.951 1885.04,320.93 1898.53,320.945 1912.01,320.992 1925.5,321.075 1938.99,321.197 1952.47,321.355 1965.96,321.543 1979.45,321.756 1992.93,321.99 2006.42,322.24 2019.91,322.505 2033.39,322.783 2046.88,323.071 2060.36,323.369 2073.85,323.675 2087.34,323.99 2100.82,324.311 2114.31,324.639 2127.8,324.972 2141.28,325.312 2154.77,325.657 2168.25,326.008 2181.74,326.364 2195.23,326.725 2208.71,327.092 2222.2,327.466 2235.69,327.845 2249.17,328.23 2262.66,328.623 2276.15,329.022 2289.63,329.43 2303.12,329.844 2316.6,330.268 2330.09,330.7 2343.58,331.141 2357.06,331.591 2370.55,332.052 2384.04,332.522 2397.52,333.003 2411.01,333.495 2424.49,333.998 2437.98,334.513 2451.47,335.039 2464.95,335.577 2478.44,336.126 2491.93,336.688 2505.41,337.262 2518.9,337.847 2532.39,338.445 2545.87,339.055 2559.36,339.677 2572.84,340.31 2586.33,340.956 2599.82,341.612 2613.3,342.28 2626.79,342.959 2640.28,343.649 2653.76,344.349 2667.25,345.06 2680.73,345.78 2694.22,346.509 2707.71,347.247 2721.19,347.994 2734.68,348.749 2748.17,349.511 2761.65,350.28 2775.14,351.056 2788.63,351.839 2802.11,352.626 2815.6,353.419 2829.08,354.216 2842.57,355.018 2856.06,355.823 2869.54,356.631 2883.03,357.441 2896.52,358.253 2910,359.067 2923.49,359.882 2936.97,360.697 2950.46,361.512 2963.95,362.326 2977.43,363.14 2990.92,363.951 3004.41,364.761 3017.89,365.569 3031.38,366.374 3044.87,367.175 3058.35,367.973 3071.84,368.767 3085.32,369.556 3098.81,370.34 3112.3,371.12 3125.78,371.894 3139.27,372.661 3152.76,373.423 "/>
<path clip-path="url(#clip590)" d="M204.124 1253.39 L1552.76 1253.39 L1552.76 747.244 L204.124 747.244  Z" fill="#ffffff" fill-rule="evenodd" fill-opacity="1"/>
<defs>
  <clipPath id="clip594">
    <rect x="204" y="747" width="1350" height="507"/>
  </clipPath>
</defs>
<polyline clip-path="url(#clip594)" style="stroke:#000000; stroke-linecap:round; stroke-linejoin:round; stroke-width:2; stroke-opacity:0.1; fill:none" points="204.124,1253.39 204.124,747.244 "/>
<polyline clip-path="url(#clip594)" style="stroke:#000000; stroke-linecap:round; stroke-linejoin:round; stroke-width:2; stroke-opacity:0.1; fill:none" points="541.282,1253.39 541.282,747.244 "/>
<polyline clip-path="url(#clip594)" style="stroke:#000000; stroke-linecap:round; stroke-linejoin:round; stroke-width:2; stroke-opacity:0.1; fill:none" points="878.44,1253.39 878.44,747.244 "/>
<polyline clip-path="url(#clip594)" style="stroke:#000000; stroke-linecap:round; stroke-linejoin:round; stroke-width:2; stroke-opacity:0.1; fill:none" points="1215.6,1253.39 1215.6,747.244 "/>
<polyline clip-path="url(#clip594)" style="stroke:#000000; stroke-linecap:round; stroke-linejoin:round; stroke-width:2; stroke-opacity:0.1; fill:none" points="1552.76,1253.39 1552.76,747.244 "/>
<polyline clip-path="url(#clip590)" style="stroke:#000000; stroke-linecap:round; stroke-linejoin:round; stroke-width:4; stroke-opacity:1; fill:none" points="204.124,1253.39 1552.76,1253.39 "/>
<polyline clip-path="url(#clip590)" style="stroke:#000000; stroke-linecap:round; stroke-linejoin:round; stroke-width:4; stroke-opacity:1; fill:none" points="204.124,1253.39 204.124,1234.5 "/>
<polyline clip-path="url(#clip590)" style="stroke:#000000; stroke-linecap:round; stroke-linejoin:round; stroke-width:4; stroke-opacity:1; fill:none" points="541.282,1253.39 541.282,1234.5 "/>
<polyline clip-path="url(#clip590)" style="stroke:#000000; stroke-linecap:round; stroke-linejoin:round; stroke-width:4; stroke-opacity:1; fill:none" points="878.44,1253.39 878.44,1234.5 "/>
<polyline clip-path="url(#clip590)" style="stroke:#000000; stroke-linecap:round; stroke-linejoin:round; stroke-width:4; stroke-opacity:1; fill:none" points="1215.6,1253.39 1215.6,1234.5 "/>
<polyline clip-path="url(#clip590)" style="stroke:#000000; stroke-linecap:round; stroke-linejoin:round; stroke-width:4; stroke-opacity:1; fill:none" points="1552.76,1253.39 1552.76,1234.5 "/>
<path clip-path="url(#clip590)" d="M166.427 1290.71 Q162.816 1290.71 160.988 1294.28 Q159.182 1297.82 159.182 1304.95 Q159.182 1312.06 160.988 1315.62 Q162.816 1319.16 166.427 1319.16 Q170.062 1319.16 171.867 1315.62 Q173.696 1312.06 173.696 1304.95 Q173.696 1297.82 171.867 1294.28 Q170.062 1290.71 166.427 1290.71 M166.427 1287.01 Q172.237 1287.01 175.293 1291.62 Q178.372 1296.2 178.372 1304.95 Q178.372 1313.68 175.293 1318.28 Q172.237 1322.87 166.427 1322.87 Q160.617 1322.87 157.538 1318.28 Q154.483 1313.68 154.483 1304.95 Q154.483 1296.2 157.538 1291.62 Q160.617 1287.01 166.427 1287.01 Z" fill="#000000" fill-rule="nonzero" fill-opacity="1" /><path clip-path="url(#clip590)" d="M186.589 1316.32 L191.474 1316.32 L191.474 1322.19 L186.589 1322.19 L186.589 1316.32 Z" fill="#000000" fill-rule="nonzero" fill-opacity="1" /><path clip-path="url(#clip590)" d="M211.659 1290.71 Q208.047 1290.71 206.219 1294.28 Q204.413 1297.82 204.413 1304.95 Q204.413 1312.06 206.219 1315.62 Q208.047 1319.16 211.659 1319.16 Q215.293 1319.16 217.098 1315.62 Q218.927 1312.06 218.927 1304.95 Q218.927 1297.82 217.098 1294.28 Q215.293 1290.71 211.659 1290.71 M211.659 1287.01 Q217.469 1287.01 220.524 1291.62 Q223.603 1296.2 223.603 1304.95 Q223.603 1313.68 220.524 1318.28 Q217.469 1322.87 211.659 1322.87 Q205.848 1322.87 202.77 1318.28 Q199.714 1313.68 199.714 1304.95 Q199.714 1296.2 202.77 1291.62 Q205.848 1287.01 211.659 1287.01 Z" fill="#000000" fill-rule="nonzero" fill-opacity="1" /><path clip-path="url(#clip590)" d="M241.82 1290.71 Q238.209 1290.71 236.381 1294.28 Q234.575 1297.82 234.575 1304.95 Q234.575 1312.06 236.381 1315.62 Q238.209 1319.16 241.82 1319.16 Q245.455 1319.16 247.26 1315.62 Q249.089 1312.06 249.089 1304.95 Q249.089 1297.82 247.26 1294.28 Q245.455 1290.71 241.82 1290.71 M241.82 1287.01 Q247.631 1287.01 250.686 1291.62 Q253.765 1296.2 253.765 1304.95 Q253.765 1313.68 250.686 1318.28 Q247.631 1322.87 241.82 1322.87 Q236.01 1322.87 232.932 1318.28 Q229.876 1313.68 229.876 1304.95 Q229.876 1296.2 232.932 1291.62 Q236.01 1287.01 241.82 1287.01 Z" fill="#000000" fill-rule="nonzero" fill-opacity="1" /><path clip-path="url(#clip590)" d="M504.083 1290.71 Q500.472 1290.71 498.643 1294.28 Q496.838 1297.82 496.838 1304.95 Q496.838 1312.06 498.643 1315.62 Q500.472 1319.16 504.083 1319.16 Q507.717 1319.16 509.523 1315.62 Q511.352 1312.06 511.352 1304.95 Q511.352 1297.82 509.523 1294.28 Q507.717 1290.71 504.083 1290.71 M504.083 1287.01 Q509.893 1287.01 512.949 1291.62 Q516.027 1296.2 516.027 1304.95 Q516.027 1313.68 512.949 1318.28 Q509.893 1322.87 504.083 1322.87 Q498.273 1322.87 495.194 1318.28 Q492.139 1313.68 492.139 1304.95 Q492.139 1296.2 495.194 1291.62 Q498.273 1287.01 504.083 1287.01 Z" fill="#000000" fill-rule="nonzero" fill-opacity="1" /><path clip-path="url(#clip590)" d="M524.245 1316.32 L529.129 1316.32 L529.129 1322.19 L524.245 1322.19 L524.245 1316.32 Z" fill="#000000" fill-rule="nonzero" fill-opacity="1" /><path clip-path="url(#clip590)" d="M543.342 1318.26 L559.661 1318.26 L559.661 1322.19 L537.717 1322.19 L537.717 1318.26 Q540.379 1315.51 544.962 1310.88 Q549.569 1306.22 550.749 1304.88 Q552.995 1302.36 553.874 1300.62 Q554.777 1298.86 554.777 1297.17 Q554.777 1294.42 552.833 1292.68 Q550.911 1290.95 547.81 1290.95 Q545.611 1290.95 543.157 1291.71 Q540.726 1292.47 537.949 1294.02 L537.949 1289.3 Q540.773 1288.17 543.226 1287.59 Q545.68 1287.01 547.717 1287.01 Q553.087 1287.01 556.282 1289.7 Q559.476 1292.38 559.476 1296.87 Q559.476 1299 558.666 1300.92 Q557.879 1302.82 555.773 1305.41 Q555.194 1306.08 552.092 1309.3 Q548.99 1312.5 543.342 1318.26 Z" fill="#000000" fill-rule="nonzero" fill-opacity="1" /><path clip-path="url(#clip590)" d="M569.522 1287.63 L587.879 1287.63 L587.879 1291.57 L573.805 1291.57 L573.805 1300.04 Q574.823 1299.69 575.842 1299.53 Q576.86 1299.35 577.879 1299.35 Q583.666 1299.35 587.046 1302.52 Q590.425 1305.69 590.425 1311.11 Q590.425 1316.69 586.953 1319.79 Q583.481 1322.87 577.161 1322.87 Q574.985 1322.87 572.717 1322.5 Q570.472 1322.13 568.064 1321.38 L568.064 1316.69 Q570.147 1317.82 572.37 1318.38 Q574.592 1318.93 577.069 1318.93 Q581.073 1318.93 583.411 1316.82 Q585.749 1314.72 585.749 1311.11 Q585.749 1307.5 583.411 1305.39 Q581.073 1303.28 577.069 1303.28 Q575.194 1303.28 573.319 1303.7 Q571.467 1304.12 569.522 1305 L569.522 1287.63 Z" fill="#000000" fill-rule="nonzero" fill-opacity="1" /><path clip-path="url(#clip590)" d="M840.743 1290.71 Q837.132 1290.71 835.304 1294.28 Q833.498 1297.82 833.498 1304.95 Q833.498 1312.06 835.304 1315.62 Q837.132 1319.16 840.743 1319.16 Q844.378 1319.16 846.183 1315.62 Q848.012 1312.06 848.012 1304.95 Q848.012 1297.82 846.183 1294.28 Q844.378 1290.71 840.743 1290.71 M840.743 1287.01 Q846.553 1287.01 849.609 1291.62 Q852.688 1296.2 852.688 1304.95 Q852.688 1313.68 849.609 1318.28 Q846.553 1322.87 840.743 1322.87 Q834.933 1322.87 831.855 1318.28 Q828.799 1313.68 828.799 1304.95 Q828.799 1296.2 831.855 1291.62 Q834.933 1287.01 840.743 1287.01 Z" fill="#000000" fill-rule="nonzero" fill-opacity="1" /><path clip-path="url(#clip590)" d="M860.905 1316.32 L865.79 1316.32 L865.79 1322.19 L860.905 1322.19 L860.905 1316.32 Z" fill="#000000" fill-rule="nonzero" fill-opacity="1" /><path clip-path="url(#clip590)" d="M876.021 1287.63 L894.377 1287.63 L894.377 1291.57 L880.303 1291.57 L880.303 1300.04 Q881.322 1299.69 882.34 1299.53 Q883.359 1299.35 884.377 1299.35 Q890.164 1299.35 893.544 1302.52 Q896.924 1305.69 896.924 1311.11 Q896.924 1316.69 893.451 1319.79 Q889.979 1322.87 883.66 1322.87 Q881.484 1322.87 879.215 1322.5 Q876.97 1322.13 874.563 1321.38 L874.563 1316.69 Q876.646 1317.82 878.868 1318.38 Q881.09 1318.93 883.567 1318.93 Q887.572 1318.93 889.91 1316.82 Q892.248 1314.72 892.248 1311.11 Q892.248 1307.5 889.91 1305.39 Q887.572 1303.28 883.567 1303.28 Q881.692 1303.28 879.817 1303.7 Q877.965 1304.12 876.021 1305 L876.021 1287.63 Z" fill="#000000" fill-rule="nonzero" fill-opacity="1" /><path clip-path="url(#clip590)" d="M916.136 1290.71 Q912.525 1290.71 910.697 1294.28 Q908.891 1297.82 908.891 1304.95 Q908.891 1312.06 910.697 1315.62 Q912.525 1319.16 916.136 1319.16 Q919.771 1319.16 921.576 1315.62 Q923.405 1312.06 923.405 1304.95 Q923.405 1297.82 921.576 1294.28 Q919.771 1290.71 916.136 1290.71 M916.136 1287.01 Q921.947 1287.01 925.002 1291.62 Q928.081 1296.2 928.081 1304.95 Q928.081 1313.68 925.002 1318.28 Q921.947 1322.87 916.136 1322.87 Q910.326 1322.87 907.248 1318.28 Q904.192 1313.68 904.192 1304.95 Q904.192 1296.2 907.248 1291.62 Q910.326 1287.01 916.136 1287.01 Z" fill="#000000" fill-rule="nonzero" fill-opacity="1" /><path clip-path="url(#clip590)" d="M1178.4 1290.71 Q1174.79 1290.71 1172.96 1294.28 Q1171.15 1297.82 1171.15 1304.95 Q1171.15 1312.06 1172.96 1315.62 Q1174.79 1319.16 1178.4 1319.16 Q1182.03 1319.16 1183.84 1315.62 Q1185.67 1312.06 1185.67 1304.95 Q1185.67 1297.82 1183.84 1294.28 Q1182.03 1290.71 1178.4 1290.71 M1178.4 1287.01 Q1184.21 1287.01 1187.26 1291.62 Q1190.34 1296.2 1190.34 1304.95 Q1190.34 1313.68 1187.26 1318.28 Q1184.21 1322.87 1178.4 1322.87 Q1172.59 1322.87 1169.51 1318.28 Q1166.45 1313.68 1166.45 1304.95 Q1166.45 1296.2 1169.51 1291.62 Q1172.59 1287.01 1178.4 1287.01 Z" fill="#000000" fill-rule="nonzero" fill-opacity="1" /><path clip-path="url(#clip590)" d="M1198.56 1316.32 L1203.45 1316.32 L1203.45 1322.19 L1198.56 1322.19 L1198.56 1316.32 Z" fill="#000000" fill-rule="nonzero" fill-opacity="1" /><path clip-path="url(#clip590)" d="M1212.45 1287.63 L1234.67 1287.63 L1234.67 1289.63 L1222.13 1322.19 L1217.24 1322.19 L1229.05 1291.57 L1212.45 1291.57 L1212.45 1287.63 Z" fill="#000000" fill-rule="nonzero" fill-opacity="1" /><path clip-path="url(#clip590)" d="M1243.84 1287.63 L1262.19 1287.63 L1262.19 1291.57 L1248.12 1291.57 L1248.12 1300.04 Q1249.14 1299.69 1250.16 1299.53 Q1251.18 1299.35 1252.19 1299.35 Q1257.98 1299.35 1261.36 1302.52 Q1264.74 1305.69 1264.74 1311.11 Q1264.74 1316.69 1261.27 1319.79 Q1257.8 1322.87 1251.48 1322.87 Q1249.3 1322.87 1247.03 1322.5 Q1244.79 1322.13 1242.38 1321.38 L1242.38 1316.69 Q1244.46 1317.82 1246.69 1318.38 Q1248.91 1318.93 1251.38 1318.93 Q1255.39 1318.93 1257.73 1316.82 Q1260.07 1314.72 1260.07 1311.11 Q1260.07 1307.5 1257.73 1305.39 Q1255.39 1303.28 1251.38 1303.28 Q1249.51 1303.28 1247.63 1303.7 Q1245.78 1304.12 1243.84 1305 L1243.84 1287.63 Z" fill="#000000" fill-rule="nonzero" fill-opacity="1" /><path clip-path="url(#clip590)" d="M1504.83 1318.26 L1512.47 1318.26 L1512.47 1291.89 L1504.16 1293.56 L1504.16 1289.3 L1512.42 1287.63 L1517.1 1287.63 L1517.1 1318.26 L1524.74 1318.26 L1524.74 1322.19 L1504.83 1322.19 L1504.83 1318.26 Z" fill="#000000" fill-rule="nonzero" fill-opacity="1" /><path clip-path="url(#clip590)" d="M1534.18 1316.32 L1539.06 1316.32 L1539.06 1322.19 L1534.18 1322.19 L1534.18 1316.32 Z" fill="#000000" fill-rule="nonzero" fill-opacity="1" /><path clip-path="url(#clip590)" d="M1559.25 1290.71 Q1555.64 1290.71 1553.81 1294.28 Q1552 1297.82 1552 1304.95 Q1552 1312.06 1553.81 1315.62 Q1555.64 1319.16 1559.25 1319.16 Q1562.88 1319.16 1564.69 1315.62 Q1566.52 1312.06 1566.52 1304.95 Q1566.52 1297.82 1564.69 1294.28 Q1562.88 1290.71 1559.25 1290.71 M1559.25 1287.01 Q1565.06 1287.01 1568.11 1291.62 Q1571.19 1296.2 1571.19 1304.95 Q1571.19 1313.68 1568.11 1318.28 Q1565.06 1322.87 1559.25 1322.87 Q1553.44 1322.87 1550.36 1318.28 Q1547.3 1313.68 1547.3 1304.95 Q1547.3 1296.2 1550.36 1291.62 Q1553.44 1287.01 1559.25 1287.01 Z" fill="#000000" fill-rule="nonzero" fill-opacity="1" /><path clip-path="url(#clip590)" d="M1589.41 1290.71 Q1585.8 1290.71 1583.97 1294.28 Q1582.17 1297.82 1582.17 1304.95 Q1582.17 1312.06 1583.97 1315.62 Q1585.8 1319.16 1589.41 1319.16 Q1593.05 1319.16 1594.85 1315.62 Q1596.68 1312.06 1596.68 1304.95 Q1596.68 1297.82 1594.85 1294.28 Q1593.05 1290.71 1589.41 1290.71 M1589.41 1287.01 Q1595.22 1287.01 1598.28 1291.62 Q1601.36 1296.2 1601.36 1304.95 Q1601.36 1313.68 1598.28 1318.28 Q1595.22 1322.87 1589.41 1322.87 Q1583.6 1322.87 1580.52 1318.28 Q1577.47 1313.68 1577.47 1304.95 Q1577.47 1296.2 1580.52 1291.62 Q1583.6 1287.01 1589.41 1287.01 Z" fill="#000000" fill-rule="nonzero" fill-opacity="1" /><path clip-path="url(#clip590)" d="M654.542 1366.4 L654.542 1373.18 Q651.296 1370.15 647.603 1368.66 Q643.943 1367.16 639.805 1367.16 Q631.657 1367.16 627.329 1372.16 Q623 1377.13 623 1386.55 Q623 1395.94 627.329 1400.93 Q631.657 1405.9 639.805 1405.9 Q643.943 1405.9 647.603 1404.4 Q651.296 1402.91 654.542 1399.88 L654.542 1406.6 Q651.168 1408.89 647.381 1410.04 Q643.625 1411.18 639.424 1411.18 Q628.634 1411.18 622.427 1404.59 Q616.221 1397.97 616.221 1386.55 Q616.221 1375.09 622.427 1368.5 Q628.634 1361.88 639.424 1361.88 Q643.689 1361.88 647.444 1363.03 Q651.232 1364.14 654.542 1366.4 Z" fill="#000000" fill-rule="nonzero" fill-opacity="1" /><path clip-path="url(#clip590)" d="M678.032 1378.72 Q673.321 1378.72 670.584 1382.41 Q667.846 1386.07 667.846 1392.47 Q667.846 1398.86 670.552 1402.56 Q673.289 1406.22 678.032 1406.22 Q682.71 1406.22 685.448 1402.52 Q688.185 1398.83 688.185 1392.47 Q688.185 1386.13 685.448 1382.44 Q682.71 1378.72 678.032 1378.72 M678.032 1373.75 Q685.67 1373.75 690.031 1378.72 Q694.391 1383.68 694.391 1392.47 Q694.391 1401.22 690.031 1406.22 Q685.67 1411.18 678.032 1411.18 Q670.361 1411.18 666 1406.22 Q661.672 1401.22 661.672 1392.47 Q661.672 1383.68 666 1378.72 Q670.361 1373.75 678.032 1373.75 Z" fill="#000000" fill-rule="nonzero" fill-opacity="1" /><path clip-path="url(#clip590)" d="M733.731 1388.74 L733.731 1410.26 L727.875 1410.26 L727.875 1388.93 Q727.875 1383.87 725.902 1381.36 Q723.928 1378.84 719.982 1378.84 Q715.239 1378.84 712.502 1381.87 Q709.765 1384.89 709.765 1390.11 L709.765 1410.26 L703.876 1410.26 L703.876 1374.61 L709.765 1374.61 L709.765 1380.15 Q711.865 1376.93 714.698 1375.34 Q717.563 1373.75 721.287 1373.75 Q727.429 1373.75 730.58 1377.57 Q733.731 1381.36 733.731 1388.74 Z" fill="#000000" fill-rule="nonzero" fill-opacity="1" /><path clip-path="url(#clip590)" d="M741.211 1374.61 L747.418 1374.61 L758.558 1404.53 L769.698 1374.61 L775.904 1374.61 L762.536 1410.26 L754.579 1410.26 L741.211 1374.61 Z" fill="#000000" fill-rule="nonzero" fill-opacity="1" /><path clip-path="url(#clip590)" d="M814.48 1390.97 L814.48 1393.84 L787.554 1393.84 Q787.935 1399.88 791.182 1403.07 Q794.46 1406.22 800.285 1406.22 Q803.659 1406.22 806.81 1405.39 Q809.993 1404.56 813.112 1402.91 L813.112 1408.44 Q809.961 1409.78 806.651 1410.48 Q803.34 1411.18 799.935 1411.18 Q791.405 1411.18 786.408 1406.22 Q781.442 1401.25 781.442 1392.78 Q781.442 1384.03 786.153 1378.91 Q790.896 1373.75 798.916 1373.75 Q806.11 1373.75 810.279 1378.4 Q814.48 1383.01 814.48 1390.97 M808.624 1389.25 Q808.56 1384.45 805.919 1381.58 Q803.309 1378.72 798.98 1378.72 Q794.078 1378.72 791.118 1381.49 Q788.19 1384.25 787.744 1389.28 L808.624 1389.25 Z" fill="#000000" fill-rule="nonzero" fill-opacity="1" /><path clip-path="url(#clip590)" d="M849.746 1375.98 L849.746 1381.45 Q847.264 1380.09 844.749 1379.42 Q842.267 1378.72 839.72 1378.72 Q834.023 1378.72 830.872 1382.35 Q827.721 1385.94 827.721 1392.47 Q827.721 1398.99 830.872 1402.62 Q834.023 1406.22 839.72 1406.22 Q842.267 1406.22 844.749 1405.55 Q847.264 1404.85 849.746 1403.48 L849.746 1408.89 Q847.296 1410.04 844.654 1410.61 Q842.044 1411.18 839.084 1411.18 Q831.031 1411.18 826.289 1406.12 Q821.546 1401.06 821.546 1392.47 Q821.546 1383.75 826.321 1378.75 Q831.127 1373.75 839.466 1373.75 Q842.171 1373.75 844.749 1374.32 Q847.328 1374.87 849.746 1375.98 Z" fill="#000000" fill-rule="nonzero" fill-opacity="1" /><path clip-path="url(#clip590)" d="M865.724 1364.49 L865.724 1374.61 L877.787 1374.61 L877.787 1379.16 L865.724 1379.16 L865.724 1398.51 Q865.724 1402.87 866.902 1404.12 Q868.112 1405.36 871.772 1405.36 L877.787 1405.36 L877.787 1410.26 L871.772 1410.26 Q864.992 1410.26 862.414 1407.74 Q859.836 1405.2 859.836 1398.51 L859.836 1379.16 L855.539 1379.16 L855.539 1374.61 L859.836 1374.61 L859.836 1364.49 L865.724 1364.49 Z" fill="#000000" fill-rule="nonzero" fill-opacity="1" /><path clip-path="url(#clip590)" d="M885.49 1374.61 L891.346 1374.61 L891.346 1410.26 L885.49 1410.26 L885.49 1374.61 M885.49 1360.73 L891.346 1360.73 L891.346 1368.15 L885.49 1368.15 L885.49 1360.73 Z" fill="#000000" fill-rule="nonzero" fill-opacity="1" /><path clip-path="url(#clip590)" d="M899.399 1374.61 L905.606 1374.61 L916.746 1404.53 L927.886 1374.61 L934.092 1374.61 L920.724 1410.26 L912.767 1410.26 L899.399 1374.61 Z" fill="#000000" fill-rule="nonzero" fill-opacity="1" /><path clip-path="url(#clip590)" d="M972.668 1390.97 L972.668 1393.84 L945.741 1393.84 Q946.123 1399.88 949.37 1403.07 Q952.648 1406.22 958.473 1406.22 Q961.847 1406.22 964.998 1405.39 Q968.18 1404.56 971.3 1402.91 L971.3 1408.44 Q968.149 1409.78 964.838 1410.48 Q961.528 1411.18 958.123 1411.18 Q949.593 1411.18 944.596 1406.22 Q939.63 1401.25 939.63 1392.78 Q939.63 1384.03 944.341 1378.91 Q949.083 1373.75 957.104 1373.75 Q964.297 1373.75 968.467 1378.4 Q972.668 1383.01 972.668 1390.97 M966.812 1389.25 Q966.748 1384.45 964.106 1381.58 Q961.496 1378.72 957.168 1378.72 Q952.266 1378.72 949.306 1381.49 Q946.378 1384.25 945.932 1389.28 L966.812 1389.25 Z" fill="#000000" fill-rule="nonzero" fill-opacity="1" /><path clip-path="url(#clip590)" d="M1008.79 1364.49 L1008.79 1374.61 L1020.86 1374.61 L1020.86 1379.16 L1008.79 1379.16 L1008.79 1398.51 Q1008.79 1402.87 1009.97 1404.12 Q1011.18 1405.36 1014.84 1405.36 L1020.86 1405.36 L1020.86 1410.26 L1014.84 1410.26 Q1008.06 1410.26 1005.48 1407.74 Q1002.91 1405.2 1002.91 1398.51 L1002.91 1379.16 L998.609 1379.16 L998.609 1374.61 L1002.91 1374.61 L1002.91 1364.49 L1008.79 1364.49 Z" fill="#000000" fill-rule="nonzero" fill-opacity="1" /><path clip-path="url(#clip590)" d="M1028.56 1374.61 L1034.42 1374.61 L1034.42 1410.26 L1028.56 1410.26 L1028.56 1374.61 M1028.56 1360.73 L1034.42 1360.73 L1034.42 1368.15 L1028.56 1368.15 L1028.56 1360.73 Z" fill="#000000" fill-rule="nonzero" fill-opacity="1" /><path clip-path="url(#clip590)" d="M1074.42 1381.45 Q1076.62 1377.51 1079.68 1375.63 Q1082.73 1373.75 1086.87 1373.75 Q1092.44 1373.75 1095.46 1377.67 Q1098.49 1381.55 1098.49 1388.74 L1098.49 1410.26 L1092.6 1410.26 L1092.6 1388.93 Q1092.6 1383.81 1090.78 1381.33 Q1088.97 1378.84 1085.25 1378.84 Q1080.69 1378.84 1078.05 1381.87 Q1075.41 1384.89 1075.41 1390.11 L1075.41 1410.26 L1069.52 1410.26 L1069.52 1388.93 Q1069.52 1383.78 1067.71 1381.33 Q1065.89 1378.84 1062.11 1378.84 Q1057.62 1378.84 1054.98 1381.9 Q1052.34 1384.92 1052.34 1390.11 L1052.34 1410.26 L1046.45 1410.26 L1046.45 1374.61 L1052.34 1374.61 L1052.34 1380.15 Q1054.34 1376.87 1057.14 1375.31 Q1059.94 1373.75 1063.79 1373.75 Q1067.68 1373.75 1070.38 1375.72 Q1073.12 1377.7 1074.42 1381.45 Z" fill="#000000" fill-rule="nonzero" fill-opacity="1" /><path clip-path="url(#clip590)" d="M1140.66 1390.97 L1140.66 1393.84 L1113.73 1393.84 Q1114.11 1399.88 1117.36 1403.07 Q1120.64 1406.22 1126.46 1406.22 Q1129.84 1406.22 1132.99 1405.39 Q1136.17 1404.56 1139.29 1402.91 L1139.29 1408.44 Q1136.14 1409.78 1132.83 1410.48 Q1129.52 1411.18 1126.11 1411.18 Q1117.58 1411.18 1112.59 1406.22 Q1107.62 1401.25 1107.62 1392.78 Q1107.62 1384.03 1112.33 1378.91 Q1117.07 1373.75 1125.1 1373.75 Q1132.29 1373.75 1136.46 1378.4 Q1140.66 1383.01 1140.66 1390.97 M1134.8 1389.25 Q1134.74 1384.45 1132.1 1381.58 Q1129.49 1378.72 1125.16 1378.72 Q1120.26 1378.72 1117.3 1381.49 Q1114.37 1384.25 1113.92 1389.28 L1134.8 1389.25 Z" fill="#000000" fill-rule="nonzero" fill-opacity="1" /><polyline clip-path="url(#clip594)" style="stroke:#000000; stroke-linecap:round; stroke-linejoin:round; stroke-width:2; stroke-opacity:0.1; fill:none" points="204.124,1253.39 1552.76,1253.39 "/>
<polyline clip-path="url(#clip594)" style="stroke:#000000; stroke-linecap:round; stroke-linejoin:round; stroke-width:2; stroke-opacity:0.1; fill:none" points="204.124,1126.86 1552.76,1126.86 "/>
<polyline clip-path="url(#clip594)" style="stroke:#000000; stroke-linecap:round; stroke-linejoin:round; stroke-width:2; stroke-opacity:0.1; fill:none" points="204.124,1000.32 1552.76,1000.32 "/>
<polyline clip-path="url(#clip594)" style="stroke:#000000; stroke-linecap:round; stroke-linejoin:round; stroke-width:2; stroke-opacity:0.1; fill:none" points="204.124,873.782 1552.76,873.782 "/>
<polyline clip-path="url(#clip594)" style="stroke:#000000; stroke-linecap:round; stroke-linejoin:round; stroke-width:2; stroke-opacity:0.1; fill:none" points="204.124,747.244 1552.76,747.244 "/>
<polyline clip-path="url(#clip590)" style="stroke:#000000; stroke-linecap:round; stroke-linejoin:round; stroke-width:4; stroke-opacity:1; fill:none" points="204.124,1253.39 204.124,747.244 "/>
<polyline clip-path="url(#clip590)" style="stroke:#000000; stroke-linecap:round; stroke-linejoin:round; stroke-width:4; stroke-opacity:1; fill:none" points="204.124,1253.39 223.022,1253.39 "/>
<polyline clip-path="url(#clip590)" style="stroke:#000000; stroke-linecap:round; stroke-linejoin:round; stroke-width:4; stroke-opacity:1; fill:none" points="204.124,1126.86 223.022,1126.86 "/>
<polyline clip-path="url(#clip590)" style="stroke:#000000; stroke-linecap:round; stroke-linejoin:round; stroke-width:4; stroke-opacity:1; fill:none" points="204.124,1000.32 223.022,1000.32 "/>
<polyline clip-path="url(#clip590)" style="stroke:#000000; stroke-linecap:round; stroke-linejoin:round; stroke-width:4; stroke-opacity:1; fill:none" points="204.124,873.782 223.022,873.782 "/>
<polyline clip-path="url(#clip590)" style="stroke:#000000; stroke-linecap:round; stroke-linejoin:round; stroke-width:4; stroke-opacity:1; fill:none" points="204.124,747.244 223.022,747.244 "/>
<path clip-path="url(#clip590)" d="M93.9252 1253.85 L123.601 1253.85 L123.601 1257.78 L93.9252 1257.78 L93.9252 1253.85 Z" fill="#000000" fill-rule="nonzero" fill-opacity="1" /><path clip-path="url(#clip590)" d="M146.541 1240.19 L134.735 1258.64 L146.541 1258.64 L146.541 1240.19 M145.314 1236.11 L151.193 1236.11 L151.193 1258.64 L156.124 1258.64 L156.124 1262.53 L151.193 1262.53 L151.193 1270.67 L146.541 1270.67 L146.541 1262.53 L130.939 1262.53 L130.939 1258.01 L145.314 1236.11 Z" fill="#000000" fill-rule="nonzero" fill-opacity="1" /><path clip-path="url(#clip590)" d="M96.0085 1127.31 L125.684 1127.31 L125.684 1131.24 L96.0085 1131.24 L96.0085 1127.31 Z" fill="#000000" fill-rule="nonzero" fill-opacity="1" /><path clip-path="url(#clip590)" d="M139.805 1140.2 L156.124 1140.2 L156.124 1144.14 L134.18 1144.14 L134.18 1140.2 Q136.842 1137.45 141.425 1132.82 Q146.031 1128.17 147.212 1126.82 Q149.457 1124.3 150.337 1122.56 Q151.24 1120.8 151.24 1119.11 Q151.24 1116.36 149.295 1114.62 Q147.374 1112.89 144.272 1112.89 Q142.073 1112.89 139.619 1113.65 Q137.189 1114.42 134.411 1115.97 L134.411 1111.24 Q137.235 1110.11 139.689 1109.53 Q142.142 1108.95 144.18 1108.95 Q149.55 1108.95 152.744 1111.64 Q155.939 1114.32 155.939 1118.81 Q155.939 1120.94 155.129 1122.86 Q154.342 1124.76 152.235 1127.35 Q151.656 1128.03 148.554 1131.24 Q145.453 1134.44 139.805 1140.2 Z" fill="#000000" fill-rule="nonzero" fill-opacity="1" /><path clip-path="url(#clip590)" d="M144.18 986.118 Q140.568 986.118 138.74 989.683 Q136.934 993.225 136.934 1000.35 Q136.934 1007.46 138.74 1011.03 Q140.568 1014.57 144.18 1014.57 Q147.814 1014.57 149.619 1011.03 Q151.448 1007.46 151.448 1000.35 Q151.448 993.225 149.619 989.683 Q147.814 986.118 144.18 986.118 M144.18 982.414 Q149.99 982.414 153.045 987.021 Q156.124 991.604 156.124 1000.35 Q156.124 1009.08 153.045 1013.69 Q149.99 1018.27 144.18 1018.27 Q138.369 1018.27 135.291 1013.69 Q132.235 1009.08 132.235 1000.35 Q132.235 991.604 135.291 987.021 Q138.369 982.414 144.18 982.414 Z" fill="#000000" fill-rule="nonzero" fill-opacity="1" /><path clip-path="url(#clip590)" d="M139.805 887.127 L156.124 887.127 L156.124 891.062 L134.18 891.062 L134.18 887.127 Q136.842 884.372 141.425 879.742 Q146.031 875.09 147.212 873.747 Q149.457 871.224 150.337 869.488 Q151.24 867.729 151.24 866.039 Q151.24 863.284 149.295 861.548 Q147.374 859.812 144.272 859.812 Q142.073 859.812 139.619 860.576 Q137.189 861.34 134.411 862.891 L134.411 858.168 Q137.235 857.034 139.689 856.455 Q142.142 855.877 144.18 855.877 Q149.55 855.877 152.744 858.562 Q155.939 861.247 155.939 865.738 Q155.939 867.867 155.129 869.789 Q154.342 871.687 152.235 874.279 Q151.656 874.951 148.554 878.168 Q145.453 881.363 139.805 887.127 Z" fill="#000000" fill-rule="nonzero" fill-opacity="1" /><path clip-path="url(#clip590)" d="M146.541 734.038 L134.735 752.487 L146.541 752.487 L146.541 734.038 M145.314 729.964 L151.193 729.964 L151.193 752.487 L156.124 752.487 L156.124 756.376 L151.193 756.376 L151.193 764.524 L146.541 764.524 L146.541 756.376 L130.939 756.376 L130.939 751.862 L145.314 729.964 Z" fill="#000000" fill-rule="nonzero" fill-opacity="1" /><path clip-path="url(#clip590)" d="M-12.4283 1002.43 L4.38318 1006.59 Q5.44597 1006.88 5.57479 1007.07 Q5.70362 1007.23 5.70362 1007.75 Q5.70362 1008.75 5.02729 1008.75 Q4.96288 1008.75 4.12553 1008.65 Q3.25597 1008.55 1.67788 1008.55 Q-4.15138 1008.55 -7.5974 1011.39 Q-11.0434 1014.19 -11.0434 1019.18 Q-11.0434 1023.5 -8.85343 1027.84 Q-6.66343 1032.16 -3.08858 1035.25 Q-0.383291 1037.57 3.03053 1039.28 Q6.44435 1040.95 9.56832 1041.76 Q12.6923 1042.53 15.0433 1042.88 Q17.3943 1043.24 19.1013 1043.24 Q21.5811 1043.24 23.6745 1042.72 Q25.7679 1042.18 27.2493 1041.21 Q28.6986 1040.24 29.8258 1039.02 Q30.9208 1037.76 31.5649 1036.31 Q32.209 1034.83 32.5311 1033.35 Q32.821 1031.87 32.821 1030.32 Q32.821 1024.11 27.9901 1018.18 Q24.0288 1013.48 17.5554 1011.52 Q16.9113 1011.36 16.9113 1010.68 Q16.9113 1009.87 17.5554 1009.87 Q17.6842 1009.87 18.3283 1010.03 Q18.9402 1010.2 20.1963 1010.68 Q21.4201 1011.16 22.8049 1011.9 Q24.1898 1012.64 25.9289 1014.03 Q27.668 1015.41 29.1817 1017.12 Q31.6937 1020.02 33.2718 1023.69 Q34.8499 1027.36 34.8499 1031.39 Q34.8499 1036.41 32.6277 1040.47 Q30.4055 1044.53 26.251 1046.91 Q22.0964 1049.26 16.7824 1049.26 Q11.1786 1049.26 5.67141 1046.69 Q0.164209 1044.11 -3.92594 1040.02 Q-8.01608 1035.93 -10.5603 1030.52 Q-13.1046 1025.11 -13.1046 1019.7 Q-13.1046 1017.64 -12.5571 1015.8 Q-12.0096 1013.96 -11.3333 1012.87 Q-10.657 1011.74 -9.65858 1010.74 Q-8.6924 1009.74 -8.24152 1009.42 Q-7.79064 1009.07 -7.24314 1008.75 L-12.2995 1004.14 Q-13.1046 1003.34 -13.1046 1003.14 Q-13.1046 1002.76 -12.8792 1002.6 Q-12.6537 1002.43 -12.4283 1002.43 Z" fill="#000000" fill-rule="nonzero" fill-opacity="1" /><path clip-path="url(#clip590)" d="M40.3515 958.038 Q40.5318 958.038 41.2307 958.241 Q41.9296 958.444 43.0117 958.94 Q44.0938 959.414 45.0857 960.09 Q46.0551 960.744 46.7766 961.826 Q47.4754 962.885 47.4754 964.103 Q47.4754 965.726 46.3933 966.808 Q45.3112 967.89 43.688 967.89 Q42.8088 967.89 41.1405 967.281 Q33.5206 964.418 30.7928 964.418 Q27.569 964.418 27.569 966.921 Q27.569 968.341 28.1551 969.626 Q28.7413 970.911 29.5529 971.745 Q30.3644 972.579 31.2888 973.233 Q32.2131 973.887 32.8218 974.18 Q33.4304 974.45 33.701 974.518 L44.8378 977.291 Q45.7846 977.516 46.2355 977.674 Q46.6864 977.832 47.0696 978.26 Q47.4754 978.689 47.4754 979.365 Q47.4754 979.929 47.1373 980.334 Q46.7991 980.718 46.213 980.718 Q46.1228 980.718 45.6493 980.605 Q45.1759 980.492 44.5221 980.334 Q43.8684 980.177 43.4851 980.109 Q40.4191 979.297 39.9908 979.185 L34.6253 977.9 Q31.9651 977.201 30.7928 977.201 Q27.569 977.201 27.569 979.703 Q27.569 980.943 28.0424 982.115 Q28.4933 983.265 29.1245 984.054 Q29.7558 984.843 30.635 985.565 Q31.4917 986.264 32.0778 986.624 Q32.6414 986.962 33.205 987.233 L35.5045 987.819 Q36.1357 987.954 38.593 988.608 L42.7637 989.623 Q45.8748 990.344 46.1679 990.502 Q46.7991 990.727 47.1373 991.223 Q47.4754 991.719 47.4754 992.215 Q47.4754 992.779 47.1373 993.162 Q46.7991 993.545 46.213 993.545 Q46.1228 993.545 45.7846 993.478 Q45.4465 993.41 44.973 993.297 Q44.4996 993.185 44.2291 993.14 L33.5657 990.457 Q31.6269 989.961 31.0182 989.848 Q30.387 989.713 29.6881 989.713 Q27.569 989.713 27.569 991.156 Q27.569 992.328 28.9667 993.094 Q30.3644 993.861 33.0697 994.515 Q33.8137 994.718 33.9715 994.853 Q34.1293 994.966 34.1293 995.304 Q34.1068 995.867 33.6559 995.867 Q33.5432 995.867 32.8218 995.687 Q32.1003 995.507 31.0182 995.169 Q29.9136 994.808 29.1922 994.425 Q28.7187 994.199 28.4031 993.996 Q28.0875 993.793 27.5915 993.388 Q27.0956 992.982 26.825 992.373 Q26.5545 991.764 26.5545 991.02 Q26.5545 989.375 27.6141 988.157 Q28.6736 986.917 30.5673 986.76 Q26.5545 983.761 26.5545 979.568 Q26.5545 977.201 27.7493 975.781 Q28.8991 974.45 31.0182 974.293 Q26.5545 971.182 26.5545 966.763 Q26.5545 964.215 27.8846 962.84 Q29.1922 961.465 31.4917 961.465 Q32.6865 961.465 34.9634 962.074 Q37.2179 962.682 38.3451 963.088 Q39.4723 963.494 41.6365 964.283 Q43.7106 965.117 44.9279 965.117 Q45.717 965.117 46.0777 964.847 Q46.4384 964.576 46.4384 963.99 Q46.4384 963.088 45.9199 962.299 Q45.3788 961.51 44.4996 960.947 Q43.5978 960.36 42.6961 959.977 Q41.7718 959.594 40.7347 959.301 Q40.1711 959.12 40.0359 959.03 Q39.9006 958.918 39.9006 958.602 Q39.9006 958.038 40.3515 958.038 Z" fill="#000000" fill-rule="nonzero" fill-opacity="1" /><polyline clip-path="url(#clip594)" style="stroke:#009af9; stroke-linecap:round; stroke-linejoin:round; stroke-width:4; stroke-opacity:1; fill:none" points="204.124,1000.32 217.61,960.148 231.097,959.58 244.583,959.591 258.069,959.709 271.555,959.881 285.042,960.091 298.528,960.323 312.014,960.561 325.501,960.795 338.987,961.019 352.473,961.234 365.96,961.44 379.446,961.637 392.932,961.828 406.419,962.013 419.905,962.192 433.391,962.366 446.878,962.536 460.364,962.701 473.85,962.863 487.337,963.021 500.823,963.176 514.309,963.328 527.796,963.478 541.282,963.626 554.768,963.772 568.255,963.916 581.741,964.059 595.227,964.201 608.714,964.342 622.2,964.482 635.686,964.622 649.172,964.761 662.659,964.901 676.145,965.041 689.631,965.181 703.118,965.322 716.604,965.463 730.09,965.606 743.577,965.75 757.063,965.895 770.549,966.042 784.036,966.19 797.522,966.34 811.008,966.492 824.495,966.646 837.981,966.802 851.467,966.96 864.954,967.121 878.44,967.284 891.926,967.45 905.413,967.618 918.899,967.789 932.385,967.962 945.872,968.138 959.358,968.316 972.844,968.497 986.33,968.681 999.817,968.868 1013.3,969.056 1026.79,969.248 1040.28,969.442 1053.76,969.638 1067.25,969.837 1080.73,970.038 1094.22,970.241 1107.71,970.447 1121.19,970.654 1134.68,970.863 1148.17,971.075 1161.65,971.288 1175.14,971.502 1188.63,971.718 1202.11,971.936 1215.6,972.155 1229.08,972.375 1242.57,972.595 1256.06,972.817 1269.54,973.04 1283.03,973.263 1296.52,973.486 1310,973.71 1323.49,973.934 1336.97,974.158 1350.46,974.383 1363.95,974.606 1377.43,974.83 1390.92,975.053 1404.41,975.276 1417.89,975.497 1431.38,975.718 1444.87,975.939 1458.35,976.158 1471.84,976.375 1485.32,976.592 1498.81,976.808 1512.3,977.021 1525.78,977.234 1539.27,977.445 1552.76,977.654 "/>
</svg>
