<?xml version="1.0" encoding="utf-8"?>
<svg xmlns="http://www.w3.org/2000/svg" xmlns:xlink="http://www.w3.org/1999/xlink" width="600" height="400" viewBox="0 0 2400 1600">
<defs>
  <clipPath id="clip840">
    <rect x="0" y="0" width="2400" height="1600"/>
  </clipPath>
</defs>
<path clip-path="url(#clip840)" d="M0 1600 L2400 1600 L2400 0 L0 0  Z" fill="#ffffff" fill-rule="evenodd" fill-opacity="1"/>
<defs>
  <clipPath id="clip841">
    <rect x="480" y="0" width="1681" height="1600"/>
  </clipPath>
</defs>
<path clip-path="url(#clip840)" d="M224.098 1423.18 L2352.76 1423.18 L2352.76 47.2441 L224.098 47.2441  Z" fill="#ffffff" fill-rule="evenodd" fill-opacity="1"/>
<defs>
  <clipPath id="clip842">
    <rect x="224" y="47" width="2130" height="1377"/>
  </clipPath>
</defs>
<polyline clip-path="url(#clip842)" style="stroke:#000000; stroke-linecap:round; stroke-linejoin:round; stroke-width:2; stroke-opacity:0.1; fill:none" points="284.343,1423.18 284.343,47.2441 "/>
<polyline clip-path="url(#clip842)" style="stroke:#000000; stroke-linecap:round; stroke-linejoin:round; stroke-width:2; stroke-opacity:0.1; fill:none" points="685.175,1423.18 685.175,47.2441 "/>
<polyline clip-path="url(#clip842)" style="stroke:#000000; stroke-linecap:round; stroke-linejoin:round; stroke-width:2; stroke-opacity:0.1; fill:none" points="1086.01,1423.18 1086.01,47.2441 "/>
<polyline clip-path="url(#clip842)" style="stroke:#000000; stroke-linecap:round; stroke-linejoin:round; stroke-width:2; stroke-opacity:0.1; fill:none" points="1486.84,1423.18 1486.84,47.2441 "/>
<polyline clip-path="url(#clip842)" style="stroke:#000000; stroke-linecap:round; stroke-linejoin:round; stroke-width:2; stroke-opacity:0.1; fill:none" points="1887.67,1423.18 1887.67,47.2441 "/>
<polyline clip-path="url(#clip842)" style="stroke:#000000; stroke-linecap:round; stroke-linejoin:round; stroke-width:2; stroke-opacity:0.1; fill:none" points="2288.5,1423.18 2288.5,47.2441 "/>
<polyline clip-path="url(#clip842)" style="stroke:#000000; stroke-linecap:round; stroke-linejoin:round; stroke-width:2; stroke-opacity:0.1; fill:none" points="224.098,1412.64 2352.76,1412.64 "/>
<polyline clip-path="url(#clip842)" style="stroke:#000000; stroke-linecap:round; stroke-linejoin:round; stroke-width:2; stroke-opacity:0.1; fill:none" points="224.098,1002.92 2352.76,1002.92 "/>
<polyline clip-path="url(#clip842)" style="stroke:#000000; stroke-linecap:round; stroke-linejoin:round; stroke-width:2; stroke-opacity:0.1; fill:none" points="224.098,593.201 2352.76,593.201 "/>
<polyline clip-path="url(#clip842)" style="stroke:#000000; stroke-linecap:round; stroke-linejoin:round; stroke-width:2; stroke-opacity:0.1; fill:none" points="224.098,183.48 2352.76,183.48 "/>
<polyline clip-path="url(#clip840)" style="stroke:#000000; stroke-linecap:round; stroke-linejoin:round; stroke-width:4; stroke-opacity:1; fill:none" points="224.098,1423.18 2352.76,1423.18 "/>
<polyline clip-path="url(#clip840)" style="stroke:#000000; stroke-linecap:round; stroke-linejoin:round; stroke-width:4; stroke-opacity:1; fill:none" points="284.343,1423.18 284.343,1404.28 "/>
<polyline clip-path="url(#clip840)" style="stroke:#000000; stroke-linecap:round; stroke-linejoin:round; stroke-width:4; stroke-opacity:1; fill:none" points="685.175,1423.18 685.175,1404.28 "/>
<polyline clip-path="url(#clip840)" style="stroke:#000000; stroke-linecap:round; stroke-linejoin:round; stroke-width:4; stroke-opacity:1; fill:none" points="1086.01,1423.18 1086.01,1404.28 "/>
<polyline clip-path="url(#clip840)" style="stroke:#000000; stroke-linecap:round; stroke-linejoin:round; stroke-width:4; stroke-opacity:1; fill:none" points="1486.84,1423.18 1486.84,1404.28 "/>
<polyline clip-path="url(#clip840)" style="stroke:#000000; stroke-linecap:round; stroke-linejoin:round; stroke-width:4; stroke-opacity:1; fill:none" points="1887.67,1423.18 1887.67,1404.28 "/>
<polyline clip-path="url(#clip840)" style="stroke:#000000; stroke-linecap:round; stroke-linejoin:round; stroke-width:4; stroke-opacity:1; fill:none" points="2288.5,1423.18 2288.5,1404.28 "/>
<path clip-path="url(#clip840)" d="M261.727 1454.1 Q258.116 1454.1 256.288 1457.66 Q254.482 1461.2 254.482 1468.33 Q254.482 1475.44 256.288 1479.01 Q258.116 1482.55 261.727 1482.55 Q265.362 1482.55 267.167 1479.01 Q268.996 1475.44 268.996 1468.33 Q268.996 1461.2 267.167 1457.66 Q265.362 1454.1 261.727 1454.1 M261.727 1450.39 Q267.537 1450.39 270.593 1455 Q273.672 1459.58 273.672 1468.33 Q273.672 1477.06 270.593 1481.67 Q267.537 1486.25 261.727 1486.25 Q255.917 1486.25 252.838 1481.67 Q249.783 1477.06 249.783 1468.33 Q249.783 1459.58 252.838 1455 Q255.917 1450.39 261.727 1450.39 Z" fill="#000000" fill-rule="nonzero" fill-opacity="1" /><path clip-path="url(#clip840)" d="M281.889 1479.7 L286.773 1479.7 L286.773 1485.58 L281.889 1485.58 L281.889 1479.7 Z" fill="#000000" fill-rule="nonzero" fill-opacity="1" /><path clip-path="url(#clip840)" d="M306.959 1454.1 Q303.347 1454.1 301.519 1457.66 Q299.713 1461.2 299.713 1468.33 Q299.713 1475.44 301.519 1479.01 Q303.347 1482.55 306.959 1482.55 Q310.593 1482.55 312.398 1479.01 Q314.227 1475.44 314.227 1468.33 Q314.227 1461.2 312.398 1457.66 Q310.593 1454.1 306.959 1454.1 M306.959 1450.39 Q312.769 1450.39 315.824 1455 Q318.903 1459.58 318.903 1468.33 Q318.903 1477.06 315.824 1481.67 Q312.769 1486.25 306.959 1486.25 Q301.148 1486.25 298.07 1481.67 Q295.014 1477.06 295.014 1468.33 Q295.014 1459.58 298.07 1455 Q301.148 1450.39 306.959 1450.39 Z" fill="#000000" fill-rule="nonzero" fill-opacity="1" /><path clip-path="url(#clip840)" d="M663.057 1454.1 Q659.446 1454.1 657.617 1457.66 Q655.812 1461.2 655.812 1468.33 Q655.812 1475.44 657.617 1479.01 Q659.446 1482.55 663.057 1482.55 Q666.691 1482.55 668.497 1479.01 Q670.325 1475.44 670.325 1468.33 Q670.325 1461.2 668.497 1457.66 Q666.691 1454.1 663.057 1454.1 M663.057 1450.39 Q668.867 1450.39 671.923 1455 Q675.001 1459.58 675.001 1468.33 Q675.001 1477.06 671.923 1481.67 Q668.867 1486.25 663.057 1486.25 Q657.247 1486.25 654.168 1481.67 Q651.113 1477.06 651.113 1468.33 Q651.113 1459.58 654.168 1455 Q657.247 1450.39 663.057 1450.39 Z" fill="#000000" fill-rule="nonzero" fill-opacity="1" /><path clip-path="url(#clip840)" d="M683.219 1479.7 L688.103 1479.7 L688.103 1485.58 L683.219 1485.58 L683.219 1479.7 Z" fill="#000000" fill-rule="nonzero" fill-opacity="1" /><path clip-path="url(#clip840)" d="M698.334 1451.02 L716.691 1451.02 L716.691 1454.96 L702.617 1454.96 L702.617 1463.43 Q703.635 1463.08 704.654 1462.92 Q705.672 1462.73 706.691 1462.73 Q712.478 1462.73 715.858 1465.9 Q719.237 1469.08 719.237 1474.49 Q719.237 1480.07 715.765 1483.17 Q712.293 1486.25 705.973 1486.25 Q703.797 1486.25 701.529 1485.88 Q699.284 1485.51 696.876 1484.77 L696.876 1480.07 Q698.959 1481.2 701.182 1481.76 Q703.404 1482.32 705.881 1482.32 Q709.885 1482.32 712.223 1480.21 Q714.561 1478.1 714.561 1474.49 Q714.561 1470.88 712.223 1468.77 Q709.885 1466.67 705.881 1466.67 Q704.006 1466.67 702.131 1467.08 Q700.279 1467.5 698.334 1468.38 L698.334 1451.02 Z" fill="#000000" fill-rule="nonzero" fill-opacity="1" /><path clip-path="url(#clip840)" d="M1053.16 1481.64 L1060.8 1481.64 L1060.8 1455.28 L1052.49 1456.95 L1052.49 1452.69 L1060.75 1451.02 L1065.43 1451.02 L1065.43 1481.64 L1073.07 1481.64 L1073.07 1485.58 L1053.16 1485.58 L1053.16 1481.64 Z" fill="#000000" fill-rule="nonzero" fill-opacity="1" /><path clip-path="url(#clip840)" d="M1082.51 1479.7 L1087.4 1479.7 L1087.4 1485.58 L1082.51 1485.58 L1082.51 1479.7 Z" fill="#000000" fill-rule="nonzero" fill-opacity="1" /><path clip-path="url(#clip840)" d="M1107.58 1454.1 Q1103.97 1454.1 1102.14 1457.66 Q1100.34 1461.2 1100.34 1468.33 Q1100.34 1475.44 1102.14 1479.01 Q1103.97 1482.55 1107.58 1482.55 Q1111.21 1482.55 1113.02 1479.01 Q1114.85 1475.44 1114.85 1468.33 Q1114.85 1461.2 1113.02 1457.66 Q1111.21 1454.1 1107.58 1454.1 M1107.58 1450.39 Q1113.39 1450.39 1116.45 1455 Q1119.53 1459.58 1119.53 1468.33 Q1119.53 1477.06 1116.45 1481.67 Q1113.39 1486.25 1107.58 1486.25 Q1101.77 1486.25 1098.69 1481.67 Q1095.64 1477.06 1095.64 1468.33 Q1095.64 1459.58 1098.69 1455 Q1101.77 1450.39 1107.58 1450.39 Z" fill="#000000" fill-rule="nonzero" fill-opacity="1" /><path clip-path="url(#clip840)" d="M1454.49 1481.64 L1462.13 1481.64 L1462.13 1455.28 L1453.82 1456.95 L1453.82 1452.69 L1462.08 1451.02 L1466.76 1451.02 L1466.76 1481.64 L1474.4 1481.64 L1474.4 1485.58 L1454.49 1485.58 L1454.49 1481.64 Z" fill="#000000" fill-rule="nonzero" fill-opacity="1" /><path clip-path="url(#clip840)" d="M1483.84 1479.7 L1488.73 1479.7 L1488.73 1485.58 L1483.84 1485.58 L1483.84 1479.7 Z" fill="#000000" fill-rule="nonzero" fill-opacity="1" /><path clip-path="url(#clip840)" d="M1498.96 1451.02 L1517.31 1451.02 L1517.31 1454.96 L1503.24 1454.96 L1503.24 1463.43 Q1504.26 1463.08 1505.28 1462.92 Q1506.29 1462.73 1507.31 1462.73 Q1513.1 1462.73 1516.48 1465.9 Q1519.86 1469.08 1519.86 1474.49 Q1519.86 1480.07 1516.39 1483.17 Q1512.91 1486.25 1506.6 1486.25 Q1504.42 1486.25 1502.15 1485.88 Q1499.91 1485.51 1497.5 1484.77 L1497.5 1480.07 Q1499.58 1481.2 1501.8 1481.76 Q1504.03 1482.32 1506.5 1482.32 Q1510.51 1482.32 1512.85 1480.21 Q1515.18 1478.1 1515.18 1474.49 Q1515.18 1470.88 1512.85 1468.77 Q1510.51 1466.67 1506.5 1466.67 Q1504.63 1466.67 1502.75 1467.08 Q1500.9 1467.5 1498.96 1468.38 L1498.96 1451.02 Z" fill="#000000" fill-rule="nonzero" fill-opacity="1" /><path clip-path="url(#clip840)" d="M1858.91 1481.64 L1875.23 1481.64 L1875.23 1485.58 L1853.28 1485.58 L1853.28 1481.64 Q1855.95 1478.89 1860.53 1474.26 Q1865.14 1469.61 1866.32 1468.27 Q1868.56 1465.74 1869.44 1464.01 Q1870.34 1462.25 1870.34 1460.56 Q1870.34 1457.8 1868.4 1456.07 Q1866.48 1454.33 1863.38 1454.33 Q1861.18 1454.33 1858.72 1455.09 Q1856.29 1455.86 1853.52 1457.41 L1853.52 1452.69 Q1856.34 1451.55 1858.79 1450.97 Q1861.25 1450.39 1863.28 1450.39 Q1868.65 1450.39 1871.85 1453.08 Q1875.04 1455.77 1875.04 1460.26 Q1875.04 1462.39 1874.23 1464.31 Q1873.45 1466.2 1871.34 1468.8 Q1870.76 1469.47 1867.66 1472.69 Q1864.56 1475.88 1858.91 1481.64 Z" fill="#000000" fill-rule="nonzero" fill-opacity="1" /><path clip-path="url(#clip840)" d="M1885.04 1479.7 L1889.93 1479.7 L1889.93 1485.58 L1885.04 1485.58 L1885.04 1479.7 Z" fill="#000000" fill-rule="nonzero" fill-opacity="1" /><path clip-path="url(#clip840)" d="M1910.11 1454.1 Q1906.5 1454.1 1904.67 1457.66 Q1902.87 1461.2 1902.87 1468.33 Q1902.87 1475.44 1904.67 1479.01 Q1906.5 1482.55 1910.11 1482.55 Q1913.75 1482.55 1915.55 1479.01 Q1917.38 1475.44 1917.38 1468.33 Q1917.38 1461.2 1915.55 1457.66 Q1913.75 1454.1 1910.11 1454.1 M1910.11 1450.39 Q1915.92 1450.39 1918.98 1455 Q1922.06 1459.58 1922.06 1468.33 Q1922.06 1477.06 1918.98 1481.67 Q1915.92 1486.25 1910.11 1486.25 Q1904.3 1486.25 1901.22 1481.67 Q1898.17 1477.06 1898.17 1468.33 Q1898.17 1459.58 1901.22 1455 Q1904.3 1450.39 1910.11 1450.39 Z" fill="#000000" fill-rule="nonzero" fill-opacity="1" /><path clip-path="url(#clip840)" d="M2260.24 1481.64 L2276.56 1481.64 L2276.56 1485.58 L2254.61 1485.58 L2254.61 1481.64 Q2257.28 1478.89 2261.86 1474.26 Q2266.47 1469.61 2267.65 1468.27 Q2269.89 1465.74 2270.77 1464.01 Q2271.67 1462.25 2271.67 1460.56 Q2271.67 1457.8 2269.73 1456.07 Q2267.81 1454.33 2264.71 1454.33 Q2262.51 1454.33 2260.05 1455.09 Q2257.62 1455.86 2254.85 1457.41 L2254.85 1452.69 Q2257.67 1451.55 2260.12 1450.97 Q2262.58 1450.39 2264.61 1450.39 Q2269.98 1450.39 2273.18 1453.08 Q2276.37 1455.77 2276.37 1460.26 Q2276.37 1462.39 2275.56 1464.31 Q2274.78 1466.2 2272.67 1468.8 Q2272.09 1469.47 2268.99 1472.69 Q2265.89 1475.88 2260.24 1481.64 Z" fill="#000000" fill-rule="nonzero" fill-opacity="1" /><path clip-path="url(#clip840)" d="M2286.37 1479.7 L2291.26 1479.7 L2291.26 1485.58 L2286.37 1485.58 L2286.37 1479.7 Z" fill="#000000" fill-rule="nonzero" fill-opacity="1" /><path clip-path="url(#clip840)" d="M2301.49 1451.02 L2319.84 1451.02 L2319.84 1454.96 L2305.77 1454.96 L2305.77 1463.43 Q2306.79 1463.08 2307.81 1462.92 Q2308.83 1462.73 2309.85 1462.73 Q2315.63 1462.73 2319.01 1465.9 Q2322.39 1469.08 2322.39 1474.49 Q2322.39 1480.07 2318.92 1483.17 Q2315.45 1486.25 2309.13 1486.25 Q2306.95 1486.25 2304.68 1485.88 Q2302.44 1485.51 2300.03 1484.77 L2300.03 1480.07 Q2302.11 1481.2 2304.34 1481.76 Q2306.56 1482.32 2309.03 1482.32 Q2313.04 1482.32 2315.38 1480.21 Q2317.72 1478.1 2317.72 1474.49 Q2317.72 1470.88 2315.38 1468.77 Q2313.04 1466.67 2309.03 1466.67 Q2307.16 1466.67 2305.28 1467.08 Q2303.43 1467.5 2301.49 1468.38 L2301.49 1451.02 Z" fill="#000000" fill-rule="nonzero" fill-opacity="1" /><path clip-path="url(#clip840)" d="M1296.9 1531.91 Q1296.9 1532.81 1296.48 1533.04 Q1296.06 1533.23 1294.9 1533.23 L1288.72 1533.23 L1283.82 1552.69 Q1283.44 1554.39 1283.44 1555.84 Q1283.44 1557.45 1283.92 1558.16 Q1284.43 1558.87 1285.5 1558.87 Q1287.59 1558.87 1289.84 1556.97 Q1292.13 1555.07 1294.06 1550.43 Q1294.32 1549.82 1294.45 1549.69 Q1294.61 1549.53 1295.03 1549.53 Q1295.84 1549.53 1295.84 1550.17 Q1295.84 1550.4 1295.38 1551.43 Q1294.97 1552.46 1294.03 1553.97 Q1293.13 1555.49 1291.94 1556.9 Q1290.78 1558.32 1289.01 1559.35 Q1287.24 1560.35 1285.34 1560.35 Q1282.66 1560.35 1280.96 1558.64 Q1279.28 1556.94 1279.28 1554.26 Q1279.28 1553.39 1279.96 1550.62 Q1280.63 1547.82 1284.31 1533.23 L1278.48 1533.23 Q1277.67 1533.23 1277.35 1533.2 Q1277.06 1533.17 1276.83 1533.01 Q1276.64 1532.81 1276.64 1532.43 Q1276.64 1531.82 1276.9 1531.56 Q1277.16 1531.27 1277.48 1531.24 Q1277.83 1531.17 1278.64 1531.17 L1284.82 1531.17 L1287.4 1520.71 Q1287.65 1519.67 1288.3 1519.09 Q1288.98 1518.48 1289.36 1518.42 Q1289.75 1518.32 1290.04 1518.32 Q1290.91 1518.32 1291.42 1518.81 Q1291.94 1519.26 1291.94 1520.09 Q1291.94 1520.54 1289.23 1531.17 L1295.03 1531.17 Q1295.77 1531.17 1296.06 1531.2 Q1296.38 1531.24 1296.64 1531.4 Q1296.9 1531.56 1296.9 1531.91 Z" fill="#000000" fill-rule="nonzero" fill-opacity="1" /><polyline clip-path="url(#clip840)" style="stroke:#000000; stroke-linecap:round; stroke-linejoin:round; stroke-width:4; stroke-opacity:1; fill:none" points="224.098,1423.18 224.098,47.2441 "/>
<polyline clip-path="url(#clip840)" style="stroke:#000000; stroke-linecap:round; stroke-linejoin:round; stroke-width:4; stroke-opacity:1; fill:none" points="224.098,1412.64 242.996,1412.64 "/>
<polyline clip-path="url(#clip840)" style="stroke:#000000; stroke-linecap:round; stroke-linejoin:round; stroke-width:4; stroke-opacity:1; fill:none" points="224.098,1002.92 242.996,1002.92 "/>
<polyline clip-path="url(#clip840)" style="stroke:#000000; stroke-linecap:round; stroke-linejoin:round; stroke-width:4; stroke-opacity:1; fill:none" points="224.098,593.201 242.996,593.201 "/>
<polyline clip-path="url(#clip840)" style="stroke:#000000; stroke-linecap:round; stroke-linejoin:round; stroke-width:4; stroke-opacity:1; fill:none" points="224.098,183.48 242.996,183.48 "/>
<path clip-path="url(#clip840)" d="M50.9921 1413.1 L80.6679 1413.1 L80.6679 1417.03 L50.9921 1417.03 L50.9921 1413.1 Z" fill="#000000" fill-rule="nonzero" fill-opacity="1" /><path clip-path="url(#clip840)" d="M100.76 1398.44 Q97.1493 1398.44 95.3206 1402.01 Q93.515 1405.55 93.515 1412.68 Q93.515 1419.79 95.3206 1423.35 Q97.1493 1426.89 100.76 1426.89 Q104.395 1426.89 106.2 1423.35 Q108.029 1419.79 108.029 1412.68 Q108.029 1405.55 106.2 1402.01 Q104.395 1398.44 100.76 1398.44 M100.76 1394.74 Q106.571 1394.74 109.626 1399.35 Q112.705 1403.93 112.705 1412.68 Q112.705 1421.41 109.626 1426.01 Q106.571 1430.6 100.76 1430.6 Q94.9502 1430.6 91.8715 1426.01 Q88.816 1421.41 88.816 1412.68 Q88.816 1403.93 91.8715 1399.35 Q94.9502 1394.74 100.76 1394.74 Z" fill="#000000" fill-rule="nonzero" fill-opacity="1" /><path clip-path="url(#clip840)" d="M120.922 1424.04 L125.807 1424.04 L125.807 1429.92 L120.922 1429.92 L120.922 1424.04 Z" fill="#000000" fill-rule="nonzero" fill-opacity="1" /><path clip-path="url(#clip840)" d="M136.802 1425.99 L144.441 1425.99 L144.441 1399.62 L136.131 1401.29 L136.131 1397.03 L144.394 1395.36 L149.07 1395.36 L149.07 1425.99 L156.709 1425.99 L156.709 1429.92 L136.802 1429.92 L136.802 1425.99 Z" fill="#000000" fill-rule="nonzero" fill-opacity="1" /><path clip-path="url(#clip840)" d="M176.153 1398.44 Q172.542 1398.44 170.714 1402.01 Q168.908 1405.55 168.908 1412.68 Q168.908 1419.79 170.714 1423.35 Q172.542 1426.89 176.153 1426.89 Q179.788 1426.89 181.593 1423.35 Q183.422 1419.79 183.422 1412.68 Q183.422 1405.55 181.593 1402.01 Q179.788 1398.44 176.153 1398.44 M176.153 1394.74 Q181.964 1394.74 185.019 1399.35 Q188.098 1403.93 188.098 1412.68 Q188.098 1421.41 185.019 1426.01 Q181.964 1430.6 176.153 1430.6 Q170.343 1430.6 167.265 1426.01 Q164.209 1421.41 164.209 1412.68 Q164.209 1403.93 167.265 1399.35 Q170.343 1394.74 176.153 1394.74 Z" fill="#000000" fill-rule="nonzero" fill-opacity="1" /><path clip-path="url(#clip840)" d="M51.9875 1003.37 L81.6633 1003.37 L81.6633 1007.31 L51.9875 1007.31 L51.9875 1003.37 Z" fill="#000000" fill-rule="nonzero" fill-opacity="1" /><path clip-path="url(#clip840)" d="M101.756 988.722 Q98.1447 988.722 96.316 992.286 Q94.5104 995.828 94.5104 1002.96 Q94.5104 1010.06 96.316 1013.63 Q98.1447 1017.17 101.756 1017.17 Q105.39 1017.17 107.196 1013.63 Q109.024 1010.06 109.024 1002.96 Q109.024 995.828 107.196 992.286 Q105.39 988.722 101.756 988.722 M101.756 985.018 Q107.566 985.018 110.621 989.624 Q113.7 994.208 113.7 1002.96 Q113.7 1011.68 110.621 1016.29 Q107.566 1020.87 101.756 1020.87 Q95.9456 1020.87 92.8669 1016.29 Q89.8114 1011.68 89.8114 1002.96 Q89.8114 994.208 92.8669 989.624 Q95.9456 985.018 101.756 985.018 Z" fill="#000000" fill-rule="nonzero" fill-opacity="1" /><path clip-path="url(#clip840)" d="M121.918 1014.32 L126.802 1014.32 L126.802 1020.2 L121.918 1020.2 L121.918 1014.32 Z" fill="#000000" fill-rule="nonzero" fill-opacity="1" /><path clip-path="url(#clip840)" d="M146.987 988.722 Q143.376 988.722 141.547 992.286 Q139.742 995.828 139.742 1002.96 Q139.742 1010.06 141.547 1013.63 Q143.376 1017.17 146.987 1017.17 Q150.621 1017.17 152.427 1013.63 Q154.255 1010.06 154.255 1002.96 Q154.255 995.828 152.427 992.286 Q150.621 988.722 146.987 988.722 M146.987 985.018 Q152.797 985.018 155.853 989.624 Q158.931 994.208 158.931 1002.96 Q158.931 1011.68 155.853 1016.29 Q152.797 1020.87 146.987 1020.87 Q141.177 1020.87 138.098 1016.29 Q135.043 1011.68 135.043 1002.96 Q135.043 994.208 138.098 989.624 Q141.177 985.018 146.987 985.018 Z" fill="#000000" fill-rule="nonzero" fill-opacity="1" /><path clip-path="url(#clip840)" d="M167.195 985.643 L185.552 985.643 L185.552 989.578 L171.478 989.578 L171.478 998.05 Q172.496 997.703 173.515 997.541 Q174.533 997.356 175.552 997.356 Q181.339 997.356 184.718 1000.53 Q188.098 1003.7 188.098 1009.11 Q188.098 1014.69 184.626 1017.8 Q181.153 1020.87 174.834 1020.87 Q172.658 1020.87 170.39 1020.5 Q168.144 1020.13 165.737 1019.39 L165.737 1014.69 Q167.82 1015.83 170.042 1016.38 Q172.265 1016.94 174.741 1016.94 Q178.746 1016.94 181.084 1014.83 Q183.422 1012.73 183.422 1009.11 Q183.422 1005.5 181.084 1003.4 Q178.746 1001.29 174.741 1001.29 Q172.866 1001.29 170.991 1001.71 Q169.14 1002.12 167.195 1003 L167.195 985.643 Z" fill="#000000" fill-rule="nonzero" fill-opacity="1" /><path clip-path="url(#clip840)" d="M100.76 579 Q97.1493 579 95.3206 582.565 Q93.515 586.107 93.515 593.236 Q93.515 600.343 95.3206 603.907 Q97.1493 607.449 100.76 607.449 Q104.395 607.449 106.2 603.907 Q108.029 600.343 108.029 593.236 Q108.029 586.107 106.2 582.565 Q104.395 579 100.76 579 M100.76 575.296 Q106.571 575.296 109.626 579.903 Q112.705 584.486 112.705 593.236 Q112.705 601.963 109.626 606.569 Q106.571 611.153 100.76 611.153 Q94.9502 611.153 91.8715 606.569 Q88.816 601.963 88.816 593.236 Q88.816 584.486 91.8715 579.903 Q94.9502 575.296 100.76 575.296 Z" fill="#000000" fill-rule="nonzero" fill-opacity="1" /><path clip-path="url(#clip840)" d="M120.922 604.602 L125.807 604.602 L125.807 610.481 L120.922 610.481 L120.922 604.602 Z" fill="#000000" fill-rule="nonzero" fill-opacity="1" /><path clip-path="url(#clip840)" d="M145.992 579 Q142.381 579 140.552 582.565 Q138.746 586.107 138.746 593.236 Q138.746 600.343 140.552 603.907 Q142.381 607.449 145.992 607.449 Q149.626 607.449 151.431 603.907 Q153.26 600.343 153.26 593.236 Q153.26 586.107 151.431 582.565 Q149.626 579 145.992 579 M145.992 575.296 Q151.802 575.296 154.857 579.903 Q157.936 584.486 157.936 593.236 Q157.936 601.963 154.857 606.569 Q151.802 611.153 145.992 611.153 Q140.181 611.153 137.103 606.569 Q134.047 601.963 134.047 593.236 Q134.047 584.486 137.103 579.903 Q140.181 575.296 145.992 575.296 Z" fill="#000000" fill-rule="nonzero" fill-opacity="1" /><path clip-path="url(#clip840)" d="M176.153 579 Q172.542 579 170.714 582.565 Q168.908 586.107 168.908 593.236 Q168.908 600.343 170.714 603.907 Q172.542 607.449 176.153 607.449 Q179.788 607.449 181.593 603.907 Q183.422 600.343 183.422 593.236 Q183.422 586.107 181.593 582.565 Q179.788 579 176.153 579 M176.153 575.296 Q181.964 575.296 185.019 579.903 Q188.098 584.486 188.098 593.236 Q188.098 601.963 185.019 606.569 Q181.964 611.153 176.153 611.153 Q170.343 611.153 167.265 606.569 Q164.209 601.963 164.209 593.236 Q164.209 584.486 167.265 579.903 Q170.343 575.296 176.153 575.296 Z" fill="#000000" fill-rule="nonzero" fill-opacity="1" /><path clip-path="url(#clip840)" d="M101.756 169.279 Q98.1447 169.279 96.316 172.843 Q94.5104 176.385 94.5104 183.515 Q94.5104 190.621 96.316 194.186 Q98.1447 197.728 101.756 197.728 Q105.39 197.728 107.196 194.186 Q109.024 190.621 109.024 183.515 Q109.024 176.385 107.196 172.843 Q105.39 169.279 101.756 169.279 M101.756 165.575 Q107.566 165.575 110.621 170.181 Q113.7 174.765 113.7 183.515 Q113.7 192.242 110.621 196.848 Q107.566 201.431 101.756 201.431 Q95.9456 201.431 92.8669 196.848 Q89.8114 192.242 89.8114 183.515 Q89.8114 174.765 92.8669 170.181 Q95.9456 165.575 101.756 165.575 Z" fill="#000000" fill-rule="nonzero" fill-opacity="1" /><path clip-path="url(#clip840)" d="M121.918 194.88 L126.802 194.88 L126.802 200.76 L121.918 200.76 L121.918 194.88 Z" fill="#000000" fill-rule="nonzero" fill-opacity="1" /><path clip-path="url(#clip840)" d="M146.987 169.279 Q143.376 169.279 141.547 172.843 Q139.742 176.385 139.742 183.515 Q139.742 190.621 141.547 194.186 Q143.376 197.728 146.987 197.728 Q150.621 197.728 152.427 194.186 Q154.255 190.621 154.255 183.515 Q154.255 176.385 152.427 172.843 Q150.621 169.279 146.987 169.279 M146.987 165.575 Q152.797 165.575 155.853 170.181 Q158.931 174.765 158.931 183.515 Q158.931 192.242 155.853 196.848 Q152.797 201.431 146.987 201.431 Q141.177 201.431 138.098 196.848 Q135.043 192.242 135.043 183.515 Q135.043 174.765 138.098 170.181 Q141.177 165.575 146.987 165.575 Z" fill="#000000" fill-rule="nonzero" fill-opacity="1" /><path clip-path="url(#clip840)" d="M167.195 166.2 L185.552 166.2 L185.552 170.135 L171.478 170.135 L171.478 178.607 Q172.496 178.26 173.515 178.098 Q174.533 177.913 175.552 177.913 Q181.339 177.913 184.718 181.084 Q188.098 184.255 188.098 189.672 Q188.098 195.251 184.626 198.353 Q181.153 201.431 174.834 201.431 Q172.658 201.431 170.39 201.061 Q168.144 200.691 165.737 199.95 L165.737 195.251 Q167.82 196.385 170.042 196.941 Q172.265 197.496 174.741 197.496 Q178.746 197.496 181.084 195.39 Q183.422 193.283 183.422 189.672 Q183.422 186.061 181.084 183.955 Q178.746 181.848 174.741 181.848 Q172.866 181.848 170.991 182.265 Q169.14 182.681 167.195 183.561 L167.195 166.2 Z" fill="#000000" fill-rule="nonzero" fill-opacity="1" /><polyline clip-path="url(#clip842)" style="stroke:#009af9; stroke-linecap:round; stroke-linejoin:round; stroke-width:4; stroke-opacity:1; fill:none" points="284.343,593.201 290.355,593.877 296.368,595.489 302.38,597.502 308.393,599.564 314.405,601.472 320.418,603.383 326.43,605.77 332.443,608.66 338.455,611.655 344.468,614.633 350.48,617.743 356.493,620.88 362.505,623.88 368.518,626.811 374.53,629.553 380.543,632.327 386.555,635.315 392.568,638.241 398.58,640.901 404.592,643.093 410.605,644.739 416.617,646.092 422.63,647.439 428.642,649.106 434.655,651.39 440.667,654.062 446.68,656.739 452.692,658.887 458.705,660.307 464.717,662.039 470.73,663.842 476.742,665.161 482.755,666.408 488.767,667.46 494.78,668.437 500.792,669.688 506.805,671.076 512.817,672.084 518.83,672.707 524.842,673.104 530.855,673.623 536.867,674.234 542.88,674.329 548.892,674.686 554.904,675.281 560.917,675.701 566.929,676.281 572.942,677.27 578.954,678.501 584.967,679.189 590.979,679.853 596.992,681.146 603.004,682.776 609.017,684.65 615.029,687.269 621.042,690.354 627.054,693.274 633.067,695.759 639.079,697.784 645.092,699.723 651.104,701.959 657.117,704.583 663.129,707.429 669.142,710.498 675.154,713.445 681.167,716.039 687.179,718.329 693.191,720.58 699.204,723.221 705.216,725.952 711.229,728.82 717.241,732.116 723.254,735.666 729.266,739.814 735.279,744.334 741.291,748.317 747.304,751.698 753.316,754.768 759.329,757.465 765.341,760.183 771.354,763.051 777.366,765.896 783.379,768.946 789.391,771.883 795.404,774.504 801.416,776.924 807.429,779.131 813.441,781.303 819.454,783.288 825.466,784.981 831.478,786.832 837.491,788.848 843.503,791.043 849.516,793.544 855.528,796.127 861.541,798.498 867.553,800.947 873.566,803.68 879.578,806.162 885.591,808.413 891.603,810.609 897.616,812.568 903.628,814.118 909.641,815.594 915.653,817.366 921.666,819.143 927.678,820.506 933.691,821.443 939.703,822.102 945.716,822.566 951.728,823.171 957.741,824.207 963.753,825.524 969.766,826.797 975.778,827.842 981.79,828.886 987.803,830.149 993.815,831.67 999.828,833.492 1005.84,835.284 1011.85,836.705 1017.87,837.961 1023.88,839.479 1029.89,841.427 1035.9,843.63 1041.92,846.099 1047.93,848.89 1053.94,852.129 1059.95,855.705 1065.97,858.987 1071.98,861.582 1077.99,864.229 1084,867.449 1090.02,870.907 1096.03,874.279 1102.04,877.969 1108.05,882.252 1114.07,886.837 1120.08,891.752 1126.09,896.798 1132.1,902.185 1138.11,907.998 1144.13,913.672 1150.14,919.133 1156.15,924.303 1162.16,928.687 1168.18,932.421 1174.19,936.022 1180.2,939.1 1186.21,941.615 1192.23,944.134 1198.24,946.918 1204.25,949.917 1210.26,952.838 1216.28,955.708 1222.29,958.11 1228.3,960.079 1234.31,962.356 1240.33,965.27 1246.34,968.955 1252.35,973.27 1258.36,977.807 1264.38,982.11 1270.39,986.007 1276.4,989.918 1282.41,993.95 1288.43,998.082 1294.44,1001.9 1300.45,1005.01 1306.46,1008.16 1312.48,1011.55 1318.49,1014.64 1324.5,1017.26 1330.51,1019.97 1336.53,1022.95 1342.54,1025.96 1348.55,1028.9 1354.56,1031.76 1360.58,1034.42 1366.59,1036.84 1372.6,1038.9 1378.61,1040.5 1384.63,1041.7 1390.64,1042.81 1396.65,1043.92 1402.66,1045.24 1408.68,1046.62 1414.69,1047.7 1420.7,1049.02 1426.71,1050.38 1432.73,1051.44 1438.74,1052.23 1444.75,1052.72 1450.76,1053.16 1456.78,1053.44 1462.79,1053.47 1468.8,1053.24 1474.81,1052.75 1480.83,1051.99 1486.84,1050.79 1492.85,1048.96 1498.86,1046.68 1504.88,1044.45 1510.89,1042.19 1516.9,1040.04 1522.91,1038.18 1528.93,1036.22 1534.94,1034.45 1540.95,1033.17 1546.96,1031.93 1552.98,1030.42 1558.99,1028.6 1565,1026.67 1571.01,1024.93 1577.03,1023.47 1583.04,1022.16 1589.05,1020.45 1595.06,1018.34 1601.08,1016.3 1607.09,1014.34 1613.1,1012.48 1619.11,1010.66 1625.13,1008.67 1631.14,1006.89 1637.15,1005.34 1643.16,1003.82 1649.18,1002.28 1655.19,1000.49 1661.2,998.313 1667.21,995.786 1673.23,993.325 1679.24,990.843 1685.25,988.148 1691.26,985.363 1697.28,982.702 1703.29,980.065 1709.3,977.643 1715.31,975.688 1721.33,973.673 1727.34,971.685 1733.35,969.939 1739.36,968.266 1745.38,966.646 1751.39,964.736 1757.4,962.923 1763.41,961.871 1769.43,961.104 1775.44,960.269 1781.45,959.419 1787.46,958.578 1793.48,957.685 1799.49,956.686 1805.5,955.654 1811.51,954.534 1817.53,953.475 1823.54,952.624 1829.55,951.829 1835.56,951.034 1841.57,950.361 1847.59,950.161 1853.6,950.153 1859.61,949.821 1865.62,949.776 1871.64,950.103 1877.65,950.444 1883.66,950.801 1889.67,951.127 1895.69,951.861 1901.7,952.869 1907.71,953.754 1913.72,954.887 1919.74,956.322 1925.75,957.5 1931.76,957.955 1937.77,957.778 1943.79,957.018 1949.8,955.852 1955.81,954.202 1961.82,952.214 1967.84,950.784 1973.85,949.629 1979.86,948.252 1985.87,946.648 1991.89,944.848 1997.9,943.084 2003.91,941.269 2009.92,939.466 2015.94,937.673 2021.95,936.315 2027.96,935.35 2033.97,934.521 2039.99,934.025 2046,933.693 2052.01,933.738 2058.02,934.021 2064.04,934.597 2070.05,935.624 2076.06,936.771 2082.07,937.971 2088.09,939.337 2094.1,940.614 2100.11,941.751 2106.12,942.755 2112.14,943.583 2118.15,944.057 2124.16,944.15 2130.17,944.016 2136.19,943.701 2142.2,943.005 2148.21,941.822 2154.22,940.477 2160.24,939.382 2166.25,938.625 2172.26,938.01 2178.27,937.512 2184.29,936.962 2190.3,935.979 2196.31,934.398 2202.32,932.392 2208.34,929.997 2214.35,927.334 2220.36,924.2 2226.37,920.727 2232.39,917.112 2238.4,913.599 2244.41,910.541 2250.42,907.84 2256.44,905.541 2262.45,903.584 2268.46,901.671 2274.47,900.339 2280.49,899.775 2286.5,899.377 2292.51,899.056 "/>
<polyline clip-path="url(#clip842)" style="stroke:#e26f46; stroke-linecap:round; stroke-linejoin:round; stroke-width:4; stroke-opacity:1; fill:none" points="284.343,593.201 290.355,773.279 296.368,843.131 302.38,880.042 308.393,856.128 314.405,839.213 320.418,856.594 326.43,966.371 332.443,990.84 338.455,994.302 344.468,986.085 350.48,1029.61 356.493,993.289 362.505,993.255 368.518,974.665 374.53,943.046 380.543,983.02 386.555,1000.27 392.568,966.352 398.58,929.45 404.592,841.315 410.605,784.132 416.617,763.171 422.63,782.362 428.642,848.484 434.655,947.147 440.667,951.572 446.68,948.701 452.692,810.539 458.705,754.598 464.717,893.606 470.73,773.56 476.742,764.683 482.755,754.295 488.767,712.52 494.78,734.513 500.792,785.537 506.805,770.954 512.817,684.193 518.83,668.324 524.842,624.088 530.855,700.653 536.867,648.618 542.88,563.015 548.892,718.778 554.904,626.233 560.917,672.089 566.929,669.062 572.942,781.107 578.954,733.405 584.967,636.559 590.979,727.004 596.992,804.01 603.004,817.269 609.017,868.85 615.029,1015.79 621.042,993.319 627.054,971.777 633.067,877.2 639.079,849.452 645.092,853.797 651.104,929.065 657.117,956.841 663.129,988.649 669.142,1016.16 675.154,955.932 681.167,922.384 687.179,874.757 693.191,911.856 699.204,978.826 705.216,935.722 711.229,1015.58 717.241,1049.57 723.254,1083.66 729.266,1208.93 735.279,1182.72 741.291,1065.84 747.304,1022.16 753.316,982.879 759.329,922.846 765.341,988.369 771.354,962.698 777.366,982.314 783.379,1017.47 789.391,952.037 795.404,933.282 801.416,898.555 807.429,876.267 813.441,889.514 819.454,826.185 825.466,811.577 831.478,868.57 837.491,855.513 843.503,916.097 849.516,937.189 855.528,938.005 861.541,880.775 867.553,958.615 873.566,956.741 879.578,891.366 885.591,895.267 891.603,876.862 897.616,831.803 903.628,767.995 909.641,811.933 915.653,847.081 921.666,813.13 927.678,736.885 933.691,699.27 939.703,662.899 945.716,647.371 951.728,700.153 957.741,762.55 963.753,775.074 969.766,750.755 975.778,714.516 981.79,750.126 987.803,773.019 993.815,818.953 999.828,853.49 1005.84,810.705 1011.85,754.788 1017.87,766.374 1023.88,824.86 1029.89,880.917 1035.9,892.955 1041.92,951.946 1047.93,978.838 1053.94,1071.17 1059.95,1068.91 1065.97,992.508 1071.98,885.956 1077.99,1006.51 1084,1038.5 1090.02,1070.07 1096.03,1015.4 1102.04,1155 1108.05,1173.5 1114.07,1235.64 1120.08,1261.55 1126.09,1270.45 1132.1,1352.28 1138.11,1384.24 1144.13,1315.38 1150.14,1327.39 1156.15,1237.5 1162.16,1117.93 1168.18,1064.27 1174.19,1082.37 1180.2,925.004 1186.21,931.843 1192.23,926.261 1198.24,1002.7 1204.25,983.527 1210.26,981.643 1216.28,970.077 1222.29,857.023 1228.3,854.317 1234.31,939.31 1240.33,1024.26 1246.34,1144.69 1252.35,1192.51 1258.36,1203.74 1264.38,1130.07 1270.39,1095.39 1276.4,1134.07 1282.41,1127.54 1288.43,1160.82 1294.44,1044.12 1300.45,971.286 1306.46,1054.02 1312.48,1038.32 1318.49,971.648 1324.5,914.014 1330.51,994.706 1336.53,986.696 1342.54,1002.45 1348.55,966.031 1354.56,982.605 1360.58,914.894 1366.59,914.971 1372.6,822.417 1378.61,789.661 1384.63,717.634 1390.64,764.663 1396.65,718.847 1402.66,818.63 1408.68,735.801 1414.69,737.741 1420.7,802.141 1426.71,746.452 1432.73,721.331 1438.74,676.996 1444.75,640.255 1450.76,662.964 1456.78,597.06 1462.79,597.688 1468.8,528.971 1474.81,527.02 1480.83,455.55 1486.84,409.717 1492.85,290.02 1498.86,287.95 1504.88,304.444 1510.89,278.165 1516.9,336.439 1522.91,353.901 1528.93,310.147 1534.94,401.971 1540.95,443.894 1546.96,411.336 1552.98,373.781 1558.99,326.935 1565,344.289 1571.01,377.253 1577.03,422.108 1583.04,414.518 1589.05,314.994 1595.06,308.473 1601.08,333.122 1607.09,332.577 1613.1,356.558 1619.11,345.785 1625.13,309.625 1631.14,402.083 1637.15,371.554 1643.16,409.148 1649.18,367.241 1655.19,340.46 1661.2,265.582 1667.21,246.774 1673.23,283.559 1679.24,240.882 1685.25,226.86 1691.26,216.94 1697.28,259.737 1703.29,223.422 1709.3,317.12 1715.31,348.12 1721.33,301.002 1727.34,355.126 1733.35,365.766 1739.36,374.467 1745.38,379.985 1751.39,297.072 1757.4,405.847 1763.41,499.935 1769.43,481.908 1775.44,482.022 1781.45,477.64 1787.46,484.434 1793.48,463.819 1799.49,456.158 1805.5,455.055 1811.51,432.83 1817.53,471.149 1823.54,488.26 1829.55,486.174 1835.56,488.233 1841.57,518.628 1847.59,614.52 1853.6,569.587 1859.61,528.507 1865.62,645.832 1871.64,627.851 1877.65,649.482 1883.66,631.96 1889.67,641.532 1895.69,740.508 1901.7,714.683 1907.71,707.666 1913.72,781.012 1919.74,787.883 1925.75,712.711 1931.76,595.022 1937.77,544.109 1943.79,439.789 1949.8,435.671 1955.81,310.784 1961.82,345.252 1967.84,459.952 1973.85,418.408 1979.86,400.905 1985.87,357.737 1991.89,348.688 1997.9,367.143 2003.91,335.339 2009.92,370.27 2015.94,337.99 2021.95,486.217 2027.96,442.907 2033.97,522.465 2039.99,531.573 2046,566.333 2052.01,632.029 2058.02,630.03 2064.04,709.942 2070.05,750.218 2076.06,742.059 2082.07,764.481 2088.09,786.134 2094.1,740.711 2100.11,748.901 2106.12,705.392 2112.14,701.583 2118.15,611.229 2124.16,600.103 2130.17,550.658 2136.19,551.684 2142.2,449.152 2148.21,421.599 2154.22,406.227 2160.24,488.269 2166.25,496.253 2172.26,526.002 2178.27,527.624 2184.29,512.283 2190.3,411.758 2196.31,353.161 2202.32,298.314 2208.34,249.487 2214.35,226.827 2220.36,123.802 2226.37,136.273 2232.39,86.1857 2238.4,163.412 2244.41,207.713 2250.42,258.225 2256.44,315.203 2262.45,349.214 2268.46,327.175 2274.47,504.069 2280.49,531.88 2286.5,548.36 2292.51,552.413 "/>
<path clip-path="url(#clip840)" d="M295.053 248.629 L531.182 248.629 L531.182 93.1086 L295.053 93.1086  Z" fill="#ffffff" fill-rule="evenodd" fill-opacity="1"/>
<polyline clip-path="url(#clip840)" style="stroke:#000000; stroke-linecap:round; stroke-linejoin:round; stroke-width:4; stroke-opacity:1; fill:none" points="295.053,248.629 531.182,248.629 531.182,93.1086 295.053,93.1086 295.053,248.629 "/>
<polyline clip-path="url(#clip840)" style="stroke:#009af9; stroke-linecap:round; stroke-linejoin:round; stroke-width:4; stroke-opacity:1; fill:none" points="318.705,144.949 460.615,144.949 "/>
<path clip-path="url(#clip840)" d="M506.401 131.203 Q506.401 131.531 506.191 132.304 L501.6 150.62 Q500.593 154.696 497.313 157.554 Q494.058 160.411 490.357 160.411 Q488.132 160.411 486.703 159.217 Q485.274 158.045 485.274 156.242 Q485.274 154.649 486.118 153.876 Q486.961 153.127 487.968 153.127 Q488.296 153.127 488.647 153.22 Q488.999 153.314 489.373 153.712 Q489.748 154.11 489.748 154.79 Q489.748 155.891 488.788 156.757 Q488.319 157.155 487.874 157.249 Q487.453 157.343 486.727 157.343 Q487.008 157.999 487.523 158.444 Q488.038 158.889 488.624 159.053 Q489.209 159.24 489.584 159.287 Q489.982 159.357 490.357 159.357 Q493.355 159.357 495.65 156.336 Q496.33 155.422 496.822 154.509 Q497.337 153.619 497.712 152.518 Q498.086 151.44 498.25 150.855 Q498.438 150.269 498.766 148.934 Q496.587 151.112 493.917 151.112 Q492.793 151.112 491.786 150.808 Q490.802 150.503 489.935 149.871 Q489.069 149.215 488.553 148.067 Q488.062 146.92 488.062 145.397 Q488.062 143.781 488.694 141.579 Q489.326 139.378 490.849 135.326 Q491.669 133.054 491.669 131.953 Q491.669 131.414 491.552 131.086 Q491.434 130.735 491.2 130.618 Q490.966 130.477 490.825 130.454 Q490.708 130.43 490.474 130.43 Q489.092 130.43 487.804 131.836 Q486.516 133.241 485.626 136.38 Q485.438 136.965 485.321 137.106 Q485.204 137.246 484.853 137.246 Q484.267 137.223 484.267 136.754 Q484.267 136.567 484.478 135.841 Q484.689 135.091 485.181 133.991 Q485.696 132.866 486.399 131.859 Q487.101 130.828 488.202 130.102 Q489.326 129.376 490.615 129.376 Q492.371 129.376 493.449 130.524 Q494.55 131.648 494.55 133.311 Q494.55 133.991 494.362 134.6 Q494.198 135.185 493.589 136.754 Q491.13 143.078 491.13 146.17 Q491.13 146.92 491.247 147.552 Q491.388 148.161 491.692 148.77 Q491.997 149.356 492.606 149.707 Q493.238 150.035 494.105 150.035 Q495.205 150.035 496.236 149.52 Q497.29 148.981 497.946 148.255 Q498.625 147.529 499.023 146.92 Q499.445 146.287 499.539 145.959 L501.693 137.34 L502.654 133.499 Q503.099 131.414 503.31 130.899 Q503.591 130.407 504.083 130.149 Q504.574 129.892 504.996 129.892 Q505.582 129.892 505.98 130.243 Q506.401 130.594 506.401 131.203 Z" fill="#000000" fill-rule="nonzero" fill-opacity="1" /><polyline clip-path="url(#clip840)" style="stroke:#e26f46; stroke-linecap:round; stroke-linejoin:round; stroke-width:4; stroke-opacity:1; fill:none" points="318.705,196.789 460.615,196.789 "/>
<path clip-path="url(#clip840)" d="M505.324 189.167 Q505.324 189.776 505.16 190.971 Q504.996 192.165 504.598 193.899 Q504.2 195.632 503.614 197.459 Q503.052 199.286 502.162 201.113 Q501.272 202.916 500.218 204.345 Q499.164 205.774 497.688 206.664 Q496.213 207.554 494.55 207.554 Q493.777 207.554 493.027 207.437 Q492.278 207.32 491.341 206.945 Q490.404 206.57 489.725 205.961 Q489.045 205.329 488.577 204.204 Q488.108 203.08 488.108 201.605 Q488.108 200.082 488.671 198.044 Q489.256 195.983 490.849 191.767 Q491.669 189.589 491.669 188.394 Q491.669 187.856 491.552 187.528 Q491.434 187.176 491.2 187.059 Q490.966 186.919 490.825 186.895 Q490.708 186.872 490.474 186.872 Q489.186 186.872 487.874 188.207 Q486.563 189.542 485.626 192.821 Q485.438 193.407 485.321 193.547 Q485.204 193.688 484.853 193.688 Q484.267 193.664 484.267 193.196 Q484.267 193.055 484.431 192.517 Q484.595 191.955 484.9 191.111 Q485.204 190.245 485.743 189.355 Q486.282 188.441 486.937 187.645 Q487.617 186.848 488.577 186.333 Q489.537 185.818 490.615 185.818 Q492.371 185.818 493.449 186.966 Q494.55 188.09 494.55 189.753 Q494.55 190.666 493.964 192.142 Q492.98 194.812 492.535 196.1 Q492.09 197.389 491.622 199.216 Q491.177 201.042 491.177 202.307 Q491.177 204.228 492.067 205.352 Q492.957 206.476 494.737 206.476 Q496.33 206.476 497.759 205.329 Q499.211 204.158 500.171 202.495 Q501.131 200.808 501.857 198.934 Q502.584 197.037 502.911 195.608 Q503.263 194.156 503.263 193.477 Q503.263 191.111 501.647 189.565 Q501.202 189.12 501.038 188.839 Q500.874 188.558 500.874 188.113 Q500.874 187.293 501.6 186.567 Q502.349 185.818 503.216 185.818 Q504.012 185.818 504.668 186.614 Q505.324 187.411 505.324 189.167 Z" fill="#000000" fill-rule="nonzero" fill-opacity="1" /></svg>
