<?xml version="1.0" encoding="utf-8"?>
<svg xmlns="http://www.w3.org/2000/svg" xmlns:xlink="http://www.w3.org/1999/xlink" width="600" height="400" viewBox="0 0 2400 1600">
<defs>
  <clipPath id="clip190">
    <rect x="0" y="0" width="2400" height="1600"/>
  </clipPath>
</defs>
<path clip-path="url(#clip190)" d="M0 1600 L2400 1600 L2400 0 L0 0  Z" fill="#ffffff" fill-rule="evenodd" fill-opacity="1"/>
<defs>
  <clipPath id="clip191">
    <rect x="480" y="0" width="1681" height="1600"/>
  </clipPath>
</defs>
<path clip-path="url(#clip190)" d="M224.098 1423.18 L2352.76 1423.18 L2352.76 47.2441 L224.098 47.2441  Z" fill="#ffffff" fill-rule="evenodd" fill-opacity="1"/>
<defs>
  <clipPath id="clip192">
    <rect x="224" y="47" width="2130" height="1377"/>
  </clipPath>
</defs>
<polyline clip-path="url(#clip192)" style="stroke:#000000; stroke-linecap:round; stroke-linejoin:round; stroke-width:2; stroke-opacity:0.1; fill:none" points="284.343,1423.18 284.343,47.2441 "/>
<polyline clip-path="url(#clip192)" style="stroke:#000000; stroke-linecap:round; stroke-linejoin:round; stroke-width:2; stroke-opacity:0.1; fill:none" points="685.175,1423.18 685.175,47.2441 "/>
<polyline clip-path="url(#clip192)" style="stroke:#000000; stroke-linecap:round; stroke-linejoin:round; stroke-width:2; stroke-opacity:0.1; fill:none" points="1086.01,1423.18 1086.01,47.2441 "/>
<polyline clip-path="url(#clip192)" style="stroke:#000000; stroke-linecap:round; stroke-linejoin:round; stroke-width:2; stroke-opacity:0.1; fill:none" points="1486.84,1423.18 1486.84,47.2441 "/>
<polyline clip-path="url(#clip192)" style="stroke:#000000; stroke-linecap:round; stroke-linejoin:round; stroke-width:2; stroke-opacity:0.1; fill:none" points="1887.67,1423.18 1887.67,47.2441 "/>
<polyline clip-path="url(#clip192)" style="stroke:#000000; stroke-linecap:round; stroke-linejoin:round; stroke-width:2; stroke-opacity:0.1; fill:none" points="2288.5,1423.18 2288.5,47.2441 "/>
<polyline clip-path="url(#clip192)" style="stroke:#000000; stroke-linecap:round; stroke-linejoin:round; stroke-width:2; stroke-opacity:0.1; fill:none" points="224.098,1344.49 2352.76,1344.49 "/>
<polyline clip-path="url(#clip192)" style="stroke:#000000; stroke-linecap:round; stroke-linejoin:round; stroke-width:2; stroke-opacity:0.1; fill:none" points="224.098,1005.92 2352.76,1005.92 "/>
<polyline clip-path="url(#clip192)" style="stroke:#000000; stroke-linecap:round; stroke-linejoin:round; stroke-width:2; stroke-opacity:0.1; fill:none" points="224.098,667.349 2352.76,667.349 "/>
<polyline clip-path="url(#clip192)" style="stroke:#000000; stroke-linecap:round; stroke-linejoin:round; stroke-width:2; stroke-opacity:0.1; fill:none" points="224.098,328.779 2352.76,328.779 "/>
<polyline clip-path="url(#clip190)" style="stroke:#000000; stroke-linecap:round; stroke-linejoin:round; stroke-width:4; stroke-opacity:1; fill:none" points="224.098,1423.18 2352.76,1423.18 "/>
<polyline clip-path="url(#clip190)" style="stroke:#000000; stroke-linecap:round; stroke-linejoin:round; stroke-width:4; stroke-opacity:1; fill:none" points="284.343,1423.18 284.343,1404.28 "/>
<polyline clip-path="url(#clip190)" style="stroke:#000000; stroke-linecap:round; stroke-linejoin:round; stroke-width:4; stroke-opacity:1; fill:none" points="685.175,1423.18 685.175,1404.28 "/>
<polyline clip-path="url(#clip190)" style="stroke:#000000; stroke-linecap:round; stroke-linejoin:round; stroke-width:4; stroke-opacity:1; fill:none" points="1086.01,1423.18 1086.01,1404.28 "/>
<polyline clip-path="url(#clip190)" style="stroke:#000000; stroke-linecap:round; stroke-linejoin:round; stroke-width:4; stroke-opacity:1; fill:none" points="1486.84,1423.18 1486.84,1404.28 "/>
<polyline clip-path="url(#clip190)" style="stroke:#000000; stroke-linecap:round; stroke-linejoin:round; stroke-width:4; stroke-opacity:1; fill:none" points="1887.67,1423.18 1887.67,1404.28 "/>
<polyline clip-path="url(#clip190)" style="stroke:#000000; stroke-linecap:round; stroke-linejoin:round; stroke-width:4; stroke-opacity:1; fill:none" points="2288.5,1423.18 2288.5,1404.28 "/>
<path clip-path="url(#clip190)" d="M261.727 1454.1 Q258.116 1454.1 256.288 1457.66 Q254.482 1461.2 254.482 1468.33 Q254.482 1475.44 256.288 1479.01 Q258.116 1482.55 261.727 1482.55 Q265.362 1482.55 267.167 1479.01 Q268.996 1475.44 268.996 1468.33 Q268.996 1461.2 267.167 1457.66 Q265.362 1454.1 261.727 1454.1 M261.727 1450.39 Q267.537 1450.39 270.593 1455 Q273.672 1459.58 273.672 1468.33 Q273.672 1477.06 270.593 1481.67 Q267.537 1486.25 261.727 1486.25 Q255.917 1486.25 252.838 1481.67 Q249.783 1477.06 249.783 1468.33 Q249.783 1459.58 252.838 1455 Q255.917 1450.39 261.727 1450.39 Z" fill="#000000" fill-rule="nonzero" fill-opacity="1" /><path clip-path="url(#clip190)" d="M281.889 1479.7 L286.773 1479.7 L286.773 1485.58 L281.889 1485.58 L281.889 1479.7 Z" fill="#000000" fill-rule="nonzero" fill-opacity="1" /><path clip-path="url(#clip190)" d="M306.959 1454.1 Q303.347 1454.1 301.519 1457.66 Q299.713 1461.2 299.713 1468.33 Q299.713 1475.44 301.519 1479.01 Q303.347 1482.55 306.959 1482.55 Q310.593 1482.55 312.398 1479.01 Q314.227 1475.44 314.227 1468.33 Q314.227 1461.2 312.398 1457.66 Q310.593 1454.1 306.959 1454.1 M306.959 1450.39 Q312.769 1450.39 315.824 1455 Q318.903 1459.58 318.903 1468.33 Q318.903 1477.06 315.824 1481.67 Q312.769 1486.25 306.959 1486.25 Q301.148 1486.25 298.07 1481.67 Q295.014 1477.06 295.014 1468.33 Q295.014 1459.58 298.07 1455 Q301.148 1450.39 306.959 1450.39 Z" fill="#000000" fill-rule="nonzero" fill-opacity="1" /><path clip-path="url(#clip190)" d="M663.057 1454.1 Q659.446 1454.1 657.617 1457.66 Q655.812 1461.2 655.812 1468.33 Q655.812 1475.44 657.617 1479.01 Q659.446 1482.55 663.057 1482.55 Q666.691 1482.55 668.497 1479.01 Q670.325 1475.44 670.325 1468.33 Q670.325 1461.2 668.497 1457.66 Q666.691 1454.1 663.057 1454.1 M663.057 1450.39 Q668.867 1450.39 671.923 1455 Q675.001 1459.58 675.001 1468.33 Q675.001 1477.06 671.923 1481.67 Q668.867 1486.25 663.057 1486.25 Q657.247 1486.25 654.168 1481.67 Q651.113 1477.06 651.113 1468.33 Q651.113 1459.58 654.168 1455 Q657.247 1450.39 663.057 1450.39 Z" fill="#000000" fill-rule="nonzero" fill-opacity="1" /><path clip-path="url(#clip190)" d="M683.219 1479.7 L688.103 1479.7 L688.103 1485.58 L683.219 1485.58 L683.219 1479.7 Z" fill="#000000" fill-rule="nonzero" fill-opacity="1" /><path clip-path="url(#clip190)" d="M698.334 1451.02 L716.691 1451.02 L716.691 1454.96 L702.617 1454.96 L702.617 1463.43 Q703.635 1463.08 704.654 1462.92 Q705.672 1462.73 706.691 1462.73 Q712.478 1462.73 715.858 1465.9 Q719.237 1469.08 719.237 1474.49 Q719.237 1480.07 715.765 1483.17 Q712.293 1486.25 705.973 1486.25 Q703.797 1486.25 701.529 1485.88 Q699.284 1485.51 696.876 1484.77 L696.876 1480.07 Q698.959 1481.2 701.182 1481.76 Q703.404 1482.32 705.881 1482.32 Q709.885 1482.32 712.223 1480.21 Q714.561 1478.1 714.561 1474.49 Q714.561 1470.88 712.223 1468.77 Q709.885 1466.67 705.881 1466.67 Q704.006 1466.67 702.131 1467.08 Q700.279 1467.5 698.334 1468.38 L698.334 1451.02 Z" fill="#000000" fill-rule="nonzero" fill-opacity="1" /><path clip-path="url(#clip190)" d="M1053.16 1481.64 L1060.8 1481.64 L1060.8 1455.28 L1052.49 1456.95 L1052.49 1452.69 L1060.75 1451.02 L1065.43 1451.02 L1065.43 1481.64 L1073.07 1481.64 L1073.07 1485.58 L1053.16 1485.58 L1053.16 1481.64 Z" fill="#000000" fill-rule="nonzero" fill-opacity="1" /><path clip-path="url(#clip190)" d="M1082.51 1479.7 L1087.4 1479.7 L1087.4 1485.58 L1082.51 1485.58 L1082.51 1479.7 Z" fill="#000000" fill-rule="nonzero" fill-opacity="1" /><path clip-path="url(#clip190)" d="M1107.58 1454.1 Q1103.97 1454.1 1102.14 1457.66 Q1100.34 1461.2 1100.34 1468.33 Q1100.34 1475.44 1102.14 1479.01 Q1103.97 1482.55 1107.58 1482.55 Q1111.21 1482.55 1113.02 1479.01 Q1114.85 1475.44 1114.85 1468.33 Q1114.85 1461.2 1113.02 1457.66 Q1111.21 1454.1 1107.58 1454.1 M1107.58 1450.39 Q1113.39 1450.39 1116.45 1455 Q1119.53 1459.58 1119.53 1468.33 Q1119.53 1477.06 1116.45 1481.67 Q1113.39 1486.25 1107.58 1486.25 Q1101.77 1486.25 1098.69 1481.67 Q1095.64 1477.06 1095.64 1468.33 Q1095.64 1459.58 1098.69 1455 Q1101.77 1450.39 1107.58 1450.39 Z" fill="#000000" fill-rule="nonzero" fill-opacity="1" /><path clip-path="url(#clip190)" d="M1454.49 1481.64 L1462.13 1481.64 L1462.13 1455.28 L1453.82 1456.95 L1453.82 1452.69 L1462.08 1451.02 L1466.76 1451.02 L1466.76 1481.64 L1474.4 1481.64 L1474.4 1485.58 L1454.49 1485.58 L1454.49 1481.64 Z" fill="#000000" fill-rule="nonzero" fill-opacity="1" /><path clip-path="url(#clip190)" d="M1483.84 1479.7 L1488.73 1479.7 L1488.73 1485.58 L1483.84 1485.58 L1483.84 1479.7 Z" fill="#000000" fill-rule="nonzero" fill-opacity="1" /><path clip-path="url(#clip190)" d="M1498.96 1451.02 L1517.31 1451.02 L1517.31 1454.96 L1503.24 1454.96 L1503.24 1463.43 Q1504.26 1463.08 1505.28 1462.92 Q1506.29 1462.73 1507.31 1462.73 Q1513.1 1462.73 1516.48 1465.9 Q1519.86 1469.08 1519.86 1474.49 Q1519.86 1480.07 1516.39 1483.17 Q1512.91 1486.25 1506.6 1486.25 Q1504.42 1486.25 1502.15 1485.88 Q1499.91 1485.51 1497.5 1484.77 L1497.5 1480.07 Q1499.58 1481.2 1501.8 1481.76 Q1504.03 1482.32 1506.5 1482.32 Q1510.51 1482.32 1512.85 1480.21 Q1515.18 1478.1 1515.18 1474.49 Q1515.18 1470.88 1512.85 1468.77 Q1510.51 1466.67 1506.5 1466.67 Q1504.63 1466.67 1502.75 1467.08 Q1500.9 1467.5 1498.96 1468.38 L1498.96 1451.02 Z" fill="#000000" fill-rule="nonzero" fill-opacity="1" /><path clip-path="url(#clip190)" d="M1858.91 1481.64 L1875.23 1481.64 L1875.23 1485.58 L1853.28 1485.58 L1853.28 1481.64 Q1855.95 1478.89 1860.53 1474.26 Q1865.14 1469.61 1866.32 1468.27 Q1868.56 1465.74 1869.44 1464.01 Q1870.34 1462.25 1870.34 1460.56 Q1870.34 1457.8 1868.4 1456.07 Q1866.48 1454.33 1863.38 1454.33 Q1861.18 1454.33 1858.72 1455.09 Q1856.29 1455.86 1853.52 1457.41 L1853.52 1452.69 Q1856.34 1451.55 1858.79 1450.97 Q1861.25 1450.39 1863.28 1450.39 Q1868.65 1450.39 1871.85 1453.08 Q1875.04 1455.77 1875.04 1460.26 Q1875.04 1462.39 1874.23 1464.31 Q1873.45 1466.2 1871.34 1468.8 Q1870.76 1469.47 1867.66 1472.69 Q1864.56 1475.88 1858.91 1481.64 Z" fill="#000000" fill-rule="nonzero" fill-opacity="1" /><path clip-path="url(#clip190)" d="M1885.04 1479.7 L1889.93 1479.7 L1889.93 1485.58 L1885.04 1485.58 L1885.04 1479.7 Z" fill="#000000" fill-rule="nonzero" fill-opacity="1" /><path clip-path="url(#clip190)" d="M1910.11 1454.1 Q1906.5 1454.1 1904.67 1457.66 Q1902.87 1461.2 1902.87 1468.33 Q1902.87 1475.44 1904.67 1479.01 Q1906.5 1482.55 1910.11 1482.55 Q1913.75 1482.55 1915.55 1479.01 Q1917.38 1475.44 1917.38 1468.33 Q1917.38 1461.2 1915.55 1457.66 Q1913.75 1454.1 1910.11 1454.1 M1910.11 1450.39 Q1915.92 1450.39 1918.98 1455 Q1922.06 1459.58 1922.06 1468.33 Q1922.06 1477.06 1918.98 1481.67 Q1915.92 1486.25 1910.11 1486.25 Q1904.3 1486.25 1901.22 1481.67 Q1898.17 1477.06 1898.17 1468.33 Q1898.17 1459.58 1901.22 1455 Q1904.3 1450.39 1910.11 1450.39 Z" fill="#000000" fill-rule="nonzero" fill-opacity="1" /><path clip-path="url(#clip190)" d="M2260.24 1481.64 L2276.56 1481.64 L2276.56 1485.58 L2254.61 1485.58 L2254.61 1481.64 Q2257.28 1478.89 2261.86 1474.26 Q2266.47 1469.61 2267.65 1468.27 Q2269.89 1465.74 2270.77 1464.01 Q2271.67 1462.25 2271.67 1460.56 Q2271.67 1457.8 2269.73 1456.07 Q2267.81 1454.33 2264.71 1454.33 Q2262.51 1454.33 2260.05 1455.09 Q2257.62 1455.86 2254.85 1457.41 L2254.85 1452.69 Q2257.67 1451.55 2260.12 1450.97 Q2262.58 1450.39 2264.61 1450.39 Q2269.98 1450.39 2273.18 1453.08 Q2276.37 1455.77 2276.37 1460.26 Q2276.37 1462.39 2275.56 1464.31 Q2274.78 1466.2 2272.67 1468.8 Q2272.09 1469.47 2268.99 1472.69 Q2265.89 1475.88 2260.24 1481.64 Z" fill="#000000" fill-rule="nonzero" fill-opacity="1" /><path clip-path="url(#clip190)" d="M2286.37 1479.7 L2291.26 1479.7 L2291.26 1485.58 L2286.37 1485.58 L2286.37 1479.7 Z" fill="#000000" fill-rule="nonzero" fill-opacity="1" /><path clip-path="url(#clip190)" d="M2301.49 1451.02 L2319.84 1451.02 L2319.84 1454.96 L2305.77 1454.96 L2305.77 1463.43 Q2306.79 1463.08 2307.81 1462.92 Q2308.83 1462.73 2309.85 1462.73 Q2315.63 1462.73 2319.01 1465.9 Q2322.39 1469.08 2322.39 1474.49 Q2322.39 1480.07 2318.92 1483.17 Q2315.45 1486.25 2309.13 1486.25 Q2306.95 1486.25 2304.68 1485.88 Q2302.44 1485.51 2300.03 1484.77 L2300.03 1480.07 Q2302.11 1481.2 2304.34 1481.76 Q2306.56 1482.32 2309.03 1482.32 Q2313.04 1482.32 2315.38 1480.21 Q2317.72 1478.1 2317.72 1474.49 Q2317.72 1470.88 2315.38 1468.77 Q2313.04 1466.67 2309.03 1466.67 Q2307.16 1466.67 2305.28 1467.08 Q2303.43 1467.5 2301.49 1468.38 L2301.49 1451.02 Z" fill="#000000" fill-rule="nonzero" fill-opacity="1" /><path clip-path="url(#clip190)" d="M1296.9 1531.91 Q1296.9 1532.81 1296.48 1533.04 Q1296.06 1533.23 1294.9 1533.23 L1288.72 1533.23 L1283.82 1552.69 Q1283.44 1554.39 1283.44 1555.84 Q1283.44 1557.45 1283.92 1558.16 Q1284.43 1558.87 1285.5 1558.87 Q1287.59 1558.87 1289.84 1556.97 Q1292.13 1555.07 1294.06 1550.43 Q1294.32 1549.82 1294.45 1549.69 Q1294.61 1549.53 1295.03 1549.53 Q1295.84 1549.53 1295.84 1550.17 Q1295.84 1550.4 1295.38 1551.43 Q1294.97 1552.46 1294.03 1553.97 Q1293.13 1555.49 1291.94 1556.9 Q1290.78 1558.32 1289.01 1559.35 Q1287.24 1560.35 1285.34 1560.35 Q1282.66 1560.35 1280.96 1558.64 Q1279.28 1556.94 1279.28 1554.26 Q1279.28 1553.39 1279.96 1550.62 Q1280.63 1547.82 1284.31 1533.23 L1278.48 1533.23 Q1277.67 1533.23 1277.35 1533.2 Q1277.06 1533.17 1276.83 1533.01 Q1276.64 1532.81 1276.64 1532.43 Q1276.64 1531.82 1276.9 1531.56 Q1277.16 1531.27 1277.48 1531.24 Q1277.83 1531.17 1278.64 1531.17 L1284.82 1531.17 L1287.4 1520.71 Q1287.65 1519.67 1288.3 1519.09 Q1288.98 1518.48 1289.36 1518.42 Q1289.75 1518.32 1290.04 1518.32 Q1290.91 1518.32 1291.42 1518.81 Q1291.94 1519.26 1291.94 1520.09 Q1291.94 1520.54 1289.23 1531.17 L1295.03 1531.17 Q1295.77 1531.17 1296.06 1531.2 Q1296.38 1531.24 1296.64 1531.4 Q1296.9 1531.56 1296.9 1531.91 Z" fill="#000000" fill-rule="nonzero" fill-opacity="1" /><polyline clip-path="url(#clip190)" style="stroke:#000000; stroke-linecap:round; stroke-linejoin:round; stroke-width:4; stroke-opacity:1; fill:none" points="224.098,1423.18 224.098,47.2441 "/>
<polyline clip-path="url(#clip190)" style="stroke:#000000; stroke-linecap:round; stroke-linejoin:round; stroke-width:4; stroke-opacity:1; fill:none" points="224.098,1344.49 242.996,1344.49 "/>
<polyline clip-path="url(#clip190)" style="stroke:#000000; stroke-linecap:round; stroke-linejoin:round; stroke-width:4; stroke-opacity:1; fill:none" points="224.098,1005.92 242.996,1005.92 "/>
<polyline clip-path="url(#clip190)" style="stroke:#000000; stroke-linecap:round; stroke-linejoin:round; stroke-width:4; stroke-opacity:1; fill:none" points="224.098,667.349 242.996,667.349 "/>
<polyline clip-path="url(#clip190)" style="stroke:#000000; stroke-linecap:round; stroke-linejoin:round; stroke-width:4; stroke-opacity:1; fill:none" points="224.098,328.779 242.996,328.779 "/>
<path clip-path="url(#clip190)" d="M50.9921 1344.94 L80.6679 1344.94 L80.6679 1348.87 L50.9921 1348.87 L50.9921 1344.94 Z" fill="#000000" fill-rule="nonzero" fill-opacity="1" /><path clip-path="url(#clip190)" d="M100.76 1330.29 Q97.1493 1330.29 95.3206 1333.85 Q93.515 1337.39 93.515 1344.52 Q93.515 1351.63 95.3206 1355.19 Q97.1493 1358.74 100.76 1358.74 Q104.395 1358.74 106.2 1355.19 Q108.029 1351.63 108.029 1344.52 Q108.029 1337.39 106.2 1333.85 Q104.395 1330.29 100.76 1330.29 M100.76 1326.58 Q106.571 1326.58 109.626 1331.19 Q112.705 1335.77 112.705 1344.52 Q112.705 1353.25 109.626 1357.86 Q106.571 1362.44 100.76 1362.44 Q94.9502 1362.44 91.8715 1357.86 Q88.816 1353.25 88.816 1344.52 Q88.816 1335.77 91.8715 1331.19 Q94.9502 1326.58 100.76 1326.58 Z" fill="#000000" fill-rule="nonzero" fill-opacity="1" /><path clip-path="url(#clip190)" d="M120.922 1355.89 L125.807 1355.89 L125.807 1361.77 L120.922 1361.77 L120.922 1355.89 Z" fill="#000000" fill-rule="nonzero" fill-opacity="1" /><path clip-path="url(#clip190)" d="M136.802 1357.83 L144.441 1357.83 L144.441 1331.47 L136.131 1333.13 L136.131 1328.87 L144.394 1327.21 L149.07 1327.21 L149.07 1357.83 L156.709 1357.83 L156.709 1361.77 L136.802 1361.77 L136.802 1357.83 Z" fill="#000000" fill-rule="nonzero" fill-opacity="1" /><path clip-path="url(#clip190)" d="M176.153 1330.29 Q172.542 1330.29 170.714 1333.85 Q168.908 1337.39 168.908 1344.52 Q168.908 1351.63 170.714 1355.19 Q172.542 1358.74 176.153 1358.74 Q179.788 1358.74 181.593 1355.19 Q183.422 1351.63 183.422 1344.52 Q183.422 1337.39 181.593 1333.85 Q179.788 1330.29 176.153 1330.29 M176.153 1326.58 Q181.964 1326.58 185.019 1331.19 Q188.098 1335.77 188.098 1344.52 Q188.098 1353.25 185.019 1357.86 Q181.964 1362.44 176.153 1362.44 Q170.343 1362.44 167.265 1357.86 Q164.209 1353.25 164.209 1344.52 Q164.209 1335.77 167.265 1331.19 Q170.343 1326.58 176.153 1326.58 Z" fill="#000000" fill-rule="nonzero" fill-opacity="1" /><path clip-path="url(#clip190)" d="M51.9875 1006.37 L81.6633 1006.37 L81.6633 1010.3 L51.9875 1010.3 L51.9875 1006.37 Z" fill="#000000" fill-rule="nonzero" fill-opacity="1" /><path clip-path="url(#clip190)" d="M101.756 991.717 Q98.1447 991.717 96.316 995.282 Q94.5104 998.824 94.5104 1005.95 Q94.5104 1013.06 96.316 1016.62 Q98.1447 1020.17 101.756 1020.17 Q105.39 1020.17 107.196 1016.62 Q109.024 1013.06 109.024 1005.95 Q109.024 998.824 107.196 995.282 Q105.39 991.717 101.756 991.717 M101.756 988.013 Q107.566 988.013 110.621 992.62 Q113.7 997.203 113.7 1005.95 Q113.7 1014.68 110.621 1019.29 Q107.566 1023.87 101.756 1023.87 Q95.9456 1023.87 92.8669 1019.29 Q89.8114 1014.68 89.8114 1005.95 Q89.8114 997.203 92.8669 992.62 Q95.9456 988.013 101.756 988.013 Z" fill="#000000" fill-rule="nonzero" fill-opacity="1" /><path clip-path="url(#clip190)" d="M121.918 1017.32 L126.802 1017.32 L126.802 1023.2 L121.918 1023.2 L121.918 1017.32 Z" fill="#000000" fill-rule="nonzero" fill-opacity="1" /><path clip-path="url(#clip190)" d="M146.987 991.717 Q143.376 991.717 141.547 995.282 Q139.742 998.824 139.742 1005.95 Q139.742 1013.06 141.547 1016.62 Q143.376 1020.17 146.987 1020.17 Q150.621 1020.17 152.427 1016.62 Q154.255 1013.06 154.255 1005.95 Q154.255 998.824 152.427 995.282 Q150.621 991.717 146.987 991.717 M146.987 988.013 Q152.797 988.013 155.853 992.62 Q158.931 997.203 158.931 1005.95 Q158.931 1014.68 155.853 1019.29 Q152.797 1023.87 146.987 1023.87 Q141.177 1023.87 138.098 1019.29 Q135.043 1014.68 135.043 1005.95 Q135.043 997.203 138.098 992.62 Q141.177 988.013 146.987 988.013 Z" fill="#000000" fill-rule="nonzero" fill-opacity="1" /><path clip-path="url(#clip190)" d="M167.195 988.638 L185.552 988.638 L185.552 992.574 L171.478 992.574 L171.478 1001.05 Q172.496 1000.7 173.515 1000.54 Q174.533 1000.35 175.552 1000.35 Q181.339 1000.35 184.718 1003.52 Q188.098 1006.69 188.098 1012.11 Q188.098 1017.69 184.626 1020.79 Q181.153 1023.87 174.834 1023.87 Q172.658 1023.87 170.39 1023.5 Q168.144 1023.13 165.737 1022.39 L165.737 1017.69 Q167.82 1018.82 170.042 1019.38 Q172.265 1019.93 174.741 1019.93 Q178.746 1019.93 181.084 1017.83 Q183.422 1015.72 183.422 1012.11 Q183.422 1008.5 181.084 1006.39 Q178.746 1004.29 174.741 1004.29 Q172.866 1004.29 170.991 1004.7 Q169.14 1005.12 167.195 1006 L167.195 988.638 Z" fill="#000000" fill-rule="nonzero" fill-opacity="1" /><path clip-path="url(#clip190)" d="M100.76 653.148 Q97.1493 653.148 95.3206 656.712 Q93.515 660.254 93.515 667.384 Q93.515 674.49 95.3206 678.055 Q97.1493 681.597 100.76 681.597 Q104.395 681.597 106.2 678.055 Q108.029 674.49 108.029 667.384 Q108.029 660.254 106.2 656.712 Q104.395 653.148 100.76 653.148 M100.76 649.444 Q106.571 649.444 109.626 654.05 Q112.705 658.634 112.705 667.384 Q112.705 676.11 109.626 680.717 Q106.571 685.3 100.76 685.3 Q94.9502 685.3 91.8715 680.717 Q88.816 676.11 88.816 667.384 Q88.816 658.634 91.8715 654.05 Q94.9502 649.444 100.76 649.444 Z" fill="#000000" fill-rule="nonzero" fill-opacity="1" /><path clip-path="url(#clip190)" d="M120.922 678.749 L125.807 678.749 L125.807 684.629 L120.922 684.629 L120.922 678.749 Z" fill="#000000" fill-rule="nonzero" fill-opacity="1" /><path clip-path="url(#clip190)" d="M145.992 653.148 Q142.381 653.148 140.552 656.712 Q138.746 660.254 138.746 667.384 Q138.746 674.49 140.552 678.055 Q142.381 681.597 145.992 681.597 Q149.626 681.597 151.431 678.055 Q153.26 674.49 153.26 667.384 Q153.26 660.254 151.431 656.712 Q149.626 653.148 145.992 653.148 M145.992 649.444 Q151.802 649.444 154.857 654.05 Q157.936 658.634 157.936 667.384 Q157.936 676.11 154.857 680.717 Q151.802 685.3 145.992 685.3 Q140.181 685.3 137.103 680.717 Q134.047 676.11 134.047 667.384 Q134.047 658.634 137.103 654.05 Q140.181 649.444 145.992 649.444 Z" fill="#000000" fill-rule="nonzero" fill-opacity="1" /><path clip-path="url(#clip190)" d="M176.153 653.148 Q172.542 653.148 170.714 656.712 Q168.908 660.254 168.908 667.384 Q168.908 674.49 170.714 678.055 Q172.542 681.597 176.153 681.597 Q179.788 681.597 181.593 678.055 Q183.422 674.49 183.422 667.384 Q183.422 660.254 181.593 656.712 Q179.788 653.148 176.153 653.148 M176.153 649.444 Q181.964 649.444 185.019 654.05 Q188.098 658.634 188.098 667.384 Q188.098 676.11 185.019 680.717 Q181.964 685.3 176.153 685.3 Q170.343 685.3 167.265 680.717 Q164.209 676.11 164.209 667.384 Q164.209 658.634 167.265 654.05 Q170.343 649.444 176.153 649.444 Z" fill="#000000" fill-rule="nonzero" fill-opacity="1" /><path clip-path="url(#clip190)" d="M101.756 314.578 Q98.1447 314.578 96.316 318.143 Q94.5104 321.684 94.5104 328.814 Q94.5104 335.921 96.316 339.485 Q98.1447 343.027 101.756 343.027 Q105.39 343.027 107.196 339.485 Q109.024 335.921 109.024 328.814 Q109.024 321.684 107.196 318.143 Q105.39 314.578 101.756 314.578 M101.756 310.874 Q107.566 310.874 110.621 315.481 Q113.7 320.064 113.7 328.814 Q113.7 337.541 110.621 342.147 Q107.566 346.731 101.756 346.731 Q95.9456 346.731 92.8669 342.147 Q89.8114 337.541 89.8114 328.814 Q89.8114 320.064 92.8669 315.481 Q95.9456 310.874 101.756 310.874 Z" fill="#000000" fill-rule="nonzero" fill-opacity="1" /><path clip-path="url(#clip190)" d="M121.918 340.18 L126.802 340.18 L126.802 346.059 L121.918 346.059 L121.918 340.18 Z" fill="#000000" fill-rule="nonzero" fill-opacity="1" /><path clip-path="url(#clip190)" d="M146.987 314.578 Q143.376 314.578 141.547 318.143 Q139.742 321.684 139.742 328.814 Q139.742 335.921 141.547 339.485 Q143.376 343.027 146.987 343.027 Q150.621 343.027 152.427 339.485 Q154.255 335.921 154.255 328.814 Q154.255 321.684 152.427 318.143 Q150.621 314.578 146.987 314.578 M146.987 310.874 Q152.797 310.874 155.853 315.481 Q158.931 320.064 158.931 328.814 Q158.931 337.541 155.853 342.147 Q152.797 346.731 146.987 346.731 Q141.177 346.731 138.098 342.147 Q135.043 337.541 135.043 328.814 Q135.043 320.064 138.098 315.481 Q141.177 310.874 146.987 310.874 Z" fill="#000000" fill-rule="nonzero" fill-opacity="1" /><path clip-path="url(#clip190)" d="M167.195 311.499 L185.552 311.499 L185.552 315.435 L171.478 315.435 L171.478 323.907 Q172.496 323.559 173.515 323.397 Q174.533 323.212 175.552 323.212 Q181.339 323.212 184.718 326.384 Q188.098 329.555 188.098 334.971 Q188.098 340.55 184.626 343.652 Q181.153 346.731 174.834 346.731 Q172.658 346.731 170.39 346.36 Q168.144 345.99 165.737 345.249 L165.737 340.55 Q167.82 341.684 170.042 342.24 Q172.265 342.795 174.741 342.795 Q178.746 342.795 181.084 340.689 Q183.422 338.583 183.422 334.971 Q183.422 331.36 181.084 329.254 Q178.746 327.147 174.741 327.147 Q172.866 327.147 170.991 327.564 Q169.14 327.981 167.195 328.86 L167.195 311.499 Z" fill="#000000" fill-rule="nonzero" fill-opacity="1" /><polyline clip-path="url(#clip192)" style="stroke:#009af9; stroke-linecap:round; stroke-linejoin:round; stroke-width:4; stroke-opacity:1; fill:none" points="284.343,667.349 290.355,667.161 296.368,666.665 302.38,666.206 308.393,665.901 314.405,665.824 320.418,665.784 326.43,665.465 332.443,665.394 338.455,665.767 344.468,666.081 350.48,666.228 356.493,666.516 362.505,667.053 368.518,667.673 374.53,668.2 380.543,668.727 386.555,669.424 392.568,670.269 398.58,670.971 404.592,671.505 410.605,671.785 416.617,671.877 422.63,672.147 428.642,672.436 434.655,672.42 440.667,672.102 446.68,671.349 452.692,670.115 458.705,668.981 464.717,667.79 470.73,666.285 476.742,664.721 482.755,663.223 488.767,661.477 494.78,659.332 500.792,657.173 506.805,654.687 512.817,651.662 518.83,648.334 524.842,644.909 530.855,641.346 536.867,637.455 542.88,633.26 548.892,629.025 554.904,625.116 560.917,621.729 566.929,618.676 572.942,615.656 578.954,612.455 584.967,609.413 590.979,606.427 596.992,603.122 603.004,600.217 609.017,597.457 615.029,594.207 621.042,590.898 627.054,587.921 633.067,585.463 639.079,583.468 645.092,581.727 651.104,579.964 657.117,578.134 663.129,576.493 669.142,574.991 675.154,573.843 681.167,572.952 687.179,571.972 693.191,570.804 699.204,569.612 705.216,568.568 711.229,567.57 717.241,566.386 723.254,565.223 729.266,564.675 735.279,564.763 741.291,565.075 747.304,565.077 753.316,564.798 759.329,564.37 765.341,563.827 771.354,563.587 777.366,563.84 783.379,564.507 789.391,565.36 795.404,566.195 801.416,567.111 807.429,568.377 813.441,570.197 819.454,572.284 825.466,574.479 831.478,576.911 837.491,579.478 843.503,581.856 849.516,584.061 855.528,586.824 861.541,589.786 867.553,592.566 873.566,595.584 879.578,599.022 885.591,602.786 891.603,606.765 897.616,610.945 903.628,614.881 909.641,618.483 915.653,621.753 921.666,624.602 927.678,627.602 933.691,630.813 939.703,634.023 945.716,637.175 951.728,640.284 957.741,643.318 963.753,646.057 969.766,648.692 975.778,651.346 981.79,654.342 987.803,658.032 993.815,662.15 999.828,666.148 1005.84,669.88 1011.85,673.795 1017.87,678.038 1023.88,682.559 1029.89,687.157 1035.9,691.882 1041.92,696.616 1047.93,700.979 1053.94,705.242 1059.95,709.406 1065.97,713.406 1071.98,716.954 1077.99,720.132 1084,723.655 1090.02,727.448 1096.03,731.05 1102.04,734.443 1108.05,737.68 1114.07,740.551 1120.08,743.013 1126.09,745.518 1132.1,748.534 1138.11,752.125 1144.13,756.096 1150.14,760.283 1156.15,764.412 1162.16,768.412 1168.18,772.385 1174.19,776.306 1180.2,780.025 1186.21,783.508 1192.23,787.03 1198.24,790.625 1204.25,794.297 1210.26,798.229 1216.28,802.302 1222.29,806.438 1228.3,810.39 1234.31,813.911 1240.33,817.354 1246.34,820.616 1252.35,823.732 1258.36,827.113 1264.38,830.518 1270.39,833.922 1276.4,837.156 1282.41,840.157 1288.43,843.121 1294.44,845.762 1300.45,848.232 1306.46,850.706 1312.48,853.201 1318.49,855.663 1324.5,858.052 1330.51,860.541 1336.53,863.298 1342.54,866.452 1348.55,869.957 1354.56,873.559 1360.58,877.148 1366.59,880.654 1372.6,884.047 1378.61,887.687 1384.63,891.39 1390.64,894.55 1396.65,897.334 1402.66,900.354 1408.68,903.761 1414.69,907.274 1420.7,910.643 1426.71,914.26 1432.73,917.909 1438.74,920.943 1444.75,923.457 1450.76,925.545 1456.78,927.527 1462.79,929.358 1468.8,930.629 1474.81,931.774 1480.83,933.318 1486.84,934.755 1492.85,935.727 1498.86,936.488 1504.88,937.436 1510.89,938.632 1516.9,939.838 1522.91,940.688 1528.93,941.038 1534.94,941.018 1540.95,940.651 1546.96,940.476 1552.98,940.691 1558.99,941.19 1565,941.924 1571.01,942.754 1577.03,943.368 1583.04,943.712 1589.05,943.775 1595.06,943.663 1601.08,943.603 1607.09,943.281 1613.1,943.004 1619.11,943.061 1625.13,943.416 1631.14,944.234 1637.15,945.565 1643.16,947.234 1649.18,949.147 1655.19,950.715 1661.2,951.924 1667.21,953.022 1673.23,953.581 1679.24,953.923 1685.25,954.235 1691.26,954.805 1697.28,955.813 1703.29,956.96 1709.3,958.113 1715.31,959.823 1721.33,962.185 1727.34,964.573 1733.35,967.046 1739.36,969.783 1745.38,972.666 1751.39,975.584 1757.4,978.429 1763.41,981.168 1769.43,983.79 1775.44,986.912 1781.45,990.597 1787.46,994.35 1793.48,997.827 1799.49,1000.94 1805.5,1004.17 1811.51,1007.51 1817.53,1011.15 1823.54,1014.84 1829.55,1018.35 1835.56,1021.85 1841.57,1025.23 1847.59,1028.61 1853.6,1032.11 1859.61,1035.51 1865.62,1038.49 1871.64,1040.76 1877.65,1042.7 1883.66,1044.48 1889.67,1046.4 1895.69,1048.78 1901.7,1051.12 1907.71,1053.47 1913.72,1055.62 1919.74,1057.52 1925.75,1059.57 1931.76,1061.81 1937.77,1064.07 1943.79,1066.1 1949.8,1068.11 1955.81,1070.13 1961.82,1071.78 1967.84,1072.97 1973.85,1074.14 1979.86,1075.74 1985.87,1077.43 1991.89,1078.73 1997.9,1079.71 2003.91,1080.66 2009.92,1082.02 2015.94,1083.77 2021.95,1085.57 2027.96,1087.34 2033.97,1089.16 2039.99,1091.26 2046,1093.26 2052.01,1094.97 2058.02,1096.59 2064.04,1097.72 2070.05,1098.67 2076.06,1100.03 2082.07,1101.59 2088.09,1103.54 2094.1,1105.56 2100.11,1107.06 2106.12,1108.45 2112.14,1110.11 2118.15,1111.87 2124.16,1113.58 2130.17,1115.19 2136.19,1116.84 2142.2,1118.9 2148.21,1121.35 2154.22,1123.81 2160.24,1126.1 2166.25,1128.57 2172.26,1131.16 2178.27,1134.12 2184.29,1137.87 2190.3,1142.42 2196.31,1147.27 2202.32,1151.74 2208.34,1156.25 2214.35,1161.2 2220.36,1166.28 2226.37,1171.48 2232.39,1176.71 2238.4,1181.85 2244.41,1186.89 2250.42,1191.85 2256.44,1196.98 2262.45,1202.08 2268.46,1206.71 2274.47,1211.17 2280.49,1215.91 2286.5,1220.71 2292.51,1225.66 "/>
<polyline clip-path="url(#clip192)" style="stroke:#e26f46; stroke-linecap:round; stroke-linejoin:round; stroke-width:4; stroke-opacity:1; fill:none" points="284.343,667.349 290.355,617.345 296.368,584.868 302.38,627.574 308.393,625.83 314.405,688.276 320.418,635.704 326.43,613.903 332.443,702 338.455,731.963 344.468,686.655 350.48,687.056 356.493,724.66 362.505,753.025 368.518,747.114 374.53,728.076 380.543,747.103 386.555,773.675 392.568,786.194 398.58,735.894 404.592,741.078 410.605,668.24 416.617,691.05 422.63,715.719 428.642,696.056 434.655,634.284 440.667,615.56 446.68,518.51 452.692,487.055 458.705,545.211 464.717,471.962 470.73,461.292 476.742,456.415 482.755,478.728 488.767,390.279 494.78,372.403 500.792,386.808 506.805,284.81 512.817,243.212 518.83,203.989 524.842,217.341 530.855,167.28 536.867,129.805 542.88,86.1857 548.892,119.214 554.904,173.146 560.917,258.474 566.929,261.944 572.942,267.308 578.954,213.891 584.967,309.754 590.979,228.532 596.992,224.827 603.004,335.317 609.017,263.393 615.029,204.519 621.042,247.708 627.054,293.185 633.067,386.136 639.079,416.446 645.092,454.069 651.104,410.42 657.117,436.305 663.129,460.779 669.142,473.532 675.154,554.915 681.167,542.2 687.179,531.063 693.191,492.271 699.204,524.473 705.216,531.906 711.229,536.607 717.241,482.462 723.254,542.131 729.266,646.47 735.279,711.689 741.291,706.122 747.304,628.968 753.316,631.411 759.329,589.065 765.341,600.954 771.354,669.641 777.366,732.606 783.379,780.053 789.391,781.95 795.404,775.489 801.416,803.55 807.429,868.631 813.441,951.458 819.454,939.634 825.466,980.478 831.478,1002.83 837.491,1016.42 843.503,952.386 849.516,970.301 855.528,1101.1 861.541,1023.47 867.553,1052.68 873.566,1086.81 879.578,1164.71 885.591,1173.71 891.603,1221.99 897.616,1227.43 903.628,1156.9 909.641,1138.22 915.653,1068.44 921.666,1025.94 927.678,1108.91 933.691,1081.92 939.703,1108.91 945.716,1066.22 951.728,1097.56 957.741,1046.21 963.753,1018.96 969.766,1018.27 975.778,1024.38 981.79,1109.19 987.803,1209.53 993.815,1223.3 999.828,1177.36 1005.84,1152.66 1011.85,1225.93 1017.87,1240.33 1023.88,1299.94 1029.89,1260.98 1035.9,1333.73 1041.92,1263.33 1047.93,1234.76 1053.94,1236.76 1059.95,1208.31 1065.97,1193.03 1071.98,1087.96 1077.99,1093.98 1084,1180.18 1090.02,1166.14 1096.03,1129.17 1102.04,1110.2 1108.05,1087.81 1114.07,1012.4 1120.08,978.944 1126.09,1023.64 1132.1,1115.35 1138.11,1176.86 1144.13,1216.91 1150.14,1234.38 1156.15,1201.38 1162.16,1199.89 1168.18,1194.28 1174.19,1185.91 1180.2,1140.5 1186.21,1123.16 1192.23,1150.67 1198.24,1142.78 1204.25,1170.96 1210.26,1212.2 1216.28,1208.87 1222.29,1228.61 1228.3,1160.08 1234.31,1113.46 1240.33,1139.35 1246.34,1065.19 1252.35,1100.61 1258.36,1135.59 1264.38,1107.17 1270.39,1135.24 1276.4,1061.7 1282.41,1073.48 1288.43,1051.63 1294.44,987.269 1300.45,1005.91 1306.46,988.721 1312.48,1011.2 1318.49,979.997 1324.5,991.949 1330.51,1006.36 1336.53,1063.59 1342.54,1112.14 1348.55,1157.09 1354.56,1138.31 1360.58,1153.31 1366.59,1116.42 1372.6,1123.18 1378.61,1182.16 1384.63,1139.97 1390.64,1037.31 1396.65,1039.87 1402.66,1100.11 1408.68,1143.15 1414.69,1128.26 1420.7,1104.87 1426.71,1194.33 1432.73,1113.57 1438.74,1030.19 1444.75,974.712 1450.76,916.853 1456.78,946.467 1462.79,876.433 1468.8,797.168 1474.81,842.961 1480.83,903.431 1486.84,814.363 1492.85,779.563 1498.86,758.068 1504.88,829.534 1510.89,824.151 1516.9,832.095 1522.91,729.113 1528.93,699.162 1534.94,629.987 1540.95,606.974 1546.96,681.106 1552.98,710.938 1558.99,756.679 1565,773.933 1571.01,782.058 1577.03,716.42 1583.04,709.822 1589.05,641.818 1595.06,662.965 1601.08,655.617 1607.09,593.306 1613.1,667.459 1619.11,682.57 1625.13,746.646 1631.14,806.373 1637.15,883.245 1643.16,896.483 1649.18,948.157 1655.19,804.826 1661.2,852.147 1667.21,775.533 1673.23,708.073 1679.24,717.88 1685.25,700.07 1691.26,786.7 1697.28,816.559 1703.29,824.133 1709.3,817.916 1715.31,972.994 1721.33,991.382 1727.34,980.252 1733.35,1013.83 1739.36,1050.81 1745.38,1052.64 1751.39,1060.2 1757.4,1033.24 1763.41,1031.71 1769.43,1002.15 1775.44,1165.2 1781.45,1152.29 1787.46,1183.09 1793.48,1078.74 1799.49,1086.47 1805.5,1109.56 1811.51,1116.22 1817.53,1187.63 1823.54,1132.86 1829.55,1136.94 1835.56,1131.78 1841.57,1104.66 1847.59,1131.38 1853.6,1136.06 1859.61,1104.18 1865.62,1025.95 1871.64,914.273 1877.65,938.2 1883.66,870.504 1889.67,976.964 1895.69,991.314 1901.7,968.291 1907.71,992.766 1913.72,915.828 1919.74,925.066 1925.75,954.988 1931.76,978.453 1937.77,957.915 1943.79,917.223 1949.8,955.405 1955.81,918.532 1961.82,854.467 1967.84,797.299 1973.85,851.039 1979.86,908.241 1985.87,877.368 1991.89,805.417 1997.9,788.845 2003.91,799.098 2009.92,900.085 2015.94,901.476 2021.95,911.885 2027.96,896.418 2033.97,922.681 2039.99,972.751 2046,893.362 2052.01,897.863 2058.02,868.089 2064.04,768.073 2070.05,822.484 2076.06,873.758 2082.07,877.152 2088.09,977.024 2094.1,897.083 2100.11,836.801 2106.12,869.796 2112.14,905.638 2118.15,898.166 2124.16,894.223 2130.17,868.442 2136.19,907.452 2142.2,974.989 2148.21,1015.34 2154.22,973.832 2160.24,972.431 2166.25,1020.37 2172.26,1004.35 2178.27,1119.49 2184.29,1214.92 2190.3,1333.62 2196.31,1293.91 2202.32,1234.58 2208.34,1303.46 2214.35,1350.12 2220.36,1338.16 2226.37,1384.24 2232.39,1345.41 2238.4,1360.76 2244.41,1317.93 2250.42,1337.2 2256.44,1366.84 2262.45,1327.53 2268.46,1240.88 2274.47,1284.53 2280.49,1313.3 2286.5,1301.31 2292.51,1354.15 "/>
<path clip-path="url(#clip190)" d="M2045.67 248.629 L2281.8 248.629 L2281.8 93.1086 L2045.67 93.1086  Z" fill="#ffffff" fill-rule="evenodd" fill-opacity="1"/>
<polyline clip-path="url(#clip190)" style="stroke:#000000; stroke-linecap:round; stroke-linejoin:round; stroke-width:4; stroke-opacity:1; fill:none" points="2045.67,248.629 2281.8,248.629 2281.8,93.1086 2045.67,93.1086 2045.67,248.629 "/>
<polyline clip-path="url(#clip190)" style="stroke:#009af9; stroke-linecap:round; stroke-linejoin:round; stroke-width:4; stroke-opacity:1; fill:none" points="2069.32,144.949 2211.23,144.949 "/>
<path clip-path="url(#clip190)" d="M2257.02 131.203 Q2257.02 131.531 2256.81 132.304 L2252.22 150.62 Q2251.21 154.696 2247.93 157.554 Q2244.68 160.411 2240.98 160.411 Q2238.75 160.411 2237.32 159.217 Q2235.89 158.045 2235.89 156.242 Q2235.89 154.649 2236.74 153.876 Q2237.58 153.127 2238.59 153.127 Q2238.91 153.127 2239.27 153.22 Q2239.62 153.314 2239.99 153.712 Q2240.37 154.11 2240.37 154.79 Q2240.37 155.891 2239.41 156.757 Q2238.94 157.155 2238.49 157.249 Q2238.07 157.343 2237.35 157.343 Q2237.63 157.999 2238.14 158.444 Q2238.66 158.889 2239.24 159.053 Q2239.83 159.24 2240.2 159.287 Q2240.6 159.357 2240.98 159.357 Q2243.97 159.357 2246.27 156.336 Q2246.95 155.422 2247.44 154.509 Q2247.96 153.619 2248.33 152.518 Q2248.71 151.44 2248.87 150.855 Q2249.06 150.269 2249.38 148.934 Q2247.21 151.112 2244.54 151.112 Q2243.41 151.112 2242.4 150.808 Q2241.42 150.503 2240.55 149.871 Q2239.69 149.215 2239.17 148.067 Q2238.68 146.92 2238.68 145.397 Q2238.68 143.781 2239.31 141.579 Q2239.95 139.378 2241.47 135.326 Q2242.29 133.054 2242.29 131.953 Q2242.29 131.414 2242.17 131.086 Q2242.05 130.735 2241.82 130.618 Q2241.58 130.477 2241.44 130.454 Q2241.33 130.43 2241.09 130.43 Q2239.71 130.43 2238.42 131.836 Q2237.13 133.241 2236.24 136.38 Q2236.06 136.965 2235.94 137.106 Q2235.82 137.246 2235.47 137.246 Q2234.89 137.223 2234.89 136.754 Q2234.89 136.567 2235.1 135.841 Q2235.31 135.091 2235.8 133.991 Q2236.31 132.866 2237.02 131.859 Q2237.72 130.828 2238.82 130.102 Q2239.95 129.376 2241.23 129.376 Q2242.99 129.376 2244.07 130.524 Q2245.17 131.648 2245.17 133.311 Q2245.17 133.991 2244.98 134.6 Q2244.82 135.185 2244.21 136.754 Q2241.75 143.078 2241.75 146.17 Q2241.75 146.92 2241.87 147.552 Q2242.01 148.161 2242.31 148.77 Q2242.62 149.356 2243.22 149.707 Q2243.86 150.035 2244.72 150.035 Q2245.82 150.035 2246.85 149.52 Q2247.91 148.981 2248.56 148.255 Q2249.24 147.529 2249.64 146.92 Q2250.06 146.287 2250.16 145.959 L2252.31 137.34 L2253.27 133.499 Q2253.72 131.414 2253.93 130.899 Q2254.21 130.407 2254.7 130.149 Q2255.19 129.892 2255.61 129.892 Q2256.2 129.892 2256.6 130.243 Q2257.02 130.594 2257.02 131.203 Z" fill="#000000" fill-rule="nonzero" fill-opacity="1" /><polyline clip-path="url(#clip190)" style="stroke:#e26f46; stroke-linecap:round; stroke-linejoin:round; stroke-width:4; stroke-opacity:1; fill:none" points="2069.32,196.789 2211.23,196.789 "/>
<path clip-path="url(#clip190)" d="M2255.94 189.167 Q2255.94 189.776 2255.78 190.971 Q2255.61 192.165 2255.22 193.899 Q2254.82 195.632 2254.23 197.459 Q2253.67 199.286 2252.78 201.113 Q2251.89 202.916 2250.84 204.345 Q2249.78 205.774 2248.31 206.664 Q2246.83 207.554 2245.17 207.554 Q2244.4 207.554 2243.65 207.437 Q2242.9 207.32 2241.96 206.945 Q2241.02 206.57 2240.34 205.961 Q2239.66 205.329 2239.2 204.204 Q2238.73 203.08 2238.73 201.605 Q2238.73 200.082 2239.29 198.044 Q2239.87 195.983 2241.47 191.767 Q2242.29 189.589 2242.29 188.394 Q2242.29 187.856 2242.17 187.528 Q2242.05 187.176 2241.82 187.059 Q2241.58 186.919 2241.44 186.895 Q2241.33 186.872 2241.09 186.872 Q2239.8 186.872 2238.49 188.207 Q2237.18 189.542 2236.24 192.821 Q2236.06 193.407 2235.94 193.547 Q2235.82 193.688 2235.47 193.688 Q2234.89 193.664 2234.89 193.196 Q2234.89 193.055 2235.05 192.517 Q2235.21 191.955 2235.52 191.111 Q2235.82 190.245 2236.36 189.355 Q2236.9 188.441 2237.56 187.645 Q2238.24 186.848 2239.2 186.333 Q2240.16 185.818 2241.23 185.818 Q2242.99 185.818 2244.07 186.966 Q2245.17 188.09 2245.17 189.753 Q2245.17 190.666 2244.58 192.142 Q2243.6 194.812 2243.15 196.1 Q2242.71 197.389 2242.24 199.216 Q2241.8 201.042 2241.8 202.307 Q2241.8 204.228 2242.69 205.352 Q2243.58 206.476 2245.36 206.476 Q2246.95 206.476 2248.38 205.329 Q2249.83 204.158 2250.79 202.495 Q2251.75 200.808 2252.48 198.934 Q2253.2 197.037 2253.53 195.608 Q2253.88 194.156 2253.88 193.477 Q2253.88 191.111 2252.27 189.565 Q2251.82 189.12 2251.66 188.839 Q2251.49 188.558 2251.49 188.113 Q2251.49 187.293 2252.22 186.567 Q2252.97 185.818 2253.83 185.818 Q2254.63 185.818 2255.29 186.614 Q2255.94 187.411 2255.94 189.167 Z" fill="#000000" fill-rule="nonzero" fill-opacity="1" /></svg>
