<?xml version="1.0" encoding="utf-8"?>
<svg xmlns="http://www.w3.org/2000/svg" xmlns:xlink="http://www.w3.org/1999/xlink" width="800" height="350" viewBox="0 0 3200 1400">
<defs>
  <clipPath id="clip130">
    <rect x="0" y="0" width="3200" height="1400"/>
  </clipPath>
</defs>
<path clip-path="url(#clip130)" d="M0 1400 L3200 1400 L3200 0 L0 0  Z" fill="#ffffff" fill-rule="evenodd" fill-opacity="1"/>
<defs>
  <clipPath id="clip131">
    <rect x="640" y="0" width="2241" height="1400"/>
  </clipPath>
</defs>
<path clip-path="url(#clip130)" d="M248.869 553.395 L1552.76 553.395 L1552.76 47.2441 L248.869 47.2441  Z" fill="#ffffff" fill-rule="evenodd" fill-opacity="1"/>
<defs>
  <clipPath id="clip132">
    <rect x="248" y="47" width="1305" height="507"/>
  </clipPath>
</defs>
<polyline clip-path="url(#clip132)" style="stroke:#000000; stroke-linecap:round; stroke-linejoin:round; stroke-width:2; stroke-opacity:0.1; fill:none" points="248.869,553.395 248.869,47.2441 "/>
<polyline clip-path="url(#clip132)" style="stroke:#000000; stroke-linecap:round; stroke-linejoin:round; stroke-width:2; stroke-opacity:0.1; fill:none" points="509.126,553.395 509.126,47.2441 "/>
<polyline clip-path="url(#clip132)" style="stroke:#000000; stroke-linecap:round; stroke-linejoin:round; stroke-width:2; stroke-opacity:0.1; fill:none" points="769.383,553.395 769.383,47.2441 "/>
<polyline clip-path="url(#clip132)" style="stroke:#000000; stroke-linecap:round; stroke-linejoin:round; stroke-width:2; stroke-opacity:0.1; fill:none" points="1029.64,553.395 1029.64,47.2441 "/>
<polyline clip-path="url(#clip132)" style="stroke:#000000; stroke-linecap:round; stroke-linejoin:round; stroke-width:2; stroke-opacity:0.1; fill:none" points="1289.9,553.395 1289.9,47.2441 "/>
<polyline clip-path="url(#clip132)" style="stroke:#000000; stroke-linecap:round; stroke-linejoin:round; stroke-width:2; stroke-opacity:0.1; fill:none" points="1550.15,553.395 1550.15,47.2441 "/>
<polyline clip-path="url(#clip132)" style="stroke:#000000; stroke-linecap:round; stroke-linejoin:round; stroke-width:2; stroke-opacity:0.1; fill:none" points="248.869,553.395 1552.76,553.395 "/>
<polyline clip-path="url(#clip132)" style="stroke:#000000; stroke-linecap:round; stroke-linejoin:round; stroke-width:2; stroke-opacity:0.1; fill:none" points="248.869,426.857 1552.76,426.857 "/>
<polyline clip-path="url(#clip132)" style="stroke:#000000; stroke-linecap:round; stroke-linejoin:round; stroke-width:2; stroke-opacity:0.1; fill:none" points="248.869,300.319 1552.76,300.319 "/>
<polyline clip-path="url(#clip132)" style="stroke:#000000; stroke-linecap:round; stroke-linejoin:round; stroke-width:2; stroke-opacity:0.1; fill:none" points="248.869,173.782 1552.76,173.782 "/>
<polyline clip-path="url(#clip132)" style="stroke:#000000; stroke-linecap:round; stroke-linejoin:round; stroke-width:2; stroke-opacity:0.1; fill:none" points="248.869,47.2441 1552.76,47.2441 "/>
<polyline clip-path="url(#clip130)" style="stroke:#000000; stroke-linecap:round; stroke-linejoin:round; stroke-width:4; stroke-opacity:1; fill:none" points="248.869,553.395 1552.76,553.395 "/>
<polyline clip-path="url(#clip130)" style="stroke:#000000; stroke-linecap:round; stroke-linejoin:round; stroke-width:4; stroke-opacity:1; fill:none" points="248.869,553.395 248.869,534.497 "/>
<polyline clip-path="url(#clip130)" style="stroke:#000000; stroke-linecap:round; stroke-linejoin:round; stroke-width:4; stroke-opacity:1; fill:none" points="509.126,553.395 509.126,534.497 "/>
<polyline clip-path="url(#clip130)" style="stroke:#000000; stroke-linecap:round; stroke-linejoin:round; stroke-width:4; stroke-opacity:1; fill:none" points="769.383,553.395 769.383,534.497 "/>
<polyline clip-path="url(#clip130)" style="stroke:#000000; stroke-linecap:round; stroke-linejoin:round; stroke-width:4; stroke-opacity:1; fill:none" points="1029.64,553.395 1029.64,534.497 "/>
<polyline clip-path="url(#clip130)" style="stroke:#000000; stroke-linecap:round; stroke-linejoin:round; stroke-width:4; stroke-opacity:1; fill:none" points="1289.9,553.395 1289.9,534.497 "/>
<polyline clip-path="url(#clip130)" style="stroke:#000000; stroke-linecap:round; stroke-linejoin:round; stroke-width:4; stroke-opacity:1; fill:none" points="1550.15,553.395 1550.15,534.497 "/>
<path clip-path="url(#clip130)" d="M226.253 590.714 Q222.642 590.714 220.814 594.278 Q219.008 597.82 219.008 604.95 Q219.008 612.056 220.814 615.621 Q222.642 619.162 226.253 619.162 Q229.888 619.162 231.693 615.621 Q233.522 612.056 233.522 604.95 Q233.522 597.82 231.693 594.278 Q229.888 590.714 226.253 590.714 M226.253 587.01 Q232.064 587.01 235.119 591.616 Q238.198 596.2 238.198 604.95 Q238.198 613.676 235.119 618.283 Q232.064 622.866 226.253 622.866 Q220.443 622.866 217.365 618.283 Q214.309 613.676 214.309 604.95 Q214.309 596.2 217.365 591.616 Q220.443 587.01 226.253 587.01 Z" fill="#000000" fill-rule="nonzero" fill-opacity="1" /><path clip-path="url(#clip130)" d="M246.415 616.315 L251.3 616.315 L251.3 622.195 L246.415 622.195 L246.415 616.315 Z" fill="#000000" fill-rule="nonzero" fill-opacity="1" /><path clip-path="url(#clip130)" d="M271.485 590.714 Q267.874 590.714 266.045 594.278 Q264.239 597.82 264.239 604.95 Q264.239 612.056 266.045 615.621 Q267.874 619.162 271.485 619.162 Q275.119 619.162 276.924 615.621 Q278.753 612.056 278.753 604.95 Q278.753 597.82 276.924 594.278 Q275.119 590.714 271.485 590.714 M271.485 587.01 Q277.295 587.01 280.35 591.616 Q283.429 596.2 283.429 604.95 Q283.429 613.676 280.35 618.283 Q277.295 622.866 271.485 622.866 Q265.674 622.866 262.596 618.283 Q259.54 613.676 259.54 604.95 Q259.54 596.2 262.596 591.616 Q265.674 587.01 271.485 587.01 Z" fill="#000000" fill-rule="nonzero" fill-opacity="1" /><path clip-path="url(#clip130)" d="M487.008 590.714 Q483.397 590.714 481.568 594.278 Q479.763 597.82 479.763 604.95 Q479.763 612.056 481.568 615.621 Q483.397 619.162 487.008 619.162 Q490.642 619.162 492.448 615.621 Q494.276 612.056 494.276 604.95 Q494.276 597.82 492.448 594.278 Q490.642 590.714 487.008 590.714 M487.008 587.01 Q492.818 587.01 495.874 591.616 Q498.952 596.2 498.952 604.95 Q498.952 613.676 495.874 618.283 Q492.818 622.866 487.008 622.866 Q481.198 622.866 478.119 618.283 Q475.064 613.676 475.064 604.95 Q475.064 596.2 478.119 591.616 Q481.198 587.01 487.008 587.01 Z" fill="#000000" fill-rule="nonzero" fill-opacity="1" /><path clip-path="url(#clip130)" d="M507.17 616.315 L512.054 616.315 L512.054 622.195 L507.17 622.195 L507.17 616.315 Z" fill="#000000" fill-rule="nonzero" fill-opacity="1" /><path clip-path="url(#clip130)" d="M522.286 587.635 L540.642 587.635 L540.642 591.57 L526.568 591.57 L526.568 600.042 Q527.586 599.695 528.605 599.533 Q529.623 599.348 530.642 599.348 Q536.429 599.348 539.809 602.519 Q543.188 605.69 543.188 611.107 Q543.188 616.686 539.716 619.787 Q536.244 622.866 529.924 622.866 Q527.748 622.866 525.48 622.496 Q523.235 622.125 520.827 621.385 L520.827 616.686 Q522.911 617.82 525.133 618.375 Q527.355 618.931 529.832 618.931 Q533.836 618.931 536.174 616.825 Q538.512 614.718 538.512 611.107 Q538.512 607.496 536.174 605.389 Q533.836 603.283 529.832 603.283 Q527.957 603.283 526.082 603.7 Q524.23 604.116 522.286 604.996 L522.286 587.635 Z" fill="#000000" fill-rule="nonzero" fill-opacity="1" /><path clip-path="url(#clip130)" d="M736.536 618.26 L744.175 618.26 L744.175 591.894 L735.864 593.561 L735.864 589.302 L744.128 587.635 L748.804 587.635 L748.804 618.26 L756.443 618.26 L756.443 622.195 L736.536 622.195 L736.536 618.26 Z" fill="#000000" fill-rule="nonzero" fill-opacity="1" /><path clip-path="url(#clip130)" d="M765.887 616.315 L770.772 616.315 L770.772 622.195 L765.887 622.195 L765.887 616.315 Z" fill="#000000" fill-rule="nonzero" fill-opacity="1" /><path clip-path="url(#clip130)" d="M790.957 590.714 Q787.346 590.714 785.517 594.278 Q783.711 597.82 783.711 604.95 Q783.711 612.056 785.517 615.621 Q787.346 619.162 790.957 619.162 Q794.591 619.162 796.396 615.621 Q798.225 612.056 798.225 604.95 Q798.225 597.82 796.396 594.278 Q794.591 590.714 790.957 590.714 M790.957 587.01 Q796.767 587.01 799.822 591.616 Q802.901 596.2 802.901 604.95 Q802.901 613.676 799.822 618.283 Q796.767 622.866 790.957 622.866 Q785.147 622.866 782.068 618.283 Q779.012 613.676 779.012 604.95 Q779.012 596.2 782.068 591.616 Q785.147 587.01 790.957 587.01 Z" fill="#000000" fill-rule="nonzero" fill-opacity="1" /><path clip-path="url(#clip130)" d="M997.29 618.26 L1004.93 618.26 L1004.93 591.894 L996.619 593.561 L996.619 589.302 L1004.88 587.635 L1009.56 587.635 L1009.56 618.26 L1017.2 618.26 L1017.2 622.195 L997.29 622.195 L997.29 618.26 Z" fill="#000000" fill-rule="nonzero" fill-opacity="1" /><path clip-path="url(#clip130)" d="M1026.64 616.315 L1031.53 616.315 L1031.53 622.195 L1026.64 622.195 L1026.64 616.315 Z" fill="#000000" fill-rule="nonzero" fill-opacity="1" /><path clip-path="url(#clip130)" d="M1041.76 587.635 L1060.11 587.635 L1060.11 591.57 L1046.04 591.57 L1046.04 600.042 Q1047.06 599.695 1048.08 599.533 Q1049.1 599.348 1050.11 599.348 Q1055.9 599.348 1059.28 602.519 Q1062.66 605.69 1062.66 611.107 Q1062.66 616.686 1059.19 619.787 Q1055.72 622.866 1049.4 622.866 Q1047.22 622.866 1044.95 622.496 Q1042.71 622.125 1040.3 621.385 L1040.3 616.686 Q1042.38 617.82 1044.6 618.375 Q1046.83 618.931 1049.3 618.931 Q1053.31 618.931 1055.65 616.825 Q1057.98 614.718 1057.98 611.107 Q1057.98 607.496 1055.65 605.389 Q1053.31 603.283 1049.3 603.283 Q1047.43 603.283 1045.55 603.7 Q1043.7 604.116 1041.76 604.996 L1041.76 587.635 Z" fill="#000000" fill-rule="nonzero" fill-opacity="1" /><path clip-path="url(#clip130)" d="M1261.14 618.26 L1277.45 618.26 L1277.45 622.195 L1255.51 622.195 L1255.51 618.26 Q1258.17 615.505 1262.76 610.875 Q1267.36 606.223 1268.54 604.88 Q1270.79 602.357 1271.67 600.621 Q1272.57 598.862 1272.57 597.172 Q1272.57 594.417 1270.63 592.681 Q1268.7 590.945 1265.6 590.945 Q1263.4 590.945 1260.95 591.709 Q1258.52 592.473 1255.74 594.024 L1255.74 589.302 Q1258.57 588.167 1261.02 587.589 Q1263.47 587.01 1265.51 587.01 Q1270.88 587.01 1274.07 589.695 Q1277.27 592.38 1277.27 596.871 Q1277.27 599.001 1276.46 600.922 Q1275.67 602.82 1273.57 605.413 Q1272.99 606.084 1269.89 609.301 Q1266.78 612.496 1261.14 618.26 Z" fill="#000000" fill-rule="nonzero" fill-opacity="1" /><path clip-path="url(#clip130)" d="M1287.27 616.315 L1292.15 616.315 L1292.15 622.195 L1287.27 622.195 L1287.27 616.315 Z" fill="#000000" fill-rule="nonzero" fill-opacity="1" /><path clip-path="url(#clip130)" d="M1312.34 590.714 Q1308.73 590.714 1306.9 594.278 Q1305.09 597.82 1305.09 604.95 Q1305.09 612.056 1306.9 615.621 Q1308.73 619.162 1312.34 619.162 Q1315.97 619.162 1317.78 615.621 Q1319.61 612.056 1319.61 604.95 Q1319.61 597.82 1317.78 594.278 Q1315.97 590.714 1312.34 590.714 M1312.34 587.01 Q1318.15 587.01 1321.2 591.616 Q1324.28 596.2 1324.28 604.95 Q1324.28 613.676 1321.2 618.283 Q1318.15 622.866 1312.34 622.866 Q1306.53 622.866 1303.45 618.283 Q1300.39 613.676 1300.39 604.95 Q1300.39 596.2 1303.45 591.616 Q1306.53 587.01 1312.34 587.01 Z" fill="#000000" fill-rule="nonzero" fill-opacity="1" /><path clip-path="url(#clip130)" d="M1521.89 618.26 L1538.21 618.26 L1538.21 622.195 L1516.26 622.195 L1516.26 618.26 Q1518.93 615.505 1523.51 610.875 Q1528.12 606.223 1529.3 604.88 Q1531.54 602.357 1532.42 600.621 Q1533.32 598.862 1533.32 597.172 Q1533.32 594.417 1531.38 592.681 Q1529.46 590.945 1526.36 590.945 Q1524.16 590.945 1521.7 591.709 Q1519.27 592.473 1516.5 594.024 L1516.5 589.302 Q1519.32 588.167 1521.77 587.589 Q1524.23 587.01 1526.26 587.01 Q1531.63 587.01 1534.83 589.695 Q1538.02 592.38 1538.02 596.871 Q1538.02 599.001 1537.21 600.922 Q1536.43 602.82 1534.32 605.413 Q1533.74 606.084 1530.64 609.301 Q1527.54 612.496 1521.89 618.26 Z" fill="#000000" fill-rule="nonzero" fill-opacity="1" /><path clip-path="url(#clip130)" d="M1548.02 616.315 L1552.91 616.315 L1552.91 622.195 L1548.02 622.195 L1548.02 616.315 Z" fill="#000000" fill-rule="nonzero" fill-opacity="1" /><path clip-path="url(#clip130)" d="M1563.14 587.635 L1581.5 587.635 L1581.5 591.57 L1567.42 591.57 L1567.42 600.042 Q1568.44 599.695 1569.46 599.533 Q1570.48 599.348 1571.5 599.348 Q1577.28 599.348 1580.66 602.519 Q1584.04 605.69 1584.04 611.107 Q1584.04 616.686 1580.57 619.787 Q1577.1 622.866 1570.78 622.866 Q1568.6 622.866 1566.33 622.496 Q1564.09 622.125 1561.68 621.385 L1561.68 616.686 Q1563.76 617.82 1565.99 618.375 Q1568.21 618.931 1570.69 618.931 Q1574.69 618.931 1577.03 616.825 Q1579.37 614.718 1579.37 611.107 Q1579.37 607.496 1577.03 605.389 Q1574.69 603.283 1570.69 603.283 Q1568.81 603.283 1566.94 603.7 Q1565.08 604.116 1563.14 604.996 L1563.14 587.635 Z" fill="#000000" fill-rule="nonzero" fill-opacity="1" /><path clip-path="url(#clip130)" d="M909.286 674.123 Q909.286 675.024 908.868 675.25 Q908.449 675.443 907.29 675.443 L901.106 675.443 L896.211 694.895 Q895.824 696.602 895.824 698.052 Q895.824 699.662 896.307 700.37 Q896.823 701.079 897.885 701.079 Q899.979 701.079 902.233 699.179 Q904.52 697.279 906.452 692.641 Q906.71 692.029 906.839 691.9 Q907 691.739 907.418 691.739 Q908.223 691.739 908.223 692.383 Q908.223 692.609 907.773 693.639 Q907.354 694.67 906.42 696.184 Q905.518 697.697 904.327 699.114 Q903.167 700.532 901.396 701.562 Q899.625 702.56 897.724 702.56 Q895.051 702.56 893.344 700.854 Q891.67 699.147 891.67 696.474 Q891.67 695.604 892.346 692.834 Q893.022 690.032 896.694 675.443 L890.865 675.443 Q890.059 675.443 889.737 675.411 Q889.447 675.379 889.222 675.218 Q889.029 675.024 889.029 674.638 Q889.029 674.026 889.286 673.768 Q889.544 673.479 889.866 673.446 Q890.22 673.382 891.026 673.382 L897.209 673.382 L899.786 662.915 Q900.043 661.884 900.687 661.305 Q901.364 660.693 901.75 660.628 Q902.137 660.532 902.426 660.532 Q903.296 660.532 903.811 661.015 Q904.327 661.466 904.327 662.303 Q904.327 662.754 901.621 673.382 L907.418 673.382 Q908.159 673.382 908.449 673.414 Q908.771 673.446 909.029 673.607 Q909.286 673.768 909.286 674.123 Z" fill="#000000" fill-rule="nonzero" fill-opacity="1" /><polyline clip-path="url(#clip130)" style="stroke:#000000; stroke-linecap:round; stroke-linejoin:round; stroke-width:4; stroke-opacity:1; fill:none" points="248.869,553.395 248.869,47.2441 "/>
<polyline clip-path="url(#clip130)" style="stroke:#000000; stroke-linecap:round; stroke-linejoin:round; stroke-width:4; stroke-opacity:1; fill:none" points="248.869,553.395 267.767,553.395 "/>
<polyline clip-path="url(#clip130)" style="stroke:#000000; stroke-linecap:round; stroke-linejoin:round; stroke-width:4; stroke-opacity:1; fill:none" points="248.869,426.857 267.767,426.857 "/>
<polyline clip-path="url(#clip130)" style="stroke:#000000; stroke-linecap:round; stroke-linejoin:round; stroke-width:4; stroke-opacity:1; fill:none" points="248.869,300.319 267.767,300.319 "/>
<polyline clip-path="url(#clip130)" style="stroke:#000000; stroke-linecap:round; stroke-linejoin:round; stroke-width:4; stroke-opacity:1; fill:none" points="248.869,173.782 267.767,173.782 "/>
<polyline clip-path="url(#clip130)" style="stroke:#000000; stroke-linecap:round; stroke-linejoin:round; stroke-width:4; stroke-opacity:1; fill:none" points="248.869,47.2441 267.767,47.2441 "/>
<path clip-path="url(#clip130)" d="M93.9252 553.846 L123.601 553.846 L123.601 557.781 L93.9252 557.781 L93.9252 553.846 Z" fill="#000000" fill-rule="nonzero" fill-opacity="1" /><path clip-path="url(#clip130)" d="M133.74 536.115 L152.096 536.115 L152.096 540.05 L138.022 540.05 L138.022 548.522 Q139.041 548.175 140.059 548.013 Q141.078 547.828 142.096 547.828 Q147.883 547.828 151.263 550.999 Q154.642 554.17 154.642 559.587 Q154.642 565.166 151.17 568.267 Q147.698 571.346 141.379 571.346 Q139.203 571.346 136.934 570.976 Q134.689 570.605 132.281 569.865 L132.281 565.166 Q134.365 566.3 136.587 566.855 Q138.809 567.411 141.286 567.411 Q145.291 567.411 147.629 565.305 Q149.967 563.198 149.967 559.587 Q149.967 555.976 147.629 553.869 Q145.291 551.763 141.286 551.763 Q139.411 551.763 137.536 552.18 Q135.684 552.596 133.74 553.476 L133.74 536.115 Z" fill="#000000" fill-rule="nonzero" fill-opacity="1" /><path clip-path="url(#clip130)" d="M163.855 564.795 L168.74 564.795 L168.74 570.675 L163.855 570.675 L163.855 564.795 Z" fill="#000000" fill-rule="nonzero" fill-opacity="1" /><path clip-path="url(#clip130)" d="M188.925 539.194 Q185.314 539.194 183.485 542.758 Q181.679 546.3 181.679 553.43 Q181.679 560.536 183.485 564.101 Q185.314 567.642 188.925 567.642 Q192.559 567.642 194.364 564.101 Q196.193 560.536 196.193 553.43 Q196.193 546.3 194.364 542.758 Q192.559 539.194 188.925 539.194 M188.925 535.49 Q194.735 535.49 197.79 540.096 Q200.869 544.68 200.869 553.43 Q200.869 562.156 197.79 566.763 Q194.735 571.346 188.925 571.346 Q183.114 571.346 180.036 566.763 Q176.98 562.156 176.98 553.43 Q176.98 544.68 180.036 540.096 Q183.114 535.49 188.925 535.49 Z" fill="#000000" fill-rule="nonzero" fill-opacity="1" /><path clip-path="url(#clip130)" d="M94.9205 427.309 L124.596 427.309 L124.596 431.244 L94.9205 431.244 L94.9205 427.309 Z" fill="#000000" fill-rule="nonzero" fill-opacity="1" /><path clip-path="url(#clip130)" d="M138.717 440.202 L155.036 440.202 L155.036 444.137 L133.092 444.137 L133.092 440.202 Q135.754 437.447 140.337 432.818 Q144.943 428.165 146.124 426.822 Q148.369 424.299 149.249 422.563 Q150.152 420.804 150.152 419.114 Q150.152 416.36 148.207 414.623 Q146.286 412.887 143.184 412.887 Q140.985 412.887 138.531 413.651 Q136.101 414.415 133.323 415.966 L133.323 411.244 Q136.147 410.11 138.601 409.531 Q141.055 408.952 143.092 408.952 Q148.462 408.952 151.656 411.637 Q154.851 414.323 154.851 418.813 Q154.851 420.943 154.041 422.864 Q153.254 424.762 151.147 427.355 Q150.568 428.026 147.467 431.244 Q144.365 434.438 138.717 440.202 Z" fill="#000000" fill-rule="nonzero" fill-opacity="1" /><path clip-path="url(#clip130)" d="M164.851 438.258 L169.735 438.258 L169.735 444.137 L164.851 444.137 L164.851 438.258 Z" fill="#000000" fill-rule="nonzero" fill-opacity="1" /><path clip-path="url(#clip130)" d="M179.966 409.577 L198.323 409.577 L198.323 413.512 L184.249 413.512 L184.249 421.984 Q185.267 421.637 186.286 421.475 Q187.304 421.29 188.323 421.29 Q194.11 421.29 197.489 424.461 Q200.869 427.633 200.869 433.049 Q200.869 438.628 197.397 441.73 Q193.925 444.808 187.605 444.808 Q185.429 444.808 183.161 444.438 Q180.915 444.068 178.508 443.327 L178.508 438.628 Q180.591 439.762 182.814 440.318 Q185.036 440.873 187.513 440.873 Q191.517 440.873 193.855 438.767 Q196.193 436.66 196.193 433.049 Q196.193 429.438 193.855 427.332 Q191.517 425.225 187.513 425.225 Q185.638 425.225 183.763 425.642 Q181.911 426.059 179.966 426.938 L179.966 409.577 Z" fill="#000000" fill-rule="nonzero" fill-opacity="1" /><path clip-path="url(#clip130)" d="M143.693 286.118 Q140.082 286.118 138.254 289.683 Q136.448 293.225 136.448 300.354 Q136.448 307.461 138.254 311.025 Q140.082 314.567 143.693 314.567 Q147.328 314.567 149.133 311.025 Q150.962 307.461 150.962 300.354 Q150.962 293.225 149.133 289.683 Q147.328 286.118 143.693 286.118 M143.693 282.414 Q149.504 282.414 152.559 287.021 Q155.638 291.604 155.638 300.354 Q155.638 309.081 152.559 313.687 Q149.504 318.271 143.693 318.271 Q137.883 318.271 134.805 313.687 Q131.749 309.081 131.749 300.354 Q131.749 291.604 134.805 287.021 Q137.883 282.414 143.693 282.414 Z" fill="#000000" fill-rule="nonzero" fill-opacity="1" /><path clip-path="url(#clip130)" d="M163.855 311.72 L168.74 311.72 L168.74 317.599 L163.855 317.599 L163.855 311.72 Z" fill="#000000" fill-rule="nonzero" fill-opacity="1" /><path clip-path="url(#clip130)" d="M188.925 286.118 Q185.314 286.118 183.485 289.683 Q181.679 293.225 181.679 300.354 Q181.679 307.461 183.485 311.025 Q185.314 314.567 188.925 314.567 Q192.559 314.567 194.364 311.025 Q196.193 307.461 196.193 300.354 Q196.193 293.225 194.364 289.683 Q192.559 286.118 188.925 286.118 M188.925 282.414 Q194.735 282.414 197.79 287.021 Q200.869 291.604 200.869 300.354 Q200.869 309.081 197.79 313.687 Q194.735 318.271 188.925 318.271 Q183.114 318.271 180.036 313.687 Q176.98 309.081 176.98 300.354 Q176.98 291.604 180.036 287.021 Q183.114 282.414 188.925 282.414 Z" fill="#000000" fill-rule="nonzero" fill-opacity="1" /><path clip-path="url(#clip130)" d="M138.717 187.127 L155.036 187.127 L155.036 191.062 L133.092 191.062 L133.092 187.127 Q135.754 184.372 140.337 179.742 Q144.943 175.09 146.124 173.747 Q148.369 171.224 149.249 169.488 Q150.152 167.729 150.152 166.039 Q150.152 163.284 148.207 161.548 Q146.286 159.812 143.184 159.812 Q140.985 159.812 138.531 160.576 Q136.101 161.34 133.323 162.891 L133.323 158.168 Q136.147 157.034 138.601 156.455 Q141.055 155.877 143.092 155.877 Q148.462 155.877 151.656 158.562 Q154.851 161.247 154.851 165.738 Q154.851 167.867 154.041 169.789 Q153.254 171.687 151.147 174.279 Q150.568 174.951 147.467 178.168 Q144.365 181.363 138.717 187.127 Z" fill="#000000" fill-rule="nonzero" fill-opacity="1" /><path clip-path="url(#clip130)" d="M164.851 185.182 L169.735 185.182 L169.735 191.062 L164.851 191.062 L164.851 185.182 Z" fill="#000000" fill-rule="nonzero" fill-opacity="1" /><path clip-path="url(#clip130)" d="M179.966 156.502 L198.323 156.502 L198.323 160.437 L184.249 160.437 L184.249 168.909 Q185.267 168.562 186.286 168.4 Q187.304 168.215 188.323 168.215 Q194.11 168.215 197.489 171.386 Q200.869 174.557 200.869 179.974 Q200.869 185.553 197.397 188.654 Q193.925 191.733 187.605 191.733 Q185.429 191.733 183.161 191.363 Q180.915 190.992 178.508 190.252 L178.508 185.553 Q180.591 186.687 182.814 187.242 Q185.036 187.798 187.513 187.798 Q191.517 187.798 193.855 185.691 Q196.193 183.585 196.193 179.974 Q196.193 176.363 193.855 174.256 Q191.517 172.15 187.513 172.15 Q185.638 172.15 183.763 172.567 Q181.911 172.983 179.966 173.863 L179.966 156.502 Z" fill="#000000" fill-rule="nonzero" fill-opacity="1" /><path clip-path="url(#clip130)" d="M133.74 29.9641 L152.096 29.9641 L152.096 33.8993 L138.022 33.8993 L138.022 42.3714 Q139.041 42.0242 140.059 41.8622 Q141.078 41.677 142.096 41.677 Q147.883 41.677 151.263 44.8483 Q154.642 48.0196 154.642 53.4362 Q154.642 59.0149 151.17 62.1167 Q147.698 65.1954 141.379 65.1954 Q139.203 65.1954 136.934 64.825 Q134.689 64.4547 132.281 63.7139 L132.281 59.0149 Q134.365 60.1491 136.587 60.7047 Q138.809 61.2602 141.286 61.2602 Q145.291 61.2602 147.629 59.1538 Q149.967 57.0473 149.967 53.4362 Q149.967 49.8251 147.629 47.7186 Q145.291 45.6122 141.286 45.6122 Q139.411 45.6122 137.536 46.0288 Q135.684 46.4455 133.74 47.3251 L133.74 29.9641 Z" fill="#000000" fill-rule="nonzero" fill-opacity="1" /><path clip-path="url(#clip130)" d="M163.855 58.6445 L168.74 58.6445 L168.74 64.5241 L163.855 64.5241 L163.855 58.6445 Z" fill="#000000" fill-rule="nonzero" fill-opacity="1" /><path clip-path="url(#clip130)" d="M188.925 33.0428 Q185.314 33.0428 183.485 36.6076 Q181.679 40.1492 181.679 47.2788 Q181.679 54.3853 183.485 57.9501 Q185.314 61.4917 188.925 61.4917 Q192.559 61.4917 194.364 57.9501 Q196.193 54.3853 196.193 47.2788 Q196.193 40.1492 194.364 36.6076 Q192.559 33.0428 188.925 33.0428 M188.925 29.3391 Q194.735 29.3391 197.79 33.9456 Q200.869 38.5289 200.869 47.2788 Q200.869 56.0056 197.79 60.6121 Q194.735 65.1954 188.925 65.1954 Q183.114 65.1954 180.036 60.6121 Q176.98 56.0056 176.98 47.2788 Q176.98 38.5289 180.036 33.9456 Q183.114 29.3391 188.925 29.3391 Z" fill="#000000" fill-rule="nonzero" fill-opacity="1" /><path clip-path="url(#clip130)" d="M-12.4283 295.092 L4.38318 299.246 Q5.44597 299.536 5.57479 299.729 Q5.70362 299.89 5.70362 300.405 Q5.70362 301.404 5.02729 301.404 Q4.96288 301.404 4.12553 301.307 Q3.25597 301.211 1.67788 301.211 Q-4.15138 301.211 -7.5974 304.045 Q-11.0434 306.847 -11.0434 311.839 Q-11.0434 316.154 -8.85343 320.502 Q-6.66343 324.818 -3.08858 327.909 Q-0.383291 330.228 3.03053 331.935 Q6.44435 333.61 9.56832 334.415 Q12.6923 335.188 15.0433 335.542 Q17.3943 335.896 19.1013 335.896 Q21.5811 335.896 23.6745 335.381 Q25.7679 334.834 27.2493 333.867 Q28.6986 332.901 29.8258 331.677 Q30.9208 330.421 31.5649 328.972 Q32.209 327.491 32.5311 326.009 Q32.821 324.528 32.821 322.982 Q32.821 316.766 27.9901 310.84 Q24.0288 306.138 17.5554 304.174 Q16.9113 304.013 16.9113 303.336 Q16.9113 302.531 17.5554 302.531 Q17.6842 302.531 18.3283 302.692 Q18.9402 302.853 20.1963 303.336 Q21.4201 303.819 22.8049 304.56 Q24.1898 305.301 25.9289 306.686 Q27.668 308.07 29.1817 309.777 Q31.6937 312.676 33.2718 316.347 Q34.8499 320.019 34.8499 324.045 Q34.8499 329.069 32.6277 333.127 Q30.4055 337.185 26.251 339.568 Q22.0964 341.919 16.7824 341.919 Q11.1786 341.919 5.67141 339.342 Q0.164209 336.766 -3.92594 332.676 Q-8.01608 328.586 -10.5603 323.175 Q-13.1046 317.764 -13.1046 312.354 Q-13.1046 310.293 -12.5571 308.457 Q-12.0096 306.621 -11.3333 305.526 Q-10.657 304.399 -9.65858 303.401 Q-8.6924 302.402 -8.24152 302.08 Q-7.79064 301.726 -7.24314 301.404 L-12.2995 296.798 Q-13.1046 295.993 -13.1046 295.8 Q-13.1046 295.414 -12.8792 295.253 Q-12.6537 295.092 -12.4283 295.092 Z" fill="#000000" fill-rule="nonzero" fill-opacity="1" /><path clip-path="url(#clip130)" d="M29.5979 265.53 Q30.8604 265.53 31.5818 266.319 Q32.2807 267.108 32.2807 268.01 Q32.2807 268.866 31.7847 269.317 Q31.2888 269.768 30.6575 269.768 Q29.8008 269.768 29.0569 269.137 Q28.3129 268.506 28.1551 267.559 Q27.569 268.483 27.569 269.858 Q27.569 270.76 28.0424 271.549 Q28.5158 272.315 29.1245 272.789 Q29.7332 273.24 30.6124 273.646 Q31.4691 274.029 31.9876 274.187 Q32.4836 274.322 33.0247 274.435 L39.337 276.013 Q42.3354 276.779 43.3949 276.779 Q44.7025 276.779 45.5817 276.148 Q46.4384 275.517 46.4384 274.254 Q46.4384 273.758 46.3031 273.195 Q46.1453 272.631 45.7395 271.91 Q45.3112 271.166 44.68 270.512 Q44.0262 269.836 42.9215 269.182 Q41.8169 268.528 40.3966 268.1 Q39.9006 267.964 39.9006 267.514 Q39.9006 266.95 40.3515 266.95 Q40.7347 266.95 41.5463 267.266 Q42.3354 267.559 43.3724 268.212 Q44.3869 268.844 45.3112 269.678 Q46.213 270.512 46.8442 271.752 Q47.4754 272.992 47.4754 274.344 Q47.4754 276.283 46.4384 277.568 Q45.4014 278.853 43.9585 279.327 Q44.1614 279.439 44.432 279.597 Q44.7025 279.755 45.3112 280.228 Q45.8973 280.679 46.3482 281.198 Q46.7766 281.716 47.1147 282.528 Q47.4754 283.317 47.4754 284.174 Q47.4754 285.256 47.1598 286.225 Q46.8442 287.172 46.1228 287.848 Q45.4014 288.525 44.4094 288.525 Q43.3048 288.525 42.5383 287.781 Q41.7492 287.014 41.7492 285.977 Q41.7492 285.323 42.1325 284.805 Q42.5157 284.264 43.3499 284.264 Q44.2742 284.264 44.973 284.895 Q45.6719 285.526 45.8522 286.428 Q46.4384 285.504 46.4384 284.129 Q46.4384 282.641 45.1308 281.468 Q43.8233 280.296 41.6365 279.732 Q36.3837 278.335 34.0391 277.794 Q31.672 277.253 30.6575 277.253 Q29.7107 277.253 29.0569 277.501 Q28.4031 277.749 28.11 278.177 Q27.7944 278.583 27.6817 278.966 Q27.569 279.327 27.569 279.732 Q27.569 280.409 27.8395 281.175 Q28.11 281.919 28.7413 282.821 Q29.35 283.7 30.6124 284.534 Q31.8749 285.369 33.6108 285.932 Q34.1293 286.045 34.1293 286.541 Q34.1068 287.082 33.6559 287.082 Q33.2726 287.082 32.4836 286.789 Q31.672 286.473 30.6575 285.842 Q29.643 285.188 28.7413 284.354 Q27.817 283.497 27.1857 282.257 Q26.5545 280.995 26.5545 279.642 Q26.5545 279.034 26.6898 278.447 Q26.8025 277.839 27.1406 277.117 Q27.4788 276.373 28.2228 275.72 Q28.9667 275.066 30.0488 274.66 Q29.5303 274.39 29.0343 274.029 Q28.5384 273.646 27.9297 273.059 Q27.2984 272.451 26.9377 271.617 Q26.5545 270.76 26.5545 269.813 Q26.5545 268.889 26.8025 267.987 Q27.0279 267.085 27.7719 266.319 Q28.4933 265.53 29.5979 265.53 Z" fill="#000000" fill-rule="nonzero" fill-opacity="1" /><polyline clip-path="url(#clip132)" style="stroke:#009af9; stroke-linecap:round; stroke-linejoin:round; stroke-width:4; stroke-opacity:1; fill:none" points="248.869,300.319 252.773,638.801 256.677,245.453 260.581,250.258 264.484,254.034 268.388,257.072 272.292,259.571 276.196,261.662 280.1,263.437 284.004,264.969 287.908,266.306 291.811,267.483 295.715,268.53 299.619,269.469 303.523,270.316 307.427,271.084 311.331,271.786 315.235,272.431 319.138,273.025 323.042,273.571 326.946,274.08 330.85,274.549 334.754,274.994 338.658,275.41 342.561,275.798 346.465,276.161 350.369,276.507 354.273,276.832 358.177,277.145 362.081,277.439 365.985,277.721 369.888,277.99 373.792,278.245 377.696,278.485 381.6,278.727 385.504,278.954 389.408,279.165 393.312,279.39 397.215,279.6 401.119,279.803 405.023,279.984 408.927,280.177 412.831,280.364 416.735,280.549 420.639,280.697 424.542,280.824 428.446,280.93 432.35,281.072 436.254,281.21 440.158,281.372 444.062,281.455 447.966,281.621 451.869,281.748 455.773,281.807 459.677,281.957 463.581,282.103 467.485,282.189 471.389,282.267 475.292,282.317 479.196,282.4 483.1,282.479 487.004,282.595 490.908,282.676 494.812,282.753 498.716,282.833 502.619,282.882 506.523,282.97 510.427,283.055 514.331,283.148 518.235,283.213 522.139,283.283 526.043,283.353 529.946,283.442 533.85,283.492 537.754,283.524 541.658,283.571 545.562,283.638 549.466,283.719 553.37,283.781 557.273,283.85 561.177,283.908 565.081,283.951 568.985,283.994 572.889,284.042 576.793,284.096 580.697,284.149 584.6,284.198 588.504,284.245 592.408,284.293 596.312,284.344 600.216,284.394 604.12,284.444 608.023,284.494 611.927,284.533 615.831,284.581 619.735,284.647 623.639,284.68 627.543,284.728 631.447,284.78 635.35,284.843 639.254,284.89 643.158,284.947 647.062,284.992 650.966,285.005 654.87,285.036 658.774,285.047 662.677,285.07 666.581,285.144 670.485,285.173 674.389,285.221 678.293,285.239 682.197,285.288 686.101,285.3 690.004,285.321 693.908,285.355 697.812,285.392 701.716,285.463 705.62,285.545 709.524,285.586 713.428,285.593 717.331,285.608 721.235,285.675 725.139,285.715 729.043,285.778 732.947,285.786 736.851,285.856 740.754,285.843 744.658,285.85 748.562,285.878 752.466,285.887 756.37,285.903 760.274,285.862 764.178,285.891 768.081,285.973 771.985,285.992 775.889,285.993 779.793,286.004 783.697,286.013 787.601,285.99 791.505,285.993 795.408,286.042 799.312,286.119 803.216,286.18 807.12,286.228 811.024,286.261 814.928,286.261 818.832,286.278 822.735,286.293 826.639,286.307 830.543,286.296 834.447,286.302 838.351,286.337 842.255,286.351 846.159,286.386 850.062,286.431 853.966,286.448 857.87,286.478 861.774,286.449 865.678,286.432 869.582,286.464 873.485,286.433 877.389,286.469 881.293,286.509 885.197,286.507 889.101,286.538 893.005,286.507 896.909,286.526 900.812,286.527 904.716,286.501 908.62,286.525 912.524,286.529 916.428,286.554 920.332,286.55 924.236,286.568 928.139,286.589 932.043,286.633 935.947,286.673 939.851,286.713 943.755,286.716 947.659,286.736 951.563,286.726 955.466,286.739 959.37,286.785 963.274,286.773 967.178,286.719 971.082,286.728 974.986,286.774 978.89,286.812 982.793,286.815 986.697,286.81 990.601,286.873 994.505,286.837 998.409,286.791 1002.31,286.765 1006.22,286.74 1010.12,286.766 1014.02,286.737 1017.93,286.703 1021.83,286.736 1025.74,286.777 1029.64,286.743 1033.54,286.734 1037.45,286.732 1041.35,286.771 1045.26,286.778 1049.16,286.789 1053.06,286.755 1056.97,286.75 1060.87,286.733 1064.77,286.733 1068.68,286.762 1072.58,286.779 1076.49,286.799 1080.39,286.812 1084.29,286.822 1088.2,286.812 1092.1,286.815 1096.01,286.804 1099.91,286.813 1103.81,286.817 1107.72,286.81 1111.62,286.828 1115.52,286.838 1119.43,286.855 1123.33,286.874 1127.24,286.898 1131.14,286.912 1135.04,286.933 1138.95,286.908 1142.85,286.923 1146.76,286.91 1150.66,286.898 1154.56,286.904 1158.47,286.905 1162.37,286.928 1166.27,286.94 1170.18,286.948 1174.08,286.951 1177.99,286.992 1181.89,287.01 1185.79,287.015 1189.7,287.031 1193.6,287.05 1197.51,287.059 1201.41,287.068 1205.31,287.065 1209.22,287.069 1213.12,287.063 1217.02,287.134 1220.93,287.142 1224.83,287.162 1228.74,287.119 1232.64,287.126 1236.54,287.143 1240.45,287.153 1244.35,287.196 1248.26,287.175 1252.16,287.181 1256.06,287.183 1259.97,287.173 1263.87,287.193 1267.77,287.203 1271.68,287.189 1275.58,287.147 1279.49,287.087 1283.39,287.107 1287.29,287.078 1291.2,287.142 1295.1,287.158 1299.01,287.151 1302.91,287.168 1306.81,287.132 1310.72,287.14 1314.62,287.16 1318.52,287.177 1322.43,287.171 1326.33,287.154 1330.24,287.176 1334.14,287.163 1338.04,287.134 1341.95,287.11 1345.85,287.139 1349.76,287.17 1353.66,287.162 1357.56,287.133 1361.47,287.128 1365.37,287.136 1369.27,287.181 1373.18,287.188 1377.08,287.195 1380.99,287.192 1384.89,287.205 1388.79,287.23 1392.7,287.202 1396.6,287.204 1400.51,287.195 1404.41,287.157 1408.31,287.179 1412.22,287.203 1416.12,287.208 1420.02,287.248 1423.93,287.224 1427.83,287.201 1431.74,287.214 1435.64,287.231 1439.54,287.232 1443.45,287.232 1447.35,287.225 1451.26,287.241 1455.16,287.27 1459.06,287.29 1462.97,287.278 1466.87,287.279 1470.77,287.301 1474.68,287.299 1478.58,287.35 1482.49,287.402 1486.39,287.471 1490.29,287.465 1494.2,287.436 1498.1,287.477 1502.01,287.514 1505.91,287.515 1509.81,287.55 1513.72,287.532 1517.62,287.546 1521.53,287.522 1525.43,287.54 1529.33,287.569 1533.24,287.546 1537.14,287.484 1541.04,287.521 1544.95,287.551 1548.85,287.549 1552.76,287.596 "/>
<path clip-path="url(#clip130)" d="M1848.87 553.395 L3152.76 553.395 L3152.76 47.2441 L1848.87 47.2441  Z" fill="#ffffff" fill-rule="evenodd" fill-opacity="1"/>
<defs>
  <clipPath id="clip133">
    <rect x="1848" y="47" width="1305" height="507"/>
  </clipPath>
</defs>
<polyline clip-path="url(#clip133)" style="stroke:#000000; stroke-linecap:round; stroke-linejoin:round; stroke-width:2; stroke-opacity:0.1; fill:none" points="1848.87,553.395 1848.87,47.2441 "/>
<polyline clip-path="url(#clip133)" style="stroke:#000000; stroke-linecap:round; stroke-linejoin:round; stroke-width:2; stroke-opacity:0.1; fill:none" points="2109.13,553.395 2109.13,47.2441 "/>
<polyline clip-path="url(#clip133)" style="stroke:#000000; stroke-linecap:round; stroke-linejoin:round; stroke-width:2; stroke-opacity:0.1; fill:none" points="2369.38,553.395 2369.38,47.2441 "/>
<polyline clip-path="url(#clip133)" style="stroke:#000000; stroke-linecap:round; stroke-linejoin:round; stroke-width:2; stroke-opacity:0.1; fill:none" points="2629.64,553.395 2629.64,47.2441 "/>
<polyline clip-path="url(#clip133)" style="stroke:#000000; stroke-linecap:round; stroke-linejoin:round; stroke-width:2; stroke-opacity:0.1; fill:none" points="2889.9,553.395 2889.9,47.2441 "/>
<polyline clip-path="url(#clip133)" style="stroke:#000000; stroke-linecap:round; stroke-linejoin:round; stroke-width:2; stroke-opacity:0.1; fill:none" points="3150.15,553.395 3150.15,47.2441 "/>
<polyline clip-path="url(#clip133)" style="stroke:#000000; stroke-linecap:round; stroke-linejoin:round; stroke-width:2; stroke-opacity:0.1; fill:none" points="1848.87,553.395 3152.76,553.395 "/>
<polyline clip-path="url(#clip133)" style="stroke:#000000; stroke-linecap:round; stroke-linejoin:round; stroke-width:2; stroke-opacity:0.1; fill:none" points="1848.87,426.857 3152.76,426.857 "/>
<polyline clip-path="url(#clip133)" style="stroke:#000000; stroke-linecap:round; stroke-linejoin:round; stroke-width:2; stroke-opacity:0.1; fill:none" points="1848.87,300.319 3152.76,300.319 "/>
<polyline clip-path="url(#clip133)" style="stroke:#000000; stroke-linecap:round; stroke-linejoin:round; stroke-width:2; stroke-opacity:0.1; fill:none" points="1848.87,173.782 3152.76,173.782 "/>
<polyline clip-path="url(#clip133)" style="stroke:#000000; stroke-linecap:round; stroke-linejoin:round; stroke-width:2; stroke-opacity:0.1; fill:none" points="1848.87,47.2441 3152.76,47.2441 "/>
<polyline clip-path="url(#clip130)" style="stroke:#000000; stroke-linecap:round; stroke-linejoin:round; stroke-width:4; stroke-opacity:1; fill:none" points="1848.87,553.395 3152.76,553.395 "/>
<polyline clip-path="url(#clip130)" style="stroke:#000000; stroke-linecap:round; stroke-linejoin:round; stroke-width:4; stroke-opacity:1; fill:none" points="1848.87,553.395 1848.87,534.497 "/>
<polyline clip-path="url(#clip130)" style="stroke:#000000; stroke-linecap:round; stroke-linejoin:round; stroke-width:4; stroke-opacity:1; fill:none" points="2109.13,553.395 2109.13,534.497 "/>
<polyline clip-path="url(#clip130)" style="stroke:#000000; stroke-linecap:round; stroke-linejoin:round; stroke-width:4; stroke-opacity:1; fill:none" points="2369.38,553.395 2369.38,534.497 "/>
<polyline clip-path="url(#clip130)" style="stroke:#000000; stroke-linecap:round; stroke-linejoin:round; stroke-width:4; stroke-opacity:1; fill:none" points="2629.64,553.395 2629.64,534.497 "/>
<polyline clip-path="url(#clip130)" style="stroke:#000000; stroke-linecap:round; stroke-linejoin:round; stroke-width:4; stroke-opacity:1; fill:none" points="2889.9,553.395 2889.9,534.497 "/>
<polyline clip-path="url(#clip130)" style="stroke:#000000; stroke-linecap:round; stroke-linejoin:round; stroke-width:4; stroke-opacity:1; fill:none" points="3150.15,553.395 3150.15,534.497 "/>
<path clip-path="url(#clip130)" d="M1826.25 590.714 Q1822.64 590.714 1820.81 594.278 Q1819.01 597.82 1819.01 604.95 Q1819.01 612.056 1820.81 615.621 Q1822.64 619.162 1826.25 619.162 Q1829.89 619.162 1831.69 615.621 Q1833.52 612.056 1833.52 604.95 Q1833.52 597.82 1831.69 594.278 Q1829.89 590.714 1826.25 590.714 M1826.25 587.01 Q1832.06 587.01 1835.12 591.616 Q1838.2 596.2 1838.2 604.95 Q1838.2 613.676 1835.12 618.283 Q1832.06 622.866 1826.25 622.866 Q1820.44 622.866 1817.36 618.283 Q1814.31 613.676 1814.31 604.95 Q1814.31 596.2 1817.36 591.616 Q1820.44 587.01 1826.25 587.01 Z" fill="#000000" fill-rule="nonzero" fill-opacity="1" /><path clip-path="url(#clip130)" d="M1846.42 616.315 L1851.3 616.315 L1851.3 622.195 L1846.42 622.195 L1846.42 616.315 Z" fill="#000000" fill-rule="nonzero" fill-opacity="1" /><path clip-path="url(#clip130)" d="M1871.48 590.714 Q1867.87 590.714 1866.04 594.278 Q1864.24 597.82 1864.24 604.95 Q1864.24 612.056 1866.04 615.621 Q1867.87 619.162 1871.48 619.162 Q1875.12 619.162 1876.92 615.621 Q1878.75 612.056 1878.75 604.95 Q1878.75 597.82 1876.92 594.278 Q1875.12 590.714 1871.48 590.714 M1871.48 587.01 Q1877.29 587.01 1880.35 591.616 Q1883.43 596.2 1883.43 604.95 Q1883.43 613.676 1880.35 618.283 Q1877.29 622.866 1871.48 622.866 Q1865.67 622.866 1862.6 618.283 Q1859.54 613.676 1859.54 604.95 Q1859.54 596.2 1862.6 591.616 Q1865.67 587.01 1871.48 587.01 Z" fill="#000000" fill-rule="nonzero" fill-opacity="1" /><path clip-path="url(#clip130)" d="M2087.01 590.714 Q2083.4 590.714 2081.57 594.278 Q2079.76 597.82 2079.76 604.95 Q2079.76 612.056 2081.57 615.621 Q2083.4 619.162 2087.01 619.162 Q2090.64 619.162 2092.45 615.621 Q2094.28 612.056 2094.28 604.95 Q2094.28 597.82 2092.45 594.278 Q2090.64 590.714 2087.01 590.714 M2087.01 587.01 Q2092.82 587.01 2095.87 591.616 Q2098.95 596.2 2098.95 604.95 Q2098.95 613.676 2095.87 618.283 Q2092.82 622.866 2087.01 622.866 Q2081.2 622.866 2078.12 618.283 Q2075.06 613.676 2075.06 604.95 Q2075.06 596.2 2078.12 591.616 Q2081.2 587.01 2087.01 587.01 Z" fill="#000000" fill-rule="nonzero" fill-opacity="1" /><path clip-path="url(#clip130)" d="M2107.17 616.315 L2112.05 616.315 L2112.05 622.195 L2107.17 622.195 L2107.17 616.315 Z" fill="#000000" fill-rule="nonzero" fill-opacity="1" /><path clip-path="url(#clip130)" d="M2122.29 587.635 L2140.64 587.635 L2140.64 591.57 L2126.57 591.57 L2126.57 600.042 Q2127.59 599.695 2128.6 599.533 Q2129.62 599.348 2130.64 599.348 Q2136.43 599.348 2139.81 602.519 Q2143.19 605.69 2143.19 611.107 Q2143.19 616.686 2139.72 619.787 Q2136.24 622.866 2129.92 622.866 Q2127.75 622.866 2125.48 622.496 Q2123.23 622.125 2120.83 621.385 L2120.83 616.686 Q2122.91 617.82 2125.13 618.375 Q2127.35 618.931 2129.83 618.931 Q2133.84 618.931 2136.17 616.825 Q2138.51 614.718 2138.51 611.107 Q2138.51 607.496 2136.17 605.389 Q2133.84 603.283 2129.83 603.283 Q2127.96 603.283 2126.08 603.7 Q2124.23 604.116 2122.29 604.996 L2122.29 587.635 Z" fill="#000000" fill-rule="nonzero" fill-opacity="1" /><path clip-path="url(#clip130)" d="M2336.54 618.26 L2344.17 618.26 L2344.17 591.894 L2335.86 593.561 L2335.86 589.302 L2344.13 587.635 L2348.8 587.635 L2348.8 618.26 L2356.44 618.26 L2356.44 622.195 L2336.54 622.195 L2336.54 618.26 Z" fill="#000000" fill-rule="nonzero" fill-opacity="1" /><path clip-path="url(#clip130)" d="M2365.89 616.315 L2370.77 616.315 L2370.77 622.195 L2365.89 622.195 L2365.89 616.315 Z" fill="#000000" fill-rule="nonzero" fill-opacity="1" /><path clip-path="url(#clip130)" d="M2390.96 590.714 Q2387.35 590.714 2385.52 594.278 Q2383.71 597.82 2383.71 604.95 Q2383.71 612.056 2385.52 615.621 Q2387.35 619.162 2390.96 619.162 Q2394.59 619.162 2396.4 615.621 Q2398.23 612.056 2398.23 604.95 Q2398.23 597.82 2396.4 594.278 Q2394.59 590.714 2390.96 590.714 M2390.96 587.01 Q2396.77 587.01 2399.82 591.616 Q2402.9 596.2 2402.9 604.95 Q2402.9 613.676 2399.82 618.283 Q2396.77 622.866 2390.96 622.866 Q2385.15 622.866 2382.07 618.283 Q2379.01 613.676 2379.01 604.95 Q2379.01 596.2 2382.07 591.616 Q2385.15 587.01 2390.96 587.01 Z" fill="#000000" fill-rule="nonzero" fill-opacity="1" /><path clip-path="url(#clip130)" d="M2597.29 618.26 L2604.93 618.26 L2604.93 591.894 L2596.62 593.561 L2596.62 589.302 L2604.88 587.635 L2609.56 587.635 L2609.56 618.26 L2617.2 618.26 L2617.2 622.195 L2597.29 622.195 L2597.29 618.26 Z" fill="#000000" fill-rule="nonzero" fill-opacity="1" /><path clip-path="url(#clip130)" d="M2626.64 616.315 L2631.53 616.315 L2631.53 622.195 L2626.64 622.195 L2626.64 616.315 Z" fill="#000000" fill-rule="nonzero" fill-opacity="1" /><path clip-path="url(#clip130)" d="M2641.76 587.635 L2660.11 587.635 L2660.11 591.57 L2646.04 591.57 L2646.04 600.042 Q2647.06 599.695 2648.08 599.533 Q2649.1 599.348 2650.11 599.348 Q2655.9 599.348 2659.28 602.519 Q2662.66 605.69 2662.66 611.107 Q2662.66 616.686 2659.19 619.787 Q2655.72 622.866 2649.4 622.866 Q2647.22 622.866 2644.95 622.496 Q2642.71 622.125 2640.3 621.385 L2640.3 616.686 Q2642.38 617.82 2644.6 618.375 Q2646.83 618.931 2649.3 618.931 Q2653.31 618.931 2655.65 616.825 Q2657.98 614.718 2657.98 611.107 Q2657.98 607.496 2655.65 605.389 Q2653.31 603.283 2649.3 603.283 Q2647.43 603.283 2645.55 603.7 Q2643.7 604.116 2641.76 604.996 L2641.76 587.635 Z" fill="#000000" fill-rule="nonzero" fill-opacity="1" /><path clip-path="url(#clip130)" d="M2861.14 618.26 L2877.45 618.26 L2877.45 622.195 L2855.51 622.195 L2855.51 618.26 Q2858.17 615.505 2862.76 610.875 Q2867.36 606.223 2868.54 604.88 Q2870.79 602.357 2871.67 600.621 Q2872.57 598.862 2872.57 597.172 Q2872.57 594.417 2870.63 592.681 Q2868.7 590.945 2865.6 590.945 Q2863.4 590.945 2860.95 591.709 Q2858.52 592.473 2855.74 594.024 L2855.74 589.302 Q2858.57 588.167 2861.02 587.589 Q2863.47 587.01 2865.51 587.01 Q2870.88 587.01 2874.07 589.695 Q2877.27 592.38 2877.27 596.871 Q2877.27 599.001 2876.46 600.922 Q2875.67 602.82 2873.57 605.413 Q2872.99 606.084 2869.89 609.301 Q2866.78 612.496 2861.14 618.26 Z" fill="#000000" fill-rule="nonzero" fill-opacity="1" /><path clip-path="url(#clip130)" d="M2887.27 616.315 L2892.15 616.315 L2892.15 622.195 L2887.27 622.195 L2887.27 616.315 Z" fill="#000000" fill-rule="nonzero" fill-opacity="1" /><path clip-path="url(#clip130)" d="M2912.34 590.714 Q2908.73 590.714 2906.9 594.278 Q2905.09 597.82 2905.09 604.95 Q2905.09 612.056 2906.9 615.621 Q2908.73 619.162 2912.34 619.162 Q2915.97 619.162 2917.78 615.621 Q2919.61 612.056 2919.61 604.95 Q2919.61 597.82 2917.78 594.278 Q2915.97 590.714 2912.34 590.714 M2912.34 587.01 Q2918.15 587.01 2921.2 591.616 Q2924.28 596.2 2924.28 604.95 Q2924.28 613.676 2921.2 618.283 Q2918.15 622.866 2912.34 622.866 Q2906.53 622.866 2903.45 618.283 Q2900.39 613.676 2900.39 604.95 Q2900.39 596.2 2903.45 591.616 Q2906.53 587.01 2912.34 587.01 Z" fill="#000000" fill-rule="nonzero" fill-opacity="1" /><path clip-path="url(#clip130)" d="M3121.89 618.26 L3138.21 618.26 L3138.21 622.195 L3116.26 622.195 L3116.26 618.26 Q3118.93 615.505 3123.51 610.875 Q3128.12 606.223 3129.3 604.88 Q3131.54 602.357 3132.42 600.621 Q3133.32 598.862 3133.32 597.172 Q3133.32 594.417 3131.38 592.681 Q3129.46 590.945 3126.36 590.945 Q3124.16 590.945 3121.7 591.709 Q3119.27 592.473 3116.5 594.024 L3116.5 589.302 Q3119.32 588.167 3121.77 587.589 Q3124.23 587.01 3126.26 587.01 Q3131.63 587.01 3134.83 589.695 Q3138.02 592.38 3138.02 596.871 Q3138.02 599.001 3137.21 600.922 Q3136.43 602.82 3134.32 605.413 Q3133.74 606.084 3130.64 609.301 Q3127.54 612.496 3121.89 618.26 Z" fill="#000000" fill-rule="nonzero" fill-opacity="1" /><path clip-path="url(#clip130)" d="M3148.02 616.315 L3152.91 616.315 L3152.91 622.195 L3148.02 622.195 L3148.02 616.315 Z" fill="#000000" fill-rule="nonzero" fill-opacity="1" /><path clip-path="url(#clip130)" d="M3163.14 587.635 L3181.5 587.635 L3181.5 591.57 L3167.42 591.57 L3167.42 600.042 Q3168.44 599.695 3169.46 599.533 Q3170.48 599.348 3171.5 599.348 Q3177.28 599.348 3180.66 602.519 Q3184.04 605.69 3184.04 611.107 Q3184.04 616.686 3180.57 619.787 Q3177.1 622.866 3170.78 622.866 Q3168.6 622.866 3166.33 622.496 Q3164.09 622.125 3161.68 621.385 L3161.68 616.686 Q3163.76 617.82 3165.99 618.375 Q3168.21 618.931 3170.69 618.931 Q3174.69 618.931 3177.03 616.825 Q3179.37 614.718 3179.37 611.107 Q3179.37 607.496 3177.03 605.389 Q3174.69 603.283 3170.69 603.283 Q3168.81 603.283 3166.94 603.7 Q3165.08 604.116 3163.14 604.996 L3163.14 587.635 Z" fill="#000000" fill-rule="nonzero" fill-opacity="1" /><path clip-path="url(#clip130)" d="M2509.29 674.123 Q2509.29 675.024 2508.87 675.25 Q2508.45 675.443 2507.29 675.443 L2501.11 675.443 L2496.21 694.895 Q2495.82 696.602 2495.82 698.052 Q2495.82 699.662 2496.31 700.37 Q2496.82 701.079 2497.89 701.079 Q2499.98 701.079 2502.23 699.179 Q2504.52 697.279 2506.45 692.641 Q2506.71 692.029 2506.84 691.9 Q2507 691.739 2507.42 691.739 Q2508.22 691.739 2508.22 692.383 Q2508.22 692.609 2507.77 693.639 Q2507.35 694.67 2506.42 696.184 Q2505.52 697.697 2504.33 699.114 Q2503.17 700.532 2501.4 701.562 Q2499.62 702.56 2497.72 702.56 Q2495.05 702.56 2493.34 700.854 Q2491.67 699.147 2491.67 696.474 Q2491.67 695.604 2492.35 692.834 Q2493.02 690.032 2496.69 675.443 L2490.86 675.443 Q2490.06 675.443 2489.74 675.411 Q2489.45 675.379 2489.22 675.218 Q2489.03 675.024 2489.03 674.638 Q2489.03 674.026 2489.29 673.768 Q2489.54 673.479 2489.87 673.446 Q2490.22 673.382 2491.03 673.382 L2497.21 673.382 L2499.79 662.915 Q2500.04 661.884 2500.69 661.305 Q2501.36 660.693 2501.75 660.628 Q2502.14 660.532 2502.43 660.532 Q2503.3 660.532 2503.81 661.015 Q2504.33 661.466 2504.33 662.303 Q2504.33 662.754 2501.62 673.382 L2507.42 673.382 Q2508.16 673.382 2508.45 673.414 Q2508.77 673.446 2509.03 673.607 Q2509.29 673.768 2509.29 674.123 Z" fill="#000000" fill-rule="nonzero" fill-opacity="1" /><polyline clip-path="url(#clip130)" style="stroke:#000000; stroke-linecap:round; stroke-linejoin:round; stroke-width:4; stroke-opacity:1; fill:none" points="1848.87,553.395 1848.87,47.2441 "/>
<polyline clip-path="url(#clip130)" style="stroke:#000000; stroke-linecap:round; stroke-linejoin:round; stroke-width:4; stroke-opacity:1; fill:none" points="1848.87,553.395 1867.77,553.395 "/>
<polyline clip-path="url(#clip130)" style="stroke:#000000; stroke-linecap:round; stroke-linejoin:round; stroke-width:4; stroke-opacity:1; fill:none" points="1848.87,426.857 1867.77,426.857 "/>
<polyline clip-path="url(#clip130)" style="stroke:#000000; stroke-linecap:round; stroke-linejoin:round; stroke-width:4; stroke-opacity:1; fill:none" points="1848.87,300.319 1867.77,300.319 "/>
<polyline clip-path="url(#clip130)" style="stroke:#000000; stroke-linecap:round; stroke-linejoin:round; stroke-width:4; stroke-opacity:1; fill:none" points="1848.87,173.782 1867.77,173.782 "/>
<polyline clip-path="url(#clip130)" style="stroke:#000000; stroke-linecap:round; stroke-linejoin:round; stroke-width:4; stroke-opacity:1; fill:none" points="1848.87,47.2441 1867.77,47.2441 "/>
<path clip-path="url(#clip130)" d="M1693.93 553.846 L1723.6 553.846 L1723.6 557.781 L1693.93 557.781 L1693.93 553.846 Z" fill="#000000" fill-rule="nonzero" fill-opacity="1" /><path clip-path="url(#clip130)" d="M1733.74 536.115 L1752.1 536.115 L1752.1 540.05 L1738.02 540.05 L1738.02 548.522 Q1739.04 548.175 1740.06 548.013 Q1741.08 547.828 1742.1 547.828 Q1747.88 547.828 1751.26 550.999 Q1754.64 554.17 1754.64 559.587 Q1754.64 565.166 1751.17 568.267 Q1747.7 571.346 1741.38 571.346 Q1739.2 571.346 1736.93 570.976 Q1734.69 570.605 1732.28 569.865 L1732.28 565.166 Q1734.36 566.3 1736.59 566.855 Q1738.81 567.411 1741.29 567.411 Q1745.29 567.411 1747.63 565.305 Q1749.97 563.198 1749.97 559.587 Q1749.97 555.976 1747.63 553.869 Q1745.29 551.763 1741.29 551.763 Q1739.41 551.763 1737.54 552.18 Q1735.68 552.596 1733.74 553.476 L1733.74 536.115 Z" fill="#000000" fill-rule="nonzero" fill-opacity="1" /><path clip-path="url(#clip130)" d="M1763.86 564.795 L1768.74 564.795 L1768.74 570.675 L1763.86 570.675 L1763.86 564.795 Z" fill="#000000" fill-rule="nonzero" fill-opacity="1" /><path clip-path="url(#clip130)" d="M1788.92 539.194 Q1785.31 539.194 1783.48 542.758 Q1781.68 546.3 1781.68 553.43 Q1781.68 560.536 1783.48 564.101 Q1785.31 567.642 1788.92 567.642 Q1792.56 567.642 1794.36 564.101 Q1796.19 560.536 1796.19 553.43 Q1796.19 546.3 1794.36 542.758 Q1792.56 539.194 1788.92 539.194 M1788.92 535.49 Q1794.73 535.49 1797.79 540.096 Q1800.87 544.68 1800.87 553.43 Q1800.87 562.156 1797.79 566.763 Q1794.73 571.346 1788.92 571.346 Q1783.11 571.346 1780.04 566.763 Q1776.98 562.156 1776.98 553.43 Q1776.98 544.68 1780.04 540.096 Q1783.11 535.49 1788.92 535.49 Z" fill="#000000" fill-rule="nonzero" fill-opacity="1" /><path clip-path="url(#clip130)" d="M1694.92 427.309 L1724.6 427.309 L1724.6 431.244 L1694.92 431.244 L1694.92 427.309 Z" fill="#000000" fill-rule="nonzero" fill-opacity="1" /><path clip-path="url(#clip130)" d="M1738.72 440.202 L1755.04 440.202 L1755.04 444.137 L1733.09 444.137 L1733.09 440.202 Q1735.75 437.447 1740.34 432.818 Q1744.94 428.165 1746.12 426.822 Q1748.37 424.299 1749.25 422.563 Q1750.15 420.804 1750.15 419.114 Q1750.15 416.36 1748.21 414.623 Q1746.29 412.887 1743.18 412.887 Q1740.99 412.887 1738.53 413.651 Q1736.1 414.415 1733.32 415.966 L1733.32 411.244 Q1736.15 410.11 1738.6 409.531 Q1741.05 408.952 1743.09 408.952 Q1748.46 408.952 1751.66 411.637 Q1754.85 414.323 1754.85 418.813 Q1754.85 420.943 1754.04 422.864 Q1753.25 424.762 1751.15 427.355 Q1750.57 428.026 1747.47 431.244 Q1744.36 434.438 1738.72 440.202 Z" fill="#000000" fill-rule="nonzero" fill-opacity="1" /><path clip-path="url(#clip130)" d="M1764.85 438.258 L1769.73 438.258 L1769.73 444.137 L1764.85 444.137 L1764.85 438.258 Z" fill="#000000" fill-rule="nonzero" fill-opacity="1" /><path clip-path="url(#clip130)" d="M1779.97 409.577 L1798.32 409.577 L1798.32 413.512 L1784.25 413.512 L1784.25 421.984 Q1785.27 421.637 1786.29 421.475 Q1787.3 421.29 1788.32 421.29 Q1794.11 421.29 1797.49 424.461 Q1800.87 427.633 1800.87 433.049 Q1800.87 438.628 1797.4 441.73 Q1793.92 444.808 1787.61 444.808 Q1785.43 444.808 1783.16 444.438 Q1780.92 444.068 1778.51 443.327 L1778.51 438.628 Q1780.59 439.762 1782.81 440.318 Q1785.04 440.873 1787.51 440.873 Q1791.52 440.873 1793.86 438.767 Q1796.19 436.66 1796.19 433.049 Q1796.19 429.438 1793.86 427.332 Q1791.52 425.225 1787.51 425.225 Q1785.64 425.225 1783.76 425.642 Q1781.91 426.059 1779.97 426.938 L1779.97 409.577 Z" fill="#000000" fill-rule="nonzero" fill-opacity="1" /><path clip-path="url(#clip130)" d="M1743.69 286.118 Q1740.08 286.118 1738.25 289.683 Q1736.45 293.225 1736.45 300.354 Q1736.45 307.461 1738.25 311.025 Q1740.08 314.567 1743.69 314.567 Q1747.33 314.567 1749.13 311.025 Q1750.96 307.461 1750.96 300.354 Q1750.96 293.225 1749.13 289.683 Q1747.33 286.118 1743.69 286.118 M1743.69 282.414 Q1749.5 282.414 1752.56 287.021 Q1755.64 291.604 1755.64 300.354 Q1755.64 309.081 1752.56 313.687 Q1749.5 318.271 1743.69 318.271 Q1737.88 318.271 1734.8 313.687 Q1731.75 309.081 1731.75 300.354 Q1731.75 291.604 1734.8 287.021 Q1737.88 282.414 1743.69 282.414 Z" fill="#000000" fill-rule="nonzero" fill-opacity="1" /><path clip-path="url(#clip130)" d="M1763.86 311.72 L1768.74 311.72 L1768.74 317.599 L1763.86 317.599 L1763.86 311.72 Z" fill="#000000" fill-rule="nonzero" fill-opacity="1" /><path clip-path="url(#clip130)" d="M1788.92 286.118 Q1785.31 286.118 1783.48 289.683 Q1781.68 293.225 1781.68 300.354 Q1781.68 307.461 1783.48 311.025 Q1785.31 314.567 1788.92 314.567 Q1792.56 314.567 1794.36 311.025 Q1796.19 307.461 1796.19 300.354 Q1796.19 293.225 1794.36 289.683 Q1792.56 286.118 1788.92 286.118 M1788.92 282.414 Q1794.73 282.414 1797.79 287.021 Q1800.87 291.604 1800.87 300.354 Q1800.87 309.081 1797.79 313.687 Q1794.73 318.271 1788.92 318.271 Q1783.11 318.271 1780.04 313.687 Q1776.98 309.081 1776.98 300.354 Q1776.98 291.604 1780.04 287.021 Q1783.11 282.414 1788.92 282.414 Z" fill="#000000" fill-rule="nonzero" fill-opacity="1" /><path clip-path="url(#clip130)" d="M1738.72 187.127 L1755.04 187.127 L1755.04 191.062 L1733.09 191.062 L1733.09 187.127 Q1735.75 184.372 1740.34 179.742 Q1744.94 175.09 1746.12 173.747 Q1748.37 171.224 1749.25 169.488 Q1750.15 167.729 1750.15 166.039 Q1750.15 163.284 1748.21 161.548 Q1746.29 159.812 1743.18 159.812 Q1740.99 159.812 1738.53 160.576 Q1736.1 161.34 1733.32 162.891 L1733.32 158.168 Q1736.15 157.034 1738.6 156.455 Q1741.05 155.877 1743.09 155.877 Q1748.46 155.877 1751.66 158.562 Q1754.85 161.247 1754.85 165.738 Q1754.85 167.867 1754.04 169.789 Q1753.25 171.687 1751.15 174.279 Q1750.57 174.951 1747.47 178.168 Q1744.36 181.363 1738.72 187.127 Z" fill="#000000" fill-rule="nonzero" fill-opacity="1" /><path clip-path="url(#clip130)" d="M1764.85 185.182 L1769.73 185.182 L1769.73 191.062 L1764.85 191.062 L1764.85 185.182 Z" fill="#000000" fill-rule="nonzero" fill-opacity="1" /><path clip-path="url(#clip130)" d="M1779.97 156.502 L1798.32 156.502 L1798.32 160.437 L1784.25 160.437 L1784.25 168.909 Q1785.27 168.562 1786.29 168.4 Q1787.3 168.215 1788.32 168.215 Q1794.11 168.215 1797.49 171.386 Q1800.87 174.557 1800.87 179.974 Q1800.87 185.553 1797.4 188.654 Q1793.92 191.733 1787.61 191.733 Q1785.43 191.733 1783.16 191.363 Q1780.92 190.992 1778.51 190.252 L1778.51 185.553 Q1780.59 186.687 1782.81 187.242 Q1785.04 187.798 1787.51 187.798 Q1791.52 187.798 1793.86 185.691 Q1796.19 183.585 1796.19 179.974 Q1796.19 176.363 1793.86 174.256 Q1791.52 172.15 1787.51 172.15 Q1785.64 172.15 1783.76 172.567 Q1781.91 172.983 1779.97 173.863 L1779.97 156.502 Z" fill="#000000" fill-rule="nonzero" fill-opacity="1" /><path clip-path="url(#clip130)" d="M1733.74 29.9641 L1752.1 29.9641 L1752.1 33.8993 L1738.02 33.8993 L1738.02 42.3714 Q1739.04 42.0242 1740.06 41.8622 Q1741.08 41.677 1742.1 41.677 Q1747.88 41.677 1751.26 44.8483 Q1754.64 48.0196 1754.64 53.4362 Q1754.64 59.0149 1751.17 62.1167 Q1747.7 65.1954 1741.38 65.1954 Q1739.2 65.1954 1736.93 64.825 Q1734.69 64.4547 1732.28 63.7139 L1732.28 59.0149 Q1734.36 60.1491 1736.59 60.7047 Q1738.81 61.2602 1741.29 61.2602 Q1745.29 61.2602 1747.63 59.1538 Q1749.97 57.0473 1749.97 53.4362 Q1749.97 49.8251 1747.63 47.7186 Q1745.29 45.6122 1741.29 45.6122 Q1739.41 45.6122 1737.54 46.0288 Q1735.68 46.4455 1733.74 47.3251 L1733.74 29.9641 Z" fill="#000000" fill-rule="nonzero" fill-opacity="1" /><path clip-path="url(#clip130)" d="M1763.86 58.6445 L1768.74 58.6445 L1768.74 64.5241 L1763.86 64.5241 L1763.86 58.6445 Z" fill="#000000" fill-rule="nonzero" fill-opacity="1" /><path clip-path="url(#clip130)" d="M1788.92 33.0428 Q1785.31 33.0428 1783.48 36.6076 Q1781.68 40.1492 1781.68 47.2788 Q1781.68 54.3853 1783.48 57.9501 Q1785.31 61.4917 1788.92 61.4917 Q1792.56 61.4917 1794.36 57.9501 Q1796.19 54.3853 1796.19 47.2788 Q1796.19 40.1492 1794.36 36.6076 Q1792.56 33.0428 1788.92 33.0428 M1788.92 29.3391 Q1794.73 29.3391 1797.79 33.9456 Q1800.87 38.5289 1800.87 47.2788 Q1800.87 56.0056 1797.79 60.6121 Q1794.73 65.1954 1788.92 65.1954 Q1783.11 65.1954 1780.04 60.6121 Q1776.98 56.0056 1776.98 47.2788 Q1776.98 38.5289 1780.04 33.9456 Q1783.11 29.3391 1788.92 29.3391 Z" fill="#000000" fill-rule="nonzero" fill-opacity="1" /><path clip-path="url(#clip130)" d="M1583.14 294.253 L1599.95 298.408 Q1601.01 298.697 1601.14 298.891 Q1601.27 299.052 1601.27 299.567 Q1601.27 300.565 1600.59 300.565 Q1600.53 300.565 1599.69 300.469 Q1598.82 300.372 1597.24 300.372 Q1591.42 300.372 1587.97 303.206 Q1584.52 306.008 1584.52 311 Q1584.52 315.316 1586.71 319.663 Q1588.9 323.979 1592.48 327.071 Q1595.18 329.39 1598.6 331.096 Q1602.01 332.771 1605.13 333.576 Q1608.26 334.349 1610.61 334.704 Q1612.96 335.058 1614.67 335.058 Q1617.15 335.058 1619.24 334.543 Q1621.33 333.995 1622.82 333.029 Q1624.27 332.063 1625.39 330.839 Q1626.49 329.583 1627.13 328.134 Q1627.78 326.652 1628.1 325.171 Q1628.39 323.689 1628.39 322.143 Q1628.39 315.928 1623.56 310.002 Q1619.6 305.3 1613.12 303.335 Q1612.48 303.174 1612.48 302.498 Q1612.48 301.693 1613.12 301.693 Q1613.25 301.693 1613.89 301.854 Q1614.51 302.015 1615.76 302.498 Q1616.99 302.981 1618.37 303.722 Q1619.76 304.462 1621.5 305.847 Q1623.23 307.232 1624.75 308.939 Q1627.26 311.837 1628.84 315.509 Q1630.42 319.18 1630.42 323.206 Q1630.42 328.23 1628.19 332.288 Q1625.97 336.346 1621.82 338.729 Q1617.66 341.08 1612.35 341.08 Q1606.75 341.08 1601.24 338.504 Q1595.73 335.927 1591.64 331.837 Q1587.55 327.747 1585.01 322.336 Q1582.46 316.926 1582.46 311.515 Q1582.46 309.454 1583.01 307.618 Q1583.56 305.783 1584.23 304.688 Q1584.91 303.56 1585.91 302.562 Q1586.87 301.564 1587.33 301.242 Q1587.78 300.887 1588.32 300.565 L1583.27 295.96 Q1582.46 295.155 1582.46 294.962 Q1582.46 294.575 1582.69 294.414 Q1582.91 294.253 1583.14 294.253 Z" fill="#000000" fill-rule="nonzero" fill-opacity="1" /><path clip-path="url(#clip130)" d="M1623.88 266.382 Q1624.2 266.382 1624.94 266.585 L1642.57 271.003 Q1646.49 271.973 1649.24 275.129 Q1651.99 278.263 1651.99 281.825 Q1651.99 283.966 1650.84 285.342 Q1649.72 286.717 1647.98 286.717 Q1646.45 286.717 1645.7 285.905 Q1644.98 285.094 1644.98 284.124 Q1644.98 283.809 1645.07 283.47 Q1645.16 283.132 1645.54 282.772 Q1645.93 282.411 1646.58 282.411 Q1647.64 282.411 1648.48 283.335 Q1648.86 283.786 1648.95 284.214 Q1649.04 284.62 1649.04 285.319 Q1649.67 285.048 1650.1 284.553 Q1650.53 284.057 1650.68 283.493 Q1650.86 282.929 1650.91 282.569 Q1650.98 282.185 1650.98 281.825 Q1650.98 278.939 1648.07 276.73 Q1647.19 276.076 1646.31 275.602 Q1645.45 275.107 1644.39 274.746 Q1643.36 274.385 1642.79 274.227 Q1642.23 274.047 1640.95 273.731 Q1643.04 275.828 1643.04 278.398 Q1643.04 279.48 1642.75 280.449 Q1642.46 281.396 1641.85 282.23 Q1641.22 283.065 1640.11 283.561 Q1639.01 284.034 1637.54 284.034 Q1635.99 284.034 1633.87 283.425 Q1631.75 282.817 1627.85 281.351 Q1625.66 280.562 1624.6 280.562 Q1624.08 280.562 1623.77 280.675 Q1623.43 280.788 1623.32 281.013 Q1623.18 281.239 1623.16 281.374 Q1623.14 281.487 1623.14 281.712 Q1623.14 283.042 1624.49 284.282 Q1625.84 285.522 1628.86 286.379 Q1629.43 286.559 1629.56 286.672 Q1629.7 286.784 1629.7 287.123 Q1629.67 287.686 1629.22 287.686 Q1629.04 287.686 1628.34 287.483 Q1627.62 287.28 1626.56 286.807 Q1625.48 286.311 1624.51 285.635 Q1623.52 284.958 1622.82 283.899 Q1622.12 282.817 1622.12 281.577 Q1622.12 279.886 1623.23 278.849 Q1624.31 277.789 1625.91 277.789 Q1626.56 277.789 1627.15 277.97 Q1627.71 278.127 1629.22 278.714 Q1635.31 281.081 1638.29 281.081 Q1639.01 281.081 1639.62 280.968 Q1640.2 280.833 1640.79 280.54 Q1641.35 280.247 1641.69 279.66 Q1642.01 279.052 1642.01 278.218 Q1642.01 277.158 1641.51 276.166 Q1640.99 275.152 1640.29 274.52 Q1639.59 273.867 1639.01 273.483 Q1638.4 273.078 1638.08 272.987 L1629.79 270.913 L1626.09 269.989 Q1624.08 269.561 1623.59 269.358 Q1623.11 269.087 1622.87 268.614 Q1622.62 268.14 1622.62 267.735 Q1622.62 267.171 1622.96 266.788 Q1623.29 266.382 1623.88 266.382 Z" fill="#000000" fill-rule="nonzero" fill-opacity="1" /><polyline clip-path="url(#clip133)" style="stroke:#009af9; stroke-linecap:round; stroke-linejoin:round; stroke-width:4; stroke-opacity:1; fill:none" points="1848.87,300.319 1852.77,388.159 1856.68,358.946 1860.58,227.844 1864.48,304.474 1868.39,191.818 1872.29,391.848 1876.2,339.526 1880.1,147.219 1884,246.56 1887.91,377.918 1891.81,299.164 1895.72,233.842 1899.62,248.937 1903.52,308.331 1907.43,331.646 1911.33,265.439 1915.23,251.626 1919.14,275.54 1923.04,385.506 1926.95,289.661 1930.85,426.399 1934.75,260.617 1938.66,256.516 1942.56,333.538 1946.47,408.03 1950.37,334.233 1954.27,472.097 1958.18,359.647 1962.08,202.983 1965.98,431.668 1969.89,323.917 1973.79,313.876 1977.7,266.156 1981.6,459.814 1985.5,338.504 1989.41,282.171 1993.31,485.9 1997.22,382.78 2001.12,379.559 2005.02,288.17 2008.93,398.846 2012.83,378.093 2016.73,389.79 2020.64,256.35 2024.54,218.514 2028.45,161.831 2032.35,303.171 2036.25,300.052 2040.16,403.291 2044.06,143.03 2047.97,451.098 2051.87,317.653 2055.77,117.36 2059.68,434.358 2063.58,413.81 2067.48,236.424 2071.39,231.087 2075.29,146.544 2079.2,253.998 2083.1,240.655 2087,382.535 2090.91,262.073 2094.81,263.94 2098.72,283.975 2102.62,163.358 2106.52,326.341 2110.43,324.249 2114.33,373.281 2118.23,249.898 2122.14,292.431 2126.04,297.083 2129.95,400.276 2133.85,202.136 2137.75,121.962 2141.66,187.745 2145.56,310.429 2149.47,436.575 2153.37,299.299 2157.27,377.782 2161.18,283.777 2165.08,183.643 2168.98,191.682 2172.89,217.262 2176.79,296.086 2180.7,310.963 2184.6,250.741 2188.5,185.084 2192.41,152.237 2196.31,316.241 2200.22,224.515 2204.12,256.014 2208.02,271.003 2211.93,407.023 2215.83,265.184 2219.74,66.5243 2223.64,428.554 2227.54,243.575 2231.45,234.108 2235.35,156.376 2239.25,275.193 2243.16,206.259 2247.06,280.228 2250.97,413.592 2254.87,324.74 2258.77,414.803 2262.68,368.756 2266.58,149.459 2270.49,339.724 2274.39,245.717 2278.29,367.085 2282.2,238.312 2286.1,382.353 2290,341.434 2293.91,295.387 2297.81,283.2 2301.72,144.757 2305.62,114.981 2309.52,264.181 2313.43,368.866 2317.33,333.105 2321.24,161.898 2325.14,263.073 2329.04,183.452 2332.95,354.863 2336.85,160.137 2340.75,409.314 2344.66,338.077 2348.56,285.155 2352.47,338.39 2356.37,315.957 2360.27,473.76 2364.18,281.574 2368.08,140.282 2371.99,313.444 2375.89,354.092 2379.79,323.46 2383.7,329.803 2387.6,423.287 2391.5,351.542 2395.41,214.975 2399.31,130.873 2403.22,181.167 2407.12,217.22 2411.02,255.953 2414.93,344.282 2418.83,290.125 2422.74,297.445 2426.64,302.459 2430.54,367.674 2434.45,319.652 2438.35,241.267 2442.25,302.46 2446.16,239.324 2450.06,215.567 2453.97,292.625 2457.87,252.364 2461.77,406.742 2465.68,370.285 2469.58,244.213 2473.49,418.799 2477.39,228.485 2481.29,227.979 2485.2,338.152 2489.1,239.828 2493,417.226 2496.91,269.58 2500.81,328.044 2504.72,403.101 2508.62,259.087 2512.52,321.151 2516.43,251.852 2520.33,345.241 2524.24,270.316 2528.14,265.529 2532.04,189.913 2535.95,203.539 2539.85,208.667 2543.75,319.464 2547.66,260.979 2551.56,351.756 2555.47,276.343 2559.37,184.514 2563.27,360.416 2567.18,467.868 2571.08,286.078 2574.99,184.521 2578.89,212.86 2582.79,313.316 2586.7,328.786 2590.6,131.482 2594.5,427.621 2598.41,434.685 2602.31,387.929 2606.22,393.346 2610.12,241.101 2614.02,414.69 2617.93,432.588 2621.83,214.989 2625.74,187.481 2629.64,447.949 2633.54,355.186 2637.45,332.527 2641.35,169.727 2645.26,302.315 2649.16,279.086 2653.06,473.46 2656.97,348.162 2660.87,417.507 2664.77,338.13 2668.68,167.923 2672.58,243.261 2676.49,214.494 2680.39,263.275 2684.29,278.986 2688.2,408.345 2692.1,306.715 2696.01,414.555 2699.91,259.955 2703.81,309.139 2707.72,405.684 2711.62,167.901 2715.52,269.228 2719.43,182.971 2723.33,188.937 2727.24,157.478 2731.14,267.373 2735.04,200.065 2738.95,541.17 2742.85,211.063 2746.76,427.123 2750.66,413.269 2754.56,279.43 2758.47,327.342 2762.37,144.451 2766.27,241.529 2770.18,279.961 2774.08,304.141 2777.99,21.4998 2781.89,257.166 2785.79,308.986 2789.7,231.288 2793.6,224.697 2797.51,285.651 2801.41,275.901 2805.31,336.514 2809.22,292.873 2813.12,342.179 2817.02,5.14075 2820.93,309.339 2824.83,233.458 2828.74,470.032 2832.64,276.549 2836.54,249.312 2840.45,277.459 2844.35,163.728 2848.26,383.187 2852.16,281.679 2856.06,297.799 2859.97,336.462 2863.87,242.757 2867.77,280.6 2871.68,344.617 2875.58,426.821 2879.49,487.556 2883.39,252.409 2887.29,411.953 2891.2,107.94 2895.1,266.176 2899.01,331.331 2902.91,248.634 2906.81,425.803 2910.72,276.722 2914.62,239.945 2918.52,250.306 2922.43,326.834 2926.33,362.791 2930.24,225.484 2934.14,355.957 2938.04,404.668 2941.95,394.199 2945.85,200.91 2949.76,192.997 2953.66,345.842 2957.56,418.831 2961.47,323.597 2965.37,276.74 2969.27,117.05 2973.18,288.883 2977.08,273.219 2980.99,318.461 2984.89,245.797 2988.79,203.353 2992.7,429.217 2996.6,284.438 3000.51,344.376 3004.41,468.395 3008.31,200.1 3012.22,203.753 3016.12,286.262 3020.02,116.988 3023.93,429.785 3027.83,397.82 3031.74,235.828 3035.64,229.765 3039.54,304.761 3043.45,298.875 3047.35,337.343 3051.26,224.407 3055.16,173.241 3059.06,219.18 3062.97,361.932 3066.87,293.017 3070.77,206.586 3074.68,317.568 3078.58,88.1073 3082.49,119.62 3086.39,76.5931 3090.29,351.844 3094.2,388.118 3098.1,165.236 3102.01,202.465 3105.91,304.367 3109.81,203.25 3113.72,351.173 3117.62,257.521 3121.53,359.279 3125.43,251.623 3129.33,232.885 3133.24,353.064 3137.14,437.322 3141.04,211.042 3144.95,235.678 3148.85,306.3 3152.76,192.894 "/>
<path clip-path="url(#clip130)" d="M248.869 1253.39 L1552.76 1253.39 L1552.76 747.244 L248.869 747.244  Z" fill="#ffffff" fill-rule="evenodd" fill-opacity="1"/>
<defs>
  <clipPath id="clip134">
    <rect x="248" y="747" width="1305" height="507"/>
  </clipPath>
</defs>
<polyline clip-path="url(#clip134)" style="stroke:#000000; stroke-linecap:round; stroke-linejoin:round; stroke-width:2; stroke-opacity:0.1; fill:none" points="248.869,1253.39 248.869,747.244 "/>
<polyline clip-path="url(#clip134)" style="stroke:#000000; stroke-linecap:round; stroke-linejoin:round; stroke-width:2; stroke-opacity:0.1; fill:none" points="509.126,1253.39 509.126,747.244 "/>
<polyline clip-path="url(#clip134)" style="stroke:#000000; stroke-linecap:round; stroke-linejoin:round; stroke-width:2; stroke-opacity:0.1; fill:none" points="769.383,1253.39 769.383,747.244 "/>
<polyline clip-path="url(#clip134)" style="stroke:#000000; stroke-linecap:round; stroke-linejoin:round; stroke-width:2; stroke-opacity:0.1; fill:none" points="1029.64,1253.39 1029.64,747.244 "/>
<polyline clip-path="url(#clip134)" style="stroke:#000000; stroke-linecap:round; stroke-linejoin:round; stroke-width:2; stroke-opacity:0.1; fill:none" points="1289.9,1253.39 1289.9,747.244 "/>
<polyline clip-path="url(#clip134)" style="stroke:#000000; stroke-linecap:round; stroke-linejoin:round; stroke-width:2; stroke-opacity:0.1; fill:none" points="1550.15,1253.39 1550.15,747.244 "/>
<polyline clip-path="url(#clip134)" style="stroke:#000000; stroke-linecap:round; stroke-linejoin:round; stroke-width:2; stroke-opacity:0.1; fill:none" points="248.869,1253.39 1552.76,1253.39 "/>
<polyline clip-path="url(#clip134)" style="stroke:#000000; stroke-linecap:round; stroke-linejoin:round; stroke-width:2; stroke-opacity:0.1; fill:none" points="248.869,1126.86 1552.76,1126.86 "/>
<polyline clip-path="url(#clip134)" style="stroke:#000000; stroke-linecap:round; stroke-linejoin:round; stroke-width:2; stroke-opacity:0.1; fill:none" points="248.869,1000.32 1552.76,1000.32 "/>
<polyline clip-path="url(#clip134)" style="stroke:#000000; stroke-linecap:round; stroke-linejoin:round; stroke-width:2; stroke-opacity:0.1; fill:none" points="248.869,873.782 1552.76,873.782 "/>
<polyline clip-path="url(#clip134)" style="stroke:#000000; stroke-linecap:round; stroke-linejoin:round; stroke-width:2; stroke-opacity:0.1; fill:none" points="248.869,747.244 1552.76,747.244 "/>
<polyline clip-path="url(#clip130)" style="stroke:#000000; stroke-linecap:round; stroke-linejoin:round; stroke-width:4; stroke-opacity:1; fill:none" points="248.869,1253.39 1552.76,1253.39 "/>
<polyline clip-path="url(#clip130)" style="stroke:#000000; stroke-linecap:round; stroke-linejoin:round; stroke-width:4; stroke-opacity:1; fill:none" points="248.869,1253.39 248.869,1234.5 "/>
<polyline clip-path="url(#clip130)" style="stroke:#000000; stroke-linecap:round; stroke-linejoin:round; stroke-width:4; stroke-opacity:1; fill:none" points="509.126,1253.39 509.126,1234.5 "/>
<polyline clip-path="url(#clip130)" style="stroke:#000000; stroke-linecap:round; stroke-linejoin:round; stroke-width:4; stroke-opacity:1; fill:none" points="769.383,1253.39 769.383,1234.5 "/>
<polyline clip-path="url(#clip130)" style="stroke:#000000; stroke-linecap:round; stroke-linejoin:round; stroke-width:4; stroke-opacity:1; fill:none" points="1029.64,1253.39 1029.64,1234.5 "/>
<polyline clip-path="url(#clip130)" style="stroke:#000000; stroke-linecap:round; stroke-linejoin:round; stroke-width:4; stroke-opacity:1; fill:none" points="1289.9,1253.39 1289.9,1234.5 "/>
<polyline clip-path="url(#clip130)" style="stroke:#000000; stroke-linecap:round; stroke-linejoin:round; stroke-width:4; stroke-opacity:1; fill:none" points="1550.15,1253.39 1550.15,1234.5 "/>
<path clip-path="url(#clip130)" d="M226.253 1290.71 Q222.642 1290.71 220.814 1294.28 Q219.008 1297.82 219.008 1304.95 Q219.008 1312.06 220.814 1315.62 Q222.642 1319.16 226.253 1319.16 Q229.888 1319.16 231.693 1315.62 Q233.522 1312.06 233.522 1304.95 Q233.522 1297.82 231.693 1294.28 Q229.888 1290.71 226.253 1290.71 M226.253 1287.01 Q232.064 1287.01 235.119 1291.62 Q238.198 1296.2 238.198 1304.95 Q238.198 1313.68 235.119 1318.28 Q232.064 1322.87 226.253 1322.87 Q220.443 1322.87 217.365 1318.28 Q214.309 1313.68 214.309 1304.95 Q214.309 1296.2 217.365 1291.62 Q220.443 1287.01 226.253 1287.01 Z" fill="#000000" fill-rule="nonzero" fill-opacity="1" /><path clip-path="url(#clip130)" d="M246.415 1316.32 L251.3 1316.32 L251.3 1322.19 L246.415 1322.19 L246.415 1316.32 Z" fill="#000000" fill-rule="nonzero" fill-opacity="1" /><path clip-path="url(#clip130)" d="M271.485 1290.71 Q267.874 1290.71 266.045 1294.28 Q264.239 1297.82 264.239 1304.95 Q264.239 1312.06 266.045 1315.62 Q267.874 1319.16 271.485 1319.16 Q275.119 1319.16 276.924 1315.62 Q278.753 1312.06 278.753 1304.95 Q278.753 1297.82 276.924 1294.28 Q275.119 1290.71 271.485 1290.71 M271.485 1287.01 Q277.295 1287.01 280.35 1291.62 Q283.429 1296.2 283.429 1304.95 Q283.429 1313.68 280.35 1318.28 Q277.295 1322.87 271.485 1322.87 Q265.674 1322.87 262.596 1318.28 Q259.54 1313.68 259.54 1304.95 Q259.54 1296.2 262.596 1291.62 Q265.674 1287.01 271.485 1287.01 Z" fill="#000000" fill-rule="nonzero" fill-opacity="1" /><path clip-path="url(#clip130)" d="M487.008 1290.71 Q483.397 1290.71 481.568 1294.28 Q479.763 1297.82 479.763 1304.95 Q479.763 1312.06 481.568 1315.62 Q483.397 1319.16 487.008 1319.16 Q490.642 1319.16 492.448 1315.62 Q494.276 1312.06 494.276 1304.95 Q494.276 1297.82 492.448 1294.28 Q490.642 1290.71 487.008 1290.71 M487.008 1287.01 Q492.818 1287.01 495.874 1291.62 Q498.952 1296.2 498.952 1304.95 Q498.952 1313.68 495.874 1318.28 Q492.818 1322.87 487.008 1322.87 Q481.198 1322.87 478.119 1318.28 Q475.064 1313.68 475.064 1304.95 Q475.064 1296.2 478.119 1291.62 Q481.198 1287.01 487.008 1287.01 Z" fill="#000000" fill-rule="nonzero" fill-opacity="1" /><path clip-path="url(#clip130)" d="M507.17 1316.32 L512.054 1316.32 L512.054 1322.19 L507.17 1322.19 L507.17 1316.32 Z" fill="#000000" fill-rule="nonzero" fill-opacity="1" /><path clip-path="url(#clip130)" d="M522.286 1287.63 L540.642 1287.63 L540.642 1291.57 L526.568 1291.57 L526.568 1300.04 Q527.586 1299.69 528.605 1299.53 Q529.623 1299.35 530.642 1299.35 Q536.429 1299.35 539.809 1302.52 Q543.188 1305.69 543.188 1311.11 Q543.188 1316.69 539.716 1319.79 Q536.244 1322.87 529.924 1322.87 Q527.748 1322.87 525.48 1322.5 Q523.235 1322.13 520.827 1321.38 L520.827 1316.69 Q522.911 1317.82 525.133 1318.38 Q527.355 1318.93 529.832 1318.93 Q533.836 1318.93 536.174 1316.82 Q538.512 1314.72 538.512 1311.11 Q538.512 1307.5 536.174 1305.39 Q533.836 1303.28 529.832 1303.28 Q527.957 1303.28 526.082 1303.7 Q524.23 1304.12 522.286 1305 L522.286 1287.63 Z" fill="#000000" fill-rule="nonzero" fill-opacity="1" /><path clip-path="url(#clip130)" d="M736.536 1318.26 L744.175 1318.26 L744.175 1291.89 L735.864 1293.56 L735.864 1289.3 L744.128 1287.63 L748.804 1287.63 L748.804 1318.26 L756.443 1318.26 L756.443 1322.19 L736.536 1322.19 L736.536 1318.26 Z" fill="#000000" fill-rule="nonzero" fill-opacity="1" /><path clip-path="url(#clip130)" d="M765.887 1316.32 L770.772 1316.32 L770.772 1322.19 L765.887 1322.19 L765.887 1316.32 Z" fill="#000000" fill-rule="nonzero" fill-opacity="1" /><path clip-path="url(#clip130)" d="M790.957 1290.71 Q787.346 1290.71 785.517 1294.28 Q783.711 1297.82 783.711 1304.95 Q783.711 1312.06 785.517 1315.62 Q787.346 1319.16 790.957 1319.16 Q794.591 1319.16 796.396 1315.62 Q798.225 1312.06 798.225 1304.95 Q798.225 1297.82 796.396 1294.28 Q794.591 1290.71 790.957 1290.71 M790.957 1287.01 Q796.767 1287.01 799.822 1291.62 Q802.901 1296.2 802.901 1304.95 Q802.901 1313.68 799.822 1318.28 Q796.767 1322.87 790.957 1322.87 Q785.147 1322.87 782.068 1318.28 Q779.012 1313.68 779.012 1304.95 Q779.012 1296.2 782.068 1291.62 Q785.147 1287.01 790.957 1287.01 Z" fill="#000000" fill-rule="nonzero" fill-opacity="1" /><path clip-path="url(#clip130)" d="M997.29 1318.26 L1004.93 1318.26 L1004.93 1291.89 L996.619 1293.56 L996.619 1289.3 L1004.88 1287.63 L1009.56 1287.63 L1009.56 1318.26 L1017.2 1318.26 L1017.2 1322.19 L997.29 1322.19 L997.29 1318.26 Z" fill="#000000" fill-rule="nonzero" fill-opacity="1" /><path clip-path="url(#clip130)" d="M1026.64 1316.32 L1031.53 1316.32 L1031.53 1322.19 L1026.64 1322.19 L1026.64 1316.32 Z" fill="#000000" fill-rule="nonzero" fill-opacity="1" /><path clip-path="url(#clip130)" d="M1041.76 1287.63 L1060.11 1287.63 L1060.11 1291.57 L1046.04 1291.57 L1046.04 1300.04 Q1047.06 1299.69 1048.08 1299.53 Q1049.1 1299.35 1050.11 1299.35 Q1055.9 1299.35 1059.28 1302.52 Q1062.66 1305.69 1062.66 1311.11 Q1062.66 1316.69 1059.19 1319.79 Q1055.72 1322.87 1049.4 1322.87 Q1047.22 1322.87 1044.95 1322.5 Q1042.71 1322.13 1040.3 1321.38 L1040.3 1316.69 Q1042.38 1317.82 1044.6 1318.38 Q1046.83 1318.93 1049.3 1318.93 Q1053.31 1318.93 1055.65 1316.82 Q1057.98 1314.72 1057.98 1311.11 Q1057.98 1307.5 1055.65 1305.39 Q1053.31 1303.28 1049.3 1303.28 Q1047.43 1303.28 1045.55 1303.7 Q1043.7 1304.12 1041.76 1305 L1041.76 1287.63 Z" fill="#000000" fill-rule="nonzero" fill-opacity="1" /><path clip-path="url(#clip130)" d="M1261.14 1318.26 L1277.45 1318.26 L1277.45 1322.19 L1255.51 1322.19 L1255.51 1318.26 Q1258.17 1315.51 1262.76 1310.88 Q1267.36 1306.22 1268.54 1304.88 Q1270.79 1302.36 1271.67 1300.62 Q1272.57 1298.86 1272.57 1297.17 Q1272.57 1294.42 1270.63 1292.68 Q1268.7 1290.95 1265.6 1290.95 Q1263.4 1290.95 1260.95 1291.71 Q1258.52 1292.47 1255.74 1294.02 L1255.74 1289.3 Q1258.57 1288.17 1261.02 1287.59 Q1263.47 1287.01 1265.51 1287.01 Q1270.88 1287.01 1274.07 1289.7 Q1277.27 1292.38 1277.27 1296.87 Q1277.27 1299 1276.46 1300.92 Q1275.67 1302.82 1273.57 1305.41 Q1272.99 1306.08 1269.89 1309.3 Q1266.78 1312.5 1261.14 1318.26 Z" fill="#000000" fill-rule="nonzero" fill-opacity="1" /><path clip-path="url(#clip130)" d="M1287.27 1316.32 L1292.15 1316.32 L1292.15 1322.19 L1287.27 1322.19 L1287.27 1316.32 Z" fill="#000000" fill-rule="nonzero" fill-opacity="1" /><path clip-path="url(#clip130)" d="M1312.34 1290.71 Q1308.73 1290.71 1306.9 1294.28 Q1305.09 1297.82 1305.09 1304.95 Q1305.09 1312.06 1306.9 1315.62 Q1308.73 1319.16 1312.34 1319.16 Q1315.97 1319.16 1317.78 1315.62 Q1319.61 1312.06 1319.61 1304.95 Q1319.61 1297.82 1317.78 1294.28 Q1315.97 1290.71 1312.34 1290.71 M1312.34 1287.01 Q1318.15 1287.01 1321.2 1291.62 Q1324.28 1296.2 1324.28 1304.95 Q1324.28 1313.68 1321.2 1318.28 Q1318.15 1322.87 1312.34 1322.87 Q1306.53 1322.87 1303.45 1318.28 Q1300.39 1313.68 1300.39 1304.95 Q1300.39 1296.2 1303.45 1291.62 Q1306.53 1287.01 1312.34 1287.01 Z" fill="#000000" fill-rule="nonzero" fill-opacity="1" /><path clip-path="url(#clip130)" d="M1521.89 1318.26 L1538.21 1318.26 L1538.21 1322.19 L1516.26 1322.19 L1516.26 1318.26 Q1518.93 1315.51 1523.51 1310.88 Q1528.12 1306.22 1529.3 1304.88 Q1531.54 1302.36 1532.42 1300.62 Q1533.32 1298.86 1533.32 1297.17 Q1533.32 1294.42 1531.38 1292.68 Q1529.46 1290.95 1526.36 1290.95 Q1524.16 1290.95 1521.7 1291.71 Q1519.27 1292.47 1516.5 1294.02 L1516.5 1289.3 Q1519.32 1288.17 1521.77 1287.59 Q1524.23 1287.01 1526.26 1287.01 Q1531.63 1287.01 1534.83 1289.7 Q1538.02 1292.38 1538.02 1296.87 Q1538.02 1299 1537.21 1300.92 Q1536.43 1302.82 1534.32 1305.41 Q1533.74 1306.08 1530.64 1309.3 Q1527.54 1312.5 1521.89 1318.26 Z" fill="#000000" fill-rule="nonzero" fill-opacity="1" /><path clip-path="url(#clip130)" d="M1548.02 1316.32 L1552.91 1316.32 L1552.91 1322.19 L1548.02 1322.19 L1548.02 1316.32 Z" fill="#000000" fill-rule="nonzero" fill-opacity="1" /><path clip-path="url(#clip130)" d="M1563.14 1287.63 L1581.5 1287.63 L1581.5 1291.57 L1567.42 1291.57 L1567.42 1300.04 Q1568.44 1299.69 1569.46 1299.53 Q1570.48 1299.35 1571.5 1299.35 Q1577.28 1299.35 1580.66 1302.52 Q1584.04 1305.69 1584.04 1311.11 Q1584.04 1316.69 1580.57 1319.79 Q1577.1 1322.87 1570.78 1322.87 Q1568.6 1322.87 1566.33 1322.5 Q1564.09 1322.13 1561.68 1321.38 L1561.68 1316.69 Q1563.76 1317.82 1565.99 1318.38 Q1568.21 1318.93 1570.69 1318.93 Q1574.69 1318.93 1577.03 1316.82 Q1579.37 1314.72 1579.37 1311.11 Q1579.37 1307.5 1577.03 1305.39 Q1574.69 1303.28 1570.69 1303.28 Q1568.81 1303.28 1566.94 1303.7 Q1565.08 1304.12 1563.14 1305 L1563.14 1287.63 Z" fill="#000000" fill-rule="nonzero" fill-opacity="1" /><path clip-path="url(#clip130)" d="M909.286 1374.12 Q909.286 1375.02 908.868 1375.25 Q908.449 1375.44 907.29 1375.44 L901.106 1375.44 L896.211 1394.9 Q895.824 1396.6 895.824 1398.05 Q895.824 1399.66 896.307 1400.37 Q896.823 1401.08 897.885 1401.08 Q899.979 1401.08 902.233 1399.18 Q904.52 1397.28 906.452 1392.64 Q906.71 1392.03 906.839 1391.9 Q907 1391.74 907.418 1391.74 Q908.223 1391.74 908.223 1392.38 Q908.223 1392.61 907.773 1393.64 Q907.354 1394.67 906.42 1396.18 Q905.518 1397.7 904.327 1399.11 Q903.167 1400.53 901.396 1401.56 Q899.625 1402.56 897.724 1402.56 Q895.051 1402.56 893.344 1400.85 Q891.67 1399.15 891.67 1396.47 Q891.67 1395.6 892.346 1392.83 Q893.022 1390.03 896.694 1375.44 L890.865 1375.44 Q890.059 1375.44 889.737 1375.41 Q889.447 1375.38 889.222 1375.22 Q889.029 1375.02 889.029 1374.64 Q889.029 1374.03 889.286 1373.77 Q889.544 1373.48 889.866 1373.45 Q890.22 1373.38 891.026 1373.38 L897.209 1373.38 L899.786 1362.92 Q900.043 1361.88 900.687 1361.3 Q901.364 1360.69 901.75 1360.63 Q902.137 1360.53 902.426 1360.53 Q903.296 1360.53 903.811 1361.01 Q904.327 1361.47 904.327 1362.3 Q904.327 1362.75 901.621 1373.38 L907.418 1373.38 Q908.159 1373.38 908.449 1373.41 Q908.771 1373.45 909.029 1373.61 Q909.286 1373.77 909.286 1374.12 Z" fill="#000000" fill-rule="nonzero" fill-opacity="1" /><polyline clip-path="url(#clip130)" style="stroke:#000000; stroke-linecap:round; stroke-linejoin:round; stroke-width:4; stroke-opacity:1; fill:none" points="248.869,1253.39 248.869,747.244 "/>
<polyline clip-path="url(#clip130)" style="stroke:#000000; stroke-linecap:round; stroke-linejoin:round; stroke-width:4; stroke-opacity:1; fill:none" points="248.869,1253.39 267.767,1253.39 "/>
<polyline clip-path="url(#clip130)" style="stroke:#000000; stroke-linecap:round; stroke-linejoin:round; stroke-width:4; stroke-opacity:1; fill:none" points="248.869,1126.86 267.767,1126.86 "/>
<polyline clip-path="url(#clip130)" style="stroke:#000000; stroke-linecap:round; stroke-linejoin:round; stroke-width:4; stroke-opacity:1; fill:none" points="248.869,1000.32 267.767,1000.32 "/>
<polyline clip-path="url(#clip130)" style="stroke:#000000; stroke-linecap:round; stroke-linejoin:round; stroke-width:4; stroke-opacity:1; fill:none" points="248.869,873.782 267.767,873.782 "/>
<polyline clip-path="url(#clip130)" style="stroke:#000000; stroke-linecap:round; stroke-linejoin:round; stroke-width:4; stroke-opacity:1; fill:none" points="248.869,747.244 267.767,747.244 "/>
<path clip-path="url(#clip130)" d="M140.754 1253.85 L170.429 1253.85 L170.429 1257.78 L140.754 1257.78 L140.754 1253.85 Z" fill="#000000" fill-rule="nonzero" fill-opacity="1" /><path clip-path="url(#clip130)" d="M184.55 1266.74 L200.869 1266.74 L200.869 1270.67 L178.925 1270.67 L178.925 1266.74 Q181.587 1263.99 186.17 1259.36 Q190.776 1254.7 191.957 1253.36 Q194.202 1250.84 195.082 1249.1 Q195.985 1247.34 195.985 1245.65 Q195.985 1242.9 194.04 1241.16 Q192.119 1239.43 189.017 1239.43 Q186.818 1239.43 184.364 1240.19 Q181.934 1240.95 179.156 1242.5 L179.156 1237.78 Q181.98 1236.65 184.434 1236.07 Q186.888 1235.49 188.925 1235.49 Q194.295 1235.49 197.489 1238.18 Q200.684 1240.86 200.684 1245.35 Q200.684 1247.48 199.874 1249.4 Q199.087 1251.3 196.98 1253.89 Q196.401 1254.56 193.3 1257.78 Q190.198 1260.98 184.55 1266.74 Z" fill="#000000" fill-rule="nonzero" fill-opacity="1" /><path clip-path="url(#clip130)" d="M140.383 1127.31 L170.059 1127.31 L170.059 1131.24 L140.383 1131.24 L140.383 1127.31 Z" fill="#000000" fill-rule="nonzero" fill-opacity="1" /><path clip-path="url(#clip130)" d="M180.962 1140.2 L188.601 1140.2 L188.601 1113.84 L180.29 1115.5 L180.29 1111.24 L188.554 1109.58 L193.23 1109.58 L193.23 1140.2 L200.869 1140.2 L200.869 1144.14 L180.962 1144.14 L180.962 1140.2 Z" fill="#000000" fill-rule="nonzero" fill-opacity="1" /><path clip-path="url(#clip130)" d="M188.925 986.118 Q185.314 986.118 183.485 989.683 Q181.679 993.225 181.679 1000.35 Q181.679 1007.46 183.485 1011.03 Q185.314 1014.57 188.925 1014.57 Q192.559 1014.57 194.364 1011.03 Q196.193 1007.46 196.193 1000.35 Q196.193 993.225 194.364 989.683 Q192.559 986.118 188.925 986.118 M188.925 982.414 Q194.735 982.414 197.79 987.021 Q200.869 991.604 200.869 1000.35 Q200.869 1009.08 197.79 1013.69 Q194.735 1018.27 188.925 1018.27 Q183.114 1018.27 180.036 1013.69 Q176.98 1009.08 176.98 1000.35 Q176.98 991.604 180.036 987.021 Q183.114 982.414 188.925 982.414 Z" fill="#000000" fill-rule="nonzero" fill-opacity="1" /><path clip-path="url(#clip130)" d="M180.962 887.127 L188.601 887.127 L188.601 860.761 L180.29 862.428 L180.29 858.168 L188.554 856.502 L193.23 856.502 L193.23 887.127 L200.869 887.127 L200.869 891.062 L180.962 891.062 L180.962 887.127 Z" fill="#000000" fill-rule="nonzero" fill-opacity="1" /><path clip-path="url(#clip130)" d="M184.55 760.589 L200.869 760.589 L200.869 764.524 L178.925 764.524 L178.925 760.589 Q181.587 757.834 186.17 753.205 Q190.776 748.552 191.957 747.209 Q194.202 744.686 195.082 742.95 Q195.985 741.191 195.985 739.501 Q195.985 736.746 194.04 735.01 Q192.119 733.274 189.017 733.274 Q186.818 733.274 184.364 734.038 Q181.934 734.802 179.156 736.353 L179.156 731.631 Q181.98 730.496 184.434 729.918 Q186.888 729.339 188.925 729.339 Q194.295 729.339 197.489 732.024 Q200.684 734.709 200.684 739.2 Q200.684 741.33 199.874 743.251 Q199.087 745.149 196.98 747.742 Q196.401 748.413 193.3 751.631 Q190.198 754.825 184.55 760.589 Z" fill="#000000" fill-rule="nonzero" fill-opacity="1" /><path clip-path="url(#clip130)" d="M34.0298 1002.43 L50.8413 1006.59 Q51.9041 1006.88 52.0329 1007.07 Q52.1617 1007.23 52.1617 1007.75 Q52.1617 1008.75 51.4854 1008.75 Q51.421 1008.75 50.5836 1008.65 Q49.7141 1008.55 48.136 1008.55 Q42.3067 1008.55 38.8607 1011.39 Q35.4147 1014.19 35.4147 1019.18 Q35.4147 1023.5 37.6047 1027.84 Q39.7947 1032.16 43.3695 1035.25 Q46.0748 1037.57 49.4886 1039.28 Q52.9024 1040.95 56.0264 1041.76 Q59.1504 1042.53 61.5014 1042.88 Q63.8524 1043.24 65.5593 1043.24 Q68.0392 1043.24 70.1326 1042.72 Q72.226 1042.18 73.7074 1041.21 Q75.1567 1040.24 76.2839 1039.02 Q77.3789 1037.76 78.023 1036.31 Q78.6671 1034.83 78.9892 1033.35 Q79.279 1031.87 79.279 1030.32 Q79.279 1024.11 74.4482 1018.18 Q70.4868 1013.48 64.0135 1011.52 Q63.3693 1011.36 63.3693 1010.68 Q63.3693 1009.87 64.0135 1009.87 Q64.1423 1009.87 64.7864 1010.03 Q65.3983 1010.2 66.6543 1010.68 Q67.8782 1011.16 69.263 1011.9 Q70.6479 1012.64 72.387 1014.03 Q74.1261 1015.41 75.6398 1017.12 Q78.1518 1020.02 79.7299 1023.69 Q81.308 1027.36 81.308 1031.39 Q81.308 1036.41 79.0858 1040.47 Q76.8636 1044.53 72.709 1046.91 Q68.5545 1049.26 63.2405 1049.26 Q57.6367 1049.26 52.1295 1046.69 Q46.6223 1044.11 42.5321 1040.02 Q38.442 1035.93 35.8977 1030.52 Q33.3535 1025.11 33.3535 1019.7 Q33.3535 1017.64 33.901 1015.8 Q34.4485 1013.96 35.1248 1012.87 Q35.8011 1011.74 36.7995 1010.74 Q37.7657 1009.74 38.2166 1009.42 Q38.6674 1009.07 39.2149 1008.75 L34.1586 1004.14 Q33.3535 1003.34 33.3535 1003.14 Q33.3535 1002.76 33.5789 1002.6 Q33.8044 1002.43 34.0298 1002.43 Z" fill="#000000" fill-rule="nonzero" fill-opacity="1" /><path clip-path="url(#clip130)" d="M86.8096 958.038 Q86.9899 958.038 87.6888 958.241 Q88.3877 958.444 89.4698 958.94 Q90.5519 959.414 91.5438 960.09 Q92.5132 960.744 93.2346 961.826 Q93.9335 962.885 93.9335 964.103 Q93.9335 965.726 92.8514 966.808 Q91.7693 967.89 90.1461 967.89 Q89.2669 967.89 87.5986 967.281 Q79.9787 964.418 77.2509 964.418 Q74.0271 964.418 74.0271 966.921 Q74.0271 968.341 74.6132 969.626 Q75.1994 970.911 76.0109 971.745 Q76.8225 972.579 77.7468 973.233 Q78.6711 973.887 79.2798 974.18 Q79.8885 974.45 80.1591 974.518 L91.2958 977.291 Q92.2427 977.516 92.6936 977.674 Q93.1445 977.832 93.5277 978.26 Q93.9335 978.689 93.9335 979.365 Q93.9335 979.929 93.5953 980.334 Q93.2572 980.718 92.671 980.718 Q92.5809 980.718 92.1074 980.605 Q91.634 980.492 90.9802 980.334 Q90.3264 980.177 89.9432 980.109 Q86.8772 979.297 86.4489 979.185 L81.0834 977.9 Q78.4232 977.201 77.2509 977.201 Q74.0271 977.201 74.0271 979.703 Q74.0271 980.943 74.5005 982.115 Q74.9514 983.265 75.5826 984.054 Q76.2138 984.843 77.0931 985.565 Q77.9497 986.264 78.5359 986.624 Q79.0995 986.962 79.6631 987.233 L81.9626 987.819 Q82.5938 987.954 85.0511 988.608 L89.2218 989.623 Q92.3329 990.344 92.6259 990.502 Q93.2572 990.727 93.5953 991.223 Q93.9335 991.719 93.9335 992.215 Q93.9335 992.779 93.5953 993.162 Q93.2572 993.545 92.671 993.545 Q92.5809 993.545 92.2427 993.478 Q91.9045 993.41 91.4311 993.297 Q90.9577 993.185 90.6872 993.14 L80.0238 990.457 Q78.085 989.961 77.4763 989.848 Q76.8451 989.713 76.1462 989.713 Q74.0271 989.713 74.0271 991.156 Q74.0271 992.328 75.4248 993.094 Q76.8225 993.861 79.5278 994.515 Q80.2718 994.718 80.4296 994.853 Q80.5874 994.966 80.5874 995.304 Q80.5649 995.867 80.114 995.867 Q80.0013 995.867 79.2798 995.687 Q78.5584 995.507 77.4763 995.169 Q76.3717 994.808 75.6502 994.425 Q75.1768 994.199 74.8612 993.996 Q74.5456 993.793 74.0496 993.388 Q73.5536 992.982 73.2831 992.373 Q73.0126 991.764 73.0126 991.02 Q73.0126 989.375 74.0722 988.157 Q75.1317 986.917 77.0254 986.76 Q73.0126 983.761 73.0126 979.568 Q73.0126 977.201 74.2074 975.781 Q75.3572 974.45 77.4763 974.293 Q73.0126 971.182 73.0126 966.763 Q73.0126 964.215 74.3427 962.84 Q75.6502 961.465 77.9497 961.465 Q79.1446 961.465 81.4215 962.074 Q83.6759 962.682 84.8031 963.088 Q85.9303 963.494 88.0946 964.283 Q90.1686 965.117 91.386 965.117 Q92.1751 965.117 92.5358 964.847 Q92.8965 964.576 92.8965 963.99 Q92.8965 963.088 92.378 962.299 Q91.8369 961.51 90.9577 960.947 Q90.0559 960.36 89.1542 959.977 Q88.2298 959.594 87.1928 959.301 Q86.6292 959.12 86.494 959.03 Q86.3587 958.918 86.3587 958.602 Q86.3587 958.038 86.8096 958.038 Z" fill="#000000" fill-rule="nonzero" fill-opacity="1" /><polyline clip-path="url(#clip134)" style="stroke:#009af9; stroke-linecap:round; stroke-linejoin:round; stroke-width:4; stroke-opacity:1; fill:none" points="248.869,1000.32 252.773,999.123 256.677,998.373 260.581,999.439 264.484,999.457 268.388,1000.93 272.292,999.72 276.196,999.185 280.1,1001.21 284.004,1001.92 287.908,1000.85 291.811,1000.8 295.715,1001.63 299.619,1002.25 303.523,1002.09 307.427,1001.62 311.331,1002 315.235,1002.56 319.138,1002.81 323.042,1001.68 326.946,1001.73 330.85,1000.14 334.754,1000.59 338.658,1001.15 342.561,1000.74 346.465,999.415 350.369,998.996 354.273,996.965 358.177,996.292 362.081,997.568 365.985,996.135 369.888,995.926 373.792,995.891 377.696,996.423 381.6,994.668 385.504,994.309 389.408,994.678 393.312,992.668 397.215,991.831 401.119,991.103 405.023,991.458 408.927,990.554 412.831,989.863 416.735,989.064 420.639,989.82 424.542,991.046 428.446,992.899 432.35,993.101 436.254,993.267 440.158,992.251 444.062,994.181 447.966,992.671 451.869,992.575 455.773,994.811 459.677,993.491 463.581,992.294 467.485,993.136 471.389,994.094 475.292,995.977 479.196,996.644 483.1,997.394 487.004,996.548 490.908,997.002 494.812,997.478 498.716,997.719 502.619,999.282 506.523,999.056 510.427,998.787 514.331,997.985 518.235,998.54 522.139,998.669 526.043,998.724 529.946,997.645 533.85,998.715 537.754,1000.72 541.658,1002.01 545.562,1001.89 549.466,1000.35 553.37,1000.29 557.273,999.431 561.177,999.579 565.081,1000.85 568.985,1002.05 572.889,1002.94 576.793,1002.96 580.697,1002.78 584.6,1003.25 588.504,1004.44 592.408,1005.98 596.312,1005.75 600.216,1006.44 604.12,1006.82 608.023,1007.01 611.927,1005.74 615.831,1005.96 619.735,1008.34 623.639,1006.92 627.543,1007.33 631.447,1007.92 635.35,1009.32 639.254,1009.47 643.158,1010.3 647.062,1010.36 650.966,1008.97 654.87,1008.5 658.774,1007.12 662.677,1006.22 666.581,1007.66 670.485,1007.17 674.389,1007.6 678.293,1006.78 682.197,1007.28 686.101,1006.32 690.004,1005.74 693.908,1005.68 697.812,1005.76 701.716,1007.29 705.62,1009.16 709.524,1009.47 713.428,1008.61 717.331,1008.09 721.235,1009.38 725.139,1009.67 729.043,1010.74 732.947,1010.05 736.851,1011.31 740.754,1010.05 744.658,1009.45 748.562,1009.43 752.466,1008.89 756.37,1008.57 760.274,1006.64 764.178,1006.64 768.081,1008.19 771.985,1007.99 775.889,1007.31 779.793,1006.93 783.697,1006.5 787.601,1005.13 791.505,1004.47 795.408,1005.25 799.312,1006.94 803.216,1008.12 807.12,1008.89 811.024,1009.25 814.928,1008.68 818.832,1008.63 822.735,1008.54 826.639,1008.39 830.543,1007.57 834.447,1007.23 838.351,1007.71 842.255,1007.6 846.159,1008.1 850.062,1008.86 853.966,1008.84 857.87,1009.2 861.774,1008.01 865.678,1007.13 869.582,1007.56 873.485,1006.27 877.389,1006.85 881.293,1007.5 885.197,1007.04 889.101,1007.52 893.005,1006.26 896.909,1006.42 900.812,1006.05 904.716,1004.92 908.62,1005.21 912.524,1004.93 916.428,1005.33 920.332,1004.82 924.236,1005.02 928.139,1005.31 932.043,1006.34 935.947,1007.26 939.851,1008.12 943.755,1007.85 947.659,1008.12 951.563,1007.5 955.466,1007.61 959.37,1008.66 963.274,1007.99 967.178,1006.17 971.082,1006.14 974.986,1007.2 978.89,1008.01 982.793,1007.8 986.697,1007.39 990.601,1008.94 994.505,1007.62 998.409,1006.12 1002.31,1005.09 1006.22,1004.04 1010.12,1004.51 1014.02,1003.32 1017.93,1001.9 1021.83,1002.63 1025.74,1003.73 1029.64,1002.25 1033.54,1001.59 1037.45,1001.21 1041.35,1002.45 1045.26,1002.43 1049.16,1002.59 1053.06,1000.84 1056.97,1000.26 1060.87,999.063 1064.77,998.631 1068.68,999.914 1072.58,1000.51 1076.49,1001.36 1080.39,1001.73 1084.29,1001.92 1088.2,1000.83 1092.1,1000.69 1096.01,999.542 1099.91,999.879 1103.81,999.794 1107.72,998.741 1111.62,999.994 1115.52,1000.34 1119.43,1001.49 1123.33,1002.6 1127.24,1004 1131.14,1004.33 1135.04,1005.26 1138.95,1002.87 1142.85,1003.59 1146.76,1002.33 1150.66,1001.13 1154.56,1001.25 1158.47,1000.96 1162.37,1002.44 1166.27,1003.03 1170.18,1003.2 1174.08,1003.12 1177.99,1005.79 1181.89,1006.25 1185.79,1006.09 1189.7,1006.67 1193.6,1007.35 1197.51,1007.42 1201.41,1007.56 1205.31,1007.1 1209.22,1007.05 1213.12,1006.54 1217.02,1009.3 1220.93,1009.21 1224.83,1009.72 1228.74,1007.96 1232.64,1007.99 1236.54,1008.38 1240.45,1008.49 1244.35,1009.7 1248.26,1008.81 1252.16,1008.82 1256.06,1008.71 1259.97,1008.23 1263.87,1008.64 1267.77,1008.72 1271.68,1008.16 1275.58,1006.78 1279.49,1004.78 1283.39,1005.07 1287.29,1003.9 1291.2,1005.64 1295.1,1005.94 1299.01,1005.55 1302.91,1005.94 1306.81,1004.63 1310.72,1004.72 1314.62,1005.22 1318.52,1005.63 1322.43,1005.3 1326.33,1004.58 1330.24,1005.19 1334.14,1004.59 1338.04,1003.47 1341.95,1002.44 1345.85,1003.29 1349.76,1004.3 1353.66,1003.82 1357.56,1002.58 1361.47,1002.24 1365.37,1002.4 1369.27,1004.12 1373.18,1004.23 1377.08,1004.42 1380.99,1004.18 1384.89,1004.62 1388.79,1005.5 1392.7,1004.21 1396.6,1004.23 1400.51,1003.74 1404.41,1002.02 1408.31,1002.86 1412.22,1003.78 1416.12,1003.88 1420.02,1005.59 1423.93,1004.33 1427.83,1003.26 1431.74,1003.78 1435.64,1004.41 1439.54,1004.33 1443.45,1004.26 1447.35,1003.83 1451.26,1004.48 1455.16,1005.66 1459.06,1006.42 1462.97,1005.76 1466.87,1005.72 1470.77,1006.54 1474.68,1006.32 1478.58,1008.26 1482.49,1009.98 1486.39,1012.09 1490.29,1011.54 1494.2,1010.52 1498.1,1011.64 1502.01,1012.49 1505.91,1012.33 1509.81,1013.1 1513.72,1012.48 1517.62,1012.7 1521.53,1011.97 1525.43,1012.25 1529.33,1012.75 1533.24,1012.09 1537.14,1010.57 1541.04,1011.21 1544.95,1011.71 1548.85,1011.51 1552.76,1012.37 "/>
</svg>
