<?xml version="1.0" encoding="utf-8"?>
<svg xmlns="http://www.w3.org/2000/svg" xmlns:xlink="http://www.w3.org/1999/xlink" width="600" height="400" viewBox="0 0 2400 1600">
<defs>
  <clipPath id="clip600">
    <rect x="0" y="0" width="2400" height="1600"/>
  </clipPath>
</defs>
<path clip-path="url(#clip600)" d="M0 1600 L2400 1600 L2400 0 L0 0  Z" fill="#ffffff" fill-rule="evenodd" fill-opacity="1"/>
<defs>
  <clipPath id="clip601">
    <rect x="480" y="0" width="1681" height="1600"/>
  </clipPath>
</defs>
<path clip-path="url(#clip600)" d="M793.543 1486.45 L1706.69 1486.45 L1706.69 123.472 L793.543 123.472  Z" fill="#ffffff" fill-rule="evenodd" fill-opacity="1"/>
<defs>
  <clipPath id="clip602">
    <rect x="793" y="123" width="914" height="1364"/>
  </clipPath>
</defs>
<polyline clip-path="url(#clip600)" style="stroke:#000000; stroke-linecap:round; stroke-linejoin:round; stroke-width:4; stroke-opacity:1; fill:none" points="793.543,1486.45 1706.69,1486.45 "/>
<polyline clip-path="url(#clip600)" style="stroke:#000000; stroke-linecap:round; stroke-linejoin:round; stroke-width:4; stroke-opacity:1; fill:none" points="793.543,123.472 1706.69,123.472 "/>
<polyline clip-path="url(#clip600)" style="stroke:#000000; stroke-linecap:round; stroke-linejoin:round; stroke-width:4; stroke-opacity:1; fill:none" points="800.29,1486.45 800.29,1467.55 "/>
<polyline clip-path="url(#clip600)" style="stroke:#000000; stroke-linecap:round; stroke-linejoin:round; stroke-width:4; stroke-opacity:1; fill:none" points="1025.2,1486.45 1025.2,1467.55 "/>
<polyline clip-path="url(#clip600)" style="stroke:#000000; stroke-linecap:round; stroke-linejoin:round; stroke-width:4; stroke-opacity:1; fill:none" points="1250.12,1486.45 1250.12,1467.55 "/>
<polyline clip-path="url(#clip600)" style="stroke:#000000; stroke-linecap:round; stroke-linejoin:round; stroke-width:4; stroke-opacity:1; fill:none" points="1475.03,1486.45 1475.03,1467.55 "/>
<polyline clip-path="url(#clip600)" style="stroke:#000000; stroke-linecap:round; stroke-linejoin:round; stroke-width:4; stroke-opacity:1; fill:none" points="1699.94,1486.45 1699.94,1467.55 "/>
<polyline clip-path="url(#clip600)" style="stroke:#000000; stroke-linecap:round; stroke-linejoin:round; stroke-width:4; stroke-opacity:1; fill:none" points="800.29,123.472 800.29,142.37 "/>
<polyline clip-path="url(#clip600)" style="stroke:#000000; stroke-linecap:round; stroke-linejoin:round; stroke-width:4; stroke-opacity:1; fill:none" points="1025.2,123.472 1025.2,142.37 "/>
<polyline clip-path="url(#clip600)" style="stroke:#000000; stroke-linecap:round; stroke-linejoin:round; stroke-width:4; stroke-opacity:1; fill:none" points="1250.12,123.472 1250.12,142.37 "/>
<polyline clip-path="url(#clip600)" style="stroke:#000000; stroke-linecap:round; stroke-linejoin:round; stroke-width:4; stroke-opacity:1; fill:none" points="1475.03,123.472 1475.03,142.37 "/>
<polyline clip-path="url(#clip600)" style="stroke:#000000; stroke-linecap:round; stroke-linejoin:round; stroke-width:4; stroke-opacity:1; fill:none" points="1699.94,123.472 1699.94,142.37 "/>
<path clip-path="url(#clip600)" d="M770.232 1532.02 L799.908 1532.02 L799.908 1535.95 L770.232 1535.95 L770.232 1532.02 Z" fill="#000000" fill-rule="nonzero" fill-opacity="1" /><path clip-path="url(#clip600)" d="M814.028 1544.91 L830.348 1544.91 L830.348 1548.85 L808.403 1548.85 L808.403 1544.91 Q811.065 1542.16 815.649 1537.53 Q820.255 1532.88 821.436 1531.53 Q823.681 1529.01 824.561 1527.27 Q825.463 1525.51 825.463 1523.82 Q825.463 1521.07 823.519 1519.33 Q821.598 1517.6 818.496 1517.6 Q816.297 1517.6 813.843 1518.36 Q811.413 1519.13 808.635 1520.68 L808.635 1515.95 Q811.459 1514.82 813.913 1514.24 Q816.366 1513.66 818.403 1513.66 Q823.774 1513.66 826.968 1516.35 Q830.162 1519.03 830.162 1523.52 Q830.162 1525.65 829.352 1527.57 Q828.565 1529.47 826.459 1532.07 Q825.88 1532.74 822.778 1535.95 Q819.676 1539.15 814.028 1544.91 Z" fill="#000000" fill-rule="nonzero" fill-opacity="1" /><path clip-path="url(#clip600)" d="M994.961 1532.02 L1024.64 1532.02 L1024.64 1535.95 L994.961 1535.95 L994.961 1532.02 Z" fill="#000000" fill-rule="nonzero" fill-opacity="1" /><path clip-path="url(#clip600)" d="M1035.54 1544.91 L1043.18 1544.91 L1043.18 1518.55 L1034.87 1520.21 L1034.87 1515.95 L1043.13 1514.29 L1047.81 1514.29 L1047.81 1544.91 L1055.45 1544.91 L1055.45 1548.85 L1035.54 1548.85 L1035.54 1544.91 Z" fill="#000000" fill-rule="nonzero" fill-opacity="1" /><path clip-path="url(#clip600)" d="M1250.12 1517.37 Q1246.51 1517.37 1244.68 1520.93 Q1242.87 1524.47 1242.87 1531.6 Q1242.87 1538.71 1244.68 1542.27 Q1246.51 1545.82 1250.12 1545.82 Q1253.75 1545.82 1255.56 1542.27 Q1257.39 1538.71 1257.39 1531.6 Q1257.39 1524.47 1255.56 1520.93 Q1253.75 1517.37 1250.12 1517.37 M1250.12 1513.66 Q1255.93 1513.66 1258.98 1518.27 Q1262.06 1522.85 1262.06 1531.6 Q1262.06 1540.33 1258.98 1544.94 Q1255.93 1549.52 1250.12 1549.52 Q1244.31 1549.52 1241.23 1544.94 Q1238.17 1540.33 1238.17 1531.6 Q1238.17 1522.85 1241.23 1518.27 Q1244.31 1513.66 1250.12 1513.66 Z" fill="#000000" fill-rule="nonzero" fill-opacity="1" /><path clip-path="url(#clip600)" d="M1465.41 1544.91 L1473.05 1544.91 L1473.05 1518.55 L1464.74 1520.21 L1464.74 1515.95 L1473 1514.29 L1477.68 1514.29 L1477.68 1544.91 L1485.32 1544.91 L1485.32 1548.85 L1465.41 1548.85 L1465.41 1544.91 Z" fill="#000000" fill-rule="nonzero" fill-opacity="1" /><path clip-path="url(#clip600)" d="M1694.6 1544.91 L1710.92 1544.91 L1710.92 1548.85 L1688.97 1548.85 L1688.97 1544.91 Q1691.63 1542.16 1696.22 1537.53 Q1700.82 1532.88 1702 1531.53 Q1704.25 1529.01 1705.13 1527.27 Q1706.03 1525.51 1706.03 1523.82 Q1706.03 1521.07 1704.09 1519.33 Q1702.17 1517.6 1699.06 1517.6 Q1696.87 1517.6 1694.41 1518.36 Q1691.98 1519.13 1689.2 1520.68 L1689.2 1515.95 Q1692.03 1514.82 1694.48 1514.24 Q1696.93 1513.66 1698.97 1513.66 Q1704.34 1513.66 1707.54 1516.35 Q1710.73 1519.03 1710.73 1523.52 Q1710.73 1525.65 1709.92 1527.57 Q1709.13 1529.47 1707.03 1532.07 Q1706.45 1532.74 1703.35 1535.95 Q1700.24 1539.15 1694.6 1544.91 Z" fill="#000000" fill-rule="nonzero" fill-opacity="1" /><polyline clip-path="url(#clip600)" style="stroke:#000000; stroke-linecap:round; stroke-linejoin:round; stroke-width:4; stroke-opacity:1; fill:none" points="793.543,1486.45 793.543,123.472 "/>
<polyline clip-path="url(#clip600)" style="stroke:#000000; stroke-linecap:round; stroke-linejoin:round; stroke-width:4; stroke-opacity:1; fill:none" points="1706.69,1486.45 1706.69,123.472 "/>
<polyline clip-path="url(#clip600)" style="stroke:#000000; stroke-linecap:round; stroke-linejoin:round; stroke-width:4; stroke-opacity:1; fill:none" points="793.543,1484.2 801.368,1484.2 "/>
<polyline clip-path="url(#clip600)" style="stroke:#000000; stroke-linecap:round; stroke-linejoin:round; stroke-width:4; stroke-opacity:1; fill:none" points="793.543,1259.29 801.368,1259.29 "/>
<polyline clip-path="url(#clip600)" style="stroke:#000000; stroke-linecap:round; stroke-linejoin:round; stroke-width:4; stroke-opacity:1; fill:none" points="793.543,1034.37 801.368,1034.37 "/>
<polyline clip-path="url(#clip600)" style="stroke:#000000; stroke-linecap:round; stroke-linejoin:round; stroke-width:4; stroke-opacity:1; fill:none" points="793.543,809.458 801.368,809.458 "/>
<polyline clip-path="url(#clip600)" style="stroke:#000000; stroke-linecap:round; stroke-linejoin:round; stroke-width:4; stroke-opacity:1; fill:none" points="793.543,584.545 801.368,584.545 "/>
<polyline clip-path="url(#clip600)" style="stroke:#000000; stroke-linecap:round; stroke-linejoin:round; stroke-width:4; stroke-opacity:1; fill:none" points="793.543,359.631 801.368,359.631 "/>
<polyline clip-path="url(#clip600)" style="stroke:#000000; stroke-linecap:round; stroke-linejoin:round; stroke-width:4; stroke-opacity:1; fill:none" points="793.543,134.718 801.368,134.718 "/>
<polyline clip-path="url(#clip600)" style="stroke:#000000; stroke-linecap:round; stroke-linejoin:round; stroke-width:4; stroke-opacity:1; fill:none" points="1706.69,1484.2 1698.87,1484.2 "/>
<polyline clip-path="url(#clip600)" style="stroke:#000000; stroke-linecap:round; stroke-linejoin:round; stroke-width:4; stroke-opacity:1; fill:none" points="1706.69,1259.29 1698.87,1259.29 "/>
<polyline clip-path="url(#clip600)" style="stroke:#000000; stroke-linecap:round; stroke-linejoin:round; stroke-width:4; stroke-opacity:1; fill:none" points="1706.69,1034.37 1698.87,1034.37 "/>
<polyline clip-path="url(#clip600)" style="stroke:#000000; stroke-linecap:round; stroke-linejoin:round; stroke-width:4; stroke-opacity:1; fill:none" points="1706.69,809.458 1698.87,809.458 "/>
<polyline clip-path="url(#clip600)" style="stroke:#000000; stroke-linecap:round; stroke-linejoin:round; stroke-width:4; stroke-opacity:1; fill:none" points="1706.69,584.545 1698.87,584.545 "/>
<polyline clip-path="url(#clip600)" style="stroke:#000000; stroke-linecap:round; stroke-linejoin:round; stroke-width:4; stroke-opacity:1; fill:none" points="1706.69,359.631 1698.87,359.631 "/>
<polyline clip-path="url(#clip600)" style="stroke:#000000; stroke-linecap:round; stroke-linejoin:round; stroke-width:4; stroke-opacity:1; fill:none" points="1706.69,134.718 1698.87,134.718 "/>
<path clip-path="url(#clip600)" d="M697.427 1484.65 L727.103 1484.65 L727.103 1488.59 L697.427 1488.59 L697.427 1484.65 Z" fill="#000000" fill-rule="nonzero" fill-opacity="1" /><path clip-path="url(#clip600)" d="M741.223 1497.54 L757.543 1497.54 L757.543 1501.48 L735.598 1501.48 L735.598 1497.54 Q738.26 1494.79 742.844 1490.16 Q747.45 1485.51 748.631 1484.16 Q750.876 1481.64 751.756 1479.9 Q752.658 1478.15 752.658 1476.46 Q752.658 1473.7 750.714 1471.97 Q748.793 1470.23 745.691 1470.23 Q743.492 1470.23 741.038 1470.99 Q738.607 1471.76 735.83 1473.31 L735.83 1468.59 Q738.654 1467.45 741.107 1466.87 Q743.561 1466.29 745.598 1466.29 Q750.968 1466.29 754.163 1468.98 Q757.357 1471.66 757.357 1476.15 Q757.357 1478.28 756.547 1480.21 Q755.76 1482.1 753.654 1484.7 Q753.075 1485.37 749.973 1488.59 Q746.871 1491.78 741.223 1497.54 Z" fill="#000000" fill-rule="nonzero" fill-opacity="1" /><path clip-path="url(#clip600)" d="M697.057 1259.74 L726.733 1259.74 L726.733 1263.67 L697.057 1263.67 L697.057 1259.74 Z" fill="#000000" fill-rule="nonzero" fill-opacity="1" /><path clip-path="url(#clip600)" d="M737.635 1272.63 L745.274 1272.63 L745.274 1246.26 L736.964 1247.93 L736.964 1243.67 L745.228 1242.01 L749.904 1242.01 L749.904 1272.63 L757.543 1272.63 L757.543 1276.57 L737.635 1276.57 L737.635 1272.63 Z" fill="#000000" fill-rule="nonzero" fill-opacity="1" /><path clip-path="url(#clip600)" d="M745.598 1020.17 Q741.987 1020.17 740.158 1023.74 Q738.353 1027.28 738.353 1034.41 Q738.353 1041.51 740.158 1045.08 Q741.987 1048.62 745.598 1048.62 Q749.232 1048.62 751.038 1045.08 Q752.867 1041.51 752.867 1034.41 Q752.867 1027.28 751.038 1023.74 Q749.232 1020.17 745.598 1020.17 M745.598 1016.47 Q751.408 1016.47 754.464 1021.07 Q757.543 1025.66 757.543 1034.41 Q757.543 1043.13 754.464 1047.74 Q751.408 1052.32 745.598 1052.32 Q739.788 1052.32 736.709 1047.74 Q733.654 1043.13 733.654 1034.41 Q733.654 1025.66 736.709 1021.07 Q739.788 1016.47 745.598 1016.47 Z" fill="#000000" fill-rule="nonzero" fill-opacity="1" /><path clip-path="url(#clip600)" d="M737.635 822.803 L745.274 822.803 L745.274 796.438 L736.964 798.104 L736.964 793.845 L745.228 792.178 L749.904 792.178 L749.904 822.803 L757.543 822.803 L757.543 826.738 L737.635 826.738 L737.635 822.803 Z" fill="#000000" fill-rule="nonzero" fill-opacity="1" /><path clip-path="url(#clip600)" d="M741.223 597.89 L757.543 597.89 L757.543 601.825 L735.598 601.825 L735.598 597.89 Q738.26 595.135 742.844 590.505 Q747.45 585.853 748.631 584.51 Q750.876 581.987 751.756 580.251 Q752.658 578.492 752.658 576.802 Q752.658 574.047 750.714 572.311 Q748.793 570.575 745.691 570.575 Q743.492 570.575 741.038 571.339 Q738.607 572.103 735.83 573.654 L735.83 568.931 Q738.654 567.797 741.107 567.218 Q743.561 566.64 745.598 566.64 Q750.968 566.64 754.163 569.325 Q757.357 572.01 757.357 576.501 Q757.357 578.63 756.547 580.552 Q755.76 582.45 753.654 585.042 Q753.075 585.714 749.973 588.931 Q746.871 592.126 741.223 597.89 Z" fill="#000000" fill-rule="nonzero" fill-opacity="1" /><path clip-path="url(#clip600)" d="M750.413 358.277 Q753.769 358.995 755.644 361.263 Q757.543 363.532 757.543 366.865 Q757.543 371.981 754.024 374.782 Q750.506 377.583 744.024 377.583 Q741.848 377.583 739.533 377.143 Q737.242 376.726 734.788 375.87 L734.788 371.356 Q736.732 372.49 739.047 373.069 Q741.362 373.647 743.885 373.647 Q748.283 373.647 750.575 371.911 Q752.89 370.175 752.89 366.865 Q752.89 363.81 750.737 362.097 Q748.607 360.36 744.788 360.36 L740.76 360.36 L740.76 356.518 L744.973 356.518 Q748.422 356.518 750.251 355.152 Q752.08 353.763 752.08 351.171 Q752.08 348.509 750.181 347.097 Q748.306 345.661 744.788 345.661 Q742.867 345.661 740.668 346.078 Q738.469 346.495 735.83 347.374 L735.83 343.208 Q738.492 342.467 740.807 342.097 Q743.144 341.726 745.205 341.726 Q750.529 341.726 753.631 344.157 Q756.732 346.564 756.732 350.685 Q756.732 353.555 755.089 355.546 Q753.445 357.513 750.413 358.277 Z" fill="#000000" fill-rule="nonzero" fill-opacity="1" /><path clip-path="url(#clip600)" d="M747.959 121.512 L736.154 139.961 L747.959 139.961 L747.959 121.512 M746.732 117.438 L752.612 117.438 L752.612 139.961 L757.543 139.961 L757.543 143.85 L752.612 143.85 L752.612 151.998 L747.959 151.998 L747.959 143.85 L732.357 143.85 L732.357 139.336 L746.732 117.438 Z" fill="#000000" fill-rule="nonzero" fill-opacity="1" /><path clip-path="url(#clip600)" d="M738.265 14.0809 L738.265 22.0612 Q733.606 19.8332 729.474 18.7395 Q725.343 17.6457 721.494 17.6457 Q714.81 17.6457 711.164 20.2383 Q707.559 22.8309 707.559 27.611 Q707.559 31.6214 709.949 33.6873 Q712.38 35.7128 719.104 36.9686 L724.046 37.9813 Q733.201 39.7232 737.536 44.1387 Q741.911 48.5136 741.911 55.8863 Q741.911 64.6767 735.996 69.2137 Q730.123 73.7508 718.74 73.7508 Q714.446 73.7508 709.585 72.7785 Q704.764 71.8063 699.579 69.9024 L699.579 61.4765 Q704.561 64.2716 709.341 65.6895 Q714.122 67.1073 718.74 67.1073 Q725.748 67.1073 729.555 64.3527 Q733.363 61.598 733.363 56.4939 Q733.363 52.0379 730.609 49.5264 Q727.895 47.0148 721.656 45.759 L716.674 44.7868 Q707.519 42.9639 703.427 39.075 Q699.336 35.1862 699.336 28.2591 Q699.336 20.2383 704.966 15.6203 Q710.638 11.0023 720.562 11.0023 Q724.816 11.0023 729.231 11.7719 Q733.647 12.5416 738.265 14.0809 Z" fill="#000000" fill-rule="nonzero" fill-opacity="1" /><path clip-path="url(#clip600)" d="M761.72 14.324 L761.72 27.2059 L777.073 27.2059 L777.073 32.9987 L761.72 32.9987 L761.72 57.6282 Q761.72 63.1779 763.218 64.7578 Q764.758 66.3376 769.416 66.3376 L777.073 66.3376 L777.073 72.576 L769.416 72.576 Q760.788 72.576 757.507 69.3758 Q754.225 66.1351 754.225 57.6282 L754.225 32.9987 L748.757 32.9987 L748.757 27.2059 L754.225 27.2059 L754.225 14.324 L761.72 14.324 Z" fill="#000000" fill-rule="nonzero" fill-opacity="1" /><path clip-path="url(#clip600)" d="M813.166 34.1734 Q811.91 33.4443 810.412 33.1202 Q808.953 32.7556 807.171 32.7556 Q800.851 32.7556 797.449 36.8875 Q794.086 40.9789 794.086 48.6757 L794.086 72.576 L786.592 72.576 L786.592 27.2059 L794.086 27.2059 L794.086 34.2544 Q796.436 30.1225 800.203 28.1376 Q803.971 26.1121 809.358 26.1121 Q810.128 26.1121 811.06 26.2337 Q811.991 26.3147 813.126 26.5172 L813.166 34.1734 Z" fill="#000000" fill-rule="nonzero" fill-opacity="1" /><path clip-path="url(#clip600)" d="M857.969 48.0275 L857.969 51.6733 L823.698 51.6733 Q824.185 59.3701 828.317 63.421 Q832.489 67.4314 839.902 67.4314 Q844.196 67.4314 848.206 66.3781 Q852.257 65.3249 856.227 63.2184 L856.227 70.267 Q852.217 71.9684 848.004 72.8596 Q843.791 73.7508 839.456 73.7508 Q828.6 73.7508 822.24 67.4314 Q815.921 61.1119 815.921 50.3365 Q815.921 39.1965 821.916 32.6746 Q827.952 26.1121 838.16 26.1121 Q847.315 26.1121 852.622 32.0264 Q857.969 37.9003 857.969 48.0275 M850.515 45.84 Q850.434 39.7232 847.072 36.0774 Q843.75 32.4315 838.241 32.4315 Q832.003 32.4315 828.235 35.9558 Q824.509 39.4801 823.942 45.8805 L850.515 45.84 Z" fill="#000000" fill-rule="nonzero" fill-opacity="1" /><path clip-path="url(#clip600)" d="M890.822 49.7694 Q881.788 49.7694 878.305 51.8354 Q874.821 53.9013 874.821 58.8839 Q874.821 62.8538 877.413 65.2034 Q880.047 67.5124 884.543 67.5124 Q890.741 67.5124 894.468 63.1374 Q898.235 58.7219 898.235 51.4303 L898.235 49.7694 L890.822 49.7694 M905.689 46.6907 L905.689 72.576 L898.235 72.576 L898.235 65.6895 Q895.683 69.8214 891.875 71.8063 Q888.067 73.7508 882.558 73.7508 Q875.591 73.7508 871.459 69.8619 Q867.367 65.9325 867.367 59.3701 Q867.367 51.7138 872.471 47.825 Q877.616 43.9361 887.784 43.9361 L898.235 43.9361 L898.235 43.2069 Q898.235 38.0623 894.832 35.2672 Q891.47 32.4315 885.353 32.4315 Q881.464 32.4315 877.778 33.3632 Q874.092 34.295 870.689 36.1584 L870.689 29.2718 Q874.78 27.692 878.629 26.9223 Q882.477 26.1121 886.123 26.1121 Q895.967 26.1121 900.828 31.2163 Q905.689 36.3204 905.689 46.6907 Z" fill="#000000" fill-rule="nonzero" fill-opacity="1" /><path clip-path="url(#clip600)" d="M956.366 35.9153 Q959.161 30.8922 963.05 28.5022 Q966.938 26.1121 972.205 26.1121 Q979.294 26.1121 983.142 31.0947 Q986.99 36.0368 986.99 45.1919 L986.99 72.576 L979.496 72.576 L979.496 45.4349 Q979.496 38.913 977.187 35.7533 Q974.878 32.5936 970.139 32.5936 Q964.346 32.5936 960.984 36.4419 Q957.621 40.2903 957.621 46.9338 L957.621 72.576 L950.127 72.576 L950.127 45.4349 Q950.127 38.8725 947.818 35.7533 Q945.509 32.5936 940.689 32.5936 Q934.977 32.5936 931.615 36.4824 Q928.252 40.3308 928.252 46.9338 L928.252 72.576 L920.758 72.576 L920.758 27.2059 L928.252 27.2059 L928.252 34.2544 Q930.804 30.082 934.369 28.0971 Q937.934 26.1121 942.836 26.1121 Q947.778 26.1121 951.221 28.6237 Q954.705 31.1352 956.366 35.9153 Z" fill="#000000" fill-rule="nonzero" fill-opacity="1" /><path clip-path="url(#clip600)" d="M1024.83 9.54393 L1024.83 15.7418 L1017.7 15.7418 Q1013.69 15.7418 1012.11 17.3622 Q1010.57 18.9825 1010.57 23.1955 L1010.57 27.2059 L1022.84 27.2059 L1022.84 32.9987 L1010.57 32.9987 L1010.57 72.576 L1003.07 72.576 L1003.07 32.9987 L995.943 32.9987 L995.943 27.2059 L1003.07 27.2059 L1003.07 24.0462 Q1003.07 16.471 1006.6 13.0277 Q1010.12 9.54393 1017.78 9.54393 L1024.83 9.54393 Z" fill="#000000" fill-rule="nonzero" fill-opacity="1" /><path clip-path="url(#clip600)" d="M1030.29 54.671 L1030.29 27.2059 L1037.75 27.2059 L1037.75 54.3874 Q1037.75 60.8284 1040.26 64.0691 Q1042.77 67.2693 1047.79 67.2693 Q1053.83 67.2693 1057.31 63.421 Q1060.84 59.5726 1060.84 52.9291 L1060.84 27.2059 L1068.29 27.2059 L1068.29 72.576 L1060.84 72.576 L1060.84 65.6084 Q1058.12 69.7404 1054.52 71.7658 Q1050.95 73.7508 1046.21 73.7508 Q1038.4 73.7508 1034.35 68.8897 Q1030.29 64.0286 1030.29 54.671 M1049.05 26.1121 L1049.05 26.1121 Z" fill="#000000" fill-rule="nonzero" fill-opacity="1" /><path clip-path="url(#clip600)" d="M1121.36 45.1919 L1121.36 72.576 L1113.91 72.576 L1113.91 45.4349 Q1113.91 38.994 1111.39 35.7938 Q1108.88 32.5936 1103.86 32.5936 Q1097.82 32.5936 1094.34 36.4419 Q1090.86 40.2903 1090.86 46.9338 L1090.86 72.576 L1083.36 72.576 L1083.36 27.2059 L1090.86 27.2059 L1090.86 34.2544 Q1093.53 30.163 1097.13 28.1376 Q1100.78 26.1121 1105.52 26.1121 Q1113.34 26.1121 1117.35 30.9732 Q1121.36 35.7938 1121.36 45.1919 Z" fill="#000000" fill-rule="nonzero" fill-opacity="1" /><path clip-path="url(#clip600)" d="M1168.88 28.9478 L1168.88 35.9153 Q1165.72 34.1734 1162.52 33.3227 Q1159.36 32.4315 1156.12 32.4315 Q1148.86 32.4315 1144.85 37.0496 Q1140.84 41.6271 1140.84 49.9314 Q1140.84 58.2358 1144.85 62.8538 Q1148.86 67.4314 1156.12 67.4314 Q1159.36 67.4314 1162.52 66.5807 Q1165.72 65.6895 1168.88 63.9476 L1168.88 70.8341 Q1165.76 72.2924 1162.39 73.0216 Q1159.07 73.7508 1155.31 73.7508 Q1145.06 73.7508 1139.02 67.3098 Q1132.99 60.8689 1132.99 49.9314 Q1132.99 38.832 1139.06 32.472 Q1145.18 26.1121 1155.79 26.1121 Q1159.23 26.1121 1162.52 26.8413 Q1165.8 27.5299 1168.88 28.9478 Z" fill="#000000" fill-rule="nonzero" fill-opacity="1" /><path clip-path="url(#clip600)" d="M1189.21 14.324 L1189.21 27.2059 L1204.56 27.2059 L1204.56 32.9987 L1189.21 32.9987 L1189.21 57.6282 Q1189.21 63.1779 1190.71 64.7578 Q1192.25 66.3376 1196.91 66.3376 L1204.56 66.3376 L1204.56 72.576 L1196.91 72.576 Q1188.28 72.576 1185 69.3758 Q1181.72 66.1351 1181.72 57.6282 L1181.72 32.9987 L1176.25 32.9987 L1176.25 27.2059 L1181.72 27.2059 L1181.72 14.324 L1189.21 14.324 Z" fill="#000000" fill-rule="nonzero" fill-opacity="1" /><path clip-path="url(#clip600)" d="M1214.37 27.2059 L1221.82 27.2059 L1221.82 72.576 L1214.37 72.576 L1214.37 27.2059 M1214.37 9.54393 L1221.82 9.54393 L1221.82 18.9825 L1214.37 18.9825 L1214.37 9.54393 Z" fill="#000000" fill-rule="nonzero" fill-opacity="1" /><path clip-path="url(#clip600)" d="M1255 32.4315 Q1249 32.4315 1245.52 37.1306 Q1242.04 41.7891 1242.04 49.9314 Q1242.04 58.0738 1245.48 62.7728 Q1248.96 67.4314 1255 67.4314 Q1260.95 67.4314 1264.44 62.7323 Q1267.92 58.0333 1267.92 49.9314 Q1267.92 41.8701 1264.44 37.1711 Q1260.95 32.4315 1255 32.4315 M1255 26.1121 Q1264.72 26.1121 1270.27 32.4315 Q1275.82 38.7509 1275.82 49.9314 Q1275.82 61.0714 1270.27 67.4314 Q1264.72 73.7508 1255 73.7508 Q1245.24 73.7508 1239.69 67.4314 Q1234.18 61.0714 1234.18 49.9314 Q1234.18 38.7509 1239.69 32.4315 Q1245.24 26.1121 1255 26.1121 Z" fill="#000000" fill-rule="nonzero" fill-opacity="1" /><path clip-path="url(#clip600)" d="M1325.89 45.1919 L1325.89 72.576 L1318.44 72.576 L1318.44 45.4349 Q1318.44 38.994 1315.92 35.7938 Q1313.41 32.5936 1308.39 32.5936 Q1302.35 32.5936 1298.87 36.4419 Q1295.39 40.2903 1295.39 46.9338 L1295.39 72.576 L1287.89 72.576 L1287.89 27.2059 L1295.39 27.2059 L1295.39 34.2544 Q1298.06 30.163 1301.66 28.1376 Q1305.31 26.1121 1310.05 26.1121 Q1317.87 26.1121 1321.88 30.9732 Q1325.89 35.7938 1325.89 45.1919 Z" fill="#000000" fill-rule="nonzero" fill-opacity="1" /><path clip-path="url(#clip600)" d="M1387.75 49.7694 Q1378.71 49.7694 1375.23 51.8354 Q1371.75 53.9013 1371.75 58.8839 Q1371.75 62.8538 1374.34 65.2034 Q1376.97 67.5124 1381.47 67.5124 Q1387.67 67.5124 1391.39 63.1374 Q1395.16 58.7219 1395.16 51.4303 L1395.16 49.7694 L1387.75 49.7694 M1402.61 46.6907 L1402.61 72.576 L1395.16 72.576 L1395.16 65.6895 Q1392.61 69.8214 1388.8 71.8063 Q1384.99 73.7508 1379.48 73.7508 Q1372.51 73.7508 1368.38 69.8619 Q1364.29 65.9325 1364.29 59.3701 Q1364.29 51.7138 1369.4 47.825 Q1374.54 43.9361 1384.71 43.9361 L1395.16 43.9361 L1395.16 43.2069 Q1395.16 38.0623 1391.76 35.2672 Q1388.39 32.4315 1382.28 32.4315 Q1378.39 32.4315 1374.7 33.3632 Q1371.02 34.295 1367.61 36.1584 L1367.61 29.2718 Q1371.7 27.692 1375.55 26.9223 Q1379.4 26.1121 1383.05 26.1121 Q1392.89 26.1121 1397.75 31.2163 Q1402.61 36.3204 1402.61 46.6907 Z" fill="#000000" fill-rule="nonzero" fill-opacity="1" /><path clip-path="url(#clip600)" d="M1425.34 14.324 L1425.34 27.2059 L1440.69 27.2059 L1440.69 32.9987 L1425.34 32.9987 L1425.34 57.6282 Q1425.34 63.1779 1426.84 64.7578 Q1428.38 66.3376 1433.04 66.3376 L1440.69 66.3376 L1440.69 72.576 L1433.04 72.576 Q1424.41 72.576 1421.13 69.3758 Q1417.84 66.1351 1417.84 57.6282 L1417.84 32.9987 L1412.38 32.9987 L1412.38 27.2059 L1417.84 27.2059 L1417.84 14.324 L1425.34 14.324 Z" fill="#000000" fill-rule="nonzero" fill-opacity="1" /><path clip-path="url(#clip600)" d="M1484.24 14.324 L1484.24 27.2059 L1499.59 27.2059 L1499.59 32.9987 L1484.24 32.9987 L1484.24 57.6282 Q1484.24 63.1779 1485.74 64.7578 Q1487.28 66.3376 1491.94 66.3376 L1499.59 66.3376 L1499.59 72.576 L1491.94 72.576 Q1483.31 72.576 1480.03 69.3758 Q1476.74 66.1351 1476.74 57.6282 L1476.74 32.9987 L1471.28 32.9987 L1471.28 27.2059 L1476.74 27.2059 L1476.74 14.324 L1484.24 14.324 Z" fill="#000000" fill-rule="nonzero" fill-opacity="1" /><path clip-path="url(#clip600)" d="M1536.74 34.9026 L1588.67 34.9026 L1588.67 41.7081 L1536.74 41.7081 L1536.74 34.9026 M1536.74 51.4303 L1588.67 51.4303 L1588.67 58.3168 L1536.74 58.3168 L1536.74 51.4303 Z" fill="#000000" fill-rule="nonzero" fill-opacity="1" /><path clip-path="url(#clip600)" d="M1655.19 19.2256 L1634.53 51.5113 L1655.19 51.5113 L1655.19 19.2256 M1653.04 12.096 L1663.33 12.096 L1663.33 51.5113 L1671.96 51.5113 L1671.96 58.3168 L1663.33 58.3168 L1663.33 72.576 L1655.19 72.576 L1655.19 58.3168 L1627.88 58.3168 L1627.88 50.4176 L1653.04 12.096 Z" fill="#000000" fill-rule="nonzero" fill-opacity="1" /><path clip-path="url(#clip600)" d="M1685.49 62.2867 L1694.04 62.2867 L1694.04 72.576 L1685.49 72.576 L1685.49 62.2867 Z" fill="#000000" fill-rule="nonzero" fill-opacity="1" /><path clip-path="url(#clip600)" d="M1729.36 17.4837 Q1723.04 17.4837 1719.84 23.7221 Q1716.68 29.92 1716.68 42.3968 Q1716.68 54.833 1719.84 61.0714 Q1723.04 67.2693 1729.36 67.2693 Q1735.72 67.2693 1738.88 61.0714 Q1742.08 54.833 1742.08 42.3968 Q1742.08 29.92 1738.88 23.7221 Q1735.72 17.4837 1729.36 17.4837 M1729.36 11.0023 Q1739.53 11.0023 1744.87 19.0636 Q1750.26 27.0843 1750.26 42.3968 Q1750.26 57.6687 1744.87 65.73 Q1739.53 73.7508 1729.36 73.7508 Q1719.19 73.7508 1713.8 65.73 Q1708.46 57.6687 1708.46 42.3968 Q1708.46 27.0843 1713.8 19.0636 Q1719.19 11.0023 1729.36 11.0023 Z" fill="#000000" fill-rule="nonzero" fill-opacity="1" /><path clip-path="url(#clip600)" d="M1766.06 65.6895 L1779.43 65.6895 L1779.43 19.5497 L1764.89 22.4663 L1764.89 15.0127 L1779.35 12.096 L1787.53 12.096 L1787.53 65.6895 L1800.9 65.6895 L1800.9 72.576 L1766.06 72.576 L1766.06 65.6895 Z" fill="#000000" fill-rule="nonzero" fill-opacity="1" /><polyline clip-path="url(#clip602)" style="stroke:#dc5039; stroke-linecap:round; stroke-linejoin:round; stroke-width:4; stroke-opacity:1; fill:none" points="793.543,1430.94 798.041,1430.32 802.539,1429.67 807.037,1428.98 811.536,1428.25 813.173,1427.97 816.034,1427.49 820.532,1426.68 825.03,1425.84 829.529,1424.95 834.027,1424.02 836.546,1423.47 838.525,1423.05 843.023,1422.04 847.522,1420.99 852.02,1419.89 855.589,1418.97 856.518,1418.74 861.017,1417.56 865.515,1416.33 870.013,1415.05 871.931,1414.48 874.511,1413.72 879.01,1412.36 883.508,1410.94 886.426,1409.98 888.006,1409.47 892.504,1407.96 897.003,1406.39 899.531,1405.48 901.501,1404.78 905.999,1403.12 910.498,1401.4 911.561,1400.98 914.996,1399.64 919.494,1397.83 922.703,1396.48 923.992,1395.95 928.491,1394.04 932.989,1392.05 933.132,1391.98 937.487,1390.03 941.985,1387.93 942.913,1387.49 946.484,1385.8 950.982,1383.59 952.165,1382.99 955.48,1381.33 959.979,1379.01 960.95,1378.49 964.477,1376.64 968.975,1374.19 969.323,1373.99 973.473,1371.69 977.31,1369.49 977.972,1369.12 982.47,1366.5 984.953,1364.99 986.968,1363.8 991.466,1361.03 992.304,1360.5 995.965,1358.2 999.363,1356 1000.46,1355.3 1004.96,1352.32 1006.16,1351.5 1009.46,1349.28 1012.72,1347 1013.96,1346.16 1018.46,1342.95 1019.07,1342.5 1022.95,1339.68 1025.18,1338 1027.45,1336.33 1031.12,1333.51 1031.95,1332.88 1036.45,1329.35 1036.87,1329.01 1040.95,1325.74 1042.43,1324.51 1045.45,1322.04 1047.83,1320.01 1049.94,1318.25 1053.09,1315.51 1054.44,1314.35 1058.19,1311.02 1058.94,1310.36 1063.15,1306.52 1063.44,1306.26 1067.94,1302.06 1067.98,1302.02 1072.44,1297.75 1072.66,1297.52 1076.93,1293.33 1077.23,1293.02 1081.43,1288.78 1081.68,1288.52 1085.93,1284.11 1086.01,1284.03 1090.23,1279.53 1090.43,1279.32 1094.34,1275.03 1094.93,1274.39 1098.34,1270.53 1099.42,1269.32 1102.24,1266.03 1103.92,1264.1 1106.05,1261.53 1108.42,1258.71 1109.77,1257.04 1112.92,1253.16 1113.4,1252.54 1116.94,1248.04 1117.42,1247.44 1120.38,1243.54 1121.92,1241.54 1123.75,1239.04 1126.41,1235.42 1127.04,1234.54 1130.24,1230.05 1130.91,1229.11 1133.36,1225.55 1135.41,1222.57 1136.41,1221.05 1139.39,1216.55 1139.91,1215.77 1142.29,1212.05 1144.41,1208.73 1145.12,1207.56 1147.89,1203.06 1148.91,1201.39 1150.58,1198.56 1153.21,1194.06 1153.4,1193.74 1155.77,1189.56 1157.9,1185.75 1158.27,1185.06 1160.7,1180.57 1162.4,1177.39 1163.08,1176.07 1165.39,1171.57 1166.9,1168.61 1167.65,1167.07 1169.85,1162.57 1171.4,1159.35 1171.99,1158.07 1174.07,1153.58 1175.9,1149.56 1176.11,1149.08 1178.08,1144.58 1180,1140.08 1180.39,1139.17 1181.87,1135.58 1183.69,1131.08 1184.89,1128.07 1185.46,1126.59 1187.18,1122.09 1188.86,1117.59 1189.39,1116.14 1190.48,1113.09 1192.06,1108.59 1193.59,1104.09 1193.89,1103.22 1195.07,1099.6 1196.52,1095.1 1197.92,1090.6 1198.39,1089.07 1199.27,1086.1 1200.58,1081.6 1201.86,1077.11 1202.89,1073.38 1203.09,1072.61 1204.28,1068.11 1205.43,1063.61 1206.55,1059.11 1207.38,1055.65 1207.63,1054.61 1208.66,1050.12 1209.67,1045.62 1210.63,1041.12 1211.57,1036.62 1211.88,1035.07 1212.46,1032.12 1213.33,1027.62 1214.16,1023.13 1214.96,1018.63 1215.72,1014.13 1216.38,1010.11 1216.46,1009.63 1217.16,1005.13 1217.83,1000.63 1218.48,996.136 1219.09,991.638 1219.67,987.14 1220.23,982.642 1220.76,978.143 1220.88,977.055 1221.26,973.645 1221.73,969.147 1222.17,964.649 1222.59,960.15 1222.98,955.652 1223.35,951.154 1223.69,946.655 1224,942.157 1224.29,937.659 1224.55,933.161 1224.79,928.662 1225.01,924.164 1225.19,919.666 1225.36,915.168 1225.38,914.576 1225.5,910.669 1225.61,906.171 1225.7,901.673 1225.77,897.175 1225.81,892.676 1225.83,888.178 1225.82,883.68 1225.79,879.181 1225.74,874.683 1225.66,870.185 1225.55,865.687 1225.42,861.188 1225.38,859.906 1225.27,856.69 1225.09,852.192 1224.88,847.694 1224.65,843.195 1224.4,838.697 1224.12,834.199 1223.81,829.7 1223.48,825.202 1223.12,820.704 1222.73,816.206 1222.32,811.707 1221.88,807.209 1221.41,802.711 1220.92,798.213 1220.88,797.849 1220.4,793.714 1219.85,789.216 1219.27,784.718 1218.66,780.22 1218.03,775.721 1217.36,771.223 1216.67,766.725 1216.38,764.933 1215.94,762.226 1215.17,757.728 1214.38,753.23 1213.55,748.732 1212.68,744.233 1211.88,740.243 1211.78,739.735 1210.82,735.237 1209.82,730.739 1208.77,726.24 1207.67,721.742 1207.38,720.605 1206.5,717.244 1205.26,712.745 1203.96,708.247 1202.89,704.729 1202.57,703.749 1201.09,699.251 1199.54,694.752 1198.39,691.573 1197.89,690.254 1196.13,685.756 1194.29,681.258 1193.89,680.286 1192.34,676.759 1190.31,672.261 1189.39,670.26 1188.18,667.763 1185.96,663.265 1184.89,661.118 1183.66,658.766 1181.27,654.268 1180.39,652.613 1178.8,649.77 1176.27,645.271 1175.9,644.602 1173.64,640.773 1171.4,636.969 1170.97,636.275 1168.2,631.777 1166.9,629.654 1165.37,627.278 1162.48,622.78 1162.4,622.656 1159.49,618.282 1157.9,615.876 1156.45,613.784 1153.4,609.371 1153.34,609.285 1150.14,604.787 1148.91,603.044 1146.86,600.289 1144.41,596.942 1143.52,595.79 1140.1,591.292 1139.91,591.037 1136.58,586.794 1135.41,585.285 1132.98,582.296 1130.91,579.713 1129.3,577.797 1126.41,574.307 1125.54,573.299 1121.92,569.054 1121.69,568.801 1117.74,564.303 1117.42,563.935 1113.68,559.804 1112.92,558.947 1109.53,555.306 1108.42,554.093 1105.28,550.808 1103.92,549.365 1100.92,546.309 1099.42,544.758 1096.46,541.811 1094.93,540.266 1091.88,537.313 1090.43,535.885 1087.18,532.815 1085.93,531.611 1082.36,528.316 1081.43,527.441 1077.42,523.818 1076.93,523.372 1072.44,519.399 1072.34,519.32 1067.94,515.507 1067.11,514.822 1063.44,511.708 1061.74,510.323 1058.94,507.998 1056.22,505.825 1054.44,504.378 1050.55,501.327 1049.94,500.845 1045.45,497.384 1044.7,496.829 1040.95,493.996 1038.66,492.33 1036.45,490.691 1032.45,487.832 1031.95,487.468 1027.45,484.305 1026.02,483.334 1022.95,481.213 1019.39,478.835 1018.46,478.202 1013.96,475.249 1012.52,474.337 1009.46,472.362 1005.41,469.839 1004.96,469.552 1000.46,466.789 998.019,465.341 995.965,464.098 991.466,461.471 990.353,460.842 986.968,458.894 982.47,456.393 982.378,456.344 977.972,453.93 974.036,451.846 973.473,451.542 968.975,449.195 965.314,447.348 964.477,446.917 959.979,444.681 956.167,442.849 955.48,442.512 950.982,440.382 946.547,438.351 946.484,438.322 941.985,436.293 937.487,434.331 936.35,433.853 932.989,432.409 928.491,430.542 925.529,429.354 923.992,428.726 919.494,426.951 914.996,425.234 913.968,424.856 910.498,423.555 905.999,421.926 901.519,420.358 901.501,420.351 897.003,418.808 892.504,417.318 888.006,415.88 887.941,415.86 883.508,414.472 879.01,413.115 874.511,411.807 872.913,411.361 870.013,410.537 865.515,409.308 861.017,408.127 856.518,406.992 855.984,406.863 852.02,405.89 847.522,404.832 843.023,403.819 838.525,402.851 836.154,402.365 834.027,401.921 829.529,401.028 825.03,400.179 820.532,399.374 816.034,398.611 811.536,397.89 811.379,397.867 807.037,397.204 802.539,396.561 798.041,395.961 793.543,395.404 "/>
<polyline clip-path="url(#clip602)" style="stroke:#ed6825; stroke-linecap:round; stroke-linejoin:round; stroke-width:4; stroke-opacity:1; fill:none" points="793.543,636.626 794.191,636.275 798.041,634.23 802.539,631.928 802.843,631.777 807.037,629.717 811.536,627.598 812.232,627.278 816.034,625.563 820.532,623.616 822.533,622.78 825.03,621.752 829.529,619.97 833.997,618.282 834.027,618.271 838.525,616.646 843.023,615.101 847.061,613.784 847.522,613.635 852.02,612.239 856.518,610.92 861.017,609.677 862.507,609.285 865.515,608.503 870.013,607.399 874.511,606.368 879.01,605.41 882.148,604.787 883.508,604.519 888.006,603.694 892.504,602.938 897.003,602.252 901.501,601.634 905.999,601.083 910.498,600.6 913.852,600.289 914.996,600.183 919.494,599.829 923.992,599.541 928.491,599.32 932.989,599.165 937.487,599.076 941.985,599.053 946.484,599.096 950.982,599.205 955.48,599.381 959.979,599.623 964.477,599.933 968.714,600.289 968.975,600.31 973.473,600.748 977.972,601.253 982.47,601.827 986.968,602.47 991.466,603.184 995.965,603.97 1000.24,604.787 1000.46,604.829 1004.96,605.744 1009.46,606.734 1013.96,607.801 1018.46,608.948 1019.68,609.285 1022.95,610.156 1027.45,611.439 1031.95,612.807 1034.96,613.784 1036.45,614.252 1040.95,615.763 1045.45,617.367 1047.85,618.282 1049.94,619.049 1054.44,620.806 1058.94,622.668 1059.19,622.78 1063.44,624.589 1067.94,626.62 1069.31,627.278 1072.44,628.727 1076.93,630.939 1078.54,631.777 1081.43,633.237 1085.93,635.645 1087.04,636.275 1090.43,638.138 1094.93,640.763 1094.94,640.773 1099.42,643.46 1102.27,645.271 1103.92,646.293 1108.42,649.246 1109.17,649.77 1112.92,652.303 1115.65,654.268 1117.42,655.507 1121.78,658.766 1121.92,658.862 1126.41,662.339 1127.54,663.265 1130.91,665.985 1132.97,667.763 1135.41,669.82 1138.11,672.261 1139.91,673.862 1142.94,676.759 1144.41,678.14 1147.48,681.258 1148.91,682.696 1151.72,685.756 1153.4,687.583 1155.68,690.254 1157.9,692.878 1159.37,694.752 1162.4,698.679 1162.81,699.251 1165.98,703.749 1166.9,705.095 1168.91,708.247 1171.4,712.296 1171.66,712.745 1174.17,717.244 1175.9,720.463 1176.54,721.742 1178.73,726.24 1180.39,729.823 1180.8,730.739 1182.72,735.237 1184.54,739.735 1184.89,740.615 1186.25,744.233 1187.88,748.732 1189.39,753.114 1189.43,753.23 1190.88,757.728 1192.28,762.226 1193.61,766.725 1193.89,767.709 1194.86,771.223 1196.06,775.721 1197.2,780.22 1198.29,784.718 1198.39,785.147 1199.31,789.216 1200.28,793.714 1201.2,798.213 1202.07,802.711 1202.89,807.147 1202.9,807.209 1203.66,811.707 1204.38,816.206 1205.06,820.704 1205.68,825.202 1206.26,829.7 1206.8,834.199 1207.29,838.697 1207.38,839.679 1207.73,843.195 1208.13,847.694 1208.48,852.192 1208.79,856.69 1209.06,861.188 1209.29,865.687 1209.47,870.185 1209.61,874.683 1209.71,879.181 1209.77,883.68 1209.78,888.178 1209.76,892.676 1209.69,897.175 1209.58,901.673 1209.43,906.171 1209.24,910.669 1209,915.168 1208.73,919.666 1208.41,924.164 1208.05,928.662 1207.65,933.161 1207.38,935.838 1207.2,937.659 1206.71,942.157 1206.18,946.655 1205.61,951.154 1204.99,955.652 1204.32,960.15 1203.61,964.649 1202.89,968.967 1202.85,969.147 1202.05,973.645 1201.2,978.143 1200.29,982.642 1199.35,987.14 1198.39,991.457 1198.35,991.638 1197.29,996.136 1196.18,1000.63 1195.03,1005.13 1193.89,1009.36 1193.81,1009.63 1192.54,1014.13 1191.21,1018.63 1189.82,1023.13 1189.39,1024.5 1188.37,1027.62 1186.86,1032.12 1185.28,1036.62 1184.89,1037.72 1183.64,1041.12 1181.93,1045.62 1180.39,1049.52 1180.15,1050.12 1178.29,1054.61 1176.36,1059.11 1175.9,1060.19 1174.35,1063.61 1172.27,1068.11 1171.4,1069.96 1170.1,1072.61 1167.84,1077.11 1166.9,1078.96 1165.49,1081.6 1163.06,1086.1 1162.4,1087.3 1160.52,1090.6 1157.9,1095.08 1157.89,1095.1 1155.14,1099.6 1153.4,1102.39 1152.29,1104.09 1149.33,1108.59 1148.91,1109.24 1146.24,1113.09 1144.41,1115.72 1143.03,1117.59 1139.91,1121.82 1139.7,1122.09 1136.21,1126.59 1135.41,1127.62 1132.58,1131.08 1130.91,1133.12 1128.79,1135.58 1126.41,1138.35 1124.84,1140.08 1121.92,1143.32 1120.71,1144.58 1117.42,1148.06 1116.4,1149.08 1112.92,1152.58 1111.88,1153.58 1108.42,1156.9 1107.13,1158.07 1103.92,1161.03 1102.15,1162.57 1099.42,1164.98 1096.91,1167.07 1094.93,1168.75 1091.4,1171.57 1090.43,1172.36 1085.93,1175.8 1085.57,1176.07 1081.43,1179.12 1079.36,1180.57 1076.93,1182.29 1072.78,1185.06 1072.44,1185.3 1067.94,1188.21 1065.72,1189.56 1063.44,1190.98 1058.94,1193.62 1058.15,1194.06 1054.44,1196.16 1049.96,1198.56 1049.94,1198.57 1045.45,1200.89 1040.98,1203.06 1040.95,1203.07 1036.45,1205.19 1031.95,1207.17 1031.02,1207.56 1027.45,1209.07 1022.95,1210.87 1019.8,1212.05 1018.46,1212.57 1013.96,1214.19 1009.46,1215.71 1006.78,1216.55 1004.96,1217.14 1000.46,1218.49 995.965,1219.75 991.466,1220.92 990.91,1221.05 986.968,1222.02 982.47,1223.03 977.972,1223.96 973.473,1224.81 969.101,1225.55 968.975,1225.57 964.477,1226.27 959.979,1226.89 955.48,1227.43 950.982,1227.89 946.484,1228.28 941.985,1228.59 937.487,1228.82 932.989,1228.98 928.491,1229.07 923.992,1229.08 919.494,1229.03 914.996,1228.89 910.498,1228.69 905.999,1228.41 901.501,1228.05 897.003,1227.63 892.504,1227.13 888.006,1226.55 883.508,1225.9 881.332,1225.55 879.01,1225.17 874.511,1224.38 870.013,1223.5 865.515,1222.55 861.017,1221.52 859.087,1221.05 856.518,1220.42 852.02,1219.23 847.522,1217.97 843.023,1216.62 842.791,1216.55 838.525,1215.2 834.027,1213.69 829.529,1212.1 829.399,1212.05 825.03,1210.43 820.532,1208.66 817.825,1207.56 816.034,1206.81 811.536,1204.87 807.523,1203.06 807.037,1202.83 802.539,1200.71 798.194,1198.56 798.041,1198.48 793.543,1196.16 "/>
<polyline clip-path="url(#clip602)" style="stroke:#c73e4c; stroke-linecap:round; stroke-linejoin:round; stroke-width:4; stroke-opacity:1; fill:none" points="1139.98,1486.45 1141.71,1481.95 1143.42,1477.45 1144.41,1474.85 1145.11,1472.95 1146.78,1468.45 1148.44,1463.96 1148.91,1462.68 1150.07,1459.46 1151.68,1454.96 1153.28,1450.46 1153.4,1450.13 1154.86,1445.96 1156.42,1441.47 1157.9,1437.17 1157.97,1436.97 1159.5,1432.47 1161.01,1427.97 1162.4,1423.81 1162.51,1423.47 1163.99,1418.97 1165.46,1414.48 1166.9,1410.02 1166.91,1409.98 1168.34,1405.48 1169.77,1400.98 1171.18,1396.48 1171.4,1395.78 1172.56,1391.98 1173.94,1387.49 1175.31,1382.99 1175.9,1381.05 1176.65,1378.49 1177.99,1373.99 1179.31,1369.49 1180.39,1365.76 1180.61,1364.99 1181.9,1360.5 1183.18,1356 1184.44,1351.5 1184.89,1349.89 1185.69,1347 1186.92,1342.5 1188.13,1338 1189.34,1333.51 1189.39,1333.32 1190.53,1329.01 1191.7,1324.51 1192.86,1320.01 1193.89,1315.99 1194.01,1315.51 1195.14,1311.02 1196.25,1306.52 1197.35,1302.02 1198.39,1297.75 1198.44,1297.52 1199.51,1293.02 1200.57,1288.52 1201.61,1284.03 1202.64,1279.53 1202.89,1278.46 1203.65,1275.03 1204.65,1270.53 1205.63,1266.03 1206.61,1261.53 1207.38,1257.89 1207.56,1257.04 1208.5,1252.54 1209.42,1248.04 1210.34,1243.54 1211.23,1239.04 1211.88,1235.77 1212.12,1234.54 1212.98,1230.05 1213.84,1225.55 1214.67,1221.05 1215.5,1216.55 1216.31,1212.05 1216.38,1211.68 1217.11,1207.56 1217.89,1203.06 1218.65,1198.56 1219.41,1194.06 1220.15,1189.56 1220.87,1185.06 1220.88,1185.02 1221.58,1180.57 1222.28,1176.07 1222.96,1171.57 1223.63,1167.07 1224.28,1162.57 1224.92,1158.07 1225.38,1154.84 1225.55,1153.58 1226.16,1149.08 1226.76,1144.58 1227.35,1140.08 1227.92,1135.58 1228.48,1131.08 1229.02,1126.59 1229.56,1122.09 1229.87,1119.37 1230.08,1117.59 1230.58,1113.09 1231.08,1108.59 1231.56,1104.09 1232.02,1099.6 1232.48,1095.1 1232.92,1090.6 1233.35,1086.1 1233.77,1081.6 1234.18,1077.11 1234.37,1074.9 1234.57,1072.61 1234.95,1068.11 1235.32,1063.61 1235.68,1059.11 1236.03,1054.61 1236.37,1050.12 1236.69,1045.62 1237,1041.12 1237.31,1036.62 1237.6,1032.12 1237.88,1027.62 1238.15,1023.13 1238.41,1018.63 1238.66,1014.13 1238.87,1010.27 1238.9,1009.63 1239.14,1005.13 1239.36,1000.63 1239.57,996.136 1239.77,991.638 1239.96,987.14 1240.14,982.642 1240.32,978.143 1240.48,973.645 1240.64,969.147 1240.79,964.649 1240.93,960.15 1241.05,955.652 1241.18,951.154 1241.29,946.655 1241.39,942.157 1241.49,937.659 1241.58,933.161 1241.65,928.662 1241.73,924.164 1241.79,919.666 1241.84,915.168 1241.89,910.669 1241.93,906.171 1241.96,901.673 1241.98,897.175 1241.99,892.676 1242,888.178 1242,883.68 1241.99,879.181 1241.97,874.683 1241.95,870.185 1241.91,865.687 1241.87,861.188 1241.82,856.69 1241.76,852.192 1241.69,847.694 1241.62,843.195 1241.53,838.697 1241.44,834.199 1241.34,829.7 1241.23,825.202 1241.12,820.704 1240.99,816.206 1240.86,811.707 1240.71,807.209 1240.56,802.711 1240.4,798.213 1240.23,793.714 1240.05,789.216 1239.87,784.718 1239.67,780.22 1239.46,775.721 1239.25,771.223 1239.03,766.725 1238.87,763.727 1238.79,762.226 1238.55,757.728 1238.29,753.23 1238.03,748.732 1237.75,744.233 1237.47,739.735 1237.17,735.237 1236.85,730.739 1236.53,726.24 1236.18,721.742 1235.82,717.244 1235.45,712.745 1235.05,708.247 1234.63,703.749 1234.37,701.142 1234.18,699.251 1233.71,694.752 1233.22,690.254 1232.7,685.756 1232.15,681.258 1231.58,676.759 1230.98,672.261 1230.36,667.763 1229.87,664.369 1229.71,663.265 1229.04,658.766 1228.34,654.268 1227.63,649.77 1226.9,645.271 1226.14,640.773 1225.38,636.275 1225.38,636.272 1224.59,631.777 1223.78,627.278 1222.96,622.78 1222.13,618.282 1221.28,613.784 1220.88,611.63 1220.42,609.285 1219.54,604.787 1218.65,600.289 1217.74,595.79 1216.82,591.292 1216.38,589.149 1215.88,586.794 1214.93,582.296 1213.96,577.797 1212.98,573.299 1211.99,568.801 1211.88,568.3 1210.98,564.303 1209.95,559.804 1208.92,555.306 1207.87,550.808 1207.38,548.736 1206.8,546.309 1205.72,541.811 1204.62,537.313 1203.51,532.815 1202.89,530.279 1202.39,528.316 1201.24,523.818 1200.09,519.32 1198.92,514.822 1198.39,512.755 1197.74,510.323 1196.54,505.825 1195.32,501.327 1194.1,496.829 1193.89,496.047 1192.85,492.33 1191.6,487.832 1190.33,483.334 1189.39,480.037 1189.04,478.835 1187.73,474.337 1186.42,469.839 1185.09,465.341 1184.89,464.667 1183.74,460.842 1182.38,456.344 1181,451.846 1180.39,449.849 1179.61,447.348 1178.2,442.849 1176.78,438.351 1175.9,435.55 1175.34,433.853 1173.89,429.354 1172.42,424.856 1171.4,421.717 1170.94,420.358 1169.44,415.86 1167.93,411.361 1166.9,408.307 1166.4,406.863 1164.85,402.365 1163.29,397.867 1162.4,395.287 1161.72,393.368 1160.13,388.87 1158.52,384.372 1157.9,382.632 1156.9,379.874 1155.26,375.375 1153.61,370.877 1153.4,370.319 1151.93,366.379 1150.25,361.88 1148.91,358.309 1148.55,357.382 1146.83,352.884 1145.1,348.386 1144.41,346.592 1143.35,343.887 1141.58,339.389 1139.91,335.163 1139.8,334.891 1138,330.393 1136.18,325.894 1135.41,323.974 1134.35,321.396 1132.5,316.898 1130.91,313.044 1130.64,312.399 1128.76,307.901 1126.86,303.403 1126.41,302.337 1124.94,298.905 1123.01,294.406 1121.92,291.849 1121.07,289.908 1119.1,285.41 1117.42,281.577 1117.12,280.912 1115.12,276.413 1113.1,271.915 1112.92,271.5 1111.07,267.417 1109.02,262.918 1108.42,261.603 1106.95,258.42 1104.86,253.922 1103.92,251.891 1102.76,249.424 1100.64,244.925 1099.42,242.354 1098.5,240.427 1096.34,235.929 1094.93,232.982 1094.17,231.431 1091.97,226.932 1090.43,223.769 1089.76,222.434 1087.53,217.936 1085.93,214.707 1085.29,213.438 1083.02,208.939 1081.43,205.791 1080.74,204.441 1078.43,199.943 1076.93,197.016 1076.11,195.444 1073.77,190.946 1072.44,188.376 1071.41,186.448 1069.04,181.95 1067.94,179.868 1066.64,177.451 1064.22,172.953 1063.44,171.487 1061.79,168.455 1059.33,163.957 1058.94,163.229 1056.86,159.458 1054.44,155.09 1054.37,154.96 1051.85,150.462 1049.94,147.053 1049.32,145.963 1046.77,141.465 1045.45,139.127 1044.2,136.967 1041.61,132.469 1040.95,131.31 1039,127.97 1036.45,123.594 1036.38,123.472 "/>
<polyline clip-path="url(#clip602)" style="stroke:#ae305b; stroke-linecap:round; stroke-linejoin:round; stroke-width:4; stroke-opacity:1; fill:none" points="1463.86,123.472 1463.78,123.594 1461.23,127.97 1459.29,131.31 1458.62,132.469 1456.03,136.967 1454.79,139.127 1453.46,141.465 1450.91,145.963 1450.29,147.053 1448.38,150.462 1445.86,154.96 1445.79,155.09 1443.38,159.458 1441.29,163.229 1440.9,163.957 1438.45,168.455 1436.8,171.487 1436.01,172.953 1433.6,177.451 1432.3,179.868 1431.2,181.95 1428.82,186.448 1427.8,188.376 1426.46,190.946 1424.12,195.444 1423.3,197.016 1421.8,199.943 1419.5,204.441 1418.8,205.791 1417.21,208.939 1414.95,213.438 1414.3,214.707 1412.7,217.936 1410.47,222.434 1409.81,223.769 1408.26,226.932 1406.07,231.431 1405.31,232.982 1403.89,235.929 1401.74,240.427 1400.81,242.354 1399.6,244.925 1397.48,249.424 1396.31,251.891 1395.37,253.922 1393.29,258.42 1391.81,261.603 1391.22,262.918 1389.17,267.417 1387.31,271.5 1387.13,271.915 1385.12,276.413 1383.11,280.912 1382.82,281.577 1381.14,285.41 1379.17,289.908 1378.32,291.849 1377.22,294.406 1375.29,298.905 1373.82,302.337 1373.37,303.403 1371.48,307.901 1369.59,312.399 1369.32,313.044 1367.73,316.898 1365.88,321.396 1364.82,323.974 1364.05,325.894 1362.24,330.393 1360.43,334.891 1360.32,335.163 1358.66,339.389 1356.89,343.887 1355.83,346.592 1355.14,348.386 1353.41,352.884 1351.68,357.382 1351.33,358.309 1349.99,361.88 1348.3,366.379 1346.83,370.319 1346.63,370.877 1344.98,375.375 1343.34,379.874 1342.33,382.632 1341.71,384.372 1340.11,388.87 1338.51,393.368 1337.83,395.287 1336.94,397.867 1335.38,402.365 1333.83,406.863 1333.33,408.307 1332.31,411.361 1330.79,415.86 1329.29,420.358 1328.84,421.717 1327.81,424.856 1326.34,429.354 1324.89,433.853 1324.34,435.55 1323.45,438.351 1322.03,442.849 1320.62,447.348 1319.84,449.849 1319.23,451.846 1317.86,456.344 1316.49,460.842 1315.34,464.667 1315.14,465.341 1313.82,469.839 1312.5,474.337 1311.19,478.835 1310.84,480.037 1309.91,483.334 1308.64,487.832 1307.38,492.33 1306.35,496.047 1306.13,496.829 1304.91,501.327 1303.7,505.825 1302.5,510.323 1301.85,512.755 1301.31,514.822 1300.15,519.32 1298.99,523.818 1297.85,528.316 1297.35,530.279 1296.72,532.815 1295.61,537.313 1294.52,541.811 1293.43,546.309 1292.85,548.736 1292.37,550.808 1291.32,555.306 1290.28,559.804 1289.25,564.303 1288.35,568.3 1288.24,568.801 1287.25,573.299 1286.27,577.797 1285.31,582.296 1284.35,586.794 1283.85,589.149 1283.42,591.292 1282.5,595.79 1281.59,600.289 1280.69,604.787 1279.81,609.285 1279.36,611.63 1278.95,613.784 1278.1,618.282 1277.27,622.78 1276.45,627.278 1275.65,631.777 1274.86,636.272 1274.86,636.275 1274.09,640.773 1273.34,645.271 1272.61,649.77 1271.89,654.268 1271.2,658.766 1270.52,663.265 1270.36,664.369 1269.88,667.763 1269.25,672.261 1268.65,676.759 1268.08,681.258 1267.54,685.756 1267.02,690.254 1266.52,694.752 1266.05,699.251 1265.86,701.142 1265.61,703.749 1265.19,708.247 1264.79,712.745 1264.41,717.244 1264.05,721.742 1263.71,726.24 1263.38,730.739 1263.07,735.237 1262.77,739.735 1262.48,744.233 1262.2,748.732 1261.94,753.23 1261.69,757.728 1261.44,762.226 1261.36,763.727 1261.21,766.725 1260.98,771.223 1260.77,775.721 1260.56,780.22 1260.37,784.718 1260.18,789.216 1260,793.714 1259.83,798.213 1259.67,802.711 1259.52,807.209 1259.38,811.707 1259.24,816.206 1259.12,820.704 1259,825.202 1258.89,829.7 1258.79,834.199 1258.7,838.697 1258.62,843.195 1258.54,847.694 1258.47,852.192 1258.42,856.69 1258.37,861.188 1258.32,865.687 1258.29,870.185 1258.26,874.683 1258.24,879.181 1258.23,883.68 1258.23,888.178 1258.24,892.676 1258.25,897.175 1258.28,901.673 1258.31,906.171 1258.34,910.669 1258.39,915.168 1258.45,919.666 1258.51,924.164 1258.58,928.662 1258.66,933.161 1258.75,937.659 1258.84,942.157 1258.95,946.655 1259.06,951.154 1259.18,955.652 1259.31,960.15 1259.45,964.649 1259.59,969.147 1259.75,973.645 1259.92,978.143 1260.09,982.642 1260.27,987.14 1260.46,991.638 1260.67,996.136 1260.88,1000.63 1261.1,1005.13 1261.33,1009.63 1261.36,1010.27 1261.57,1014.13 1261.82,1018.63 1262.08,1023.13 1262.35,1027.62 1262.63,1032.12 1262.93,1036.62 1263.23,1041.12 1263.54,1045.62 1263.87,1050.12 1264.2,1054.61 1264.55,1059.11 1264.91,1063.61 1265.28,1068.11 1265.66,1072.61 1265.86,1074.9 1266.06,1077.11 1266.46,1081.6 1266.88,1086.1 1267.31,1090.6 1267.76,1095.1 1268.21,1099.6 1268.68,1104.09 1269.16,1108.59 1269.65,1113.09 1270.16,1117.59 1270.36,1119.37 1270.68,1122.09 1271.21,1126.59 1271.76,1131.08 1272.32,1135.58 1272.89,1140.08 1273.47,1144.58 1274.07,1149.08 1274.68,1153.58 1274.86,1154.84 1275.31,1158.07 1275.95,1162.57 1276.61,1167.07 1277.28,1171.57 1277.96,1176.07 1278.65,1180.57 1279.36,1185.02 1279.36,1185.06 1280.09,1189.56 1280.83,1194.06 1281.58,1198.56 1282.35,1203.06 1283.13,1207.56 1283.85,1211.68 1283.92,1212.05 1284.73,1216.55 1285.56,1221.05 1286.4,1225.55 1287.25,1230.05 1288.12,1234.54 1288.35,1235.77 1289,1239.04 1289.9,1243.54 1290.81,1248.04 1291.73,1252.54 1292.67,1257.04 1292.85,1257.89 1293.63,1261.53 1294.6,1266.03 1295.58,1270.53 1296.58,1275.03 1297.35,1278.46 1297.59,1279.53 1298.62,1284.03 1299.67,1288.52 1300.72,1293.02 1301.79,1297.52 1301.85,1297.75 1302.88,1302.02 1303.98,1306.52 1305.1,1311.02 1306.23,1315.51 1306.35,1315.99 1307.37,1320.01 1308.53,1324.51 1309.71,1329.01 1310.84,1333.32 1310.89,1333.51 1312.1,1338 1313.32,1342.5 1314.55,1347 1315.34,1349.89 1315.79,1351.5 1317.06,1356 1318.33,1360.5 1319.62,1364.99 1319.84,1365.76 1320.93,1369.49 1322.25,1373.99 1323.58,1378.49 1324.34,1381.05 1324.93,1382.99 1326.29,1387.49 1327.67,1391.98 1328.84,1395.78 1329.06,1396.48 1330.47,1400.98 1331.89,1405.48 1333.32,1409.98 1333.33,1410.02 1334.78,1414.48 1336.24,1418.97 1337.72,1423.47 1337.83,1423.81 1339.22,1427.97 1340.74,1432.47 1342.26,1436.97 1342.33,1437.17 1343.81,1441.47 1345.37,1445.96 1346.83,1450.13 1346.95,1450.46 1348.55,1454.96 1350.17,1459.46 1351.33,1462.68 1351.8,1463.96 1353.45,1468.45 1355.12,1472.95 1355.83,1474.85 1356.81,1477.45 1358.53,1481.95 1360.25,1486.45 "/>
<polyline clip-path="url(#clip602)" style="stroke:#932567; stroke-linecap:round; stroke-linejoin:round; stroke-width:4; stroke-opacity:1; fill:none" points="1706.69,1430.94 1702.19,1430.32 1697.69,1429.67 1693.2,1428.98 1688.7,1428.25 1687.06,1427.97 1684.2,1427.49 1679.7,1426.68 1675.2,1425.84 1670.71,1424.95 1666.21,1424.02 1663.69,1423.47 1661.71,1423.05 1657.21,1422.04 1652.71,1420.99 1648.21,1419.89 1644.65,1418.97 1643.72,1418.74 1639.22,1417.56 1634.72,1416.33 1630.22,1415.05 1628.3,1414.48 1625.72,1413.72 1621.22,1412.36 1616.73,1410.94 1613.81,1409.98 1612.23,1409.47 1607.73,1407.96 1603.23,1406.39 1600.7,1405.48 1598.73,1404.78 1594.23,1403.12 1589.74,1401.4 1588.67,1400.98 1585.24,1399.64 1580.74,1397.83 1577.53,1396.48 1576.24,1395.95 1571.74,1394.04 1567.24,1392.05 1567.1,1391.98 1562.75,1390.03 1558.25,1387.93 1557.32,1387.49 1553.75,1385.8 1549.25,1383.59 1548.07,1382.99 1544.75,1381.33 1540.26,1379.01 1539.28,1378.49 1535.76,1376.64 1531.26,1374.19 1530.91,1373.99 1526.76,1371.69 1522.92,1369.49 1522.26,1369.12 1517.76,1366.5 1515.28,1364.99 1513.27,1363.8 1508.77,1361.03 1507.93,1360.5 1504.27,1358.2 1500.87,1356 1499.77,1355.3 1495.27,1352.32 1494.07,1351.5 1490.77,1349.28 1487.51,1347 1486.28,1346.16 1481.78,1342.95 1481.17,1342.5 1477.28,1339.68 1475.05,1338 1472.78,1336.33 1469.11,1333.51 1468.28,1332.88 1463.78,1329.35 1463.36,1329.01 1459.29,1325.74 1457.8,1324.51 1454.79,1322.04 1452.4,1320.01 1450.29,1318.25 1447.15,1315.51 1445.79,1314.35 1442.04,1311.02 1441.29,1310.36 1437.08,1306.52 1436.8,1306.26 1432.3,1302.06 1432.26,1302.02 1427.8,1297.75 1427.57,1297.52 1423.3,1293.33 1423,1293.02 1418.8,1288.78 1418.56,1288.52 1414.3,1284.11 1414.22,1284.03 1410.01,1279.53 1409.81,1279.32 1405.9,1275.03 1405.31,1274.39 1401.89,1270.53 1400.81,1269.32 1397.99,1266.03 1396.31,1264.1 1394.18,1261.53 1391.81,1258.71 1390.46,1257.04 1387.31,1253.16 1386.83,1252.54 1383.29,1248.04 1382.82,1247.44 1379.85,1243.54 1378.32,1241.54 1376.49,1239.04 1373.82,1235.42 1373.2,1234.54 1369.99,1230.05 1369.32,1229.11 1366.87,1225.55 1364.82,1222.57 1363.82,1221.05 1360.84,1216.55 1360.32,1215.77 1357.95,1212.05 1355.83,1208.73 1355.11,1207.56 1352.35,1203.06 1351.33,1201.39 1349.66,1198.56 1347.02,1194.06 1346.83,1193.74 1344.47,1189.56 1342.33,1185.75 1341.96,1185.06 1339.53,1180.57 1337.83,1177.39 1337.15,1176.07 1334.84,1171.57 1333.33,1168.61 1332.58,1167.07 1330.39,1162.57 1328.84,1159.35 1328.24,1158.07 1326.16,1153.58 1324.34,1149.56 1324.13,1149.08 1322.16,1144.58 1320.23,1140.08 1319.84,1139.17 1318.36,1135.58 1316.54,1131.08 1315.34,1128.07 1314.77,1126.59 1313.05,1122.09 1311.38,1117.59 1310.84,1116.14 1309.76,1113.09 1308.18,1108.59 1306.64,1104.09 1306.35,1103.22 1305.16,1099.6 1303.72,1095.1 1302.32,1090.6 1301.85,1089.07 1300.96,1086.1 1299.65,1081.6 1298.38,1077.11 1297.35,1073.38 1297.14,1072.61 1295.95,1068.11 1294.8,1063.61 1293.69,1059.11 1292.85,1055.65 1292.61,1054.61 1291.57,1050.12 1290.57,1045.62 1289.6,1041.12 1288.67,1036.62 1288.35,1035.07 1287.77,1032.12 1286.91,1027.62 1286.08,1023.13 1285.28,1018.63 1284.51,1014.13 1283.85,1010.11 1283.78,1009.63 1283.07,1005.13 1282.4,1000.63 1281.76,996.136 1281.15,991.638 1280.56,987.14 1280.01,982.642 1279.48,978.143 1279.36,977.055 1278.98,973.645 1278.51,969.147 1278.06,964.649 1277.64,960.15 1277.25,955.652 1276.89,951.154 1276.55,946.655 1276.23,942.157 1275.94,937.659 1275.68,933.161 1275.44,928.662 1275.23,924.164 1275.04,919.666 1274.88,915.168 1274.86,914.576 1274.74,910.669 1274.62,906.171 1274.53,901.673 1274.46,897.175 1274.42,892.676 1274.4,888.178 1274.41,883.68 1274.44,879.181 1274.5,874.683 1274.58,870.185 1274.68,865.687 1274.81,861.188 1274.86,859.906 1274.97,856.69 1275.15,852.192 1275.35,847.694 1275.58,843.195 1275.84,838.697 1276.12,834.199 1276.43,829.7 1276.76,825.202 1277.12,820.704 1277.5,816.206 1277.92,811.707 1278.35,807.209 1278.82,802.711 1279.31,798.213 1279.36,797.849 1279.84,793.714 1280.39,789.216 1280.96,784.718 1281.57,780.22 1282.21,775.721 1282.87,771.223 1283.57,766.725 1283.85,764.933 1284.3,762.226 1285.06,757.728 1285.86,753.23 1286.69,748.732 1287.55,744.233 1288.35,740.243 1288.46,739.735 1289.41,735.237 1290.41,730.739 1291.46,726.24 1292.56,721.742 1292.85,720.605 1293.73,717.244 1294.97,712.745 1296.28,708.247 1297.35,704.729 1297.66,703.749 1299.14,699.251 1300.7,694.752 1301.85,691.573 1302.35,690.254 1304.1,685.756 1305.94,681.258 1306.35,680.286 1307.89,676.759 1309.92,672.261 1310.84,670.26 1312.05,667.763 1314.27,663.265 1315.34,661.118 1316.58,658.766 1318.96,654.268 1319.84,652.613 1321.43,649.77 1323.96,645.271 1324.34,644.602 1326.59,640.773 1328.84,636.969 1329.27,636.275 1332.03,631.777 1333.33,629.654 1334.87,627.278 1337.75,622.78 1337.83,622.656 1340.74,618.282 1342.33,615.876 1343.79,613.784 1346.83,609.371 1346.89,609.285 1350.1,604.787 1351.33,603.044 1353.37,600.289 1355.83,596.942 1356.71,595.79 1360.13,591.292 1360.32,591.037 1363.65,586.794 1364.82,585.285 1367.25,582.296 1369.32,579.713 1370.93,577.797 1373.82,574.307 1374.69,573.299 1378.32,569.054 1378.54,568.801 1382.5,564.303 1382.82,563.935 1386.55,559.804 1387.31,558.947 1390.7,555.306 1391.81,554.093 1394.95,550.808 1396.31,549.365 1399.31,546.309 1400.81,544.758 1403.78,541.811 1405.31,540.266 1408.36,537.313 1409.81,535.885 1413.05,532.815 1414.3,531.611 1417.87,528.316 1418.8,527.441 1422.81,523.818 1423.3,523.372 1427.8,519.399 1427.89,519.32 1432.3,515.507 1433.12,514.822 1436.8,511.708 1438.49,510.323 1441.29,507.998 1444.01,505.825 1445.79,504.378 1449.69,501.327 1450.29,500.845 1454.79,497.384 1455.54,496.829 1459.29,493.996 1461.58,492.33 1463.78,490.691 1467.78,487.832 1468.28,487.468 1472.78,484.305 1474.21,483.334 1477.28,481.213 1480.85,478.835 1481.78,478.202 1486.28,475.249 1487.72,474.337 1490.77,472.362 1494.82,469.839 1495.27,469.552 1499.77,466.789 1502.21,465.341 1504.27,464.098 1508.77,461.471 1509.88,460.842 1513.27,458.894 1517.76,456.393 1517.86,456.344 1522.26,453.93 1526.2,451.846 1526.76,451.542 1531.26,449.195 1534.92,447.348 1535.76,446.917 1540.26,444.681 1544.07,442.849 1544.75,442.512 1549.25,440.382 1553.69,438.351 1553.75,438.322 1558.25,436.293 1562.75,434.331 1563.88,433.853 1567.24,432.409 1571.74,430.542 1574.7,429.354 1576.24,428.726 1580.74,426.951 1585.24,425.234 1586.27,424.856 1589.74,423.555 1594.23,421.926 1598.71,420.358 1598.73,420.351 1603.23,418.808 1607.73,417.318 1612.23,415.88 1612.29,415.86 1616.73,414.472 1621.22,413.115 1625.72,411.807 1627.32,411.361 1630.22,410.537 1634.72,409.308 1639.22,408.127 1643.72,406.992 1644.25,406.863 1648.21,405.89 1652.71,404.832 1657.21,403.819 1661.71,402.851 1664.08,402.365 1666.21,401.921 1670.71,401.028 1675.2,400.179 1679.7,399.374 1684.2,398.611 1688.7,397.89 1688.85,397.867 1693.2,397.204 1697.69,396.561 1702.19,395.961 1706.69,395.404 "/>
<polyline clip-path="url(#clip602)" style="stroke:#781c6d; stroke-linecap:round; stroke-linejoin:round; stroke-width:4; stroke-opacity:1; fill:none" points="1706.69,636.626 1706.04,636.275 1702.19,634.23 1697.69,631.928 1697.39,631.777 1693.2,629.717 1688.7,627.598 1688,627.278 1684.2,625.563 1679.7,623.616 1677.7,622.78 1675.2,621.752 1670.71,619.97 1666.24,618.282 1666.21,618.271 1661.71,616.646 1657.21,615.101 1653.17,613.784 1652.71,613.635 1648.21,612.239 1643.72,610.92 1639.22,609.677 1637.73,609.285 1634.72,608.503 1630.22,607.399 1625.72,606.368 1621.22,605.41 1618.09,604.787 1616.73,604.519 1612.23,603.694 1607.73,602.938 1603.23,602.252 1598.73,601.634 1594.23,601.083 1589.74,600.6 1586.38,600.289 1585.24,600.183 1580.74,599.829 1576.24,599.541 1571.74,599.32 1567.24,599.165 1562.75,599.076 1558.25,599.053 1553.75,599.096 1549.25,599.205 1544.75,599.381 1540.26,599.623 1535.76,599.933 1531.52,600.289 1531.26,600.31 1526.76,600.748 1522.26,601.253 1517.76,601.827 1513.27,602.47 1508.77,603.184 1504.27,603.97 1500,604.787 1499.77,604.829 1495.27,605.744 1490.77,606.734 1486.28,607.801 1481.78,608.948 1480.55,609.285 1477.28,610.156 1472.78,611.439 1468.28,612.807 1465.28,613.784 1463.78,614.252 1459.29,615.763 1454.79,617.367 1452.38,618.282 1450.29,619.049 1445.79,620.806 1441.29,622.668 1441.04,622.78 1436.8,624.589 1432.3,626.62 1430.92,627.278 1427.8,628.727 1423.3,630.939 1421.69,631.777 1418.8,633.237 1414.3,635.645 1413.19,636.275 1409.81,638.138 1405.31,640.763 1405.29,640.773 1400.81,643.46 1397.97,645.271 1396.31,646.293 1391.81,649.246 1391.06,649.77 1387.31,652.303 1384.59,654.268 1382.82,655.507 1378.45,658.766 1378.32,658.862 1373.82,662.339 1372.7,663.265 1369.32,665.985 1367.26,667.763 1364.82,669.82 1362.12,672.261 1360.32,673.862 1357.29,676.759 1355.83,678.14 1352.75,681.258 1351.33,682.696 1348.51,685.756 1346.83,687.583 1344.55,690.254 1342.33,692.878 1340.86,694.752 1337.83,698.679 1337.42,699.251 1334.26,703.749 1333.33,705.095 1331.32,708.247 1328.84,712.296 1328.58,712.745 1326.06,717.244 1324.34,720.463 1323.69,721.742 1321.5,726.24 1319.84,729.823 1319.44,730.739 1317.52,735.237 1315.69,739.735 1315.34,740.615 1313.98,744.233 1312.35,748.732 1310.84,753.114 1310.81,753.23 1309.35,757.728 1307.96,762.226 1306.63,766.725 1306.35,767.709 1305.37,771.223 1304.18,775.721 1303.03,780.22 1301.95,784.718 1301.85,785.147 1300.92,789.216 1299.95,793.714 1299.03,798.213 1298.16,802.711 1297.35,807.147 1297.34,807.209 1296.57,811.707 1295.85,816.206 1295.18,820.704 1294.55,825.202 1293.97,829.7 1293.44,834.199 1292.95,838.697 1292.85,839.679 1292.51,843.195 1292.11,847.694 1291.75,852.192 1291.44,856.69 1291.17,861.188 1290.95,865.687 1290.76,870.185 1290.62,874.683 1290.52,879.181 1290.47,883.68 1290.45,888.178 1290.48,892.676 1290.55,897.175 1290.66,901.673 1290.81,906.171 1291,910.669 1291.23,915.168 1291.51,919.666 1291.83,924.164 1292.18,928.662 1292.59,933.161 1292.85,935.838 1293.03,937.659 1293.52,942.157 1294.05,946.655 1294.63,951.154 1295.25,955.652 1295.91,960.15 1296.62,964.649 1297.35,968.967 1297.38,969.147 1298.19,973.645 1299.04,978.143 1299.94,982.642 1300.89,987.14 1301.85,991.457 1301.89,991.638 1302.94,996.136 1304.05,1000.63 1305.21,1005.13 1306.35,1009.36 1306.42,1009.63 1307.7,1014.13 1309.03,1018.63 1310.41,1023.13 1310.84,1024.5 1311.86,1027.62 1313.38,1032.12 1314.95,1036.62 1315.34,1037.72 1316.6,1041.12 1318.31,1045.62 1319.84,1049.52 1320.08,1050.12 1321.94,1054.61 1323.87,1059.11 1324.34,1060.19 1325.88,1063.61 1327.97,1068.11 1328.84,1069.96 1330.14,1072.61 1332.39,1077.11 1333.33,1078.96 1334.74,1081.6 1337.18,1086.1 1337.83,1087.3 1339.72,1090.6 1342.33,1095.08 1342.34,1095.1 1345.09,1099.6 1346.83,1102.39 1347.94,1104.09 1350.9,1108.59 1351.33,1109.24 1353.99,1113.09 1355.83,1115.72 1357.2,1117.59 1360.32,1121.82 1360.53,1122.09 1364.02,1126.59 1364.82,1127.62 1367.66,1131.08 1369.32,1133.12 1371.44,1135.58 1373.82,1138.35 1375.39,1140.08 1378.32,1143.32 1379.52,1144.58 1382.82,1148.06 1383.84,1149.08 1387.31,1152.58 1388.36,1153.58 1391.81,1156.9 1393.1,1158.07 1396.31,1161.03 1398.08,1162.57 1400.81,1164.98 1403.32,1167.07 1405.31,1168.75 1408.84,1171.57 1409.81,1172.36 1414.3,1175.8 1414.67,1176.07 1418.8,1179.12 1420.88,1180.57 1423.3,1182.29 1427.45,1185.06 1427.8,1185.3 1432.3,1188.21 1434.52,1189.56 1436.8,1190.98 1441.29,1193.62 1442.09,1194.06 1445.79,1196.16 1450.28,1198.56 1450.29,1198.57 1454.79,1200.89 1459.25,1203.06 1459.29,1203.07 1463.78,1205.19 1468.28,1207.17 1469.21,1207.56 1472.78,1209.07 1477.28,1210.87 1480.43,1212.05 1481.78,1212.57 1486.28,1214.19 1490.77,1215.71 1493.46,1216.55 1495.27,1217.14 1499.77,1218.49 1504.27,1219.75 1508.77,1220.92 1509.32,1221.05 1513.27,1222.02 1517.76,1223.03 1522.26,1223.96 1526.76,1224.81 1531.13,1225.55 1531.26,1225.57 1535.76,1226.27 1540.26,1226.89 1544.75,1227.43 1549.25,1227.89 1553.75,1228.28 1558.25,1228.59 1562.75,1228.82 1567.24,1228.98 1571.74,1229.07 1576.24,1229.08 1580.74,1229.03 1585.24,1228.89 1589.74,1228.69 1594.23,1228.41 1598.73,1228.05 1603.23,1227.63 1607.73,1227.13 1612.23,1226.55 1616.73,1225.9 1618.9,1225.55 1621.22,1225.17 1625.72,1224.38 1630.22,1223.5 1634.72,1222.55 1639.22,1221.52 1641.15,1221.05 1643.72,1220.42 1648.21,1219.23 1652.71,1217.97 1657.21,1216.62 1657.44,1216.55 1661.71,1215.2 1666.21,1213.69 1670.71,1212.1 1670.83,1212.05 1675.2,1210.43 1679.7,1208.66 1682.41,1207.56 1684.2,1206.81 1688.7,1204.87 1692.71,1203.06 1693.2,1202.83 1697.69,1200.71 1702.04,1198.56 1702.19,1198.48 1706.69,1196.16 "/>
<polyline clip-path="url(#clip602)" style="stroke:#5d126e; stroke-linecap:round; stroke-linejoin:round; stroke-width:4; stroke-opacity:1; fill:none" points="1612.23,1096.27 1608.31,1099.6 1607.73,1100.07 1603.23,1103.63 1602.63,1104.09 1598.73,1106.96 1596.44,1108.59 1594.23,1110.09 1589.74,1113.01 1589.61,1113.09 1585.24,1115.73 1581.99,1117.59 1580.74,1118.28 1576.24,1120.64 1573.31,1122.09 1571.74,1122.83 1567.24,1124.86 1563.11,1126.59 1562.75,1126.73 1558.25,1128.45 1553.75,1130.01 1550.4,1131.08 1549.25,1131.44 1544.75,1132.72 1540.26,1133.86 1535.76,1134.86 1532.06,1135.58 1531.26,1135.74 1526.76,1136.47 1522.26,1137.08 1517.76,1137.57 1513.27,1137.92 1508.77,1138.15 1504.27,1138.25 1499.77,1138.23 1495.27,1138.08 1490.77,1137.81 1486.28,1137.42 1481.78,1136.89 1477.28,1136.24 1473.5,1135.58 1472.78,1135.46 1468.28,1134.56 1463.78,1133.52 1459.29,1132.35 1454.94,1131.08 1454.79,1131.04 1450.29,1129.6 1445.79,1128.02 1442.08,1126.59 1441.29,1126.29 1436.8,1124.42 1432.3,1122.39 1431.69,1122.09 1427.8,1120.21 1423.3,1117.86 1422.82,1117.59 1418.8,1115.36 1415.02,1113.09 1414.3,1112.67 1409.81,1109.81 1408.03,1108.59 1405.31,1106.75 1401.64,1104.09 1400.81,1103.49 1396.31,1100.03 1395.78,1099.6 1391.81,1096.35 1390.38,1095.1 1387.31,1092.43 1385.34,1090.6 1382.82,1088.26 1380.63,1086.1 1378.32,1083.82 1376.21,1081.6 1373.82,1079.09 1372.04,1077.11 1369.32,1074.05 1368.11,1072.61 1364.82,1068.66 1364.39,1068.11 1360.88,1063.61 1360.32,1062.9 1357.55,1059.11 1355.83,1056.72 1354.39,1054.61 1351.36,1050.12 1351.33,1050.07 1348.52,1045.62 1346.83,1042.89 1345.79,1041.12 1343.2,1036.62 1342.33,1035.09 1340.74,1032.12 1338.38,1027.62 1337.83,1026.56 1336.15,1023.13 1334.01,1018.63 1333.33,1017.17 1331.99,1014.13 1330.06,1009.63 1328.84,1006.7 1328.22,1005.13 1326.48,1000.63 1324.81,996.136 1324.34,994.821 1323.24,991.638 1321.75,987.14 1320.34,982.642 1319.84,981.006 1319,978.143 1317.75,973.645 1316.56,969.147 1315.44,964.649 1315.34,964.219 1314.41,960.15 1313.43,955.652 1312.53,951.154 1311.69,946.655 1310.91,942.157 1310.84,941.747 1310.2,937.659 1309.56,933.161 1308.98,928.662 1308.46,924.164 1308,919.666 1307.6,915.168 1307.26,910.669 1306.99,906.171 1306.77,901.673 1306.62,897.175 1306.52,892.676 1306.49,888.178 1306.52,883.68 1306.6,879.181 1306.75,874.683 1306.97,870.185 1307.24,865.687 1307.58,861.188 1307.98,856.69 1308.44,852.192 1308.97,847.694 1309.57,843.195 1310.23,838.697 1310.84,834.879 1310.96,834.199 1311.76,829.7 1312.64,825.202 1313.58,820.704 1314.6,816.206 1315.34,813.118 1315.69,811.707 1316.87,807.209 1318.13,802.711 1319.47,798.213 1319.84,797.011 1320.9,793.714 1322.43,789.216 1324.03,784.718 1324.34,783.893 1325.76,780.22 1327.58,775.721 1328.84,772.748 1329.52,771.223 1331.58,766.725 1333.33,763.07 1333.76,762.226 1336.11,757.728 1337.83,754.57 1338.61,753.23 1341.3,748.732 1342.33,747.068 1344.21,744.233 1346.83,740.434 1347.35,739.735 1350.8,735.237 1351.33,734.561 1354.6,730.739 1355.83,729.353 1358.83,726.24 1360.32,724.728 1363.57,721.742 1364.82,720.609 1368.93,717.244 1369.32,716.93 1373.82,713.62 1375.14,712.745 1378.32,710.635 1382.32,708.247 1382.82,707.948 1387.31,705.491 1390.86,703.749 1391.81,703.273 1396.31,701.233 1400.81,699.394 1401.2,699.251 1405.31,697.689 1409.81,696.146 1414.3,694.755 1414.31,694.752 1418.8,693.465 1423.3,692.308 1427.8,691.276 1432.3,690.362 1432.91,690.254 1436.8,689.54 1441.29,688.825 1445.79,688.218 1450.29,687.715 1454.79,687.313 1459.29,687.01 1463.78,686.806 1468.28,686.698 1472.78,686.687 1477.28,686.772 1481.78,686.953 1486.28,687.231 1490.77,687.606 1495.27,688.079 1499.77,688.65 1504.27,689.321 1508.77,690.093 1509.62,690.254 1513.27,690.957 1517.76,691.923 1522.26,692.993 1526.76,694.17 1528.83,694.752 1531.26,695.449 1535.76,696.833 1540.26,698.33 1542.86,699.251 1544.75,699.937 1549.25,701.655 1553.75,703.494 1554.35,703.749 1558.25,705.449 1562.75,707.528 1564.24,708.247 1567.24,709.734 1571.74,712.071 1573,712.745 1576.24,714.543 1580.74,717.155 1580.89,717.244 1585.24,719.915 1588.09,721.742 1589.74,722.826 1594.23,725.896 1594.73,726.24 1598.73,729.138 1600.88,730.739 1603.23,732.554 1606.61,735.237 1607.73,736.157 1611.97,739.735 1612.23,739.957 1616.73,743.973 1617.01,744.233 1621.22,748.217 1621.76,748.732 1625.72,752.708 1626.24,753.23 1630.22,757.464 1630.47,757.728 1634.47,762.226 1634.72,762.516 1638.27,766.725 1639.22,767.898 1641.88,771.223 1643.72,773.64 1645.29,775.721 1648.21,779.779 1648.53,780.22 1651.61,784.718 1652.71,786.404 1654.54,789.216 1657.21,793.555 1657.31,793.714 1659.95,798.213 1661.71,801.382 1662.45,802.711 1664.82,807.209 1666.21,809.999 1667.06,811.707 1669.19,816.206 1670.71,819.628 1671.19,820.704 1673.08,825.202 1674.86,829.7 1675.2,830.629 1676.54,834.199 1678.11,838.697 1679.57,843.195 1679.7,843.63 1680.95,847.694 1682.22,852.192 1683.39,856.69 1684.2,860.087 1684.47,861.188 1685.46,865.687 1686.36,870.185 1687.17,874.683 1687.88,879.181 1688.51,883.68 1688.7,885.257 1689.05,888.178 1689.52,892.676 1689.89,897.175 1690.18,901.673 1690.39,906.171 1690.51,910.669 1690.55,915.168 1690.5,919.666 1690.37,924.164 1690.16,928.662 1689.87,933.161 1689.49,937.659 1689.03,942.157 1688.7,944.896 1688.49,946.655 1687.87,951.154 1687.16,955.652 1686.38,960.15 1685.5,964.649 1684.53,969.147 1684.2,970.58 1683.49,973.645 1682.37,978.143 1681.15,982.642 1679.84,987.14 1679.7,987.571 1678.45,991.638 1676.97,996.136 1675.38,1000.63 1675.2,1001.12 1673.72,1005.13 1671.95,1009.63 1670.71,1012.64 1670.09,1014.13 1668.13,1018.63 1666.21,1022.81 1666.06,1023.13 1663.9,1027.62 1661.71,1031.93 1661.61,1032.12 1659.22,1036.62 1657.21,1040.21 1656.7,1041.12 1654.06,1045.62 1652.71,1047.81 1651.29,1050.12 1648.37,1054.61 1648.21,1054.85 1645.31,1059.11 1643.72,1061.35 1642.09,1063.61 1639.22,1067.41 1638.68,1068.11 1635.09,1072.61 1634.72,1073.06 1631.3,1077.11 1630.22,1078.33 1627.28,1081.6 1625.72,1083.26 1623,1086.1 1621.22,1087.88 1618.45,1090.6 1616.73,1092.21 1613.56,1095.1 1612.23,1096.27 "/>
<polyline clip-path="url(#clip602)" style="stroke:#410967; stroke-linecap:round; stroke-linejoin:round; stroke-width:4; stroke-opacity:1; fill:none" points="1544.75,1025.04 1542.63,1027.62 1540.26,1030.38 1538.7,1032.12 1535.76,1035.28 1534.46,1036.62 1531.26,1039.79 1529.85,1041.12 1526.76,1043.92 1524.8,1045.62 1522.26,1047.72 1519.19,1050.12 1517.76,1051.18 1513.27,1054.33 1512.84,1054.61 1508.77,1057.18 1505.41,1059.11 1504.27,1059.74 1499.77,1062.02 1496.28,1063.61 1495.27,1064.05 1490.77,1065.8 1486.28,1067.31 1483.49,1068.11 1481.78,1068.58 1477.28,1069.6 1472.78,1070.4 1468.28,1070.97 1463.78,1071.32 1459.29,1071.45 1454.79,1071.37 1450.29,1071.07 1445.79,1070.56 1441.29,1069.84 1436.8,1068.91 1433.66,1068.11 1432.3,1067.77 1427.8,1066.4 1423.3,1064.82 1420.32,1063.61 1418.8,1063.01 1414.3,1060.97 1410.65,1059.11 1409.81,1058.69 1405.31,1056.17 1402.81,1054.61 1400.81,1053.39 1396.31,1050.34 1396.01,1050.12 1391.81,1047.01 1390.1,1045.62 1387.31,1043.38 1384.76,1041.12 1382.82,1039.42 1379.9,1036.62 1378.32,1035.11 1375.45,1032.12 1373.82,1030.43 1371.34,1027.62 1369.32,1025.33 1367.54,1023.13 1364.82,1019.76 1363.98,1018.63 1360.67,1014.13 1360.32,1013.66 1357.61,1009.63 1355.83,1006.94 1354.71,1005.13 1351.99,1000.63 1351.33,999.51 1349.47,996.136 1347.06,991.638 1346.83,991.201 1344.84,987.14 1342.73,982.642 1342.33,981.779 1340.77,978.143 1338.92,973.645 1337.83,970.87 1337.19,969.147 1335.59,964.649 1334.09,960.15 1333.33,957.788 1332.69,955.652 1331.41,951.154 1330.21,946.655 1329.11,942.157 1328.84,940.969 1328.11,937.659 1327.21,933.161 1326.39,928.662 1325.66,924.164 1325.02,919.666 1324.46,915.168 1324.34,914.012 1323.99,910.669 1323.62,906.171 1323.32,901.673 1323.11,897.175 1322.98,892.676 1322.93,888.178 1322.97,883.68 1323.1,879.181 1323.3,874.683 1323.6,870.185 1323.98,865.687 1324.34,862.253 1324.45,861.188 1325.02,856.69 1325.68,852.192 1326.43,847.694 1327.28,843.195 1328.22,838.697 1328.84,836.003 1329.27,834.199 1330.43,829.7 1331.69,825.202 1333.06,820.704 1333.33,819.862 1334.57,816.206 1336.2,811.707 1337.83,807.481 1337.94,807.209 1339.86,802.711 1341.9,798.213 1342.33,797.299 1344.13,793.714 1346.51,789.216 1346.83,788.627 1349.12,784.718 1351.33,781.106 1351.91,780.22 1354.98,775.721 1355.83,774.515 1358.34,771.223 1360.32,768.709 1362.04,766.725 1364.82,763.59 1366.16,762.226 1369.32,759.08 1370.84,757.728 1373.82,755.117 1376.25,753.23 1378.32,751.651 1382.67,748.732 1382.82,748.637 1387.31,746.024 1390.91,744.233 1391.81,743.786 1396.31,741.876 1400.81,740.278 1402.66,739.735 1405.31,738.953 1409.81,737.879 1414.3,737.042 1418.8,736.422 1423.3,736.005 1427.8,735.777 1432.3,735.727 1436.8,735.847 1441.29,736.13 1445.79,736.572 1450.29,737.17 1454.79,737.922 1459.29,738.828 1463.16,739.735 1463.78,739.885 1468.28,741.084 1472.78,742.44 1477.28,743.954 1478.05,744.233 1481.78,745.619 1486.28,747.448 1489.2,748.732 1490.77,749.444 1495.27,751.609 1498.42,753.23 1499.77,753.954 1504.27,756.486 1506.36,757.728 1508.77,759.214 1513.27,762.146 1513.39,762.226 1517.76,765.303 1519.7,766.725 1522.26,768.694 1525.43,771.223 1526.76,772.336 1530.68,775.721 1531.26,776.253 1535.5,780.22 1535.76,780.471 1539.97,784.718 1540.26,785.025 1544.11,789.216 1544.75,789.957 1547.97,793.714 1549.25,795.317 1551.55,798.213 1553.75,801.164 1554.89,802.711 1558.01,807.209 1558.25,807.582 1560.93,811.707 1562.75,814.734 1563.63,816.206 1566.16,820.704 1567.24,822.774 1568.52,825.202 1570.71,829.7 1571.74,832.01 1572.74,834.199 1574.62,838.697 1576.24,842.955 1576.33,843.195 1577.94,847.694 1579.39,852.192 1580.7,856.69 1580.74,856.853 1581.9,861.188 1582.97,865.687 1583.91,870.185 1584.72,874.683 1585.24,878.004 1585.42,879.181 1586.02,883.68 1586.49,888.178 1586.85,892.676 1587.1,897.175 1587.24,901.673 1587.26,906.171 1587.17,910.669 1586.98,915.168 1586.67,919.666 1586.26,924.164 1585.73,928.662 1585.24,932.113 1585.09,933.161 1584.35,937.659 1583.5,942.157 1582.53,946.655 1581.45,951.154 1580.74,953.796 1580.25,955.652 1578.94,960.15 1577.51,964.649 1576.24,968.301 1575.95,969.147 1574.28,973.645 1572.47,978.143 1571.74,979.85 1570.54,982.642 1568.48,987.14 1567.24,989.662 1566.27,991.638 1563.92,996.136 1562.75,998.264 1561.42,1000.63 1558.76,1005.13 1558.25,1005.96 1555.93,1009.63 1553.75,1012.91 1552.92,1014.13 1549.71,1018.63 1549.25,1019.24 1546.29,1023.13 1544.75,1025.04 "/>
<polyline clip-path="url(#clip602)" style="stroke:#240b4e; stroke-linecap:round; stroke-linejoin:round; stroke-width:4; stroke-opacity:1; fill:none" points="1495.27,974.212 1492.19,978.143 1490.77,979.841 1488.32,982.642 1486.28,984.833 1484,987.14 1481.78,989.273 1479.14,991.638 1477.28,993.225 1473.57,996.136 1472.78,996.732 1468.28,999.83 1466.98,1000.63 1463.78,1002.55 1459.29,1004.89 1458.76,1005.13 1454.79,1006.89 1450.29,1008.55 1446.64,1009.63 1445.79,1009.88 1441.29,1010.88 1436.8,1011.56 1432.3,1011.91 1427.8,1011.95 1423.3,1011.66 1418.8,1011.04 1414.3,1010.09 1412.71,1009.63 1409.81,1008.81 1405.31,1007.17 1400.81,1005.17 1400.75,1005.13 1396.31,1002.79 1392.85,1000.63 1391.81,999.996 1387.31,996.774 1386.54,996.136 1382.82,993.082 1381.27,991.638 1378.32,988.868 1376.69,987.14 1373.82,984.069 1372.63,982.642 1369.32,978.596 1368.99,978.143 1365.75,973.645 1364.82,972.317 1362.82,969.147 1360.32,965.053 1360.1,964.649 1357.69,960.15 1355.83,956.48 1355.44,955.652 1353.44,951.154 1351.56,946.655 1351.33,946.052 1349.91,942.157 1348.4,937.659 1347.02,933.161 1346.83,932.5 1345.82,928.662 1344.75,924.164 1343.8,919.666 1342.98,915.168 1342.33,911.009 1342.28,910.669 1341.73,906.171 1341.3,901.673 1340.98,897.175 1340.79,892.676 1340.71,888.178 1340.76,883.68 1340.92,879.181 1341.2,874.683 1341.61,870.185 1342.13,865.687 1342.33,864.316 1342.8,861.188 1343.61,856.69 1344.55,852.192 1345.63,847.694 1346.83,843.215 1346.84,843.195 1348.24,838.697 1349.8,834.199 1351.33,830.147 1351.51,829.7 1353.46,825.202 1355.57,820.704 1355.83,820.18 1357.96,816.206 1360.32,812.073 1360.55,811.707 1363.5,807.209 1364.82,805.28 1366.77,802.711 1369.32,799.481 1370.44,798.213 1373.82,794.498 1374.62,793.714 1378.32,790.211 1379.51,789.216 1382.82,786.531 1385.39,784.718 1387.31,783.392 1391.81,780.748 1392.89,780.22 1396.31,778.562 1400.81,776.797 1404.33,775.721 1405.31,775.426 1409.81,774.428 1414.3,773.78 1418.8,773.463 1423.3,773.462 1427.8,773.765 1432.3,774.36 1436.8,775.24 1438.69,775.721 1441.29,776.402 1445.79,777.841 1450.29,779.556 1451.82,780.22 1454.79,781.556 1459.29,783.841 1460.86,784.718 1463.78,786.429 1468.13,789.216 1468.28,789.322 1472.78,792.562 1474.28,793.714 1477.28,796.162 1479.66,798.213 1481.78,800.158 1484.44,802.711 1486.28,804.601 1488.73,807.209 1490.77,809.558 1492.6,811.707 1495.27,815.116 1496.11,816.206 1499.3,820.704 1499.77,821.418 1502.22,825.202 1504.27,828.685 1504.87,829.7 1507.28,834.199 1508.77,837.275 1509.46,838.697 1511.44,843.195 1513.2,847.694 1513.27,847.873 1514.8,852.192 1516.21,856.69 1517.43,861.188 1517.76,862.616 1518.5,865.687 1519.4,870.185 1520.14,874.683 1520.73,879.181 1521.15,883.68 1521.42,888.178 1521.55,892.676 1521.52,897.175 1521.35,901.673 1521.03,906.171 1520.56,910.669 1519.93,915.168 1519.15,919.666 1518.2,924.164 1517.76,925.952 1517.1,928.662 1515.85,933.161 1514.41,937.659 1513.27,940.858 1512.8,942.157 1511.01,946.655 1509.02,951.154 1508.77,951.679 1506.84,955.652 1504.42,960.15 1504.27,960.417 1501.78,964.649 1499.77,967.798 1498.88,969.147 1495.7,973.645 1495.27,974.212 "/>
<polyline clip-path="url(#clip602)" style="stroke:#0b0726; stroke-linecap:round; stroke-linejoin:round; stroke-width:4; stroke-opacity:1; fill:none" points="1459.29,937.493 1459.17,937.659 1455.62,942.157 1454.79,943.125 1451.43,946.655 1450.29,947.754 1446.32,951.154 1445.79,951.578 1441.29,954.702 1439.66,955.652 1436.8,957.22 1432.3,959.186 1429.34,960.15 1427.8,960.63 1423.3,961.566 1418.8,962.012 1414.3,961.968 1409.81,961.427 1405.31,960.373 1404.68,960.15 1400.81,958.763 1396.31,956.575 1394.83,955.652 1391.81,953.733 1388.53,951.154 1387.31,950.163 1383.73,946.655 1382.82,945.719 1379.86,942.157 1378.32,940.177 1376.62,937.659 1373.82,933.205 1373.79,933.161 1371.5,928.662 1369.42,924.164 1369.32,923.92 1367.74,919.666 1366.28,915.168 1365.03,910.669 1364.82,909.765 1364.06,906.171 1363.31,901.673 1362.74,897.175 1362.37,892.676 1362.2,888.178 1362.22,883.68 1362.43,879.181 1362.84,874.683 1363.45,870.185 1364.26,865.687 1364.82,863.141 1365.3,861.188 1366.61,856.69 1368.13,852.192 1369.32,849.107 1369.93,847.694 1372.08,843.195 1373.82,839.914 1374.54,838.697 1377.47,834.199 1378.32,832.989 1380.95,829.7 1382.82,827.529 1385.13,825.202 1387.31,823.135 1390.36,820.704 1391.81,819.597 1396.31,816.789 1397.5,816.206 1400.81,814.637 1405.31,813.058 1409.81,812.013 1412.42,811.707 1414.3,811.492 1418.8,811.472 1421.11,811.707 1423.3,811.942 1427.8,812.916 1432.3,814.381 1436.5,816.206 1436.8,816.343 1441.29,818.896 1443.97,820.704 1445.79,822.028 1449.6,825.202 1450.29,825.834 1454.11,829.7 1454.79,830.456 1457.88,834.199 1459.29,836.101 1461.09,838.697 1463.78,843.063 1463.86,843.195 1466.22,847.694 1468.26,852.192 1468.28,852.244 1469.99,856.69 1471.43,861.188 1472.63,865.687 1472.78,866.422 1473.57,870.185 1474.28,874.683 1474.76,879.181 1475.02,883.68 1475.05,888.178 1474.87,892.676 1474.47,897.175 1473.84,901.673 1472.98,906.171 1472.78,907.014 1471.88,910.669 1470.53,915.168 1468.92,919.666 1468.28,921.194 1467,924.164 1464.77,928.662 1463.78,930.431 1462.17,933.161 1459.29,937.493 "/>
<polyline clip-path="url(#clip602)" style="stroke:#f7850e; stroke-linecap:round; stroke-linejoin:round; stroke-width:4; stroke-opacity:1; fill:none" points="1190.01,838.697 1190.67,843.195 1191.26,847.694 1191.79,852.192 1192.26,856.69 1192.66,861.188 1192.99,865.687 1193.27,870.185 1193.48,874.683 1193.63,879.181 1193.72,883.68 1193.75,888.178 1193.71,892.676 1193.62,897.175 1193.46,901.673 1193.25,906.171 1192.97,910.669 1192.63,915.168 1192.24,919.666 1191.78,924.164 1191.26,928.662 1190.68,933.161 1190.03,937.659 1189.39,941.747 1189.32,942.157 1188.55,946.655 1187.71,951.154 1186.8,955.652 1185.83,960.15 1184.89,964.219 1184.79,964.649 1183.67,969.147 1182.48,973.645 1181.23,978.143 1180.39,981.006 1179.9,982.642 1178.48,987.14 1176.99,991.638 1175.9,994.821 1175.42,996.136 1173.76,1000.63 1172.02,1005.13 1171.4,1006.7 1170.18,1009.63 1168.25,1014.13 1166.9,1017.17 1166.22,1018.63 1164.08,1023.13 1162.4,1026.56 1161.85,1027.62 1159.5,1032.12 1157.9,1035.09 1157.03,1036.62 1154.44,1041.12 1153.4,1042.89 1151.71,1045.62 1148.91,1050.07 1148.87,1050.12 1145.85,1054.61 1144.41,1056.72 1142.68,1059.11 1139.91,1062.9 1139.36,1063.61 1135.84,1068.11 1135.41,1068.66 1132.12,1072.61 1130.91,1074.05 1128.19,1077.11 1126.41,1079.09 1124.03,1081.6 1121.92,1083.82 1119.6,1086.1 1117.42,1088.26 1114.89,1090.6 1112.92,1092.43 1109.85,1095.1 1108.42,1096.35 1104.45,1099.6 1103.92,1100.03 1099.42,1103.49 1098.59,1104.09 1094.93,1106.75 1092.2,1108.59 1090.43,1109.81 1085.93,1112.67 1085.21,1113.09 1081.43,1115.36 1077.42,1117.59 1076.93,1117.86 1072.44,1120.21 1068.55,1122.09 1067.94,1122.39 1063.44,1124.42 1058.94,1126.29 1058.15,1126.59 1054.44,1128.02 1049.94,1129.6 1045.45,1131.04 1045.29,1131.08 1040.95,1132.35 1036.45,1133.52 1031.95,1134.56 1027.45,1135.46 1026.74,1135.58 1022.95,1136.24 1018.46,1136.89 1013.96,1137.42 1009.46,1137.81 1004.96,1138.08 1000.46,1138.23 995.965,1138.25 991.466,1138.15 986.968,1137.92 982.47,1137.57 977.972,1137.08 973.473,1136.47 968.975,1135.74 968.172,1135.58 964.477,1134.86 959.979,1133.86 955.48,1132.72 950.982,1131.44 949.839,1131.08 946.484,1130.01 941.985,1128.45 937.487,1126.73 937.121,1126.59 932.989,1124.86 928.491,1122.83 926.926,1122.09 923.992,1120.64 919.494,1118.28 918.244,1117.59 914.996,1115.73 910.62,1113.09 910.498,1113.01 905.999,1110.09 903.798,1108.59 901.501,1106.96 897.602,1104.09 897.003,1103.63 892.504,1100.07 891.92,1099.6 888.006,1096.27 886.669,1095.1 883.508,1092.21 881.788,1090.6 879.01,1087.88 877.229,1086.1 874.511,1083.26 872.954,1081.6 870.013,1078.33 868.932,1077.11 865.515,1073.06 865.139,1072.61 861.55,1068.11 861.017,1067.41 858.147,1063.61 856.518,1061.35 854.921,1059.11 852.02,1054.85 851.862,1054.61 848.942,1050.12 847.522,1047.81 846.169,1045.62 843.531,1041.12 843.023,1040.21 841.012,1036.62 838.623,1032.12 838.525,1031.93 836.336,1027.62 834.172,1023.13 834.027,1022.81 832.101,1018.63 830.143,1014.13 829.529,1012.64 828.279,1009.63 826.514,1005.13 825.03,1001.12 824.851,1000.63 823.269,996.136 821.786,991.638 820.532,987.571 820.398,987.14 819.086,982.642 817.868,978.143 816.742,973.645 816.034,970.58 815.7,969.147 814.735,964.649 813.859,960.15 813.069,955.652 812.365,951.154 811.746,946.655 811.536,944.896 811.204,942.157 810.743,937.659 810.366,933.161 810.072,928.662 809.861,924.164 809.733,919.666 809.688,915.168 809.725,910.669 809.847,906.171 810.052,901.673 810.342,897.175 810.717,892.676 811.179,888.178 811.536,885.257 811.725,883.68 812.351,879.181 813.067,874.683 813.873,870.185 814.773,865.687 815.768,861.188 816.034,860.087 816.844,856.69 818.015,852.192 819.288,847.694 820.532,843.63 820.664,843.195 822.123,838.697 823.695,834.199 825.03,830.629 825.375,829.7 827.149,825.202 829.048,820.704 829.529,819.628 831.048,816.206 833.174,811.707 834.027,809.999 835.415,807.209 837.787,802.711 838.525,801.382 840.282,798.213 842.926,793.714 843.023,793.555 845.693,789.216 847.522,786.404 848.62,784.718 851.704,780.22 852.02,779.779 854.942,775.721 856.518,773.64 858.358,771.223 861.017,767.898 861.962,766.725 865.515,762.516 865.762,762.226 869.768,757.728 870.013,757.464 873.998,753.23 874.511,752.708 878.475,748.732 879.01,748.217 883.221,744.233 883.508,743.973 888.006,739.957 888.26,739.735 892.504,736.157 893.623,735.237 897.003,732.554 899.354,730.739 901.501,729.138 905.508,726.24 905.999,725.896 910.498,722.826 912.14,721.742 914.996,719.915 919.345,717.244 919.494,717.155 923.992,714.543 927.238,712.745 928.491,712.071 932.989,709.734 935.996,708.247 937.487,707.528 941.985,705.449 945.885,703.749 946.484,703.494 950.982,701.655 955.48,699.937 957.379,699.251 959.979,698.33 964.477,696.833 968.975,695.449 971.407,694.752 973.473,694.17 977.972,692.993 982.47,691.923 986.968,690.957 990.618,690.254 991.466,690.093 995.965,689.321 1000.46,688.65 1004.96,688.079 1009.46,687.606 1013.96,687.231 1018.46,686.953 1022.95,686.772 1027.45,686.687 1031.95,686.698 1036.45,686.806 1040.95,687.01 1045.45,687.313 1049.94,687.715 1054.44,688.218 1058.94,688.825 1063.44,689.54 1067.32,690.254 1067.94,690.362 1072.44,691.276 1076.93,692.308 1081.43,693.465 1085.92,694.752 1085.93,694.755 1090.43,696.146 1094.93,697.689 1099.04,699.251 1099.42,699.394 1103.92,701.233 1108.42,703.273 1109.37,703.749 1112.92,705.491 1117.42,707.948 1117.91,708.247 1121.92,710.635 1125.09,712.745 1126.41,713.62 1130.91,716.93 1131.3,717.244 1135.41,720.609 1136.66,721.742 1139.91,724.728 1141.4,726.24 1144.41,729.353 1145.63,730.739 1148.91,734.561 1149.44,735.237 1152.88,739.735 1153.4,740.434 1156.02,744.233 1157.9,747.068 1158.93,748.732 1161.62,753.23 1162.4,754.57 1164.12,757.728 1166.47,762.226 1166.9,763.07 1168.65,766.725 1170.72,771.223 1171.4,772.748 1172.65,775.721 1174.47,780.22 1175.9,783.893 1176.2,784.718 1177.81,789.216 1179.33,793.714 1180.39,797.011 1180.77,798.213 1182.1,802.711 1183.36,807.209 1184.54,811.707 1184.89,813.118 1185.64,816.206 1186.65,820.704 1187.6,825.202 1188.47,829.7 1189.28,834.199 1189.39,834.879 1190.01,838.697 "/>
<polyline clip-path="url(#clip602)" style="stroke:#fba40a; stroke-linecap:round; stroke-linejoin:round; stroke-width:4; stroke-opacity:1; fill:none" points="1172.01,838.697 1172.96,843.195 1173.8,847.694 1174.55,852.192 1175.21,856.69 1175.78,861.188 1175.9,862.253 1176.25,865.687 1176.63,870.185 1176.93,874.683 1177.14,879.181 1177.26,883.68 1177.3,888.178 1177.26,892.676 1177.13,897.175 1176.91,901.673 1176.62,906.171 1176.24,910.669 1175.9,914.012 1175.77,915.168 1175.21,919.666 1174.57,924.164 1173.84,928.662 1173.02,933.161 1172.12,937.659 1171.4,940.969 1171.13,942.157 1170.02,946.655 1168.83,951.154 1167.54,955.652 1166.9,957.788 1166.15,960.15 1164.64,964.649 1163.04,969.147 1162.4,970.87 1161.31,973.645 1159.46,978.143 1157.9,981.779 1157.51,982.642 1155.39,987.14 1153.4,991.201 1153.18,991.638 1150.77,996.136 1148.91,999.51 1148.24,1000.63 1145.52,1005.13 1144.41,1006.94 1142.63,1009.63 1139.91,1013.66 1139.56,1014.13 1136.25,1018.63 1135.41,1019.76 1132.7,1023.13 1130.91,1025.33 1128.89,1027.62 1126.41,1030.43 1124.79,1032.12 1121.92,1035.11 1120.34,1036.62 1117.42,1039.42 1115.48,1041.12 1112.92,1043.38 1110.13,1045.62 1108.42,1047.01 1104.22,1050.12 1103.92,1050.34 1099.42,1053.39 1097.43,1054.61 1094.93,1056.17 1090.43,1058.69 1089.58,1059.11 1085.93,1060.97 1081.43,1063.01 1079.91,1063.61 1076.93,1064.82 1072.44,1066.4 1067.94,1067.77 1066.57,1068.11 1063.44,1068.91 1058.94,1069.84 1054.44,1070.56 1049.94,1071.07 1045.45,1071.37 1040.95,1071.45 1036.45,1071.32 1031.95,1070.97 1027.45,1070.4 1022.95,1069.6 1018.46,1068.58 1016.75,1068.11 1013.96,1067.31 1009.46,1065.8 1004.96,1064.05 1003.96,1063.61 1000.46,1062.02 995.965,1059.74 994.819,1059.11 991.466,1057.18 987.394,1054.61 986.968,1054.33 982.47,1051.18 981.045,1050.12 977.972,1047.72 975.434,1045.62 973.473,1043.92 970.382,1041.12 968.975,1039.79 965.775,1036.62 964.477,1035.28 961.535,1032.12 959.979,1030.38 957.604,1027.62 955.48,1025.04 953.943,1023.13 950.982,1019.24 950.522,1018.63 947.315,1014.13 946.484,1012.91 944.302,1009.63 941.985,1005.96 941.475,1005.13 938.812,1000.63 937.487,998.264 936.311,996.136 933.962,991.638 932.989,989.662 931.756,987.14 929.69,982.642 928.491,979.85 927.76,978.143 925.954,973.645 924.285,969.147 923.992,968.301 922.727,964.649 921.294,960.15 919.987,955.652 919.494,953.796 918.788,951.154 917.702,946.655 916.733,942.157 915.881,937.659 915.143,933.161 914.996,932.113 914.505,928.662 913.978,924.164 913.561,919.666 913.255,915.168 913.059,910.669 912.973,906.171 912.998,901.673 913.133,897.175 913.38,892.676 913.741,888.178 914.216,883.68 914.81,879.181 914.996,878.004 915.51,874.683 916.325,870.185 917.266,865.687 918.335,861.188 919.494,856.853 919.537,856.69 920.846,852.192 922.297,847.694 923.899,843.195 923.992,842.955 925.618,838.697 927.499,834.199 928.491,832.01 929.527,829.7 931.714,825.202 932.989,822.774 934.069,820.704 936.599,816.206 937.487,814.734 939.308,811.707 941.985,807.582 942.228,807.209 945.339,802.711 946.484,801.164 948.679,798.213 950.982,795.317 952.267,793.714 955.48,789.957 956.122,789.216 959.979,785.025 960.266,784.718 964.477,780.471 964.731,780.22 968.975,776.253 969.558,775.721 973.473,772.336 974.801,771.223 977.972,768.694 980.533,766.725 982.47,765.303 986.848,762.226 986.968,762.146 991.466,759.214 993.871,757.728 995.965,756.486 1000.46,753.954 1001.82,753.23 1004.96,751.609 1009.46,749.444 1011.03,748.732 1013.96,747.448 1018.46,745.619 1022.18,744.233 1022.95,743.954 1027.45,742.44 1031.95,741.084 1036.45,739.885 1037.08,739.735 1040.95,738.828 1045.45,737.922 1049.94,737.17 1054.44,736.572 1058.94,736.13 1063.44,735.847 1067.94,735.727 1072.44,735.777 1076.93,736.005 1081.43,736.422 1085.93,737.042 1090.43,737.879 1094.93,738.953 1097.57,739.735 1099.42,740.278 1103.92,741.876 1108.42,743.786 1109.32,744.233 1112.92,746.024 1117.42,748.637 1117.56,748.732 1121.92,751.651 1123.98,753.23 1126.41,755.117 1129.4,757.728 1130.91,759.08 1134.07,762.226 1135.41,763.59 1138.19,766.725 1139.91,768.709 1141.89,771.223 1144.41,774.515 1145.26,775.721 1148.32,780.22 1148.91,781.106 1151.12,784.718 1153.4,788.627 1153.73,789.216 1156.1,793.714 1157.9,797.299 1158.33,798.213 1160.37,802.711 1162.29,807.209 1162.4,807.481 1164.03,811.707 1165.66,816.206 1166.9,819.862 1167.17,820.704 1168.54,825.202 1169.8,829.7 1170.97,834.199 1171.4,836.003 1172.01,838.697 "/>
<polyline clip-path="url(#clip602)" style="stroke:#f9c52c; stroke-linecap:round; stroke-linejoin:round; stroke-width:4; stroke-opacity:1; fill:none" points="1154.61,847.694 1155.68,852.192 1156.62,856.69 1157.43,861.188 1157.9,864.316 1158.1,865.687 1158.63,870.185 1159.03,874.683 1159.32,879.181 1159.48,883.68 1159.52,888.178 1159.44,892.676 1159.25,897.175 1158.94,901.673 1158.5,906.171 1157.95,910.669 1157.9,911.009 1157.26,915.168 1156.43,919.666 1155.49,924.164 1154.42,928.662 1153.4,932.5 1153.22,933.161 1151.83,937.659 1150.32,942.157 1148.91,946.052 1148.67,946.655 1146.8,951.154 1144.79,955.652 1144.41,956.48 1142.54,960.15 1140.13,964.649 1139.91,965.053 1137.42,969.147 1135.41,972.317 1134.48,973.645 1131.25,978.143 1130.91,978.596 1127.6,982.642 1126.41,984.069 1123.55,987.14 1121.92,988.868 1118.96,991.638 1117.42,993.082 1113.7,996.136 1112.92,996.774 1108.42,999.996 1107.38,1000.63 1103.92,1002.79 1099.49,1005.13 1099.42,1005.17 1094.93,1007.17 1090.43,1008.81 1087.52,1009.63 1085.93,1010.09 1081.43,1011.04 1076.93,1011.66 1072.44,1011.95 1067.94,1011.91 1063.44,1011.56 1058.94,1010.88 1054.44,1009.88 1053.6,1009.63 1049.94,1008.55 1045.45,1006.89 1041.47,1005.13 1040.95,1004.89 1036.45,1002.55 1033.25,1000.63 1031.95,999.83 1027.45,996.732 1026.66,996.136 1022.95,993.225 1021.1,991.638 1018.46,989.273 1016.23,987.14 1013.96,984.833 1011.92,982.642 1009.46,979.841 1008.04,978.143 1004.96,974.212 1004.53,973.645 1001.35,969.147 1000.46,967.798 998.449,964.649 995.965,960.417 995.811,960.15 993.398,955.652 991.466,951.679 991.215,951.154 989.222,946.655 987.436,942.157 986.968,940.858 985.822,937.659 984.386,933.161 983.129,928.662 982.47,925.952 982.032,924.164 981.087,919.666 980.303,915.168 979.677,910.669 979.204,906.171 978.882,901.673 978.709,897.175 978.685,892.676 978.809,888.178 979.083,883.68 979.509,879.181 980.09,874.683 980.83,870.185 981.736,865.687 982.47,862.616 982.803,861.188 984.024,856.69 985.43,852.192 986.968,847.873 987.031,847.694 988.792,843.195 990.774,838.697 991.466,837.275 992.954,834.199 995.369,829.7 995.965,828.685 998.011,825.202 1000.46,821.418 1000.93,820.704 1004.12,816.206 1004.96,815.116 1007.63,811.707 1009.46,809.558 1011.51,807.209 1013.96,804.601 1015.79,802.711 1018.46,800.158 1020.57,798.213 1022.95,796.162 1025.95,793.714 1027.45,792.562 1031.95,789.322 1032.11,789.216 1036.45,786.429 1039.38,784.718 1040.95,783.841 1045.45,781.556 1048.41,780.22 1049.94,779.556 1054.44,777.841 1058.94,776.402 1061.55,775.721 1063.44,775.24 1067.94,774.36 1072.44,773.765 1076.93,773.462 1081.43,773.463 1085.93,773.78 1090.43,774.428 1094.93,775.426 1095.9,775.721 1099.42,776.797 1103.92,778.562 1107.34,780.22 1108.42,780.748 1112.92,783.392 1114.84,784.718 1117.42,786.531 1120.72,789.216 1121.92,790.211 1125.61,793.714 1126.41,794.498 1129.8,798.213 1130.91,799.481 1133.47,802.711 1135.41,805.28 1136.74,807.209 1139.68,811.707 1139.91,812.073 1142.28,816.206 1144.41,820.18 1144.67,820.704 1146.78,825.202 1148.73,829.7 1148.91,830.147 1150.44,834.199 1151.99,838.697 1153.4,843.195 1153.4,843.215 1154.61,847.694 "/>
<polyline clip-path="url(#clip602)" style="stroke:#f2e660; stroke-linecap:round; stroke-linejoin:round; stroke-width:4; stroke-opacity:1; fill:none" points="1135.98,865.687 1136.78,870.185 1137.39,874.683 1137.8,879.181 1138.02,883.68 1138.04,888.178 1137.86,892.676 1137.49,897.175 1136.93,901.673 1136.17,906.171 1135.41,909.765 1135.2,910.669 1133.95,915.168 1132.49,919.666 1130.91,923.92 1130.81,924.164 1128.74,928.662 1126.44,933.161 1126.41,933.205 1123.62,937.659 1121.92,940.177 1120.37,942.157 1117.42,945.719 1116.5,946.655 1112.92,950.163 1111.7,951.154 1108.42,953.733 1105.41,955.652 1103.92,956.575 1099.42,958.763 1095.55,960.15 1094.93,960.373 1090.43,961.427 1085.93,961.968 1081.43,962.012 1076.93,961.566 1072.44,960.63 1070.9,960.15 1067.94,959.186 1063.44,957.22 1060.58,955.652 1058.94,954.702 1054.44,951.578 1053.91,951.154 1049.94,947.754 1048.81,946.655 1045.45,943.125 1044.61,942.157 1041.07,937.659 1040.95,937.493 1038.06,933.161 1036.45,930.431 1035.46,928.662 1033.23,924.164 1031.95,921.194 1031.32,919.666 1029.7,915.168 1028.35,910.669 1027.45,907.014 1027.25,906.171 1026.39,901.673 1025.77,897.175 1025.36,892.676 1025.18,888.178 1025.22,883.68 1025.48,879.181 1025.96,874.683 1026.66,870.185 1027.45,866.422 1027.61,865.687 1028.8,861.188 1030.25,856.69 1031.95,852.244 1031.97,852.192 1034.01,847.694 1036.37,843.195 1036.45,843.063 1039.14,838.697 1040.95,836.101 1042.36,834.199 1045.45,830.456 1046.12,829.7 1049.94,825.834 1050.64,825.202 1054.44,822.028 1056.26,820.704 1058.94,818.896 1063.44,816.343 1063.74,816.206 1067.94,814.381 1072.44,812.916 1076.93,811.942 1079.13,811.707 1081.43,811.472 1085.93,811.492 1087.82,811.707 1090.43,812.013 1094.93,813.058 1099.42,814.637 1102.74,816.206 1103.92,816.789 1108.42,819.597 1109.87,820.704 1112.92,823.135 1115.1,825.202 1117.42,827.529 1119.28,829.7 1121.92,832.989 1122.77,834.199 1125.69,838.697 1126.41,839.914 1128.15,843.195 1130.31,847.694 1130.91,849.107 1132.1,852.192 1133.63,856.69 1134.94,861.188 1135.41,863.141 1135.98,865.687 "/>
</svg>
