<?xml version="1.0" encoding="utf-8"?>
<svg xmlns="http://www.w3.org/2000/svg" xmlns:xlink="http://www.w3.org/1999/xlink" width="600" height="400" viewBox="0 0 2400 1600">
<defs>
  <clipPath id="clip310">
    <rect x="0" y="0" width="2400" height="1600"/>
  </clipPath>
</defs>
<path clip-path="url(#clip310)" d="M0 1600 L2400 1600 L2400 0 L0 0  Z" fill="#ffffff" fill-rule="evenodd" fill-opacity="1"/>
<defs>
  <clipPath id="clip311">
    <rect x="480" y="0" width="1681" height="1600"/>
  </clipPath>
</defs>
<path clip-path="url(#clip310)" d="M223.103 1423.18 L2352.76 1423.18 L2352.76 47.2441 L223.103 47.2441  Z" fill="#ffffff" fill-rule="evenodd" fill-opacity="1"/>
<defs>
  <clipPath id="clip312">
    <rect x="223" y="47" width="2131" height="1377"/>
  </clipPath>
</defs>
<polyline clip-path="url(#clip312)" style="stroke:#000000; stroke-linecap:round; stroke-linejoin:round; stroke-width:2; stroke-opacity:0.1; fill:none" points="283.376,1423.18 283.376,47.2441 "/>
<polyline clip-path="url(#clip312)" style="stroke:#000000; stroke-linecap:round; stroke-linejoin:round; stroke-width:2; stroke-opacity:0.1; fill:none" points="684.395,1423.18 684.395,47.2441 "/>
<polyline clip-path="url(#clip312)" style="stroke:#000000; stroke-linecap:round; stroke-linejoin:round; stroke-width:2; stroke-opacity:0.1; fill:none" points="1085.41,1423.18 1085.41,47.2441 "/>
<polyline clip-path="url(#clip312)" style="stroke:#000000; stroke-linecap:round; stroke-linejoin:round; stroke-width:2; stroke-opacity:0.1; fill:none" points="1486.43,1423.18 1486.43,47.2441 "/>
<polyline clip-path="url(#clip312)" style="stroke:#000000; stroke-linecap:round; stroke-linejoin:round; stroke-width:2; stroke-opacity:0.1; fill:none" points="1887.45,1423.18 1887.45,47.2441 "/>
<polyline clip-path="url(#clip312)" style="stroke:#000000; stroke-linecap:round; stroke-linejoin:round; stroke-width:2; stroke-opacity:0.1; fill:none" points="2288.47,1423.18 2288.47,47.2441 "/>
<polyline clip-path="url(#clip310)" style="stroke:#000000; stroke-linecap:round; stroke-linejoin:round; stroke-width:4; stroke-opacity:1; fill:none" points="223.103,1423.18 2352.76,1423.18 "/>
<polyline clip-path="url(#clip310)" style="stroke:#000000; stroke-linecap:round; stroke-linejoin:round; stroke-width:4; stroke-opacity:1; fill:none" points="283.376,1423.18 283.376,1404.28 "/>
<polyline clip-path="url(#clip310)" style="stroke:#000000; stroke-linecap:round; stroke-linejoin:round; stroke-width:4; stroke-opacity:1; fill:none" points="684.395,1423.18 684.395,1404.28 "/>
<polyline clip-path="url(#clip310)" style="stroke:#000000; stroke-linecap:round; stroke-linejoin:round; stroke-width:4; stroke-opacity:1; fill:none" points="1085.41,1423.18 1085.41,1404.28 "/>
<polyline clip-path="url(#clip310)" style="stroke:#000000; stroke-linecap:round; stroke-linejoin:round; stroke-width:4; stroke-opacity:1; fill:none" points="1486.43,1423.18 1486.43,1404.28 "/>
<polyline clip-path="url(#clip310)" style="stroke:#000000; stroke-linecap:round; stroke-linejoin:round; stroke-width:4; stroke-opacity:1; fill:none" points="1887.45,1423.18 1887.45,1404.28 "/>
<polyline clip-path="url(#clip310)" style="stroke:#000000; stroke-linecap:round; stroke-linejoin:round; stroke-width:4; stroke-opacity:1; fill:none" points="2288.47,1423.18 2288.47,1404.28 "/>
<path clip-path="url(#clip310)" d="M260.76 1454.1 Q257.149 1454.1 255.32 1457.66 Q253.515 1461.2 253.515 1468.33 Q253.515 1475.44 255.32 1479.01 Q257.149 1482.55 260.76 1482.55 Q264.394 1482.55 266.2 1479.01 Q268.029 1475.44 268.029 1468.33 Q268.029 1461.2 266.2 1457.66 Q264.394 1454.1 260.76 1454.1 M260.76 1450.39 Q266.57 1450.39 269.626 1455 Q272.704 1459.58 272.704 1468.33 Q272.704 1477.06 269.626 1481.67 Q266.57 1486.25 260.76 1486.25 Q254.95 1486.25 251.871 1481.67 Q248.816 1477.06 248.816 1468.33 Q248.816 1459.58 251.871 1455 Q254.95 1450.39 260.76 1450.39 Z" fill="#000000" fill-rule="nonzero" fill-opacity="1" /><path clip-path="url(#clip310)" d="M280.922 1479.7 L285.806 1479.7 L285.806 1485.58 L280.922 1485.58 L280.922 1479.7 Z" fill="#000000" fill-rule="nonzero" fill-opacity="1" /><path clip-path="url(#clip310)" d="M305.991 1454.1 Q302.38 1454.1 300.552 1457.66 Q298.746 1461.2 298.746 1468.33 Q298.746 1475.44 300.552 1479.01 Q302.38 1482.55 305.991 1482.55 Q309.626 1482.55 311.431 1479.01 Q313.26 1475.44 313.26 1468.33 Q313.26 1461.2 311.431 1457.66 Q309.626 1454.1 305.991 1454.1 M305.991 1450.39 Q311.801 1450.39 314.857 1455 Q317.936 1459.58 317.936 1468.33 Q317.936 1477.06 314.857 1481.67 Q311.801 1486.25 305.991 1486.25 Q300.181 1486.25 297.102 1481.67 Q294.047 1477.06 294.047 1468.33 Q294.047 1459.58 297.102 1455 Q300.181 1450.39 305.991 1450.39 Z" fill="#000000" fill-rule="nonzero" fill-opacity="1" /><path clip-path="url(#clip310)" d="M662.277 1454.1 Q658.666 1454.1 656.837 1457.66 Q655.032 1461.2 655.032 1468.33 Q655.032 1475.44 656.837 1479.01 Q658.666 1482.55 662.277 1482.55 Q665.911 1482.55 667.717 1479.01 Q669.546 1475.44 669.546 1468.33 Q669.546 1461.2 667.717 1457.66 Q665.911 1454.1 662.277 1454.1 M662.277 1450.39 Q668.087 1450.39 671.143 1455 Q674.222 1459.58 674.222 1468.33 Q674.222 1477.06 671.143 1481.67 Q668.087 1486.25 662.277 1486.25 Q656.467 1486.25 653.388 1481.67 Q650.333 1477.06 650.333 1468.33 Q650.333 1459.58 653.388 1455 Q656.467 1450.39 662.277 1450.39 Z" fill="#000000" fill-rule="nonzero" fill-opacity="1" /><path clip-path="url(#clip310)" d="M682.439 1479.7 L687.323 1479.7 L687.323 1485.58 L682.439 1485.58 L682.439 1479.7 Z" fill="#000000" fill-rule="nonzero" fill-opacity="1" /><path clip-path="url(#clip310)" d="M697.555 1451.02 L715.911 1451.02 L715.911 1454.96 L701.837 1454.96 L701.837 1463.43 Q702.856 1463.08 703.874 1462.92 Q704.893 1462.73 705.911 1462.73 Q711.698 1462.73 715.078 1465.9 Q718.457 1469.08 718.457 1474.49 Q718.457 1480.07 714.985 1483.17 Q711.513 1486.25 705.194 1486.25 Q703.018 1486.25 700.749 1485.88 Q698.504 1485.51 696.096 1484.77 L696.096 1480.07 Q698.18 1481.2 700.402 1481.76 Q702.624 1482.32 705.101 1482.32 Q709.106 1482.32 711.444 1480.21 Q713.781 1478.1 713.781 1474.49 Q713.781 1470.88 711.444 1468.77 Q709.106 1466.67 705.101 1466.67 Q703.226 1466.67 701.351 1467.08 Q699.499 1467.5 697.555 1468.38 L697.555 1451.02 Z" fill="#000000" fill-rule="nonzero" fill-opacity="1" /><path clip-path="url(#clip310)" d="M1052.57 1481.64 L1060.21 1481.64 L1060.21 1455.28 L1051.9 1456.95 L1051.9 1452.69 L1060.16 1451.02 L1064.84 1451.02 L1064.84 1481.64 L1072.47 1481.64 L1072.47 1485.58 L1052.57 1485.58 L1052.57 1481.64 Z" fill="#000000" fill-rule="nonzero" fill-opacity="1" /><path clip-path="url(#clip310)" d="M1081.92 1479.7 L1086.8 1479.7 L1086.8 1485.58 L1081.92 1485.58 L1081.92 1479.7 Z" fill="#000000" fill-rule="nonzero" fill-opacity="1" /><path clip-path="url(#clip310)" d="M1106.99 1454.1 Q1103.38 1454.1 1101.55 1457.66 Q1099.74 1461.2 1099.74 1468.33 Q1099.74 1475.44 1101.55 1479.01 Q1103.38 1482.55 1106.99 1482.55 Q1110.62 1482.55 1112.43 1479.01 Q1114.26 1475.44 1114.26 1468.33 Q1114.26 1461.2 1112.43 1457.66 Q1110.62 1454.1 1106.99 1454.1 M1106.99 1450.39 Q1112.8 1450.39 1115.85 1455 Q1118.93 1459.58 1118.93 1468.33 Q1118.93 1477.06 1115.85 1481.67 Q1112.8 1486.25 1106.99 1486.25 Q1101.18 1486.25 1098.1 1481.67 Q1095.04 1477.06 1095.04 1468.33 Q1095.04 1459.58 1098.1 1455 Q1101.18 1450.39 1106.99 1450.39 Z" fill="#000000" fill-rule="nonzero" fill-opacity="1" /><path clip-path="url(#clip310)" d="M1454.08 1481.64 L1461.72 1481.64 L1461.72 1455.28 L1453.41 1456.95 L1453.41 1452.69 L1461.68 1451.02 L1466.35 1451.02 L1466.35 1481.64 L1473.99 1481.64 L1473.99 1485.58 L1454.08 1485.58 L1454.08 1481.64 Z" fill="#000000" fill-rule="nonzero" fill-opacity="1" /><path clip-path="url(#clip310)" d="M1483.44 1479.7 L1488.32 1479.7 L1488.32 1485.58 L1483.44 1485.58 L1483.44 1479.7 Z" fill="#000000" fill-rule="nonzero" fill-opacity="1" /><path clip-path="url(#clip310)" d="M1498.55 1451.02 L1516.91 1451.02 L1516.91 1454.96 L1502.83 1454.96 L1502.83 1463.43 Q1503.85 1463.08 1504.87 1462.92 Q1505.89 1462.73 1506.91 1462.73 Q1512.7 1462.73 1516.07 1465.9 Q1519.45 1469.08 1519.45 1474.49 Q1519.45 1480.07 1515.98 1483.17 Q1512.51 1486.25 1506.19 1486.25 Q1504.01 1486.25 1501.75 1485.88 Q1499.5 1485.51 1497.09 1484.77 L1497.09 1480.07 Q1499.18 1481.2 1501.4 1481.76 Q1503.62 1482.32 1506.1 1482.32 Q1510.1 1482.32 1512.44 1480.21 Q1514.78 1478.1 1514.78 1474.49 Q1514.78 1470.88 1512.44 1468.77 Q1510.1 1466.67 1506.1 1466.67 Q1504.22 1466.67 1502.35 1467.08 Q1500.5 1467.5 1498.55 1468.38 L1498.55 1451.02 Z" fill="#000000" fill-rule="nonzero" fill-opacity="1" /><path clip-path="url(#clip310)" d="M1858.69 1481.64 L1875.01 1481.64 L1875.01 1485.58 L1853.07 1485.58 L1853.07 1481.64 Q1855.73 1478.89 1860.31 1474.26 Q1864.92 1469.61 1866.1 1468.27 Q1868.34 1465.74 1869.22 1464.01 Q1870.13 1462.25 1870.13 1460.56 Q1870.13 1457.8 1868.18 1456.07 Q1866.26 1454.33 1863.16 1454.33 Q1860.96 1454.33 1858.51 1455.09 Q1856.08 1455.86 1853.3 1457.41 L1853.3 1452.69 Q1856.12 1451.55 1858.58 1450.97 Q1861.03 1450.39 1863.07 1450.39 Q1868.44 1450.39 1871.63 1453.08 Q1874.83 1455.77 1874.83 1460.26 Q1874.83 1462.39 1874.02 1464.31 Q1873.23 1466.2 1871.12 1468.8 Q1870.54 1469.47 1867.44 1472.69 Q1864.34 1475.88 1858.69 1481.64 Z" fill="#000000" fill-rule="nonzero" fill-opacity="1" /><path clip-path="url(#clip310)" d="M1884.83 1479.7 L1889.71 1479.7 L1889.71 1485.58 L1884.83 1485.58 L1884.83 1479.7 Z" fill="#000000" fill-rule="nonzero" fill-opacity="1" /><path clip-path="url(#clip310)" d="M1909.9 1454.1 Q1906.28 1454.1 1904.46 1457.66 Q1902.65 1461.2 1902.65 1468.33 Q1902.65 1475.44 1904.46 1479.01 Q1906.28 1482.55 1909.9 1482.55 Q1913.53 1482.55 1915.33 1479.01 Q1917.16 1475.44 1917.16 1468.33 Q1917.16 1461.2 1915.33 1457.66 Q1913.53 1454.1 1909.9 1454.1 M1909.9 1450.39 Q1915.71 1450.39 1918.76 1455 Q1921.84 1459.58 1921.84 1468.33 Q1921.84 1477.06 1918.76 1481.67 Q1915.71 1486.25 1909.9 1486.25 Q1904.09 1486.25 1901.01 1481.67 Q1897.95 1477.06 1897.95 1468.33 Q1897.95 1459.58 1901.01 1455 Q1904.09 1450.39 1909.9 1450.39 Z" fill="#000000" fill-rule="nonzero" fill-opacity="1" /><path clip-path="url(#clip310)" d="M2260.21 1481.64 L2276.53 1481.64 L2276.53 1485.58 L2254.58 1485.58 L2254.58 1481.64 Q2257.25 1478.89 2261.83 1474.26 Q2266.44 1469.61 2267.62 1468.27 Q2269.86 1465.74 2270.74 1464.01 Q2271.64 1462.25 2271.64 1460.56 Q2271.64 1457.8 2269.7 1456.07 Q2267.78 1454.33 2264.68 1454.33 Q2262.48 1454.33 2260.02 1455.09 Q2257.59 1455.86 2254.82 1457.41 L2254.82 1452.69 Q2257.64 1451.55 2260.09 1450.97 Q2262.55 1450.39 2264.58 1450.39 Q2269.95 1450.39 2273.15 1453.08 Q2276.34 1455.77 2276.34 1460.26 Q2276.34 1462.39 2275.53 1464.31 Q2274.75 1466.2 2272.64 1468.8 Q2272.06 1469.47 2268.96 1472.69 Q2265.86 1475.88 2260.21 1481.64 Z" fill="#000000" fill-rule="nonzero" fill-opacity="1" /><path clip-path="url(#clip310)" d="M2286.34 1479.7 L2291.23 1479.7 L2291.23 1485.58 L2286.34 1485.58 L2286.34 1479.7 Z" fill="#000000" fill-rule="nonzero" fill-opacity="1" /><path clip-path="url(#clip310)" d="M2301.46 1451.02 L2319.81 1451.02 L2319.81 1454.96 L2305.74 1454.96 L2305.74 1463.43 Q2306.76 1463.08 2307.78 1462.92 Q2308.8 1462.73 2309.81 1462.73 Q2315.6 1462.73 2318.98 1465.9 Q2322.36 1469.08 2322.36 1474.49 Q2322.36 1480.07 2318.89 1483.17 Q2315.42 1486.25 2309.1 1486.25 Q2306.92 1486.25 2304.65 1485.88 Q2302.41 1485.51 2300 1484.77 L2300 1480.07 Q2302.08 1481.2 2304.31 1481.76 Q2306.53 1482.32 2309 1482.32 Q2313.01 1482.32 2315.35 1480.21 Q2317.69 1478.1 2317.69 1474.49 Q2317.69 1470.88 2315.35 1468.77 Q2313.01 1466.67 2309 1466.67 Q2307.13 1466.67 2305.25 1467.08 Q2303.4 1467.5 2301.46 1468.38 L2301.46 1451.02 Z" fill="#000000" fill-rule="nonzero" fill-opacity="1" /><path clip-path="url(#clip310)" d="M1296.4 1531.91 Q1296.4 1532.81 1295.98 1533.04 Q1295.56 1533.23 1294.4 1533.23 L1288.22 1533.23 L1283.32 1552.69 Q1282.94 1554.39 1282.94 1555.84 Q1282.94 1557.45 1283.42 1558.16 Q1283.94 1558.87 1285 1558.87 Q1287.09 1558.87 1289.35 1556.97 Q1291.63 1555.07 1293.57 1550.43 Q1293.82 1549.82 1293.95 1549.69 Q1294.11 1549.53 1294.53 1549.53 Q1295.34 1549.53 1295.34 1550.17 Q1295.34 1550.4 1294.89 1551.43 Q1294.47 1552.46 1293.53 1553.97 Q1292.63 1555.49 1291.44 1556.9 Q1290.28 1558.32 1288.51 1559.35 Q1286.74 1560.35 1284.84 1560.35 Q1282.17 1560.35 1280.46 1558.64 Q1278.78 1556.94 1278.78 1554.26 Q1278.78 1553.39 1279.46 1550.62 Q1280.14 1547.82 1283.81 1533.23 L1277.98 1533.23 Q1277.17 1533.23 1276.85 1533.2 Q1276.56 1533.17 1276.34 1533.01 Q1276.14 1532.81 1276.14 1532.43 Q1276.14 1531.82 1276.4 1531.56 Q1276.66 1531.27 1276.98 1531.24 Q1277.33 1531.17 1278.14 1531.17 L1284.32 1531.17 L1286.9 1520.71 Q1287.16 1519.67 1287.8 1519.09 Q1288.48 1518.48 1288.86 1518.42 Q1289.25 1518.32 1289.54 1518.32 Q1290.41 1518.32 1290.93 1518.81 Q1291.44 1519.26 1291.44 1520.09 Q1291.44 1520.54 1288.74 1531.17 L1294.53 1531.17 Q1295.27 1531.17 1295.56 1531.2 Q1295.88 1531.24 1296.14 1531.4 Q1296.4 1531.56 1296.4 1531.91 Z" fill="#000000" fill-rule="nonzero" fill-opacity="1" /><polyline clip-path="url(#clip312)" style="stroke:#000000; stroke-linecap:round; stroke-linejoin:round; stroke-width:2; stroke-opacity:0.1; fill:none" points="223.103,1389.14 2352.76,1389.14 "/>
<polyline clip-path="url(#clip312)" style="stroke:#000000; stroke-linecap:round; stroke-linejoin:round; stroke-width:2; stroke-opacity:0.1; fill:none" points="223.103,1006.32 2352.76,1006.32 "/>
<polyline clip-path="url(#clip312)" style="stroke:#000000; stroke-linecap:round; stroke-linejoin:round; stroke-width:2; stroke-opacity:0.1; fill:none" points="223.103,623.512 2352.76,623.512 "/>
<polyline clip-path="url(#clip312)" style="stroke:#000000; stroke-linecap:round; stroke-linejoin:round; stroke-width:2; stroke-opacity:0.1; fill:none" points="223.103,240.699 2352.76,240.699 "/>
<polyline clip-path="url(#clip310)" style="stroke:#000000; stroke-linecap:round; stroke-linejoin:round; stroke-width:4; stroke-opacity:1; fill:none" points="223.103,1423.18 223.103,47.2441 "/>
<polyline clip-path="url(#clip310)" style="stroke:#000000; stroke-linecap:round; stroke-linejoin:round; stroke-width:4; stroke-opacity:1; fill:none" points="223.103,1389.14 242,1389.14 "/>
<polyline clip-path="url(#clip310)" style="stroke:#000000; stroke-linecap:round; stroke-linejoin:round; stroke-width:4; stroke-opacity:1; fill:none" points="223.103,1006.32 242,1006.32 "/>
<polyline clip-path="url(#clip310)" style="stroke:#000000; stroke-linecap:round; stroke-linejoin:round; stroke-width:4; stroke-opacity:1; fill:none" points="223.103,623.512 242,623.512 "/>
<polyline clip-path="url(#clip310)" style="stroke:#000000; stroke-linecap:round; stroke-linejoin:round; stroke-width:4; stroke-opacity:1; fill:none" points="223.103,240.699 242,240.699 "/>
<path clip-path="url(#clip310)" d="M50.9921 1389.59 L80.6679 1389.59 L80.6679 1393.52 L50.9921 1393.52 L50.9921 1389.59 Z" fill="#000000" fill-rule="nonzero" fill-opacity="1" /><path clip-path="url(#clip310)" d="M100.76 1374.94 Q97.1493 1374.94 95.3206 1378.5 Q93.515 1382.04 93.515 1389.17 Q93.515 1396.28 95.3206 1399.84 Q97.1493 1403.39 100.76 1403.39 Q104.395 1403.39 106.2 1399.84 Q108.029 1396.28 108.029 1389.17 Q108.029 1382.04 106.2 1378.5 Q104.395 1374.94 100.76 1374.94 M100.76 1371.23 Q106.571 1371.23 109.626 1375.84 Q112.705 1380.42 112.705 1389.17 Q112.705 1397.9 109.626 1402.51 Q106.571 1407.09 100.76 1407.09 Q94.9502 1407.09 91.8715 1402.51 Q88.816 1397.9 88.816 1389.17 Q88.816 1380.42 91.8715 1375.84 Q94.9502 1371.23 100.76 1371.23 Z" fill="#000000" fill-rule="nonzero" fill-opacity="1" /><path clip-path="url(#clip310)" d="M120.922 1400.54 L125.807 1400.54 L125.807 1406.42 L120.922 1406.42 L120.922 1400.54 Z" fill="#000000" fill-rule="nonzero" fill-opacity="1" /><path clip-path="url(#clip310)" d="M145.992 1374.94 Q142.381 1374.94 140.552 1378.5 Q138.746 1382.04 138.746 1389.17 Q138.746 1396.28 140.552 1399.84 Q142.381 1403.39 145.992 1403.39 Q149.626 1403.39 151.431 1399.84 Q153.26 1396.28 153.26 1389.17 Q153.26 1382.04 151.431 1378.5 Q149.626 1374.94 145.992 1374.94 M145.992 1371.23 Q151.802 1371.23 154.857 1375.84 Q157.936 1380.42 157.936 1389.17 Q157.936 1397.9 154.857 1402.51 Q151.802 1407.09 145.992 1407.09 Q140.181 1407.09 137.103 1402.51 Q134.047 1397.9 134.047 1389.17 Q134.047 1380.42 137.103 1375.84 Q140.181 1371.23 145.992 1371.23 Z" fill="#000000" fill-rule="nonzero" fill-opacity="1" /><path clip-path="url(#clip310)" d="M166.2 1371.86 L184.556 1371.86 L184.556 1375.79 L170.482 1375.79 L170.482 1384.27 Q171.501 1383.92 172.519 1383.76 Q173.538 1383.57 174.556 1383.57 Q180.343 1383.57 183.723 1386.74 Q187.103 1389.91 187.103 1395.33 Q187.103 1400.91 183.63 1404.01 Q180.158 1407.09 173.839 1407.09 Q171.663 1407.09 169.394 1406.72 Q167.149 1406.35 164.742 1405.61 L164.742 1400.91 Q166.825 1402.04 169.047 1402.6 Q171.269 1403.15 173.746 1403.15 Q177.751 1403.15 180.089 1401.05 Q182.427 1398.94 182.427 1395.33 Q182.427 1391.72 180.089 1389.61 Q177.751 1387.51 173.746 1387.51 Q171.871 1387.51 169.996 1387.92 Q168.144 1388.34 166.2 1389.22 L166.2 1371.86 Z" fill="#000000" fill-rule="nonzero" fill-opacity="1" /><path clip-path="url(#clip310)" d="M99.765 992.123 Q96.1539 992.123 94.3252 995.688 Q92.5197 999.23 92.5197 1006.36 Q92.5197 1013.47 94.3252 1017.03 Q96.1539 1020.57 99.765 1020.57 Q103.399 1020.57 105.205 1017.03 Q107.033 1013.47 107.033 1006.36 Q107.033 999.23 105.205 995.688 Q103.399 992.123 99.765 992.123 M99.765 988.42 Q105.575 988.42 108.631 993.026 Q111.709 997.609 111.709 1006.36 Q111.709 1015.09 108.631 1019.69 Q105.575 1024.28 99.765 1024.28 Q93.9549 1024.28 90.8762 1019.69 Q87.8206 1015.09 87.8206 1006.36 Q87.8206 997.609 90.8762 993.026 Q93.9549 988.42 99.765 988.42 Z" fill="#000000" fill-rule="nonzero" fill-opacity="1" /><path clip-path="url(#clip310)" d="M119.927 1017.73 L124.811 1017.73 L124.811 1023.6 L119.927 1023.6 L119.927 1017.73 Z" fill="#000000" fill-rule="nonzero" fill-opacity="1" /><path clip-path="url(#clip310)" d="M144.996 992.123 Q141.385 992.123 139.556 995.688 Q137.751 999.23 137.751 1006.36 Q137.751 1013.47 139.556 1017.03 Q141.385 1020.57 144.996 1020.57 Q148.63 1020.57 150.436 1017.03 Q152.265 1013.47 152.265 1006.36 Q152.265 999.23 150.436 995.688 Q148.63 992.123 144.996 992.123 M144.996 988.42 Q150.806 988.42 153.862 993.026 Q156.941 997.609 156.941 1006.36 Q156.941 1015.09 153.862 1019.69 Q150.806 1024.28 144.996 1024.28 Q139.186 1024.28 136.107 1019.69 Q133.052 1015.09 133.052 1006.36 Q133.052 997.609 136.107 993.026 Q139.186 988.42 144.996 988.42 Z" fill="#000000" fill-rule="nonzero" fill-opacity="1" /><path clip-path="url(#clip310)" d="M175.158 992.123 Q171.547 992.123 169.718 995.688 Q167.913 999.23 167.913 1006.36 Q167.913 1013.47 169.718 1017.03 Q171.547 1020.57 175.158 1020.57 Q178.792 1020.57 180.598 1017.03 Q182.427 1013.47 182.427 1006.36 Q182.427 999.23 180.598 995.688 Q178.792 992.123 175.158 992.123 M175.158 988.42 Q180.968 988.42 184.024 993.026 Q187.103 997.609 187.103 1006.36 Q187.103 1015.09 184.024 1019.69 Q180.968 1024.28 175.158 1024.28 Q169.348 1024.28 166.269 1019.69 Q163.214 1015.09 163.214 1006.36 Q163.214 997.609 166.269 993.026 Q169.348 988.42 175.158 988.42 Z" fill="#000000" fill-rule="nonzero" fill-opacity="1" /><path clip-path="url(#clip310)" d="M100.76 609.31 Q97.1493 609.31 95.3206 612.875 Q93.515 616.417 93.515 623.546 Q93.515 630.653 95.3206 634.218 Q97.1493 637.759 100.76 637.759 Q104.395 637.759 106.2 634.218 Q108.029 630.653 108.029 623.546 Q108.029 616.417 106.2 612.875 Q104.395 609.31 100.76 609.31 M100.76 605.607 Q106.571 605.607 109.626 610.213 Q112.705 614.796 112.705 623.546 Q112.705 632.273 109.626 636.88 Q106.571 641.463 100.76 641.463 Q94.9502 641.463 91.8715 636.88 Q88.816 632.273 88.816 623.546 Q88.816 614.796 91.8715 610.213 Q94.9502 605.607 100.76 605.607 Z" fill="#000000" fill-rule="nonzero" fill-opacity="1" /><path clip-path="url(#clip310)" d="M120.922 634.912 L125.807 634.912 L125.807 640.792 L120.922 640.792 L120.922 634.912 Z" fill="#000000" fill-rule="nonzero" fill-opacity="1" /><path clip-path="url(#clip310)" d="M145.992 609.31 Q142.381 609.31 140.552 612.875 Q138.746 616.417 138.746 623.546 Q138.746 630.653 140.552 634.218 Q142.381 637.759 145.992 637.759 Q149.626 637.759 151.431 634.218 Q153.26 630.653 153.26 623.546 Q153.26 616.417 151.431 612.875 Q149.626 609.31 145.992 609.31 M145.992 605.607 Q151.802 605.607 154.857 610.213 Q157.936 614.796 157.936 623.546 Q157.936 632.273 154.857 636.88 Q151.802 641.463 145.992 641.463 Q140.181 641.463 137.103 636.88 Q134.047 632.273 134.047 623.546 Q134.047 614.796 137.103 610.213 Q140.181 605.607 145.992 605.607 Z" fill="#000000" fill-rule="nonzero" fill-opacity="1" /><path clip-path="url(#clip310)" d="M166.2 606.232 L184.556 606.232 L184.556 610.167 L170.482 610.167 L170.482 618.639 Q171.501 618.292 172.519 618.13 Q173.538 617.945 174.556 617.945 Q180.343 617.945 183.723 621.116 Q187.103 624.287 187.103 629.704 Q187.103 635.282 183.63 638.384 Q180.158 641.463 173.839 641.463 Q171.663 641.463 169.394 641.093 Q167.149 640.722 164.742 639.982 L164.742 635.282 Q166.825 636.417 169.047 636.972 Q171.269 637.528 173.746 637.528 Q177.751 637.528 180.089 635.421 Q182.427 633.315 182.427 629.704 Q182.427 626.093 180.089 623.986 Q177.751 621.88 173.746 621.88 Q171.871 621.88 169.996 622.296 Q168.144 622.713 166.2 623.593 L166.2 606.232 Z" fill="#000000" fill-rule="nonzero" fill-opacity="1" /><path clip-path="url(#clip310)" d="M99.765 226.497 Q96.1539 226.497 94.3252 230.062 Q92.5197 233.604 92.5197 240.733 Q92.5197 247.84 94.3252 251.405 Q96.1539 254.946 99.765 254.946 Q103.399 254.946 105.205 251.405 Q107.033 247.84 107.033 240.733 Q107.033 233.604 105.205 230.062 Q103.399 226.497 99.765 226.497 M99.765 222.794 Q105.575 222.794 108.631 227.4 Q111.709 231.983 111.709 240.733 Q111.709 249.46 108.631 254.067 Q105.575 258.65 99.765 258.65 Q93.9549 258.65 90.8762 254.067 Q87.8206 249.46 87.8206 240.733 Q87.8206 231.983 90.8762 227.4 Q93.9549 222.794 99.765 222.794 Z" fill="#000000" fill-rule="nonzero" fill-opacity="1" /><path clip-path="url(#clip310)" d="M119.927 252.099 L124.811 252.099 L124.811 257.979 L119.927 257.979 L119.927 252.099 Z" fill="#000000" fill-rule="nonzero" fill-opacity="1" /><path clip-path="url(#clip310)" d="M135.806 254.044 L143.445 254.044 L143.445 227.678 L135.135 229.345 L135.135 225.085 L143.399 223.419 L148.075 223.419 L148.075 254.044 L155.714 254.044 L155.714 257.979 L135.806 257.979 L135.806 254.044 Z" fill="#000000" fill-rule="nonzero" fill-opacity="1" /><path clip-path="url(#clip310)" d="M175.158 226.497 Q171.547 226.497 169.718 230.062 Q167.913 233.604 167.913 240.733 Q167.913 247.84 169.718 251.405 Q171.547 254.946 175.158 254.946 Q178.792 254.946 180.598 251.405 Q182.427 247.84 182.427 240.733 Q182.427 233.604 180.598 230.062 Q178.792 226.497 175.158 226.497 M175.158 222.794 Q180.968 222.794 184.024 227.4 Q187.103 231.983 187.103 240.733 Q187.103 249.46 184.024 254.067 Q180.968 258.65 175.158 258.65 Q169.348 258.65 166.269 254.067 Q163.214 249.46 163.214 240.733 Q163.214 231.983 166.269 227.4 Q169.348 222.794 175.158 222.794 Z" fill="#000000" fill-rule="nonzero" fill-opacity="1" /><polyline clip-path="url(#clip312)" style="stroke:#009af9; stroke-linecap:round; stroke-linejoin:round; stroke-width:4; stroke-opacity:1; fill:none" points="283.376,1006.32 289.391,1006.03 295.406,1005.74 301.422,1005.86 307.437,1005.98 313.452,1006.14 319.467,1006.49 325.483,1006.69 331.498,1006.37 337.513,1005.88 343.529,1005.5 349.544,1004.69 355.559,1003.45 361.574,1002.01 367.59,1000.51 373.605,999.125 379.62,998.014 385.636,996.782 391.651,995.126 397.666,993.518 403.682,991.851 409.697,989.891 415.712,987.625 421.727,985.239 427.743,982.879 433.758,980.565 439.773,977.972 445.789,974.827 451.804,971.563 457.819,968.685 463.834,966.196 469.85,963.523 475.865,960.481 481.88,957.284 487.896,953.944 493.911,950.55 499.926,947.082 505.941,943.56 511.957,939.704 517.972,935.161 523.987,929.959 530.003,924.257 536.018,918.101 542.033,911.99 548.048,906.738 554.064,902.044 560.079,897.147 566.094,892.01 572.11,886.81 578.125,881.407 584.14,875.896 590.156,870.812 596.171,866.675 602.186,863.14 608.201,859.613 614.217,856.017 620.232,852.235 626.247,848.216 632.263,844.158 638.278,839.896 644.293,835.229 650.308,830.368 656.324,825.169 662.339,819.587 668.354,813.849 674.37,808.208 680.385,802.887 686.4,797.919 692.415,793.563 698.431,789.645 704.446,785.945 710.461,782.677 716.477,779.77 722.492,777.169 728.507,774.98 734.522,772.95 740.538,771.203 746.553,769.813 752.568,768.182 758.584,766.571 764.599,765.08 770.614,763.613 776.63,762.227 782.645,760.727 788.66,759.158 794.675,757.532 800.691,755.776 806.706,753.817 812.721,751.601 818.737,749.158 824.752,746.651 830.767,744.103 836.782,741.449 842.798,738.848 848.813,736.43 854.828,733.962 860.844,731.616 866.859,729.483 872.874,727.168 878.889,724.827 884.905,722.839 890.92,720.937 896.935,718.912 902.951,717.249 908.966,715.964 914.981,714.577 920.996,713.016 927.012,711.577 933.027,709.954 939.042,707.804 945.058,705.267 951.073,702.295 957.088,698.992 963.104,695.64 969.119,692.178 975.134,688.971 981.149,686.235 987.165,683.613 993.18,681.43 999.195,679.506 1005.21,677.572 1011.23,675.589 1017.24,673.334 1023.26,670.767 1029.27,667.664 1035.29,664.368 1041.3,661.158 1047.32,657.814 1053.33,654.622 1059.35,651.493 1065.36,648.308 1071.38,645.129 1077.39,641.899 1083.41,638.926 1089.42,635.89 1095.44,632.527 1101.46,628.567 1107.47,624.479 1113.49,620.532 1119.5,616.188 1125.52,612.038 1131.53,607.811 1137.55,603.363 1143.56,599.195 1149.58,595.228 1155.59,591.687 1161.61,588.673 1167.62,585.884 1173.64,583.002 1179.65,579.996 1185.67,577.184 1191.68,574.417 1197.7,571.611 1203.72,569.379 1209.73,567.282 1215.75,564.626 1221.76,562.137 1227.78,559.992 1233.79,557.904 1239.81,556.233 1245.82,554.827 1251.84,553.268 1257.85,551.556 1263.87,549.866 1269.88,548.394 1275.9,546.967 1281.91,545.432 1287.93,543.375 1293.94,541.092 1299.96,538.741 1305.98,535.587 1311.99,531.701 1318.01,527.549 1324.02,523.554 1330.04,519.707 1336.05,515.774 1342.07,511.935 1348.08,508.096 1354.1,504.188 1360.11,500.689 1366.13,497.435 1372.14,494.284 1378.16,490.957 1384.17,486.903 1390.19,482.36 1396.2,477.909 1402.22,473.918 1408.24,470.616 1414.25,466.918 1420.27,462.298 1426.28,457.648 1432.3,452.958 1438.31,448.113 1444.33,443.464 1450.34,439.264 1456.36,435.001 1462.37,430.024 1468.39,424.442 1474.4,418.415 1480.42,411.808 1486.43,404.939 1492.45,398.611 1498.46,392.397 1504.48,385.902 1510.49,379.803 1516.51,373.772 1522.53,367.5 1528.54,360.976 1534.56,354.28 1540.57,347.726 1546.59,341.205 1552.6,334.832 1558.62,328.685 1564.63,322.508 1570.65,316.791 1576.66,311.724 1582.68,307.12 1588.69,302.717 1594.71,298.714 1600.72,295.189 1606.74,291.504 1612.75,287.753 1618.77,283.876 1624.79,280.02 1630.8,276.796 1636.82,273.959 1642.83,271.374 1648.85,269.437 1654.86,267.844 1660.88,266.458 1666.89,265.547 1672.91,264.655 1678.92,263.907 1684.94,263.189 1690.95,262.22 1696.97,261.377 1702.98,260.386 1709,259.502 1715.01,259.135 1721.03,258.971 1727.05,258.344 1733.06,256.95 1739.08,255.302 1745.09,253.648 1751.11,251.795 1757.12,249.508 1763.14,246.712 1769.15,243.997 1775.17,241.796 1781.18,239.87 1787.2,238.122 1793.21,236.535 1799.23,235.37 1805.24,234.549 1811.26,233.731 1817.27,233.298 1823.29,233.359 1829.31,233.792 1835.32,234.487 1841.34,235.335 1847.35,236.315 1853.37,237.294 1859.38,238.256 1865.4,239.274 1871.41,240.453 1877.43,241.337 1883.44,241.946 1889.46,242.578 1895.47,243.459 1901.49,244.763 1907.5,246.057 1913.52,247.496 1919.53,248.791 1925.55,250.198 1931.57,251.95 1937.58,253.816 1943.6,255.969 1949.61,258.269 1955.63,260.851 1961.64,263.274 1967.66,265.508 1973.67,267.724 1979.69,269.585 1985.7,271.507 1991.72,273.662 1997.73,276.004 2003.75,278.228 2009.76,280.613 2015.78,283.067 2021.79,285.062 2027.81,286.685 2033.83,288.081 2039.84,289.383 2045.86,290.376 2051.87,291.427 2057.89,292.77 2063.9,294.381 2069.92,296.013 2075.93,297.195 2081.95,298.414 2087.96,299.836 2093.98,301.269 2099.99,302.865 2106.01,304.675 2112.02,306.521 2118.04,308.104 2124.05,309.261 2130.07,310.302 2136.09,311.59 2142.1,312.841 2148.12,313.672 2154.13,314.179 2160.15,314.602 2166.16,314.836 2172.18,314.983 2178.19,314.631 2184.21,313.613 2190.22,312.331 2196.24,311.284 2202.25,310.661 2208.27,310.022 2214.28,309.387 2220.3,308.731 2226.31,308.145 2232.33,307.665 2238.35,306.984 2244.36,305.919 2250.38,304.363 2256.39,302.433 2262.41,300.642 2268.42,298.987 2274.44,297.302 2280.45,295.914 2286.47,294.653 2292.48,293.36 "/>
<polyline clip-path="url(#clip312)" style="stroke:#e26f46; stroke-linecap:round; stroke-linejoin:round; stroke-width:4; stroke-opacity:1; fill:none" points="283.376,1006.32 289.391,927.6 295.406,1007.13 301.422,1038.06 307.437,1007.01 313.452,1048.45 319.467,1056.18 325.483,1009.87 331.498,919.614 337.513,961.066 343.529,949.987 349.544,845.926 355.559,837.891 361.574,791.054 367.59,819.989 373.605,823.758 379.62,892.743 385.636,791.369 391.651,779.528 397.666,804.295 403.682,763.899 409.697,726.07 415.712,682.362 421.727,693.99 427.743,689.494 433.758,706.017 439.773,615.165 445.789,558.797 451.804,583.45 457.819,661.6 463.834,687.541 469.85,612.189 475.865,589.257 481.88,571 487.896,550.968 493.911,556.367 499.926,531.673 505.941,541.699 511.957,442.598 517.972,358.682 523.987,266.664 530.003,225.681 536.018,145.133 542.033,237.904 548.048,374.387 554.064,386.463 560.079,320.339 566.094,322.49 572.11,303.515 578.125,268.193 584.14,274.901 590.156,382.175 596.171,527.274 602.186,542.54 608.201,529.661 614.217,524.056 620.232,480.15 626.247,460.736 632.263,469.668 638.278,406.325 644.293,361.799 650.308,354.618 656.324,271.619 662.339,252.697 668.354,229.6 674.37,278.797 680.385,314.997 686.4,373.014 692.415,477.948 698.431,489.849 704.446,536.246 710.461,604.888 716.477,632.438 722.492,686.668 728.507,742.247 734.522,729.048 740.538,817.855 746.553,824.117 752.568,753.472 758.584,829.706 764.599,785.382 770.614,835.873 776.63,807.341 782.645,805.113 788.66,789.274 794.675,789.686 800.691,754.88 806.706,735.155 812.721,686.603 818.737,674.615 824.752,669.508 830.767,663.668 836.782,641.198 842.798,677.912 848.813,689.92 854.828,664.531 860.844,722.73 866.859,720.985 872.874,674.423 878.889,713.916 884.905,768.501 890.92,737.13 896.935,735.413 902.951,833.87 908.966,835.93 914.981,806.958 920.996,789.493 927.012,839.432 933.027,740.177 939.042,699.252 945.058,636.967 951.073,583.184 957.088,548.461 963.104,570.322 969.119,519.195 975.134,638.251 981.149,644.931 987.165,668.466 993.18,762.09 999.195,737.505 1005.21,759.185 1011.23,724.892 1017.24,686.198 1023.26,641.948 1029.27,543.334 1035.29,590.343 1041.3,566.322 1047.32,554.609 1053.33,606.846 1059.35,571.402 1065.36,591.855 1071.38,572.971 1077.39,578.438 1083.41,641.32 1089.42,561.802 1095.44,554.083 1101.46,402.641 1107.47,519.796 1113.49,440.441 1119.5,413.729 1125.52,492.213 1131.53,393.281 1137.55,433.192 1143.56,468.115 1149.58,486.536 1155.59,581.979 1161.61,626.707 1167.62,642.365 1173.64,601.807 1179.65,609.125 1185.67,653.576 1191.68,621.301 1197.7,643.151 1203.72,774.188 1209.73,679.297 1215.75,625.141 1221.76,723.773 1227.78,716.819 1233.79,739.165 1239.81,827.674 1245.82,810.266 1251.84,786.507 1257.85,769.653 1263.87,792.246 1269.88,827.861 1275.9,804.227 1281.91,799.096 1287.93,665.192 1293.94,738.546 1299.96,647.121 1305.98,524.468 1311.99,452.003 1318.01,453.533 1324.02,493.644 1330.04,493.175 1336.05,470.739 1342.07,518.094 1348.08,470.784 1354.1,499.817 1360.11,579.722 1366.13,565.244 1372.14,607.123 1378.16,518.212 1384.17,413.599 1390.19,387.498 1396.2,438.181 1402.22,510.202 1408.24,621.961 1414.25,404.53 1420.27,376.172 1426.28,396.285 1432.3,365.915 1438.31,354.504 1444.33,418.648 1450.34,473.781 1456.36,402.15 1462.37,283.358 1468.39,240.661 1474.4,164.743 1480.42,86.1857 1486.43,94.6947 1492.45,230.464 1498.46,125.081 1504.48,155.757 1510.49,230.242 1516.51,174.339 1522.53,165.634 1528.54,107.482 1534.56,119.423 1540.57,145.569 1546.59,128.212 1552.6,184.793 1558.62,188.758 1564.63,176.762 1570.65,311.318 1576.66,350.142 1582.68,434.637 1588.69,403.949 1594.71,541.223 1600.72,531.521 1606.74,498.349 1612.75,514.176 1618.77,464.434 1624.79,519.872 1630.8,633.21 1636.82,622.849 1642.83,700.525 1648.85,795.663 1654.86,792.053 1660.88,850.993 1666.89,918.706 1672.91,856.109 1678.92,957.129 1684.94,864.062 1690.95,890.041 1696.97,897.96 1702.98,850.378 1709,926.419 1715.01,988.391 1721.03,980.614 1727.05,864.766 1733.06,776.255 1739.08,796.746 1745.09,774.88 1751.11,743.663 1757.12,659.096 1763.14,607.982 1769.15,680.64 1775.17,745.113 1781.18,754.001 1787.2,792.575 1793.21,796.833 1799.23,905.028 1805.24,888.783 1811.26,905.666 1817.27,991.62 1823.29,1037.3 1829.31,1090.63 1835.32,1107.57 1841.34,1131.04 1847.35,1143.12 1853.37,1130.51 1859.38,1138.76 1865.4,1145.2 1871.41,1182.02 1877.43,1066.24 1883.44,1108.92 1889.46,1072.3 1895.47,1175.22 1901.49,1185.08 1907.5,1172.71 1913.52,1223.56 1919.53,1134.53 1925.55,1253.21 1931.57,1226.72 1937.58,1283.62 1943.6,1302.96 1949.61,1323.12 1955.63,1378.14 1961.64,1280.56 1967.66,1327.74 1973.67,1275.79 1979.69,1233.23 1985.7,1291.91 1991.72,1295.56 1997.73,1341.45 2003.75,1264.32 2009.76,1384.24 2015.78,1283.01 2021.79,1261.63 2027.81,1183.72 2033.83,1201.36 2039.84,1158.45 2045.86,1119.05 2051.87,1173.64 2057.89,1197.23 2063.9,1245.14 2069.92,1202.5 2075.93,1125.57 2081.95,1212.11 2087.96,1179.75 2093.98,1214.85 2099.99,1223.46 2106.01,1271.89 2112.02,1232.91 2118.04,1201.98 2124.05,1119.27 2130.07,1170.83 2136.09,1185.41 2142.1,1160.73 2148.12,1073.56 2154.13,1074.39 2160.15,1050.96 2166.16,1024.23 2172.18,1027.51 2178.19,891.219 2184.21,850.033 2190.22,820.641 2196.24,912.765 2202.25,933.857 2208.27,908.307 2214.28,935.117 2220.3,902.721 2226.31,953.594 2232.33,930.911 2238.35,900.275 2244.36,828.389 2250.38,769.222 2256.39,728.731 2262.41,806.402 2268.42,765.03 2274.44,798.05 2280.45,844.599 2286.47,831.811 2292.48,836.1 "/>
<path clip-path="url(#clip310)" d="M294.091 1377.32 L530.319 1377.32 L530.319 1221.8 L294.091 1221.8  Z" fill="#ffffff" fill-rule="evenodd" fill-opacity="1"/>
<polyline clip-path="url(#clip310)" style="stroke:#000000; stroke-linecap:round; stroke-linejoin:round; stroke-width:4; stroke-opacity:1; fill:none" points="294.091,1377.32 530.319,1377.32 530.319,1221.8 294.091,1221.8 294.091,1377.32 "/>
<polyline clip-path="url(#clip310)" style="stroke:#009af9; stroke-linecap:round; stroke-linejoin:round; stroke-width:4; stroke-opacity:1; fill:none" points="317.754,1273.64 459.731,1273.64 "/>
<path clip-path="url(#clip310)" d="M505.528 1259.89 Q505.528 1260.22 505.317 1260.99 L500.726 1279.31 Q499.719 1283.38 496.44 1286.24 Q493.184 1289.1 489.483 1289.1 Q487.258 1289.1 485.829 1287.9 Q484.401 1286.73 484.401 1284.93 Q484.401 1283.34 485.244 1282.56 Q486.087 1281.81 487.094 1281.81 Q487.422 1281.81 487.773 1281.91 Q488.125 1282 488.5 1282.4 Q488.874 1282.8 488.874 1283.48 Q488.874 1284.58 487.914 1285.44 Q487.446 1285.84 487.001 1285.94 Q486.579 1286.03 485.853 1286.03 Q486.134 1286.69 486.649 1287.13 Q487.164 1287.58 487.75 1287.74 Q488.336 1287.93 488.71 1287.97 Q489.109 1288.04 489.483 1288.04 Q492.481 1288.04 494.777 1285.02 Q495.456 1284.11 495.948 1283.2 Q496.463 1282.31 496.838 1281.2 Q497.213 1280.13 497.377 1279.54 Q497.564 1278.96 497.892 1277.62 Q495.714 1279.8 493.044 1279.8 Q491.919 1279.8 490.912 1279.49 Q489.928 1279.19 489.062 1278.56 Q488.195 1277.9 487.68 1276.75 Q487.188 1275.61 487.188 1274.08 Q487.188 1272.47 487.82 1270.27 Q488.453 1268.06 489.975 1264.01 Q490.795 1261.74 490.795 1260.64 Q490.795 1260.1 490.678 1259.77 Q490.561 1259.42 490.327 1259.3 Q490.092 1259.16 489.952 1259.14 Q489.835 1259.12 489.6 1259.12 Q488.219 1259.12 486.93 1260.52 Q485.642 1261.93 484.752 1265.07 Q484.565 1265.65 484.447 1265.79 Q484.33 1265.93 483.979 1265.93 Q483.393 1265.91 483.393 1265.44 Q483.393 1265.25 483.604 1264.53 Q483.815 1263.78 484.307 1262.68 Q484.822 1261.55 485.525 1260.55 Q486.228 1259.52 487.328 1258.79 Q488.453 1258.06 489.741 1258.06 Q491.498 1258.06 492.575 1259.21 Q493.676 1260.33 493.676 1262 Q493.676 1262.68 493.489 1263.29 Q493.325 1263.87 492.716 1265.44 Q490.256 1271.77 490.256 1274.86 Q490.256 1275.61 490.373 1276.24 Q490.514 1276.85 490.818 1277.46 Q491.123 1278.04 491.732 1278.39 Q492.364 1278.72 493.231 1278.72 Q494.332 1278.72 495.362 1278.21 Q496.416 1277.67 497.072 1276.94 Q497.751 1276.22 498.15 1275.61 Q498.571 1274.97 498.665 1274.65 L500.82 1266.03 L501.78 1262.19 Q502.225 1260.1 502.436 1259.59 Q502.717 1259.09 503.209 1258.84 Q503.701 1258.58 504.122 1258.58 Q504.708 1258.58 505.106 1258.93 Q505.528 1259.28 505.528 1259.89 Z" fill="#000000" fill-rule="nonzero" fill-opacity="1" /><polyline clip-path="url(#clip310)" style="stroke:#e26f46; stroke-linecap:round; stroke-linejoin:round; stroke-width:4; stroke-opacity:1; fill:none" points="317.754,1325.48 459.731,1325.48 "/>
<path clip-path="url(#clip310)" d="M504.45 1317.85 Q504.45 1318.46 504.286 1319.66 Q504.122 1320.85 503.724 1322.59 Q503.326 1324.32 502.74 1326.15 Q502.178 1327.97 501.288 1329.8 Q500.398 1331.6 499.344 1333.03 Q498.29 1334.46 496.815 1335.35 Q495.339 1336.24 493.676 1336.24 Q492.903 1336.24 492.153 1336.12 Q491.404 1336.01 490.467 1335.63 Q489.53 1335.26 488.851 1334.65 Q488.172 1334.02 487.703 1332.89 Q487.235 1331.77 487.235 1330.29 Q487.235 1328.77 487.797 1326.73 Q488.382 1324.67 489.975 1320.45 Q490.795 1318.28 490.795 1317.08 Q490.795 1316.54 490.678 1316.21 Q490.561 1315.86 490.327 1315.75 Q490.092 1315.61 489.952 1315.58 Q489.835 1315.56 489.6 1315.56 Q488.312 1315.56 487.001 1316.89 Q485.689 1318.23 484.752 1321.51 Q484.565 1322.09 484.447 1322.23 Q484.33 1322.37 483.979 1322.37 Q483.393 1322.35 483.393 1321.88 Q483.393 1321.74 483.557 1321.2 Q483.721 1320.64 484.026 1319.8 Q484.33 1318.93 484.869 1318.04 Q485.408 1317.13 486.064 1316.33 Q486.743 1315.54 487.703 1315.02 Q488.664 1314.5 489.741 1314.5 Q491.498 1314.5 492.575 1315.65 Q493.676 1316.78 493.676 1318.44 Q493.676 1319.35 493.09 1320.83 Q492.107 1323.5 491.662 1324.79 Q491.217 1326.08 490.748 1327.9 Q490.303 1329.73 490.303 1330.99 Q490.303 1332.91 491.193 1334.04 Q492.083 1335.16 493.863 1335.16 Q495.456 1335.16 496.885 1334.02 Q498.337 1332.84 499.297 1331.18 Q500.258 1329.49 500.984 1327.62 Q501.71 1325.72 502.038 1324.3 Q502.389 1322.84 502.389 1322.16 Q502.389 1319.8 500.773 1318.25 Q500.328 1317.81 500.164 1317.53 Q500 1317.24 500 1316.8 Q500 1315.98 500.726 1315.25 Q501.476 1314.5 502.342 1314.5 Q503.139 1314.5 503.794 1315.3 Q504.45 1316.1 504.45 1317.85 Z" fill="#000000" fill-rule="nonzero" fill-opacity="1" /></svg>
