<?xml version="1.0" encoding="utf-8"?>
<svg xmlns="http://www.w3.org/2000/svg" xmlns:xlink="http://www.w3.org/1999/xlink" width="600" height="400" viewBox="0 0 2400 1600">
<defs>
  <clipPath id="clip410">
    <rect x="0" y="0" width="2400" height="1600"/>
  </clipPath>
</defs>
<path clip-path="url(#clip410)" d="M0 1600 L2400 1600 L2400 0 L0 0  Z" fill="#ffffff" fill-rule="evenodd" fill-opacity="1"/>
<defs>
  <clipPath id="clip411">
    <rect x="480" y="0" width="1681" height="1600"/>
  </clipPath>
</defs>
<path clip-path="url(#clip410)" d="M203.713 1486.45 L2297.1 1486.45 L2297.1 47.2441 L203.713 47.2441  Z" fill="#ffffff" fill-rule="evenodd" fill-opacity="1"/>
<defs>
  <clipPath id="clip412">
    <rect x="203" y="47" width="2094" height="1440"/>
  </clipPath>
</defs>
<polyline clip-path="url(#clip410)" style="stroke:#000000; stroke-linecap:round; stroke-linejoin:round; stroke-width:4; stroke-opacity:1; fill:none" points="203.713,1486.45 2297.1,1486.45 "/>
<polyline clip-path="url(#clip410)" style="stroke:#000000; stroke-linecap:round; stroke-linejoin:round; stroke-width:4; stroke-opacity:1; fill:none" points="203.713,1486.45 203.713,1467.55 "/>
<polyline clip-path="url(#clip410)" style="stroke:#000000; stroke-linecap:round; stroke-linejoin:round; stroke-width:4; stroke-opacity:1; fill:none" points="727.059,1486.45 727.059,1467.55 "/>
<polyline clip-path="url(#clip410)" style="stroke:#000000; stroke-linecap:round; stroke-linejoin:round; stroke-width:4; stroke-opacity:1; fill:none" points="1250.41,1486.45 1250.41,1467.55 "/>
<polyline clip-path="url(#clip410)" style="stroke:#000000; stroke-linecap:round; stroke-linejoin:round; stroke-width:4; stroke-opacity:1; fill:none" points="1773.75,1486.45 1773.75,1467.55 "/>
<polyline clip-path="url(#clip410)" style="stroke:#000000; stroke-linecap:round; stroke-linejoin:round; stroke-width:4; stroke-opacity:1; fill:none" points="2297.1,1486.45 2297.1,1467.55 "/>
<path clip-path="url(#clip410)" d="M172.613 1532.02 L202.289 1532.02 L202.289 1535.95 L172.613 1535.95 L172.613 1532.02 Z" fill="#000000" fill-rule="nonzero" fill-opacity="1" /><path clip-path="url(#clip410)" d="M225.229 1518.36 L213.423 1536.81 L225.229 1536.81 L225.229 1518.36 M224.002 1514.29 L229.881 1514.29 L229.881 1536.81 L234.812 1536.81 L234.812 1540.7 L229.881 1540.7 L229.881 1548.85 L225.229 1548.85 L225.229 1540.7 L209.627 1540.7 L209.627 1536.19 L224.002 1514.29 Z" fill="#000000" fill-rule="nonzero" fill-opacity="1" /><path clip-path="url(#clip410)" d="M697.002 1532.02 L726.677 1532.02 L726.677 1535.95 L697.002 1535.95 L697.002 1532.02 Z" fill="#000000" fill-rule="nonzero" fill-opacity="1" /><path clip-path="url(#clip410)" d="M740.798 1544.91 L757.117 1544.91 L757.117 1548.85 L735.173 1548.85 L735.173 1544.91 Q737.835 1542.16 742.418 1537.53 Q747.025 1532.88 748.205 1531.53 Q750.451 1529.01 751.33 1527.27 Q752.233 1525.51 752.233 1523.82 Q752.233 1521.07 750.288 1519.33 Q748.367 1517.6 745.265 1517.6 Q743.066 1517.6 740.613 1518.36 Q738.182 1519.13 735.404 1520.68 L735.404 1515.95 Q738.228 1514.82 740.682 1514.24 Q743.136 1513.66 745.173 1513.66 Q750.543 1513.66 753.738 1516.35 Q756.932 1519.03 756.932 1523.52 Q756.932 1525.65 756.122 1527.57 Q755.335 1529.47 753.228 1532.07 Q752.65 1532.74 749.548 1535.95 Q746.446 1539.15 740.798 1544.91 Z" fill="#000000" fill-rule="nonzero" fill-opacity="1" /><path clip-path="url(#clip410)" d="M1250.41 1517.37 Q1246.8 1517.37 1244.97 1520.93 Q1243.16 1524.47 1243.16 1531.6 Q1243.16 1538.71 1244.97 1542.27 Q1246.8 1545.82 1250.41 1545.82 Q1254.04 1545.82 1255.85 1542.27 Q1257.67 1538.71 1257.67 1531.6 Q1257.67 1524.47 1255.85 1520.93 Q1254.04 1517.37 1250.41 1517.37 M1250.41 1513.66 Q1256.22 1513.66 1259.27 1518.27 Q1262.35 1522.85 1262.35 1531.6 Q1262.35 1540.33 1259.27 1544.94 Q1256.22 1549.52 1250.41 1549.52 Q1244.6 1549.52 1241.52 1544.94 Q1238.46 1540.33 1238.46 1531.6 Q1238.46 1522.85 1241.52 1518.27 Q1244.6 1513.66 1250.41 1513.66 Z" fill="#000000" fill-rule="nonzero" fill-opacity="1" /><path clip-path="url(#clip410)" d="M1768.41 1544.91 L1784.73 1544.91 L1784.73 1548.85 L1762.78 1548.85 L1762.78 1544.91 Q1765.44 1542.16 1770.03 1537.53 Q1774.63 1532.88 1775.81 1531.53 Q1778.06 1529.01 1778.94 1527.27 Q1779.84 1525.51 1779.84 1523.82 Q1779.84 1521.07 1777.9 1519.33 Q1775.98 1517.6 1772.87 1517.6 Q1770.67 1517.6 1768.22 1518.36 Q1765.79 1519.13 1763.01 1520.68 L1763.01 1515.95 Q1765.84 1514.82 1768.29 1514.24 Q1770.74 1513.66 1772.78 1513.66 Q1778.15 1513.66 1781.35 1516.35 Q1784.54 1519.03 1784.54 1523.52 Q1784.54 1525.65 1783.73 1527.57 Q1782.94 1529.47 1780.84 1532.07 Q1780.26 1532.74 1777.16 1535.95 Q1774.05 1539.15 1768.41 1544.91 Z" fill="#000000" fill-rule="nonzero" fill-opacity="1" /><path clip-path="url(#clip410)" d="M2300.11 1518.36 L2288.3 1536.81 L2300.11 1536.81 L2300.11 1518.36 M2298.88 1514.29 L2304.76 1514.29 L2304.76 1536.81 L2309.69 1536.81 L2309.69 1540.7 L2304.76 1540.7 L2304.76 1548.85 L2300.11 1548.85 L2300.11 1540.7 L2284.51 1540.7 L2284.51 1536.19 L2298.88 1514.29 Z" fill="#000000" fill-rule="nonzero" fill-opacity="1" /><polyline clip-path="url(#clip410)" style="stroke:#000000; stroke-linecap:round; stroke-linejoin:round; stroke-width:4; stroke-opacity:1; fill:none" points="203.713,1486.45 203.713,47.2441 "/>
<polyline clip-path="url(#clip410)" style="stroke:#000000; stroke-linecap:round; stroke-linejoin:round; stroke-width:4; stroke-opacity:1; fill:none" points="203.713,1355.61 221.656,1355.61 "/>
<polyline clip-path="url(#clip410)" style="stroke:#000000; stroke-linecap:round; stroke-linejoin:round; stroke-width:4; stroke-opacity:1; fill:none" points="203.713,1093.94 221.656,1093.94 "/>
<polyline clip-path="url(#clip410)" style="stroke:#000000; stroke-linecap:round; stroke-linejoin:round; stroke-width:4; stroke-opacity:1; fill:none" points="203.713,832.264 221.656,832.264 "/>
<polyline clip-path="url(#clip410)" style="stroke:#000000; stroke-linecap:round; stroke-linejoin:round; stroke-width:4; stroke-opacity:1; fill:none" points="203.713,570.591 221.656,570.591 "/>
<polyline clip-path="url(#clip410)" style="stroke:#000000; stroke-linecap:round; stroke-linejoin:round; stroke-width:4; stroke-opacity:1; fill:none" points="203.713,308.918 221.656,308.918 "/>
<polyline clip-path="url(#clip410)" style="stroke:#000000; stroke-linecap:round; stroke-linejoin:round; stroke-width:4; stroke-opacity:1; fill:none" points="203.713,47.2441 221.656,47.2441 "/>
<path clip-path="url(#clip410)" d="M106.648 1356.06 L136.324 1356.06 L136.324 1360 L106.648 1360 L106.648 1356.06 Z" fill="#000000" fill-rule="nonzero" fill-opacity="1" /><path clip-path="url(#clip410)" d="M160.583 1354.26 Q163.939 1354.97 165.814 1357.24 Q167.713 1359.51 167.713 1362.84 Q167.713 1367.96 164.194 1370.76 Q160.676 1373.56 154.194 1373.56 Q152.018 1373.56 149.703 1373.12 Q147.412 1372.71 144.958 1371.85 L144.958 1367.34 Q146.903 1368.47 149.217 1369.05 Q151.532 1369.63 154.055 1369.63 Q158.453 1369.63 160.745 1367.89 Q163.06 1366.16 163.06 1362.84 Q163.06 1359.79 160.907 1358.08 Q158.777 1356.34 154.958 1356.34 L150.93 1356.34 L150.93 1352.5 L155.143 1352.5 Q158.592 1352.5 160.421 1351.13 Q162.25 1349.74 162.25 1347.15 Q162.25 1344.49 160.352 1343.08 Q158.477 1341.64 154.958 1341.64 Q153.037 1341.64 150.838 1342.06 Q148.639 1342.47 146 1343.35 L146 1339.19 Q148.662 1338.45 150.977 1338.08 Q153.315 1337.71 155.375 1337.71 Q160.699 1337.71 163.801 1340.14 Q166.902 1342.54 166.902 1346.66 Q166.902 1349.53 165.259 1351.53 Q163.615 1353.49 160.583 1354.26 Z" fill="#000000" fill-rule="nonzero" fill-opacity="1" /><path clip-path="url(#clip410)" d="M107.597 1094.39 L137.273 1094.39 L137.273 1098.32 L107.597 1098.32 L107.597 1094.39 Z" fill="#000000" fill-rule="nonzero" fill-opacity="1" /><path clip-path="url(#clip410)" d="M151.393 1107.28 L167.713 1107.28 L167.713 1111.22 L145.768 1111.22 L145.768 1107.28 Q148.43 1104.53 153.014 1099.9 Q157.62 1095.25 158.801 1093.9 Q161.046 1091.38 161.926 1089.64 Q162.828 1087.88 162.828 1086.19 Q162.828 1083.44 160.884 1081.7 Q158.963 1079.97 155.861 1079.97 Q153.662 1079.97 151.208 1080.73 Q148.778 1081.5 146 1083.05 L146 1078.32 Q148.824 1077.19 151.278 1076.61 Q153.731 1076.03 155.768 1076.03 Q161.139 1076.03 164.333 1078.72 Q167.527 1081.4 167.527 1085.89 Q167.527 1088.02 166.717 1089.94 Q165.93 1091.84 163.824 1094.44 Q163.245 1095.11 160.143 1098.32 Q157.041 1101.52 151.393 1107.28 Z" fill="#000000" fill-rule="nonzero" fill-opacity="1" /><path clip-path="url(#clip410)" d="M107.227 832.716 L136.903 832.716 L136.903 836.651 L107.227 836.651 L107.227 832.716 Z" fill="#000000" fill-rule="nonzero" fill-opacity="1" /><path clip-path="url(#clip410)" d="M147.805 845.609 L155.444 845.609 L155.444 819.244 L147.134 820.91 L147.134 816.651 L155.398 814.984 L160.074 814.984 L160.074 845.609 L167.713 845.609 L167.713 849.544 L147.805 849.544 L147.805 845.609 Z" fill="#000000" fill-rule="nonzero" fill-opacity="1" /><path clip-path="url(#clip410)" d="M155.768 556.39 Q152.157 556.39 150.328 559.954 Q148.523 563.496 148.523 570.626 Q148.523 577.732 150.328 581.297 Q152.157 584.839 155.768 584.839 Q159.402 584.839 161.208 581.297 Q163.037 577.732 163.037 570.626 Q163.037 563.496 161.208 559.954 Q159.402 556.39 155.768 556.39 M155.768 552.686 Q161.578 552.686 164.634 557.292 Q167.713 561.876 167.713 570.626 Q167.713 579.352 164.634 583.959 Q161.578 588.542 155.768 588.542 Q149.958 588.542 146.879 583.959 Q143.824 579.352 143.824 570.626 Q143.824 561.876 146.879 557.292 Q149.958 552.686 155.768 552.686 Z" fill="#000000" fill-rule="nonzero" fill-opacity="1" /><path clip-path="url(#clip410)" d="M147.805 322.262 L155.444 322.262 L155.444 295.897 L147.134 297.563 L147.134 293.304 L155.398 291.638 L160.074 291.638 L160.074 322.262 L167.713 322.262 L167.713 326.198 L147.805 326.198 L147.805 322.262 Z" fill="#000000" fill-rule="nonzero" fill-opacity="1" /><path clip-path="url(#clip410)" d="M151.393 60.5889 L167.713 60.5889 L167.713 64.5241 L145.768 64.5241 L145.768 60.5889 Q148.43 57.8343 153.014 53.2047 Q157.62 48.552 158.801 47.2094 Q161.046 44.6862 161.926 42.9501 Q162.828 41.1909 162.828 39.5011 Q162.828 36.7465 160.884 35.0104 Q158.963 33.2743 155.861 33.2743 Q153.662 33.2743 151.208 34.0381 Q148.778 34.802 146 36.3529 L146 31.6308 Q148.824 30.4965 151.278 29.9178 Q153.731 29.3391 155.768 29.3391 Q161.139 29.3391 164.333 32.0243 Q167.527 34.7094 167.527 39.2002 Q167.527 41.3298 166.717 43.2511 Q165.93 45.1492 163.824 47.7418 Q163.245 48.4131 160.143 51.6306 Q157.041 54.8251 151.393 60.5889 Z" fill="#000000" fill-rule="nonzero" fill-opacity="1" /><polyline clip-path="url(#clip412)" style="stroke:#97b476; stroke-linecap:round; stroke-linejoin:round; stroke-width:4; stroke-opacity:1; fill:none" points="1250.41,695.976 1250.41,685.073 1250.41,674.17 1250.41,663.267 1250.41,652.364 1250.41,641.461 1250.41,630.558 1250.41,619.655 1250.41,608.752 1250.41,597.849 1250.41,586.946 1250.41,576.042 1250.41,565.139 1250.41,554.236 1250.41,543.333 1250.41,532.43 1250.41,521.527 1250.41,510.624 1250.41,499.721 1250.41,488.818 1250.41,477.915 1250.41,467.012 1250.41,456.109 1250.41,445.206 "/>
</svg>
