<?xml version="1.0" encoding="utf-8"?>
<svg xmlns="http://www.w3.org/2000/svg" xmlns:xlink="http://www.w3.org/1999/xlink" width="600" height="400" viewBox="0 0 2400 1600">
<defs>
  <clipPath id="clip790">
    <rect x="0" y="0" width="2400" height="1600"/>
  </clipPath>
</defs>
<path clip-path="url(#clip790)" d="M0 1600 L2400 1600 L2400 0 L0 0  Z" fill="#ffffff" fill-rule="evenodd" fill-opacity="1"/>
<defs>
  <clipPath id="clip791">
    <rect x="480" y="0" width="1681" height="1600"/>
  </clipPath>
</defs>
<path clip-path="url(#clip790)" d="M156.112 1423.18 L2352.76 1423.18 L2352.76 47.2441 L156.112 47.2441  Z" fill="#ffffff" fill-rule="evenodd" fill-opacity="1"/>
<defs>
  <clipPath id="clip792">
    <rect x="156" y="47" width="2198" height="1377"/>
  </clipPath>
</defs>
<polyline clip-path="url(#clip792)" style="stroke:#000000; stroke-linecap:round; stroke-linejoin:round; stroke-width:2; stroke-opacity:0.1; fill:none" points="218.281,1423.18 218.281,47.2441 "/>
<polyline clip-path="url(#clip792)" style="stroke:#000000; stroke-linecap:round; stroke-linejoin:round; stroke-width:2; stroke-opacity:0.1; fill:none" points="631.915,1423.18 631.915,47.2441 "/>
<polyline clip-path="url(#clip792)" style="stroke:#000000; stroke-linecap:round; stroke-linejoin:round; stroke-width:2; stroke-opacity:0.1; fill:none" points="1045.55,1423.18 1045.55,47.2441 "/>
<polyline clip-path="url(#clip792)" style="stroke:#000000; stroke-linecap:round; stroke-linejoin:round; stroke-width:2; stroke-opacity:0.1; fill:none" points="1459.18,1423.18 1459.18,47.2441 "/>
<polyline clip-path="url(#clip792)" style="stroke:#000000; stroke-linecap:round; stroke-linejoin:round; stroke-width:2; stroke-opacity:0.1; fill:none" points="1872.82,1423.18 1872.82,47.2441 "/>
<polyline clip-path="url(#clip792)" style="stroke:#000000; stroke-linecap:round; stroke-linejoin:round; stroke-width:2; stroke-opacity:0.1; fill:none" points="2286.45,1423.18 2286.45,47.2441 "/>
<polyline clip-path="url(#clip790)" style="stroke:#000000; stroke-linecap:round; stroke-linejoin:round; stroke-width:4; stroke-opacity:1; fill:none" points="156.112,1423.18 2352.76,1423.18 "/>
<polyline clip-path="url(#clip790)" style="stroke:#000000; stroke-linecap:round; stroke-linejoin:round; stroke-width:4; stroke-opacity:1; fill:none" points="218.281,1423.18 218.281,1404.28 "/>
<polyline clip-path="url(#clip790)" style="stroke:#000000; stroke-linecap:round; stroke-linejoin:round; stroke-width:4; stroke-opacity:1; fill:none" points="631.915,1423.18 631.915,1404.28 "/>
<polyline clip-path="url(#clip790)" style="stroke:#000000; stroke-linecap:round; stroke-linejoin:round; stroke-width:4; stroke-opacity:1; fill:none" points="1045.55,1423.18 1045.55,1404.28 "/>
<polyline clip-path="url(#clip790)" style="stroke:#000000; stroke-linecap:round; stroke-linejoin:round; stroke-width:4; stroke-opacity:1; fill:none" points="1459.18,1423.18 1459.18,1404.28 "/>
<polyline clip-path="url(#clip790)" style="stroke:#000000; stroke-linecap:round; stroke-linejoin:round; stroke-width:4; stroke-opacity:1; fill:none" points="1872.82,1423.18 1872.82,1404.28 "/>
<polyline clip-path="url(#clip790)" style="stroke:#000000; stroke-linecap:round; stroke-linejoin:round; stroke-width:4; stroke-opacity:1; fill:none" points="2286.45,1423.18 2286.45,1404.28 "/>
<path clip-path="url(#clip790)" d="M195.666 1454.1 Q192.055 1454.1 190.226 1457.66 Q188.42 1461.2 188.42 1468.33 Q188.42 1475.44 190.226 1479.01 Q192.055 1482.55 195.666 1482.55 Q199.3 1482.55 201.105 1479.01 Q202.934 1475.44 202.934 1468.33 Q202.934 1461.2 201.105 1457.66 Q199.3 1454.1 195.666 1454.1 M195.666 1450.39 Q201.476 1450.39 204.531 1455 Q207.61 1459.58 207.61 1468.33 Q207.61 1477.06 204.531 1481.67 Q201.476 1486.25 195.666 1486.25 Q189.856 1486.25 186.777 1481.67 Q183.721 1477.06 183.721 1468.33 Q183.721 1459.58 186.777 1455 Q189.856 1450.39 195.666 1450.39 Z" fill="#000000" fill-rule="nonzero" fill-opacity="1" /><path clip-path="url(#clip790)" d="M215.828 1479.7 L220.712 1479.7 L220.712 1485.58 L215.828 1485.58 L215.828 1479.7 Z" fill="#000000" fill-rule="nonzero" fill-opacity="1" /><path clip-path="url(#clip790)" d="M240.897 1454.1 Q237.286 1454.1 235.457 1457.66 Q233.652 1461.2 233.652 1468.33 Q233.652 1475.44 235.457 1479.01 Q237.286 1482.55 240.897 1482.55 Q244.531 1482.55 246.337 1479.01 Q248.165 1475.44 248.165 1468.33 Q248.165 1461.2 246.337 1457.66 Q244.531 1454.1 240.897 1454.1 M240.897 1450.39 Q246.707 1450.39 249.763 1455 Q252.841 1459.58 252.841 1468.33 Q252.841 1477.06 249.763 1481.67 Q246.707 1486.25 240.897 1486.25 Q235.087 1486.25 232.008 1481.67 Q228.953 1477.06 228.953 1468.33 Q228.953 1459.58 232.008 1455 Q235.087 1450.39 240.897 1450.39 Z" fill="#000000" fill-rule="nonzero" fill-opacity="1" /><path clip-path="url(#clip790)" d="M609.797 1454.1 Q606.186 1454.1 604.357 1457.66 Q602.552 1461.2 602.552 1468.33 Q602.552 1475.44 604.357 1479.01 Q606.186 1482.55 609.797 1482.55 Q613.431 1482.55 615.237 1479.01 Q617.066 1475.44 617.066 1468.33 Q617.066 1461.2 615.237 1457.66 Q613.431 1454.1 609.797 1454.1 M609.797 1450.39 Q615.607 1450.39 618.663 1455 Q621.742 1459.58 621.742 1468.33 Q621.742 1477.06 618.663 1481.67 Q615.607 1486.25 609.797 1486.25 Q603.987 1486.25 600.908 1481.67 Q597.853 1477.06 597.853 1468.33 Q597.853 1459.58 600.908 1455 Q603.987 1450.39 609.797 1450.39 Z" fill="#000000" fill-rule="nonzero" fill-opacity="1" /><path clip-path="url(#clip790)" d="M629.959 1479.7 L634.843 1479.7 L634.843 1485.58 L629.959 1485.58 L629.959 1479.7 Z" fill="#000000" fill-rule="nonzero" fill-opacity="1" /><path clip-path="url(#clip790)" d="M645.075 1451.02 L663.431 1451.02 L663.431 1454.96 L649.357 1454.96 L649.357 1463.43 Q650.376 1463.08 651.394 1462.92 Q652.413 1462.73 653.431 1462.73 Q659.218 1462.73 662.598 1465.9 Q665.977 1469.08 665.977 1474.49 Q665.977 1480.07 662.505 1483.17 Q659.033 1486.25 652.714 1486.25 Q650.538 1486.25 648.269 1485.88 Q646.024 1485.51 643.616 1484.77 L643.616 1480.07 Q645.7 1481.2 647.922 1481.76 Q650.144 1482.32 652.621 1482.32 Q656.626 1482.32 658.964 1480.21 Q661.302 1478.1 661.302 1474.49 Q661.302 1470.88 658.964 1468.77 Q656.626 1466.67 652.621 1466.67 Q650.746 1466.67 648.871 1467.08 Q647.019 1467.5 645.075 1468.38 L645.075 1451.02 Z" fill="#000000" fill-rule="nonzero" fill-opacity="1" /><path clip-path="url(#clip790)" d="M1012.7 1481.64 L1020.34 1481.64 L1020.34 1455.28 L1012.03 1456.95 L1012.03 1452.69 L1020.29 1451.02 L1024.97 1451.02 L1024.97 1481.64 L1032.61 1481.64 L1032.61 1485.58 L1012.7 1485.58 L1012.7 1481.64 Z" fill="#000000" fill-rule="nonzero" fill-opacity="1" /><path clip-path="url(#clip790)" d="M1042.05 1479.7 L1046.94 1479.7 L1046.94 1485.58 L1042.05 1485.58 L1042.05 1479.7 Z" fill="#000000" fill-rule="nonzero" fill-opacity="1" /><path clip-path="url(#clip790)" d="M1067.12 1454.1 Q1063.51 1454.1 1061.68 1457.66 Q1059.88 1461.2 1059.88 1468.33 Q1059.88 1475.44 1061.68 1479.01 Q1063.51 1482.55 1067.12 1482.55 Q1070.76 1482.55 1072.56 1479.01 Q1074.39 1475.44 1074.39 1468.33 Q1074.39 1461.2 1072.56 1457.66 Q1070.76 1454.1 1067.12 1454.1 M1067.12 1450.39 Q1072.93 1450.39 1075.99 1455 Q1079.07 1459.58 1079.07 1468.33 Q1079.07 1477.06 1075.99 1481.67 Q1072.93 1486.25 1067.12 1486.25 Q1061.31 1486.25 1058.23 1481.67 Q1055.18 1477.06 1055.18 1468.33 Q1055.18 1459.58 1058.23 1455 Q1061.31 1450.39 1067.12 1450.39 Z" fill="#000000" fill-rule="nonzero" fill-opacity="1" /><path clip-path="url(#clip790)" d="M1426.83 1481.64 L1434.47 1481.64 L1434.47 1455.28 L1426.16 1456.95 L1426.16 1452.69 L1434.43 1451.02 L1439.1 1451.02 L1439.1 1481.64 L1446.74 1481.64 L1446.74 1485.58 L1426.83 1485.58 L1426.83 1481.64 Z" fill="#000000" fill-rule="nonzero" fill-opacity="1" /><path clip-path="url(#clip790)" d="M1456.19 1479.7 L1461.07 1479.7 L1461.07 1485.58 L1456.19 1485.58 L1456.19 1479.7 Z" fill="#000000" fill-rule="nonzero" fill-opacity="1" /><path clip-path="url(#clip790)" d="M1471.3 1451.02 L1489.66 1451.02 L1489.66 1454.96 L1475.58 1454.96 L1475.58 1463.43 Q1476.6 1463.08 1477.62 1462.92 Q1478.64 1462.73 1479.66 1462.73 Q1485.44 1462.73 1488.82 1465.9 Q1492.2 1469.08 1492.2 1474.49 Q1492.2 1480.07 1488.73 1483.17 Q1485.26 1486.25 1478.94 1486.25 Q1476.76 1486.25 1474.5 1485.88 Q1472.25 1485.51 1469.84 1484.77 L1469.84 1480.07 Q1471.93 1481.2 1474.15 1481.76 Q1476.37 1482.32 1478.85 1482.32 Q1482.85 1482.32 1485.19 1480.21 Q1487.53 1478.1 1487.53 1474.49 Q1487.53 1470.88 1485.19 1468.77 Q1482.85 1466.67 1478.85 1466.67 Q1476.97 1466.67 1475.1 1467.08 Q1473.25 1467.5 1471.3 1468.38 L1471.3 1451.02 Z" fill="#000000" fill-rule="nonzero" fill-opacity="1" /><path clip-path="url(#clip790)" d="M1844.06 1481.64 L1860.37 1481.64 L1860.37 1485.58 L1838.43 1485.58 L1838.43 1481.64 Q1841.09 1478.89 1845.68 1474.26 Q1850.28 1469.61 1851.46 1468.27 Q1853.71 1465.74 1854.59 1464.01 Q1855.49 1462.25 1855.49 1460.56 Q1855.49 1457.8 1853.55 1456.07 Q1851.62 1454.33 1848.52 1454.33 Q1846.32 1454.33 1843.87 1455.09 Q1841.44 1455.86 1838.66 1457.41 L1838.66 1452.69 Q1841.49 1451.55 1843.94 1450.97 Q1846.39 1450.39 1848.43 1450.39 Q1853.8 1450.39 1856.99 1453.08 Q1860.19 1455.77 1860.19 1460.26 Q1860.19 1462.39 1859.38 1464.31 Q1858.59 1466.2 1856.49 1468.8 Q1855.91 1469.47 1852.81 1472.69 Q1849.7 1475.88 1844.06 1481.64 Z" fill="#000000" fill-rule="nonzero" fill-opacity="1" /><path clip-path="url(#clip790)" d="M1870.19 1479.7 L1875.07 1479.7 L1875.07 1485.58 L1870.19 1485.58 L1870.19 1479.7 Z" fill="#000000" fill-rule="nonzero" fill-opacity="1" /><path clip-path="url(#clip790)" d="M1895.26 1454.1 Q1891.65 1454.1 1889.82 1457.66 Q1888.01 1461.2 1888.01 1468.33 Q1888.01 1475.44 1889.82 1479.01 Q1891.65 1482.55 1895.26 1482.55 Q1898.89 1482.55 1900.7 1479.01 Q1902.53 1475.44 1902.53 1468.33 Q1902.53 1461.2 1900.7 1457.66 Q1898.89 1454.1 1895.26 1454.1 M1895.26 1450.39 Q1901.07 1450.39 1904.12 1455 Q1907.2 1459.58 1907.2 1468.33 Q1907.2 1477.06 1904.12 1481.67 Q1901.07 1486.25 1895.26 1486.25 Q1889.45 1486.25 1886.37 1481.67 Q1883.31 1477.06 1883.31 1468.33 Q1883.31 1459.58 1886.37 1455 Q1889.45 1450.39 1895.26 1450.39 Z" fill="#000000" fill-rule="nonzero" fill-opacity="1" /><path clip-path="url(#clip790)" d="M2258.19 1481.64 L2274.51 1481.64 L2274.51 1485.58 L2252.56 1485.58 L2252.56 1481.64 Q2255.22 1478.89 2259.81 1474.26 Q2264.41 1469.61 2265.59 1468.27 Q2267.84 1465.74 2268.72 1464.01 Q2269.62 1462.25 2269.62 1460.56 Q2269.62 1457.8 2267.68 1456.07 Q2265.76 1454.33 2262.65 1454.33 Q2260.46 1454.33 2258 1455.09 Q2255.57 1455.86 2252.79 1457.41 L2252.79 1452.69 Q2255.62 1451.55 2258.07 1450.97 Q2260.52 1450.39 2262.56 1450.39 Q2267.93 1450.39 2271.13 1453.08 Q2274.32 1455.77 2274.32 1460.26 Q2274.32 1462.39 2273.51 1464.31 Q2272.72 1466.2 2270.62 1468.8 Q2270.04 1469.47 2266.94 1472.69 Q2263.83 1475.88 2258.19 1481.64 Z" fill="#000000" fill-rule="nonzero" fill-opacity="1" /><path clip-path="url(#clip790)" d="M2284.32 1479.7 L2289.21 1479.7 L2289.21 1485.58 L2284.32 1485.58 L2284.32 1479.7 Z" fill="#000000" fill-rule="nonzero" fill-opacity="1" /><path clip-path="url(#clip790)" d="M2299.44 1451.02 L2317.79 1451.02 L2317.79 1454.96 L2303.72 1454.96 L2303.72 1463.43 Q2304.74 1463.08 2305.76 1462.92 Q2306.77 1462.73 2307.79 1462.73 Q2313.58 1462.73 2316.96 1465.9 Q2320.34 1469.08 2320.34 1474.49 Q2320.34 1480.07 2316.87 1483.17 Q2313.39 1486.25 2307.08 1486.25 Q2304.9 1486.25 2302.63 1485.88 Q2300.39 1485.51 2297.98 1484.77 L2297.98 1480.07 Q2300.06 1481.2 2302.28 1481.76 Q2304.51 1482.32 2306.98 1482.32 Q2310.99 1482.32 2313.33 1480.21 Q2315.66 1478.1 2315.66 1474.49 Q2315.66 1470.88 2313.33 1468.77 Q2310.99 1466.67 2306.98 1466.67 Q2305.11 1466.67 2303.23 1467.08 Q2301.38 1467.5 2299.44 1468.38 L2299.44 1451.02 Z" fill="#000000" fill-rule="nonzero" fill-opacity="1" /><path clip-path="url(#clip790)" d="M1262.91 1531.91 Q1262.91 1532.81 1262.49 1533.04 Q1262.07 1533.23 1260.91 1533.23 L1254.72 1533.23 L1249.83 1552.69 Q1249.44 1554.39 1249.44 1555.84 Q1249.44 1557.45 1249.93 1558.16 Q1250.44 1558.87 1251.5 1558.87 Q1253.6 1558.87 1255.85 1556.97 Q1258.14 1555.07 1260.07 1550.43 Q1260.33 1549.82 1260.46 1549.69 Q1260.62 1549.53 1261.04 1549.53 Q1261.84 1549.53 1261.84 1550.17 Q1261.84 1550.4 1261.39 1551.43 Q1260.97 1552.46 1260.04 1553.97 Q1259.14 1555.49 1257.95 1556.9 Q1256.79 1558.32 1255.01 1559.35 Q1253.24 1560.35 1251.34 1560.35 Q1248.67 1560.35 1246.96 1558.64 Q1245.29 1556.94 1245.29 1554.26 Q1245.29 1553.39 1245.96 1550.62 Q1246.64 1547.82 1250.31 1533.23 L1244.48 1533.23 Q1243.68 1533.23 1243.36 1533.2 Q1243.07 1533.17 1242.84 1533.01 Q1242.65 1532.81 1242.65 1532.43 Q1242.65 1531.82 1242.91 1531.56 Q1243.16 1531.27 1243.48 1531.24 Q1243.84 1531.17 1244.64 1531.17 L1250.83 1531.17 L1253.4 1520.71 Q1253.66 1519.67 1254.31 1519.09 Q1254.98 1518.48 1255.37 1518.42 Q1255.76 1518.32 1256.05 1518.32 Q1256.91 1518.32 1257.43 1518.81 Q1257.95 1519.26 1257.95 1520.09 Q1257.95 1520.54 1255.24 1531.17 L1261.04 1531.17 Q1261.78 1531.17 1262.07 1531.2 Q1262.39 1531.24 1262.65 1531.4 Q1262.91 1531.56 1262.91 1531.91 Z" fill="#000000" fill-rule="nonzero" fill-opacity="1" /><polyline clip-path="url(#clip792)" style="stroke:#000000; stroke-linecap:round; stroke-linejoin:round; stroke-width:2; stroke-opacity:0.1; fill:none" points="156.112,1362.42 2352.76,1362.42 "/>
<polyline clip-path="url(#clip792)" style="stroke:#000000; stroke-linecap:round; stroke-linejoin:round; stroke-width:2; stroke-opacity:0.1; fill:none" points="156.112,1020.52 2352.76,1020.52 "/>
<polyline clip-path="url(#clip792)" style="stroke:#000000; stroke-linecap:round; stroke-linejoin:round; stroke-width:2; stroke-opacity:0.1; fill:none" points="156.112,678.619 2352.76,678.619 "/>
<polyline clip-path="url(#clip792)" style="stroke:#000000; stroke-linecap:round; stroke-linejoin:round; stroke-width:2; stroke-opacity:0.1; fill:none" points="156.112,336.718 2352.76,336.718 "/>
<polyline clip-path="url(#clip790)" style="stroke:#000000; stroke-linecap:round; stroke-linejoin:round; stroke-width:4; stroke-opacity:1; fill:none" points="156.112,1423.18 156.112,47.2441 "/>
<polyline clip-path="url(#clip790)" style="stroke:#000000; stroke-linecap:round; stroke-linejoin:round; stroke-width:4; stroke-opacity:1; fill:none" points="156.112,1362.42 175.01,1362.42 "/>
<polyline clip-path="url(#clip790)" style="stroke:#000000; stroke-linecap:round; stroke-linejoin:round; stroke-width:4; stroke-opacity:1; fill:none" points="156.112,1020.52 175.01,1020.52 "/>
<polyline clip-path="url(#clip790)" style="stroke:#000000; stroke-linecap:round; stroke-linejoin:round; stroke-width:4; stroke-opacity:1; fill:none" points="156.112,678.619 175.01,678.619 "/>
<polyline clip-path="url(#clip790)" style="stroke:#000000; stroke-linecap:round; stroke-linejoin:round; stroke-width:4; stroke-opacity:1; fill:none" points="156.112,336.718 175.01,336.718 "/>
<path clip-path="url(#clip790)" d="M62.9365 1348.22 Q59.3254 1348.22 57.4967 1351.78 Q55.6912 1355.33 55.6912 1362.46 Q55.6912 1369.56 57.4967 1373.13 Q59.3254 1376.67 62.9365 1376.67 Q66.5707 1376.67 68.3763 1373.13 Q70.205 1369.56 70.205 1362.46 Q70.205 1355.33 68.3763 1351.78 Q66.5707 1348.22 62.9365 1348.22 M62.9365 1344.52 Q68.7467 1344.52 71.8022 1349.12 Q74.8809 1353.71 74.8809 1362.46 Q74.8809 1371.18 71.8022 1375.79 Q68.7467 1380.37 62.9365 1380.37 Q57.1264 1380.37 54.0477 1375.79 Q50.9921 1371.18 50.9921 1362.46 Q50.9921 1353.71 54.0477 1349.12 Q57.1264 1344.52 62.9365 1344.52 Z" fill="#000000" fill-rule="nonzero" fill-opacity="1" /><path clip-path="url(#clip790)" d="M83.0984 1373.82 L87.9827 1373.82 L87.9827 1379.7 L83.0984 1379.7 L83.0984 1373.82 Z" fill="#000000" fill-rule="nonzero" fill-opacity="1" /><path clip-path="url(#clip790)" d="M108.168 1348.22 Q104.557 1348.22 102.728 1351.78 Q100.922 1355.33 100.922 1362.46 Q100.922 1369.56 102.728 1373.13 Q104.557 1376.67 108.168 1376.67 Q111.802 1376.67 113.608 1373.13 Q115.436 1369.56 115.436 1362.46 Q115.436 1355.33 113.608 1351.78 Q111.802 1348.22 108.168 1348.22 M108.168 1344.52 Q113.978 1344.52 117.033 1349.12 Q120.112 1353.71 120.112 1362.46 Q120.112 1371.18 117.033 1375.79 Q113.978 1380.37 108.168 1380.37 Q102.358 1380.37 99.2789 1375.79 Q96.2234 1371.18 96.2234 1362.46 Q96.2234 1353.71 99.2789 1349.12 Q102.358 1344.52 108.168 1344.52 Z" fill="#000000" fill-rule="nonzero" fill-opacity="1" /><path clip-path="url(#clip790)" d="M64.1634 1006.32 Q60.5523 1006.32 58.7236 1009.88 Q56.918 1013.43 56.918 1020.55 Q56.918 1027.66 58.7236 1031.23 Q60.5523 1034.77 64.1634 1034.77 Q67.7976 1034.77 69.6031 1031.23 Q71.4318 1027.66 71.4318 1020.55 Q71.4318 1013.43 69.6031 1009.88 Q67.7976 1006.32 64.1634 1006.32 M64.1634 1002.61 Q69.9735 1002.61 73.029 1007.22 Q76.1077 1011.8 76.1077 1020.55 Q76.1077 1029.28 73.029 1033.89 Q69.9735 1038.47 64.1634 1038.47 Q58.3532 1038.47 55.2745 1033.89 Q52.219 1029.28 52.219 1020.55 Q52.219 1011.8 55.2745 1007.22 Q58.3532 1002.61 64.1634 1002.61 Z" fill="#000000" fill-rule="nonzero" fill-opacity="1" /><path clip-path="url(#clip790)" d="M84.3253 1031.92 L89.2095 1031.92 L89.2095 1037.8 L84.3253 1037.8 L84.3253 1031.92 Z" fill="#000000" fill-rule="nonzero" fill-opacity="1" /><path clip-path="url(#clip790)" d="M100.205 1033.86 L107.844 1033.86 L107.844 1007.5 L99.5335 1009.17 L99.5335 1004.91 L107.797 1003.24 L112.473 1003.24 L112.473 1033.86 L120.112 1033.86 L120.112 1037.8 L100.205 1037.8 L100.205 1033.86 Z" fill="#000000" fill-rule="nonzero" fill-opacity="1" /><path clip-path="url(#clip790)" d="M64.5337 664.418 Q60.9226 664.418 59.0939 667.983 Q57.2884 671.524 57.2884 678.654 Q57.2884 685.76 59.0939 689.325 Q60.9226 692.867 64.5337 692.867 Q68.168 692.867 69.9735 689.325 Q71.8022 685.76 71.8022 678.654 Q71.8022 671.524 69.9735 667.983 Q68.168 664.418 64.5337 664.418 M64.5337 660.714 Q70.3439 660.714 73.3994 665.321 Q76.4781 669.904 76.4781 678.654 Q76.4781 687.381 73.3994 691.987 Q70.3439 696.57 64.5337 696.57 Q58.7236 696.57 55.6449 691.987 Q52.5893 687.381 52.5893 678.654 Q52.5893 669.904 55.6449 665.321 Q58.7236 660.714 64.5337 660.714 Z" fill="#000000" fill-rule="nonzero" fill-opacity="1" /><path clip-path="url(#clip790)" d="M84.6956 690.02 L89.5799 690.02 L89.5799 695.899 L84.6956 695.899 L84.6956 690.02 Z" fill="#000000" fill-rule="nonzero" fill-opacity="1" /><path clip-path="url(#clip790)" d="M103.793 691.964 L120.112 691.964 L120.112 695.899 L98.1678 695.899 L98.1678 691.964 Q100.83 689.209 105.413 684.58 Q110.02 679.927 111.2 678.584 Q113.445 676.061 114.325 674.325 Q115.228 672.566 115.228 670.876 Q115.228 668.122 113.283 666.385 Q111.362 664.649 108.26 664.649 Q106.061 664.649 103.608 665.413 Q101.177 666.177 98.3993 667.728 L98.3993 663.006 Q101.223 661.872 103.677 661.293 Q106.131 660.714 108.168 660.714 Q113.538 660.714 116.733 663.399 Q119.927 666.085 119.927 670.575 Q119.927 672.705 119.117 674.626 Q118.33 676.524 116.223 679.117 Q115.645 679.788 112.543 683.006 Q109.441 686.2 103.793 691.964 Z" fill="#000000" fill-rule="nonzero" fill-opacity="1" /><path clip-path="url(#clip790)" d="M63.5847 322.517 Q59.9736 322.517 58.1449 326.082 Q56.3393 329.624 56.3393 336.753 Q56.3393 343.86 58.1449 347.424 Q59.9736 350.966 63.5847 350.966 Q67.2189 350.966 69.0244 347.424 Q70.8531 343.86 70.8531 336.753 Q70.8531 329.624 69.0244 326.082 Q67.2189 322.517 63.5847 322.517 M63.5847 318.813 Q69.3948 318.813 72.4503 323.42 Q75.529 328.003 75.529 336.753 Q75.529 345.48 72.4503 350.086 Q69.3948 354.67 63.5847 354.67 Q57.7745 354.67 54.6958 350.086 Q51.6403 345.48 51.6403 336.753 Q51.6403 328.003 54.6958 323.42 Q57.7745 318.813 63.5847 318.813 Z" fill="#000000" fill-rule="nonzero" fill-opacity="1" /><path clip-path="url(#clip790)" d="M83.7466 348.119 L88.6308 348.119 L88.6308 353.998 L83.7466 353.998 L83.7466 348.119 Z" fill="#000000" fill-rule="nonzero" fill-opacity="1" /><path clip-path="url(#clip790)" d="M112.983 335.364 Q116.339 336.082 118.214 338.35 Q120.112 340.619 120.112 343.952 Q120.112 349.068 116.594 351.869 Q113.075 354.67 106.594 354.67 Q104.418 354.67 102.103 354.23 Q99.8113 353.813 97.3576 352.957 L97.3576 348.443 Q99.3021 349.577 101.617 350.156 Q103.932 350.735 106.455 350.735 Q110.853 350.735 113.145 348.999 Q115.459 347.262 115.459 343.952 Q115.459 340.897 113.307 339.184 Q111.177 337.448 107.358 337.448 L103.33 337.448 L103.33 333.605 L107.543 333.605 Q110.992 333.605 112.82 332.239 Q114.649 330.85 114.649 328.258 Q114.649 325.596 112.751 324.184 Q110.876 322.749 107.358 322.749 Q105.436 322.749 103.237 323.165 Q101.038 323.582 98.3993 324.462 L98.3993 320.295 Q101.061 319.554 103.376 319.184 Q105.714 318.813 107.774 318.813 Q113.098 318.813 116.2 321.244 Q119.302 323.651 119.302 327.772 Q119.302 330.642 117.658 332.633 Q116.015 334.6 112.983 335.364 Z" fill="#000000" fill-rule="nonzero" fill-opacity="1" /><polyline clip-path="url(#clip792)" style="stroke:#009af9; stroke-linecap:round; stroke-linejoin:round; stroke-width:4; stroke-opacity:1; fill:none" points="218.281,1362.42 224.486,1362.49 230.69,1362.6 236.895,1362.61 243.099,1362.68 249.304,1362.79 255.508,1362.8 261.713,1362.8 267.917,1362.78 274.122,1362.78 280.326,1362.61 286.531,1362.1 292.735,1361.47 298.94,1360.59 305.144,1359.48 311.349,1358.36 317.553,1357.27 323.758,1356.19 329.962,1355.21 336.167,1354.47 342.371,1353.8 348.576,1353.04 354.78,1352.09 360.985,1351.07 367.189,1350.05 373.394,1349.03 379.598,1348.19 385.803,1347.46 392.007,1346.91 398.212,1346.56 404.417,1346.34 410.621,1346.15 416.826,1345.87 423.03,1345.65 429.235,1345.45 435.439,1345.18 441.644,1344.94 447.848,1344.66 454.053,1344.25 460.257,1343.69 466.462,1343.15 472.666,1342.66 478.871,1342.09 485.075,1341.47 491.28,1340.8 497.484,1340.05 503.689,1339.26 509.893,1338.54 516.098,1337.97 522.302,1337.32 528.507,1336.47 534.711,1335.49 540.916,1334.63 547.12,1334.15 553.325,1333.84 559.529,1333.45 565.734,1332.92 571.938,1332.2 578.143,1331.17 584.347,1329.83 590.552,1328.21 596.756,1326.5 602.961,1324.74 609.165,1322.76 615.37,1320.32 621.574,1317.68 627.779,1314.91 633.983,1311.93 640.188,1308.74 646.392,1305.29 652.597,1301.81 658.801,1298.37 665.006,1294.9 671.21,1291.35 677.415,1287.69 683.619,1283.74 689.824,1279.47 696.028,1275.24 702.233,1271.07 708.437,1266.68 714.642,1262.05 720.846,1257.25 727.051,1252.24 733.255,1247.1 739.46,1242.1 745.664,1237.36 751.869,1232.83 758.073,1228.49 764.278,1224.26 770.482,1219.91 776.687,1215.49 782.891,1211.43 789.096,1207.72 795.3,1204 801.505,1200.36 807.709,1196.84 813.914,1193.44 820.119,1190.16 826.323,1186.96 832.528,1183.73 838.732,1180.49 844.937,1177.34 851.141,1174.08 857.346,1170.8 863.55,1167.48 869.755,1163.99 875.959,1160.4 882.164,1156.77 888.368,1153.16 894.573,1149.53 900.777,1145.64 906.982,1141.53 913.186,1137.43 919.391,1133.42 925.595,1129.41 931.8,1125.27 938.004,1120.93 944.209,1116.58 950.413,1112.31 956.618,1108.18 962.822,1104.12 969.027,1099.97 975.231,1095.75 981.436,1091.52 987.64,1087.11 993.845,1082.64 1000.05,1078.24 1006.25,1073.87 1012.46,1069.57 1018.66,1065.37 1024.87,1061.11 1031.07,1056.68 1037.28,1052.15 1043.48,1047.65 1049.69,1043.12 1055.89,1038.63 1062.09,1034.24 1068.3,1029.93 1074.5,1025.7 1080.71,1021.52 1086.91,1017.37 1093.12,1013.17 1099.32,1008.92 1105.53,1004.66 1111.73,1000.46 1117.93,996.276 1124.14,992.118 1130.34,987.973 1136.55,983.548 1142.75,978.808 1148.96,973.954 1155.16,968.943 1161.37,963.786 1167.57,958.503 1173.78,953.159 1179.98,947.888 1186.18,942.873 1192.39,938.221 1198.59,933.757 1204.8,929.369 1211,925.088 1217.21,920.784 1223.41,916.4 1229.62,912.047 1235.82,907.694 1242.03,903.29 1248.23,898.943 1254.43,894.491 1260.64,889.867 1266.84,885.283 1273.05,880.665 1279.25,875.884 1285.46,870.978 1291.66,865.893 1297.87,860.767 1304.07,855.472 1310.27,849.983 1316.48,844.334 1322.68,838.29 1328.89,832.038 1335.09,825.769 1341.3,819.566 1347.5,813.42 1353.71,807.236 1359.91,800.957 1366.12,794.73 1372.32,788.6 1378.52,782.7 1384.73,776.855 1390.93,770.945 1397.14,765.115 1403.34,759.365 1409.55,753.849 1415.75,748.455 1421.96,742.992 1428.16,737.458 1434.36,731.862 1440.57,726.299 1446.77,720.802 1452.98,715.289 1459.18,709.805 1465.39,704.11 1471.59,698.307 1477.8,692.755 1484,687.211 1490.21,681.676 1496.41,676.264 1502.61,670.821 1508.82,665.368 1515.02,659.997 1521.23,654.747 1527.43,649.553 1533.64,644.516 1539.84,639.519 1546.05,634.508 1552.25,629.707 1558.45,625.057 1564.66,620.567 1570.86,616.179 1577.07,611.723 1583.27,607.217 1589.48,602.638 1595.68,597.957 1601.89,593.339 1608.09,588.94 1614.3,584.698 1620.5,580.418 1626.7,576.036 1632.91,571.526 1639.11,566.948 1645.32,562.513 1651.52,558.088 1657.73,553.327 1663.93,548.431 1670.14,543.491 1676.34,538.563 1682.55,533.904 1688.75,529.394 1694.95,524.937 1701.16,520.653 1707.36,516.345 1713.57,511.719 1719.77,507.079 1725.98,502.601 1732.18,497.994 1738.39,493.24 1744.59,488.169 1750.79,482.791 1757,477.456 1763.2,472.026 1769.41,466.43 1775.61,460.868 1781.82,455.434 1788.02,449.78 1794.23,443.897 1800.43,438.2 1806.64,432.779 1812.84,427.381 1819.04,421.963 1825.25,416.71 1831.45,411.331 1837.66,405.782 1843.86,400.301 1850.07,394.965 1856.27,389.681 1862.48,384.24 1868.68,378.749 1874.88,373.374 1881.09,368.14 1887.29,363.019 1893.5,358.117 1899.7,353.291 1905.91,348.252 1912.11,343.184 1918.32,338.197 1924.52,333.217 1930.73,328.4 1936.93,323.672 1943.13,318.787 1949.34,313.78 1955.54,308.746 1961.75,303.816 1967.95,298.999 1974.16,294.268 1980.36,289.641 1986.57,284.931 1992.77,280.191 1998.97,275.535 2005.18,271.077 2011.38,266.852 2017.59,262.75 2023.79,258.763 2030,254.817 2036.2,250.863 2042.41,246.861 2048.61,242.928 2054.82,239.172 2061.02,235.603 2067.22,232.114 2073.43,228.681 2079.63,225.232 2085.84,221.513 2092.04,217.601 2098.25,213.554 2104.45,209.326 2110.66,205.075 2116.86,200.881 2123.07,196.605 2129.27,192.174 2135.47,187.745 2141.68,183.215 2147.88,178.539 2154.09,173.891 2160.29,169.236 2166.5,164.518 2172.7,159.835 2178.91,155.45 2185.11,151.387 2191.31,147.519 2197.52,143.818 2203.72,140.097 2209.93,136.477 2216.13,133.099 2222.34,129.812 2228.54,126.37 2234.75,122.703 2240.95,118.909 2247.16,115.032 2253.36,111.197 2259.56,107.214 2265.77,103.141 2271.97,99.1386 2278.18,94.9847 2284.38,90.6729 2290.59,86.1857 "/>
<polyline clip-path="url(#clip792)" style="stroke:#e26f46; stroke-linecap:round; stroke-linejoin:round; stroke-width:4; stroke-opacity:1; fill:none" points="218.281,1362.42 224.486,1381.72 230.69,1370.95 236.895,1358.38 243.099,1384.24 249.304,1369.59 255.508,1358.19 261.713,1366.6 267.917,1353.19 274.122,1372.08 280.326,1307.65 286.531,1280.72 292.735,1274.42 298.94,1216.8 305.144,1212.59 311.349,1212 317.553,1223.1 323.758,1214.34 329.962,1248.93 336.167,1278.8 342.371,1267.49 348.576,1253.94 354.78,1217.45 360.985,1235.85 367.189,1217 373.394,1236.62 379.598,1262.88 385.803,1268.24 392.007,1309.85 398.212,1322.57 404.417,1343.57 410.621,1330.04 416.826,1319.1 423.03,1347.87 429.235,1322.18 435.439,1332.45 441.644,1328.93 447.848,1320.77 454.053,1293.6 460.257,1282.27 466.462,1299.64 472.666,1292.51 478.871,1281.36 485.075,1278.06 491.28,1268.61 497.484,1254.79 503.689,1260.8 509.893,1271.43 516.098,1302.16 522.302,1249.08 528.507,1248.41 534.711,1215.52 540.916,1278.93 547.12,1319.08 553.325,1324.14 559.529,1294.47 565.734,1290.86 571.938,1240.75 578.143,1208.89 584.347,1158.74 590.552,1134.12 596.756,1134.27 602.961,1123.25 609.165,1071.88 615.37,1004.43 621.574,1015.31 627.779,971.514 633.983,958.268 640.188,916.343 646.392,888.008 652.597,908.332 658.801,898.395 665.006,902.301 671.21,874.522 677.415,875.224 683.619,795.462 689.824,791.001 696.028,807.096 702.233,805.467 708.437,749.61 714.642,738.416 720.846,708.23 727.051,680.209 733.255,674.05 739.46,716.393 745.664,745.562 751.869,770.508 758.073,797.328 764.278,798.262 770.482,767.391 776.687,778.239 782.891,863.886 789.096,871.343 795.3,862.666 801.505,891.382 807.709,896.057 813.914,922.289 820.119,926.526 826.323,946.303 832.528,915.927 838.732,945.958 844.937,936.83 851.141,919.341 857.346,930.397 863.55,909.152 869.755,886.788 875.959,880.585 882.164,874.375 888.368,889.682 894.573,865.643 900.777,822.786 906.982,805.371 913.186,827.616 919.391,826.349 925.595,830.595 931.8,788.291 938.004,779.966 944.209,784.008 950.413,802.264 956.618,821.085 962.822,821.804 969.027,796.48 975.231,804.128 981.436,790.668 987.64,760.119 993.845,772.002 1000.05,779.754 1006.25,780.688 1012.46,797.166 1018.66,807.718 1024.87,781.122 1031.07,760.527 1037.28,757.336 1043.48,767.389 1049.69,749.094 1055.89,778.364 1062.09,775.141 1068.3,801.329 1074.5,794.469 1080.71,818.325 1086.91,797.219 1093.12,808.006 1099.32,785.396 1105.53,801.498 1111.73,804.733 1117.93,803.981 1124.14,811.938 1130.34,807.765 1136.55,737.058 1142.75,723.737 1148.96,706.569 1155.16,682.137 1161.37,667.538 1167.57,648.36 1173.78,651.502 1179.98,667.699 1186.18,719.894 1192.39,764.415 1198.59,770.012 1204.8,784.655 1211,798.48 1217.21,778.675 1223.41,777.115 1229.62,786.879 1235.82,777.371 1242.03,773.059 1248.23,792.506 1254.43,745.161 1260.64,746.643 1266.84,755.857 1273.05,737.493 1279.25,712.188 1285.46,704.533 1291.66,664.322 1297.87,693.619 1304.07,619.278 1310.27,641.648 1316.48,576.796 1322.68,536.233 1328.89,521.45 1335.09,531.709 1341.3,539.033 1347.5,546.987 1353.71,528.599 1359.91,521.818 1366.12,542.583 1372.32,547.622 1378.52,603.967 1384.73,562.224 1390.93,586.589 1397.14,583.606 1403.34,607.734 1409.55,646.247 1415.75,640.23 1421.96,627.7 1428.16,621.451 1434.36,611.058 1440.57,630.504 1446.77,628.366 1452.98,626.339 1459.18,635.993 1465.39,570.256 1471.59,607.237 1477.8,637.084 1484,609.317 1490.21,639.509 1496.41,642.029 1502.61,631.29 1508.82,639.583 1515.02,652.985 1521.23,671.911 1527.43,667.684 1533.64,714.113 1539.84,678.114 1546.05,710.52 1552.25,733.963 1558.45,750.847 1564.66,776.785 1570.86,777.784 1577.07,758.961 1583.27,764.106 1589.48,739.849 1595.68,736.609 1601.89,756.698 1608.09,795.16 1614.3,798.5 1620.5,784.985 1626.7,771.308 1632.91,750.859 1639.11,753.264 1645.32,788.892 1651.52,755.86 1657.73,699.441 1663.93,719.882 1670.14,687.568 1676.34,723.247 1682.55,759.115 1688.75,763.051 1694.95,773.337 1701.16,808.942 1707.36,767.017 1713.57,724.231 1719.77,763.506 1725.98,767.219 1732.18,728.837 1738.39,728.373 1744.59,644.092 1750.79,646.755 1757,655.532 1763.2,621.289 1769.41,611.319 1775.61,630.213 1781.82,645.598 1788.02,571.447 1794.23,584.547 1800.43,621.017 1806.64,658.453 1812.84,626.72 1819.04,653.358 1825.25,670.681 1831.45,619.955 1837.66,624.958 1843.86,638.247 1850.07,663.89 1856.27,651.637 1862.48,622.434 1868.68,638.187 1874.88,653.162 1881.09,675.91 1887.29,683.344 1893.5,734.431 1899.7,703.305 1905.91,677.909 1912.11,695.382 1918.32,699.712 1924.52,697.218 1930.73,743.099 1936.93,720.888 1943.13,701.185 1949.34,688.379 1955.54,694.128 1961.75,716.197 1967.95,723.895 1974.16,739.51 1980.36,751.433 1986.57,717.484 1992.77,743.222 1998.97,739.936 2005.18,796.32 2011.38,801.758 2017.59,829.302 2023.79,832.233 2030,840.484 2036.2,829.731 2042.41,827.926 2048.61,848.157 2054.82,875.115 2061.02,897.937 2067.22,896.529 2073.43,913.03 2079.63,891.97 2085.84,841.095 2092.04,840.496 2098.25,805.217 2104.45,792.241 2110.66,798.879 2116.86,807.533 2123.07,777.171 2129.27,766.001 2135.47,777.658 2141.68,739.404 2147.88,738.371 2154.09,747.073 2160.29,736.294 2166.5,730.604 2172.7,745.316 2178.91,810.275 2185.11,831.012 2191.31,862.348 2197.52,875.752 2203.72,856.589 2209.93,903.075 2216.13,920.969 2222.34,927.366 2228.54,879.625 2234.75,867.171 2240.95,845.965 2247.16,845.022 2253.36,857.285 2259.56,805.455 2265.77,833.144 2271.97,824.375 2278.18,792.761 2284.38,782.258 2290.59,745.992 "/>
<path clip-path="url(#clip790)" d="M229.334 248.629 L472.261 248.629 L472.261 93.1086 L229.334 93.1086  Z" fill="#ffffff" fill-rule="evenodd" fill-opacity="1"/>
<polyline clip-path="url(#clip790)" style="stroke:#000000; stroke-linecap:round; stroke-linejoin:round; stroke-width:4; stroke-opacity:1; fill:none" points="229.334,248.629 472.261,248.629 472.261,93.1086 229.334,93.1086 229.334,248.629 "/>
<polyline clip-path="url(#clip790)" style="stroke:#009af9; stroke-linecap:round; stroke-linejoin:round; stroke-width:4; stroke-opacity:1; fill:none" points="253.741,144.949 400.184,144.949 "/>
<path clip-path="url(#clip790)" d="M446.725 131.203 Q446.725 131.531 446.514 132.304 L441.923 150.62 Q440.916 154.696 437.637 157.554 Q434.381 160.411 430.681 160.411 Q428.456 160.411 427.027 159.217 Q425.598 158.045 425.598 156.242 Q425.598 154.649 426.441 153.876 Q427.284 153.127 428.292 153.127 Q428.619 153.127 428.971 153.22 Q429.322 153.314 429.697 153.712 Q430.072 154.11 430.072 154.79 Q430.072 155.891 429.111 156.757 Q428.643 157.155 428.198 157.249 Q427.776 157.343 427.05 157.343 Q427.331 157.999 427.847 158.444 Q428.362 158.889 428.947 159.053 Q429.533 159.24 429.908 159.287 Q430.306 159.357 430.681 159.357 Q433.679 159.357 435.974 156.336 Q436.653 155.422 437.145 154.509 Q437.661 153.619 438.035 152.518 Q438.41 151.44 438.574 150.855 Q438.761 150.269 439.089 148.934 Q436.911 151.112 434.241 151.112 Q433.117 151.112 432.109 150.808 Q431.126 150.503 430.259 149.871 Q429.392 149.215 428.877 148.067 Q428.385 146.92 428.385 145.397 Q428.385 143.781 429.018 141.579 Q429.65 139.378 431.173 135.326 Q431.992 133.054 431.992 131.953 Q431.992 131.414 431.875 131.086 Q431.758 130.735 431.524 130.618 Q431.29 130.477 431.149 130.454 Q431.032 130.43 430.798 130.43 Q429.416 130.43 428.128 131.836 Q426.839 133.241 425.949 136.38 Q425.762 136.965 425.645 137.106 Q425.528 137.246 425.176 137.246 Q424.591 137.223 424.591 136.754 Q424.591 136.567 424.802 135.841 Q425.012 135.091 425.504 133.991 Q426.02 132.866 426.722 131.859 Q427.425 130.828 428.526 130.102 Q429.65 129.376 430.938 129.376 Q432.695 129.376 433.772 130.524 Q434.873 131.648 434.873 133.311 Q434.873 133.991 434.686 134.6 Q434.522 135.185 433.913 136.754 Q431.454 143.078 431.454 146.17 Q431.454 146.92 431.571 147.552 Q431.711 148.161 432.016 148.77 Q432.32 149.356 432.929 149.707 Q433.562 150.035 434.428 150.035 Q435.529 150.035 436.56 149.52 Q437.614 148.981 438.27 148.255 Q438.949 147.529 439.347 146.92 Q439.769 146.287 439.862 145.959 L442.017 137.34 L442.977 133.499 Q443.422 131.414 443.633 130.899 Q443.914 130.407 444.406 130.149 Q444.898 129.892 445.32 129.892 Q445.905 129.892 446.303 130.243 Q446.725 130.594 446.725 131.203 Z" fill="#000000" fill-rule="nonzero" fill-opacity="1" /><polyline clip-path="url(#clip790)" style="stroke:#e26f46; stroke-linecap:round; stroke-linejoin:round; stroke-width:4; stroke-opacity:1; fill:none" points="253.741,196.789 400.184,196.789 "/>
<path clip-path="url(#clip790)" d="M445.648 189.167 Q445.648 189.776 445.484 190.971 Q445.32 192.165 444.921 193.899 Q444.523 195.632 443.938 197.459 Q443.376 199.286 442.486 201.113 Q441.596 202.916 440.541 204.345 Q439.487 205.774 438.012 206.664 Q436.536 207.554 434.873 207.554 Q434.1 207.554 433.351 207.437 Q432.601 207.32 431.664 206.945 Q430.727 206.57 430.048 205.961 Q429.369 205.329 428.901 204.204 Q428.432 203.08 428.432 201.605 Q428.432 200.082 428.994 198.044 Q429.58 195.983 431.173 191.767 Q431.992 189.589 431.992 188.394 Q431.992 187.856 431.875 187.528 Q431.758 187.176 431.524 187.059 Q431.29 186.919 431.149 186.895 Q431.032 186.872 430.798 186.872 Q429.51 186.872 428.198 188.207 Q426.886 189.542 425.949 192.821 Q425.762 193.407 425.645 193.547 Q425.528 193.688 425.176 193.688 Q424.591 193.664 424.591 193.196 Q424.591 193.055 424.755 192.517 Q424.919 191.955 425.223 191.111 Q425.528 190.245 426.066 189.355 Q426.605 188.441 427.261 187.645 Q427.94 186.848 428.901 186.333 Q429.861 185.818 430.938 185.818 Q432.695 185.818 433.772 186.966 Q434.873 188.09 434.873 189.753 Q434.873 190.666 434.288 192.142 Q433.304 194.812 432.859 196.1 Q432.414 197.389 431.945 199.216 Q431.5 201.042 431.5 202.307 Q431.5 204.228 432.39 205.352 Q433.281 206.476 435.061 206.476 Q436.653 206.476 438.082 205.329 Q439.534 204.158 440.495 202.495 Q441.455 200.808 442.181 198.934 Q442.907 197.037 443.235 195.608 Q443.586 194.156 443.586 193.477 Q443.586 191.111 441.97 189.565 Q441.525 189.12 441.361 188.839 Q441.197 188.558 441.197 188.113 Q441.197 187.293 441.923 186.567 Q442.673 185.818 443.54 185.818 Q444.336 185.818 444.992 186.614 Q445.648 187.411 445.648 189.167 Z" fill="#000000" fill-rule="nonzero" fill-opacity="1" /></svg>
