<?xml version="1.0" encoding="utf-8"?>
<svg xmlns="http://www.w3.org/2000/svg" xmlns:xlink="http://www.w3.org/1999/xlink" width="800" height="350" viewBox="0 0 3200 1400">
<defs>
  <clipPath id="clip730">
    <rect x="0" y="0" width="3200" height="1400"/>
  </clipPath>
</defs>
<path clip-path="url(#clip730)" d="M0 1400 L3200 1400 L3200 0 L0 0  Z" fill="#ffffff" fill-rule="evenodd" fill-opacity="1"/>
<defs>
  <clipPath id="clip731">
    <rect x="640" y="0" width="2241" height="1400"/>
  </clipPath>
</defs>
<path clip-path="url(#clip730)" d="M248.869 553.395 L1552.76 553.395 L1552.76 47.2441 L248.869 47.2441  Z" fill="#ffffff" fill-rule="evenodd" fill-opacity="1"/>
<defs>
  <clipPath id="clip732">
    <rect x="248" y="47" width="1305" height="507"/>
  </clipPath>
</defs>
<polyline clip-path="url(#clip732)" style="stroke:#000000; stroke-linecap:round; stroke-linejoin:round; stroke-width:2; stroke-opacity:0.1; fill:none" points="248.869,553.395 248.869,47.2441 "/>
<polyline clip-path="url(#clip732)" style="stroke:#000000; stroke-linecap:round; stroke-linejoin:round; stroke-width:2; stroke-opacity:0.1; fill:none" points="509.126,553.395 509.126,47.2441 "/>
<polyline clip-path="url(#clip732)" style="stroke:#000000; stroke-linecap:round; stroke-linejoin:round; stroke-width:2; stroke-opacity:0.1; fill:none" points="769.383,553.395 769.383,47.2441 "/>
<polyline clip-path="url(#clip732)" style="stroke:#000000; stroke-linecap:round; stroke-linejoin:round; stroke-width:2; stroke-opacity:0.1; fill:none" points="1029.64,553.395 1029.64,47.2441 "/>
<polyline clip-path="url(#clip732)" style="stroke:#000000; stroke-linecap:round; stroke-linejoin:round; stroke-width:2; stroke-opacity:0.1; fill:none" points="1289.9,553.395 1289.9,47.2441 "/>
<polyline clip-path="url(#clip732)" style="stroke:#000000; stroke-linecap:round; stroke-linejoin:round; stroke-width:2; stroke-opacity:0.1; fill:none" points="1550.15,553.395 1550.15,47.2441 "/>
<polyline clip-path="url(#clip730)" style="stroke:#000000; stroke-linecap:round; stroke-linejoin:round; stroke-width:4; stroke-opacity:1; fill:none" points="248.869,553.395 1552.76,553.395 "/>
<polyline clip-path="url(#clip730)" style="stroke:#000000; stroke-linecap:round; stroke-linejoin:round; stroke-width:4; stroke-opacity:1; fill:none" points="248.869,553.395 248.869,534.497 "/>
<polyline clip-path="url(#clip730)" style="stroke:#000000; stroke-linecap:round; stroke-linejoin:round; stroke-width:4; stroke-opacity:1; fill:none" points="509.126,553.395 509.126,534.497 "/>
<polyline clip-path="url(#clip730)" style="stroke:#000000; stroke-linecap:round; stroke-linejoin:round; stroke-width:4; stroke-opacity:1; fill:none" points="769.383,553.395 769.383,534.497 "/>
<polyline clip-path="url(#clip730)" style="stroke:#000000; stroke-linecap:round; stroke-linejoin:round; stroke-width:4; stroke-opacity:1; fill:none" points="1029.64,553.395 1029.64,534.497 "/>
<polyline clip-path="url(#clip730)" style="stroke:#000000; stroke-linecap:round; stroke-linejoin:round; stroke-width:4; stroke-opacity:1; fill:none" points="1289.9,553.395 1289.9,534.497 "/>
<polyline clip-path="url(#clip730)" style="stroke:#000000; stroke-linecap:round; stroke-linejoin:round; stroke-width:4; stroke-opacity:1; fill:none" points="1550.15,553.395 1550.15,534.497 "/>
<path clip-path="url(#clip730)" d="M226.253 590.714 Q222.642 590.714 220.814 594.278 Q219.008 597.82 219.008 604.95 Q219.008 612.056 220.814 615.621 Q222.642 619.162 226.253 619.162 Q229.888 619.162 231.693 615.621 Q233.522 612.056 233.522 604.95 Q233.522 597.82 231.693 594.278 Q229.888 590.714 226.253 590.714 M226.253 587.01 Q232.064 587.01 235.119 591.616 Q238.198 596.2 238.198 604.95 Q238.198 613.676 235.119 618.283 Q232.064 622.866 226.253 622.866 Q220.443 622.866 217.365 618.283 Q214.309 613.676 214.309 604.95 Q214.309 596.2 217.365 591.616 Q220.443 587.01 226.253 587.01 Z" fill="#000000" fill-rule="nonzero" fill-opacity="1" /><path clip-path="url(#clip730)" d="M246.415 616.315 L251.3 616.315 L251.3 622.195 L246.415 622.195 L246.415 616.315 Z" fill="#000000" fill-rule="nonzero" fill-opacity="1" /><path clip-path="url(#clip730)" d="M271.485 590.714 Q267.874 590.714 266.045 594.278 Q264.239 597.82 264.239 604.95 Q264.239 612.056 266.045 615.621 Q267.874 619.162 271.485 619.162 Q275.119 619.162 276.924 615.621 Q278.753 612.056 278.753 604.95 Q278.753 597.82 276.924 594.278 Q275.119 590.714 271.485 590.714 M271.485 587.01 Q277.295 587.01 280.35 591.616 Q283.429 596.2 283.429 604.95 Q283.429 613.676 280.35 618.283 Q277.295 622.866 271.485 622.866 Q265.674 622.866 262.596 618.283 Q259.54 613.676 259.54 604.95 Q259.54 596.2 262.596 591.616 Q265.674 587.01 271.485 587.01 Z" fill="#000000" fill-rule="nonzero" fill-opacity="1" /><path clip-path="url(#clip730)" d="M487.008 590.714 Q483.397 590.714 481.568 594.278 Q479.763 597.82 479.763 604.95 Q479.763 612.056 481.568 615.621 Q483.397 619.162 487.008 619.162 Q490.642 619.162 492.448 615.621 Q494.276 612.056 494.276 604.95 Q494.276 597.82 492.448 594.278 Q490.642 590.714 487.008 590.714 M487.008 587.01 Q492.818 587.01 495.874 591.616 Q498.952 596.2 498.952 604.95 Q498.952 613.676 495.874 618.283 Q492.818 622.866 487.008 622.866 Q481.198 622.866 478.119 618.283 Q475.064 613.676 475.064 604.95 Q475.064 596.2 478.119 591.616 Q481.198 587.01 487.008 587.01 Z" fill="#000000" fill-rule="nonzero" fill-opacity="1" /><path clip-path="url(#clip730)" d="M507.17 616.315 L512.054 616.315 L512.054 622.195 L507.17 622.195 L507.17 616.315 Z" fill="#000000" fill-rule="nonzero" fill-opacity="1" /><path clip-path="url(#clip730)" d="M522.286 587.635 L540.642 587.635 L540.642 591.57 L526.568 591.57 L526.568 600.042 Q527.586 599.695 528.605 599.533 Q529.623 599.348 530.642 599.348 Q536.429 599.348 539.809 602.519 Q543.188 605.69 543.188 611.107 Q543.188 616.686 539.716 619.787 Q536.244 622.866 529.924 622.866 Q527.748 622.866 525.48 622.496 Q523.235 622.125 520.827 621.385 L520.827 616.686 Q522.911 617.82 525.133 618.375 Q527.355 618.931 529.832 618.931 Q533.836 618.931 536.174 616.825 Q538.512 614.718 538.512 611.107 Q538.512 607.496 536.174 605.389 Q533.836 603.283 529.832 603.283 Q527.957 603.283 526.082 603.7 Q524.23 604.116 522.286 604.996 L522.286 587.635 Z" fill="#000000" fill-rule="nonzero" fill-opacity="1" /><path clip-path="url(#clip730)" d="M736.536 618.26 L744.175 618.26 L744.175 591.894 L735.864 593.561 L735.864 589.302 L744.128 587.635 L748.804 587.635 L748.804 618.26 L756.443 618.26 L756.443 622.195 L736.536 622.195 L736.536 618.26 Z" fill="#000000" fill-rule="nonzero" fill-opacity="1" /><path clip-path="url(#clip730)" d="M765.887 616.315 L770.772 616.315 L770.772 622.195 L765.887 622.195 L765.887 616.315 Z" fill="#000000" fill-rule="nonzero" fill-opacity="1" /><path clip-path="url(#clip730)" d="M790.957 590.714 Q787.346 590.714 785.517 594.278 Q783.711 597.82 783.711 604.95 Q783.711 612.056 785.517 615.621 Q787.346 619.162 790.957 619.162 Q794.591 619.162 796.396 615.621 Q798.225 612.056 798.225 604.95 Q798.225 597.82 796.396 594.278 Q794.591 590.714 790.957 590.714 M790.957 587.01 Q796.767 587.01 799.822 591.616 Q802.901 596.2 802.901 604.95 Q802.901 613.676 799.822 618.283 Q796.767 622.866 790.957 622.866 Q785.147 622.866 782.068 618.283 Q779.012 613.676 779.012 604.95 Q779.012 596.2 782.068 591.616 Q785.147 587.01 790.957 587.01 Z" fill="#000000" fill-rule="nonzero" fill-opacity="1" /><path clip-path="url(#clip730)" d="M997.29 618.26 L1004.93 618.26 L1004.93 591.894 L996.619 593.561 L996.619 589.302 L1004.88 587.635 L1009.56 587.635 L1009.56 618.26 L1017.2 618.26 L1017.2 622.195 L997.29 622.195 L997.29 618.26 Z" fill="#000000" fill-rule="nonzero" fill-opacity="1" /><path clip-path="url(#clip730)" d="M1026.64 616.315 L1031.53 616.315 L1031.53 622.195 L1026.64 622.195 L1026.64 616.315 Z" fill="#000000" fill-rule="nonzero" fill-opacity="1" /><path clip-path="url(#clip730)" d="M1041.76 587.635 L1060.11 587.635 L1060.11 591.57 L1046.04 591.57 L1046.04 600.042 Q1047.06 599.695 1048.08 599.533 Q1049.1 599.348 1050.11 599.348 Q1055.9 599.348 1059.28 602.519 Q1062.66 605.69 1062.66 611.107 Q1062.66 616.686 1059.19 619.787 Q1055.72 622.866 1049.4 622.866 Q1047.22 622.866 1044.95 622.496 Q1042.71 622.125 1040.3 621.385 L1040.3 616.686 Q1042.38 617.82 1044.6 618.375 Q1046.83 618.931 1049.3 618.931 Q1053.31 618.931 1055.65 616.825 Q1057.98 614.718 1057.98 611.107 Q1057.98 607.496 1055.65 605.389 Q1053.31 603.283 1049.3 603.283 Q1047.43 603.283 1045.55 603.7 Q1043.7 604.116 1041.76 604.996 L1041.76 587.635 Z" fill="#000000" fill-rule="nonzero" fill-opacity="1" /><path clip-path="url(#clip730)" d="M1261.14 618.26 L1277.45 618.26 L1277.45 622.195 L1255.51 622.195 L1255.51 618.26 Q1258.17 615.505 1262.76 610.875 Q1267.36 606.223 1268.54 604.88 Q1270.79 602.357 1271.67 600.621 Q1272.57 598.862 1272.57 597.172 Q1272.57 594.417 1270.63 592.681 Q1268.7 590.945 1265.6 590.945 Q1263.4 590.945 1260.95 591.709 Q1258.52 592.473 1255.74 594.024 L1255.74 589.302 Q1258.57 588.167 1261.02 587.589 Q1263.47 587.01 1265.51 587.01 Q1270.88 587.01 1274.07 589.695 Q1277.27 592.38 1277.27 596.871 Q1277.27 599.001 1276.46 600.922 Q1275.67 602.82 1273.57 605.413 Q1272.99 606.084 1269.89 609.301 Q1266.78 612.496 1261.14 618.26 Z" fill="#000000" fill-rule="nonzero" fill-opacity="1" /><path clip-path="url(#clip730)" d="M1287.27 616.315 L1292.15 616.315 L1292.15 622.195 L1287.27 622.195 L1287.27 616.315 Z" fill="#000000" fill-rule="nonzero" fill-opacity="1" /><path clip-path="url(#clip730)" d="M1312.34 590.714 Q1308.73 590.714 1306.9 594.278 Q1305.09 597.82 1305.09 604.95 Q1305.09 612.056 1306.9 615.621 Q1308.73 619.162 1312.34 619.162 Q1315.97 619.162 1317.78 615.621 Q1319.61 612.056 1319.61 604.95 Q1319.61 597.82 1317.78 594.278 Q1315.97 590.714 1312.34 590.714 M1312.34 587.01 Q1318.15 587.01 1321.2 591.616 Q1324.28 596.2 1324.28 604.95 Q1324.28 613.676 1321.2 618.283 Q1318.15 622.866 1312.34 622.866 Q1306.53 622.866 1303.45 618.283 Q1300.39 613.676 1300.39 604.95 Q1300.39 596.2 1303.45 591.616 Q1306.53 587.01 1312.34 587.01 Z" fill="#000000" fill-rule="nonzero" fill-opacity="1" /><path clip-path="url(#clip730)" d="M1521.89 618.26 L1538.21 618.26 L1538.21 622.195 L1516.26 622.195 L1516.26 618.26 Q1518.93 615.505 1523.51 610.875 Q1528.12 606.223 1529.3 604.88 Q1531.54 602.357 1532.42 600.621 Q1533.32 598.862 1533.32 597.172 Q1533.32 594.417 1531.38 592.681 Q1529.46 590.945 1526.36 590.945 Q1524.16 590.945 1521.7 591.709 Q1519.27 592.473 1516.5 594.024 L1516.5 589.302 Q1519.32 588.167 1521.77 587.589 Q1524.23 587.01 1526.26 587.01 Q1531.63 587.01 1534.83 589.695 Q1538.02 592.38 1538.02 596.871 Q1538.02 599.001 1537.21 600.922 Q1536.43 602.82 1534.32 605.413 Q1533.74 606.084 1530.64 609.301 Q1527.54 612.496 1521.89 618.26 Z" fill="#000000" fill-rule="nonzero" fill-opacity="1" /><path clip-path="url(#clip730)" d="M1548.02 616.315 L1552.91 616.315 L1552.91 622.195 L1548.02 622.195 L1548.02 616.315 Z" fill="#000000" fill-rule="nonzero" fill-opacity="1" /><path clip-path="url(#clip730)" d="M1563.14 587.635 L1581.5 587.635 L1581.5 591.57 L1567.42 591.57 L1567.42 600.042 Q1568.44 599.695 1569.46 599.533 Q1570.48 599.348 1571.5 599.348 Q1577.28 599.348 1580.66 602.519 Q1584.04 605.69 1584.04 611.107 Q1584.04 616.686 1580.57 619.787 Q1577.1 622.866 1570.78 622.866 Q1568.6 622.866 1566.33 622.496 Q1564.09 622.125 1561.68 621.385 L1561.68 616.686 Q1563.76 617.82 1565.99 618.375 Q1568.21 618.931 1570.69 618.931 Q1574.69 618.931 1577.03 616.825 Q1579.37 614.718 1579.37 611.107 Q1579.37 607.496 1577.03 605.389 Q1574.69 603.283 1570.69 603.283 Q1568.81 603.283 1566.94 603.7 Q1565.08 604.116 1563.14 604.996 L1563.14 587.635 Z" fill="#000000" fill-rule="nonzero" fill-opacity="1" /><path clip-path="url(#clip730)" d="M909.286 674.123 Q909.286 675.024 908.868 675.25 Q908.449 675.443 907.29 675.443 L901.106 675.443 L896.211 694.895 Q895.824 696.602 895.824 698.052 Q895.824 699.662 896.307 700.37 Q896.823 701.079 897.885 701.079 Q899.979 701.079 902.233 699.179 Q904.52 697.279 906.452 692.641 Q906.71 692.029 906.839 691.9 Q907 691.739 907.418 691.739 Q908.223 691.739 908.223 692.383 Q908.223 692.609 907.773 693.639 Q907.354 694.67 906.42 696.184 Q905.518 697.697 904.327 699.114 Q903.167 700.532 901.396 701.562 Q899.625 702.56 897.724 702.56 Q895.051 702.56 893.344 700.854 Q891.67 699.147 891.67 696.474 Q891.67 695.604 892.346 692.834 Q893.022 690.032 896.694 675.443 L890.865 675.443 Q890.059 675.443 889.737 675.411 Q889.447 675.379 889.222 675.218 Q889.029 675.024 889.029 674.638 Q889.029 674.026 889.286 673.768 Q889.544 673.479 889.866 673.446 Q890.22 673.382 891.026 673.382 L897.209 673.382 L899.786 662.915 Q900.043 661.884 900.687 661.305 Q901.364 660.693 901.75 660.628 Q902.137 660.532 902.426 660.532 Q903.296 660.532 903.811 661.015 Q904.327 661.466 904.327 662.303 Q904.327 662.754 901.621 673.382 L907.418 673.382 Q908.159 673.382 908.449 673.414 Q908.771 673.446 909.029 673.607 Q909.286 673.768 909.286 674.123 Z" fill="#000000" fill-rule="nonzero" fill-opacity="1" /><polyline clip-path="url(#clip732)" style="stroke:#000000; stroke-linecap:round; stroke-linejoin:round; stroke-width:2; stroke-opacity:0.1; fill:none" points="248.869,553.395 1552.76,553.395 "/>
<polyline clip-path="url(#clip732)" style="stroke:#000000; stroke-linecap:round; stroke-linejoin:round; stroke-width:2; stroke-opacity:0.1; fill:none" points="248.869,426.857 1552.76,426.857 "/>
<polyline clip-path="url(#clip732)" style="stroke:#000000; stroke-linecap:round; stroke-linejoin:round; stroke-width:2; stroke-opacity:0.1; fill:none" points="248.869,300.319 1552.76,300.319 "/>
<polyline clip-path="url(#clip732)" style="stroke:#000000; stroke-linecap:round; stroke-linejoin:round; stroke-width:2; stroke-opacity:0.1; fill:none" points="248.869,173.782 1552.76,173.782 "/>
<polyline clip-path="url(#clip732)" style="stroke:#000000; stroke-linecap:round; stroke-linejoin:round; stroke-width:2; stroke-opacity:0.1; fill:none" points="248.869,47.2441 1552.76,47.2441 "/>
<polyline clip-path="url(#clip730)" style="stroke:#000000; stroke-linecap:round; stroke-linejoin:round; stroke-width:4; stroke-opacity:1; fill:none" points="248.869,553.395 248.869,47.2441 "/>
<polyline clip-path="url(#clip730)" style="stroke:#000000; stroke-linecap:round; stroke-linejoin:round; stroke-width:4; stroke-opacity:1; fill:none" points="248.869,553.395 267.767,553.395 "/>
<polyline clip-path="url(#clip730)" style="stroke:#000000; stroke-linecap:round; stroke-linejoin:round; stroke-width:4; stroke-opacity:1; fill:none" points="248.869,426.857 267.767,426.857 "/>
<polyline clip-path="url(#clip730)" style="stroke:#000000; stroke-linecap:round; stroke-linejoin:round; stroke-width:4; stroke-opacity:1; fill:none" points="248.869,300.319 267.767,300.319 "/>
<polyline clip-path="url(#clip730)" style="stroke:#000000; stroke-linecap:round; stroke-linejoin:round; stroke-width:4; stroke-opacity:1; fill:none" points="248.869,173.782 267.767,173.782 "/>
<polyline clip-path="url(#clip730)" style="stroke:#000000; stroke-linecap:round; stroke-linejoin:round; stroke-width:4; stroke-opacity:1; fill:none" points="248.869,47.2441 267.767,47.2441 "/>
<path clip-path="url(#clip730)" d="M93.9252 553.846 L123.601 553.846 L123.601 557.781 L93.9252 557.781 L93.9252 553.846 Z" fill="#000000" fill-rule="nonzero" fill-opacity="1" /><path clip-path="url(#clip730)" d="M133.74 536.115 L152.096 536.115 L152.096 540.05 L138.022 540.05 L138.022 548.522 Q139.041 548.175 140.059 548.013 Q141.078 547.828 142.096 547.828 Q147.883 547.828 151.263 550.999 Q154.642 554.17 154.642 559.587 Q154.642 565.166 151.17 568.267 Q147.698 571.346 141.379 571.346 Q139.203 571.346 136.934 570.976 Q134.689 570.605 132.281 569.865 L132.281 565.166 Q134.365 566.3 136.587 566.855 Q138.809 567.411 141.286 567.411 Q145.291 567.411 147.629 565.305 Q149.967 563.198 149.967 559.587 Q149.967 555.976 147.629 553.869 Q145.291 551.763 141.286 551.763 Q139.411 551.763 137.536 552.18 Q135.684 552.596 133.74 553.476 L133.74 536.115 Z" fill="#000000" fill-rule="nonzero" fill-opacity="1" /><path clip-path="url(#clip730)" d="M163.855 564.795 L168.74 564.795 L168.74 570.675 L163.855 570.675 L163.855 564.795 Z" fill="#000000" fill-rule="nonzero" fill-opacity="1" /><path clip-path="url(#clip730)" d="M188.925 539.194 Q185.314 539.194 183.485 542.758 Q181.679 546.3 181.679 553.43 Q181.679 560.536 183.485 564.101 Q185.314 567.642 188.925 567.642 Q192.559 567.642 194.364 564.101 Q196.193 560.536 196.193 553.43 Q196.193 546.3 194.364 542.758 Q192.559 539.194 188.925 539.194 M188.925 535.49 Q194.735 535.49 197.79 540.096 Q200.869 544.68 200.869 553.43 Q200.869 562.156 197.79 566.763 Q194.735 571.346 188.925 571.346 Q183.114 571.346 180.036 566.763 Q176.98 562.156 176.98 553.43 Q176.98 544.68 180.036 540.096 Q183.114 535.49 188.925 535.49 Z" fill="#000000" fill-rule="nonzero" fill-opacity="1" /><path clip-path="url(#clip730)" d="M94.9205 427.309 L124.596 427.309 L124.596 431.244 L94.9205 431.244 L94.9205 427.309 Z" fill="#000000" fill-rule="nonzero" fill-opacity="1" /><path clip-path="url(#clip730)" d="M138.717 440.202 L155.036 440.202 L155.036 444.137 L133.092 444.137 L133.092 440.202 Q135.754 437.447 140.337 432.818 Q144.943 428.165 146.124 426.822 Q148.369 424.299 149.249 422.563 Q150.152 420.804 150.152 419.114 Q150.152 416.36 148.207 414.623 Q146.286 412.887 143.184 412.887 Q140.985 412.887 138.531 413.651 Q136.101 414.415 133.323 415.966 L133.323 411.244 Q136.147 410.11 138.601 409.531 Q141.055 408.952 143.092 408.952 Q148.462 408.952 151.656 411.637 Q154.851 414.323 154.851 418.813 Q154.851 420.943 154.041 422.864 Q153.254 424.762 151.147 427.355 Q150.568 428.026 147.467 431.244 Q144.365 434.438 138.717 440.202 Z" fill="#000000" fill-rule="nonzero" fill-opacity="1" /><path clip-path="url(#clip730)" d="M164.851 438.258 L169.735 438.258 L169.735 444.137 L164.851 444.137 L164.851 438.258 Z" fill="#000000" fill-rule="nonzero" fill-opacity="1" /><path clip-path="url(#clip730)" d="M179.966 409.577 L198.323 409.577 L198.323 413.512 L184.249 413.512 L184.249 421.984 Q185.267 421.637 186.286 421.475 Q187.304 421.29 188.323 421.29 Q194.11 421.29 197.489 424.461 Q200.869 427.633 200.869 433.049 Q200.869 438.628 197.397 441.73 Q193.925 444.808 187.605 444.808 Q185.429 444.808 183.161 444.438 Q180.915 444.068 178.508 443.327 L178.508 438.628 Q180.591 439.762 182.814 440.318 Q185.036 440.873 187.513 440.873 Q191.517 440.873 193.855 438.767 Q196.193 436.66 196.193 433.049 Q196.193 429.438 193.855 427.332 Q191.517 425.225 187.513 425.225 Q185.638 425.225 183.763 425.642 Q181.911 426.059 179.966 426.938 L179.966 409.577 Z" fill="#000000" fill-rule="nonzero" fill-opacity="1" /><path clip-path="url(#clip730)" d="M143.693 286.118 Q140.082 286.118 138.254 289.683 Q136.448 293.225 136.448 300.354 Q136.448 307.461 138.254 311.025 Q140.082 314.567 143.693 314.567 Q147.328 314.567 149.133 311.025 Q150.962 307.461 150.962 300.354 Q150.962 293.225 149.133 289.683 Q147.328 286.118 143.693 286.118 M143.693 282.414 Q149.504 282.414 152.559 287.021 Q155.638 291.604 155.638 300.354 Q155.638 309.081 152.559 313.687 Q149.504 318.271 143.693 318.271 Q137.883 318.271 134.805 313.687 Q131.749 309.081 131.749 300.354 Q131.749 291.604 134.805 287.021 Q137.883 282.414 143.693 282.414 Z" fill="#000000" fill-rule="nonzero" fill-opacity="1" /><path clip-path="url(#clip730)" d="M163.855 311.72 L168.74 311.72 L168.74 317.599 L163.855 317.599 L163.855 311.72 Z" fill="#000000" fill-rule="nonzero" fill-opacity="1" /><path clip-path="url(#clip730)" d="M188.925 286.118 Q185.314 286.118 183.485 289.683 Q181.679 293.225 181.679 300.354 Q181.679 307.461 183.485 311.025 Q185.314 314.567 188.925 314.567 Q192.559 314.567 194.364 311.025 Q196.193 307.461 196.193 300.354 Q196.193 293.225 194.364 289.683 Q192.559 286.118 188.925 286.118 M188.925 282.414 Q194.735 282.414 197.79 287.021 Q200.869 291.604 200.869 300.354 Q200.869 309.081 197.79 313.687 Q194.735 318.271 188.925 318.271 Q183.114 318.271 180.036 313.687 Q176.98 309.081 176.98 300.354 Q176.98 291.604 180.036 287.021 Q183.114 282.414 188.925 282.414 Z" fill="#000000" fill-rule="nonzero" fill-opacity="1" /><path clip-path="url(#clip730)" d="M138.717 187.127 L155.036 187.127 L155.036 191.062 L133.092 191.062 L133.092 187.127 Q135.754 184.372 140.337 179.742 Q144.943 175.09 146.124 173.747 Q148.369 171.224 149.249 169.488 Q150.152 167.729 150.152 166.039 Q150.152 163.284 148.207 161.548 Q146.286 159.812 143.184 159.812 Q140.985 159.812 138.531 160.576 Q136.101 161.34 133.323 162.891 L133.323 158.168 Q136.147 157.034 138.601 156.455 Q141.055 155.877 143.092 155.877 Q148.462 155.877 151.656 158.562 Q154.851 161.247 154.851 165.738 Q154.851 167.867 154.041 169.789 Q153.254 171.687 151.147 174.279 Q150.568 174.951 147.467 178.168 Q144.365 181.363 138.717 187.127 Z" fill="#000000" fill-rule="nonzero" fill-opacity="1" /><path clip-path="url(#clip730)" d="M164.851 185.182 L169.735 185.182 L169.735 191.062 L164.851 191.062 L164.851 185.182 Z" fill="#000000" fill-rule="nonzero" fill-opacity="1" /><path clip-path="url(#clip730)" d="M179.966 156.502 L198.323 156.502 L198.323 160.437 L184.249 160.437 L184.249 168.909 Q185.267 168.562 186.286 168.4 Q187.304 168.215 188.323 168.215 Q194.11 168.215 197.489 171.386 Q200.869 174.557 200.869 179.974 Q200.869 185.553 197.397 188.654 Q193.925 191.733 187.605 191.733 Q185.429 191.733 183.161 191.363 Q180.915 190.992 178.508 190.252 L178.508 185.553 Q180.591 186.687 182.814 187.242 Q185.036 187.798 187.513 187.798 Q191.517 187.798 193.855 185.691 Q196.193 183.585 196.193 179.974 Q196.193 176.363 193.855 174.256 Q191.517 172.15 187.513 172.15 Q185.638 172.15 183.763 172.567 Q181.911 172.983 179.966 173.863 L179.966 156.502 Z" fill="#000000" fill-rule="nonzero" fill-opacity="1" /><path clip-path="url(#clip730)" d="M133.74 29.9641 L152.096 29.9641 L152.096 33.8993 L138.022 33.8993 L138.022 42.3714 Q139.041 42.0242 140.059 41.8622 Q141.078 41.677 142.096 41.677 Q147.883 41.677 151.263 44.8483 Q154.642 48.0196 154.642 53.4362 Q154.642 59.0149 151.17 62.1167 Q147.698 65.1954 141.379 65.1954 Q139.203 65.1954 136.934 64.825 Q134.689 64.4547 132.281 63.7139 L132.281 59.0149 Q134.365 60.1491 136.587 60.7047 Q138.809 61.2602 141.286 61.2602 Q145.291 61.2602 147.629 59.1538 Q149.967 57.0473 149.967 53.4362 Q149.967 49.8251 147.629 47.7186 Q145.291 45.6122 141.286 45.6122 Q139.411 45.6122 137.536 46.0288 Q135.684 46.4455 133.74 47.3251 L133.74 29.9641 Z" fill="#000000" fill-rule="nonzero" fill-opacity="1" /><path clip-path="url(#clip730)" d="M163.855 58.6445 L168.74 58.6445 L168.74 64.5241 L163.855 64.5241 L163.855 58.6445 Z" fill="#000000" fill-rule="nonzero" fill-opacity="1" /><path clip-path="url(#clip730)" d="M188.925 33.0428 Q185.314 33.0428 183.485 36.6076 Q181.679 40.1492 181.679 47.2788 Q181.679 54.3853 183.485 57.9501 Q185.314 61.4917 188.925 61.4917 Q192.559 61.4917 194.364 57.9501 Q196.193 54.3853 196.193 47.2788 Q196.193 40.1492 194.364 36.6076 Q192.559 33.0428 188.925 33.0428 M188.925 29.3391 Q194.735 29.3391 197.79 33.9456 Q200.869 38.5289 200.869 47.2788 Q200.869 56.0056 197.79 60.6121 Q194.735 65.1954 188.925 65.1954 Q183.114 65.1954 180.036 60.6121 Q176.98 56.0056 176.98 47.2788 Q176.98 38.5289 180.036 33.9456 Q183.114 29.3391 188.925 29.3391 Z" fill="#000000" fill-rule="nonzero" fill-opacity="1" /><path clip-path="url(#clip730)" d="M-12.4283 295.092 L4.38318 299.246 Q5.44597 299.536 5.57479 299.729 Q5.70362 299.89 5.70362 300.405 Q5.70362 301.404 5.02729 301.404 Q4.96288 301.404 4.12553 301.307 Q3.25597 301.211 1.67788 301.211 Q-4.15138 301.211 -7.5974 304.045 Q-11.0434 306.847 -11.0434 311.839 Q-11.0434 316.154 -8.85343 320.502 Q-6.66343 324.818 -3.08858 327.909 Q-0.383291 330.228 3.03053 331.935 Q6.44435 333.61 9.56832 334.415 Q12.6923 335.188 15.0433 335.542 Q17.3943 335.896 19.1013 335.896 Q21.5811 335.896 23.6745 335.381 Q25.7679 334.834 27.2493 333.867 Q28.6986 332.901 29.8258 331.677 Q30.9208 330.421 31.5649 328.972 Q32.209 327.491 32.5311 326.009 Q32.821 324.528 32.821 322.982 Q32.821 316.766 27.9901 310.84 Q24.0288 306.138 17.5554 304.174 Q16.9113 304.013 16.9113 303.336 Q16.9113 302.531 17.5554 302.531 Q17.6842 302.531 18.3283 302.692 Q18.9402 302.853 20.1963 303.336 Q21.4201 303.819 22.8049 304.56 Q24.1898 305.301 25.9289 306.686 Q27.668 308.07 29.1817 309.777 Q31.6937 312.676 33.2718 316.347 Q34.8499 320.019 34.8499 324.045 Q34.8499 329.069 32.6277 333.127 Q30.4055 337.185 26.251 339.568 Q22.0964 341.919 16.7824 341.919 Q11.1786 341.919 5.67141 339.342 Q0.164209 336.766 -3.92594 332.676 Q-8.01608 328.586 -10.5603 323.175 Q-13.1046 317.764 -13.1046 312.354 Q-13.1046 310.293 -12.5571 308.457 Q-12.0096 306.621 -11.3333 305.526 Q-10.657 304.399 -9.65858 303.401 Q-8.6924 302.402 -8.24152 302.08 Q-7.79064 301.726 -7.24314 301.404 L-12.2995 296.798 Q-13.1046 295.993 -13.1046 295.8 Q-13.1046 295.414 -12.8792 295.253 Q-12.6537 295.092 -12.4283 295.092 Z" fill="#000000" fill-rule="nonzero" fill-opacity="1" /><path clip-path="url(#clip730)" d="M29.5979 265.53 Q30.8604 265.53 31.5818 266.319 Q32.2807 267.108 32.2807 268.01 Q32.2807 268.866 31.7847 269.317 Q31.2888 269.768 30.6575 269.768 Q29.8008 269.768 29.0569 269.137 Q28.3129 268.506 28.1551 267.559 Q27.569 268.483 27.569 269.858 Q27.569 270.76 28.0424 271.549 Q28.5158 272.315 29.1245 272.789 Q29.7332 273.24 30.6124 273.646 Q31.4691 274.029 31.9876 274.187 Q32.4836 274.322 33.0247 274.435 L39.337 276.013 Q42.3354 276.779 43.3949 276.779 Q44.7025 276.779 45.5817 276.148 Q46.4384 275.517 46.4384 274.254 Q46.4384 273.758 46.3031 273.195 Q46.1453 272.631 45.7395 271.91 Q45.3112 271.166 44.68 270.512 Q44.0262 269.836 42.9215 269.182 Q41.8169 268.528 40.3966 268.1 Q39.9006 267.964 39.9006 267.514 Q39.9006 266.95 40.3515 266.95 Q40.7347 266.95 41.5463 267.266 Q42.3354 267.559 43.3724 268.212 Q44.3869 268.844 45.3112 269.678 Q46.213 270.512 46.8442 271.752 Q47.4754 272.992 47.4754 274.344 Q47.4754 276.283 46.4384 277.568 Q45.4014 278.853 43.9585 279.327 Q44.1614 279.439 44.432 279.597 Q44.7025 279.755 45.3112 280.228 Q45.8973 280.679 46.3482 281.198 Q46.7766 281.716 47.1147 282.528 Q47.4754 283.317 47.4754 284.174 Q47.4754 285.256 47.1598 286.225 Q46.8442 287.172 46.1228 287.848 Q45.4014 288.525 44.4094 288.525 Q43.3048 288.525 42.5383 287.781 Q41.7492 287.014 41.7492 285.977 Q41.7492 285.323 42.1325 284.805 Q42.5157 284.264 43.3499 284.264 Q44.2742 284.264 44.973 284.895 Q45.6719 285.526 45.8522 286.428 Q46.4384 285.504 46.4384 284.129 Q46.4384 282.641 45.1308 281.468 Q43.8233 280.296 41.6365 279.732 Q36.3837 278.335 34.0391 277.794 Q31.672 277.253 30.6575 277.253 Q29.7107 277.253 29.0569 277.501 Q28.4031 277.749 28.11 278.177 Q27.7944 278.583 27.6817 278.966 Q27.569 279.327 27.569 279.732 Q27.569 280.409 27.8395 281.175 Q28.11 281.919 28.7413 282.821 Q29.35 283.7 30.6124 284.534 Q31.8749 285.369 33.6108 285.932 Q34.1293 286.045 34.1293 286.541 Q34.1068 287.082 33.6559 287.082 Q33.2726 287.082 32.4836 286.789 Q31.672 286.473 30.6575 285.842 Q29.643 285.188 28.7413 284.354 Q27.817 283.497 27.1857 282.257 Q26.5545 280.995 26.5545 279.642 Q26.5545 279.034 26.6898 278.447 Q26.8025 277.839 27.1406 277.117 Q27.4788 276.373 28.2228 275.72 Q28.9667 275.066 30.0488 274.66 Q29.5303 274.39 29.0343 274.029 Q28.5384 273.646 27.9297 273.059 Q27.2984 272.451 26.9377 271.617 Q26.5545 270.76 26.5545 269.813 Q26.5545 268.889 26.8025 267.987 Q27.0279 267.085 27.7719 266.319 Q28.4933 265.53 29.5979 265.53 Z" fill="#000000" fill-rule="nonzero" fill-opacity="1" /><polyline clip-path="url(#clip732)" style="stroke:#009af9; stroke-linecap:round; stroke-linejoin:round; stroke-width:4; stroke-opacity:1; fill:none" points="248.869,300.319 252.773,638.801 256.677,245.452 260.581,250.257 264.484,254.034 268.388,257.073 272.292,259.57 276.196,261.661 280.1,263.438 284.004,264.97 287.908,266.305 291.811,267.486 295.715,268.537 299.619,269.485 303.523,270.34 307.427,271.113 311.331,271.814 315.235,272.463 319.138,273.044 323.042,273.581 326.946,274.096 330.85,274.579 334.754,275.04 338.658,275.449 342.561,275.848 346.465,276.206 350.369,276.537 354.273,276.861 358.177,277.149 362.081,277.437 365.985,277.708 369.888,277.982 373.792,278.241 377.696,278.471 381.6,278.712 385.504,278.929 389.408,279.141 393.312,279.347 397.215,279.551 401.119,279.743 405.023,279.916 408.927,280.091 412.831,280.262 416.735,280.424 420.639,280.582 424.542,280.738 428.446,280.88 432.35,281.014 436.254,281.135 440.158,281.288 444.062,281.417 447.966,281.556 451.869,281.644 455.773,281.737 459.677,281.847 463.581,281.969 467.485,282.077 471.389,282.203 475.292,282.321 479.196,282.45 483.1,282.567 487.004,282.664 490.908,282.765 494.812,282.897 498.716,283.053 502.619,283.142 506.523,283.277 510.427,283.387 514.331,283.529 518.235,283.661 522.139,283.72 526.043,283.816 529.946,283.893 533.85,284.021 537.754,284.103 541.658,284.334 545.562,284.434 549.466,284.477 553.37,284.554 557.273,284.757 561.177,284.868 565.081,285.019 568.985,285.171 572.889,285.266 576.793,285.223 580.697,285.205 584.6,285.203 588.504,285.195 592.408,285.261 596.312,285.422 600.216,285.462 604.12,285.27 608.023,285.304 611.927,285.396 615.831,285.377 619.735,285.421 623.639,285.406 627.543,285.449 631.447,285.45 635.35,285.586 639.254,285.561 643.158,285.632 647.062,285.73 650.966,285.75 654.87,285.851 658.774,285.959 662.677,286.023 666.581,286.084 670.485,286.085 674.389,286.188 678.293,286.35 682.197,286.448 686.101,286.43 690.004,286.468 693.908,286.495 697.812,286.653 701.716,286.725 705.62,286.753 709.524,286.736 713.428,286.714 717.331,286.745 721.235,286.857 725.139,286.875 729.043,286.95 732.947,287.08 736.851,287.085 740.754,287.093 744.658,287.123 748.562,287.105 752.466,287.102 756.37,287.217 760.274,287.32 764.178,287.367 768.081,287.367 771.985,287.455 775.889,287.396 779.793,287.431 783.697,287.378 787.601,287.425 791.505,287.38 795.408,287.473 799.312,287.472 803.216,287.571 807.12,287.552 811.024,287.565 814.928,287.594 818.832,287.595 822.735,287.634 826.639,287.89 830.543,287.977 834.447,288.063 838.351,288.176 842.255,288.258 846.159,288.354 850.062,288.375 853.966,288.343 857.87,288.179 861.774,288.035 865.678,288.034 869.582,288.009 873.485,287.985 877.389,288.077 881.293,288.112 885.197,288.102 889.101,288.156 893.005,288.196 896.909,288.151 900.812,288.333 904.716,288.361 908.62,288.349 912.524,288.431 916.428,288.546 920.332,288.599 924.236,288.766 928.139,288.691 932.043,288.975 935.947,288.934 939.851,289.191 943.755,289.387 947.659,289.479 951.563,289.467 955.466,289.458 959.37,289.448 963.274,289.545 967.178,289.602 971.082,289.541 974.986,289.539 978.89,289.324 982.793,289.513 986.697,289.446 990.601,289.477 994.505,289.4 998.409,289.255 1002.31,289.298 1006.22,289.379 1010.12,289.432 1014.02,289.501 1017.93,289.444 1021.83,289.47 1025.74,289.502 1029.64,289.483 1033.54,289.78 1037.45,289.662 1041.35,289.545 1045.26,289.676 1049.16,289.576 1053.06,289.578 1056.97,289.644 1060.87,289.632 1064.77,289.593 1068.68,289.53 1072.58,289.564 1076.49,289.391 1080.39,289.549 1084.29,289.444 1088.2,289.359 1092.1,289.305 1096.01,289.217 1099.91,289.227 1103.81,289.32 1107.72,289.322 1111.62,289.431 1115.52,289.466 1119.43,289.404 1123.33,289.266 1127.24,289.259 1131.14,289.324 1135.04,289.393 1138.95,289.487 1142.85,289.496 1146.76,289.375 1150.66,289.501 1154.56,289.731 1158.47,289.682 1162.37,289.809 1166.27,289.696 1170.18,289.564 1174.08,289.552 1177.99,289.524 1181.89,289.402 1185.79,289.559 1189.7,289.736 1193.6,289.613 1197.51,289.6 1201.41,289.749 1205.31,289.77 1209.22,290.09 1213.12,290.115 1217.02,290.092 1220.93,290.229 1224.83,290.288 1228.74,290.229 1232.64,290.175 1236.54,290.471 1240.45,290.452 1244.35,290.314 1248.26,290.167 1252.16,290.296 1256.06,290.21 1259.97,290.146 1263.87,290.357 1267.77,290.361 1271.68,290.317 1275.58,290.222 1279.49,290.277 1283.39,290.409 1287.29,290.364 1291.2,290.31 1295.1,290.226 1299.01,290.203 1302.91,290.009 1306.81,290.135 1310.72,290.256 1314.62,290.204 1318.52,290.193 1322.43,290.212 1326.33,290.042 1330.24,290.13 1334.14,290.224 1338.04,290.288 1341.95,290.278 1345.85,290.199 1349.76,290.173 1353.66,290.12 1357.56,290.081 1361.47,290.218 1365.37,290.136 1369.27,290.151 1373.18,289.946 1377.08,289.923 1380.99,289.83 1384.89,289.824 1388.79,289.803 1392.7,289.849 1396.6,289.866 1400.51,289.802 1404.41,289.71 1408.31,289.632 1412.22,289.64 1416.12,289.592 1420.02,289.666 1423.93,289.846 1427.83,289.864 1431.74,289.986 1435.64,290.041 1439.54,290.026 1443.45,289.998 1447.35,290.101 1451.26,290.149 1455.16,290.115 1459.06,290.245 1462.97,290.261 1466.87,290.234 1470.77,290.272 1474.68,290.298 1478.58,290.251 1482.49,290.024 1486.39,289.944 1490.29,289.838 1494.2,289.793 1498.1,289.86 1502.01,289.714 1505.91,289.651 1509.81,289.633 1513.72,289.789 1517.62,289.841 1521.53,289.912 1525.43,289.921 1529.33,289.882 1533.24,290.045 1537.14,289.969 1541.04,289.991 1544.95,290.094 1548.85,290.135 1552.76,290.255 "/>
<path clip-path="url(#clip730)" d="M1848.87 553.395 L3152.76 553.395 L3152.76 47.2441 L1848.87 47.2441  Z" fill="#ffffff" fill-rule="evenodd" fill-opacity="1"/>
<defs>
  <clipPath id="clip733">
    <rect x="1848" y="47" width="1305" height="507"/>
  </clipPath>
</defs>
<polyline clip-path="url(#clip733)" style="stroke:#000000; stroke-linecap:round; stroke-linejoin:round; stroke-width:2; stroke-opacity:0.1; fill:none" points="1848.87,553.395 1848.87,47.2441 "/>
<polyline clip-path="url(#clip733)" style="stroke:#000000; stroke-linecap:round; stroke-linejoin:round; stroke-width:2; stroke-opacity:0.1; fill:none" points="2109.13,553.395 2109.13,47.2441 "/>
<polyline clip-path="url(#clip733)" style="stroke:#000000; stroke-linecap:round; stroke-linejoin:round; stroke-width:2; stroke-opacity:0.1; fill:none" points="2369.38,553.395 2369.38,47.2441 "/>
<polyline clip-path="url(#clip733)" style="stroke:#000000; stroke-linecap:round; stroke-linejoin:round; stroke-width:2; stroke-opacity:0.1; fill:none" points="2629.64,553.395 2629.64,47.2441 "/>
<polyline clip-path="url(#clip733)" style="stroke:#000000; stroke-linecap:round; stroke-linejoin:round; stroke-width:2; stroke-opacity:0.1; fill:none" points="2889.9,553.395 2889.9,47.2441 "/>
<polyline clip-path="url(#clip733)" style="stroke:#000000; stroke-linecap:round; stroke-linejoin:round; stroke-width:2; stroke-opacity:0.1; fill:none" points="3150.15,553.395 3150.15,47.2441 "/>
<polyline clip-path="url(#clip730)" style="stroke:#000000; stroke-linecap:round; stroke-linejoin:round; stroke-width:4; stroke-opacity:1; fill:none" points="1848.87,553.395 3152.76,553.395 "/>
<polyline clip-path="url(#clip730)" style="stroke:#000000; stroke-linecap:round; stroke-linejoin:round; stroke-width:4; stroke-opacity:1; fill:none" points="1848.87,553.395 1848.87,534.497 "/>
<polyline clip-path="url(#clip730)" style="stroke:#000000; stroke-linecap:round; stroke-linejoin:round; stroke-width:4; stroke-opacity:1; fill:none" points="2109.13,553.395 2109.13,534.497 "/>
<polyline clip-path="url(#clip730)" style="stroke:#000000; stroke-linecap:round; stroke-linejoin:round; stroke-width:4; stroke-opacity:1; fill:none" points="2369.38,553.395 2369.38,534.497 "/>
<polyline clip-path="url(#clip730)" style="stroke:#000000; stroke-linecap:round; stroke-linejoin:round; stroke-width:4; stroke-opacity:1; fill:none" points="2629.64,553.395 2629.64,534.497 "/>
<polyline clip-path="url(#clip730)" style="stroke:#000000; stroke-linecap:round; stroke-linejoin:round; stroke-width:4; stroke-opacity:1; fill:none" points="2889.9,553.395 2889.9,534.497 "/>
<polyline clip-path="url(#clip730)" style="stroke:#000000; stroke-linecap:round; stroke-linejoin:round; stroke-width:4; stroke-opacity:1; fill:none" points="3150.15,553.395 3150.15,534.497 "/>
<path clip-path="url(#clip730)" d="M1826.25 590.714 Q1822.64 590.714 1820.81 594.278 Q1819.01 597.82 1819.01 604.95 Q1819.01 612.056 1820.81 615.621 Q1822.64 619.162 1826.25 619.162 Q1829.89 619.162 1831.69 615.621 Q1833.52 612.056 1833.52 604.95 Q1833.52 597.82 1831.69 594.278 Q1829.89 590.714 1826.25 590.714 M1826.25 587.01 Q1832.06 587.01 1835.12 591.616 Q1838.2 596.2 1838.2 604.95 Q1838.2 613.676 1835.12 618.283 Q1832.06 622.866 1826.25 622.866 Q1820.44 622.866 1817.36 618.283 Q1814.31 613.676 1814.31 604.95 Q1814.31 596.2 1817.36 591.616 Q1820.44 587.01 1826.25 587.01 Z" fill="#000000" fill-rule="nonzero" fill-opacity="1" /><path clip-path="url(#clip730)" d="M1846.42 616.315 L1851.3 616.315 L1851.3 622.195 L1846.42 622.195 L1846.42 616.315 Z" fill="#000000" fill-rule="nonzero" fill-opacity="1" /><path clip-path="url(#clip730)" d="M1871.48 590.714 Q1867.87 590.714 1866.04 594.278 Q1864.24 597.82 1864.24 604.95 Q1864.24 612.056 1866.04 615.621 Q1867.87 619.162 1871.48 619.162 Q1875.12 619.162 1876.92 615.621 Q1878.75 612.056 1878.75 604.95 Q1878.75 597.82 1876.92 594.278 Q1875.12 590.714 1871.48 590.714 M1871.48 587.01 Q1877.29 587.01 1880.35 591.616 Q1883.43 596.2 1883.43 604.95 Q1883.43 613.676 1880.35 618.283 Q1877.29 622.866 1871.48 622.866 Q1865.67 622.866 1862.6 618.283 Q1859.54 613.676 1859.54 604.95 Q1859.54 596.2 1862.6 591.616 Q1865.67 587.01 1871.48 587.01 Z" fill="#000000" fill-rule="nonzero" fill-opacity="1" /><path clip-path="url(#clip730)" d="M2087.01 590.714 Q2083.4 590.714 2081.57 594.278 Q2079.76 597.82 2079.76 604.95 Q2079.76 612.056 2081.57 615.621 Q2083.4 619.162 2087.01 619.162 Q2090.64 619.162 2092.45 615.621 Q2094.28 612.056 2094.28 604.95 Q2094.28 597.82 2092.45 594.278 Q2090.64 590.714 2087.01 590.714 M2087.01 587.01 Q2092.82 587.01 2095.87 591.616 Q2098.95 596.2 2098.95 604.95 Q2098.95 613.676 2095.87 618.283 Q2092.82 622.866 2087.01 622.866 Q2081.2 622.866 2078.12 618.283 Q2075.06 613.676 2075.06 604.95 Q2075.06 596.2 2078.12 591.616 Q2081.2 587.01 2087.01 587.01 Z" fill="#000000" fill-rule="nonzero" fill-opacity="1" /><path clip-path="url(#clip730)" d="M2107.17 616.315 L2112.05 616.315 L2112.05 622.195 L2107.17 622.195 L2107.17 616.315 Z" fill="#000000" fill-rule="nonzero" fill-opacity="1" /><path clip-path="url(#clip730)" d="M2122.29 587.635 L2140.64 587.635 L2140.64 591.57 L2126.57 591.57 L2126.57 600.042 Q2127.59 599.695 2128.6 599.533 Q2129.62 599.348 2130.64 599.348 Q2136.43 599.348 2139.81 602.519 Q2143.19 605.69 2143.19 611.107 Q2143.19 616.686 2139.72 619.787 Q2136.24 622.866 2129.92 622.866 Q2127.75 622.866 2125.48 622.496 Q2123.23 622.125 2120.83 621.385 L2120.83 616.686 Q2122.91 617.82 2125.13 618.375 Q2127.35 618.931 2129.83 618.931 Q2133.84 618.931 2136.17 616.825 Q2138.51 614.718 2138.51 611.107 Q2138.51 607.496 2136.17 605.389 Q2133.84 603.283 2129.83 603.283 Q2127.96 603.283 2126.08 603.7 Q2124.23 604.116 2122.29 604.996 L2122.29 587.635 Z" fill="#000000" fill-rule="nonzero" fill-opacity="1" /><path clip-path="url(#clip730)" d="M2336.54 618.26 L2344.17 618.26 L2344.17 591.894 L2335.86 593.561 L2335.86 589.302 L2344.13 587.635 L2348.8 587.635 L2348.8 618.26 L2356.44 618.26 L2356.44 622.195 L2336.54 622.195 L2336.54 618.26 Z" fill="#000000" fill-rule="nonzero" fill-opacity="1" /><path clip-path="url(#clip730)" d="M2365.89 616.315 L2370.77 616.315 L2370.77 622.195 L2365.89 622.195 L2365.89 616.315 Z" fill="#000000" fill-rule="nonzero" fill-opacity="1" /><path clip-path="url(#clip730)" d="M2390.96 590.714 Q2387.35 590.714 2385.52 594.278 Q2383.71 597.82 2383.71 604.95 Q2383.71 612.056 2385.52 615.621 Q2387.35 619.162 2390.96 619.162 Q2394.59 619.162 2396.4 615.621 Q2398.23 612.056 2398.23 604.95 Q2398.23 597.82 2396.4 594.278 Q2394.59 590.714 2390.96 590.714 M2390.96 587.01 Q2396.77 587.01 2399.82 591.616 Q2402.9 596.2 2402.9 604.95 Q2402.9 613.676 2399.82 618.283 Q2396.77 622.866 2390.96 622.866 Q2385.15 622.866 2382.07 618.283 Q2379.01 613.676 2379.01 604.95 Q2379.01 596.2 2382.07 591.616 Q2385.15 587.01 2390.96 587.01 Z" fill="#000000" fill-rule="nonzero" fill-opacity="1" /><path clip-path="url(#clip730)" d="M2597.29 618.26 L2604.93 618.26 L2604.93 591.894 L2596.62 593.561 L2596.62 589.302 L2604.88 587.635 L2609.56 587.635 L2609.56 618.26 L2617.2 618.26 L2617.2 622.195 L2597.29 622.195 L2597.29 618.26 Z" fill="#000000" fill-rule="nonzero" fill-opacity="1" /><path clip-path="url(#clip730)" d="M2626.64 616.315 L2631.53 616.315 L2631.53 622.195 L2626.64 622.195 L2626.64 616.315 Z" fill="#000000" fill-rule="nonzero" fill-opacity="1" /><path clip-path="url(#clip730)" d="M2641.76 587.635 L2660.11 587.635 L2660.11 591.57 L2646.04 591.57 L2646.04 600.042 Q2647.06 599.695 2648.08 599.533 Q2649.1 599.348 2650.11 599.348 Q2655.9 599.348 2659.28 602.519 Q2662.66 605.69 2662.66 611.107 Q2662.66 616.686 2659.19 619.787 Q2655.72 622.866 2649.4 622.866 Q2647.22 622.866 2644.95 622.496 Q2642.71 622.125 2640.3 621.385 L2640.3 616.686 Q2642.38 617.82 2644.6 618.375 Q2646.83 618.931 2649.3 618.931 Q2653.31 618.931 2655.65 616.825 Q2657.98 614.718 2657.98 611.107 Q2657.98 607.496 2655.65 605.389 Q2653.31 603.283 2649.3 603.283 Q2647.43 603.283 2645.55 603.7 Q2643.7 604.116 2641.76 604.996 L2641.76 587.635 Z" fill="#000000" fill-rule="nonzero" fill-opacity="1" /><path clip-path="url(#clip730)" d="M2861.14 618.26 L2877.45 618.26 L2877.45 622.195 L2855.51 622.195 L2855.51 618.26 Q2858.17 615.505 2862.76 610.875 Q2867.36 606.223 2868.54 604.88 Q2870.79 602.357 2871.67 600.621 Q2872.57 598.862 2872.57 597.172 Q2872.57 594.417 2870.63 592.681 Q2868.7 590.945 2865.6 590.945 Q2863.4 590.945 2860.95 591.709 Q2858.52 592.473 2855.74 594.024 L2855.74 589.302 Q2858.57 588.167 2861.02 587.589 Q2863.47 587.01 2865.51 587.01 Q2870.88 587.01 2874.07 589.695 Q2877.27 592.38 2877.27 596.871 Q2877.27 599.001 2876.46 600.922 Q2875.67 602.82 2873.57 605.413 Q2872.99 606.084 2869.89 609.301 Q2866.78 612.496 2861.14 618.26 Z" fill="#000000" fill-rule="nonzero" fill-opacity="1" /><path clip-path="url(#clip730)" d="M2887.27 616.315 L2892.15 616.315 L2892.15 622.195 L2887.27 622.195 L2887.27 616.315 Z" fill="#000000" fill-rule="nonzero" fill-opacity="1" /><path clip-path="url(#clip730)" d="M2912.34 590.714 Q2908.73 590.714 2906.9 594.278 Q2905.09 597.82 2905.09 604.95 Q2905.09 612.056 2906.9 615.621 Q2908.73 619.162 2912.34 619.162 Q2915.97 619.162 2917.78 615.621 Q2919.61 612.056 2919.61 604.95 Q2919.61 597.82 2917.78 594.278 Q2915.97 590.714 2912.34 590.714 M2912.34 587.01 Q2918.15 587.01 2921.2 591.616 Q2924.28 596.2 2924.28 604.95 Q2924.28 613.676 2921.2 618.283 Q2918.15 622.866 2912.34 622.866 Q2906.53 622.866 2903.45 618.283 Q2900.39 613.676 2900.39 604.95 Q2900.39 596.2 2903.45 591.616 Q2906.53 587.01 2912.34 587.01 Z" fill="#000000" fill-rule="nonzero" fill-opacity="1" /><path clip-path="url(#clip730)" d="M3121.89 618.26 L3138.21 618.26 L3138.21 622.195 L3116.26 622.195 L3116.26 618.26 Q3118.93 615.505 3123.51 610.875 Q3128.12 606.223 3129.3 604.88 Q3131.54 602.357 3132.42 600.621 Q3133.32 598.862 3133.32 597.172 Q3133.32 594.417 3131.38 592.681 Q3129.46 590.945 3126.36 590.945 Q3124.16 590.945 3121.7 591.709 Q3119.27 592.473 3116.5 594.024 L3116.5 589.302 Q3119.32 588.167 3121.77 587.589 Q3124.23 587.01 3126.26 587.01 Q3131.63 587.01 3134.83 589.695 Q3138.02 592.38 3138.02 596.871 Q3138.02 599.001 3137.21 600.922 Q3136.43 602.82 3134.32 605.413 Q3133.74 606.084 3130.64 609.301 Q3127.54 612.496 3121.89 618.26 Z" fill="#000000" fill-rule="nonzero" fill-opacity="1" /><path clip-path="url(#clip730)" d="M3148.02 616.315 L3152.91 616.315 L3152.91 622.195 L3148.02 622.195 L3148.02 616.315 Z" fill="#000000" fill-rule="nonzero" fill-opacity="1" /><path clip-path="url(#clip730)" d="M3163.14 587.635 L3181.5 587.635 L3181.5 591.57 L3167.42 591.57 L3167.42 600.042 Q3168.44 599.695 3169.46 599.533 Q3170.48 599.348 3171.5 599.348 Q3177.28 599.348 3180.66 602.519 Q3184.04 605.69 3184.04 611.107 Q3184.04 616.686 3180.57 619.787 Q3177.1 622.866 3170.78 622.866 Q3168.6 622.866 3166.33 622.496 Q3164.09 622.125 3161.68 621.385 L3161.68 616.686 Q3163.76 617.82 3165.99 618.375 Q3168.21 618.931 3170.69 618.931 Q3174.69 618.931 3177.03 616.825 Q3179.37 614.718 3179.37 611.107 Q3179.37 607.496 3177.03 605.389 Q3174.69 603.283 3170.69 603.283 Q3168.81 603.283 3166.94 603.7 Q3165.08 604.116 3163.14 604.996 L3163.14 587.635 Z" fill="#000000" fill-rule="nonzero" fill-opacity="1" /><path clip-path="url(#clip730)" d="M2509.29 674.123 Q2509.29 675.024 2508.87 675.25 Q2508.45 675.443 2507.29 675.443 L2501.11 675.443 L2496.21 694.895 Q2495.82 696.602 2495.82 698.052 Q2495.82 699.662 2496.31 700.37 Q2496.82 701.079 2497.89 701.079 Q2499.98 701.079 2502.23 699.179 Q2504.52 697.279 2506.45 692.641 Q2506.71 692.029 2506.84 691.9 Q2507 691.739 2507.42 691.739 Q2508.22 691.739 2508.22 692.383 Q2508.22 692.609 2507.77 693.639 Q2507.35 694.67 2506.42 696.184 Q2505.52 697.697 2504.33 699.114 Q2503.17 700.532 2501.4 701.562 Q2499.62 702.56 2497.72 702.56 Q2495.05 702.56 2493.34 700.854 Q2491.67 699.147 2491.67 696.474 Q2491.67 695.604 2492.35 692.834 Q2493.02 690.032 2496.69 675.443 L2490.86 675.443 Q2490.06 675.443 2489.74 675.411 Q2489.45 675.379 2489.22 675.218 Q2489.03 675.024 2489.03 674.638 Q2489.03 674.026 2489.29 673.768 Q2489.54 673.479 2489.87 673.446 Q2490.22 673.382 2491.03 673.382 L2497.21 673.382 L2499.79 662.915 Q2500.04 661.884 2500.69 661.305 Q2501.36 660.693 2501.75 660.628 Q2502.14 660.532 2502.43 660.532 Q2503.3 660.532 2503.81 661.015 Q2504.33 661.466 2504.33 662.303 Q2504.33 662.754 2501.62 673.382 L2507.42 673.382 Q2508.16 673.382 2508.45 673.414 Q2508.77 673.446 2509.03 673.607 Q2509.29 673.768 2509.29 674.123 Z" fill="#000000" fill-rule="nonzero" fill-opacity="1" /><polyline clip-path="url(#clip733)" style="stroke:#000000; stroke-linecap:round; stroke-linejoin:round; stroke-width:2; stroke-opacity:0.1; fill:none" points="1848.87,553.395 3152.76,553.395 "/>
<polyline clip-path="url(#clip733)" style="stroke:#000000; stroke-linecap:round; stroke-linejoin:round; stroke-width:2; stroke-opacity:0.1; fill:none" points="1848.87,426.857 3152.76,426.857 "/>
<polyline clip-path="url(#clip733)" style="stroke:#000000; stroke-linecap:round; stroke-linejoin:round; stroke-width:2; stroke-opacity:0.1; fill:none" points="1848.87,300.319 3152.76,300.319 "/>
<polyline clip-path="url(#clip733)" style="stroke:#000000; stroke-linecap:round; stroke-linejoin:round; stroke-width:2; stroke-opacity:0.1; fill:none" points="1848.87,173.782 3152.76,173.782 "/>
<polyline clip-path="url(#clip733)" style="stroke:#000000; stroke-linecap:round; stroke-linejoin:round; stroke-width:2; stroke-opacity:0.1; fill:none" points="1848.87,47.2441 3152.76,47.2441 "/>
<polyline clip-path="url(#clip730)" style="stroke:#000000; stroke-linecap:round; stroke-linejoin:round; stroke-width:4; stroke-opacity:1; fill:none" points="1848.87,553.395 1848.87,47.2441 "/>
<polyline clip-path="url(#clip730)" style="stroke:#000000; stroke-linecap:round; stroke-linejoin:round; stroke-width:4; stroke-opacity:1; fill:none" points="1848.87,553.395 1867.77,553.395 "/>
<polyline clip-path="url(#clip730)" style="stroke:#000000; stroke-linecap:round; stroke-linejoin:round; stroke-width:4; stroke-opacity:1; fill:none" points="1848.87,426.857 1867.77,426.857 "/>
<polyline clip-path="url(#clip730)" style="stroke:#000000; stroke-linecap:round; stroke-linejoin:round; stroke-width:4; stroke-opacity:1; fill:none" points="1848.87,300.319 1867.77,300.319 "/>
<polyline clip-path="url(#clip730)" style="stroke:#000000; stroke-linecap:round; stroke-linejoin:round; stroke-width:4; stroke-opacity:1; fill:none" points="1848.87,173.782 1867.77,173.782 "/>
<polyline clip-path="url(#clip730)" style="stroke:#000000; stroke-linecap:round; stroke-linejoin:round; stroke-width:4; stroke-opacity:1; fill:none" points="1848.87,47.2441 1867.77,47.2441 "/>
<path clip-path="url(#clip730)" d="M1693.93 553.846 L1723.6 553.846 L1723.6 557.781 L1693.93 557.781 L1693.93 553.846 Z" fill="#000000" fill-rule="nonzero" fill-opacity="1" /><path clip-path="url(#clip730)" d="M1733.74 536.115 L1752.1 536.115 L1752.1 540.05 L1738.02 540.05 L1738.02 548.522 Q1739.04 548.175 1740.06 548.013 Q1741.08 547.828 1742.1 547.828 Q1747.88 547.828 1751.26 550.999 Q1754.64 554.17 1754.64 559.587 Q1754.64 565.166 1751.17 568.267 Q1747.7 571.346 1741.38 571.346 Q1739.2 571.346 1736.93 570.976 Q1734.69 570.605 1732.28 569.865 L1732.28 565.166 Q1734.36 566.3 1736.59 566.855 Q1738.81 567.411 1741.29 567.411 Q1745.29 567.411 1747.63 565.305 Q1749.97 563.198 1749.97 559.587 Q1749.97 555.976 1747.63 553.869 Q1745.29 551.763 1741.29 551.763 Q1739.41 551.763 1737.54 552.18 Q1735.68 552.596 1733.74 553.476 L1733.74 536.115 Z" fill="#000000" fill-rule="nonzero" fill-opacity="1" /><path clip-path="url(#clip730)" d="M1763.86 564.795 L1768.74 564.795 L1768.74 570.675 L1763.86 570.675 L1763.86 564.795 Z" fill="#000000" fill-rule="nonzero" fill-opacity="1" /><path clip-path="url(#clip730)" d="M1788.92 539.194 Q1785.31 539.194 1783.48 542.758 Q1781.68 546.3 1781.68 553.43 Q1781.68 560.536 1783.48 564.101 Q1785.31 567.642 1788.92 567.642 Q1792.56 567.642 1794.36 564.101 Q1796.19 560.536 1796.19 553.43 Q1796.19 546.3 1794.36 542.758 Q1792.56 539.194 1788.92 539.194 M1788.92 535.49 Q1794.73 535.49 1797.79 540.096 Q1800.87 544.68 1800.87 553.43 Q1800.87 562.156 1797.79 566.763 Q1794.73 571.346 1788.92 571.346 Q1783.11 571.346 1780.04 566.763 Q1776.98 562.156 1776.98 553.43 Q1776.98 544.68 1780.04 540.096 Q1783.11 535.49 1788.92 535.49 Z" fill="#000000" fill-rule="nonzero" fill-opacity="1" /><path clip-path="url(#clip730)" d="M1694.92 427.309 L1724.6 427.309 L1724.6 431.244 L1694.92 431.244 L1694.92 427.309 Z" fill="#000000" fill-rule="nonzero" fill-opacity="1" /><path clip-path="url(#clip730)" d="M1738.72 440.202 L1755.04 440.202 L1755.04 444.137 L1733.09 444.137 L1733.09 440.202 Q1735.75 437.447 1740.34 432.818 Q1744.94 428.165 1746.12 426.822 Q1748.37 424.299 1749.25 422.563 Q1750.15 420.804 1750.15 419.114 Q1750.15 416.36 1748.21 414.623 Q1746.29 412.887 1743.18 412.887 Q1740.99 412.887 1738.53 413.651 Q1736.1 414.415 1733.32 415.966 L1733.32 411.244 Q1736.15 410.11 1738.6 409.531 Q1741.05 408.952 1743.09 408.952 Q1748.46 408.952 1751.66 411.637 Q1754.85 414.323 1754.85 418.813 Q1754.85 420.943 1754.04 422.864 Q1753.25 424.762 1751.15 427.355 Q1750.57 428.026 1747.47 431.244 Q1744.36 434.438 1738.72 440.202 Z" fill="#000000" fill-rule="nonzero" fill-opacity="1" /><path clip-path="url(#clip730)" d="M1764.85 438.258 L1769.73 438.258 L1769.73 444.137 L1764.85 444.137 L1764.85 438.258 Z" fill="#000000" fill-rule="nonzero" fill-opacity="1" /><path clip-path="url(#clip730)" d="M1779.97 409.577 L1798.32 409.577 L1798.32 413.512 L1784.25 413.512 L1784.25 421.984 Q1785.27 421.637 1786.29 421.475 Q1787.3 421.29 1788.32 421.29 Q1794.11 421.29 1797.49 424.461 Q1800.87 427.633 1800.87 433.049 Q1800.87 438.628 1797.4 441.73 Q1793.92 444.808 1787.61 444.808 Q1785.43 444.808 1783.16 444.438 Q1780.92 444.068 1778.51 443.327 L1778.51 438.628 Q1780.59 439.762 1782.81 440.318 Q1785.04 440.873 1787.51 440.873 Q1791.52 440.873 1793.86 438.767 Q1796.19 436.66 1796.19 433.049 Q1796.19 429.438 1793.86 427.332 Q1791.52 425.225 1787.51 425.225 Q1785.64 425.225 1783.76 425.642 Q1781.91 426.059 1779.97 426.938 L1779.97 409.577 Z" fill="#000000" fill-rule="nonzero" fill-opacity="1" /><path clip-path="url(#clip730)" d="M1743.69 286.118 Q1740.08 286.118 1738.25 289.683 Q1736.45 293.225 1736.45 300.354 Q1736.45 307.461 1738.25 311.025 Q1740.08 314.567 1743.69 314.567 Q1747.33 314.567 1749.13 311.025 Q1750.96 307.461 1750.96 300.354 Q1750.96 293.225 1749.13 289.683 Q1747.33 286.118 1743.69 286.118 M1743.69 282.414 Q1749.5 282.414 1752.56 287.021 Q1755.64 291.604 1755.64 300.354 Q1755.64 309.081 1752.56 313.687 Q1749.5 318.271 1743.69 318.271 Q1737.88 318.271 1734.8 313.687 Q1731.75 309.081 1731.75 300.354 Q1731.75 291.604 1734.8 287.021 Q1737.88 282.414 1743.69 282.414 Z" fill="#000000" fill-rule="nonzero" fill-opacity="1" /><path clip-path="url(#clip730)" d="M1763.86 311.72 L1768.74 311.72 L1768.74 317.599 L1763.86 317.599 L1763.86 311.72 Z" fill="#000000" fill-rule="nonzero" fill-opacity="1" /><path clip-path="url(#clip730)" d="M1788.92 286.118 Q1785.31 286.118 1783.48 289.683 Q1781.68 293.225 1781.68 300.354 Q1781.68 307.461 1783.48 311.025 Q1785.31 314.567 1788.92 314.567 Q1792.56 314.567 1794.36 311.025 Q1796.19 307.461 1796.19 300.354 Q1796.19 293.225 1794.36 289.683 Q1792.56 286.118 1788.92 286.118 M1788.92 282.414 Q1794.73 282.414 1797.79 287.021 Q1800.87 291.604 1800.87 300.354 Q1800.87 309.081 1797.79 313.687 Q1794.73 318.271 1788.92 318.271 Q1783.11 318.271 1780.04 313.687 Q1776.98 309.081 1776.98 300.354 Q1776.98 291.604 1780.04 287.021 Q1783.11 282.414 1788.92 282.414 Z" fill="#000000" fill-rule="nonzero" fill-opacity="1" /><path clip-path="url(#clip730)" d="M1738.72 187.127 L1755.04 187.127 L1755.04 191.062 L1733.09 191.062 L1733.09 187.127 Q1735.75 184.372 1740.34 179.742 Q1744.94 175.09 1746.12 173.747 Q1748.37 171.224 1749.25 169.488 Q1750.15 167.729 1750.15 166.039 Q1750.15 163.284 1748.21 161.548 Q1746.29 159.812 1743.18 159.812 Q1740.99 159.812 1738.53 160.576 Q1736.1 161.34 1733.32 162.891 L1733.32 158.168 Q1736.15 157.034 1738.6 156.455 Q1741.05 155.877 1743.09 155.877 Q1748.46 155.877 1751.66 158.562 Q1754.85 161.247 1754.85 165.738 Q1754.85 167.867 1754.04 169.789 Q1753.25 171.687 1751.15 174.279 Q1750.57 174.951 1747.47 178.168 Q1744.36 181.363 1738.72 187.127 Z" fill="#000000" fill-rule="nonzero" fill-opacity="1" /><path clip-path="url(#clip730)" d="M1764.85 185.182 L1769.73 185.182 L1769.73 191.062 L1764.85 191.062 L1764.85 185.182 Z" fill="#000000" fill-rule="nonzero" fill-opacity="1" /><path clip-path="url(#clip730)" d="M1779.97 156.502 L1798.32 156.502 L1798.32 160.437 L1784.25 160.437 L1784.25 168.909 Q1785.27 168.562 1786.29 168.4 Q1787.3 168.215 1788.32 168.215 Q1794.11 168.215 1797.49 171.386 Q1800.87 174.557 1800.87 179.974 Q1800.87 185.553 1797.4 188.654 Q1793.92 191.733 1787.61 191.733 Q1785.43 191.733 1783.16 191.363 Q1780.92 190.992 1778.51 190.252 L1778.51 185.553 Q1780.59 186.687 1782.81 187.242 Q1785.04 187.798 1787.51 187.798 Q1791.52 187.798 1793.86 185.691 Q1796.19 183.585 1796.19 179.974 Q1796.19 176.363 1793.86 174.256 Q1791.52 172.15 1787.51 172.15 Q1785.64 172.15 1783.76 172.567 Q1781.91 172.983 1779.97 173.863 L1779.97 156.502 Z" fill="#000000" fill-rule="nonzero" fill-opacity="1" /><path clip-path="url(#clip730)" d="M1733.74 29.9641 L1752.1 29.9641 L1752.1 33.8993 L1738.02 33.8993 L1738.02 42.3714 Q1739.04 42.0242 1740.06 41.8622 Q1741.08 41.677 1742.1 41.677 Q1747.88 41.677 1751.26 44.8483 Q1754.64 48.0196 1754.64 53.4362 Q1754.64 59.0149 1751.17 62.1167 Q1747.7 65.1954 1741.38 65.1954 Q1739.2 65.1954 1736.93 64.825 Q1734.69 64.4547 1732.28 63.7139 L1732.28 59.0149 Q1734.36 60.1491 1736.59 60.7047 Q1738.81 61.2602 1741.29 61.2602 Q1745.29 61.2602 1747.63 59.1538 Q1749.97 57.0473 1749.97 53.4362 Q1749.97 49.8251 1747.63 47.7186 Q1745.29 45.6122 1741.29 45.6122 Q1739.41 45.6122 1737.54 46.0288 Q1735.68 46.4455 1733.74 47.3251 L1733.74 29.9641 Z" fill="#000000" fill-rule="nonzero" fill-opacity="1" /><path clip-path="url(#clip730)" d="M1763.86 58.6445 L1768.74 58.6445 L1768.74 64.5241 L1763.86 64.5241 L1763.86 58.6445 Z" fill="#000000" fill-rule="nonzero" fill-opacity="1" /><path clip-path="url(#clip730)" d="M1788.92 33.0428 Q1785.31 33.0428 1783.48 36.6076 Q1781.68 40.1492 1781.68 47.2788 Q1781.68 54.3853 1783.48 57.9501 Q1785.31 61.4917 1788.92 61.4917 Q1792.56 61.4917 1794.36 57.9501 Q1796.19 54.3853 1796.19 47.2788 Q1796.19 40.1492 1794.36 36.6076 Q1792.56 33.0428 1788.92 33.0428 M1788.92 29.3391 Q1794.73 29.3391 1797.79 33.9456 Q1800.87 38.5289 1800.87 47.2788 Q1800.87 56.0056 1797.79 60.6121 Q1794.73 65.1954 1788.92 65.1954 Q1783.11 65.1954 1780.04 60.6121 Q1776.98 56.0056 1776.98 47.2788 Q1776.98 38.5289 1780.04 33.9456 Q1783.11 29.3391 1788.92 29.3391 Z" fill="#000000" fill-rule="nonzero" fill-opacity="1" /><path clip-path="url(#clip730)" d="M1583.14 294.253 L1599.95 298.408 Q1601.01 298.697 1601.14 298.891 Q1601.27 299.052 1601.27 299.567 Q1601.27 300.565 1600.59 300.565 Q1600.53 300.565 1599.69 300.469 Q1598.82 300.372 1597.24 300.372 Q1591.42 300.372 1587.97 303.206 Q1584.52 306.008 1584.52 311 Q1584.52 315.316 1586.71 319.663 Q1588.9 323.979 1592.48 327.071 Q1595.18 329.39 1598.6 331.096 Q1602.01 332.771 1605.13 333.576 Q1608.26 334.349 1610.61 334.704 Q1612.96 335.058 1614.67 335.058 Q1617.15 335.058 1619.24 334.543 Q1621.33 333.995 1622.82 333.029 Q1624.27 332.063 1625.39 330.839 Q1626.49 329.583 1627.13 328.134 Q1627.78 326.652 1628.1 325.171 Q1628.39 323.689 1628.39 322.143 Q1628.39 315.928 1623.56 310.002 Q1619.6 305.3 1613.12 303.335 Q1612.48 303.174 1612.48 302.498 Q1612.48 301.693 1613.12 301.693 Q1613.25 301.693 1613.89 301.854 Q1614.51 302.015 1615.76 302.498 Q1616.99 302.981 1618.37 303.722 Q1619.76 304.462 1621.5 305.847 Q1623.23 307.232 1624.75 308.939 Q1627.26 311.837 1628.84 315.509 Q1630.42 319.18 1630.42 323.206 Q1630.42 328.23 1628.19 332.288 Q1625.97 336.346 1621.82 338.729 Q1617.66 341.08 1612.35 341.08 Q1606.75 341.08 1601.24 338.504 Q1595.73 335.927 1591.64 331.837 Q1587.55 327.747 1585.01 322.336 Q1582.46 316.926 1582.46 311.515 Q1582.46 309.454 1583.01 307.618 Q1583.56 305.783 1584.23 304.688 Q1584.91 303.56 1585.91 302.562 Q1586.87 301.564 1587.33 301.242 Q1587.78 300.887 1588.32 300.565 L1583.27 295.96 Q1582.46 295.155 1582.46 294.962 Q1582.46 294.575 1582.69 294.414 Q1582.91 294.253 1583.14 294.253 Z" fill="#000000" fill-rule="nonzero" fill-opacity="1" /><path clip-path="url(#clip730)" d="M1623.88 266.382 Q1624.2 266.382 1624.94 266.585 L1642.57 271.003 Q1646.49 271.973 1649.24 275.129 Q1651.99 278.263 1651.99 281.825 Q1651.99 283.966 1650.84 285.342 Q1649.72 286.717 1647.98 286.717 Q1646.45 286.717 1645.7 285.905 Q1644.98 285.094 1644.98 284.124 Q1644.98 283.809 1645.07 283.47 Q1645.16 283.132 1645.54 282.772 Q1645.93 282.411 1646.58 282.411 Q1647.64 282.411 1648.48 283.335 Q1648.86 283.786 1648.95 284.214 Q1649.04 284.62 1649.04 285.319 Q1649.67 285.048 1650.1 284.553 Q1650.53 284.057 1650.68 283.493 Q1650.86 282.929 1650.91 282.569 Q1650.98 282.185 1650.98 281.825 Q1650.98 278.939 1648.07 276.73 Q1647.19 276.076 1646.31 275.602 Q1645.45 275.107 1644.39 274.746 Q1643.36 274.385 1642.79 274.227 Q1642.23 274.047 1640.95 273.731 Q1643.04 275.828 1643.04 278.398 Q1643.04 279.48 1642.75 280.449 Q1642.46 281.396 1641.85 282.23 Q1641.22 283.065 1640.11 283.561 Q1639.01 284.034 1637.54 284.034 Q1635.99 284.034 1633.87 283.425 Q1631.75 282.817 1627.85 281.351 Q1625.66 280.562 1624.6 280.562 Q1624.08 280.562 1623.77 280.675 Q1623.43 280.788 1623.32 281.013 Q1623.18 281.239 1623.16 281.374 Q1623.14 281.487 1623.14 281.712 Q1623.14 283.042 1624.49 284.282 Q1625.84 285.522 1628.86 286.379 Q1629.43 286.559 1629.56 286.672 Q1629.7 286.784 1629.7 287.123 Q1629.67 287.686 1629.22 287.686 Q1629.04 287.686 1628.34 287.483 Q1627.62 287.28 1626.56 286.807 Q1625.48 286.311 1624.51 285.635 Q1623.52 284.958 1622.82 283.899 Q1622.12 282.817 1622.12 281.577 Q1622.12 279.886 1623.23 278.849 Q1624.31 277.789 1625.91 277.789 Q1626.56 277.789 1627.15 277.97 Q1627.71 278.127 1629.22 278.714 Q1635.31 281.081 1638.29 281.081 Q1639.01 281.081 1639.62 280.968 Q1640.2 280.833 1640.79 280.54 Q1641.35 280.247 1641.69 279.66 Q1642.01 279.052 1642.01 278.218 Q1642.01 277.158 1641.51 276.166 Q1640.99 275.152 1640.29 274.52 Q1639.59 273.867 1639.01 273.483 Q1638.4 273.078 1638.08 272.987 L1629.79 270.913 L1626.09 269.989 Q1624.08 269.561 1623.59 269.358 Q1623.11 269.087 1622.87 268.614 Q1622.62 268.14 1622.62 267.735 Q1622.62 267.171 1622.96 266.788 Q1623.29 266.382 1623.88 266.382 Z" fill="#000000" fill-rule="nonzero" fill-opacity="1" /><polyline clip-path="url(#clip733)" style="stroke:#009af9; stroke-linecap:round; stroke-linejoin:round; stroke-width:4; stroke-opacity:1; fill:none" points="1848.87,300.319 1852.77,233.17 1856.68,336.566 1860.58,343.584 1864.48,210.677 1868.39,349.951 1872.29,339.578 1876.2,271.399 1880.1,346.72 1884,235.199 1887.91,523.723 1891.81,397.246 1895.72,326.883 1899.62,505.489 1903.52,323.026 1907.43,310.394 1911.33,269.567 1915.23,337.84 1919.14,187.566 1923.04,201.931 1926.95,343.465 1930.85,352.11 1934.75,432.702 1938.66,244.042 1942.56,372.329 1946.47,239.725 1950.37,215.399 1954.27,286.608 1958.18,160.429 1962.08,258.579 1965.98,229.321 1969.89,348.401 1973.79,340.418 1977.7,203.12 1981.6,390.79 1985.5,267.438 1989.41,314.743 1993.31,331.113 1997.22,397.665 2001.12,344.098 2005.02,244.862 2008.93,328.879 2012.83,343.254 2016.73,316.542 2020.64,337.998 2024.54,353.654 2028.45,285.436 2032.35,268.897 2036.25,198.376 2040.16,487.968 2044.06,308.936 2047.97,420.829 2051.87,87.9053 2055.77,164.93 2059.68,284.772 2063.58,405.521 2067.48,316.822 2071.39,478.659 2075.29,418.069 2079.2,483.166 2083.1,396.976 2087,311.825 2090.91,350.223 2094.81,490.832 2098.72,549.372 2102.62,280.532 2106.52,469.359 2110.43,365.342 2114.33,465.355 2118.23,420.171 2122.14,252.24 2126.04,355.884 2129.95,308.193 2133.85,417.988 2137.75,320.54 2141.66,600.073 2145.56,342.831 2149.47,271.264 2153.37,331.724 2157.27,520.282 2161.18,368.238 2165.08,434.684 2168.98,428.747 2172.89,354.162 2176.79,185.698 2180.7,228.94 2184.6,242.118 2188.5,234.485 2192.41,323.318 2196.31,434.264 2200.22,291.366 2204.12,30.8968 2208.02,298.035 2211.93,354.314 2215.83,225.34 2219.74,307.635 2223.64,232.877 2227.54,308.219 2231.45,254.396 2235.35,427.961 2239.25,220.1 2243.16,354.661 2247.06,384.526 2250.97,286.483 2254.87,398.196 2258.77,403.411 2262.68,348.505 2266.58,348.793 2270.49,274.289 2274.39,410.124 2278.29,476.933 2282.2,390.846 2286.1,253.729 2290,333.959 2293.91,314.83 2297.81,476.365 2301.72,360.667 2305.62,317.966 2309.52,268.183 2313.43,265.127 2317.33,327.047 2321.24,417.681 2325.14,304.635 2329.04,377.545 2332.95,437.741 2336.85,291.963 2340.75,305.505 2344.66,328.749 2348.56,274.713 2352.47,294.442 2356.37,423.107 2360.27,403.914 2364.18,344.586 2368.08,298.654 2371.99,396.566 2375.89,232.313 2379.79,343.557 2383.7,241.656 2387.6,355.148 2391.5,249.005 2395.41,404.084 2399.31,294.661 2403.22,410.219 2407.12,277.074 2411.02,320.891 2414.93,334.677 2418.83,304.561 2422.74,346.371 2426.64,577.974 2430.54,382.575 2434.45,396.397 2438.35,422.357 2442.25,389.31 2446.16,405.764 2450.06,329.009 2453.97,283.188 2457.87,156.998 2461.77,180.725 2465.68,313.804 2469.58,282.497 2473.49,284.882 2477.39,401.346 2481.29,339.391 2485.2,300.279 2489.1,366.854 2493,349.498 2496.91,267.257 2500.81,498.379 2504.72,331.499 2508.62,304.432 2512.52,399.717 2516.43,424.907 2520.33,364.923 2524.24,478.352 2528.14,238.884 2532.04,597.167 2535.95,265.174 2539.85,566.682 2543.75,485.776 2547.66,398.036 2551.56,311.334 2555.47,320.543 2559.37,317.72 2563.27,408.733 2567.18,369.421 2571.08,273.966 2574.99,327.371 2578.89,148.82 2582.79,486.692 2586.7,259.654 2590.6,353.422 2594.5,259.574 2598.41,208.372 2602.31,361.266 2606.22,384.678 2610.12,363.856 2614.02,378.8 2617.93,275.801 2621.83,349.804 2625.74,349.727 2629.64,309.392 2633.54,571.036 2637.45,217.873 2641.35,240.383 2645.26,439.054 2649.16,239.408 2653.06,333.939 2656.97,380.111 2660.87,314.76 2664.77,296.64 2668.68,276.829 2672.58,356.446 2676.49,180.879 2680.39,464.967 2684.29,229.636 2688.2,259.089 2692.1,280.861 2696.01,248.797 2699.91,334.396 2703.81,403.649 2707.72,321.716 2711.62,423.764 2715.52,352.23 2719.43,271.32 2723.33,206.345 2727.24,326.398 2731.14,385.101 2735.04,386.663 2738.95,411.066 2742.85,332.791 2746.76,217.096 2750.66,453.703 2754.56,536.995 2758.47,272.947 2762.37,454.814 2766.27,220.174 2770.18,217.259 2774.08,326.251 2777.99,304.165 2781.89,215.749 2785.79,483.401 2789.7,489.036 2793.6,206.205 2797.51,327.383 2801.41,473.534 2805.31,343.944 2809.22,635.11 2813.12,337.514 2817.02,315.557 2820.93,464.222 2824.83,381.551 2828.74,281.434 2832.64,292.258 2836.54,602.482 2840.45,303.371 2844.35,220.983 2848.26,215.346 2852.16,453.707 2856.06,252.82 2859.97,283.688 2863.87,519.379 2867.77,328.719 2871.68,299.504 2875.58,255.76 2879.49,386.083 2883.39,445.864 2887.29,291.304 2891.2,293.017 2895.1,265.183 2899.01,317.24 2902.91,165.307 2906.81,448.401 2910.72,430.65 2914.62,283.212 2918.52,327.893 2922.43,351.464 2926.33,183.57 2930.24,417.746 2934.14,410.579 2938.04,387.814 2941.95,324.015 2945.85,266.892 2949.76,315.603 2953.66,287.775 2957.56,299.87 2961.47,458.829 2965.37,253.471 2969.27,352.875 2973.18,145.799 2977.08,319.812 2980.99,243.059 2984.89,327.376 2988.79,309.099 2992.7,374.981 2996.6,344.741 3000.51,268.39 3004.41,243.988 3008.31,257.066 3012.22,340.311 3016.12,278.487 3020.02,408.348 3023.93,513.388 3027.83,341.54 3031.74,461.864 3035.64,386.13 3039.54,318.36 3043.45,310.679 3047.35,445.598 3051.26,380.477 3055.16,301.502 3059.06,474.054 3062.97,346.677 3066.87,312.575 3070.77,379.54 3074.68,362.305 3078.58,291.532 3082.49,115.901 3086.39,265.942 3090.29,228.272 3094.2,289.189 3098.1,402.032 3102.01,175.294 3105.91,272.241 3109.81,311.588 3113.72,499.738 3117.62,380.03 3121.53,411.069 3125.43,341.707 3129.33,295.659 3133.24,517.573 3137.14,244.031 3141.04,368.857 3144.95,448.641 3148.85,376.885 3152.76,466.707 "/>
<path clip-path="url(#clip730)" d="M248.869 1253.39 L1552.76 1253.39 L1552.76 747.244 L248.869 747.244  Z" fill="#ffffff" fill-rule="evenodd" fill-opacity="1"/>
<defs>
  <clipPath id="clip734">
    <rect x="248" y="747" width="1305" height="507"/>
  </clipPath>
</defs>
<polyline clip-path="url(#clip734)" style="stroke:#000000; stroke-linecap:round; stroke-linejoin:round; stroke-width:2; stroke-opacity:0.1; fill:none" points="248.869,1253.39 248.869,747.244 "/>
<polyline clip-path="url(#clip734)" style="stroke:#000000; stroke-linecap:round; stroke-linejoin:round; stroke-width:2; stroke-opacity:0.1; fill:none" points="509.126,1253.39 509.126,747.244 "/>
<polyline clip-path="url(#clip734)" style="stroke:#000000; stroke-linecap:round; stroke-linejoin:round; stroke-width:2; stroke-opacity:0.1; fill:none" points="769.383,1253.39 769.383,747.244 "/>
<polyline clip-path="url(#clip734)" style="stroke:#000000; stroke-linecap:round; stroke-linejoin:round; stroke-width:2; stroke-opacity:0.1; fill:none" points="1029.64,1253.39 1029.64,747.244 "/>
<polyline clip-path="url(#clip734)" style="stroke:#000000; stroke-linecap:round; stroke-linejoin:round; stroke-width:2; stroke-opacity:0.1; fill:none" points="1289.9,1253.39 1289.9,747.244 "/>
<polyline clip-path="url(#clip734)" style="stroke:#000000; stroke-linecap:round; stroke-linejoin:round; stroke-width:2; stroke-opacity:0.1; fill:none" points="1550.15,1253.39 1550.15,747.244 "/>
<polyline clip-path="url(#clip730)" style="stroke:#000000; stroke-linecap:round; stroke-linejoin:round; stroke-width:4; stroke-opacity:1; fill:none" points="248.869,1253.39 1552.76,1253.39 "/>
<polyline clip-path="url(#clip730)" style="stroke:#000000; stroke-linecap:round; stroke-linejoin:round; stroke-width:4; stroke-opacity:1; fill:none" points="248.869,1253.39 248.869,1234.5 "/>
<polyline clip-path="url(#clip730)" style="stroke:#000000; stroke-linecap:round; stroke-linejoin:round; stroke-width:4; stroke-opacity:1; fill:none" points="509.126,1253.39 509.126,1234.5 "/>
<polyline clip-path="url(#clip730)" style="stroke:#000000; stroke-linecap:round; stroke-linejoin:round; stroke-width:4; stroke-opacity:1; fill:none" points="769.383,1253.39 769.383,1234.5 "/>
<polyline clip-path="url(#clip730)" style="stroke:#000000; stroke-linecap:round; stroke-linejoin:round; stroke-width:4; stroke-opacity:1; fill:none" points="1029.64,1253.39 1029.64,1234.5 "/>
<polyline clip-path="url(#clip730)" style="stroke:#000000; stroke-linecap:round; stroke-linejoin:round; stroke-width:4; stroke-opacity:1; fill:none" points="1289.9,1253.39 1289.9,1234.5 "/>
<polyline clip-path="url(#clip730)" style="stroke:#000000; stroke-linecap:round; stroke-linejoin:round; stroke-width:4; stroke-opacity:1; fill:none" points="1550.15,1253.39 1550.15,1234.5 "/>
<path clip-path="url(#clip730)" d="M226.253 1290.71 Q222.642 1290.71 220.814 1294.28 Q219.008 1297.82 219.008 1304.95 Q219.008 1312.06 220.814 1315.62 Q222.642 1319.16 226.253 1319.16 Q229.888 1319.16 231.693 1315.62 Q233.522 1312.06 233.522 1304.95 Q233.522 1297.82 231.693 1294.28 Q229.888 1290.71 226.253 1290.71 M226.253 1287.01 Q232.064 1287.01 235.119 1291.62 Q238.198 1296.2 238.198 1304.95 Q238.198 1313.68 235.119 1318.28 Q232.064 1322.87 226.253 1322.87 Q220.443 1322.87 217.365 1318.28 Q214.309 1313.68 214.309 1304.95 Q214.309 1296.2 217.365 1291.62 Q220.443 1287.01 226.253 1287.01 Z" fill="#000000" fill-rule="nonzero" fill-opacity="1" /><path clip-path="url(#clip730)" d="M246.415 1316.32 L251.3 1316.32 L251.3 1322.19 L246.415 1322.19 L246.415 1316.32 Z" fill="#000000" fill-rule="nonzero" fill-opacity="1" /><path clip-path="url(#clip730)" d="M271.485 1290.71 Q267.874 1290.71 266.045 1294.28 Q264.239 1297.82 264.239 1304.95 Q264.239 1312.06 266.045 1315.62 Q267.874 1319.16 271.485 1319.16 Q275.119 1319.16 276.924 1315.62 Q278.753 1312.06 278.753 1304.95 Q278.753 1297.82 276.924 1294.28 Q275.119 1290.71 271.485 1290.71 M271.485 1287.01 Q277.295 1287.01 280.35 1291.62 Q283.429 1296.2 283.429 1304.95 Q283.429 1313.68 280.35 1318.28 Q277.295 1322.87 271.485 1322.87 Q265.674 1322.87 262.596 1318.28 Q259.54 1313.68 259.54 1304.95 Q259.54 1296.2 262.596 1291.62 Q265.674 1287.01 271.485 1287.01 Z" fill="#000000" fill-rule="nonzero" fill-opacity="1" /><path clip-path="url(#clip730)" d="M487.008 1290.71 Q483.397 1290.71 481.568 1294.28 Q479.763 1297.82 479.763 1304.95 Q479.763 1312.06 481.568 1315.62 Q483.397 1319.16 487.008 1319.16 Q490.642 1319.16 492.448 1315.62 Q494.276 1312.06 494.276 1304.95 Q494.276 1297.82 492.448 1294.28 Q490.642 1290.71 487.008 1290.71 M487.008 1287.01 Q492.818 1287.01 495.874 1291.62 Q498.952 1296.2 498.952 1304.95 Q498.952 1313.68 495.874 1318.28 Q492.818 1322.87 487.008 1322.87 Q481.198 1322.87 478.119 1318.28 Q475.064 1313.68 475.064 1304.95 Q475.064 1296.2 478.119 1291.62 Q481.198 1287.01 487.008 1287.01 Z" fill="#000000" fill-rule="nonzero" fill-opacity="1" /><path clip-path="url(#clip730)" d="M507.17 1316.32 L512.054 1316.32 L512.054 1322.19 L507.17 1322.19 L507.17 1316.32 Z" fill="#000000" fill-rule="nonzero" fill-opacity="1" /><path clip-path="url(#clip730)" d="M522.286 1287.63 L540.642 1287.63 L540.642 1291.57 L526.568 1291.57 L526.568 1300.04 Q527.586 1299.69 528.605 1299.53 Q529.623 1299.35 530.642 1299.35 Q536.429 1299.35 539.809 1302.52 Q543.188 1305.69 543.188 1311.11 Q543.188 1316.69 539.716 1319.79 Q536.244 1322.87 529.924 1322.87 Q527.748 1322.87 525.48 1322.5 Q523.235 1322.13 520.827 1321.38 L520.827 1316.69 Q522.911 1317.82 525.133 1318.38 Q527.355 1318.93 529.832 1318.93 Q533.836 1318.93 536.174 1316.82 Q538.512 1314.72 538.512 1311.11 Q538.512 1307.5 536.174 1305.39 Q533.836 1303.28 529.832 1303.28 Q527.957 1303.28 526.082 1303.7 Q524.23 1304.12 522.286 1305 L522.286 1287.63 Z" fill="#000000" fill-rule="nonzero" fill-opacity="1" /><path clip-path="url(#clip730)" d="M736.536 1318.26 L744.175 1318.26 L744.175 1291.89 L735.864 1293.56 L735.864 1289.3 L744.128 1287.63 L748.804 1287.63 L748.804 1318.26 L756.443 1318.26 L756.443 1322.19 L736.536 1322.19 L736.536 1318.26 Z" fill="#000000" fill-rule="nonzero" fill-opacity="1" /><path clip-path="url(#clip730)" d="M765.887 1316.32 L770.772 1316.32 L770.772 1322.19 L765.887 1322.19 L765.887 1316.32 Z" fill="#000000" fill-rule="nonzero" fill-opacity="1" /><path clip-path="url(#clip730)" d="M790.957 1290.71 Q787.346 1290.71 785.517 1294.28 Q783.711 1297.82 783.711 1304.95 Q783.711 1312.06 785.517 1315.62 Q787.346 1319.16 790.957 1319.16 Q794.591 1319.16 796.396 1315.62 Q798.225 1312.06 798.225 1304.95 Q798.225 1297.82 796.396 1294.28 Q794.591 1290.71 790.957 1290.71 M790.957 1287.01 Q796.767 1287.01 799.822 1291.62 Q802.901 1296.2 802.901 1304.95 Q802.901 1313.68 799.822 1318.28 Q796.767 1322.87 790.957 1322.87 Q785.147 1322.87 782.068 1318.28 Q779.012 1313.68 779.012 1304.95 Q779.012 1296.2 782.068 1291.62 Q785.147 1287.01 790.957 1287.01 Z" fill="#000000" fill-rule="nonzero" fill-opacity="1" /><path clip-path="url(#clip730)" d="M997.29 1318.26 L1004.93 1318.26 L1004.93 1291.89 L996.619 1293.56 L996.619 1289.3 L1004.88 1287.63 L1009.56 1287.63 L1009.56 1318.26 L1017.2 1318.26 L1017.2 1322.19 L997.29 1322.19 L997.29 1318.26 Z" fill="#000000" fill-rule="nonzero" fill-opacity="1" /><path clip-path="url(#clip730)" d="M1026.64 1316.32 L1031.53 1316.32 L1031.53 1322.19 L1026.64 1322.19 L1026.64 1316.32 Z" fill="#000000" fill-rule="nonzero" fill-opacity="1" /><path clip-path="url(#clip730)" d="M1041.76 1287.63 L1060.11 1287.63 L1060.11 1291.57 L1046.04 1291.57 L1046.04 1300.04 Q1047.06 1299.69 1048.08 1299.53 Q1049.1 1299.35 1050.11 1299.35 Q1055.9 1299.35 1059.28 1302.52 Q1062.66 1305.69 1062.66 1311.11 Q1062.66 1316.69 1059.19 1319.79 Q1055.72 1322.87 1049.4 1322.87 Q1047.22 1322.87 1044.95 1322.5 Q1042.71 1322.13 1040.3 1321.38 L1040.3 1316.69 Q1042.38 1317.82 1044.6 1318.38 Q1046.83 1318.93 1049.3 1318.93 Q1053.31 1318.93 1055.65 1316.82 Q1057.98 1314.72 1057.98 1311.11 Q1057.98 1307.5 1055.65 1305.39 Q1053.31 1303.28 1049.3 1303.28 Q1047.43 1303.28 1045.55 1303.7 Q1043.7 1304.12 1041.76 1305 L1041.76 1287.63 Z" fill="#000000" fill-rule="nonzero" fill-opacity="1" /><path clip-path="url(#clip730)" d="M1261.14 1318.26 L1277.45 1318.26 L1277.45 1322.19 L1255.51 1322.19 L1255.51 1318.26 Q1258.17 1315.51 1262.76 1310.88 Q1267.36 1306.22 1268.54 1304.88 Q1270.79 1302.36 1271.67 1300.62 Q1272.57 1298.86 1272.57 1297.17 Q1272.57 1294.42 1270.63 1292.68 Q1268.7 1290.95 1265.6 1290.95 Q1263.4 1290.95 1260.95 1291.71 Q1258.52 1292.47 1255.74 1294.02 L1255.74 1289.3 Q1258.57 1288.17 1261.02 1287.59 Q1263.47 1287.01 1265.51 1287.01 Q1270.88 1287.01 1274.07 1289.7 Q1277.27 1292.38 1277.27 1296.87 Q1277.27 1299 1276.46 1300.92 Q1275.67 1302.82 1273.57 1305.41 Q1272.99 1306.08 1269.89 1309.3 Q1266.78 1312.5 1261.14 1318.26 Z" fill="#000000" fill-rule="nonzero" fill-opacity="1" /><path clip-path="url(#clip730)" d="M1287.27 1316.32 L1292.15 1316.32 L1292.15 1322.19 L1287.27 1322.19 L1287.27 1316.32 Z" fill="#000000" fill-rule="nonzero" fill-opacity="1" /><path clip-path="url(#clip730)" d="M1312.34 1290.71 Q1308.73 1290.71 1306.9 1294.28 Q1305.09 1297.82 1305.09 1304.95 Q1305.09 1312.06 1306.9 1315.62 Q1308.73 1319.16 1312.34 1319.16 Q1315.97 1319.16 1317.78 1315.62 Q1319.61 1312.06 1319.61 1304.95 Q1319.61 1297.82 1317.78 1294.28 Q1315.97 1290.71 1312.34 1290.71 M1312.34 1287.01 Q1318.15 1287.01 1321.2 1291.62 Q1324.28 1296.2 1324.28 1304.95 Q1324.28 1313.68 1321.2 1318.28 Q1318.15 1322.87 1312.34 1322.87 Q1306.53 1322.87 1303.45 1318.28 Q1300.39 1313.68 1300.39 1304.95 Q1300.39 1296.2 1303.45 1291.62 Q1306.53 1287.01 1312.34 1287.01 Z" fill="#000000" fill-rule="nonzero" fill-opacity="1" /><path clip-path="url(#clip730)" d="M1521.89 1318.26 L1538.21 1318.26 L1538.21 1322.19 L1516.26 1322.19 L1516.26 1318.26 Q1518.93 1315.51 1523.51 1310.88 Q1528.12 1306.22 1529.3 1304.88 Q1531.54 1302.36 1532.42 1300.62 Q1533.32 1298.86 1533.32 1297.17 Q1533.32 1294.42 1531.38 1292.68 Q1529.46 1290.95 1526.36 1290.95 Q1524.16 1290.95 1521.7 1291.71 Q1519.27 1292.47 1516.5 1294.02 L1516.5 1289.3 Q1519.32 1288.17 1521.77 1287.59 Q1524.23 1287.01 1526.26 1287.01 Q1531.63 1287.01 1534.83 1289.7 Q1538.02 1292.38 1538.02 1296.87 Q1538.02 1299 1537.21 1300.92 Q1536.43 1302.82 1534.32 1305.41 Q1533.74 1306.08 1530.64 1309.3 Q1527.54 1312.5 1521.89 1318.26 Z" fill="#000000" fill-rule="nonzero" fill-opacity="1" /><path clip-path="url(#clip730)" d="M1548.02 1316.32 L1552.91 1316.32 L1552.91 1322.19 L1548.02 1322.19 L1548.02 1316.32 Z" fill="#000000" fill-rule="nonzero" fill-opacity="1" /><path clip-path="url(#clip730)" d="M1563.14 1287.63 L1581.5 1287.63 L1581.5 1291.57 L1567.42 1291.57 L1567.42 1300.04 Q1568.44 1299.69 1569.46 1299.53 Q1570.48 1299.35 1571.5 1299.35 Q1577.28 1299.35 1580.66 1302.52 Q1584.04 1305.69 1584.04 1311.11 Q1584.04 1316.69 1580.57 1319.79 Q1577.1 1322.87 1570.78 1322.87 Q1568.6 1322.87 1566.33 1322.5 Q1564.09 1322.13 1561.68 1321.38 L1561.68 1316.69 Q1563.76 1317.82 1565.99 1318.38 Q1568.21 1318.93 1570.69 1318.93 Q1574.69 1318.93 1577.03 1316.82 Q1579.37 1314.72 1579.37 1311.11 Q1579.37 1307.5 1577.03 1305.39 Q1574.69 1303.28 1570.69 1303.28 Q1568.81 1303.28 1566.94 1303.7 Q1565.08 1304.12 1563.14 1305 L1563.14 1287.63 Z" fill="#000000" fill-rule="nonzero" fill-opacity="1" /><path clip-path="url(#clip730)" d="M909.286 1374.12 Q909.286 1375.02 908.868 1375.25 Q908.449 1375.44 907.29 1375.44 L901.106 1375.44 L896.211 1394.9 Q895.824 1396.6 895.824 1398.05 Q895.824 1399.66 896.307 1400.37 Q896.823 1401.08 897.885 1401.08 Q899.979 1401.08 902.233 1399.18 Q904.52 1397.28 906.452 1392.64 Q906.71 1392.03 906.839 1391.9 Q907 1391.74 907.418 1391.74 Q908.223 1391.74 908.223 1392.38 Q908.223 1392.61 907.773 1393.64 Q907.354 1394.67 906.42 1396.18 Q905.518 1397.7 904.327 1399.11 Q903.167 1400.53 901.396 1401.56 Q899.625 1402.56 897.724 1402.56 Q895.051 1402.56 893.344 1400.85 Q891.67 1399.15 891.67 1396.47 Q891.67 1395.6 892.346 1392.83 Q893.022 1390.03 896.694 1375.44 L890.865 1375.44 Q890.059 1375.44 889.737 1375.41 Q889.447 1375.38 889.222 1375.22 Q889.029 1375.02 889.029 1374.64 Q889.029 1374.03 889.286 1373.77 Q889.544 1373.48 889.866 1373.45 Q890.22 1373.38 891.026 1373.38 L897.209 1373.38 L899.786 1362.92 Q900.043 1361.88 900.687 1361.3 Q901.364 1360.69 901.75 1360.63 Q902.137 1360.53 902.426 1360.53 Q903.296 1360.53 903.811 1361.01 Q904.327 1361.47 904.327 1362.3 Q904.327 1362.75 901.621 1373.38 L907.418 1373.38 Q908.159 1373.38 908.449 1373.41 Q908.771 1373.45 909.029 1373.61 Q909.286 1373.77 909.286 1374.12 Z" fill="#000000" fill-rule="nonzero" fill-opacity="1" /><polyline clip-path="url(#clip734)" style="stroke:#000000; stroke-linecap:round; stroke-linejoin:round; stroke-width:2; stroke-opacity:0.1; fill:none" points="248.869,1253.39 1552.76,1253.39 "/>
<polyline clip-path="url(#clip734)" style="stroke:#000000; stroke-linecap:round; stroke-linejoin:round; stroke-width:2; stroke-opacity:0.1; fill:none" points="248.869,1126.86 1552.76,1126.86 "/>
<polyline clip-path="url(#clip734)" style="stroke:#000000; stroke-linecap:round; stroke-linejoin:round; stroke-width:2; stroke-opacity:0.1; fill:none" points="248.869,1000.32 1552.76,1000.32 "/>
<polyline clip-path="url(#clip734)" style="stroke:#000000; stroke-linecap:round; stroke-linejoin:round; stroke-width:2; stroke-opacity:0.1; fill:none" points="248.869,873.782 1552.76,873.782 "/>
<polyline clip-path="url(#clip734)" style="stroke:#000000; stroke-linecap:round; stroke-linejoin:round; stroke-width:2; stroke-opacity:0.1; fill:none" points="248.869,747.244 1552.76,747.244 "/>
<polyline clip-path="url(#clip730)" style="stroke:#000000; stroke-linecap:round; stroke-linejoin:round; stroke-width:4; stroke-opacity:1; fill:none" points="248.869,1253.39 248.869,747.244 "/>
<polyline clip-path="url(#clip730)" style="stroke:#000000; stroke-linecap:round; stroke-linejoin:round; stroke-width:4; stroke-opacity:1; fill:none" points="248.869,1253.39 267.767,1253.39 "/>
<polyline clip-path="url(#clip730)" style="stroke:#000000; stroke-linecap:round; stroke-linejoin:round; stroke-width:4; stroke-opacity:1; fill:none" points="248.869,1126.86 267.767,1126.86 "/>
<polyline clip-path="url(#clip730)" style="stroke:#000000; stroke-linecap:round; stroke-linejoin:round; stroke-width:4; stroke-opacity:1; fill:none" points="248.869,1000.32 267.767,1000.32 "/>
<polyline clip-path="url(#clip730)" style="stroke:#000000; stroke-linecap:round; stroke-linejoin:round; stroke-width:4; stroke-opacity:1; fill:none" points="248.869,873.782 267.767,873.782 "/>
<polyline clip-path="url(#clip730)" style="stroke:#000000; stroke-linecap:round; stroke-linejoin:round; stroke-width:4; stroke-opacity:1; fill:none" points="248.869,747.244 267.767,747.244 "/>
<path clip-path="url(#clip730)" d="M140.754 1253.85 L170.429 1253.85 L170.429 1257.78 L140.754 1257.78 L140.754 1253.85 Z" fill="#000000" fill-rule="nonzero" fill-opacity="1" /><path clip-path="url(#clip730)" d="M184.55 1266.74 L200.869 1266.74 L200.869 1270.67 L178.925 1270.67 L178.925 1266.74 Q181.587 1263.99 186.17 1259.36 Q190.776 1254.7 191.957 1253.36 Q194.202 1250.84 195.082 1249.1 Q195.985 1247.34 195.985 1245.65 Q195.985 1242.9 194.04 1241.16 Q192.119 1239.43 189.017 1239.43 Q186.818 1239.43 184.364 1240.19 Q181.934 1240.95 179.156 1242.5 L179.156 1237.78 Q181.98 1236.65 184.434 1236.07 Q186.888 1235.49 188.925 1235.49 Q194.295 1235.49 197.489 1238.18 Q200.684 1240.86 200.684 1245.35 Q200.684 1247.48 199.874 1249.4 Q199.087 1251.3 196.98 1253.89 Q196.401 1254.56 193.3 1257.78 Q190.198 1260.98 184.55 1266.74 Z" fill="#000000" fill-rule="nonzero" fill-opacity="1" /><path clip-path="url(#clip730)" d="M140.383 1127.31 L170.059 1127.31 L170.059 1131.24 L140.383 1131.24 L140.383 1127.31 Z" fill="#000000" fill-rule="nonzero" fill-opacity="1" /><path clip-path="url(#clip730)" d="M180.962 1140.2 L188.601 1140.2 L188.601 1113.84 L180.29 1115.5 L180.29 1111.24 L188.554 1109.58 L193.23 1109.58 L193.23 1140.2 L200.869 1140.2 L200.869 1144.14 L180.962 1144.14 L180.962 1140.2 Z" fill="#000000" fill-rule="nonzero" fill-opacity="1" /><path clip-path="url(#clip730)" d="M188.925 986.118 Q185.314 986.118 183.485 989.683 Q181.679 993.225 181.679 1000.35 Q181.679 1007.46 183.485 1011.03 Q185.314 1014.57 188.925 1014.57 Q192.559 1014.57 194.364 1011.03 Q196.193 1007.46 196.193 1000.35 Q196.193 993.225 194.364 989.683 Q192.559 986.118 188.925 986.118 M188.925 982.414 Q194.735 982.414 197.79 987.021 Q200.869 991.604 200.869 1000.35 Q200.869 1009.08 197.79 1013.69 Q194.735 1018.27 188.925 1018.27 Q183.114 1018.27 180.036 1013.69 Q176.98 1009.08 176.98 1000.35 Q176.98 991.604 180.036 987.021 Q183.114 982.414 188.925 982.414 Z" fill="#000000" fill-rule="nonzero" fill-opacity="1" /><path clip-path="url(#clip730)" d="M180.962 887.127 L188.601 887.127 L188.601 860.761 L180.29 862.428 L180.29 858.168 L188.554 856.502 L193.23 856.502 L193.23 887.127 L200.869 887.127 L200.869 891.062 L180.962 891.062 L180.962 887.127 Z" fill="#000000" fill-rule="nonzero" fill-opacity="1" /><path clip-path="url(#clip730)" d="M184.55 760.589 L200.869 760.589 L200.869 764.524 L178.925 764.524 L178.925 760.589 Q181.587 757.834 186.17 753.205 Q190.776 748.552 191.957 747.209 Q194.202 744.686 195.082 742.95 Q195.985 741.191 195.985 739.501 Q195.985 736.746 194.04 735.01 Q192.119 733.274 189.017 733.274 Q186.818 733.274 184.364 734.038 Q181.934 734.802 179.156 736.353 L179.156 731.631 Q181.98 730.496 184.434 729.918 Q186.888 729.339 188.925 729.339 Q194.295 729.339 197.489 732.024 Q200.684 734.709 200.684 739.2 Q200.684 741.33 199.874 743.251 Q199.087 745.149 196.98 747.742 Q196.401 748.413 193.3 751.631 Q190.198 754.825 184.55 760.589 Z" fill="#000000" fill-rule="nonzero" fill-opacity="1" /><path clip-path="url(#clip730)" d="M34.0298 1002.43 L50.8413 1006.59 Q51.9041 1006.88 52.0329 1007.07 Q52.1617 1007.23 52.1617 1007.75 Q52.1617 1008.75 51.4854 1008.75 Q51.421 1008.75 50.5836 1008.65 Q49.7141 1008.55 48.136 1008.55 Q42.3067 1008.55 38.8607 1011.39 Q35.4147 1014.19 35.4147 1019.18 Q35.4147 1023.5 37.6047 1027.84 Q39.7947 1032.16 43.3695 1035.25 Q46.0748 1037.57 49.4886 1039.28 Q52.9024 1040.95 56.0264 1041.76 Q59.1504 1042.53 61.5014 1042.88 Q63.8524 1043.24 65.5593 1043.24 Q68.0392 1043.24 70.1326 1042.72 Q72.226 1042.18 73.7074 1041.21 Q75.1567 1040.24 76.2839 1039.02 Q77.3789 1037.76 78.023 1036.31 Q78.6671 1034.83 78.9892 1033.35 Q79.279 1031.87 79.279 1030.32 Q79.279 1024.11 74.4482 1018.18 Q70.4868 1013.48 64.0135 1011.52 Q63.3693 1011.36 63.3693 1010.68 Q63.3693 1009.87 64.0135 1009.87 Q64.1423 1009.87 64.7864 1010.03 Q65.3983 1010.2 66.6543 1010.68 Q67.8782 1011.16 69.263 1011.9 Q70.6479 1012.64 72.387 1014.03 Q74.1261 1015.41 75.6398 1017.12 Q78.1518 1020.02 79.7299 1023.69 Q81.308 1027.36 81.308 1031.39 Q81.308 1036.41 79.0858 1040.47 Q76.8636 1044.53 72.709 1046.91 Q68.5545 1049.26 63.2405 1049.26 Q57.6367 1049.26 52.1295 1046.69 Q46.6223 1044.11 42.5321 1040.02 Q38.442 1035.93 35.8977 1030.52 Q33.3535 1025.11 33.3535 1019.7 Q33.3535 1017.64 33.901 1015.8 Q34.4485 1013.96 35.1248 1012.87 Q35.8011 1011.74 36.7995 1010.74 Q37.7657 1009.74 38.2166 1009.42 Q38.6674 1009.07 39.2149 1008.75 L34.1586 1004.14 Q33.3535 1003.34 33.3535 1003.14 Q33.3535 1002.76 33.5789 1002.6 Q33.8044 1002.43 34.0298 1002.43 Z" fill="#000000" fill-rule="nonzero" fill-opacity="1" /><path clip-path="url(#clip730)" d="M86.8096 958.038 Q86.9899 958.038 87.6888 958.241 Q88.3877 958.444 89.4698 958.94 Q90.5519 959.414 91.5438 960.09 Q92.5132 960.744 93.2346 961.826 Q93.9335 962.885 93.9335 964.103 Q93.9335 965.726 92.8514 966.808 Q91.7693 967.89 90.1461 967.89 Q89.2669 967.89 87.5986 967.281 Q79.9787 964.418 77.2509 964.418 Q74.0271 964.418 74.0271 966.921 Q74.0271 968.341 74.6132 969.626 Q75.1994 970.911 76.0109 971.745 Q76.8225 972.579 77.7468 973.233 Q78.6711 973.887 79.2798 974.18 Q79.8885 974.45 80.1591 974.518 L91.2958 977.291 Q92.2427 977.516 92.6936 977.674 Q93.1445 977.832 93.5277 978.26 Q93.9335 978.689 93.9335 979.365 Q93.9335 979.929 93.5953 980.334 Q93.2572 980.718 92.671 980.718 Q92.5809 980.718 92.1074 980.605 Q91.634 980.492 90.9802 980.334 Q90.3264 980.177 89.9432 980.109 Q86.8772 979.297 86.4489 979.185 L81.0834 977.9 Q78.4232 977.201 77.2509 977.201 Q74.0271 977.201 74.0271 979.703 Q74.0271 980.943 74.5005 982.115 Q74.9514 983.265 75.5826 984.054 Q76.2138 984.843 77.0931 985.565 Q77.9497 986.264 78.5359 986.624 Q79.0995 986.962 79.6631 987.233 L81.9626 987.819 Q82.5938 987.954 85.0511 988.608 L89.2218 989.623 Q92.3329 990.344 92.6259 990.502 Q93.2572 990.727 93.5953 991.223 Q93.9335 991.719 93.9335 992.215 Q93.9335 992.779 93.5953 993.162 Q93.2572 993.545 92.671 993.545 Q92.5809 993.545 92.2427 993.478 Q91.9045 993.41 91.4311 993.297 Q90.9577 993.185 90.6872 993.14 L80.0238 990.457 Q78.085 989.961 77.4763 989.848 Q76.8451 989.713 76.1462 989.713 Q74.0271 989.713 74.0271 991.156 Q74.0271 992.328 75.4248 993.094 Q76.8225 993.861 79.5278 994.515 Q80.2718 994.718 80.4296 994.853 Q80.5874 994.966 80.5874 995.304 Q80.5649 995.867 80.114 995.867 Q80.0013 995.867 79.2798 995.687 Q78.5584 995.507 77.4763 995.169 Q76.3717 994.808 75.6502 994.425 Q75.1768 994.199 74.8612 993.996 Q74.5456 993.793 74.0496 993.388 Q73.5536 992.982 73.2831 992.373 Q73.0126 991.764 73.0126 991.02 Q73.0126 989.375 74.0722 988.157 Q75.1317 986.917 77.0254 986.76 Q73.0126 983.761 73.0126 979.568 Q73.0126 977.201 74.2074 975.781 Q75.3572 974.45 77.4763 974.293 Q73.0126 971.182 73.0126 966.763 Q73.0126 964.215 74.3427 962.84 Q75.6502 961.465 77.9497 961.465 Q79.1446 961.465 81.4215 962.074 Q83.6759 962.682 84.8031 963.088 Q85.9303 963.494 88.0946 964.283 Q90.1686 965.117 91.386 965.117 Q92.1751 965.117 92.5358 964.847 Q92.8965 964.576 92.8965 963.99 Q92.8965 963.088 92.378 962.299 Q91.8369 961.51 90.9577 960.947 Q90.0559 960.36 89.1542 959.977 Q88.2298 959.594 87.1928 959.301 Q86.6292 959.12 86.494 959.03 Q86.3587 958.918 86.3587 958.602 Q86.3587 958.038 86.8096 958.038 Z" fill="#000000" fill-rule="nonzero" fill-opacity="1" /><polyline clip-path="url(#clip734)" style="stroke:#009af9; stroke-linecap:round; stroke-linejoin:round; stroke-width:4; stroke-opacity:1; fill:none" points="248.869,1000.32 252.773,1001.23 256.677,1000.71 260.581,1000.09 264.484,1001.29 268.388,1000.62 272.292,1000.07 276.196,1000.45 280.1,999.859 284.004,1000.71 287.908,997.846 291.811,996.623 295.715,996.412 299.619,993.966 303.523,993.85 307.427,993.97 311.331,994.588 315.235,994.333 319.138,995.917 323.042,997.318 326.946,996.903 330.85,996.334 334.754,994.797 338.658,995.586 342.561,994.867 346.465,995.72 350.369,996.893 354.273,997.173 358.177,998.924 362.081,999.496 365.985,1000.35 369.888,999.776 373.792,999.264 377.696,1000.4 381.6,999.347 385.504,999.696 389.408,999.536 393.312,999.168 397.215,998.027 401.119,997.517 405.023,998.202 408.927,997.935 412.831,997.47 416.735,997.321 420.639,996.941 424.542,996.382 428.446,996.615 432.35,997.061 436.254,998.308 440.158,996.246 444.062,996.149 447.966,994.865 451.869,997.342 455.773,999.028 459.677,999.279 463.581,998.108 467.485,997.913 471.389,995.946 475.292,994.636 479.196,992.657 483.1,991.662 487.004,991.68 490.908,991.306 494.812,989.359 498.716,986.743 502.619,987.146 506.523,985.57 510.427,985.093 514.331,983.57 518.235,982.533 522.139,983.391 526.043,983.166 529.946,983.418 533.85,982.482 537.754,982.582 541.658,979.666 545.562,979.494 549.466,980.229 553.37,980.321 557.273,978.327 561.177,977.94 565.081,976.912 568.985,975.937 572.889,975.795 576.793,977.516 580.697,978.81 584.6,979.909 588.504,981.057 592.408,981.226 596.312,980.157 600.216,980.59 604.12,983.873 608.023,984.343 611.927,984.078 615.831,985.167 619.735,985.414 623.639,986.413 627.543,986.623 631.447,987.364 635.35,986.275 639.254,987.328 643.158,987.03 647.062,986.361 650.966,986.726 654.87,985.949 658.774,985.081 662.677,984.804 666.581,984.554 670.485,985.089 674.389,984.225 678.293,982.614 682.197,981.9 686.101,982.675 690.004,982.662 693.908,982.812 697.812,981.284 701.716,980.911 705.62,981.045 709.524,981.715 713.428,982.429 717.331,982.49 721.235,981.582 725.139,981.817 729.043,981.347 732.947,980.229 736.851,980.606 740.754,980.907 744.658,980.958 748.562,981.554 752.466,981.963 756.37,981.035 760.274,980.258 764.178,980.11 768.081,980.464 771.985,979.834 775.889,980.846 779.793,980.785 783.697,981.713 787.601,981.518 791.505,982.353 795.408,981.648 799.312,981.993 803.216,981.21 807.12,981.736 811.024,981.872 814.928,981.847 818.832,982.12 822.735,981.981 826.639,979.486 830.543,978.887 834.447,978.25 838.351,977.356 842.255,976.796 846.159,976.096 850.062,976.173 853.966,976.75 857.87,978.613 861.774,980.273 865.678,980.566 869.582,981.104 873.485,981.624 877.389,980.972 881.293,980.892 885.197,981.23 889.101,980.919 893.005,980.753 896.909,981.416 900.812,979.81 904.716,979.775 908.62,980.088 912.524,979.465 916.428,978.555 920.332,978.239 924.236,976.833 928.139,977.763 932.043,975.252 935.947,975.884 939.851,973.689 943.755,972.172 947.659,971.581 951.563,971.905 955.466,972.186 959.37,972.491 963.274,971.9 967.178,971.658 971.082,972.383 974.986,972.626 978.89,974.598 982.793,973.318 986.697,974.114 990.601,974.092 994.505,974.945 998.409,976.336 1002.31,976.24 1006.22,975.842 1010.12,975.638 1014.02,975.3 1017.93,975.961 1021.83,975.945 1025.74,975.894 1029.64,976.236 1033.54,974.051 1037.45,975.19 1041.35,976.273 1045.26,975.409 1049.16,976.393 1053.06,976.547 1056.97,976.207 1060.87,976.481 1064.77,976.957 1068.68,977.629 1072.58,977.535 1076.49,979.095 1080.39,977.985 1084.29,979.016 1088.2,979.862 1092.1,980.475 1096.01,981.377 1099.91,981.462 1103.81,980.841 1107.72,980.977 1111.62,980.17 1115.52,980.007 1119.43,980.652 1123.33,981.948 1127.24,982.113 1131.14,981.663 1135.04,981.172 1138.95,980.452 1142.85,980.472 1146.76,981.63 1150.66,980.577 1154.56,978.633 1158.47,979.178 1162.37,978.112 1166.27,979.204 1170.18,980.427 1174.08,980.605 1177.99,980.942 1181.89,982.122 1185.79,980.795 1189.7,979.302 1193.6,980.496 1197.51,980.663 1201.41,979.391 1205.31,979.288 1209.22,976.49 1213.12,976.39 1217.02,976.645 1220.93,975.507 1224.83,975.09 1228.74,975.665 1232.64,976.188 1236.54,973.774 1240.45,974.05 1244.35,975.253 1248.26,976.545 1252.16,975.585 1256.06,976.409 1259.97,977.032 1263.87,975.42 1267.77,975.498 1271.68,975.941 1275.58,976.808 1279.49,976.467 1283.39,975.506 1287.29,975.97 1291.2,976.49 1295.1,977.268 1299.01,977.566 1302.91,979.256 1306.81,978.358 1310.72,977.5 1314.62,978.028 1318.52,978.204 1322.43,978.139 1326.33,979.627 1330.24,979 1334.14,978.336 1338.04,977.889 1341.95,978.048 1345.85,978.768 1349.76,979.058 1353.66,979.581 1357.56,980 1361.47,978.934 1365.37,979.706 1369.27,979.644 1373.18,981.456 1377.08,981.735 1380.99,982.643 1384.89,982.795 1388.79,983.075 1392.7,982.75 1396.6,982.675 1400.51,983.316 1404.41,984.209 1408.31,984.983 1412.22,984.977 1416.12,985.501 1420.02,984.85 1423.93,983.179 1427.83,983.051 1431.74,981.891 1435.64,981.382 1439.54,981.535 1443.45,981.791 1447.35,980.807 1451.26,980.369 1455.16,980.691 1459.06,979.46 1462.97,979.332 1466.87,979.578 1470.77,979.225 1474.68,979.004 1478.58,979.444 1482.49,981.53 1486.39,982.304 1490.29,983.35 1494.2,983.844 1498.1,983.271 1502.01,984.725 1505.91,985.378 1509.81,985.621 1513.72,984.122 1517.62,983.641 1521.53,982.929 1525.43,982.841 1529.33,983.206 1533.24,981.559 1537.14,982.325 1541.04,982.067 1544.95,981.027 1548.85,980.613 1552.76,979.412 "/>
</svg>
