<?xml version="1.0" encoding="utf-8"?>
<svg xmlns="http://www.w3.org/2000/svg" xmlns:xlink="http://www.w3.org/1999/xlink" width="600" height="400" viewBox="0 0 2400 1600">
<defs>
  <clipPath id="clip480">
    <rect x="0" y="0" width="2400" height="1600"/>
  </clipPath>
</defs>
<path clip-path="url(#clip480)" d="M0 1600 L2400 1600 L2400 0 L0 0  Z" fill="#ffffff" fill-rule="evenodd" fill-opacity="1"/>
<defs>
  <clipPath id="clip481">
    <rect x="480" y="0" width="1681" height="1600"/>
  </clipPath>
</defs>
<path clip-path="url(#clip480)" d="M523.425 1486.45 L1976.81 1486.45 L1976.81 47.2441 L523.425 47.2441  Z" fill="#ffffff" fill-rule="evenodd" fill-opacity="1"/>
<defs>
  <clipPath id="clip482">
    <rect x="523" y="47" width="1454" height="1440"/>
  </clipPath>
</defs>
<polyline clip-path="url(#clip480)" style="stroke:#000000; stroke-linecap:round; stroke-linejoin:round; stroke-width:4; stroke-opacity:1; fill:none" points="523.425,1486.45 1976.81,1486.45 "/>
<polyline clip-path="url(#clip480)" style="stroke:#000000; stroke-linecap:round; stroke-linejoin:round; stroke-width:4; stroke-opacity:1; fill:none" points="523.425,47.2441 1976.81,47.2441 "/>
<polyline clip-path="url(#clip480)" style="stroke:#000000; stroke-linecap:round; stroke-linejoin:round; stroke-width:4; stroke-opacity:1; fill:none" points="541.15,1486.45 541.15,1467.55 "/>
<polyline clip-path="url(#clip480)" style="stroke:#000000; stroke-linecap:round; stroke-linejoin:round; stroke-width:4; stroke-opacity:1; fill:none" points="895.633,1486.45 895.633,1467.55 "/>
<polyline clip-path="url(#clip480)" style="stroke:#000000; stroke-linecap:round; stroke-linejoin:round; stroke-width:4; stroke-opacity:1; fill:none" points="1250.12,1486.45 1250.12,1467.55 "/>
<polyline clip-path="url(#clip480)" style="stroke:#000000; stroke-linecap:round; stroke-linejoin:round; stroke-width:4; stroke-opacity:1; fill:none" points="1604.6,1486.45 1604.6,1467.55 "/>
<polyline clip-path="url(#clip480)" style="stroke:#000000; stroke-linecap:round; stroke-linejoin:round; stroke-width:4; stroke-opacity:1; fill:none" points="1959.08,1486.45 1959.08,1467.55 "/>
<path clip-path="url(#clip480)" d="M511.092 1532.02 L540.768 1532.02 L540.768 1535.95 L511.092 1535.95 L511.092 1532.02 Z" fill="#000000" fill-rule="nonzero" fill-opacity="1" /><path clip-path="url(#clip480)" d="M554.888 1544.91 L571.207 1544.91 L571.207 1548.85 L549.263 1548.85 L549.263 1544.91 Q551.925 1542.16 556.508 1537.53 Q561.115 1532.88 562.295 1531.53 Q564.541 1529.01 565.42 1527.27 Q566.323 1525.51 566.323 1523.82 Q566.323 1521.07 564.379 1519.33 Q562.457 1517.6 559.355 1517.6 Q557.156 1517.6 554.703 1518.36 Q552.272 1519.13 549.494 1520.68 L549.494 1515.95 Q552.318 1514.82 554.772 1514.24 Q557.226 1513.66 559.263 1513.66 Q564.633 1513.66 567.828 1516.35 Q571.022 1519.03 571.022 1523.52 Q571.022 1525.65 570.212 1527.57 Q569.425 1529.47 567.318 1532.07 Q566.74 1532.74 563.638 1535.95 Q560.536 1539.15 554.888 1544.91 Z" fill="#000000" fill-rule="nonzero" fill-opacity="1" /><path clip-path="url(#clip480)" d="M865.39 1532.02 L895.066 1532.02 L895.066 1535.95 L865.39 1535.95 L865.39 1532.02 Z" fill="#000000" fill-rule="nonzero" fill-opacity="1" /><path clip-path="url(#clip480)" d="M905.969 1544.91 L913.608 1544.91 L913.608 1518.55 L905.298 1520.21 L905.298 1515.95 L913.561 1514.29 L918.237 1514.29 L918.237 1544.91 L925.876 1544.91 L925.876 1548.85 L905.969 1548.85 L905.969 1544.91 Z" fill="#000000" fill-rule="nonzero" fill-opacity="1" /><path clip-path="url(#clip480)" d="M1250.12 1517.37 Q1246.51 1517.37 1244.68 1520.93 Q1242.87 1524.47 1242.87 1531.6 Q1242.87 1538.71 1244.68 1542.27 Q1246.51 1545.82 1250.12 1545.82 Q1253.75 1545.82 1255.56 1542.27 Q1257.39 1538.71 1257.39 1531.6 Q1257.39 1524.47 1255.56 1520.93 Q1253.75 1517.37 1250.12 1517.37 M1250.12 1513.66 Q1255.93 1513.66 1258.98 1518.27 Q1262.06 1522.85 1262.06 1531.6 Q1262.06 1540.33 1258.98 1544.94 Q1255.93 1549.52 1250.12 1549.52 Q1244.31 1549.52 1241.23 1544.94 Q1238.17 1540.33 1238.17 1531.6 Q1238.17 1522.85 1241.23 1518.27 Q1244.31 1513.66 1250.12 1513.66 Z" fill="#000000" fill-rule="nonzero" fill-opacity="1" /><path clip-path="url(#clip480)" d="M1594.98 1544.91 L1602.62 1544.91 L1602.62 1518.55 L1594.31 1520.21 L1594.31 1515.95 L1602.58 1514.29 L1607.25 1514.29 L1607.25 1544.91 L1614.89 1544.91 L1614.89 1548.85 L1594.98 1548.85 L1594.98 1544.91 Z" fill="#000000" fill-rule="nonzero" fill-opacity="1" /><path clip-path="url(#clip480)" d="M1953.74 1544.91 L1970.06 1544.91 L1970.06 1548.85 L1948.11 1548.85 L1948.11 1544.91 Q1950.77 1542.16 1955.36 1537.53 Q1959.96 1532.88 1961.14 1531.53 Q1963.39 1529.01 1964.27 1527.27 Q1965.17 1525.51 1965.17 1523.82 Q1965.17 1521.07 1963.23 1519.33 Q1961.31 1517.6 1958.2 1517.6 Q1956.01 1517.6 1953.55 1518.36 Q1951.12 1519.13 1948.34 1520.68 L1948.34 1515.95 Q1951.17 1514.82 1953.62 1514.24 Q1956.08 1513.66 1958.11 1513.66 Q1963.48 1513.66 1966.68 1516.35 Q1969.87 1519.03 1969.87 1523.52 Q1969.87 1525.65 1969.06 1527.57 Q1968.27 1529.47 1966.17 1532.07 Q1965.59 1532.74 1962.49 1535.95 Q1959.39 1539.15 1953.74 1544.91 Z" fill="#000000" fill-rule="nonzero" fill-opacity="1" /><polyline clip-path="url(#clip480)" style="stroke:#000000; stroke-linecap:round; stroke-linejoin:round; stroke-width:4; stroke-opacity:1; fill:none" points="523.425,1486.45 523.425,47.2441 "/>
<polyline clip-path="url(#clip480)" style="stroke:#000000; stroke-linecap:round; stroke-linejoin:round; stroke-width:4; stroke-opacity:1; fill:none" points="1976.81,1486.45 1976.81,47.2441 "/>
<polyline clip-path="url(#clip480)" style="stroke:#000000; stroke-linecap:round; stroke-linejoin:round; stroke-width:4; stroke-opacity:1; fill:none" points="523.425,1475.81 535.88,1475.81 "/>
<polyline clip-path="url(#clip480)" style="stroke:#000000; stroke-linecap:round; stroke-linejoin:round; stroke-width:4; stroke-opacity:1; fill:none" points="523.425,1121.33 535.88,1121.33 "/>
<polyline clip-path="url(#clip480)" style="stroke:#000000; stroke-linecap:round; stroke-linejoin:round; stroke-width:4; stroke-opacity:1; fill:none" points="523.425,766.846 535.88,766.846 "/>
<polyline clip-path="url(#clip480)" style="stroke:#000000; stroke-linecap:round; stroke-linejoin:round; stroke-width:4; stroke-opacity:1; fill:none" points="523.425,412.362 535.88,412.362 "/>
<polyline clip-path="url(#clip480)" style="stroke:#000000; stroke-linecap:round; stroke-linejoin:round; stroke-width:4; stroke-opacity:1; fill:none" points="523.425,57.8786 535.88,57.8786 "/>
<path clip-path="url(#clip480)" d="M427.31 1476.26 L456.986 1476.26 L456.986 1480.2 L427.31 1480.2 L427.31 1476.26 Z" fill="#000000" fill-rule="nonzero" fill-opacity="1" /><path clip-path="url(#clip480)" d="M471.106 1489.16 L487.425 1489.16 L487.425 1493.09 L465.481 1493.09 L465.481 1489.16 Q468.143 1486.4 472.726 1481.77 Q477.333 1477.12 478.513 1475.78 Q480.759 1473.26 481.638 1471.52 Q482.541 1469.76 482.541 1468.07 Q482.541 1465.32 480.597 1463.58 Q478.675 1461.84 475.574 1461.84 Q473.374 1461.84 470.921 1462.61 Q468.49 1463.37 465.712 1464.92 L465.712 1460.2 Q468.537 1459.07 470.99 1458.49 Q473.444 1457.91 475.481 1457.91 Q480.851 1457.91 484.046 1460.59 Q487.24 1463.28 487.24 1467.77 Q487.24 1469.9 486.43 1471.82 Q485.643 1473.72 483.536 1476.31 Q482.958 1476.98 479.856 1480.2 Q476.754 1483.39 471.106 1489.16 Z" fill="#000000" fill-rule="nonzero" fill-opacity="1" /><path clip-path="url(#clip480)" d="M426.94 1121.78 L456.615 1121.78 L456.615 1125.72 L426.94 1125.72 L426.94 1121.78 Z" fill="#000000" fill-rule="nonzero" fill-opacity="1" /><path clip-path="url(#clip480)" d="M467.518 1134.67 L475.157 1134.67 L475.157 1108.31 L466.847 1109.98 L466.847 1105.72 L475.111 1104.05 L479.786 1104.05 L479.786 1134.67 L487.425 1134.67 L487.425 1138.61 L467.518 1138.61 L467.518 1134.67 Z" fill="#000000" fill-rule="nonzero" fill-opacity="1" /><path clip-path="url(#clip480)" d="M475.481 752.645 Q471.87 752.645 470.041 756.209 Q468.236 759.751 468.236 766.881 Q468.236 773.987 470.041 777.552 Q471.87 781.094 475.481 781.094 Q479.115 781.094 480.921 777.552 Q482.749 773.987 482.749 766.881 Q482.749 759.751 480.921 756.209 Q479.115 752.645 475.481 752.645 M475.481 748.941 Q481.291 748.941 484.347 753.547 Q487.425 758.131 487.425 766.881 Q487.425 775.608 484.347 780.214 Q481.291 784.797 475.481 784.797 Q469.671 784.797 466.592 780.214 Q463.537 775.608 463.537 766.881 Q463.537 758.131 466.592 753.547 Q469.671 748.941 475.481 748.941 Z" fill="#000000" fill-rule="nonzero" fill-opacity="1" /><path clip-path="url(#clip480)" d="M467.518 425.707 L475.157 425.707 L475.157 399.342 L466.847 401.008 L466.847 396.749 L475.111 395.082 L479.786 395.082 L479.786 425.707 L487.425 425.707 L487.425 429.642 L467.518 429.642 L467.518 425.707 Z" fill="#000000" fill-rule="nonzero" fill-opacity="1" /><path clip-path="url(#clip480)" d="M471.106 71.2234 L487.425 71.2234 L487.425 75.1586 L465.481 75.1586 L465.481 71.2234 Q468.143 68.4688 472.726 63.8392 Q477.333 59.1865 478.513 57.8439 Q480.759 55.3207 481.638 53.5846 Q482.541 51.8254 482.541 50.1356 Q482.541 47.381 480.597 45.6449 Q478.675 43.9088 475.574 43.9088 Q473.374 43.9088 470.921 44.6727 Q468.49 45.4365 465.712 46.9875 L465.712 42.2653 Q468.537 41.131 470.99 40.5523 Q473.444 39.9736 475.481 39.9736 Q480.851 39.9736 484.046 42.6588 Q487.24 45.344 487.24 49.8347 Q487.24 51.9643 486.43 53.8856 Q485.643 55.7837 483.536 58.3763 Q482.958 59.0476 479.856 62.2652 Q476.754 65.4596 471.106 71.2234 Z" fill="#000000" fill-rule="nonzero" fill-opacity="1" /><polyline clip-path="url(#clip482)" style="stroke:#0b0726; stroke-linecap:round; stroke-linejoin:round; stroke-width:4; stroke-opacity:1; fill:none" points="1090.6,823.077 1083.51,824.842 1076.42,825.624 1069.33,825.624 1062.24,824.842 1055.15,823.077 1048.38,820.019 1048.06,819.905 1040.97,816.3 1036.59,812.929 1033.88,810.77 1028.95,805.839 1026.79,803.135 1023.42,798.75 1019.82,791.66 1019.7,791.346 1016.64,784.57 1014.88,777.48 1014.1,770.391 1014.1,763.301 1014.88,756.211 1016.64,749.122 1019.7,742.346 1019.82,742.032 1023.42,734.942 1026.79,730.557 1028.95,727.853 1033.88,722.922 1036.59,720.763 1040.97,717.392 1048.06,713.787 1048.38,713.673 1055.15,710.615 1062.24,708.85 1069.33,708.068 1076.42,708.068 1083.51,708.85 1090.6,710.615 1097.37,713.673 1097.69,713.787 1104.78,717.392 1109.16,720.763 1111.87,722.922 1116.8,727.853 1118.96,730.557 1122.33,734.942 1125.93,742.032 1126.05,742.346 1129.11,749.122 1130.87,756.211 1131.65,763.301 1131.65,770.391 1130.87,777.48 1129.11,784.57 1126.05,791.346 1125.93,791.66 1122.33,798.75 1118.96,803.135 1116.8,805.839 1111.87,810.77 1109.16,812.929 1104.78,816.3 1097.69,819.905 1097.37,820.019 1090.6,823.077 "/>
<polyline clip-path="url(#clip482)" style="stroke:#240b4e; stroke-linecap:round; stroke-linejoin:round; stroke-width:4; stroke-opacity:1; fill:none" points="1090.6,814.426 1083.51,816.649 1076.42,817.634 1069.33,817.634 1062.24,816.649 1055.15,814.426 1052.14,812.929 1048.06,811.132 1040.97,806.114 1040.65,805.839 1033.88,799.068 1033.61,798.75 1028.59,791.66 1026.79,787.578 1025.3,784.57 1023.07,777.48 1022.09,770.391 1022.09,763.301 1023.07,756.211 1025.3,749.122 1026.79,746.113 1028.59,742.032 1033.61,734.942 1033.88,734.624 1040.65,727.853 1040.97,727.578 1048.06,722.56 1052.14,720.763 1055.15,719.266 1062.24,717.043 1069.33,716.058 1076.42,716.058 1083.51,717.043 1090.6,719.266 1093.61,720.763 1097.69,722.56 1104.78,727.578 1105.1,727.853 1111.87,734.624 1112.14,734.942 1117.16,742.032 1118.96,746.113 1120.45,749.122 1122.68,756.211 1123.66,763.301 1123.66,770.391 1122.68,777.48 1120.45,784.57 1118.96,787.578 1117.16,791.66 1112.14,798.75 1111.87,799.068 1105.1,805.839 1104.78,806.114 1097.69,811.132 1093.61,812.929 1090.6,814.426 "/>
<polyline clip-path="url(#clip482)" style="stroke:#410967; stroke-linecap:round; stroke-linejoin:round; stroke-width:4; stroke-opacity:1; fill:none" points="1090.6,808.738 1083.51,811.059 1076.42,812.088 1069.33,812.088 1062.24,811.059 1055.15,808.738 1049.97,805.839 1048.06,804.785 1040.97,798.952 1040.77,798.75 1034.94,791.66 1033.88,789.749 1030.98,784.57 1028.66,777.48 1027.63,770.391 1027.63,763.301 1028.66,756.211 1030.98,749.122 1033.88,743.943 1034.94,742.032 1040.77,734.942 1040.97,734.74 1048.06,728.907 1049.97,727.853 1055.15,724.954 1062.24,722.633 1069.33,721.604 1076.42,721.604 1083.51,722.633 1090.6,724.954 1095.78,727.853 1097.69,728.907 1104.78,734.74 1104.98,734.942 1110.81,742.032 1111.87,743.943 1114.77,749.122 1117.09,756.211 1118.12,763.301 1118.12,770.391 1117.09,777.48 1114.77,784.57 1111.87,789.749 1110.81,791.66 1104.98,798.75 1104.78,798.952 1097.69,804.785 1095.78,805.839 1090.6,808.738 "/>
<polyline clip-path="url(#clip482)" style="stroke:#5d126e; stroke-linecap:round; stroke-linejoin:round; stroke-width:4; stroke-opacity:1; fill:none" points="1097.69,799.629 1090.6,804.03 1085.47,805.839 1083.51,806.6 1076.42,807.971 1069.33,807.971 1062.24,806.6 1060.28,805.839 1055.15,804.03 1048.06,799.629 1047,798.75 1040.97,792.719 1040.09,791.66 1035.69,784.57 1033.88,779.441 1033.12,777.48 1031.75,770.391 1031.75,763.301 1033.12,756.211 1033.88,754.251 1035.69,749.122 1040.09,742.032 1040.97,740.973 1047,734.942 1048.06,734.063 1055.15,729.662 1060.28,727.853 1062.24,727.092 1069.33,725.721 1076.42,725.721 1083.51,727.092 1085.47,727.853 1090.6,729.662 1097.69,734.063 1098.75,734.942 1104.78,740.973 1105.66,742.032 1110.06,749.122 1111.87,754.251 1112.63,756.211 1114,763.301 1114,770.391 1112.63,777.48 1111.87,779.441 1110.06,784.57 1105.66,791.66 1104.78,792.719 1098.75,798.75 1097.69,799.629 "/>
<polyline clip-path="url(#clip482)" style="stroke:#781c6d; stroke-linecap:round; stroke-linejoin:round; stroke-width:4; stroke-opacity:1; fill:none" points="1097.69,795.011 1092.49,798.75 1090.6,799.974 1083.51,802.972 1076.42,804.301 1069.33,804.301 1062.24,802.972 1055.15,799.974 1053.26,798.75 1048.06,795.011 1044.71,791.66 1040.97,786.462 1039.75,784.57 1036.75,777.48 1035.42,770.391 1035.42,763.301 1036.75,756.211 1039.75,749.122 1040.97,747.23 1044.71,742.032 1048.06,738.681 1053.26,734.942 1055.15,733.718 1062.24,730.72 1069.33,729.391 1076.42,729.391 1083.51,730.72 1090.6,733.718 1092.49,734.942 1097.69,738.681 1101.04,742.032 1104.78,747.23 1106,749.122 1109,756.211 1110.33,763.301 1110.33,770.391 1109,777.48 1106,784.57 1104.78,786.462 1101.04,791.66 1097.69,795.011 "/>
<polyline clip-path="url(#clip482)" style="stroke:#932567; stroke-linecap:round; stroke-linejoin:round; stroke-width:4; stroke-opacity:1; fill:none" points="1097.69,790.492 1096.52,791.66 1090.6,796.274 1085.22,798.75 1083.51,799.516 1076.42,801.11 1069.33,801.11 1062.24,799.516 1060.53,798.75 1055.15,796.274 1049.23,791.66 1048.06,790.492 1043.45,784.57 1040.97,779.189 1040.21,777.48 1038.61,770.391 1038.61,763.301 1040.21,756.211 1040.97,754.503 1043.45,749.122 1048.06,743.2 1049.23,742.032 1055.15,737.418 1060.53,734.942 1062.24,734.176 1069.33,732.582 1076.42,732.582 1083.51,734.176 1085.22,734.942 1090.6,737.418 1096.52,742.032 1097.69,743.2 1102.3,749.122 1104.78,754.503 1105.55,756.211 1107.14,763.301 1107.14,770.391 1105.55,777.48 1104.78,779.189 1102.3,784.57 1097.69,790.492 "/>
<polyline clip-path="url(#clip482)" style="stroke:#ae305b; stroke-linecap:round; stroke-linejoin:round; stroke-width:4; stroke-opacity:1; fill:none" points="1097.69,785.941 1091.97,791.66 1090.6,792.728 1083.51,796.398 1076.42,798.024 1069.33,798.024 1062.24,796.398 1055.15,792.728 1053.78,791.66 1048.06,785.941 1046.99,784.57 1043.32,777.48 1041.7,770.391 1041.7,763.301 1043.32,756.211 1046.99,749.122 1048.06,747.751 1053.78,742.032 1055.15,740.964 1062.24,737.294 1069.33,735.668 1076.42,735.668 1083.51,737.294 1090.6,740.964 1091.97,742.032 1097.69,747.751 1098.76,749.122 1102.43,756.211 1104.05,763.301 1104.05,770.391 1102.43,777.48 1098.76,784.57 1097.69,785.941 "/>
<polyline clip-path="url(#clip482)" style="stroke:#c73e4c; stroke-linecap:round; stroke-linejoin:round; stroke-width:4; stroke-opacity:1; fill:none" points="1097.69,780.66 1095.19,784.57 1090.6,789.159 1086.69,791.66 1083.51,793.376 1076.42,795.235 1069.33,795.235 1062.24,793.376 1059.06,791.66 1055.15,789.159 1050.56,784.57 1048.06,780.66 1046.34,777.48 1044.49,770.391 1044.49,763.301 1046.34,756.211 1048.06,753.032 1050.56,749.122 1055.15,744.533 1059.06,742.032 1062.24,740.315 1069.33,738.457 1076.42,738.457 1083.51,740.315 1086.69,742.032 1090.6,744.533 1095.19,749.122 1097.69,753.032 1099.41,756.211 1101.26,763.301 1101.26,770.391 1099.41,777.48 1097.69,780.66 "/>
<polyline clip-path="url(#clip482)" style="stroke:#dc5039; stroke-linecap:round; stroke-linejoin:round; stroke-width:4; stroke-opacity:1; fill:none" points="1097.69,773.19 1096.37,777.48 1091.61,784.57 1090.6,785.579 1083.51,790.342 1079.22,791.66 1076.42,792.446 1069.33,792.446 1066.53,791.66 1062.24,790.342 1055.15,785.579 1054.14,784.57 1049.38,777.48 1048.06,773.19 1047.28,770.391 1047.28,763.301 1048.06,760.502 1049.38,756.211 1054.14,749.122 1055.15,748.113 1062.24,743.35 1066.53,742.032 1069.33,741.246 1076.42,741.246 1079.22,742.032 1083.51,743.35 1090.6,748.113 1091.61,749.122 1096.37,756.211 1097.69,760.502 1098.47,763.301 1098.47,770.391 1097.69,773.19 "/>
<polyline clip-path="url(#clip482)" style="stroke:#ed6825; stroke-linecap:round; stroke-linejoin:round; stroke-width:4; stroke-opacity:1; fill:none" points="1095.67,770.391 1093.32,777.48 1090.6,781.408 1087.44,784.57 1083.51,787.292 1076.42,789.637 1069.33,789.637 1062.24,787.292 1058.31,784.57 1055.15,781.408 1052.43,777.48 1050.08,770.391 1050.08,763.301 1052.43,756.211 1055.15,752.284 1058.31,749.122 1062.24,746.4 1069.33,744.055 1076.42,744.055 1083.51,746.4 1087.44,749.122 1090.6,752.284 1093.32,756.211 1095.67,763.301 1095.67,770.391 "/>
<polyline clip-path="url(#clip482)" style="stroke:#f7850e; stroke-linecap:round; stroke-linejoin:round; stroke-width:4; stroke-opacity:1; fill:none" points="1092.85,770.391 1090.6,776.638 1090.19,777.48 1083.51,784.166 1082.67,784.57 1076.42,786.821 1069.33,786.821 1063.08,784.57 1062.24,784.166 1055.56,777.48 1055.15,776.638 1052.9,770.391 1052.9,763.301 1055.15,757.054 1055.56,756.211 1062.24,749.526 1063.08,749.122 1069.33,746.871 1076.42,746.871 1082.67,749.122 1083.51,749.526 1090.19,756.211 1090.6,757.054 1092.85,763.301 1092.85,770.391 "/>
<polyline clip-path="url(#clip482)" style="stroke:#fba40a; stroke-linecap:round; stroke-linejoin:round; stroke-width:4; stroke-opacity:1; fill:none" points="1089.9,763.301 1089.9,770.391 1086.44,777.48 1083.51,780.415 1076.42,783.876 1069.33,783.876 1062.24,780.415 1059.31,777.48 1055.85,770.391 1055.85,763.301 1059.31,756.211 1062.24,753.277 1069.33,749.816 1076.42,749.816 1083.51,753.277 1086.44,756.211 1089.9,763.301 "/>
<polyline clip-path="url(#clip482)" style="stroke:#f9c52c; stroke-linecap:round; stroke-linejoin:round; stroke-width:4; stroke-opacity:1; fill:none" points="1086.44,763.301 1086.44,770.391 1083.51,776.03 1082.06,777.48 1076.42,780.413 1069.33,780.413 1063.69,777.48 1062.24,776.03 1059.31,770.391 1059.31,763.301 1062.24,757.662 1063.69,756.211 1069.33,753.279 1076.42,753.279 1082.06,756.211 1083.51,757.662 1086.44,763.301 "/>
<polyline clip-path="url(#clip482)" style="stroke:#f2e660; stroke-linecap:round; stroke-linejoin:round; stroke-width:4; stroke-opacity:1; fill:none" points="1082.57,763.301 1082.57,770.391 1076.42,776.538 1069.33,776.538 1063.18,770.391 1063.18,763.301 1069.33,757.154 1076.42,757.154 1082.57,763.301 "/>
<polyline clip-path="url(#clip482)" style="stroke:#0b0726; stroke-linecap:round; stroke-linejoin:round; stroke-width:4; stroke-opacity:1; fill:none" points="1371.13,784.57 1374.19,791.346 1374.3,791.66 1377.9,798.75 1381.28,803.135 1383.43,805.839 1388.37,810.77 1391.07,812.929 1395.46,816.3 1402.54,819.905 1402.86,820.019 1409.63,823.077 1416.72,824.842 1423.81,825.624 1430.9,825.624 1437.99,824.842 1445.08,823.077 1451.86,820.019 1452.17,819.905 1459.26,816.3 1463.65,812.929 1466.35,810.77 1471.28,805.839 1473.44,803.135 1476.81,798.75 1480.42,791.66 1480.53,791.346 1483.59,784.57 1485.35,777.48 1486.14,770.391 1486.14,763.301 1485.35,756.211 1483.59,749.122 1480.53,742.346 1480.42,742.032 1476.81,734.942 1473.44,730.557 1471.28,727.853 1466.35,722.922 1463.65,720.763 1459.26,717.392 1452.17,713.787 1451.86,713.673 1445.08,710.615 1437.99,708.85 1430.9,708.068 1423.81,708.068 1416.72,708.85 1409.63,710.615 1402.86,713.673 1402.54,713.787 1395.46,717.392 1391.07,720.763 1388.37,722.922 1383.43,727.853 1381.28,730.557 1377.9,734.942 1374.3,742.032 1374.19,742.346 1371.13,749.122 1369.36,756.211 1368.58,763.301 1368.58,770.391 1369.36,777.48 1371.13,784.57 "/>
<polyline clip-path="url(#clip482)" style="stroke:#240b4e; stroke-linecap:round; stroke-linejoin:round; stroke-width:4; stroke-opacity:1; fill:none" points="1379.78,784.57 1381.28,787.578 1383.07,791.66 1388.09,798.75 1388.37,799.068 1395.14,805.839 1395.46,806.114 1402.54,811.132 1406.63,812.929 1409.63,814.426 1416.72,816.649 1423.81,817.634 1430.9,817.634 1437.99,816.649 1445.08,814.426 1448.09,812.929 1452.17,811.132 1459.26,806.114 1459.58,805.839 1466.35,799.068 1466.63,798.75 1471.64,791.66 1473.44,787.578 1474.94,784.57 1477.16,777.48 1478.15,770.391 1478.15,763.301 1477.16,756.211 1474.94,749.122 1473.44,746.113 1471.64,742.032 1466.63,734.942 1466.35,734.624 1459.58,727.853 1459.26,727.578 1452.17,722.56 1448.09,720.763 1445.08,719.266 1437.99,717.043 1430.9,716.058 1423.81,716.058 1416.72,717.043 1409.63,719.266 1406.63,720.763 1402.54,722.56 1395.46,727.578 1395.14,727.853 1388.37,734.624 1388.09,734.942 1383.07,742.032 1381.28,746.113 1379.78,749.122 1377.56,756.211 1376.57,763.301 1376.57,770.391 1377.56,777.48 1379.78,784.57 "/>
<polyline clip-path="url(#clip482)" style="stroke:#410967; stroke-linecap:round; stroke-linejoin:round; stroke-width:4; stroke-opacity:1; fill:none" points="1385.47,784.57 1388.37,789.749 1389.42,791.66 1395.25,798.75 1395.46,798.952 1402.54,804.785 1404.46,805.839 1409.63,808.738 1416.72,811.059 1423.81,812.088 1430.9,812.088 1437.99,811.059 1445.08,808.738 1450.26,805.839 1452.17,804.785 1459.26,798.952 1459.46,798.75 1465.3,791.66 1466.35,789.749 1469.25,784.57 1471.57,777.48 1472.6,770.391 1472.6,763.301 1471.57,756.211 1469.25,749.122 1466.35,743.943 1465.3,742.032 1459.46,734.942 1459.26,734.74 1452.17,728.907 1450.26,727.853 1445.08,724.954 1437.99,722.633 1430.9,721.604 1423.81,721.604 1416.72,722.633 1409.63,724.954 1404.46,727.853 1402.54,728.907 1395.46,734.74 1395.25,734.942 1389.42,742.032 1388.37,743.943 1385.47,749.122 1383.15,756.211 1382.12,763.301 1382.12,770.391 1383.15,777.48 1385.47,784.57 "/>
<polyline clip-path="url(#clip482)" style="stroke:#5d126e; stroke-linecap:round; stroke-linejoin:round; stroke-width:4; stroke-opacity:1; fill:none" points="1390.17,784.57 1394.58,791.66 1395.46,792.719 1401.49,798.75 1402.54,799.629 1409.63,804.03 1414.76,805.839 1416.72,806.6 1423.81,807.971 1430.9,807.971 1437.99,806.6 1439.95,805.839 1445.08,804.03 1452.17,799.629 1453.23,798.75 1459.26,792.719 1460.14,791.66 1464.54,784.57 1466.35,779.441 1467.11,777.48 1468.48,770.391 1468.48,763.301 1467.11,756.211 1466.35,754.251 1464.54,749.122 1460.14,742.032 1459.26,740.973 1453.23,734.942 1452.17,734.063 1445.08,729.662 1439.95,727.853 1437.99,727.092 1430.9,725.721 1423.81,725.721 1416.72,727.092 1414.76,727.853 1409.63,729.662 1402.54,734.063 1401.49,734.942 1395.46,740.973 1394.58,742.032 1390.17,749.122 1388.37,754.251 1387.6,756.211 1386.23,763.301 1386.23,770.391 1387.6,777.48 1388.37,779.441 1390.17,784.57 "/>
<polyline clip-path="url(#clip482)" style="stroke:#781c6d; stroke-linecap:round; stroke-linejoin:round; stroke-width:4; stroke-opacity:1; fill:none" points="1394.23,784.57 1395.46,786.462 1399.19,791.66 1402.54,795.011 1407.74,798.75 1409.63,799.974 1416.72,802.972 1423.81,804.301 1430.9,804.301 1437.99,802.972 1445.08,799.974 1446.97,798.75 1452.17,795.011 1455.52,791.66 1459.26,786.462 1460.49,784.57 1463.49,777.48 1464.81,770.391 1464.81,763.301 1463.49,756.211 1460.49,749.122 1459.26,747.23 1455.52,742.032 1452.17,738.681 1446.97,734.942 1445.08,733.718 1437.99,730.72 1430.9,729.391 1423.81,729.391 1416.72,730.72 1409.63,733.718 1407.74,734.942 1402.54,738.681 1399.19,742.032 1395.46,747.23 1394.23,749.122 1391.23,756.211 1389.9,763.301 1389.9,770.391 1391.23,777.48 1394.23,784.57 "/>
<polyline clip-path="url(#clip482)" style="stroke:#932567; stroke-linecap:round; stroke-linejoin:round; stroke-width:4; stroke-opacity:1; fill:none" points="1397.93,784.57 1402.54,790.492 1403.71,791.66 1409.63,796.274 1415.02,798.75 1416.72,799.516 1423.81,801.11 1430.9,801.11 1437.99,799.516 1439.7,798.75 1445.08,796.274 1451,791.66 1452.17,790.492 1456.79,784.57 1459.26,779.189 1460.03,777.48 1461.62,770.391 1461.62,763.301 1460.03,756.211 1459.26,754.503 1456.79,749.122 1452.17,743.2 1451,742.032 1445.08,737.418 1439.7,734.942 1437.99,734.176 1430.9,732.582 1423.81,732.582 1416.72,734.176 1415.02,734.942 1409.63,737.418 1403.71,742.032 1402.54,743.2 1397.93,749.122 1395.46,754.503 1394.69,756.211 1393.09,763.301 1393.09,770.391 1394.69,777.48 1395.46,779.189 1397.93,784.57 "/>
<polyline clip-path="url(#clip482)" style="stroke:#ae305b; stroke-linecap:round; stroke-linejoin:round; stroke-width:4; stroke-opacity:1; fill:none" points="1401.48,784.57 1402.54,785.941 1408.26,791.66 1409.63,792.728 1416.72,796.398 1423.81,798.024 1430.9,798.024 1437.99,796.398 1445.08,792.728 1446.45,791.66 1452.17,785.941 1453.24,784.57 1456.91,777.48 1458.54,770.391 1458.54,763.301 1456.91,756.211 1453.24,749.122 1452.17,747.751 1446.45,742.032 1445.08,740.964 1437.99,737.294 1430.9,735.668 1423.81,735.668 1416.72,737.294 1409.63,740.964 1408.26,742.032 1402.54,747.751 1401.48,749.122 1397.81,756.211 1396.18,763.301 1396.18,770.391 1397.81,777.48 1401.48,784.57 "/>
<polyline clip-path="url(#clip482)" style="stroke:#c73e4c; stroke-linecap:round; stroke-linejoin:round; stroke-width:4; stroke-opacity:1; fill:none" points="1405.05,784.57 1409.63,789.159 1413.54,791.66 1416.72,793.376 1423.81,795.235 1430.9,795.235 1437.99,793.376 1441.17,791.66 1445.08,789.159 1449.67,784.57 1452.17,780.66 1453.89,777.48 1455.75,770.391 1455.75,763.301 1453.89,756.211 1452.17,753.032 1449.67,749.122 1445.08,744.533 1441.17,742.032 1437.99,740.315 1430.9,738.457 1423.81,738.457 1416.72,740.315 1413.54,742.032 1409.63,744.533 1405.05,749.122 1402.54,753.032 1400.83,756.211 1398.97,763.301 1398.97,770.391 1400.83,777.48 1402.54,780.66 1405.05,784.57 "/>
<polyline clip-path="url(#clip482)" style="stroke:#dc5039; stroke-linecap:round; stroke-linejoin:round; stroke-width:4; stroke-opacity:1; fill:none" points="1408.63,784.57 1409.63,785.579 1416.72,790.342 1421.01,791.66 1423.81,792.446 1430.9,792.446 1433.7,791.66 1437.99,790.342 1445.08,785.579 1446.09,784.57 1450.86,777.48 1452.17,773.19 1452.96,770.391 1452.96,763.301 1452.17,760.502 1450.86,756.211 1446.09,749.122 1445.08,748.113 1437.99,743.35 1433.7,742.032 1430.9,741.246 1423.81,741.246 1421.01,742.032 1416.72,743.35 1409.63,748.113 1408.63,749.122 1403.86,756.211 1402.54,760.502 1401.76,763.301 1401.76,770.391 1402.54,773.19 1403.86,777.48 1408.63,784.57 "/>
<polyline clip-path="url(#clip482)" style="stroke:#ed6825; stroke-linecap:round; stroke-linejoin:round; stroke-width:4; stroke-opacity:1; fill:none" points="1412.8,784.57 1416.72,787.292 1423.81,789.637 1430.9,789.637 1437.99,787.292 1441.92,784.57 1445.08,781.408 1447.8,777.48 1450.15,770.391 1450.15,763.301 1447.8,756.211 1445.08,752.284 1441.92,749.122 1437.99,746.4 1430.9,744.055 1423.81,744.055 1416.72,746.4 1412.8,749.122 1409.63,752.284 1406.91,756.211 1404.57,763.301 1404.57,770.391 1406.91,777.48 1409.63,781.408 1412.8,784.57 "/>
<polyline clip-path="url(#clip482)" style="stroke:#f7850e; stroke-linecap:round; stroke-linejoin:round; stroke-width:4; stroke-opacity:1; fill:none" points="1417.57,784.57 1423.81,786.821 1430.9,786.821 1437.15,784.57 1437.99,784.166 1444.68,777.48 1445.08,776.638 1447.33,770.391 1447.33,763.301 1445.08,757.054 1444.68,756.211 1437.99,749.526 1437.15,749.122 1430.9,746.871 1423.81,746.871 1417.57,749.122 1416.72,749.526 1410.04,756.211 1409.63,757.054 1407.38,763.301 1407.38,770.391 1409.63,776.638 1410.04,777.48 1416.72,784.166 1417.57,784.57 "/>
<polyline clip-path="url(#clip482)" style="stroke:#fba40a; stroke-linecap:round; stroke-linejoin:round; stroke-width:4; stroke-opacity:1; fill:none" points="1416.72,780.415 1413.79,777.48 1410.33,770.391 1410.33,763.301 1413.79,756.211 1416.72,753.277 1423.81,749.816 1430.9,749.816 1437.99,753.277 1440.93,756.211 1444.39,763.301 1444.39,770.391 1440.93,777.48 1437.99,780.415 1430.9,783.876 1423.81,783.876 1416.72,780.415 "/>
<polyline clip-path="url(#clip482)" style="stroke:#f9c52c; stroke-linecap:round; stroke-linejoin:round; stroke-width:4; stroke-opacity:1; fill:none" points="1423.81,780.413 1418.17,777.48 1416.72,776.03 1413.79,770.391 1413.79,763.301 1416.72,757.662 1418.17,756.211 1423.81,753.279 1430.9,753.279 1436.54,756.211 1437.99,757.662 1440.93,763.301 1440.93,770.391 1437.99,776.03 1436.54,777.48 1430.9,780.413 1423.81,780.413 "/>
<polyline clip-path="url(#clip482)" style="stroke:#f2e660; stroke-linecap:round; stroke-linejoin:round; stroke-width:4; stroke-opacity:1; fill:none" points="1430.9,776.538 1423.81,776.538 1417.67,770.391 1417.67,763.301 1423.81,757.154 1430.9,757.154 1437.05,763.301 1437.05,770.391 1430.9,776.538 "/>
</svg>
