<?xml version="1.0" encoding="utf-8"?>
<svg xmlns="http://www.w3.org/2000/svg" xmlns:xlink="http://www.w3.org/1999/xlink" width="600" height="400" viewBox="0 0 2400 1600">
<defs>
  <clipPath id="clip420">
    <rect x="0" y="0" width="2400" height="1600"/>
  </clipPath>
</defs>
<path clip-path="url(#clip420)" d="M0 1600 L2400 1600 L2400 0 L0 0  Z" fill="#ffffff" fill-rule="evenodd" fill-opacity="1"/>
<defs>
  <clipPath id="clip421">
    <rect x="480" y="0" width="1681" height="1600"/>
  </clipPath>
</defs>
<path clip-path="url(#clip420)" d="M112.177 1486.45 L2352.76 1486.45 L2352.76 123.472 L112.177 123.472  Z" fill="#ffffff" fill-rule="evenodd" fill-opacity="1"/>
<defs>
  <clipPath id="clip422">
    <rect x="112" y="123" width="2242" height="1364"/>
  </clipPath>
</defs>
<polyline clip-path="url(#clip422)" style="stroke:#000000; stroke-linecap:round; stroke-linejoin:round; stroke-width:2; stroke-opacity:0.1; fill:none" points="165.476,1486.45 165.476,123.472 "/>
<polyline clip-path="url(#clip422)" style="stroke:#000000; stroke-linecap:round; stroke-linejoin:round; stroke-width:2; stroke-opacity:0.1; fill:none" points="671.159,1486.45 671.159,123.472 "/>
<polyline clip-path="url(#clip422)" style="stroke:#000000; stroke-linecap:round; stroke-linejoin:round; stroke-width:2; stroke-opacity:0.1; fill:none" points="1176.84,1486.45 1176.84,123.472 "/>
<polyline clip-path="url(#clip422)" style="stroke:#000000; stroke-linecap:round; stroke-linejoin:round; stroke-width:2; stroke-opacity:0.1; fill:none" points="1682.52,1486.45 1682.52,123.472 "/>
<polyline clip-path="url(#clip422)" style="stroke:#000000; stroke-linecap:round; stroke-linejoin:round; stroke-width:2; stroke-opacity:0.1; fill:none" points="2188.21,1486.45 2188.21,123.472 "/>
<polyline clip-path="url(#clip420)" style="stroke:#000000; stroke-linecap:round; stroke-linejoin:round; stroke-width:4; stroke-opacity:1; fill:none" points="112.177,1486.45 2352.76,1486.45 "/>
<polyline clip-path="url(#clip420)" style="stroke:#000000; stroke-linecap:round; stroke-linejoin:round; stroke-width:4; stroke-opacity:1; fill:none" points="165.476,1486.45 165.476,1467.55 "/>
<polyline clip-path="url(#clip420)" style="stroke:#000000; stroke-linecap:round; stroke-linejoin:round; stroke-width:4; stroke-opacity:1; fill:none" points="671.159,1486.45 671.159,1467.55 "/>
<polyline clip-path="url(#clip420)" style="stroke:#000000; stroke-linecap:round; stroke-linejoin:round; stroke-width:4; stroke-opacity:1; fill:none" points="1176.84,1486.45 1176.84,1467.55 "/>
<polyline clip-path="url(#clip420)" style="stroke:#000000; stroke-linecap:round; stroke-linejoin:round; stroke-width:4; stroke-opacity:1; fill:none" points="1682.52,1486.45 1682.52,1467.55 "/>
<polyline clip-path="url(#clip420)" style="stroke:#000000; stroke-linecap:round; stroke-linejoin:round; stroke-width:4; stroke-opacity:1; fill:none" points="2188.21,1486.45 2188.21,1467.55 "/>
<path clip-path="url(#clip420)" d="M165.476 1517.37 Q161.865 1517.37 160.036 1520.93 Q158.231 1524.47 158.231 1531.6 Q158.231 1538.71 160.036 1542.27 Q161.865 1545.82 165.476 1545.82 Q169.11 1545.82 170.916 1542.27 Q172.745 1538.71 172.745 1531.6 Q172.745 1524.47 170.916 1520.93 Q169.11 1517.37 165.476 1517.37 M165.476 1513.66 Q171.286 1513.66 174.342 1518.27 Q177.421 1522.85 177.421 1531.6 Q177.421 1540.33 174.342 1544.94 Q171.286 1549.52 165.476 1549.52 Q159.666 1549.52 156.587 1544.94 Q153.532 1540.33 153.532 1531.6 Q153.532 1522.85 156.587 1518.27 Q159.666 1513.66 165.476 1513.66 Z" fill="#000000" fill-rule="nonzero" fill-opacity="1" /><path clip-path="url(#clip420)" d="M645.858 1514.29 L664.214 1514.29 L664.214 1518.22 L650.14 1518.22 L650.14 1526.7 Q651.159 1526.35 652.177 1526.19 Q653.196 1526 654.214 1526 Q660.001 1526 663.381 1529.17 Q666.761 1532.34 666.761 1537.76 Q666.761 1543.34 663.288 1546.44 Q659.816 1549.52 653.497 1549.52 Q651.321 1549.52 649.052 1549.15 Q646.807 1548.78 644.4 1548.04 L644.4 1543.34 Q646.483 1544.47 648.705 1545.03 Q650.927 1545.58 653.404 1545.58 Q657.409 1545.58 659.747 1543.48 Q662.085 1541.37 662.085 1537.76 Q662.085 1534.15 659.747 1532.04 Q657.409 1529.94 653.404 1529.94 Q651.529 1529.94 649.654 1530.35 Q647.802 1530.77 645.858 1531.65 L645.858 1514.29 Z" fill="#000000" fill-rule="nonzero" fill-opacity="1" /><path clip-path="url(#clip420)" d="M685.974 1517.37 Q682.362 1517.37 680.534 1520.93 Q678.728 1524.47 678.728 1531.6 Q678.728 1538.71 680.534 1542.27 Q682.362 1545.82 685.974 1545.82 Q689.608 1545.82 691.413 1542.27 Q693.242 1538.71 693.242 1531.6 Q693.242 1524.47 691.413 1520.93 Q689.608 1517.37 685.974 1517.37 M685.974 1513.66 Q691.784 1513.66 694.839 1518.27 Q697.918 1522.85 697.918 1531.6 Q697.918 1540.33 694.839 1544.94 Q691.784 1549.52 685.974 1549.52 Q680.163 1549.52 677.085 1544.94 Q674.029 1540.33 674.029 1531.6 Q674.029 1522.85 677.085 1518.27 Q680.163 1513.66 685.974 1513.66 Z" fill="#000000" fill-rule="nonzero" fill-opacity="1" /><path clip-path="url(#clip420)" d="M1136.45 1544.91 L1144.09 1544.91 L1144.09 1518.55 L1135.78 1520.21 L1135.78 1515.95 L1144.04 1514.29 L1148.72 1514.29 L1148.72 1544.91 L1156.36 1544.91 L1156.36 1548.85 L1136.45 1548.85 L1136.45 1544.91 Z" fill="#000000" fill-rule="nonzero" fill-opacity="1" /><path clip-path="url(#clip420)" d="M1175.8 1517.37 Q1172.19 1517.37 1170.36 1520.93 Q1168.55 1524.47 1168.55 1531.6 Q1168.55 1538.71 1170.36 1542.27 Q1172.19 1545.82 1175.8 1545.82 Q1179.43 1545.82 1181.24 1542.27 Q1183.07 1538.71 1183.07 1531.6 Q1183.07 1524.47 1181.24 1520.93 Q1179.43 1517.37 1175.8 1517.37 M1175.8 1513.66 Q1181.61 1513.66 1184.67 1518.27 Q1187.74 1522.85 1187.74 1531.6 Q1187.74 1540.33 1184.67 1544.94 Q1181.61 1549.52 1175.8 1549.52 Q1169.99 1549.52 1166.91 1544.94 Q1163.86 1540.33 1163.86 1531.6 Q1163.86 1522.85 1166.91 1518.27 Q1169.99 1513.66 1175.8 1513.66 Z" fill="#000000" fill-rule="nonzero" fill-opacity="1" /><path clip-path="url(#clip420)" d="M1205.96 1517.37 Q1202.35 1517.37 1200.52 1520.93 Q1198.72 1524.47 1198.72 1531.6 Q1198.72 1538.71 1200.52 1542.27 Q1202.35 1545.82 1205.96 1545.82 Q1209.6 1545.82 1211.4 1542.27 Q1213.23 1538.71 1213.23 1531.6 Q1213.23 1524.47 1211.4 1520.93 Q1209.6 1517.37 1205.96 1517.37 M1205.96 1513.66 Q1211.77 1513.66 1214.83 1518.27 Q1217.91 1522.85 1217.91 1531.6 Q1217.91 1540.33 1214.83 1544.94 Q1211.77 1549.52 1205.96 1549.52 Q1200.15 1549.52 1197.07 1544.94 Q1194.02 1540.33 1194.02 1531.6 Q1194.02 1522.85 1197.07 1518.27 Q1200.15 1513.66 1205.96 1513.66 Z" fill="#000000" fill-rule="nonzero" fill-opacity="1" /><path clip-path="url(#clip420)" d="M1642.13 1544.91 L1649.77 1544.91 L1649.77 1518.55 L1641.46 1520.21 L1641.46 1515.95 L1649.72 1514.29 L1654.4 1514.29 L1654.4 1544.91 L1662.04 1544.91 L1662.04 1548.85 L1642.13 1548.85 L1642.13 1544.91 Z" fill="#000000" fill-rule="nonzero" fill-opacity="1" /><path clip-path="url(#clip420)" d="M1671.53 1514.29 L1689.89 1514.29 L1689.89 1518.22 L1675.81 1518.22 L1675.81 1526.7 Q1676.83 1526.35 1677.85 1526.19 Q1678.87 1526 1679.89 1526 Q1685.67 1526 1689.05 1529.17 Q1692.43 1532.34 1692.43 1537.76 Q1692.43 1543.34 1688.96 1546.44 Q1685.49 1549.52 1679.17 1549.52 Q1676.99 1549.52 1674.72 1549.15 Q1672.48 1548.78 1670.07 1548.04 L1670.07 1543.34 Q1672.15 1544.47 1674.38 1545.03 Q1676.6 1545.58 1679.08 1545.58 Q1683.08 1545.58 1685.42 1543.48 Q1687.76 1541.37 1687.76 1537.76 Q1687.76 1534.15 1685.42 1532.04 Q1683.08 1529.94 1679.08 1529.94 Q1677.2 1529.94 1675.33 1530.35 Q1673.47 1530.77 1671.53 1531.65 L1671.53 1514.29 Z" fill="#000000" fill-rule="nonzero" fill-opacity="1" /><path clip-path="url(#clip420)" d="M1711.64 1517.37 Q1708.03 1517.37 1706.2 1520.93 Q1704.4 1524.47 1704.4 1531.6 Q1704.4 1538.71 1706.2 1542.27 Q1708.03 1545.82 1711.64 1545.82 Q1715.28 1545.82 1717.08 1542.27 Q1718.91 1538.71 1718.91 1531.6 Q1718.91 1524.47 1717.08 1520.93 Q1715.28 1517.37 1711.64 1517.37 M1711.64 1513.66 Q1717.45 1513.66 1720.51 1518.27 Q1723.59 1522.85 1723.59 1531.6 Q1723.59 1540.33 1720.51 1544.94 Q1717.45 1549.52 1711.64 1549.52 Q1705.83 1549.52 1702.76 1544.94 Q1699.7 1540.33 1699.7 1531.6 Q1699.7 1522.85 1702.76 1518.27 Q1705.83 1513.66 1711.64 1513.66 Z" fill="#000000" fill-rule="nonzero" fill-opacity="1" /><path clip-path="url(#clip420)" d="M2151.9 1544.91 L2168.22 1544.91 L2168.22 1548.85 L2146.27 1548.85 L2146.27 1544.91 Q2148.94 1542.16 2153.52 1537.53 Q2158.13 1532.88 2159.31 1531.53 Q2161.55 1529.01 2162.43 1527.27 Q2163.33 1525.51 2163.33 1523.82 Q2163.33 1521.07 2161.39 1519.33 Q2159.47 1517.6 2156.37 1517.6 Q2154.17 1517.6 2151.71 1518.36 Q2149.28 1519.13 2146.51 1520.68 L2146.51 1515.95 Q2149.33 1514.82 2151.78 1514.24 Q2154.24 1513.66 2156.27 1513.66 Q2161.64 1513.66 2164.84 1516.35 Q2168.03 1519.03 2168.03 1523.52 Q2168.03 1525.65 2167.22 1527.57 Q2166.44 1529.47 2164.33 1532.07 Q2163.75 1532.74 2160.65 1535.95 Q2157.55 1539.15 2151.9 1544.91 Z" fill="#000000" fill-rule="nonzero" fill-opacity="1" /><path clip-path="url(#clip420)" d="M2188.03 1517.37 Q2184.42 1517.37 2182.59 1520.93 Q2180.79 1524.47 2180.79 1531.6 Q2180.79 1538.71 2182.59 1542.27 Q2184.42 1545.82 2188.03 1545.82 Q2191.67 1545.82 2193.47 1542.27 Q2195.3 1538.71 2195.3 1531.6 Q2195.3 1524.47 2193.47 1520.93 Q2191.67 1517.37 2188.03 1517.37 M2188.03 1513.66 Q2193.84 1513.66 2196.9 1518.27 Q2199.98 1522.85 2199.98 1531.6 Q2199.98 1540.33 2196.9 1544.94 Q2193.84 1549.52 2188.03 1549.52 Q2182.22 1549.52 2179.14 1544.94 Q2176.09 1540.33 2176.09 1531.6 Q2176.09 1522.85 2179.14 1518.27 Q2182.22 1513.66 2188.03 1513.66 Z" fill="#000000" fill-rule="nonzero" fill-opacity="1" /><path clip-path="url(#clip420)" d="M2218.2 1517.37 Q2214.58 1517.37 2212.76 1520.93 Q2210.95 1524.47 2210.95 1531.6 Q2210.95 1538.71 2212.76 1542.27 Q2214.58 1545.82 2218.2 1545.82 Q2221.83 1545.82 2223.63 1542.27 Q2225.46 1538.71 2225.46 1531.6 Q2225.46 1524.47 2223.63 1520.93 Q2221.83 1517.37 2218.2 1517.37 M2218.2 1513.66 Q2224.01 1513.66 2227.06 1518.27 Q2230.14 1522.85 2230.14 1531.6 Q2230.14 1540.33 2227.06 1544.94 Q2224.01 1549.52 2218.2 1549.52 Q2212.38 1549.52 2209.31 1544.94 Q2206.25 1540.33 2206.25 1531.6 Q2206.25 1522.85 2209.31 1518.27 Q2212.38 1513.66 2218.2 1513.66 Z" fill="#000000" fill-rule="nonzero" fill-opacity="1" /><polyline clip-path="url(#clip422)" style="stroke:#000000; stroke-linecap:round; stroke-linejoin:round; stroke-width:2; stroke-opacity:0.1; fill:none" points="112.177,1447.85 2352.76,1447.85 "/>
<polyline clip-path="url(#clip422)" style="stroke:#000000; stroke-linecap:round; stroke-linejoin:round; stroke-width:2; stroke-opacity:0.1; fill:none" points="112.177,1204.94 2352.76,1204.94 "/>
<polyline clip-path="url(#clip422)" style="stroke:#000000; stroke-linecap:round; stroke-linejoin:round; stroke-width:2; stroke-opacity:0.1; fill:none" points="112.177,962.029 2352.76,962.029 "/>
<polyline clip-path="url(#clip422)" style="stroke:#000000; stroke-linecap:round; stroke-linejoin:round; stroke-width:2; stroke-opacity:0.1; fill:none" points="112.177,719.12 2352.76,719.12 "/>
<polyline clip-path="url(#clip422)" style="stroke:#000000; stroke-linecap:round; stroke-linejoin:round; stroke-width:2; stroke-opacity:0.1; fill:none" points="112.177,476.211 2352.76,476.211 "/>
<polyline clip-path="url(#clip422)" style="stroke:#000000; stroke-linecap:round; stroke-linejoin:round; stroke-width:2; stroke-opacity:0.1; fill:none" points="112.177,233.301 2352.76,233.301 "/>
<polyline clip-path="url(#clip420)" style="stroke:#000000; stroke-linecap:round; stroke-linejoin:round; stroke-width:4; stroke-opacity:1; fill:none" points="112.177,1486.45 112.177,123.472 "/>
<polyline clip-path="url(#clip420)" style="stroke:#000000; stroke-linecap:round; stroke-linejoin:round; stroke-width:4; stroke-opacity:1; fill:none" points="112.177,1447.85 131.075,1447.85 "/>
<polyline clip-path="url(#clip420)" style="stroke:#000000; stroke-linecap:round; stroke-linejoin:round; stroke-width:4; stroke-opacity:1; fill:none" points="112.177,1204.94 131.075,1204.94 "/>
<polyline clip-path="url(#clip420)" style="stroke:#000000; stroke-linecap:round; stroke-linejoin:round; stroke-width:4; stroke-opacity:1; fill:none" points="112.177,962.029 131.075,962.029 "/>
<polyline clip-path="url(#clip420)" style="stroke:#000000; stroke-linecap:round; stroke-linejoin:round; stroke-width:4; stroke-opacity:1; fill:none" points="112.177,719.12 131.075,719.12 "/>
<polyline clip-path="url(#clip420)" style="stroke:#000000; stroke-linecap:round; stroke-linejoin:round; stroke-width:4; stroke-opacity:1; fill:none" points="112.177,476.211 131.075,476.211 "/>
<polyline clip-path="url(#clip420)" style="stroke:#000000; stroke-linecap:round; stroke-linejoin:round; stroke-width:4; stroke-opacity:1; fill:none" points="112.177,233.301 131.075,233.301 "/>
<path clip-path="url(#clip420)" d="M64.2328 1433.65 Q60.6217 1433.65 58.793 1437.21 Q56.9875 1440.75 56.9875 1447.88 Q56.9875 1454.99 58.793 1458.55 Q60.6217 1462.1 64.2328 1462.1 Q67.867 1462.1 69.6726 1458.55 Q71.5013 1454.99 71.5013 1447.88 Q71.5013 1440.75 69.6726 1437.21 Q67.867 1433.65 64.2328 1433.65 M64.2328 1429.94 Q70.0429 1429.94 73.0985 1434.55 Q76.1772 1439.13 76.1772 1447.88 Q76.1772 1456.61 73.0985 1461.22 Q70.0429 1465.8 64.2328 1465.8 Q58.4226 1465.8 55.344 1461.22 Q52.2884 1456.61 52.2884 1447.88 Q52.2884 1439.13 55.344 1434.55 Q58.4226 1429.94 64.2328 1429.94 Z" fill="#000000" fill-rule="nonzero" fill-opacity="1" /><path clip-path="url(#clip420)" d="M56.2699 1218.28 L63.9087 1218.28 L63.9087 1191.92 L55.5986 1193.58 L55.5986 1189.33 L63.8624 1187.66 L68.5383 1187.66 L68.5383 1218.28 L76.1772 1218.28 L76.1772 1222.22 L56.2699 1222.22 L56.2699 1218.28 Z" fill="#000000" fill-rule="nonzero" fill-opacity="1" /><path clip-path="url(#clip420)" d="M59.8578 975.374 L76.1772 975.374 L76.1772 979.309 L54.2328 979.309 L54.2328 975.374 Q56.8949 972.619 61.4782 967.99 Q66.0846 963.337 67.2652 961.995 Q69.5105 959.471 70.3902 957.735 Q71.2929 955.976 71.2929 954.286 Q71.2929 951.532 69.3485 949.796 Q67.4272 948.059 64.3254 948.059 Q62.1263 948.059 59.6726 948.823 Q57.2421 949.587 54.4643 951.138 L54.4643 946.416 Q57.2884 945.282 59.7421 944.703 Q62.1958 944.124 64.2328 944.124 Q69.6031 944.124 72.7976 946.809 Q75.992 949.495 75.992 953.985 Q75.992 956.115 75.1818 958.036 Q74.3948 959.934 72.2883 962.527 Q71.7096 963.198 68.6078 966.416 Q65.5059 969.61 59.8578 975.374 Z" fill="#000000" fill-rule="nonzero" fill-opacity="1" /><path clip-path="url(#clip420)" d="M69.0476 717.766 Q72.404 718.483 74.279 720.752 Q76.1772 723.02 76.1772 726.354 Q76.1772 731.469 72.6587 734.27 Q69.1402 737.071 62.6587 737.071 Q60.4828 737.071 58.168 736.631 Q55.8764 736.215 53.4227 735.358 L53.4227 730.844 Q55.3671 731.979 57.6819 732.557 Q59.9967 733.136 62.5198 733.136 Q66.918 733.136 69.2096 731.4 Q71.5244 729.664 71.5244 726.354 Q71.5244 723.298 69.3717 721.585 Q67.242 719.849 63.4226 719.849 L59.3949 719.849 L59.3949 716.007 L63.6078 716.007 Q67.0569 716.007 68.8855 714.641 Q70.7142 713.252 70.7142 710.659 Q70.7142 707.997 68.8161 706.585 Q66.9411 705.15 63.4226 705.15 Q61.5013 705.15 59.3023 705.567 Q57.1032 705.983 54.4643 706.863 L54.4643 702.696 Q57.1264 701.956 59.4412 701.585 Q61.7791 701.215 63.8393 701.215 Q69.1633 701.215 72.2652 703.645 Q75.367 706.053 75.367 710.173 Q75.367 713.044 73.7235 715.034 Q72.08 717.002 69.0476 717.766 Z" fill="#000000" fill-rule="nonzero" fill-opacity="1" /><path clip-path="url(#clip420)" d="M66.5939 463.005 L54.7884 481.454 L66.5939 481.454 L66.5939 463.005 M65.367 458.931 L71.2466 458.931 L71.2466 481.454 L76.1772 481.454 L76.1772 485.342 L71.2466 485.342 L71.2466 493.491 L66.5939 493.491 L66.5939 485.342 L50.9921 485.342 L50.9921 480.829 L65.367 458.931 Z" fill="#000000" fill-rule="nonzero" fill-opacity="1" /><path clip-path="url(#clip420)" d="M55.2745 216.021 L73.6309 216.021 L73.6309 219.956 L59.5569 219.956 L59.5569 228.429 Q60.5754 228.081 61.5939 227.919 Q62.6124 227.734 63.6309 227.734 Q69.418 227.734 72.7976 230.905 Q76.1772 234.077 76.1772 239.493 Q76.1772 245.072 72.705 248.174 Q69.2328 251.253 62.9134 251.253 Q60.7374 251.253 58.4689 250.882 Q56.2236 250.512 53.8162 249.771 L53.8162 245.072 Q55.8995 246.206 58.1217 246.762 Q60.3439 247.317 62.8208 247.317 Q66.8254 247.317 69.1633 245.211 Q71.5013 243.104 71.5013 239.493 Q71.5013 235.882 69.1633 233.776 Q66.8254 231.669 62.8208 231.669 Q60.9458 231.669 59.0708 232.086 Q57.2189 232.503 55.2745 233.382 L55.2745 216.021 Z" fill="#000000" fill-rule="nonzero" fill-opacity="1" /><path clip-path="url(#clip420)" d="M876.696 72.576 L853.606 12.096 L862.153 12.096 L881.314 63.0159 L900.515 12.096 L909.022 12.096 L885.972 72.576 L876.696 72.576 Z" fill="#000000" fill-rule="nonzero" fill-opacity="1" /><path clip-path="url(#clip420)" d="M928.669 32.4315 Q922.674 32.4315 919.19 37.1306 Q915.706 41.7891 915.706 49.9314 Q915.706 58.0738 919.149 62.7728 Q922.633 67.4314 928.669 67.4314 Q934.624 67.4314 938.108 62.7323 Q941.591 58.0333 941.591 49.9314 Q941.591 41.8701 938.108 37.1711 Q934.624 32.4315 928.669 32.4315 M928.669 26.1121 Q938.391 26.1121 943.941 32.4315 Q949.491 38.7509 949.491 49.9314 Q949.491 61.0714 943.941 67.4314 Q938.391 73.7508 928.669 73.7508 Q918.906 73.7508 913.357 67.4314 Q907.847 61.0714 907.847 49.9314 Q907.847 38.7509 913.357 32.4315 Q918.906 26.1121 928.669 26.1121 Z" fill="#000000" fill-rule="nonzero" fill-opacity="1" /><path clip-path="url(#clip420)" d="M988.136 34.1734 Q986.88 33.4443 985.382 33.1202 Q983.923 32.7556 982.141 32.7556 Q975.822 32.7556 972.419 36.8875 Q969.056 40.9789 969.056 48.6757 L969.056 72.576 L961.562 72.576 L961.562 27.2059 L969.056 27.2059 L969.056 34.2544 Q971.406 30.1225 975.173 28.1376 Q978.941 26.1121 984.328 26.1121 Q985.098 26.1121 986.03 26.2337 Q986.961 26.3147 988.096 26.5172 L988.136 34.1734 Z" fill="#000000" fill-rule="nonzero" fill-opacity="1" /><path clip-path="url(#clip420)" d="M1003.33 14.324 L1003.33 27.2059 L1018.68 27.2059 L1018.68 32.9987 L1003.33 32.9987 L1003.33 57.6282 Q1003.33 63.1779 1004.83 64.7578 Q1006.37 66.3376 1011.02 66.3376 L1018.68 66.3376 L1018.68 72.576 L1011.02 72.576 Q1002.4 72.576 999.114 69.3758 Q995.833 66.1351 995.833 57.6282 L995.833 32.9987 L990.364 32.9987 L990.364 27.2059 L995.833 27.2059 L995.833 14.324 L1003.33 14.324 Z" fill="#000000" fill-rule="nonzero" fill-opacity="1" /><path clip-path="url(#clip420)" d="M1028.48 27.2059 L1035.94 27.2059 L1035.94 72.576 L1028.48 72.576 L1028.48 27.2059 M1028.48 9.54393 L1035.94 9.54393 L1035.94 18.9825 L1028.48 18.9825 L1028.48 9.54393 Z" fill="#000000" fill-rule="nonzero" fill-opacity="1" /><path clip-path="url(#clip420)" d="M1084.18 28.9478 L1084.18 35.9153 Q1081.02 34.1734 1077.82 33.3227 Q1074.66 32.4315 1071.42 32.4315 Q1064.17 32.4315 1060.16 37.0496 Q1056.15 41.6271 1056.15 49.9314 Q1056.15 58.2358 1060.16 62.8538 Q1064.17 67.4314 1071.42 67.4314 Q1074.66 67.4314 1077.82 66.5807 Q1081.02 65.6895 1084.18 63.9476 L1084.18 70.8341 Q1081.06 72.2924 1077.7 73.0216 Q1074.38 73.7508 1070.61 73.7508 Q1060.36 73.7508 1054.33 67.3098 Q1048.29 60.8689 1048.29 49.9314 Q1048.29 38.832 1054.37 32.472 Q1060.49 26.1121 1071.1 26.1121 Q1074.54 26.1121 1077.82 26.8413 Q1081.1 27.5299 1084.18 28.9478 Z" fill="#000000" fill-rule="nonzero" fill-opacity="1" /><path clip-path="url(#clip420)" d="M1097.15 27.2059 L1104.6 27.2059 L1104.6 72.576 L1097.15 72.576 L1097.15 27.2059 M1097.15 9.54393 L1104.6 9.54393 L1104.6 18.9825 L1097.15 18.9825 L1097.15 9.54393 Z" fill="#000000" fill-rule="nonzero" fill-opacity="1" /><path clip-path="url(#clip420)" d="M1127.57 14.324 L1127.57 27.2059 L1142.92 27.2059 L1142.92 32.9987 L1127.57 32.9987 L1127.57 57.6282 Q1127.57 63.1779 1129.07 64.7578 Q1130.61 66.3376 1135.27 66.3376 L1142.92 66.3376 L1142.92 72.576 L1135.27 72.576 Q1126.64 72.576 1123.36 69.3758 Q1120.07 66.1351 1120.07 57.6282 L1120.07 32.9987 L1114.61 32.9987 L1114.61 27.2059 L1120.07 27.2059 L1120.07 14.324 L1127.57 14.324 Z" fill="#000000" fill-rule="nonzero" fill-opacity="1" /><path clip-path="url(#clip420)" d="M1171.6 76.7889 Q1168.44 84.8907 1165.44 87.3618 Q1162.45 89.8329 1157.42 89.8329 L1151.47 89.8329 L1151.47 83.5945 L1155.84 83.5945 Q1158.92 83.5945 1160.62 82.1361 Q1162.33 80.6778 1164.39 75.2496 L1165.73 71.8468 L1147.38 27.2059 L1155.28 27.2059 L1169.45 62.6918 L1183.63 27.2059 L1191.53 27.2059 L1171.6 76.7889 Z" fill="#000000" fill-rule="nonzero" fill-opacity="1" /><path clip-path="url(#clip420)" d="M1248.81 49.7694 Q1239.78 49.7694 1236.29 51.8354 Q1232.81 53.9013 1232.81 58.8839 Q1232.81 62.8538 1235.4 65.2034 Q1238.04 67.5124 1242.53 67.5124 Q1248.73 67.5124 1252.46 63.1374 Q1256.23 58.7219 1256.23 51.4303 L1256.23 49.7694 L1248.81 49.7694 M1263.68 46.6907 L1263.68 72.576 L1256.23 72.576 L1256.23 65.6895 Q1253.67 69.8214 1249.87 71.8063 Q1246.06 73.7508 1240.55 73.7508 Q1233.58 73.7508 1229.45 69.8619 Q1225.36 65.9325 1225.36 59.3701 Q1225.36 51.7138 1230.46 47.825 Q1235.61 43.9361 1245.77 43.9361 L1256.23 43.9361 L1256.23 43.2069 Q1256.23 38.0623 1252.82 35.2672 Q1249.46 32.4315 1243.34 32.4315 Q1239.45 32.4315 1235.77 33.3632 Q1232.08 34.295 1228.68 36.1584 L1228.68 29.2718 Q1232.77 27.692 1236.62 26.9223 Q1240.47 26.1121 1244.11 26.1121 Q1253.96 26.1121 1258.82 31.2163 Q1263.68 36.3204 1263.68 46.6907 Z" fill="#000000" fill-rule="nonzero" fill-opacity="1" /><path clip-path="url(#clip420)" d="M1286.4 14.324 L1286.4 27.2059 L1301.76 27.2059 L1301.76 32.9987 L1286.4 32.9987 L1286.4 57.6282 Q1286.4 63.1779 1287.9 64.7578 Q1289.44 66.3376 1294.1 66.3376 L1301.76 66.3376 L1301.76 72.576 L1294.1 72.576 Q1285.47 72.576 1282.19 69.3758 Q1278.91 66.1351 1278.91 57.6282 L1278.91 32.9987 L1273.44 32.9987 L1273.44 27.2059 L1278.91 27.2059 L1278.91 14.324 L1286.4 14.324 Z" fill="#000000" fill-rule="nonzero" fill-opacity="1" /><path clip-path="url(#clip420)" d="M1345.3 14.324 L1345.3 27.2059 L1360.66 27.2059 L1360.66 32.9987 L1345.3 32.9987 L1345.3 57.6282 Q1345.3 63.1779 1346.8 64.7578 Q1348.34 66.3376 1353 66.3376 L1360.66 66.3376 L1360.66 72.576 L1353 72.576 Q1344.37 72.576 1341.09 69.3758 Q1337.81 66.1351 1337.81 57.6282 L1337.81 32.9987 L1332.34 32.9987 L1332.34 27.2059 L1337.81 27.2059 L1337.81 14.324 L1345.3 14.324 Z" fill="#000000" fill-rule="nonzero" fill-opacity="1" /><path clip-path="url(#clip420)" d="M1397.8 34.9026 L1449.74 34.9026 L1449.74 41.7081 L1397.8 41.7081 L1397.8 34.9026 M1397.8 51.4303 L1449.74 51.4303 L1449.74 58.3168 L1397.8 58.3168 L1397.8 51.4303 Z" fill="#000000" fill-rule="nonzero" fill-opacity="1" /><path clip-path="url(#clip420)" d="M1495.19 65.6895 L1508.56 65.6895 L1508.56 19.5497 L1494.01 22.4663 L1494.01 15.0127 L1508.47 12.096 L1516.66 12.096 L1516.66 65.6895 L1530.03 65.6895 L1530.03 72.576 L1495.19 72.576 L1495.19 65.6895 Z" fill="#000000" fill-rule="nonzero" fill-opacity="1" /><path clip-path="url(#clip420)" d="M1546.55 62.2867 L1555.1 62.2867 L1555.1 72.576 L1546.55 72.576 L1546.55 62.2867 Z" fill="#000000" fill-rule="nonzero" fill-opacity="1" /><path clip-path="url(#clip420)" d="M1590.42 17.4837 Q1584.11 17.4837 1580.91 23.7221 Q1577.75 29.92 1577.75 42.3968 Q1577.75 54.833 1580.91 61.0714 Q1584.11 67.2693 1590.42 67.2693 Q1596.78 67.2693 1599.94 61.0714 Q1603.14 54.833 1603.14 42.3968 Q1603.14 29.92 1599.94 23.7221 Q1596.78 17.4837 1590.42 17.4837 M1590.42 11.0023 Q1600.59 11.0023 1605.94 19.0636 Q1611.33 27.0843 1611.33 42.3968 Q1611.33 57.6687 1605.94 65.73 Q1600.59 73.7508 1590.42 73.7508 Q1580.26 73.7508 1574.87 65.73 Q1569.52 57.6687 1569.52 42.3968 Q1569.52 27.0843 1574.87 19.0636 Q1580.26 11.0023 1590.42 11.0023 Z" fill="#000000" fill-rule="nonzero" fill-opacity="1" /><polyline clip-path="url(#clip422)" style="stroke:#009af9; stroke-linecap:round; stroke-linejoin:round; stroke-width:4; stroke-opacity:1; fill:none" points="175.59,1447.85 185.703,1447.85 195.817,1447.86 205.931,1447.86 216.044,1447.86 226.158,1447.86 236.272,1447.86 246.385,1447.85 256.499,1447.85 266.613,1447.85 276.726,1447.85 286.84,1447.85 296.954,1447.85 307.067,1447.85 317.181,1447.85 327.295,1447.85 337.408,1447.85 347.522,1447.85 357.636,1447.85 367.749,1447.85 377.863,1447.85 387.976,1447.85 398.09,1447.85 408.204,1447.85 418.317,1447.85 428.431,1447.85 438.545,1447.85 448.658,1447.85 458.772,1447.85 468.886,1447.85 478.999,1447.85 489.113,1447.85 499.227,1447.85 509.34,1447.85 519.454,1447.85 529.568,1447.85 539.681,1447.85 549.795,1447.85 559.909,1447.85 570.022,1447.85 580.136,1447.85 590.25,1447.85 600.363,1447.85 610.477,1447.85 620.591,1447.85 630.704,1447.85 640.818,1447.85 650.931,1447.85 661.045,1447.85 671.159,1447.85 681.272,1447.85 691.386,1447.85 701.5,1447.85 711.613,1447.85 721.727,1447.85 731.841,1447.85 741.954,1447.85 752.068,1447.85 762.182,1447.85 772.295,1447.85 782.409,1447.85 792.523,1447.84 802.636,1447.84 812.75,1447.83 822.864,1447.82 832.977,1447.8 843.091,1447.78 853.205,1447.73 863.318,1447.65 873.432,1447.53 883.546,1447.35 893.659,1447.07 903.773,1446.65 913.886,1446.02 924,1445.09 934.114,1443.76 944.227,1441.85 954.341,1439.18 964.455,1435.47 974.568,1430.42 984.682,1423.63 994.796,1414.63 1004.91,1402.88 1015.02,1387.77 1025.14,1368.63 1035.25,1344.73 1045.36,1315.34 1055.48,1279.77 1065.59,1237.38 1075.7,1187.69 1085.82,1130.42 1095.93,1065.56 1106.05,993.422 1116.16,914.728 1126.27,830.605 1136.39,742.604 1146.5,652.679 1156.61,563.124 1166.73,476.496 1176.84,395.496 1186.96,322.838 1197.07,261.099 1207.18,212.57 1217.3,179.115 1227.41,162.047 1237.52,162.047 1247.64,179.114 1257.75,212.568 1267.86,261.094 1277.98,322.827 1288.09,395.479 1298.21,476.473 1308.32,563.098 1318.43,652.653 1328.55,742.586 1338.66,830.599 1348.77,914.741 1358.89,993.457 1369,1065.61 1379.11,1130.49 1389.23,1187.77 1399.34,1237.46 1409.46,1279.84 1419.57,1315.4 1429.68,1344.78 1439.8,1368.66 1449.91,1387.79 1460.02,1402.89 1470.14,1414.63 1480.25,1423.62 1490.36,1430.41 1500.48,1435.46 1510.59,1439.16 1520.71,1441.84 1530.82,1443.75 1540.93,1445.09 1551.05,1446.01 1561.16,1446.64 1571.27,1447.07 1581.39,1447.35 1591.5,1447.53 1601.61,1447.65 1611.73,1447.73 1621.84,1447.77 1631.96,1447.8 1642.07,1447.82 1652.18,1447.83 1662.3,1447.84 1672.41,1447.84 1682.52,1447.85 1692.64,1447.85 1702.75,1447.85 1712.87,1447.85 1722.98,1447.85 1733.09,1447.85 1743.21,1447.85 1753.32,1447.85 1763.43,1447.85 1773.55,1447.85 1783.66,1447.85 1793.77,1447.85 1803.89,1447.85 1814,1447.85 1824.12,1447.85 1834.23,1447.85 1844.34,1447.85 1854.46,1447.85 1864.57,1447.85 1874.68,1447.85 1884.8,1447.85 1894.91,1447.85 1905.02,1447.85 1915.14,1447.85 1925.25,1447.85 1935.37,1447.85 1945.48,1447.85 1955.59,1447.85 1965.71,1447.85 1975.82,1447.85 1985.93,1447.85 1996.05,1447.85 2006.16,1447.85 2016.27,1447.85 2026.39,1447.85 2036.5,1447.85 2046.62,1447.85 2056.73,1447.85 2066.84,1447.85 2076.96,1447.85 2087.07,1447.85 2097.18,1447.85 2107.3,1447.85 2117.41,1447.85 2127.52,1447.85 2137.64,1447.85 2147.75,1447.85 2157.87,1447.85 2167.98,1447.85 2178.09,1447.85 2188.21,1447.85 2198.32,1447.85 2208.43,1447.85 2218.55,1447.86 2228.66,1447.86 2238.78,1447.86 2248.89,1447.87 2259,1447.87 2269.12,1447.87 2279.23,1447.87 2289.34,1447.86 "/>
<polyline clip-path="url(#clip422)" style="stroke:#e26f46; stroke-linecap:round; stroke-linejoin:round; stroke-width:4; stroke-opacity:1; fill:none" points="175.59,1447.85 185.703,1447.85 195.817,1447.85 205.931,1447.85 216.044,1447.85 226.158,1447.85 236.272,1447.85 246.385,1447.85 256.499,1447.85 266.613,1447.85 276.726,1447.85 286.84,1447.85 296.954,1447.85 307.067,1447.85 317.181,1447.85 327.295,1447.85 337.408,1447.85 347.522,1447.85 357.636,1447.85 367.749,1447.85 377.863,1447.85 387.976,1447.85 398.09,1447.85 408.204,1447.85 418.317,1447.85 428.431,1447.85 438.545,1447.85 448.658,1447.85 458.772,1447.85 468.886,1447.85 478.999,1447.85 489.113,1447.85 499.227,1447.85 509.34,1447.85 519.454,1447.85 529.568,1447.85 539.681,1447.85 549.795,1447.85 559.909,1447.85 570.022,1447.85 580.136,1447.85 590.25,1447.85 600.363,1447.85 610.477,1447.85 620.591,1447.85 630.704,1447.85 640.818,1447.85 650.931,1447.85 661.045,1447.85 671.159,1447.85 681.272,1447.85 691.386,1447.85 701.5,1447.85 711.613,1447.85 721.727,1447.85 731.841,1447.85 741.954,1447.85 752.068,1447.85 762.182,1447.85 772.295,1447.85 782.409,1447.85 792.523,1447.84 802.636,1447.84 812.75,1447.83 822.864,1447.82 832.977,1447.81 843.091,1447.78 853.205,1447.74 863.318,1447.67 873.432,1447.56 883.546,1447.39 893.659,1447.12 903.773,1446.72 913.886,1446.12 924,1445.24 934.114,1443.96 944.227,1442.12 954.341,1439.53 964.455,1435.93 974.568,1430.99 984.682,1424.32 994.796,1415.45 1004.91,1403.83 1015.02,1388.82 1025.14,1369.74 1035.25,1345.88 1045.36,1316.48 1055.48,1280.84 1065.59,1238.35 1075.7,1188.53 1085.82,1131.12 1095.93,1066.12 1106.05,993.876 1116.16,915.107 1126.27,830.951 1136.39,742.962 1146.5,653.091 1156.61,563.631 1166.73,477.13 1176.84,396.282 1186.96,323.788 1197.07,262.211 1207.18,213.824 1217.3,180.474 1227.41,163.462 1237.52,163.462 1247.64,180.474 1257.75,213.824 1267.86,262.211 1277.98,323.788 1288.09,396.282 1298.21,477.13 1308.32,563.631 1318.43,653.091 1328.55,742.962 1338.66,830.951 1348.77,915.107 1358.89,993.876 1369,1066.12 1379.11,1131.12 1389.23,1188.53 1399.34,1238.35 1409.46,1280.84 1419.57,1316.48 1429.68,1345.88 1439.8,1369.74 1449.91,1388.82 1460.02,1403.83 1470.14,1415.45 1480.25,1424.32 1490.36,1430.99 1500.48,1435.93 1510.59,1439.53 1520.71,1442.12 1530.82,1443.96 1540.93,1445.24 1551.05,1446.12 1561.16,1446.72 1571.27,1447.12 1581.39,1447.39 1591.5,1447.56 1601.61,1447.67 1611.73,1447.74 1621.84,1447.78 1631.96,1447.81 1642.07,1447.82 1652.18,1447.83 1662.3,1447.84 1672.41,1447.84 1682.52,1447.85 1692.64,1447.85 1702.75,1447.85 1712.87,1447.85 1722.98,1447.85 1733.09,1447.85 1743.21,1447.85 1753.32,1447.85 1763.43,1447.85 1773.55,1447.85 1783.66,1447.85 1793.77,1447.85 1803.89,1447.85 1814,1447.85 1824.12,1447.85 1834.23,1447.85 1844.34,1447.85 1854.46,1447.85 1864.57,1447.85 1874.68,1447.85 1884.8,1447.85 1894.91,1447.85 1905.02,1447.85 1915.14,1447.85 1925.25,1447.85 1935.37,1447.85 1945.48,1447.85 1955.59,1447.85 1965.71,1447.85 1975.82,1447.85 1985.93,1447.85 1996.05,1447.85 2006.16,1447.85 2016.27,1447.85 2026.39,1447.85 2036.5,1447.85 2046.62,1447.85 2056.73,1447.85 2066.84,1447.85 2076.96,1447.85 2087.07,1447.85 2097.18,1447.85 2107.3,1447.85 2117.41,1447.85 2127.52,1447.85 2137.64,1447.85 2147.75,1447.85 2157.87,1447.85 2167.98,1447.85 2178.09,1447.85 2188.21,1447.85 2198.32,1447.85 2208.43,1447.85 2218.55,1447.85 2228.66,1447.85 2238.78,1447.85 2248.89,1447.85 2259,1447.85 2269.12,1447.85 2279.23,1447.85 2289.34,1447.85 "/>
<path clip-path="url(#clip420)" d="M1821.3 324.425 L2278.07 324.425 L2278.07 168.905 L1821.3 168.905  Z" fill="#ffffff" fill-rule="evenodd" fill-opacity="1"/>
<polyline clip-path="url(#clip420)" style="stroke:#000000; stroke-linecap:round; stroke-linejoin:round; stroke-width:4; stroke-opacity:1; fill:none" points="1821.3,324.425 2278.07,324.425 2278.07,168.905 1821.3,168.905 1821.3,324.425 "/>
<polyline clip-path="url(#clip420)" style="stroke:#009af9; stroke-linecap:round; stroke-linejoin:round; stroke-width:4; stroke-opacity:1; fill:none" points="1846.2,220.745 1995.57,220.745 "/>
<path clip-path="url(#clip420)" d="M2020.47 203.465 L2026.76 203.465 L2042.09 232.377 L2042.09 203.465 L2046.62 203.465 L2046.62 238.025 L2040.33 238.025 L2025 209.113 L2025 238.025 L2020.47 238.025 L2020.47 203.465 Z" fill="#000000" fill-rule="nonzero" fill-opacity="1" /><path clip-path="url(#clip420)" d="M2055.31 227.793 L2055.31 212.099 L2059.56 212.099 L2059.56 227.631 Q2059.56 231.312 2061 233.164 Q2062.43 234.992 2065.31 234.992 Q2068.75 234.992 2070.75 232.793 Q2072.76 230.594 2072.76 226.798 L2072.76 212.099 L2077.02 212.099 L2077.02 238.025 L2072.76 238.025 L2072.76 234.043 Q2071.21 236.404 2069.15 237.562 Q2067.11 238.696 2064.4 238.696 Q2059.93 238.696 2057.62 235.918 Q2055.31 233.14 2055.31 227.793 M2066.02 211.474 L2066.02 211.474 Z" fill="#000000" fill-rule="nonzero" fill-opacity="1" /><path clip-path="url(#clip420)" d="M2105.98 217.076 Q2107.57 214.205 2109.8 212.84 Q2112.02 211.474 2115.03 211.474 Q2119.08 211.474 2121.28 214.321 Q2123.48 217.145 2123.48 222.377 L2123.48 238.025 L2119.19 238.025 L2119.19 222.515 Q2119.19 218.789 2117.87 216.983 Q2116.55 215.178 2113.85 215.178 Q2110.54 215.178 2108.62 217.377 Q2106.69 219.576 2106.69 223.372 L2106.69 238.025 L2102.41 238.025 L2102.41 222.515 Q2102.41 218.765 2101.09 216.983 Q2099.77 215.178 2097.02 215.178 Q2093.75 215.178 2091.83 217.4 Q2089.91 219.599 2089.91 223.372 L2089.91 238.025 L2085.63 238.025 L2085.63 212.099 L2089.91 212.099 L2089.91 216.127 Q2091.37 213.742 2093.41 212.608 Q2095.44 211.474 2098.24 211.474 Q2101.07 211.474 2103.04 212.909 Q2105.03 214.344 2105.98 217.076 Z" fill="#000000" fill-rule="nonzero" fill-opacity="1" /><path clip-path="url(#clip420)" d="M2154.15 223.997 L2154.15 226.08 L2134.56 226.08 Q2134.84 230.478 2137.2 232.793 Q2139.59 235.085 2143.82 235.085 Q2146.28 235.085 2148.57 234.483 Q2150.88 233.881 2153.15 232.677 L2153.15 236.705 Q2150.86 237.677 2148.45 238.187 Q2146.05 238.696 2143.57 238.696 Q2137.37 238.696 2133.73 235.085 Q2130.12 231.474 2130.12 225.316 Q2130.12 218.951 2133.55 215.224 Q2136.99 211.474 2142.83 211.474 Q2148.06 211.474 2151.09 214.853 Q2154.15 218.21 2154.15 223.997 M2149.89 222.747 Q2149.84 219.252 2147.92 217.168 Q2146.02 215.085 2142.87 215.085 Q2139.31 215.085 2137.16 217.099 Q2135.03 219.113 2134.7 222.77 L2149.89 222.747 Z" fill="#000000" fill-rule="nonzero" fill-opacity="1" /><path clip-path="url(#clip420)" d="M2176.16 216.08 Q2175.44 215.664 2174.59 215.478 Q2173.75 215.27 2172.74 215.27 Q2169.12 215.27 2167.18 217.631 Q2165.26 219.969 2165.26 224.367 L2165.26 238.025 L2160.98 238.025 L2160.98 212.099 L2165.26 212.099 L2165.26 216.127 Q2166.6 213.766 2168.75 212.631 Q2170.91 211.474 2173.99 211.474 Q2174.43 211.474 2174.96 211.543 Q2175.49 211.59 2176.14 211.705 L2176.16 216.08 Z" fill="#000000" fill-rule="nonzero" fill-opacity="1" /><path clip-path="url(#clip420)" d="M2180.63 212.099 L2184.89 212.099 L2184.89 238.025 L2180.63 238.025 L2180.63 212.099 M2180.63 202.006 L2184.89 202.006 L2184.89 207.4 L2180.63 207.4 L2180.63 202.006 Z" fill="#000000" fill-rule="nonzero" fill-opacity="1" /><path clip-path="url(#clip420)" d="M2212.46 213.094 L2212.46 217.076 Q2210.65 216.08 2208.82 215.594 Q2207.02 215.085 2205.17 215.085 Q2201.02 215.085 2198.73 217.724 Q2196.44 220.34 2196.44 225.085 Q2196.44 229.83 2198.73 232.469 Q2201.02 235.085 2205.17 235.085 Q2207.02 235.085 2208.82 234.599 Q2210.65 234.089 2212.46 233.094 L2212.46 237.029 Q2210.67 237.863 2208.75 238.279 Q2206.86 238.696 2204.7 238.696 Q2198.85 238.696 2195.4 235.015 Q2191.95 231.335 2191.95 225.085 Q2191.95 218.742 2195.42 215.108 Q2198.92 211.474 2204.98 211.474 Q2206.95 211.474 2208.82 211.891 Q2210.7 212.284 2212.46 213.094 Z" fill="#000000" fill-rule="nonzero" fill-opacity="1" /><path clip-path="url(#clip420)" d="M2231.65 224.992 Q2226.48 224.992 2224.49 226.173 Q2222.5 227.353 2222.5 230.201 Q2222.5 232.469 2223.98 233.812 Q2225.49 235.131 2228.06 235.131 Q2231.6 235.131 2233.73 232.631 Q2235.88 230.108 2235.88 225.941 L2235.88 224.992 L2231.65 224.992 M2240.14 223.233 L2240.14 238.025 L2235.88 238.025 L2235.88 234.089 Q2234.42 236.451 2232.25 237.585 Q2230.07 238.696 2226.92 238.696 Q2222.94 238.696 2220.58 236.474 Q2218.24 234.228 2218.24 230.478 Q2218.24 226.103 2221.16 223.881 Q2224.1 221.659 2229.91 221.659 L2235.88 221.659 L2235.88 221.242 Q2235.88 218.303 2233.94 216.705 Q2232.02 215.085 2228.52 215.085 Q2226.3 215.085 2224.19 215.617 Q2222.09 216.15 2220.14 217.215 L2220.14 213.279 Q2222.48 212.377 2224.68 211.937 Q2226.88 211.474 2228.96 211.474 Q2234.59 211.474 2237.36 214.391 Q2240.14 217.307 2240.14 223.233 Z" fill="#000000" fill-rule="nonzero" fill-opacity="1" /><path clip-path="url(#clip420)" d="M2248.92 202.006 L2253.17 202.006 L2253.17 238.025 L2248.92 238.025 L2248.92 202.006 Z" fill="#000000" fill-rule="nonzero" fill-opacity="1" /><polyline clip-path="url(#clip420)" style="stroke:#e26f46; stroke-linecap:round; stroke-linejoin:round; stroke-width:4; stroke-opacity:1; fill:none" points="1846.2,272.585 1995.57,272.585 "/>
<path clip-path="url(#clip420)" d="M2020.47 255.305 L2042.32 255.305 L2042.32 259.24 L2025.14 259.24 L2025.14 269.471 L2041.6 269.471 L2041.6 273.406 L2025.14 273.406 L2025.14 285.929 L2042.74 285.929 L2042.74 289.865 L2020.47 289.865 L2020.47 255.305 Z" fill="#000000" fill-rule="nonzero" fill-opacity="1" /><path clip-path="url(#clip420)" d="M2071.79 263.939 L2062.41 276.555 L2072.27 289.865 L2067.25 289.865 L2059.7 279.68 L2052.16 289.865 L2047.13 289.865 L2057.2 276.3 L2047.99 263.939 L2053.01 263.939 L2059.89 273.175 L2066.76 263.939 L2071.79 263.939 Z" fill="#000000" fill-rule="nonzero" fill-opacity="1" /><path clip-path="url(#clip420)" d="M2090.07 276.832 Q2084.91 276.832 2082.92 278.013 Q2080.93 279.193 2080.93 282.041 Q2080.93 284.309 2082.41 285.652 Q2083.92 286.971 2086.49 286.971 Q2090.03 286.971 2092.16 284.471 Q2094.31 281.948 2094.31 277.781 L2094.31 276.832 L2090.07 276.832 M2098.57 275.073 L2098.57 289.865 L2094.31 289.865 L2094.31 285.929 Q2092.85 288.291 2090.68 289.425 Q2088.5 290.536 2085.35 290.536 Q2081.37 290.536 2079.01 288.314 Q2076.67 286.068 2076.67 282.318 Q2076.67 277.943 2079.59 275.721 Q2082.53 273.499 2088.34 273.499 L2094.31 273.499 L2094.31 273.082 Q2094.31 270.143 2092.37 268.545 Q2090.44 266.925 2086.95 266.925 Q2084.73 266.925 2082.62 267.457 Q2080.51 267.99 2078.57 269.055 L2078.57 265.119 Q2080.91 264.217 2083.11 263.777 Q2085.31 263.314 2087.39 263.314 Q2093.01 263.314 2095.79 266.231 Q2098.57 269.147 2098.57 275.073 Z" fill="#000000" fill-rule="nonzero" fill-opacity="1" /><path clip-path="url(#clip420)" d="M2126 264.934 L2126 268.916 Q2124.19 267.92 2122.37 267.434 Q2120.56 266.925 2118.71 266.925 Q2114.56 266.925 2112.27 269.564 Q2109.98 272.18 2109.98 276.925 Q2109.98 281.67 2112.27 284.309 Q2114.56 286.925 2118.71 286.925 Q2120.56 286.925 2122.37 286.439 Q2124.19 285.929 2126 284.934 L2126 288.869 Q2124.22 289.703 2122.3 290.119 Q2120.4 290.536 2118.24 290.536 Q2112.39 290.536 2108.94 286.855 Q2105.49 283.175 2105.49 276.925 Q2105.49 270.582 2108.96 266.948 Q2112.46 263.314 2118.52 263.314 Q2120.49 263.314 2122.37 263.731 Q2124.24 264.124 2126 264.934 Z" fill="#000000" fill-rule="nonzero" fill-opacity="1" /><path clip-path="url(#clip420)" d="M2137.62 256.578 L2137.62 263.939 L2146.39 263.939 L2146.39 267.249 L2137.62 267.249 L2137.62 281.323 Q2137.62 284.494 2138.48 285.397 Q2139.36 286.3 2142.02 286.3 L2146.39 286.3 L2146.39 289.865 L2142.02 289.865 Q2137.09 289.865 2135.21 288.036 Q2133.34 286.184 2133.34 281.323 L2133.34 267.249 L2130.21 267.249 L2130.21 263.939 L2133.34 263.939 L2133.34 256.578 L2137.62 256.578 Z" fill="#000000" fill-rule="nonzero" fill-opacity="1" /></svg>
