<?xml version="1.0" encoding="utf-8"?>
<svg xmlns="http://www.w3.org/2000/svg" xmlns:xlink="http://www.w3.org/1999/xlink" width="600" height="400" viewBox="0 0 2400 1600">
<defs>
  <clipPath id="clip690">
    <rect x="0" y="0" width="2400" height="1600"/>
  </clipPath>
</defs>
<path clip-path="url(#clip690)" d="M0 1600 L2400 1600 L2400 0 L0 0  Z" fill="#ffffff" fill-rule="evenodd" fill-opacity="1"/>
<defs>
  <clipPath id="clip691">
    <rect x="480" y="0" width="1681" height="1600"/>
  </clipPath>
</defs>
<path clip-path="url(#clip690)" d="M224.098 1423.18 L2352.76 1423.18 L2352.76 47.2441 L224.098 47.2441  Z" fill="#ffffff" fill-rule="evenodd" fill-opacity="1"/>
<defs>
  <clipPath id="clip692">
    <rect x="224" y="47" width="2130" height="1377"/>
  </clipPath>
</defs>
<polyline clip-path="url(#clip692)" style="stroke:#000000; stroke-linecap:round; stroke-linejoin:round; stroke-width:2; stroke-opacity:0.1; fill:none" points="284.343,1423.18 284.343,47.2441 "/>
<polyline clip-path="url(#clip692)" style="stroke:#000000; stroke-linecap:round; stroke-linejoin:round; stroke-width:2; stroke-opacity:0.1; fill:none" points="685.175,1423.18 685.175,47.2441 "/>
<polyline clip-path="url(#clip692)" style="stroke:#000000; stroke-linecap:round; stroke-linejoin:round; stroke-width:2; stroke-opacity:0.1; fill:none" points="1086.01,1423.18 1086.01,47.2441 "/>
<polyline clip-path="url(#clip692)" style="stroke:#000000; stroke-linecap:round; stroke-linejoin:round; stroke-width:2; stroke-opacity:0.1; fill:none" points="1486.84,1423.18 1486.84,47.2441 "/>
<polyline clip-path="url(#clip692)" style="stroke:#000000; stroke-linecap:round; stroke-linejoin:round; stroke-width:2; stroke-opacity:0.1; fill:none" points="1887.67,1423.18 1887.67,47.2441 "/>
<polyline clip-path="url(#clip692)" style="stroke:#000000; stroke-linecap:round; stroke-linejoin:round; stroke-width:2; stroke-opacity:0.1; fill:none" points="2288.5,1423.18 2288.5,47.2441 "/>
<polyline clip-path="url(#clip690)" style="stroke:#000000; stroke-linecap:round; stroke-linejoin:round; stroke-width:4; stroke-opacity:1; fill:none" points="224.098,1423.18 2352.76,1423.18 "/>
<polyline clip-path="url(#clip690)" style="stroke:#000000; stroke-linecap:round; stroke-linejoin:round; stroke-width:4; stroke-opacity:1; fill:none" points="284.343,1423.18 284.343,1404.28 "/>
<polyline clip-path="url(#clip690)" style="stroke:#000000; stroke-linecap:round; stroke-linejoin:round; stroke-width:4; stroke-opacity:1; fill:none" points="685.175,1423.18 685.175,1404.28 "/>
<polyline clip-path="url(#clip690)" style="stroke:#000000; stroke-linecap:round; stroke-linejoin:round; stroke-width:4; stroke-opacity:1; fill:none" points="1086.01,1423.18 1086.01,1404.28 "/>
<polyline clip-path="url(#clip690)" style="stroke:#000000; stroke-linecap:round; stroke-linejoin:round; stroke-width:4; stroke-opacity:1; fill:none" points="1486.84,1423.18 1486.84,1404.28 "/>
<polyline clip-path="url(#clip690)" style="stroke:#000000; stroke-linecap:round; stroke-linejoin:round; stroke-width:4; stroke-opacity:1; fill:none" points="1887.67,1423.18 1887.67,1404.28 "/>
<polyline clip-path="url(#clip690)" style="stroke:#000000; stroke-linecap:round; stroke-linejoin:round; stroke-width:4; stroke-opacity:1; fill:none" points="2288.5,1423.18 2288.5,1404.28 "/>
<path clip-path="url(#clip690)" d="M261.727 1454.1 Q258.116 1454.1 256.288 1457.66 Q254.482 1461.2 254.482 1468.33 Q254.482 1475.44 256.288 1479.01 Q258.116 1482.55 261.727 1482.55 Q265.362 1482.55 267.167 1479.01 Q268.996 1475.44 268.996 1468.33 Q268.996 1461.2 267.167 1457.66 Q265.362 1454.1 261.727 1454.1 M261.727 1450.39 Q267.537 1450.39 270.593 1455 Q273.672 1459.58 273.672 1468.33 Q273.672 1477.06 270.593 1481.67 Q267.537 1486.25 261.727 1486.25 Q255.917 1486.25 252.838 1481.67 Q249.783 1477.06 249.783 1468.33 Q249.783 1459.58 252.838 1455 Q255.917 1450.39 261.727 1450.39 Z" fill="#000000" fill-rule="nonzero" fill-opacity="1" /><path clip-path="url(#clip690)" d="M281.889 1479.7 L286.773 1479.7 L286.773 1485.58 L281.889 1485.58 L281.889 1479.7 Z" fill="#000000" fill-rule="nonzero" fill-opacity="1" /><path clip-path="url(#clip690)" d="M306.959 1454.1 Q303.347 1454.1 301.519 1457.66 Q299.713 1461.2 299.713 1468.33 Q299.713 1475.44 301.519 1479.01 Q303.347 1482.55 306.959 1482.55 Q310.593 1482.55 312.398 1479.01 Q314.227 1475.44 314.227 1468.33 Q314.227 1461.2 312.398 1457.66 Q310.593 1454.1 306.959 1454.1 M306.959 1450.39 Q312.769 1450.39 315.824 1455 Q318.903 1459.58 318.903 1468.33 Q318.903 1477.06 315.824 1481.67 Q312.769 1486.25 306.959 1486.25 Q301.148 1486.25 298.07 1481.67 Q295.014 1477.06 295.014 1468.33 Q295.014 1459.58 298.07 1455 Q301.148 1450.39 306.959 1450.39 Z" fill="#000000" fill-rule="nonzero" fill-opacity="1" /><path clip-path="url(#clip690)" d="M663.057 1454.1 Q659.446 1454.1 657.617 1457.66 Q655.812 1461.2 655.812 1468.33 Q655.812 1475.44 657.617 1479.01 Q659.446 1482.55 663.057 1482.55 Q666.691 1482.55 668.497 1479.01 Q670.325 1475.44 670.325 1468.33 Q670.325 1461.2 668.497 1457.66 Q666.691 1454.1 663.057 1454.1 M663.057 1450.39 Q668.867 1450.39 671.923 1455 Q675.001 1459.58 675.001 1468.33 Q675.001 1477.06 671.923 1481.67 Q668.867 1486.25 663.057 1486.25 Q657.247 1486.25 654.168 1481.67 Q651.113 1477.06 651.113 1468.33 Q651.113 1459.58 654.168 1455 Q657.247 1450.39 663.057 1450.39 Z" fill="#000000" fill-rule="nonzero" fill-opacity="1" /><path clip-path="url(#clip690)" d="M683.219 1479.7 L688.103 1479.7 L688.103 1485.58 L683.219 1485.58 L683.219 1479.7 Z" fill="#000000" fill-rule="nonzero" fill-opacity="1" /><path clip-path="url(#clip690)" d="M698.334 1451.02 L716.691 1451.02 L716.691 1454.96 L702.617 1454.96 L702.617 1463.43 Q703.635 1463.08 704.654 1462.92 Q705.672 1462.73 706.691 1462.73 Q712.478 1462.73 715.858 1465.9 Q719.237 1469.08 719.237 1474.49 Q719.237 1480.07 715.765 1483.17 Q712.293 1486.25 705.973 1486.25 Q703.797 1486.25 701.529 1485.88 Q699.284 1485.51 696.876 1484.77 L696.876 1480.07 Q698.959 1481.2 701.182 1481.76 Q703.404 1482.32 705.881 1482.32 Q709.885 1482.32 712.223 1480.21 Q714.561 1478.1 714.561 1474.49 Q714.561 1470.88 712.223 1468.77 Q709.885 1466.67 705.881 1466.67 Q704.006 1466.67 702.131 1467.08 Q700.279 1467.5 698.334 1468.38 L698.334 1451.02 Z" fill="#000000" fill-rule="nonzero" fill-opacity="1" /><path clip-path="url(#clip690)" d="M1053.16 1481.64 L1060.8 1481.64 L1060.8 1455.28 L1052.49 1456.95 L1052.49 1452.69 L1060.75 1451.02 L1065.43 1451.02 L1065.43 1481.64 L1073.07 1481.64 L1073.07 1485.58 L1053.16 1485.58 L1053.16 1481.64 Z" fill="#000000" fill-rule="nonzero" fill-opacity="1" /><path clip-path="url(#clip690)" d="M1082.51 1479.7 L1087.4 1479.7 L1087.4 1485.58 L1082.51 1485.58 L1082.51 1479.7 Z" fill="#000000" fill-rule="nonzero" fill-opacity="1" /><path clip-path="url(#clip690)" d="M1107.58 1454.1 Q1103.97 1454.1 1102.14 1457.66 Q1100.34 1461.2 1100.34 1468.33 Q1100.34 1475.44 1102.14 1479.01 Q1103.97 1482.55 1107.58 1482.55 Q1111.21 1482.55 1113.02 1479.01 Q1114.85 1475.44 1114.85 1468.33 Q1114.85 1461.2 1113.02 1457.66 Q1111.21 1454.1 1107.58 1454.1 M1107.58 1450.39 Q1113.39 1450.39 1116.45 1455 Q1119.53 1459.58 1119.53 1468.33 Q1119.53 1477.06 1116.45 1481.67 Q1113.39 1486.25 1107.58 1486.25 Q1101.77 1486.25 1098.69 1481.67 Q1095.64 1477.06 1095.64 1468.33 Q1095.64 1459.58 1098.69 1455 Q1101.77 1450.39 1107.58 1450.39 Z" fill="#000000" fill-rule="nonzero" fill-opacity="1" /><path clip-path="url(#clip690)" d="M1454.49 1481.64 L1462.13 1481.64 L1462.13 1455.28 L1453.82 1456.95 L1453.82 1452.69 L1462.08 1451.02 L1466.76 1451.02 L1466.76 1481.64 L1474.4 1481.64 L1474.4 1485.58 L1454.49 1485.58 L1454.49 1481.64 Z" fill="#000000" fill-rule="nonzero" fill-opacity="1" /><path clip-path="url(#clip690)" d="M1483.84 1479.7 L1488.73 1479.7 L1488.73 1485.58 L1483.84 1485.58 L1483.84 1479.7 Z" fill="#000000" fill-rule="nonzero" fill-opacity="1" /><path clip-path="url(#clip690)" d="M1498.96 1451.02 L1517.31 1451.02 L1517.31 1454.96 L1503.24 1454.96 L1503.24 1463.43 Q1504.26 1463.08 1505.28 1462.92 Q1506.29 1462.73 1507.31 1462.73 Q1513.1 1462.73 1516.48 1465.9 Q1519.86 1469.08 1519.86 1474.49 Q1519.86 1480.07 1516.39 1483.17 Q1512.91 1486.25 1506.6 1486.25 Q1504.42 1486.25 1502.15 1485.88 Q1499.91 1485.51 1497.5 1484.77 L1497.5 1480.07 Q1499.58 1481.2 1501.8 1481.76 Q1504.03 1482.32 1506.5 1482.32 Q1510.51 1482.32 1512.85 1480.21 Q1515.18 1478.1 1515.18 1474.49 Q1515.18 1470.88 1512.85 1468.77 Q1510.51 1466.67 1506.5 1466.67 Q1504.63 1466.67 1502.75 1467.08 Q1500.9 1467.5 1498.96 1468.38 L1498.96 1451.02 Z" fill="#000000" fill-rule="nonzero" fill-opacity="1" /><path clip-path="url(#clip690)" d="M1858.91 1481.64 L1875.23 1481.64 L1875.23 1485.58 L1853.28 1485.58 L1853.28 1481.64 Q1855.95 1478.89 1860.53 1474.26 Q1865.14 1469.61 1866.32 1468.27 Q1868.56 1465.74 1869.44 1464.01 Q1870.34 1462.25 1870.34 1460.56 Q1870.34 1457.8 1868.4 1456.07 Q1866.48 1454.33 1863.38 1454.33 Q1861.18 1454.33 1858.72 1455.09 Q1856.29 1455.86 1853.52 1457.41 L1853.52 1452.69 Q1856.34 1451.55 1858.79 1450.97 Q1861.25 1450.39 1863.28 1450.39 Q1868.65 1450.39 1871.85 1453.08 Q1875.04 1455.77 1875.04 1460.26 Q1875.04 1462.39 1874.23 1464.31 Q1873.45 1466.2 1871.34 1468.8 Q1870.76 1469.47 1867.66 1472.69 Q1864.56 1475.88 1858.91 1481.64 Z" fill="#000000" fill-rule="nonzero" fill-opacity="1" /><path clip-path="url(#clip690)" d="M1885.04 1479.7 L1889.93 1479.7 L1889.93 1485.58 L1885.04 1485.58 L1885.04 1479.7 Z" fill="#000000" fill-rule="nonzero" fill-opacity="1" /><path clip-path="url(#clip690)" d="M1910.11 1454.1 Q1906.5 1454.1 1904.67 1457.66 Q1902.87 1461.2 1902.87 1468.33 Q1902.87 1475.44 1904.67 1479.01 Q1906.5 1482.55 1910.11 1482.55 Q1913.75 1482.55 1915.55 1479.01 Q1917.38 1475.44 1917.38 1468.33 Q1917.38 1461.2 1915.55 1457.66 Q1913.75 1454.1 1910.11 1454.1 M1910.11 1450.39 Q1915.92 1450.39 1918.98 1455 Q1922.06 1459.58 1922.06 1468.33 Q1922.06 1477.06 1918.98 1481.67 Q1915.92 1486.25 1910.11 1486.25 Q1904.3 1486.25 1901.22 1481.67 Q1898.17 1477.06 1898.17 1468.33 Q1898.17 1459.58 1901.22 1455 Q1904.3 1450.39 1910.11 1450.39 Z" fill="#000000" fill-rule="nonzero" fill-opacity="1" /><path clip-path="url(#clip690)" d="M2260.24 1481.64 L2276.56 1481.64 L2276.56 1485.58 L2254.61 1485.58 L2254.61 1481.64 Q2257.28 1478.89 2261.86 1474.26 Q2266.47 1469.61 2267.65 1468.27 Q2269.89 1465.74 2270.77 1464.01 Q2271.67 1462.25 2271.67 1460.56 Q2271.67 1457.8 2269.73 1456.07 Q2267.81 1454.33 2264.71 1454.33 Q2262.51 1454.33 2260.05 1455.09 Q2257.62 1455.86 2254.85 1457.41 L2254.85 1452.69 Q2257.67 1451.55 2260.12 1450.97 Q2262.58 1450.39 2264.61 1450.39 Q2269.98 1450.39 2273.18 1453.08 Q2276.37 1455.77 2276.37 1460.26 Q2276.37 1462.39 2275.56 1464.31 Q2274.78 1466.2 2272.67 1468.8 Q2272.09 1469.47 2268.99 1472.69 Q2265.89 1475.88 2260.24 1481.64 Z" fill="#000000" fill-rule="nonzero" fill-opacity="1" /><path clip-path="url(#clip690)" d="M2286.37 1479.7 L2291.26 1479.7 L2291.26 1485.58 L2286.37 1485.58 L2286.37 1479.7 Z" fill="#000000" fill-rule="nonzero" fill-opacity="1" /><path clip-path="url(#clip690)" d="M2301.49 1451.02 L2319.84 1451.02 L2319.84 1454.96 L2305.77 1454.96 L2305.77 1463.43 Q2306.79 1463.08 2307.81 1462.92 Q2308.83 1462.73 2309.85 1462.73 Q2315.63 1462.73 2319.01 1465.9 Q2322.39 1469.08 2322.39 1474.49 Q2322.39 1480.07 2318.92 1483.17 Q2315.45 1486.25 2309.13 1486.25 Q2306.95 1486.25 2304.68 1485.88 Q2302.44 1485.51 2300.03 1484.77 L2300.03 1480.07 Q2302.11 1481.2 2304.34 1481.76 Q2306.56 1482.32 2309.03 1482.32 Q2313.04 1482.32 2315.38 1480.21 Q2317.72 1478.1 2317.72 1474.49 Q2317.72 1470.88 2315.38 1468.77 Q2313.04 1466.67 2309.03 1466.67 Q2307.16 1466.67 2305.28 1467.08 Q2303.43 1467.5 2301.49 1468.38 L2301.49 1451.02 Z" fill="#000000" fill-rule="nonzero" fill-opacity="1" /><path clip-path="url(#clip690)" d="M1296.9 1531.91 Q1296.9 1532.81 1296.48 1533.04 Q1296.06 1533.23 1294.9 1533.23 L1288.72 1533.23 L1283.82 1552.69 Q1283.44 1554.39 1283.44 1555.84 Q1283.44 1557.45 1283.92 1558.16 Q1284.43 1558.87 1285.5 1558.87 Q1287.59 1558.87 1289.84 1556.97 Q1292.13 1555.07 1294.06 1550.43 Q1294.32 1549.82 1294.45 1549.69 Q1294.61 1549.53 1295.03 1549.53 Q1295.84 1549.53 1295.84 1550.17 Q1295.84 1550.4 1295.38 1551.43 Q1294.97 1552.46 1294.03 1553.97 Q1293.13 1555.49 1291.94 1556.9 Q1290.78 1558.32 1289.01 1559.35 Q1287.24 1560.35 1285.34 1560.35 Q1282.66 1560.35 1280.96 1558.64 Q1279.28 1556.94 1279.28 1554.26 Q1279.28 1553.39 1279.96 1550.62 Q1280.63 1547.82 1284.31 1533.23 L1278.48 1533.23 Q1277.67 1533.23 1277.35 1533.2 Q1277.06 1533.17 1276.83 1533.01 Q1276.64 1532.81 1276.64 1532.43 Q1276.64 1531.82 1276.9 1531.56 Q1277.16 1531.27 1277.48 1531.24 Q1277.83 1531.17 1278.64 1531.17 L1284.82 1531.17 L1287.4 1520.71 Q1287.65 1519.67 1288.3 1519.09 Q1288.98 1518.48 1289.36 1518.42 Q1289.75 1518.32 1290.04 1518.32 Q1290.91 1518.32 1291.42 1518.81 Q1291.94 1519.26 1291.94 1520.09 Q1291.94 1520.54 1289.23 1531.17 L1295.03 1531.17 Q1295.77 1531.17 1296.06 1531.2 Q1296.38 1531.24 1296.64 1531.4 Q1296.9 1531.56 1296.9 1531.91 Z" fill="#000000" fill-rule="nonzero" fill-opacity="1" /><polyline clip-path="url(#clip692)" style="stroke:#000000; stroke-linecap:round; stroke-linejoin:round; stroke-width:2; stroke-opacity:0.1; fill:none" points="224.098,1137.68 2352.76,1137.68 "/>
<polyline clip-path="url(#clip692)" style="stroke:#000000; stroke-linecap:round; stroke-linejoin:round; stroke-width:2; stroke-opacity:0.1; fill:none" points="224.098,838.032 2352.76,838.032 "/>
<polyline clip-path="url(#clip692)" style="stroke:#000000; stroke-linecap:round; stroke-linejoin:round; stroke-width:2; stroke-opacity:0.1; fill:none" points="224.098,538.381 2352.76,538.381 "/>
<polyline clip-path="url(#clip692)" style="stroke:#000000; stroke-linecap:round; stroke-linejoin:round; stroke-width:2; stroke-opacity:0.1; fill:none" points="224.098,238.729 2352.76,238.729 "/>
<polyline clip-path="url(#clip690)" style="stroke:#000000; stroke-linecap:round; stroke-linejoin:round; stroke-width:4; stroke-opacity:1; fill:none" points="224.098,1423.18 224.098,47.2441 "/>
<polyline clip-path="url(#clip690)" style="stroke:#000000; stroke-linecap:round; stroke-linejoin:round; stroke-width:4; stroke-opacity:1; fill:none" points="224.098,1137.68 242.996,1137.68 "/>
<polyline clip-path="url(#clip690)" style="stroke:#000000; stroke-linecap:round; stroke-linejoin:round; stroke-width:4; stroke-opacity:1; fill:none" points="224.098,838.032 242.996,838.032 "/>
<polyline clip-path="url(#clip690)" style="stroke:#000000; stroke-linecap:round; stroke-linejoin:round; stroke-width:4; stroke-opacity:1; fill:none" points="224.098,538.381 242.996,538.381 "/>
<polyline clip-path="url(#clip690)" style="stroke:#000000; stroke-linecap:round; stroke-linejoin:round; stroke-width:4; stroke-opacity:1; fill:none" points="224.098,238.729 242.996,238.729 "/>
<path clip-path="url(#clip690)" d="M51.9875 1138.14 L81.6633 1138.14 L81.6633 1142.07 L51.9875 1142.07 L51.9875 1138.14 Z" fill="#000000" fill-rule="nonzero" fill-opacity="1" /><path clip-path="url(#clip690)" d="M101.756 1123.48 Q98.1447 1123.48 96.316 1127.05 Q94.5104 1130.59 94.5104 1137.72 Q94.5104 1144.83 96.316 1148.39 Q98.1447 1151.93 101.756 1151.93 Q105.39 1151.93 107.196 1148.39 Q109.024 1144.83 109.024 1137.72 Q109.024 1130.59 107.196 1127.05 Q105.39 1123.48 101.756 1123.48 M101.756 1119.78 Q107.566 1119.78 110.621 1124.39 Q113.7 1128.97 113.7 1137.72 Q113.7 1146.45 110.621 1151.05 Q107.566 1155.64 101.756 1155.64 Q95.9456 1155.64 92.8669 1151.05 Q89.8114 1146.45 89.8114 1137.72 Q89.8114 1128.97 92.8669 1124.39 Q95.9456 1119.78 101.756 1119.78 Z" fill="#000000" fill-rule="nonzero" fill-opacity="1" /><path clip-path="url(#clip690)" d="M121.918 1149.08 L126.802 1149.08 L126.802 1154.96 L121.918 1154.96 L121.918 1149.08 Z" fill="#000000" fill-rule="nonzero" fill-opacity="1" /><path clip-path="url(#clip690)" d="M137.797 1151.03 L145.436 1151.03 L145.436 1124.66 L137.126 1126.33 L137.126 1122.07 L145.39 1120.4 L150.066 1120.4 L150.066 1151.03 L157.705 1151.03 L157.705 1154.96 L137.797 1154.96 L137.797 1151.03 Z" fill="#000000" fill-rule="nonzero" fill-opacity="1" /><path clip-path="url(#clip690)" d="M167.195 1120.4 L185.552 1120.4 L185.552 1124.34 L171.478 1124.34 L171.478 1132.81 Q172.496 1132.46 173.515 1132.3 Q174.533 1132.12 175.552 1132.12 Q181.339 1132.12 184.718 1135.29 Q188.098 1138.46 188.098 1143.88 Q188.098 1149.46 184.626 1152.56 Q181.153 1155.64 174.834 1155.64 Q172.658 1155.64 170.39 1155.27 Q168.144 1154.89 165.737 1154.15 L165.737 1149.46 Q167.82 1150.59 170.042 1151.14 Q172.265 1151.7 174.741 1151.7 Q178.746 1151.7 181.084 1149.59 Q183.422 1147.49 183.422 1143.88 Q183.422 1140.27 181.084 1138.16 Q178.746 1136.05 174.741 1136.05 Q172.866 1136.05 170.991 1136.47 Q169.14 1136.89 167.195 1137.77 L167.195 1120.4 Z" fill="#000000" fill-rule="nonzero" fill-opacity="1" /><path clip-path="url(#clip690)" d="M50.9921 838.484 L80.6679 838.484 L80.6679 842.419 L50.9921 842.419 L50.9921 838.484 Z" fill="#000000" fill-rule="nonzero" fill-opacity="1" /><path clip-path="url(#clip690)" d="M100.76 823.831 Q97.1493 823.831 95.3206 827.396 Q93.515 830.938 93.515 838.067 Q93.515 845.174 95.3206 848.738 Q97.1493 852.28 100.76 852.28 Q104.395 852.28 106.2 848.738 Q108.029 845.174 108.029 838.067 Q108.029 830.938 106.2 827.396 Q104.395 823.831 100.76 823.831 M100.76 820.127 Q106.571 820.127 109.626 824.734 Q112.705 829.317 112.705 838.067 Q112.705 846.794 109.626 851.4 Q106.571 855.984 100.76 855.984 Q94.9502 855.984 91.8715 851.4 Q88.816 846.794 88.816 838.067 Q88.816 829.317 91.8715 824.734 Q94.9502 820.127 100.76 820.127 Z" fill="#000000" fill-rule="nonzero" fill-opacity="1" /><path clip-path="url(#clip690)" d="M120.922 849.433 L125.807 849.433 L125.807 855.312 L120.922 855.312 L120.922 849.433 Z" fill="#000000" fill-rule="nonzero" fill-opacity="1" /><path clip-path="url(#clip690)" d="M136.802 851.377 L144.441 851.377 L144.441 825.012 L136.131 826.678 L136.131 822.419 L144.394 820.752 L149.07 820.752 L149.07 851.377 L156.709 851.377 L156.709 855.312 L136.802 855.312 L136.802 851.377 Z" fill="#000000" fill-rule="nonzero" fill-opacity="1" /><path clip-path="url(#clip690)" d="M176.153 823.831 Q172.542 823.831 170.714 827.396 Q168.908 830.938 168.908 838.067 Q168.908 845.174 170.714 848.738 Q172.542 852.28 176.153 852.28 Q179.788 852.28 181.593 848.738 Q183.422 845.174 183.422 838.067 Q183.422 830.938 181.593 827.396 Q179.788 823.831 176.153 823.831 M176.153 820.127 Q181.964 820.127 185.019 824.734 Q188.098 829.317 188.098 838.067 Q188.098 846.794 185.019 851.4 Q181.964 855.984 176.153 855.984 Q170.343 855.984 167.265 851.4 Q164.209 846.794 164.209 838.067 Q164.209 829.317 167.265 824.734 Q170.343 820.127 176.153 820.127 Z" fill="#000000" fill-rule="nonzero" fill-opacity="1" /><path clip-path="url(#clip690)" d="M51.9875 538.832 L81.6633 538.832 L81.6633 542.767 L51.9875 542.767 L51.9875 538.832 Z" fill="#000000" fill-rule="nonzero" fill-opacity="1" /><path clip-path="url(#clip690)" d="M101.756 524.179 Q98.1447 524.179 96.316 527.744 Q94.5104 531.286 94.5104 538.415 Q94.5104 545.522 96.316 549.087 Q98.1447 552.628 101.756 552.628 Q105.39 552.628 107.196 549.087 Q109.024 545.522 109.024 538.415 Q109.024 531.286 107.196 527.744 Q105.39 524.179 101.756 524.179 M101.756 520.476 Q107.566 520.476 110.621 525.082 Q113.7 529.665 113.7 538.415 Q113.7 547.142 110.621 551.749 Q107.566 556.332 101.756 556.332 Q95.9456 556.332 92.8669 551.749 Q89.8114 547.142 89.8114 538.415 Q89.8114 529.665 92.8669 525.082 Q95.9456 520.476 101.756 520.476 Z" fill="#000000" fill-rule="nonzero" fill-opacity="1" /><path clip-path="url(#clip690)" d="M121.918 549.781 L126.802 549.781 L126.802 555.661 L121.918 555.661 L121.918 549.781 Z" fill="#000000" fill-rule="nonzero" fill-opacity="1" /><path clip-path="url(#clip690)" d="M146.987 524.179 Q143.376 524.179 141.547 527.744 Q139.742 531.286 139.742 538.415 Q139.742 545.522 141.547 549.087 Q143.376 552.628 146.987 552.628 Q150.621 552.628 152.427 549.087 Q154.255 545.522 154.255 538.415 Q154.255 531.286 152.427 527.744 Q150.621 524.179 146.987 524.179 M146.987 520.476 Q152.797 520.476 155.853 525.082 Q158.931 529.665 158.931 538.415 Q158.931 547.142 155.853 551.749 Q152.797 556.332 146.987 556.332 Q141.177 556.332 138.098 551.749 Q135.043 547.142 135.043 538.415 Q135.043 529.665 138.098 525.082 Q141.177 520.476 146.987 520.476 Z" fill="#000000" fill-rule="nonzero" fill-opacity="1" /><path clip-path="url(#clip690)" d="M167.195 521.101 L185.552 521.101 L185.552 525.036 L171.478 525.036 L171.478 533.508 Q172.496 533.161 173.515 532.999 Q174.533 532.813 175.552 532.813 Q181.339 532.813 184.718 535.985 Q188.098 539.156 188.098 544.573 Q188.098 550.151 184.626 553.253 Q181.153 556.332 174.834 556.332 Q172.658 556.332 170.39 555.961 Q168.144 555.591 165.737 554.85 L165.737 550.151 Q167.82 551.286 170.042 551.841 Q172.265 552.397 174.741 552.397 Q178.746 552.397 181.084 550.29 Q183.422 548.184 183.422 544.573 Q183.422 540.962 181.084 538.855 Q178.746 536.749 174.741 536.749 Q172.866 536.749 170.991 537.165 Q169.14 537.582 167.195 538.462 L167.195 521.101 Z" fill="#000000" fill-rule="nonzero" fill-opacity="1" /><path clip-path="url(#clip690)" d="M100.76 224.527 Q97.1493 224.527 95.3206 228.092 Q93.515 231.634 93.515 238.763 Q93.515 245.87 95.3206 249.435 Q97.1493 252.976 100.76 252.976 Q104.395 252.976 106.2 249.435 Q108.029 245.87 108.029 238.763 Q108.029 231.634 106.2 228.092 Q104.395 224.527 100.76 224.527 M100.76 220.824 Q106.571 220.824 109.626 225.43 Q112.705 230.013 112.705 238.763 Q112.705 247.49 109.626 252.097 Q106.571 256.68 100.76 256.68 Q94.9502 256.68 91.8715 252.097 Q88.816 247.49 88.816 238.763 Q88.816 230.013 91.8715 225.43 Q94.9502 220.824 100.76 220.824 Z" fill="#000000" fill-rule="nonzero" fill-opacity="1" /><path clip-path="url(#clip690)" d="M120.922 250.129 L125.807 250.129 L125.807 256.009 L120.922 256.009 L120.922 250.129 Z" fill="#000000" fill-rule="nonzero" fill-opacity="1" /><path clip-path="url(#clip690)" d="M145.992 224.527 Q142.381 224.527 140.552 228.092 Q138.746 231.634 138.746 238.763 Q138.746 245.87 140.552 249.435 Q142.381 252.976 145.992 252.976 Q149.626 252.976 151.431 249.435 Q153.26 245.87 153.26 238.763 Q153.26 231.634 151.431 228.092 Q149.626 224.527 145.992 224.527 M145.992 220.824 Q151.802 220.824 154.857 225.43 Q157.936 230.013 157.936 238.763 Q157.936 247.49 154.857 252.097 Q151.802 256.68 145.992 256.68 Q140.181 256.68 137.103 252.097 Q134.047 247.49 134.047 238.763 Q134.047 230.013 137.103 225.43 Q140.181 220.824 145.992 220.824 Z" fill="#000000" fill-rule="nonzero" fill-opacity="1" /><path clip-path="url(#clip690)" d="M176.153 224.527 Q172.542 224.527 170.714 228.092 Q168.908 231.634 168.908 238.763 Q168.908 245.87 170.714 249.435 Q172.542 252.976 176.153 252.976 Q179.788 252.976 181.593 249.435 Q183.422 245.87 183.422 238.763 Q183.422 231.634 181.593 228.092 Q179.788 224.527 176.153 224.527 M176.153 220.824 Q181.964 220.824 185.019 225.43 Q188.098 230.013 188.098 238.763 Q188.098 247.49 185.019 252.097 Q181.964 256.68 176.153 256.68 Q170.343 256.68 167.265 252.097 Q164.209 247.49 164.209 238.763 Q164.209 230.013 167.265 225.43 Q170.343 220.824 176.153 220.824 Z" fill="#000000" fill-rule="nonzero" fill-opacity="1" /><polyline clip-path="url(#clip692)" style="stroke:#009af9; stroke-linecap:round; stroke-linejoin:round; stroke-width:4; stroke-opacity:1; fill:none" points="284.343,238.729 290.355,238.712 296.368,238.67 302.38,238.202 308.393,237.429 314.405,236.782 320.418,236.027 326.43,235.41 332.443,235.256 338.455,235.428 344.468,235.381 350.48,234.841 356.493,233.923 362.505,233.005 368.518,232.393 374.53,232.121 380.543,232.248 386.555,232.69 392.568,233.418 398.58,234.331 404.592,235.206 410.605,235.894 416.617,236.549 422.63,237.342 428.642,238.295 434.655,239.113 440.667,240.052 446.68,241.063 452.692,241.859 458.705,242.763 464.717,243.514 470.73,244.06 476.742,244.703 482.755,245.453 488.767,246.447 494.78,247.529 500.792,248.685 506.805,249.721 512.817,250.759 518.83,251.945 524.842,253.044 530.855,254.319 536.867,255.593 542.88,256.572 548.892,257.348 554.904,258.023 560.917,258.745 566.929,259.437 572.942,259.715 578.954,259.863 584.967,260.082 590.979,260.169 596.992,260 603.004,259.709 609.017,259.395 615.029,258.98 621.042,258.518 627.054,258.167 633.067,257.971 639.079,257.799 645.092,257.669 651.104,257.454 657.117,257.02 663.129,256.627 669.142,256.257 675.154,256.076 681.167,256.203 687.179,256.441 693.191,256.892 699.204,257.522 705.216,258.374 711.229,259.811 717.241,262.067 723.254,264.855 729.266,267.765 735.279,270.627 741.291,273.599 747.304,276.975 753.316,280.715 759.329,284.637 765.341,288.766 771.354,293.034 777.366,297.393 783.379,301.518 789.391,305.189 795.404,308.606 801.416,311.683 807.429,314.371 813.441,317.019 819.454,319.742 825.466,322.213 831.478,324.652 837.491,327.275 843.503,329.857 849.516,332.286 855.528,334.479 861.541,336.506 867.553,338.166 873.566,339.606 879.578,341.058 885.591,342.582 891.603,344.132 897.616,345.581 903.628,347.241 909.641,349.137 915.653,350.939 921.666,352.793 927.678,354.746 933.691,356.474 939.703,357.75 945.716,358.744 951.728,359.796 957.741,360.804 963.753,362.03 969.766,363.554 975.778,364.926 981.79,366.343 987.803,367.883 993.815,369.721 999.828,371.977 1005.84,373.934 1011.85,375.855 1017.87,378.038 1023.88,380.276 1029.89,382.399 1035.9,384.36 1041.92,386.576 1047.93,388.996 1053.94,391.88 1059.95,395.193 1065.97,398.385 1071.98,401.533 1077.99,404.616 1084,407.577 1090.02,410.299 1096.03,412.561 1102.04,414.735 1108.05,417.176 1114.07,419.651 1120.08,422.327 1126.09,424.954 1132.1,427.329 1138.11,429.841 1144.13,432.293 1150.14,434.601 1156.15,436.972 1162.16,439.285 1168.18,441.838 1174.19,445.067 1180.2,448.656 1186.21,452.202 1192.23,455.334 1198.24,458.139 1204.25,460.904 1210.26,463.442 1216.28,465.989 1222.29,468.623 1228.3,471.365 1234.31,474.58 1240.33,478.119 1246.34,481.43 1252.35,484.647 1258.36,487.944 1264.38,491.112 1270.39,494.288 1276.4,497.271 1282.41,499.936 1288.43,502.153 1294.44,503.886 1300.45,505.47 1306.46,507.088 1312.48,508.897 1318.49,511.022 1324.5,513.316 1330.51,515.369 1336.53,517.23 1342.54,519.351 1348.55,521.5 1354.56,523.404 1360.58,525.269 1366.59,527.289 1372.6,529.633 1378.61,531.902 1384.63,534.095 1390.64,536.507 1396.65,538.901 1402.66,541.158 1408.68,543.38 1414.69,545.376 1420.7,546.971 1426.71,548.751 1432.73,550.75 1438.74,552.72 1444.75,554.615 1450.76,556.617 1456.78,559.173 1462.79,561.963 1468.8,564.779 1474.81,567.702 1480.83,570.661 1486.84,573.452 1492.85,576.254 1498.86,579.372 1504.88,582.558 1510.89,585.778 1516.9,589.147 1522.91,592.568 1528.93,596.111 1534.94,599.835 1540.95,603.535 1546.96,606.944 1552.98,610.544 1558.99,614.329 1565,618.202 1571.01,622.377 1577.03,626.843 1583.04,631.764 1589.05,636.637 1595.06,641.453 1601.08,646.595 1607.09,651.973 1613.1,657.405 1619.11,662.88 1625.13,668.443 1631.14,674.21 1637.15,680.172 1643.16,686.126 1649.18,692.203 1655.19,698.537 1661.2,704.989 1667.21,711.216 1673.23,717.145 1679.24,722.997 1685.25,728.951 1691.26,735.052 1697.28,741.297 1703.29,747.512 1709.3,753.615 1715.31,760.022 1721.33,766.566 1727.34,772.816 1733.35,778.924 1739.36,785.03 1745.38,791.238 1751.39,797.496 1757.4,803.518 1763.41,809.469 1769.43,815.515 1775.44,821.609 1781.45,827.89 1787.46,834.447 1793.48,841.171 1799.49,847.724 1805.5,854.093 1811.51,860.596 1817.53,867.085 1823.54,873.492 1829.55,879.966 1835.56,886.514 1841.57,892.85 1847.59,898.716 1853.6,904.536 1859.61,910.427 1865.62,916.232 1871.64,921.962 1877.65,927.548 1883.66,932.835 1889.67,937.92 1895.69,943.196 1901.7,948.667 1907.71,954.13 1913.72,959.689 1919.74,965.636 1925.75,971.937 1931.76,978.163 1937.77,984.174 1943.79,990.105 1949.8,995.991 1955.81,1002.05 1961.82,1008.31 1967.84,1014.79 1973.85,1021.58 1979.86,1028.29 1985.87,1034.99 1991.89,1041.76 1997.9,1048.91 2003.91,1056.77 2009.92,1064.65 2015.94,1072 2021.95,1079.24 2027.96,1086.62 2033.97,1094.14 2039.99,1102.15 2046,1110.3 2052.01,1118.5 2058.02,1126.95 2064.04,1135.28 2070.05,1143.04 2076.06,1150.36 2082.07,1157.6 2088.09,1164.82 2094.1,1171.8 2100.11,1178.65 2106.12,1185.32 2112.14,1191.77 2118.15,1198.37 2124.16,1205.33 2130.17,1212.63 2136.19,1220.11 2142.2,1227.55 2148.21,1234.67 2154.22,1241.8 2160.24,1248.98 2166.25,1256.38 2172.26,1264.09 2178.27,1271.82 2184.29,1279.45 2190.3,1286.58 2196.31,1293.35 2202.32,1300.11 2208.34,1306.92 2214.35,1313.77 2220.36,1320.38 2226.37,1326.75 2232.39,1332.68 2238.4,1338.12 2244.41,1343.64 2250.42,1349.08 2256.44,1354.33 2262.45,1359.57 2268.46,1364.75 2274.47,1369.9 2280.49,1374.8 2286.5,1379.47 2292.51,1384.24 "/>
<polyline clip-path="url(#clip692)" style="stroke:#e26f46; stroke-linecap:round; stroke-linejoin:round; stroke-width:4; stroke-opacity:1; fill:none" points="284.343,238.729 290.355,234.19 296.368,232.265 302.38,120.388 308.393,150.857 314.405,154.097 320.418,121.941 326.43,191.006 332.443,245.472 338.455,277.681 344.468,187.297 350.48,146.313 356.493,86.1857 362.505,146.647 368.518,167.596 374.53,237.349 380.543,273.896 386.555,321.362 392.568,350.349 398.58,370.552 404.592,340.027 410.605,321.056 416.617,331.162 422.63,357.635 428.642,374.014 434.655,321.51 440.667,406.304 446.68,340.901 452.692,348.679 458.705,369.909 464.717,307.759 470.73,315.28 476.742,333.671 482.755,343.932 488.767,398.506 494.78,367.534 500.792,417.997 506.805,335.728 512.817,418.643 518.83,375.167 524.842,395.257 530.855,422.2 536.867,395.026 542.88,343.365 548.892,341.1 554.904,316.267 560.917,353.817 566.929,308.305 572.942,243.29 578.954,273.624 584.967,262.222 590.979,238.309 596.992,194.042 603.004,205.793 609.017,187.973 615.029,178.877 621.042,175.367 627.054,208.533 633.067,216.742 639.079,214.854 645.092,227.696 651.104,192.47 657.117,169.46 663.129,202.965 669.142,175.934 675.154,253.364 681.167,257.863 687.179,283.134 693.191,314.442 699.204,331.124 705.216,373.554 711.229,487.037 717.241,591.992 723.254,629.045 729.266,624.453 735.279,616.173 741.291,653.63 747.304,724.196 753.316,750.608 759.329,772.621 765.341,806.092 771.354,809.479 777.366,830.27 783.379,747.259 789.391,709.163 795.404,679.486 801.416,618.542 807.429,575.71 813.441,607.725 819.454,595.899 825.466,540.375 831.478,587.598 837.491,589.253 843.503,576.916 849.516,548.14 855.528,514.182 861.541,503.9 867.553,415.985 873.566,445.469 879.578,419.334 885.591,464.571 891.603,426.119 897.616,437.729 903.628,482.385 909.641,500.602 915.653,457.605 921.666,514.229 927.678,484.015 933.691,454.322 939.703,363.274 945.716,379.296 951.728,378.555 957.741,367.917 963.753,436.242 969.766,447.79 975.778,395.377 981.79,460.026 987.803,428.087 993.815,539.563 999.828,539.345 1005.84,459.985 1011.85,529.831 1017.87,529.638 1023.88,544.777 1029.89,498.92 1035.9,501.377 1041.92,567.035 1047.93,555.797 1053.94,690.671 1059.95,670.153 1065.97,658.592 1071.98,658.324 1077.99,641.16 1084,625.891 1090.02,577.394 1096.03,503.29 1102.04,554.05 1108.05,574.281 1114.07,563.198 1120.08,627.816 1126.09,550.079 1132.1,560.712 1138.11,586.784 1144.13,544.556 1150.14,548.283 1156.15,561.347 1162.16,532.936 1168.18,625.304 1174.19,713.302 1180.2,721.314 1186.21,701.782 1192.23,610.717 1198.24,614.826 1204.25,600.016 1210.26,554.228 1216.28,602.419 1222.29,577.457 1228.3,631.125 1234.31,703.593 1240.33,717.631 1246.34,642.891 1252.35,692.303 1258.36,664.373 1264.38,657.814 1270.39,666.749 1276.4,606.173 1282.41,581.897 1288.43,486.731 1294.44,452.782 1300.45,447.219 1306.46,461.655 1312.48,498.163 1318.49,546.09 1324.5,542.915 1330.51,482.148 1336.53,491.455 1342.54,551.721 1348.55,498.76 1354.56,486.429 1360.58,488.313 1366.59,527.809 1372.6,574.777 1378.61,507.671 1384.63,554.541 1390.64,566.174 1396.65,549.693 1402.66,529.785 1408.68,540.062 1414.69,469.678 1420.7,433.177 1426.71,518.859 1432.73,491.62 1438.74,511.364 1444.75,471.287 1450.76,539.998 1456.78,619.13 1462.79,602.192 1468.8,626.287 1474.81,630.644 1480.83,635.898 1486.84,585.743 1492.85,638.981 1498.86,670.064 1504.88,656.784 1510.89,679.571 1516.9,696.123 1522.91,693.726 1528.93,728.536 1534.94,742.014 1540.95,722.101 1546.96,664.405 1552.98,772.885 1558.99,713.959 1565,796.418 1571.01,794.148 1577.03,874.361 1583.04,915.364 1589.05,861.637 1595.06,900.111 1601.08,948.462 1607.09,962.991 1613.1,963.16 1619.11,974.164 1625.13,986.98 1631.14,1028.12 1637.15,1039.25 1643.16,1025.95 1649.18,1071.98 1655.19,1094.74 1661.2,1103.08 1667.21,1035.05 1673.23,1023.43 1679.24,1014.45 1685.25,1050.94 1691.26,1053.25 1697.28,1089.66 1703.29,1045.14 1709.3,1059.71 1715.31,1126.27 1721.33,1096.35 1727.34,1047.62 1733.35,1058.66 1739.36,1047.13 1745.38,1085.87 1751.39,1060.39 1757.4,1022.92 1763.41,1041.45 1769.43,1048.15 1775.44,1054.49 1781.45,1097.76 1787.46,1128.36 1793.48,1142.05 1799.49,1082.96 1805.5,1092.95 1811.51,1118.61 1817.53,1089.19 1823.54,1096.78 1829.55,1107.19 1835.56,1116.32 1841.57,1050.78 1847.59,991.041 1853.6,1038.21 1859.61,1010.28 1865.62,1015.27 1871.64,990.22 1877.65,976.764 1883.66,910.59 1889.67,922.784 1895.69,961.652 1901.7,974.765 1907.71,959.521 1913.72,1000.32 1919.74,1062.88 1925.75,1094.94 1931.76,1042.75 1937.77,1037.66 1943.79,1021.4 1949.8,1025.5 1955.81,1067.29 1961.82,1079.05 1967.84,1126.42 1973.85,1161.84 1979.86,1105.39 1985.87,1158.89 1991.89,1125.42 1997.9,1257.7 2003.91,1314.72 2009.92,1264.96 2015.94,1171.31 2021.95,1237.28 2027.96,1209.21 2033.97,1272.24 2039.99,1342.3 2046,1309.36 2052.01,1354.51 2058.02,1375.93 2064.04,1322.43 2070.05,1225.44 2076.06,1204.04 2082.07,1201.89 2088.09,1202.72 2094.1,1135.98 2100.11,1166.97 2106.12,1090.78 2112.14,1104.7 2118.15,1132.65 2124.16,1203.11 2130.17,1220.89 2136.19,1250.43 2142.2,1211.93 2148.21,1163.09 2154.22,1216.73 2160.24,1174.02 2166.25,1278.04 2172.26,1255.31 2178.27,1282.29 2184.29,1230.12 2190.3,1149.18 2196.31,1133.93 2202.32,1144.04 2208.34,1151.15 2214.35,1152.75 2220.36,1085.97 2226.37,1090.46 2232.39,968.053 2238.4,960.522 2244.41,988.24 2250.42,941.095 2256.44,935.385 2262.45,940.729 2268.46,916.692 2274.47,934.818 2280.49,849.341 2286.5,872.575 2292.51,877.671 "/>
<path clip-path="url(#clip690)" d="M2045.67 248.629 L2281.8 248.629 L2281.8 93.1086 L2045.67 93.1086  Z" fill="#ffffff" fill-rule="evenodd" fill-opacity="1"/>
<polyline clip-path="url(#clip690)" style="stroke:#000000; stroke-linecap:round; stroke-linejoin:round; stroke-width:4; stroke-opacity:1; fill:none" points="2045.67,248.629 2281.8,248.629 2281.8,93.1086 2045.67,93.1086 2045.67,248.629 "/>
<polyline clip-path="url(#clip690)" style="stroke:#009af9; stroke-linecap:round; stroke-linejoin:round; stroke-width:4; stroke-opacity:1; fill:none" points="2069.32,144.949 2211.23,144.949 "/>
<path clip-path="url(#clip690)" d="M2257.02 131.203 Q2257.02 131.531 2256.81 132.304 L2252.22 150.62 Q2251.21 154.696 2247.93 157.554 Q2244.68 160.411 2240.98 160.411 Q2238.75 160.411 2237.32 159.217 Q2235.89 158.045 2235.89 156.242 Q2235.89 154.649 2236.74 153.876 Q2237.58 153.127 2238.59 153.127 Q2238.91 153.127 2239.27 153.22 Q2239.62 153.314 2239.99 153.712 Q2240.37 154.11 2240.37 154.79 Q2240.37 155.891 2239.41 156.757 Q2238.94 157.155 2238.49 157.249 Q2238.07 157.343 2237.35 157.343 Q2237.63 157.999 2238.14 158.444 Q2238.66 158.889 2239.24 159.053 Q2239.83 159.24 2240.2 159.287 Q2240.6 159.357 2240.98 159.357 Q2243.97 159.357 2246.27 156.336 Q2246.95 155.422 2247.44 154.509 Q2247.96 153.619 2248.33 152.518 Q2248.71 151.44 2248.87 150.855 Q2249.06 150.269 2249.38 148.934 Q2247.21 151.112 2244.54 151.112 Q2243.41 151.112 2242.4 150.808 Q2241.42 150.503 2240.55 149.871 Q2239.69 149.215 2239.17 148.067 Q2238.68 146.92 2238.68 145.397 Q2238.68 143.781 2239.31 141.579 Q2239.95 139.378 2241.47 135.326 Q2242.29 133.054 2242.29 131.953 Q2242.29 131.414 2242.17 131.086 Q2242.05 130.735 2241.82 130.618 Q2241.58 130.477 2241.44 130.454 Q2241.33 130.43 2241.09 130.43 Q2239.71 130.43 2238.42 131.836 Q2237.13 133.241 2236.24 136.38 Q2236.06 136.965 2235.94 137.106 Q2235.82 137.246 2235.47 137.246 Q2234.89 137.223 2234.89 136.754 Q2234.89 136.567 2235.1 135.841 Q2235.31 135.091 2235.8 133.991 Q2236.31 132.866 2237.02 131.859 Q2237.72 130.828 2238.82 130.102 Q2239.95 129.376 2241.23 129.376 Q2242.99 129.376 2244.07 130.524 Q2245.17 131.648 2245.17 133.311 Q2245.17 133.991 2244.98 134.6 Q2244.82 135.185 2244.21 136.754 Q2241.75 143.078 2241.75 146.17 Q2241.75 146.92 2241.87 147.552 Q2242.01 148.161 2242.31 148.77 Q2242.62 149.356 2243.22 149.707 Q2243.86 150.035 2244.72 150.035 Q2245.82 150.035 2246.85 149.52 Q2247.91 148.981 2248.56 148.255 Q2249.24 147.529 2249.64 146.92 Q2250.06 146.287 2250.16 145.959 L2252.31 137.34 L2253.27 133.499 Q2253.72 131.414 2253.93 130.899 Q2254.21 130.407 2254.7 130.149 Q2255.19 129.892 2255.61 129.892 Q2256.2 129.892 2256.6 130.243 Q2257.02 130.594 2257.02 131.203 Z" fill="#000000" fill-rule="nonzero" fill-opacity="1" /><polyline clip-path="url(#clip690)" style="stroke:#e26f46; stroke-linecap:round; stroke-linejoin:round; stroke-width:4; stroke-opacity:1; fill:none" points="2069.32,196.789 2211.23,196.789 "/>
<path clip-path="url(#clip690)" d="M2255.94 189.167 Q2255.94 189.776 2255.78 190.971 Q2255.61 192.165 2255.22 193.899 Q2254.82 195.632 2254.23 197.459 Q2253.67 199.286 2252.78 201.113 Q2251.89 202.916 2250.84 204.345 Q2249.78 205.774 2248.31 206.664 Q2246.83 207.554 2245.17 207.554 Q2244.4 207.554 2243.65 207.437 Q2242.9 207.32 2241.96 206.945 Q2241.02 206.57 2240.34 205.961 Q2239.66 205.329 2239.2 204.204 Q2238.73 203.08 2238.73 201.605 Q2238.73 200.082 2239.29 198.044 Q2239.87 195.983 2241.47 191.767 Q2242.29 189.589 2242.29 188.394 Q2242.29 187.856 2242.17 187.528 Q2242.05 187.176 2241.82 187.059 Q2241.58 186.919 2241.44 186.895 Q2241.33 186.872 2241.09 186.872 Q2239.8 186.872 2238.49 188.207 Q2237.18 189.542 2236.24 192.821 Q2236.06 193.407 2235.94 193.547 Q2235.82 193.688 2235.47 193.688 Q2234.89 193.664 2234.89 193.196 Q2234.89 193.055 2235.05 192.517 Q2235.21 191.955 2235.52 191.111 Q2235.82 190.245 2236.36 189.355 Q2236.9 188.441 2237.56 187.645 Q2238.24 186.848 2239.2 186.333 Q2240.16 185.818 2241.23 185.818 Q2242.99 185.818 2244.07 186.966 Q2245.17 188.09 2245.17 189.753 Q2245.17 190.666 2244.58 192.142 Q2243.6 194.812 2243.15 196.1 Q2242.71 197.389 2242.24 199.216 Q2241.8 201.042 2241.8 202.307 Q2241.8 204.228 2242.69 205.352 Q2243.58 206.476 2245.36 206.476 Q2246.95 206.476 2248.38 205.329 Q2249.83 204.158 2250.79 202.495 Q2251.75 200.808 2252.48 198.934 Q2253.2 197.037 2253.53 195.608 Q2253.88 194.156 2253.88 193.477 Q2253.88 191.111 2252.27 189.565 Q2251.82 189.12 2251.66 188.839 Q2251.49 188.558 2251.49 188.113 Q2251.49 187.293 2252.22 186.567 Q2252.97 185.818 2253.83 185.818 Q2254.63 185.818 2255.29 186.614 Q2255.94 187.411 2255.94 189.167 Z" fill="#000000" fill-rule="nonzero" fill-opacity="1" /></svg>
