<?xml version="1.0" encoding="utf-8"?>
<svg xmlns="http://www.w3.org/2000/svg" xmlns:xlink="http://www.w3.org/1999/xlink" width="600" height="400" viewBox="0 0 2400 1600">
<defs>
  <clipPath id="clip350">
    <rect x="0" y="0" width="2400" height="1600"/>
  </clipPath>
</defs>
<path clip-path="url(#clip350)" d="M0 1600 L2400 1600 L2400 0 L0 0  Z" fill="#ffffff" fill-rule="evenodd" fill-opacity="1"/>
<defs>
  <clipPath id="clip351">
    <rect x="480" y="0" width="1681" height="1600"/>
  </clipPath>
</defs>
<path clip-path="url(#clip350)" d="M222.501 1423.18 L2352.76 1423.18 L2352.76 47.2441 L222.501 47.2441  Z" fill="#ffffff" fill-rule="evenodd" fill-opacity="1"/>
<defs>
  <clipPath id="clip352">
    <rect x="222" y="47" width="2131" height="1377"/>
  </clipPath>
</defs>
<polyline clip-path="url(#clip352)" style="stroke:#000000; stroke-linecap:round; stroke-linejoin:round; stroke-width:2; stroke-opacity:0.1; fill:none" points="282.791,1423.18 282.791,47.2441 "/>
<polyline clip-path="url(#clip352)" style="stroke:#000000; stroke-linecap:round; stroke-linejoin:round; stroke-width:2; stroke-opacity:0.1; fill:none" points="683.924,1423.18 683.924,47.2441 "/>
<polyline clip-path="url(#clip352)" style="stroke:#000000; stroke-linecap:round; stroke-linejoin:round; stroke-width:2; stroke-opacity:0.1; fill:none" points="1085.06,1423.18 1085.06,47.2441 "/>
<polyline clip-path="url(#clip352)" style="stroke:#000000; stroke-linecap:round; stroke-linejoin:round; stroke-width:2; stroke-opacity:0.1; fill:none" points="1486.19,1423.18 1486.19,47.2441 "/>
<polyline clip-path="url(#clip352)" style="stroke:#000000; stroke-linecap:round; stroke-linejoin:round; stroke-width:2; stroke-opacity:0.1; fill:none" points="1887.32,1423.18 1887.32,47.2441 "/>
<polyline clip-path="url(#clip352)" style="stroke:#000000; stroke-linecap:round; stroke-linejoin:round; stroke-width:2; stroke-opacity:0.1; fill:none" points="2288.45,1423.18 2288.45,47.2441 "/>
<polyline clip-path="url(#clip350)" style="stroke:#000000; stroke-linecap:round; stroke-linejoin:round; stroke-width:4; stroke-opacity:1; fill:none" points="222.501,1423.18 2352.76,1423.18 "/>
<polyline clip-path="url(#clip350)" style="stroke:#000000; stroke-linecap:round; stroke-linejoin:round; stroke-width:4; stroke-opacity:1; fill:none" points="282.791,1423.18 282.791,1404.28 "/>
<polyline clip-path="url(#clip350)" style="stroke:#000000; stroke-linecap:round; stroke-linejoin:round; stroke-width:4; stroke-opacity:1; fill:none" points="683.924,1423.18 683.924,1404.28 "/>
<polyline clip-path="url(#clip350)" style="stroke:#000000; stroke-linecap:round; stroke-linejoin:round; stroke-width:4; stroke-opacity:1; fill:none" points="1085.06,1423.18 1085.06,1404.28 "/>
<polyline clip-path="url(#clip350)" style="stroke:#000000; stroke-linecap:round; stroke-linejoin:round; stroke-width:4; stroke-opacity:1; fill:none" points="1486.19,1423.18 1486.19,1404.28 "/>
<polyline clip-path="url(#clip350)" style="stroke:#000000; stroke-linecap:round; stroke-linejoin:round; stroke-width:4; stroke-opacity:1; fill:none" points="1887.32,1423.18 1887.32,1404.28 "/>
<polyline clip-path="url(#clip350)" style="stroke:#000000; stroke-linecap:round; stroke-linejoin:round; stroke-width:4; stroke-opacity:1; fill:none" points="2288.45,1423.18 2288.45,1404.28 "/>
<path clip-path="url(#clip350)" d="M260.175 1454.1 Q256.564 1454.1 254.735 1457.66 Q252.93 1461.2 252.93 1468.33 Q252.93 1475.44 254.735 1479.01 Q256.564 1482.55 260.175 1482.55 Q263.81 1482.55 265.615 1479.01 Q267.444 1475.44 267.444 1468.33 Q267.444 1461.2 265.615 1457.66 Q263.81 1454.1 260.175 1454.1 M260.175 1450.39 Q265.985 1450.39 269.041 1455 Q272.12 1459.58 272.12 1468.33 Q272.12 1477.06 269.041 1481.67 Q265.985 1486.25 260.175 1486.25 Q254.365 1486.25 251.286 1481.67 Q248.231 1477.06 248.231 1468.33 Q248.231 1459.58 251.286 1455 Q254.365 1450.39 260.175 1450.39 Z" fill="#000000" fill-rule="nonzero" fill-opacity="1" /><path clip-path="url(#clip350)" d="M280.337 1479.7 L285.221 1479.7 L285.221 1485.58 L280.337 1485.58 L280.337 1479.7 Z" fill="#000000" fill-rule="nonzero" fill-opacity="1" /><path clip-path="url(#clip350)" d="M305.407 1454.1 Q301.795 1454.1 299.967 1457.66 Q298.161 1461.2 298.161 1468.33 Q298.161 1475.44 299.967 1479.01 Q301.795 1482.55 305.407 1482.55 Q309.041 1482.55 310.846 1479.01 Q312.675 1475.44 312.675 1468.33 Q312.675 1461.2 310.846 1457.66 Q309.041 1454.1 305.407 1454.1 M305.407 1450.39 Q311.217 1450.39 314.272 1455 Q317.351 1459.58 317.351 1468.33 Q317.351 1477.06 314.272 1481.67 Q311.217 1486.25 305.407 1486.25 Q299.596 1486.25 296.518 1481.67 Q293.462 1477.06 293.462 1468.33 Q293.462 1459.58 296.518 1455 Q299.596 1450.39 305.407 1450.39 Z" fill="#000000" fill-rule="nonzero" fill-opacity="1" /><path clip-path="url(#clip350)" d="M661.806 1454.1 Q658.195 1454.1 656.366 1457.66 Q654.56 1461.2 654.56 1468.33 Q654.56 1475.44 656.366 1479.01 Q658.195 1482.55 661.806 1482.55 Q665.44 1482.55 667.245 1479.01 Q669.074 1475.44 669.074 1468.33 Q669.074 1461.2 667.245 1457.66 Q665.44 1454.1 661.806 1454.1 M661.806 1450.39 Q667.616 1450.39 670.671 1455 Q673.75 1459.58 673.75 1468.33 Q673.75 1477.06 670.671 1481.67 Q667.616 1486.25 661.806 1486.25 Q655.995 1486.25 652.917 1481.67 Q649.861 1477.06 649.861 1468.33 Q649.861 1459.58 652.917 1455 Q655.995 1450.39 661.806 1450.39 Z" fill="#000000" fill-rule="nonzero" fill-opacity="1" /><path clip-path="url(#clip350)" d="M681.968 1479.7 L686.852 1479.7 L686.852 1485.58 L681.968 1485.58 L681.968 1479.7 Z" fill="#000000" fill-rule="nonzero" fill-opacity="1" /><path clip-path="url(#clip350)" d="M697.083 1451.02 L715.44 1451.02 L715.44 1454.96 L701.366 1454.96 L701.366 1463.43 Q702.384 1463.08 703.403 1462.92 Q704.421 1462.73 705.44 1462.73 Q711.227 1462.73 714.606 1465.9 Q717.986 1469.08 717.986 1474.49 Q717.986 1480.07 714.514 1483.17 Q711.041 1486.25 704.722 1486.25 Q702.546 1486.25 700.278 1485.88 Q698.032 1485.51 695.625 1484.77 L695.625 1480.07 Q697.708 1481.2 699.93 1481.76 Q702.153 1482.32 704.629 1482.32 Q708.634 1482.32 710.972 1480.21 Q713.31 1478.1 713.31 1474.49 Q713.31 1470.88 710.972 1468.77 Q708.634 1466.67 704.629 1466.67 Q702.755 1466.67 700.88 1467.08 Q699.028 1467.5 697.083 1468.38 L697.083 1451.02 Z" fill="#000000" fill-rule="nonzero" fill-opacity="1" /><path clip-path="url(#clip350)" d="M1052.21 1481.64 L1059.85 1481.64 L1059.85 1455.28 L1051.54 1456.95 L1051.54 1452.69 L1059.8 1451.02 L1064.48 1451.02 L1064.48 1481.64 L1072.12 1481.64 L1072.12 1485.58 L1052.21 1485.58 L1052.21 1481.64 Z" fill="#000000" fill-rule="nonzero" fill-opacity="1" /><path clip-path="url(#clip350)" d="M1081.56 1479.7 L1086.45 1479.7 L1086.45 1485.58 L1081.56 1485.58 L1081.56 1479.7 Z" fill="#000000" fill-rule="nonzero" fill-opacity="1" /><path clip-path="url(#clip350)" d="M1106.63 1454.1 Q1103.02 1454.1 1101.19 1457.66 Q1099.38 1461.2 1099.38 1468.33 Q1099.38 1475.44 1101.19 1479.01 Q1103.02 1482.55 1106.63 1482.55 Q1110.26 1482.55 1112.07 1479.01 Q1113.9 1475.44 1113.9 1468.33 Q1113.9 1461.2 1112.07 1457.66 Q1110.26 1454.1 1106.63 1454.1 M1106.63 1450.39 Q1112.44 1450.39 1115.5 1455 Q1118.57 1459.58 1118.57 1468.33 Q1118.57 1477.06 1115.5 1481.67 Q1112.44 1486.25 1106.63 1486.25 Q1100.82 1486.25 1097.74 1481.67 Q1094.69 1477.06 1094.69 1468.33 Q1094.69 1459.58 1097.74 1455 Q1100.82 1450.39 1106.63 1450.39 Z" fill="#000000" fill-rule="nonzero" fill-opacity="1" /><path clip-path="url(#clip350)" d="M1453.84 1481.64 L1461.48 1481.64 L1461.48 1455.28 L1453.17 1456.95 L1453.17 1452.69 L1461.43 1451.02 L1466.11 1451.02 L1466.11 1481.64 L1473.75 1481.64 L1473.75 1485.58 L1453.84 1485.58 L1453.84 1481.64 Z" fill="#000000" fill-rule="nonzero" fill-opacity="1" /><path clip-path="url(#clip350)" d="M1483.19 1479.7 L1488.08 1479.7 L1488.08 1485.58 L1483.19 1485.58 L1483.19 1479.7 Z" fill="#000000" fill-rule="nonzero" fill-opacity="1" /><path clip-path="url(#clip350)" d="M1498.31 1451.02 L1516.66 1451.02 L1516.66 1454.96 L1502.59 1454.96 L1502.59 1463.43 Q1503.61 1463.08 1504.63 1462.92 Q1505.64 1462.73 1506.66 1462.73 Q1512.45 1462.73 1515.83 1465.9 Q1519.21 1469.08 1519.21 1474.49 Q1519.21 1480.07 1515.74 1483.17 Q1512.27 1486.25 1505.95 1486.25 Q1503.77 1486.25 1501.5 1485.88 Q1499.26 1485.51 1496.85 1484.77 L1496.85 1480.07 Q1498.93 1481.2 1501.15 1481.76 Q1503.38 1482.32 1505.85 1482.32 Q1509.86 1482.32 1512.2 1480.21 Q1514.53 1478.1 1514.53 1474.49 Q1514.53 1470.88 1512.2 1468.77 Q1509.86 1466.67 1505.85 1466.67 Q1503.98 1466.67 1502.1 1467.08 Q1500.25 1467.5 1498.31 1468.38 L1498.31 1451.02 Z" fill="#000000" fill-rule="nonzero" fill-opacity="1" /><path clip-path="url(#clip350)" d="M1858.56 1481.64 L1874.88 1481.64 L1874.88 1485.58 L1852.94 1485.58 L1852.94 1481.64 Q1855.6 1478.89 1860.18 1474.26 Q1864.79 1469.61 1865.97 1468.27 Q1868.21 1465.74 1869.09 1464.01 Q1870 1462.25 1870 1460.56 Q1870 1457.8 1868.05 1456.07 Q1866.13 1454.33 1863.03 1454.33 Q1860.83 1454.33 1858.38 1455.09 Q1855.94 1455.86 1853.17 1457.41 L1853.17 1452.69 Q1855.99 1451.55 1858.44 1450.97 Q1860.9 1450.39 1862.94 1450.39 Q1868.31 1450.39 1871.5 1453.08 Q1874.69 1455.77 1874.69 1460.26 Q1874.69 1462.39 1873.88 1464.31 Q1873.1 1466.2 1870.99 1468.8 Q1870.41 1469.47 1867.31 1472.69 Q1864.21 1475.88 1858.56 1481.64 Z" fill="#000000" fill-rule="nonzero" fill-opacity="1" /><path clip-path="url(#clip350)" d="M1884.69 1479.7 L1889.58 1479.7 L1889.58 1485.58 L1884.69 1485.58 L1884.69 1479.7 Z" fill="#000000" fill-rule="nonzero" fill-opacity="1" /><path clip-path="url(#clip350)" d="M1909.76 1454.1 Q1906.15 1454.1 1904.32 1457.66 Q1902.52 1461.2 1902.52 1468.33 Q1902.52 1475.44 1904.32 1479.01 Q1906.15 1482.55 1909.76 1482.55 Q1913.4 1482.55 1915.2 1479.01 Q1917.03 1475.44 1917.03 1468.33 Q1917.03 1461.2 1915.2 1457.66 Q1913.4 1454.1 1909.76 1454.1 M1909.76 1450.39 Q1915.57 1450.39 1918.63 1455 Q1921.71 1459.58 1921.71 1468.33 Q1921.71 1477.06 1918.63 1481.67 Q1915.57 1486.25 1909.76 1486.25 Q1903.95 1486.25 1900.87 1481.67 Q1897.82 1477.06 1897.82 1468.33 Q1897.82 1459.58 1900.87 1455 Q1903.95 1450.39 1909.76 1450.39 Z" fill="#000000" fill-rule="nonzero" fill-opacity="1" /><path clip-path="url(#clip350)" d="M2260.19 1481.64 L2276.51 1481.64 L2276.51 1485.58 L2254.57 1485.58 L2254.57 1481.64 Q2257.23 1478.89 2261.81 1474.26 Q2266.42 1469.61 2267.6 1468.27 Q2269.84 1465.74 2270.72 1464.01 Q2271.63 1462.25 2271.63 1460.56 Q2271.63 1457.8 2269.68 1456.07 Q2267.76 1454.33 2264.66 1454.33 Q2262.46 1454.33 2260.01 1455.09 Q2257.57 1455.86 2254.8 1457.41 L2254.8 1452.69 Q2257.62 1451.55 2260.07 1450.97 Q2262.53 1450.39 2264.57 1450.39 Q2269.94 1450.39 2273.13 1453.08 Q2276.32 1455.77 2276.32 1460.26 Q2276.32 1462.39 2275.51 1464.31 Q2274.73 1466.2 2272.62 1468.8 Q2272.04 1469.47 2268.94 1472.69 Q2265.84 1475.88 2260.19 1481.64 Z" fill="#000000" fill-rule="nonzero" fill-opacity="1" /><path clip-path="url(#clip350)" d="M2286.32 1479.7 L2291.21 1479.7 L2291.21 1485.58 L2286.32 1485.58 L2286.32 1479.7 Z" fill="#000000" fill-rule="nonzero" fill-opacity="1" /><path clip-path="url(#clip350)" d="M2301.44 1451.02 L2319.8 1451.02 L2319.8 1454.96 L2305.72 1454.96 L2305.72 1463.43 Q2306.74 1463.08 2307.76 1462.92 Q2308.78 1462.73 2309.8 1462.73 Q2315.58 1462.73 2318.96 1465.9 Q2322.34 1469.08 2322.34 1474.49 Q2322.34 1480.07 2318.87 1483.17 Q2315.4 1486.25 2309.08 1486.25 Q2306.9 1486.25 2304.63 1485.88 Q2302.39 1485.51 2299.98 1484.77 L2299.98 1480.07 Q2302.07 1481.2 2304.29 1481.76 Q2306.51 1482.32 2308.99 1482.32 Q2312.99 1482.32 2315.33 1480.21 Q2317.67 1478.1 2317.67 1474.49 Q2317.67 1470.88 2315.33 1468.77 Q2312.99 1466.67 2308.99 1466.67 Q2307.11 1466.67 2305.24 1467.08 Q2303.38 1467.5 2301.44 1468.38 L2301.44 1451.02 Z" fill="#000000" fill-rule="nonzero" fill-opacity="1" /><path clip-path="url(#clip350)" d="M1296.1 1531.91 Q1296.1 1532.81 1295.68 1533.04 Q1295.26 1533.23 1294.1 1533.23 L1287.92 1533.23 L1283.02 1552.69 Q1282.64 1554.39 1282.64 1555.84 Q1282.64 1557.45 1283.12 1558.16 Q1283.64 1558.87 1284.7 1558.87 Q1286.79 1558.87 1289.05 1556.97 Q1291.33 1555.07 1293.27 1550.43 Q1293.52 1549.82 1293.65 1549.69 Q1293.81 1549.53 1294.23 1549.53 Q1295.04 1549.53 1295.04 1550.17 Q1295.04 1550.4 1294.59 1551.43 Q1294.17 1552.46 1293.23 1553.97 Q1292.33 1555.49 1291.14 1556.9 Q1289.98 1558.32 1288.21 1559.35 Q1286.44 1560.35 1284.54 1560.35 Q1281.86 1560.35 1280.16 1558.64 Q1278.48 1556.94 1278.48 1554.26 Q1278.48 1553.39 1279.16 1550.62 Q1279.84 1547.82 1283.51 1533.23 L1277.68 1533.23 Q1276.87 1533.23 1276.55 1533.2 Q1276.26 1533.17 1276.04 1533.01 Q1275.84 1532.81 1275.84 1532.43 Q1275.84 1531.82 1276.1 1531.56 Q1276.36 1531.27 1276.68 1531.24 Q1277.03 1531.17 1277.84 1531.17 L1284.02 1531.17 L1286.6 1520.71 Q1286.86 1519.67 1287.5 1519.09 Q1288.18 1518.48 1288.56 1518.42 Q1288.95 1518.32 1289.24 1518.32 Q1290.11 1518.32 1290.62 1518.81 Q1291.14 1519.26 1291.14 1520.09 Q1291.14 1520.54 1288.43 1531.17 L1294.23 1531.17 Q1294.97 1531.17 1295.26 1531.2 Q1295.58 1531.24 1295.84 1531.4 Q1296.1 1531.56 1296.1 1531.91 Z" fill="#000000" fill-rule="nonzero" fill-opacity="1" /><polyline clip-path="url(#clip352)" style="stroke:#000000; stroke-linecap:round; stroke-linejoin:round; stroke-width:2; stroke-opacity:0.1; fill:none" points="222.501,1313.33 2352.76,1313.33 "/>
<polyline clip-path="url(#clip352)" style="stroke:#000000; stroke-linecap:round; stroke-linejoin:round; stroke-width:2; stroke-opacity:0.1; fill:none" points="222.501,1145.7 2352.76,1145.7 "/>
<polyline clip-path="url(#clip352)" style="stroke:#000000; stroke-linecap:round; stroke-linejoin:round; stroke-width:2; stroke-opacity:0.1; fill:none" points="222.501,978.067 2352.76,978.067 "/>
<polyline clip-path="url(#clip352)" style="stroke:#000000; stroke-linecap:round; stroke-linejoin:round; stroke-width:2; stroke-opacity:0.1; fill:none" points="222.501,810.436 2352.76,810.436 "/>
<polyline clip-path="url(#clip352)" style="stroke:#000000; stroke-linecap:round; stroke-linejoin:round; stroke-width:2; stroke-opacity:0.1; fill:none" points="222.501,642.806 2352.76,642.806 "/>
<polyline clip-path="url(#clip352)" style="stroke:#000000; stroke-linecap:round; stroke-linejoin:round; stroke-width:2; stroke-opacity:0.1; fill:none" points="222.501,475.175 2352.76,475.175 "/>
<polyline clip-path="url(#clip352)" style="stroke:#000000; stroke-linecap:round; stroke-linejoin:round; stroke-width:2; stroke-opacity:0.1; fill:none" points="222.501,307.544 2352.76,307.544 "/>
<polyline clip-path="url(#clip352)" style="stroke:#000000; stroke-linecap:round; stroke-linejoin:round; stroke-width:2; stroke-opacity:0.1; fill:none" points="222.501,139.913 2352.76,139.913 "/>
<polyline clip-path="url(#clip350)" style="stroke:#000000; stroke-linecap:round; stroke-linejoin:round; stroke-width:4; stroke-opacity:1; fill:none" points="222.501,1423.18 222.501,47.2441 "/>
<polyline clip-path="url(#clip350)" style="stroke:#000000; stroke-linecap:round; stroke-linejoin:round; stroke-width:4; stroke-opacity:1; fill:none" points="222.501,1313.33 241.398,1313.33 "/>
<polyline clip-path="url(#clip350)" style="stroke:#000000; stroke-linecap:round; stroke-linejoin:round; stroke-width:4; stroke-opacity:1; fill:none" points="222.501,1145.7 241.398,1145.7 "/>
<polyline clip-path="url(#clip350)" style="stroke:#000000; stroke-linecap:round; stroke-linejoin:round; stroke-width:4; stroke-opacity:1; fill:none" points="222.501,978.067 241.398,978.067 "/>
<polyline clip-path="url(#clip350)" style="stroke:#000000; stroke-linecap:round; stroke-linejoin:round; stroke-width:4; stroke-opacity:1; fill:none" points="222.501,810.436 241.398,810.436 "/>
<polyline clip-path="url(#clip350)" style="stroke:#000000; stroke-linecap:round; stroke-linejoin:round; stroke-width:4; stroke-opacity:1; fill:none" points="222.501,642.806 241.398,642.806 "/>
<polyline clip-path="url(#clip350)" style="stroke:#000000; stroke-linecap:round; stroke-linejoin:round; stroke-width:4; stroke-opacity:1; fill:none" points="222.501,475.175 241.398,475.175 "/>
<polyline clip-path="url(#clip350)" style="stroke:#000000; stroke-linecap:round; stroke-linejoin:round; stroke-width:4; stroke-opacity:1; fill:none" points="222.501,307.544 241.398,307.544 "/>
<polyline clip-path="url(#clip350)" style="stroke:#000000; stroke-linecap:round; stroke-linejoin:round; stroke-width:4; stroke-opacity:1; fill:none" points="222.501,139.913 241.398,139.913 "/>
<path clip-path="url(#clip350)" d="M50.9921 1313.78 L80.6679 1313.78 L80.6679 1317.72 L50.9921 1317.72 L50.9921 1313.78 Z" fill="#000000" fill-rule="nonzero" fill-opacity="1" /><path clip-path="url(#clip350)" d="M100.76 1299.13 Q97.1493 1299.13 95.3206 1302.69 Q93.515 1306.23 93.515 1313.36 Q93.515 1320.47 95.3206 1324.03 Q97.1493 1327.58 100.76 1327.58 Q104.395 1327.58 106.2 1324.03 Q108.029 1320.47 108.029 1313.36 Q108.029 1306.23 106.2 1302.69 Q104.395 1299.13 100.76 1299.13 M100.76 1295.42 Q106.571 1295.42 109.626 1300.03 Q112.705 1304.61 112.705 1313.36 Q112.705 1322.09 109.626 1326.7 Q106.571 1331.28 100.76 1331.28 Q94.9502 1331.28 91.8715 1326.7 Q88.816 1322.09 88.816 1313.36 Q88.816 1304.61 91.8715 1300.03 Q94.9502 1295.42 100.76 1295.42 Z" fill="#000000" fill-rule="nonzero" fill-opacity="1" /><path clip-path="url(#clip350)" d="M120.922 1324.73 L125.807 1324.73 L125.807 1330.61 L120.922 1330.61 L120.922 1324.73 Z" fill="#000000" fill-rule="nonzero" fill-opacity="1" /><path clip-path="url(#clip350)" d="M145.992 1299.13 Q142.381 1299.13 140.552 1302.69 Q138.746 1306.23 138.746 1313.36 Q138.746 1320.47 140.552 1324.03 Q142.381 1327.58 145.992 1327.58 Q149.626 1327.58 151.431 1324.03 Q153.26 1320.47 153.26 1313.36 Q153.26 1306.23 151.431 1302.69 Q149.626 1299.13 145.992 1299.13 M145.992 1295.42 Q151.802 1295.42 154.857 1300.03 Q157.936 1304.61 157.936 1313.36 Q157.936 1322.09 154.857 1326.7 Q151.802 1331.28 145.992 1331.28 Q140.181 1331.28 137.103 1326.7 Q134.047 1322.09 134.047 1313.36 Q134.047 1304.61 137.103 1300.03 Q140.181 1295.42 145.992 1295.42 Z" fill="#000000" fill-rule="nonzero" fill-opacity="1" /><path clip-path="url(#clip350)" d="M170.181 1326.67 L186.501 1326.67 L186.501 1330.61 L164.556 1330.61 L164.556 1326.67 Q167.218 1323.92 171.802 1319.29 Q176.408 1314.64 177.589 1313.29 Q179.834 1310.77 180.714 1309.03 Q181.616 1307.28 181.616 1305.59 Q181.616 1302.83 179.672 1301.1 Q177.751 1299.36 174.649 1299.36 Q172.45 1299.36 169.996 1300.12 Q167.566 1300.89 164.788 1302.44 L164.788 1297.72 Q167.612 1296.58 170.066 1296 Q172.519 1295.42 174.556 1295.42 Q179.927 1295.42 183.121 1298.11 Q186.315 1300.79 186.315 1305.28 Q186.315 1307.41 185.505 1309.34 Q184.718 1311.23 182.612 1313.83 Q182.033 1314.5 178.931 1317.72 Q175.829 1320.91 170.181 1326.67 Z" fill="#000000" fill-rule="nonzero" fill-opacity="1" /><path clip-path="url(#clip350)" d="M99.1632 1131.5 Q95.5521 1131.5 93.7234 1135.06 Q91.9178 1138.6 91.9178 1145.73 Q91.9178 1152.84 93.7234 1156.4 Q95.5521 1159.95 99.1632 1159.95 Q102.797 1159.95 104.603 1156.4 Q106.432 1152.84 106.432 1145.73 Q106.432 1138.6 104.603 1135.06 Q102.797 1131.5 99.1632 1131.5 M99.1632 1127.79 Q104.973 1127.79 108.029 1132.4 Q111.108 1136.98 111.108 1145.73 Q111.108 1154.46 108.029 1159.07 Q104.973 1163.65 99.1632 1163.65 Q93.353 1163.65 90.2743 1159.07 Q87.2188 1154.46 87.2188 1145.73 Q87.2188 1136.98 90.2743 1132.4 Q93.353 1127.79 99.1632 1127.79 Z" fill="#000000" fill-rule="nonzero" fill-opacity="1" /><path clip-path="url(#clip350)" d="M119.325 1157.1 L124.209 1157.1 L124.209 1162.98 L119.325 1162.98 L119.325 1157.1 Z" fill="#000000" fill-rule="nonzero" fill-opacity="1" /><path clip-path="url(#clip350)" d="M144.394 1131.5 Q140.783 1131.5 138.955 1135.06 Q137.149 1138.6 137.149 1145.73 Q137.149 1152.84 138.955 1156.4 Q140.783 1159.95 144.394 1159.95 Q148.029 1159.95 149.834 1156.4 Q151.663 1152.84 151.663 1145.73 Q151.663 1138.6 149.834 1135.06 Q148.029 1131.5 144.394 1131.5 M144.394 1127.79 Q150.205 1127.79 153.26 1132.4 Q156.339 1136.98 156.339 1145.73 Q156.339 1154.46 153.26 1159.07 Q150.205 1163.65 144.394 1163.65 Q138.584 1163.65 135.506 1159.07 Q132.45 1154.46 132.45 1145.73 Q132.45 1136.98 135.506 1132.4 Q138.584 1127.79 144.394 1127.79 Z" fill="#000000" fill-rule="nonzero" fill-opacity="1" /><path clip-path="url(#clip350)" d="M174.556 1131.5 Q170.945 1131.5 169.116 1135.06 Q167.311 1138.6 167.311 1145.73 Q167.311 1152.84 169.116 1156.4 Q170.945 1159.95 174.556 1159.95 Q178.191 1159.95 179.996 1156.4 Q181.825 1152.84 181.825 1145.73 Q181.825 1138.6 179.996 1135.06 Q178.191 1131.5 174.556 1131.5 M174.556 1127.79 Q180.366 1127.79 183.422 1132.4 Q186.501 1136.98 186.501 1145.73 Q186.501 1154.46 183.422 1159.07 Q180.366 1163.65 174.556 1163.65 Q168.746 1163.65 165.667 1159.07 Q162.612 1154.46 162.612 1145.73 Q162.612 1136.98 165.667 1132.4 Q168.746 1127.79 174.556 1127.79 Z" fill="#000000" fill-rule="nonzero" fill-opacity="1" /><path clip-path="url(#clip350)" d="M100.76 963.866 Q97.1493 963.866 95.3206 967.431 Q93.515 970.972 93.515 978.102 Q93.515 985.208 95.3206 988.773 Q97.1493 992.315 100.76 992.315 Q104.395 992.315 106.2 988.773 Q108.029 985.208 108.029 978.102 Q108.029 970.972 106.2 967.431 Q104.395 963.866 100.76 963.866 M100.76 960.162 Q106.571 960.162 109.626 964.769 Q112.705 969.352 112.705 978.102 Q112.705 986.829 109.626 991.435 Q106.571 996.019 100.76 996.019 Q94.9502 996.019 91.8715 991.435 Q88.816 986.829 88.816 978.102 Q88.816 969.352 91.8715 964.769 Q94.9502 960.162 100.76 960.162 Z" fill="#000000" fill-rule="nonzero" fill-opacity="1" /><path clip-path="url(#clip350)" d="M120.922 989.468 L125.807 989.468 L125.807 995.347 L120.922 995.347 L120.922 989.468 Z" fill="#000000" fill-rule="nonzero" fill-opacity="1" /><path clip-path="url(#clip350)" d="M145.992 963.866 Q142.381 963.866 140.552 967.431 Q138.746 970.972 138.746 978.102 Q138.746 985.208 140.552 988.773 Q142.381 992.315 145.992 992.315 Q149.626 992.315 151.431 988.773 Q153.26 985.208 153.26 978.102 Q153.26 970.972 151.431 967.431 Q149.626 963.866 145.992 963.866 M145.992 960.162 Q151.802 960.162 154.857 964.769 Q157.936 969.352 157.936 978.102 Q157.936 986.829 154.857 991.435 Q151.802 996.019 145.992 996.019 Q140.181 996.019 137.103 991.435 Q134.047 986.829 134.047 978.102 Q134.047 969.352 137.103 964.769 Q140.181 960.162 145.992 960.162 Z" fill="#000000" fill-rule="nonzero" fill-opacity="1" /><path clip-path="url(#clip350)" d="M170.181 991.412 L186.501 991.412 L186.501 995.347 L164.556 995.347 L164.556 991.412 Q167.218 988.657 171.802 984.028 Q176.408 979.375 177.589 978.032 Q179.834 975.509 180.714 973.773 Q181.616 972.014 181.616 970.324 Q181.616 967.57 179.672 965.833 Q177.751 964.097 174.649 964.097 Q172.45 964.097 169.996 964.861 Q167.566 965.625 164.788 967.176 L164.788 962.454 Q167.612 961.32 170.066 960.741 Q172.519 960.162 174.556 960.162 Q179.927 960.162 183.121 962.847 Q186.315 965.533 186.315 970.023 Q186.315 972.153 185.505 974.074 Q184.718 975.972 182.612 978.565 Q182.033 979.236 178.931 982.454 Q175.829 985.648 170.181 991.412 Z" fill="#000000" fill-rule="nonzero" fill-opacity="1" /><path clip-path="url(#clip350)" d="M98.6771 796.235 Q95.066 796.235 93.2373 799.8 Q91.4317 803.342 91.4317 810.471 Q91.4317 817.578 93.2373 821.142 Q95.066 824.684 98.6771 824.684 Q102.311 824.684 104.117 821.142 Q105.946 817.578 105.946 810.471 Q105.946 803.342 104.117 799.8 Q102.311 796.235 98.6771 796.235 M98.6771 792.531 Q104.487 792.531 107.543 797.138 Q110.621 801.721 110.621 810.471 Q110.621 819.198 107.543 823.804 Q104.487 828.388 98.6771 828.388 Q92.8669 828.388 89.7882 823.804 Q86.7327 819.198 86.7327 810.471 Q86.7327 801.721 89.7882 797.138 Q92.8669 792.531 98.6771 792.531 Z" fill="#000000" fill-rule="nonzero" fill-opacity="1" /><path clip-path="url(#clip350)" d="M118.839 821.837 L123.723 821.837 L123.723 827.716 L118.839 827.716 L118.839 821.837 Z" fill="#000000" fill-rule="nonzero" fill-opacity="1" /><path clip-path="url(#clip350)" d="M143.908 796.235 Q140.297 796.235 138.469 799.8 Q136.663 803.342 136.663 810.471 Q136.663 817.578 138.469 821.142 Q140.297 824.684 143.908 824.684 Q147.543 824.684 149.348 821.142 Q151.177 817.578 151.177 810.471 Q151.177 803.342 149.348 799.8 Q147.543 796.235 143.908 796.235 M143.908 792.531 Q149.718 792.531 152.774 797.138 Q155.853 801.721 155.853 810.471 Q155.853 819.198 152.774 823.804 Q149.718 828.388 143.908 828.388 Q138.098 828.388 135.019 823.804 Q131.964 819.198 131.964 810.471 Q131.964 801.721 135.019 797.138 Q138.098 792.531 143.908 792.531 Z" fill="#000000" fill-rule="nonzero" fill-opacity="1" /><path clip-path="url(#clip350)" d="M176.917 797.23 L165.112 815.679 L176.917 815.679 L176.917 797.23 M175.691 793.156 L181.57 793.156 L181.57 815.679 L186.501 815.679 L186.501 819.568 L181.57 819.568 L181.57 827.716 L176.917 827.716 L176.917 819.568 L161.316 819.568 L161.316 815.054 L175.691 793.156 Z" fill="#000000" fill-rule="nonzero" fill-opacity="1" /><path clip-path="url(#clip350)" d="M99.0011 628.604 Q95.39 628.604 93.5613 632.169 Q91.7558 635.711 91.7558 642.84 Q91.7558 649.947 93.5613 653.512 Q95.39 657.053 99.0011 657.053 Q102.635 657.053 104.441 653.512 Q106.27 649.947 106.27 642.84 Q106.27 635.711 104.441 632.169 Q102.635 628.604 99.0011 628.604 M99.0011 624.901 Q104.811 624.901 107.867 629.507 Q110.946 634.09 110.946 642.84 Q110.946 651.567 107.867 656.174 Q104.811 660.757 99.0011 660.757 Q93.191 660.757 90.1123 656.174 Q87.0567 651.567 87.0567 642.84 Q87.0567 634.09 90.1123 629.507 Q93.191 624.901 99.0011 624.901 Z" fill="#000000" fill-rule="nonzero" fill-opacity="1" /><path clip-path="url(#clip350)" d="M119.163 654.206 L124.047 654.206 L124.047 660.086 L119.163 660.086 L119.163 654.206 Z" fill="#000000" fill-rule="nonzero" fill-opacity="1" /><path clip-path="url(#clip350)" d="M144.232 628.604 Q140.621 628.604 138.793 632.169 Q136.987 635.711 136.987 642.84 Q136.987 649.947 138.793 653.512 Q140.621 657.053 144.232 657.053 Q147.867 657.053 149.672 653.512 Q151.501 649.947 151.501 642.84 Q151.501 635.711 149.672 632.169 Q147.867 628.604 144.232 628.604 M144.232 624.901 Q150.043 624.901 153.098 629.507 Q156.177 634.09 156.177 642.84 Q156.177 651.567 153.098 656.174 Q150.043 660.757 144.232 660.757 Q138.422 660.757 135.344 656.174 Q132.288 651.567 132.288 642.84 Q132.288 634.09 135.344 629.507 Q138.422 624.901 144.232 624.901 Z" fill="#000000" fill-rule="nonzero" fill-opacity="1" /><path clip-path="url(#clip350)" d="M174.973 640.942 Q171.825 640.942 169.973 643.095 Q168.144 645.248 168.144 648.998 Q168.144 652.725 169.973 654.9 Q171.825 657.053 174.973 657.053 Q178.121 657.053 179.95 654.9 Q181.802 652.725 181.802 648.998 Q181.802 645.248 179.95 643.095 Q178.121 640.942 174.973 640.942 M184.255 626.29 L184.255 630.549 Q182.496 629.715 180.691 629.276 Q178.908 628.836 177.149 628.836 Q172.519 628.836 170.066 631.961 Q167.635 635.086 167.288 641.405 Q168.654 639.391 170.714 638.326 Q172.774 637.239 175.251 637.239 Q180.459 637.239 183.468 640.41 Q186.501 643.558 186.501 648.998 Q186.501 654.322 183.353 657.539 Q180.204 660.757 174.973 660.757 Q168.978 660.757 165.806 656.174 Q162.635 651.567 162.635 642.84 Q162.635 634.646 166.524 629.785 Q170.413 624.901 176.964 624.901 Q178.723 624.901 180.505 625.248 Q182.311 625.595 184.255 626.29 Z" fill="#000000" fill-rule="nonzero" fill-opacity="1" /><path clip-path="url(#clip350)" d="M99.2558 460.974 Q95.6447 460.974 93.816 464.538 Q92.0104 468.08 92.0104 475.21 Q92.0104 482.316 93.816 485.881 Q95.6447 489.422 99.2558 489.422 Q102.89 489.422 104.696 485.881 Q106.524 482.316 106.524 475.21 Q106.524 468.08 104.696 464.538 Q102.89 460.974 99.2558 460.974 M99.2558 457.27 Q105.066 457.27 108.121 461.876 Q111.2 466.46 111.2 475.21 Q111.2 483.936 108.121 488.543 Q105.066 493.126 99.2558 493.126 Q93.4456 493.126 90.3669 488.543 Q87.3114 483.936 87.3114 475.21 Q87.3114 466.46 90.3669 461.876 Q93.4456 457.27 99.2558 457.27 Z" fill="#000000" fill-rule="nonzero" fill-opacity="1" /><path clip-path="url(#clip350)" d="M119.418 486.575 L124.302 486.575 L124.302 492.455 L119.418 492.455 L119.418 486.575 Z" fill="#000000" fill-rule="nonzero" fill-opacity="1" /><path clip-path="url(#clip350)" d="M144.487 460.974 Q140.876 460.974 139.047 464.538 Q137.242 468.08 137.242 475.21 Q137.242 482.316 139.047 485.881 Q140.876 489.422 144.487 489.422 Q148.121 489.422 149.927 485.881 Q151.755 482.316 151.755 475.21 Q151.755 468.08 149.927 464.538 Q148.121 460.974 144.487 460.974 M144.487 457.27 Q150.297 457.27 153.353 461.876 Q156.431 466.46 156.431 475.21 Q156.431 483.936 153.353 488.543 Q150.297 493.126 144.487 493.126 Q138.677 493.126 135.598 488.543 Q132.543 483.936 132.543 475.21 Q132.543 466.46 135.598 461.876 Q138.677 457.27 144.487 457.27 Z" fill="#000000" fill-rule="nonzero" fill-opacity="1" /><path clip-path="url(#clip350)" d="M174.649 476.043 Q171.316 476.043 169.394 477.825 Q167.496 479.608 167.496 482.733 Q167.496 485.858 169.394 487.64 Q171.316 489.422 174.649 489.422 Q177.982 489.422 179.903 487.64 Q181.825 485.835 181.825 482.733 Q181.825 479.608 179.903 477.825 Q178.005 476.043 174.649 476.043 M169.973 474.052 Q166.964 473.311 165.274 471.251 Q163.607 469.191 163.607 466.228 Q163.607 462.085 166.547 459.677 Q169.51 457.27 174.649 457.27 Q179.811 457.27 182.751 459.677 Q185.69 462.085 185.69 466.228 Q185.69 469.191 184.001 471.251 Q182.334 473.311 179.348 474.052 Q182.728 474.839 184.603 477.131 Q186.501 479.423 186.501 482.733 Q186.501 487.756 183.422 490.441 Q180.366 493.126 174.649 493.126 Q168.931 493.126 165.853 490.441 Q162.797 487.756 162.797 482.733 Q162.797 479.423 164.695 477.131 Q166.593 474.839 169.973 474.052 M168.26 466.668 Q168.26 469.353 169.927 470.858 Q171.616 472.362 174.649 472.362 Q177.658 472.362 179.348 470.858 Q181.061 469.353 181.061 466.668 Q181.061 463.983 179.348 462.478 Q177.658 460.974 174.649 460.974 Q171.616 460.974 169.927 462.478 Q168.26 463.983 168.26 466.668 Z" fill="#000000" fill-rule="nonzero" fill-opacity="1" /><path clip-path="url(#clip350)" d="M99.1632 293.343 Q95.5521 293.343 93.7234 296.908 Q91.9178 300.449 91.9178 307.579 Q91.9178 314.685 93.7234 318.25 Q95.5521 321.792 99.1632 321.792 Q102.797 321.792 104.603 318.25 Q106.432 314.685 106.432 307.579 Q106.432 300.449 104.603 296.908 Q102.797 293.343 99.1632 293.343 M99.1632 289.639 Q104.973 289.639 108.029 294.246 Q111.108 298.829 111.108 307.579 Q111.108 316.306 108.029 320.912 Q104.973 325.495 99.1632 325.495 Q93.353 325.495 90.2743 320.912 Q87.2188 316.306 87.2188 307.579 Q87.2188 298.829 90.2743 294.246 Q93.353 289.639 99.1632 289.639 Z" fill="#000000" fill-rule="nonzero" fill-opacity="1" /><path clip-path="url(#clip350)" d="M119.325 318.944 L124.209 318.944 L124.209 324.824 L119.325 324.824 L119.325 318.944 Z" fill="#000000" fill-rule="nonzero" fill-opacity="1" /><path clip-path="url(#clip350)" d="M135.205 320.889 L142.843 320.889 L142.843 294.523 L134.533 296.19 L134.533 291.931 L142.797 290.264 L147.473 290.264 L147.473 320.889 L155.112 320.889 L155.112 324.824 L135.205 324.824 L135.205 320.889 Z" fill="#000000" fill-rule="nonzero" fill-opacity="1" /><path clip-path="url(#clip350)" d="M174.556 293.343 Q170.945 293.343 169.116 296.908 Q167.311 300.449 167.311 307.579 Q167.311 314.685 169.116 318.25 Q170.945 321.792 174.556 321.792 Q178.191 321.792 179.996 318.25 Q181.825 314.685 181.825 307.579 Q181.825 300.449 179.996 296.908 Q178.191 293.343 174.556 293.343 M174.556 289.639 Q180.366 289.639 183.422 294.246 Q186.501 298.829 186.501 307.579 Q186.501 316.306 183.422 320.912 Q180.366 325.495 174.556 325.495 Q168.746 325.495 165.667 320.912 Q162.612 316.306 162.612 307.579 Q162.612 298.829 165.667 294.246 Q168.746 289.639 174.556 289.639 Z" fill="#000000" fill-rule="nonzero" fill-opacity="1" /><path clip-path="url(#clip350)" d="M100.76 125.712 Q97.1493 125.712 95.3206 129.277 Q93.515 132.818 93.515 139.948 Q93.515 147.054 95.3206 150.619 Q97.1493 154.161 100.76 154.161 Q104.395 154.161 106.2 150.619 Q108.029 147.054 108.029 139.948 Q108.029 132.818 106.2 129.277 Q104.395 125.712 100.76 125.712 M100.76 122.008 Q106.571 122.008 109.626 126.615 Q112.705 131.198 112.705 139.948 Q112.705 148.675 109.626 153.281 Q106.571 157.865 100.76 157.865 Q94.9502 157.865 91.8715 153.281 Q88.816 148.675 88.816 139.948 Q88.816 131.198 91.8715 126.615 Q94.9502 122.008 100.76 122.008 Z" fill="#000000" fill-rule="nonzero" fill-opacity="1" /><path clip-path="url(#clip350)" d="M120.922 151.314 L125.807 151.314 L125.807 157.193 L120.922 157.193 L120.922 151.314 Z" fill="#000000" fill-rule="nonzero" fill-opacity="1" /><path clip-path="url(#clip350)" d="M136.802 153.258 L144.441 153.258 L144.441 126.893 L136.131 128.559 L136.131 124.3 L144.394 122.633 L149.07 122.633 L149.07 153.258 L156.709 153.258 L156.709 157.193 L136.802 157.193 L136.802 153.258 Z" fill="#000000" fill-rule="nonzero" fill-opacity="1" /><path clip-path="url(#clip350)" d="M170.181 153.258 L186.501 153.258 L186.501 157.193 L164.556 157.193 L164.556 153.258 Q167.218 150.503 171.802 145.874 Q176.408 141.221 177.589 139.879 Q179.834 137.355 180.714 135.619 Q181.616 133.86 181.616 132.17 Q181.616 129.416 179.672 127.68 Q177.751 125.943 174.649 125.943 Q172.45 125.943 169.996 126.707 Q167.566 127.471 164.788 129.022 L164.788 124.3 Q167.612 123.166 170.066 122.587 Q172.519 122.008 174.556 122.008 Q179.927 122.008 183.121 124.693 Q186.315 127.379 186.315 131.869 Q186.315 133.999 185.505 135.92 Q184.718 137.818 182.612 140.411 Q182.033 141.082 178.931 144.3 Q175.829 147.494 170.181 153.258 Z" fill="#000000" fill-rule="nonzero" fill-opacity="1" /><polyline clip-path="url(#clip352)" style="stroke:#009af9; stroke-linecap:round; stroke-linejoin:round; stroke-width:4; stroke-opacity:1; fill:none" points="282.791,1145.7 288.808,1145.77 294.825,1145.82 300.842,1145.86 306.859,1145.98 312.876,1146.21 318.893,1146.6 324.91,1146.88 330.927,1147.02 336.944,1146.97 342.961,1146.47 348.978,1145.85 354.995,1145.1 361.012,1144.01 367.029,1143.17 373.046,1142.18 379.063,1140.6 385.08,1138.86 391.097,1137 397.114,1135.13 403.131,1133.63 409.148,1132.25 415.165,1130.49 421.182,1128.55 427.199,1126.83 433.216,1125.39 439.233,1124.59 445.25,1124.71 451.267,1125.37 457.284,1125.94 463.301,1126.08 469.318,1126.08 475.335,1125.96 481.352,1125.74 487.369,1125.67 493.386,1125.28 499.403,1125.11 505.42,1125.63 511.437,1126.3 517.454,1127.01 523.471,1127.38 529.488,1127.74 535.504,1128.75 541.521,1130.23 547.538,1131.88 553.555,1133.02 559.572,1133.74 565.589,1134.61 571.606,1135.64 577.623,1136.74 583.64,1137.77 589.657,1138.89 595.674,1140.17 601.691,1141.33 607.708,1142.4 613.725,1143.43 619.742,1144.27 625.759,1145.46 631.776,1146.73 637.793,1147.44 643.81,1148.26 649.827,1149.54 655.844,1150.72 661.861,1151.22 667.878,1151.31 673.895,1151.51 679.912,1151.64 685.929,1151.84 691.946,1152.28 697.963,1152.63 703.98,1153.01 709.997,1153.69 716.014,1154.39 722.031,1154.95 728.048,1155.48 734.065,1155.54 740.082,1155.42 746.099,1155.78 752.116,1156.2 758.133,1156.74 764.15,1157.52 770.167,1158.15 776.184,1158.39 782.201,1158.21 788.218,1157.48 794.235,1156.15 800.252,1154.79 806.269,1153.33 812.286,1151.89 818.303,1150.98 824.32,1150.08 830.337,1149.38 836.354,1148.72 842.371,1147.41 848.388,1145.7 854.405,1144.2 860.422,1142.74 866.439,1141.07 872.456,1139.13 878.473,1137.24 884.49,1135.46 890.507,1133.38 896.524,1131.26 902.541,1129.22 908.558,1127.58 914.575,1126.15 920.592,1124.91 926.609,1124.23 932.626,1123.64 938.643,1123.21 944.66,1122.7 950.677,1122.01 956.694,1120.96 962.711,1118.96 968.728,1116.4 974.745,1113.82 980.762,1111.43 986.779,1109.25 992.796,1106.94 998.813,1104.13 1004.83,1100.5 1010.85,1096.17 1016.86,1091.62 1022.88,1086.71 1028.9,1081.23 1034.91,1075.47 1040.93,1069.09 1046.95,1061.72 1052.97,1054.2 1058.98,1046.86 1065,1039.62 1071.02,1032.52 1077.03,1025.2 1083.05,1017.89 1089.07,1010.84 1095.08,1003.6 1101.1,996.01 1107.12,988.526 1113.14,981.457 1119.15,975.007 1125.17,968.961 1131.19,962.634 1137.2,955.645 1143.22,948.167 1149.24,940.988 1155.25,933.955 1161.27,926.525 1167.29,919.037 1173.31,911.677 1179.32,904.513 1185.34,897.047 1191.36,889.193 1197.37,881.651 1203.39,874.248 1209.41,866.724 1215.42,859.584 1221.44,852.79 1227.46,845.857 1233.48,838.631 1239.49,830.951 1245.51,823.112 1251.53,815.826 1257.54,809.088 1263.56,802.697 1269.58,796.645 1275.59,790.851 1281.61,784.89 1287.63,778.542 1293.65,771.967 1299.66,765.656 1305.68,759.902 1311.7,754.652 1317.71,750.075 1323.73,745.776 1329.75,741.466 1335.76,736.892 1341.78,732.198 1347.8,727.767 1353.82,723.641 1359.83,719.543 1365.85,715.389 1371.87,711.502 1377.88,707.64 1383.9,703.917 1389.92,700.611 1395.93,697.435 1401.95,694.767 1407.97,692.336 1413.99,689.812 1420,687.729 1426.02,685.863 1432.04,684.106 1438.05,682.641 1444.07,681.778 1450.09,681.3 1456.1,680.389 1462.12,679.251 1468.14,678.575 1474.15,678.283 1480.17,677.627 1486.19,676.436 1492.21,675.16 1498.22,673.42 1504.24,670.957 1510.26,668.32 1516.27,665.86 1522.29,663.217 1528.31,660.124 1534.32,657.018 1540.34,654.446 1546.36,651.981 1552.38,649.294 1558.39,646.517 1564.41,643.298 1570.43,639.839 1576.44,636.149 1582.46,632.107 1588.48,628.101 1594.49,624.637 1600.51,621.85 1606.53,619.441 1612.55,617.434 1618.56,615.993 1624.58,614.766 1630.6,614.009 1636.61,613.391 1642.63,612.46 1648.65,612.03 1654.66,611.747 1660.68,611.337 1666.7,611.205 1672.72,611.113 1678.73,611.137 1684.75,611.44 1690.77,611.806 1696.78,612.136 1702.8,612.381 1708.82,612.682 1714.83,612.947 1720.85,612.998 1726.87,612.965 1732.89,612.461 1738.9,611.629 1744.92,610.909 1750.94,610.111 1756.95,609.36 1762.97,608.222 1768.99,606.926 1775,606.171 1781.02,605.509 1787.04,604.179 1793.06,602.019 1799.07,599.62 1805.09,597.435 1811.11,595.249 1817.12,593.102 1823.14,591.287 1829.16,589.578 1835.17,587.796 1841.19,586.135 1847.21,584.833 1853.23,583.99 1859.24,583.373 1865.26,582.732 1871.28,582.128 1877.29,581.695 1883.31,581.481 1889.33,581.206 1895.34,581.033 1901.36,580.555 1907.38,579.486 1913.4,578.345 1919.41,577.38 1925.43,576.277 1931.45,574.706 1937.46,572.569 1943.48,569.775 1949.5,566.888 1955.51,563.811 1961.53,560.582 1967.55,557.191 1973.57,553.628 1979.58,549.844 1985.6,545.712 1991.62,541.228 1997.63,536.226 2003.65,530.977 2009.67,525.686 2015.68,520.482 2021.7,515.38 2027.72,509.854 2033.74,503.777 2039.75,497.91 2045.77,492.169 2051.79,486.108 2057.8,480.122 2063.82,474.454 2069.84,469.196 2075.85,464.105 2081.87,458.709 2087.89,453.328 2093.9,447.753 2099.92,442.084 2105.94,437.066 2111.96,432.499 2117.97,427.899 2123.99,423.505 2130.01,419.824 2136.02,416.291 2142.04,412.599 2148.06,409.273 2154.07,405.711 2160.09,401.848 2166.11,398.147 2172.13,394.174 2178.14,390.105 2184.16,386.072 2190.18,382.029 2196.19,378.27 2202.21,374.979 2208.23,372.651 2214.24,371.239 2220.26,370.358 2226.28,369.589 2232.3,369.072 2238.31,369.056 2244.33,368.999 2250.35,368.717 2256.36,368.31 2262.38,367.648 2268.4,366.995 2274.41,366.395 2280.43,366.008 2286.45,365.688 2292.47,365.23 "/>
<polyline clip-path="url(#clip352)" style="stroke:#e26f46; stroke-linecap:round; stroke-linejoin:round; stroke-width:4; stroke-opacity:1; fill:none" points="282.791,1145.7 288.808,1164.86 294.825,1139.84 300.842,1163 306.859,1160.01 312.876,1192.17 318.893,1203.41 324.91,1162.68 330.927,1165.3 336.944,1113.37 342.961,1045.61 348.978,1080.13 354.995,1011.75 361.012,988.816 367.029,1076.82 373.046,952.677 379.063,916.694 385.08,910.159 391.097,885.865 397.114,906.319 403.131,985.971 409.148,936.835 415.165,884.639 421.182,889.861 427.199,941.795 433.216,967.821 439.233,1109.86 445.25,1212.11 451.267,1254.93 457.284,1188.88 463.301,1139.16 469.318,1152.92 475.335,1108.18 481.352,1122.79 487.369,1151.21 493.386,1034.49 499.403,1213.56 505.42,1214.83 511.437,1256.96 517.454,1222.39 523.471,1168.45 529.488,1218.46 535.504,1341.37 541.521,1346.15 547.538,1384.24 553.555,1212.34 559.572,1270.97 565.589,1252.72 571.606,1313.46 577.623,1270.97 583.64,1293.56 589.657,1297.82 595.674,1334.16 601.691,1265.98 607.708,1310.41 613.725,1255.82 619.742,1259.41 625.759,1350.82 631.776,1279.92 637.793,1201.16 643.81,1307 649.827,1326.84 655.844,1280.01 661.861,1143.9 667.878,1171.94 673.895,1170.88 679.912,1156.24 685.929,1188.54 691.946,1219.05 697.963,1166.37 703.98,1226.14 709.997,1247.77 716.014,1230.28 722.031,1209.32 728.048,1224.52 734.065,1083.36 740.082,1175.21 746.099,1211.91 752.116,1190.53 758.133,1244.96 764.15,1255.68 770.167,1204.09 776.184,1150.13 782.201,1092.4 788.218,1006.45 794.235,930.665 800.252,997.873 806.269,902.089 812.286,1007.62 818.303,1040.29 824.32,1009.69 830.337,1095.01 836.354,1021.04 842.371,921.107 848.388,915.905 854.405,975.246 860.422,925.685 866.439,920.656 872.456,854.054 878.473,933.384 884.49,883.247 890.507,851.565 896.524,876.94 902.541,870.137 908.558,983.263 914.575,925.933 920.592,1036.49 926.609,1071.62 932.626,1063.79 938.643,1112.47 944.66,1043.16 950.677,1063.87 956.694,948.224 962.711,808.31 968.728,800.466 974.745,803.765 980.762,849.002 986.779,862.659 992.796,813.537 998.813,728.597 1004.83,593.891 1010.85,543.673 1016.86,532.972 1022.88,448.748 1028.9,381.009 1034.91,375.394 1040.93,215.426 1046.95,110.348 1052.97,176.343 1058.98,156.129 1065,204.62 1071.02,194.761 1077.03,143.982 1083.05,197.329 1089.07,214.814 1095.08,145.901 1101.1,121.305 1107.12,174.363 1113.14,232.041 1119.15,339.233 1125.17,339.962 1131.19,264.258 1137.2,163.33 1143.22,133.848 1149.24,243.339 1155.25,172.563 1161.27,137.329 1167.29,157.244 1173.31,171.444 1179.32,209.592 1185.34,91.0773 1191.36,105.68 1197.37,174.728 1203.39,142.329 1209.41,142.869 1215.42,244.414 1221.44,235.359 1227.46,207.264 1233.48,157.151 1239.49,86.1857 1245.51,114.74 1251.53,233.733 1257.54,260.847 1263.56,326.255 1269.58,351.411 1275.59,394.969 1281.61,306.704 1287.63,291.816 1293.65,246.241 1299.66,362.273 1305.68,394.902 1311.7,496.337 1317.71,574.689 1323.73,570.248 1329.75,571.683 1335.76,500.144 1341.78,539.485 1347.8,570.379 1353.82,620.673 1359.83,577.764 1365.85,606.122 1371.87,648.679 1377.88,612.699 1383.9,686.051 1389.92,723.593 1395.93,720.847 1401.95,859.182 1407.97,783.942 1413.99,834.326 1420,901.687 1426.02,892.092 1432.04,930.816 1438.05,969.899 1444.07,1091.32 1450.09,1072.66 1456.1,975.744 1462.12,1012.17 1468.14,1098.99 1474.15,1114.57 1480.17,1001.94 1486.19,971.751 1492.21,979.437 1498.22,847.833 1504.24,786.772 1510.26,801.478 1516.27,834.041 1522.29,752.469 1528.31,714.222 1534.32,748.794 1540.34,856.868 1546.36,777.019 1552.38,797.871 1558.39,753.02 1564.41,679.884 1570.43,689.307 1576.44,618.126 1582.46,595.335 1588.48,627.833 1594.49,739.738 1600.51,808.415 1606.53,840.505 1612.55,915.906 1618.56,991.065 1624.58,973.141 1630.6,1116.36 1636.61,1010.33 1642.63,1032.76 1648.65,1144.11 1654.66,1071.66 1660.68,1110.43 1666.7,1145.73 1672.72,1121.31 1678.73,1176.44 1684.75,1195.73 1690.77,1193.21 1696.78,1186.23 1702.8,1170.33 1708.82,1201.37 1714.83,1160.68 1720.85,1144.4 1726.87,1138.35 1732.89,1018.53 1738.9,1050.92 1744.92,1048.42 1750.94,1030.29 1756.95,1060.89 1762.97,926.943 1768.99,1018.82 1775,1071.4 1781.02,1043.44 1787.04,893.227 1793.06,822.232 1799.07,829.488 1805.09,879.248 1811.11,828.961 1817.12,889.925 1823.14,917.608 1829.16,918.01 1835.17,898.181 1841.19,950.417 1847.21,993.716 1853.23,1072.81 1859.24,1053.98 1865.26,1066.58 1871.28,1063.75 1877.29,1112.13 1883.31,1122.22 1889.33,1095.95 1895.34,1149.12 1901.36,1014.94 1907.38,991.296 1913.4,995.74 1919.41,1038.48 1925.43,958.839 1931.45,913.582 1937.46,807.969 1943.48,738.324 1949.5,783.058 1955.51,687.854 1961.53,742.664 1967.55,644.223 1973.57,697.098 1979.58,585.341 1985.6,604.023 1991.62,491.744 1997.63,465.785 2003.65,425.945 2009.67,454.339 2015.68,449.444 2021.7,481.376 2027.72,336.451 2033.74,334.555 2039.75,392.125 2045.77,368.307 2051.79,306.855 2057.8,388.398 2063.82,391.538 2069.84,497.678 2075.85,436.018 2081.87,416.62 2087.89,439.731 2093.9,365.059 2099.92,414.533 2105.94,538.637 2111.96,535.039 2117.97,529.682 2123.99,589.9 2130.01,719.988 2136.02,629.333 2142.04,677.438 2148.06,727.054 2154.07,614.35 2160.09,646.928 2166.11,657.665 2172.13,574.204 2178.14,632.223 2184.16,583.649 2190.18,629.448 2196.19,659.726 2202.21,754.132 2208.23,916.344 2214.24,998.536 2220.26,1057.92 2226.28,1028.28 2232.3,1125.43 2238.31,1161.67 2244.33,1114.48 2250.35,1101.73 2256.36,1081.12 2262.38,1033.66 2268.4,1083.66 2274.41,1047.8 2280.43,1140.36 2286.45,1065.79 2292.47,1103.29 "/>
<path clip-path="url(#clip350)" d="M293.509 248.629 L529.798 248.629 L529.798 93.1086 L293.509 93.1086  Z" fill="#ffffff" fill-rule="evenodd" fill-opacity="1"/>
<polyline clip-path="url(#clip350)" style="stroke:#000000; stroke-linecap:round; stroke-linejoin:round; stroke-width:4; stroke-opacity:1; fill:none" points="293.509,248.629 529.798,248.629 529.798,93.1086 293.509,93.1086 293.509,248.629 "/>
<polyline clip-path="url(#clip350)" style="stroke:#009af9; stroke-linecap:round; stroke-linejoin:round; stroke-width:4; stroke-opacity:1; fill:none" points="317.179,144.949 459.196,144.949 "/>
<path clip-path="url(#clip350)" d="M504.999 131.203 Q504.999 131.531 504.789 132.304 L500.198 150.62 Q499.191 154.696 495.911 157.554 Q492.656 160.411 488.955 160.411 Q486.73 160.411 485.301 159.217 Q483.872 158.045 483.872 156.242 Q483.872 154.649 484.716 153.876 Q485.559 153.127 486.566 153.127 Q486.894 153.127 487.245 153.22 Q487.597 153.314 487.971 153.712 Q488.346 154.11 488.346 154.79 Q488.346 155.891 487.386 156.757 Q486.917 157.155 486.472 157.249 Q486.051 157.343 485.325 157.343 Q485.606 157.999 486.121 158.444 Q486.636 158.889 487.222 159.053 Q487.807 159.24 488.182 159.287 Q488.58 159.357 488.955 159.357 Q491.953 159.357 494.248 156.336 Q494.928 155.422 495.42 154.509 Q495.935 153.619 496.31 152.518 Q496.684 151.44 496.848 150.855 Q497.036 150.269 497.364 148.934 Q495.185 151.112 492.515 151.112 Q491.391 151.112 490.384 150.808 Q489.4 150.503 488.533 149.871 Q487.667 149.215 487.151 148.067 Q486.66 146.92 486.66 145.397 Q486.66 143.781 487.292 141.579 Q487.924 139.378 489.447 135.326 Q490.267 133.054 490.267 131.953 Q490.267 131.414 490.15 131.086 Q490.032 130.735 489.798 130.618 Q489.564 130.477 489.423 130.454 Q489.306 130.43 489.072 130.43 Q487.69 130.43 486.402 131.836 Q485.114 133.241 484.224 136.38 Q484.036 136.965 483.919 137.106 Q483.802 137.246 483.451 137.246 Q482.865 137.223 482.865 136.754 Q482.865 136.567 483.076 135.841 Q483.287 135.091 483.779 133.991 Q484.294 132.866 484.997 131.859 Q485.699 130.828 486.8 130.102 Q487.924 129.376 489.213 129.376 Q490.969 129.376 492.047 130.524 Q493.148 131.648 493.148 133.311 Q493.148 133.991 492.96 134.6 Q492.796 135.185 492.187 136.754 Q489.728 143.078 489.728 146.17 Q489.728 146.92 489.845 147.552 Q489.986 148.161 490.29 148.77 Q490.595 149.356 491.204 149.707 Q491.836 150.035 492.703 150.035 Q493.803 150.035 494.834 149.52 Q495.888 148.981 496.544 148.255 Q497.223 147.529 497.621 146.92 Q498.043 146.287 498.137 145.959 L500.291 137.34 L501.252 133.499 Q501.697 131.414 501.908 130.899 Q502.189 130.407 502.681 130.149 Q503.172 129.892 503.594 129.892 Q504.18 129.892 504.578 130.243 Q504.999 130.594 504.999 131.203 Z" fill="#000000" fill-rule="nonzero" fill-opacity="1" /><polyline clip-path="url(#clip350)" style="stroke:#e26f46; stroke-linecap:round; stroke-linejoin:round; stroke-width:4; stroke-opacity:1; fill:none" points="317.179,196.789 459.196,196.789 "/>
<path clip-path="url(#clip350)" d="M503.922 189.167 Q503.922 189.776 503.758 190.971 Q503.594 192.165 503.196 193.899 Q502.798 195.632 502.212 197.459 Q501.65 199.286 500.76 201.113 Q499.87 202.916 498.816 204.345 Q497.762 205.774 496.286 206.664 Q494.811 207.554 493.148 207.554 Q492.375 207.554 491.625 207.437 Q490.876 207.32 489.939 206.945 Q489.002 206.57 488.323 205.961 Q487.643 205.329 487.175 204.204 Q486.706 203.08 486.706 201.605 Q486.706 200.082 487.269 198.044 Q487.854 195.983 489.447 191.767 Q490.267 189.589 490.267 188.394 Q490.267 187.856 490.15 187.528 Q490.032 187.176 489.798 187.059 Q489.564 186.919 489.423 186.895 Q489.306 186.872 489.072 186.872 Q487.784 186.872 486.472 188.207 Q485.161 189.542 484.224 192.821 Q484.036 193.407 483.919 193.547 Q483.802 193.688 483.451 193.688 Q482.865 193.664 482.865 193.196 Q482.865 193.055 483.029 192.517 Q483.193 191.955 483.498 191.111 Q483.802 190.245 484.341 189.355 Q484.88 188.441 485.535 187.645 Q486.215 186.848 487.175 186.333 Q488.135 185.818 489.213 185.818 Q490.969 185.818 492.047 186.966 Q493.148 188.09 493.148 189.753 Q493.148 190.666 492.562 192.142 Q491.578 194.812 491.133 196.1 Q490.688 197.389 490.22 199.216 Q489.775 201.042 489.775 202.307 Q489.775 204.228 490.665 205.352 Q491.555 206.476 493.335 206.476 Q494.928 206.476 496.357 205.329 Q497.809 204.158 498.769 202.495 Q499.729 200.808 500.455 198.934 Q501.182 197.037 501.509 195.608 Q501.861 194.156 501.861 193.477 Q501.861 191.111 500.245 189.565 Q499.8 189.12 499.636 188.839 Q499.472 188.558 499.472 188.113 Q499.472 187.293 500.198 186.567 Q500.947 185.818 501.814 185.818 Q502.61 185.818 503.266 186.614 Q503.922 187.411 503.922 189.167 Z" fill="#000000" fill-rule="nonzero" fill-opacity="1" /></svg>
