<?xml version="1.0" encoding="utf-8"?>
<svg xmlns="http://www.w3.org/2000/svg" xmlns:xlink="http://www.w3.org/1999/xlink" width="800" height="350" viewBox="0 0 3200 1400">
<defs>
  <clipPath id="clip450">
    <rect x="0" y="0" width="3200" height="1400"/>
  </clipPath>
</defs>
<path clip-path="url(#clip450)" d="M0 1400 L3200 1400 L3200 0 L0 0  Z" fill="#ffffff" fill-rule="evenodd" fill-opacity="1"/>
<defs>
  <clipPath id="clip451">
    <rect x="640" y="0" width="2241" height="1400"/>
  </clipPath>
</defs>
<path clip-path="url(#clip450)" d="M202.411 1253.39 L1552.76 1253.39 L1552.76 47.2441 L202.411 47.2441  Z" fill="#ffffff" fill-rule="evenodd" fill-opacity="1"/>
<defs>
  <clipPath id="clip452">
    <rect x="202" y="47" width="1351" height="1207"/>
  </clipPath>
</defs>
<polyline clip-path="url(#clip452)" style="stroke:#000000; stroke-linecap:round; stroke-linejoin:round; stroke-width:2; stroke-opacity:0.1; fill:none" points="202.411,1253.39 202.411,47.2441 "/>
<polyline clip-path="url(#clip452)" style="stroke:#000000; stroke-linecap:round; stroke-linejoin:round; stroke-width:2; stroke-opacity:0.1; fill:none" points="649.809,1253.39 649.809,47.2441 "/>
<polyline clip-path="url(#clip452)" style="stroke:#000000; stroke-linecap:round; stroke-linejoin:round; stroke-width:2; stroke-opacity:0.1; fill:none" points="1097.21,1253.39 1097.21,47.2441 "/>
<polyline clip-path="url(#clip452)" style="stroke:#000000; stroke-linecap:round; stroke-linejoin:round; stroke-width:2; stroke-opacity:0.1; fill:none" points="1544.6,1253.39 1544.6,47.2441 "/>
<polyline clip-path="url(#clip450)" style="stroke:#000000; stroke-linecap:round; stroke-linejoin:round; stroke-width:4; stroke-opacity:1; fill:none" points="202.411,1253.39 1552.76,1253.39 "/>
<polyline clip-path="url(#clip450)" style="stroke:#000000; stroke-linecap:round; stroke-linejoin:round; stroke-width:4; stroke-opacity:1; fill:none" points="202.411,1253.39 202.411,1234.5 "/>
<polyline clip-path="url(#clip450)" style="stroke:#000000; stroke-linecap:round; stroke-linejoin:round; stroke-width:4; stroke-opacity:1; fill:none" points="649.809,1253.39 649.809,1234.5 "/>
<polyline clip-path="url(#clip450)" style="stroke:#000000; stroke-linecap:round; stroke-linejoin:round; stroke-width:4; stroke-opacity:1; fill:none" points="1097.21,1253.39 1097.21,1234.5 "/>
<polyline clip-path="url(#clip450)" style="stroke:#000000; stroke-linecap:round; stroke-linejoin:round; stroke-width:4; stroke-opacity:1; fill:none" points="1544.6,1253.39 1544.6,1234.5 "/>
<path clip-path="url(#clip450)" d="M179.795 1290.71 Q176.184 1290.71 174.356 1294.28 Q172.55 1297.82 172.55 1304.95 Q172.55 1312.06 174.356 1315.62 Q176.184 1319.16 179.795 1319.16 Q183.43 1319.16 185.235 1315.62 Q187.064 1312.06 187.064 1304.95 Q187.064 1297.82 185.235 1294.28 Q183.43 1290.71 179.795 1290.71 M179.795 1287.01 Q185.605 1287.01 188.661 1291.62 Q191.74 1296.2 191.74 1304.95 Q191.74 1313.68 188.661 1318.28 Q185.605 1322.87 179.795 1322.87 Q173.985 1322.87 170.906 1318.28 Q167.851 1313.68 167.851 1304.95 Q167.851 1296.2 170.906 1291.62 Q173.985 1287.01 179.795 1287.01 Z" fill="#000000" fill-rule="nonzero" fill-opacity="1" /><path clip-path="url(#clip450)" d="M199.957 1316.32 L204.841 1316.32 L204.841 1322.19 L199.957 1322.19 L199.957 1316.32 Z" fill="#000000" fill-rule="nonzero" fill-opacity="1" /><path clip-path="url(#clip450)" d="M225.027 1290.71 Q221.415 1290.71 219.587 1294.28 Q217.781 1297.82 217.781 1304.95 Q217.781 1312.06 219.587 1315.62 Q221.415 1319.16 225.027 1319.16 Q228.661 1319.16 230.466 1315.62 Q232.295 1312.06 232.295 1304.95 Q232.295 1297.82 230.466 1294.28 Q228.661 1290.71 225.027 1290.71 M225.027 1287.01 Q230.837 1287.01 233.892 1291.62 Q236.971 1296.2 236.971 1304.95 Q236.971 1313.68 233.892 1318.28 Q230.837 1322.87 225.027 1322.87 Q219.216 1322.87 216.138 1318.28 Q213.082 1313.68 213.082 1304.95 Q213.082 1296.2 216.138 1291.62 Q219.216 1287.01 225.027 1287.01 Z" fill="#000000" fill-rule="nonzero" fill-opacity="1" /><path clip-path="url(#clip450)" d="M627.691 1290.71 Q624.08 1290.71 622.251 1294.28 Q620.446 1297.82 620.446 1304.95 Q620.446 1312.06 622.251 1315.62 Q624.08 1319.16 627.691 1319.16 Q631.325 1319.16 633.131 1315.62 Q634.959 1312.06 634.959 1304.95 Q634.959 1297.82 633.131 1294.28 Q631.325 1290.71 627.691 1290.71 M627.691 1287.01 Q633.501 1287.01 636.557 1291.62 Q639.635 1296.2 639.635 1304.95 Q639.635 1313.68 636.557 1318.28 Q633.501 1322.87 627.691 1322.87 Q621.881 1322.87 618.802 1318.28 Q615.747 1313.68 615.747 1304.95 Q615.747 1296.2 618.802 1291.62 Q621.881 1287.01 627.691 1287.01 Z" fill="#000000" fill-rule="nonzero" fill-opacity="1" /><path clip-path="url(#clip450)" d="M647.853 1316.32 L652.737 1316.32 L652.737 1322.19 L647.853 1322.19 L647.853 1316.32 Z" fill="#000000" fill-rule="nonzero" fill-opacity="1" /><path clip-path="url(#clip450)" d="M662.968 1287.63 L681.325 1287.63 L681.325 1291.57 L667.251 1291.57 L667.251 1300.04 Q668.269 1299.69 669.288 1299.53 Q670.306 1299.35 671.325 1299.35 Q677.112 1299.35 680.492 1302.52 Q683.871 1305.69 683.871 1311.11 Q683.871 1316.69 680.399 1319.79 Q676.927 1322.87 670.607 1322.87 Q668.431 1322.87 666.163 1322.5 Q663.918 1322.13 661.51 1321.38 L661.51 1316.69 Q663.593 1317.82 665.816 1318.38 Q668.038 1318.93 670.515 1318.93 Q674.519 1318.93 676.857 1316.82 Q679.195 1314.72 679.195 1311.11 Q679.195 1307.5 676.857 1305.39 Q674.519 1303.28 670.515 1303.28 Q668.64 1303.28 666.765 1303.7 Q664.913 1304.12 662.968 1305 L662.968 1287.63 Z" fill="#000000" fill-rule="nonzero" fill-opacity="1" /><path clip-path="url(#clip450)" d="M1064.36 1318.26 L1072 1318.26 L1072 1291.89 L1063.69 1293.56 L1063.69 1289.3 L1071.95 1287.63 L1076.63 1287.63 L1076.63 1318.26 L1084.27 1318.26 L1084.27 1322.19 L1064.36 1322.19 L1064.36 1318.26 Z" fill="#000000" fill-rule="nonzero" fill-opacity="1" /><path clip-path="url(#clip450)" d="M1093.71 1316.32 L1098.6 1316.32 L1098.6 1322.19 L1093.71 1322.19 L1093.71 1316.32 Z" fill="#000000" fill-rule="nonzero" fill-opacity="1" /><path clip-path="url(#clip450)" d="M1118.78 1290.71 Q1115.17 1290.71 1113.34 1294.28 Q1111.54 1297.82 1111.54 1304.95 Q1111.54 1312.06 1113.34 1315.62 Q1115.17 1319.16 1118.78 1319.16 Q1122.41 1319.16 1124.22 1315.62 Q1126.05 1312.06 1126.05 1304.95 Q1126.05 1297.82 1124.22 1294.28 Q1122.41 1290.71 1118.78 1290.71 M1118.78 1287.01 Q1124.59 1287.01 1127.65 1291.62 Q1130.73 1296.2 1130.73 1304.95 Q1130.73 1313.68 1127.65 1318.28 Q1124.59 1322.87 1118.78 1322.87 Q1112.97 1322.87 1109.89 1318.28 Q1106.84 1313.68 1106.84 1304.95 Q1106.84 1296.2 1109.89 1291.62 Q1112.97 1287.01 1118.78 1287.01 Z" fill="#000000" fill-rule="nonzero" fill-opacity="1" /><path clip-path="url(#clip450)" d="M1512.26 1318.26 L1519.89 1318.26 L1519.89 1291.89 L1511.58 1293.56 L1511.58 1289.3 L1519.85 1287.63 L1524.52 1287.63 L1524.52 1318.26 L1532.16 1318.26 L1532.16 1322.19 L1512.26 1322.19 L1512.26 1318.26 Z" fill="#000000" fill-rule="nonzero" fill-opacity="1" /><path clip-path="url(#clip450)" d="M1541.61 1316.32 L1546.49 1316.32 L1546.49 1322.19 L1541.61 1322.19 L1541.61 1316.32 Z" fill="#000000" fill-rule="nonzero" fill-opacity="1" /><path clip-path="url(#clip450)" d="M1556.72 1287.63 L1575.08 1287.63 L1575.08 1291.57 L1561.01 1291.57 L1561.01 1300.04 Q1562.02 1299.69 1563.04 1299.53 Q1564.06 1299.35 1565.08 1299.35 Q1570.87 1299.35 1574.25 1302.52 Q1577.63 1305.69 1577.63 1311.11 Q1577.63 1316.69 1574.15 1319.79 Q1570.68 1322.87 1564.36 1322.87 Q1562.19 1322.87 1559.92 1322.5 Q1557.67 1322.13 1555.26 1321.38 L1555.26 1316.69 Q1557.35 1317.82 1559.57 1318.38 Q1561.79 1318.93 1564.27 1318.93 Q1568.27 1318.93 1570.61 1316.82 Q1572.95 1314.72 1572.95 1311.11 Q1572.95 1307.5 1570.61 1305.39 Q1568.27 1303.28 1564.27 1303.28 Q1562.39 1303.28 1560.52 1303.7 Q1558.67 1304.12 1556.72 1305 L1556.72 1287.63 Z" fill="#000000" fill-rule="nonzero" fill-opacity="1" /><path clip-path="url(#clip450)" d="M653.686 1366.4 L653.686 1373.18 Q650.439 1370.15 646.747 1368.66 Q643.087 1367.16 638.949 1367.16 Q630.801 1367.16 626.472 1372.16 Q622.144 1377.13 622.144 1386.55 Q622.144 1395.94 626.472 1400.93 Q630.801 1405.9 638.949 1405.9 Q643.087 1405.9 646.747 1404.4 Q650.439 1402.91 653.686 1399.88 L653.686 1406.6 Q650.312 1408.89 646.524 1410.04 Q642.768 1411.18 638.567 1411.18 Q627.777 1411.18 621.571 1404.59 Q615.364 1397.97 615.364 1386.55 Q615.364 1375.09 621.571 1368.5 Q627.777 1361.88 638.567 1361.88 Q642.832 1361.88 646.588 1363.03 Q650.375 1364.14 653.686 1366.4 Z" fill="#000000" fill-rule="nonzero" fill-opacity="1" /><path clip-path="url(#clip450)" d="M677.175 1378.72 Q672.464 1378.72 669.727 1382.41 Q666.99 1386.07 666.99 1392.47 Q666.99 1398.86 669.695 1402.56 Q672.433 1406.22 677.175 1406.22 Q681.854 1406.22 684.591 1402.52 Q687.328 1398.83 687.328 1392.47 Q687.328 1386.13 684.591 1382.44 Q681.854 1378.72 677.175 1378.72 M677.175 1373.75 Q684.814 1373.75 689.174 1378.72 Q693.535 1383.68 693.535 1392.47 Q693.535 1401.22 689.174 1406.22 Q684.814 1411.18 677.175 1411.18 Q669.504 1411.18 665.144 1406.22 Q660.815 1401.22 660.815 1392.47 Q660.815 1383.68 665.144 1378.72 Q669.504 1373.75 677.175 1373.75 Z" fill="#000000" fill-rule="nonzero" fill-opacity="1" /><path clip-path="url(#clip450)" d="M732.875 1388.74 L732.875 1410.26 L727.019 1410.26 L727.019 1388.93 Q727.019 1383.87 725.045 1381.36 Q723.072 1378.84 719.125 1378.84 Q714.383 1378.84 711.645 1381.87 Q708.908 1384.89 708.908 1390.11 L708.908 1410.26 L703.02 1410.26 L703.02 1374.61 L708.908 1374.61 L708.908 1380.15 Q711.009 1376.93 713.842 1375.34 Q716.706 1373.75 720.43 1373.75 Q726.573 1373.75 729.724 1377.57 Q732.875 1381.36 732.875 1388.74 Z" fill="#000000" fill-rule="nonzero" fill-opacity="1" /><path clip-path="url(#clip450)" d="M740.355 1374.61 L746.561 1374.61 L757.701 1404.53 L768.841 1374.61 L775.048 1374.61 L761.68 1410.26 L753.723 1410.26 L740.355 1374.61 Z" fill="#000000" fill-rule="nonzero" fill-opacity="1" /><path clip-path="url(#clip450)" d="M813.624 1390.97 L813.624 1393.84 L786.697 1393.84 Q787.079 1399.88 790.326 1403.07 Q793.604 1406.22 799.428 1406.22 Q802.802 1406.22 805.953 1405.39 Q809.136 1404.56 812.255 1402.91 L812.255 1408.44 Q809.104 1409.78 805.794 1410.48 Q802.484 1411.18 799.078 1411.18 Q790.548 1411.18 785.551 1406.22 Q780.586 1401.25 780.586 1392.78 Q780.586 1384.03 785.297 1378.91 Q790.039 1373.75 798.06 1373.75 Q805.253 1373.75 809.423 1378.4 Q813.624 1383.01 813.624 1390.97 M807.768 1389.25 Q807.704 1384.45 805.062 1381.58 Q802.452 1378.72 798.123 1378.72 Q793.222 1378.72 790.262 1381.49 Q787.334 1384.25 786.888 1389.28 L807.768 1389.25 Z" fill="#000000" fill-rule="nonzero" fill-opacity="1" /><path clip-path="url(#clip450)" d="M848.89 1375.98 L848.89 1381.45 Q846.407 1380.09 843.893 1379.42 Q841.41 1378.72 838.864 1378.72 Q833.167 1378.72 830.016 1382.35 Q826.865 1385.94 826.865 1392.47 Q826.865 1398.99 830.016 1402.62 Q833.167 1406.22 838.864 1406.22 Q841.41 1406.22 843.893 1405.55 Q846.407 1404.85 848.89 1403.48 L848.89 1408.89 Q846.439 1410.04 843.797 1410.61 Q841.187 1411.18 838.227 1411.18 Q830.175 1411.18 825.432 1406.12 Q820.69 1401.06 820.69 1392.47 Q820.69 1383.75 825.464 1378.75 Q830.27 1373.75 838.609 1373.75 Q841.315 1373.75 843.893 1374.32 Q846.471 1374.87 848.89 1375.98 Z" fill="#000000" fill-rule="nonzero" fill-opacity="1" /><path clip-path="url(#clip450)" d="M864.868 1364.49 L864.868 1374.61 L876.931 1374.61 L876.931 1379.16 L864.868 1379.16 L864.868 1398.51 Q864.868 1402.87 866.046 1404.12 Q867.255 1405.36 870.915 1405.36 L876.931 1405.36 L876.931 1410.26 L870.915 1410.26 Q864.136 1410.26 861.558 1407.74 Q858.98 1405.2 858.98 1398.51 L858.98 1379.16 L854.683 1379.16 L854.683 1374.61 L858.98 1374.61 L858.98 1364.49 L864.868 1364.49 Z" fill="#000000" fill-rule="nonzero" fill-opacity="1" /><path clip-path="url(#clip450)" d="M884.633 1374.61 L890.49 1374.61 L890.49 1410.26 L884.633 1410.26 L884.633 1374.61 M884.633 1360.73 L890.49 1360.73 L890.49 1368.15 L884.633 1368.15 L884.633 1360.73 Z" fill="#000000" fill-rule="nonzero" fill-opacity="1" /><path clip-path="url(#clip450)" d="M898.543 1374.61 L904.749 1374.61 L915.889 1404.53 L927.029 1374.61 L933.236 1374.61 L919.868 1410.26 L911.91 1410.26 L898.543 1374.61 Z" fill="#000000" fill-rule="nonzero" fill-opacity="1" /><path clip-path="url(#clip450)" d="M971.812 1390.97 L971.812 1393.84 L944.885 1393.84 Q945.267 1399.88 948.513 1403.07 Q951.792 1406.22 957.616 1406.22 Q960.99 1406.22 964.141 1405.39 Q967.324 1404.56 970.443 1402.91 L970.443 1408.44 Q967.292 1409.78 963.982 1410.48 Q960.672 1411.18 957.266 1411.18 Q948.736 1411.18 943.739 1406.22 Q938.774 1401.25 938.774 1392.78 Q938.774 1384.03 943.484 1378.91 Q948.227 1373.75 956.248 1373.75 Q963.441 1373.75 967.61 1378.4 Q971.812 1383.01 971.812 1390.97 M965.955 1389.25 Q965.892 1384.45 963.25 1381.58 Q960.64 1378.72 956.311 1378.72 Q951.41 1378.72 948.45 1381.49 Q945.521 1384.25 945.076 1389.28 L965.955 1389.25 Z" fill="#000000" fill-rule="nonzero" fill-opacity="1" /><path clip-path="url(#clip450)" d="M1007.94 1364.49 L1007.94 1374.61 L1020 1374.61 L1020 1379.16 L1007.94 1379.16 L1007.94 1398.51 Q1007.94 1402.87 1009.11 1404.12 Q1010.32 1405.36 1013.98 1405.36 L1020 1405.36 L1020 1410.26 L1013.98 1410.26 Q1007.21 1410.26 1004.63 1407.74 Q1002.05 1405.2 1002.05 1398.51 L1002.05 1379.16 L997.752 1379.16 L997.752 1374.61 L1002.05 1374.61 L1002.05 1364.49 L1007.94 1364.49 Z" fill="#000000" fill-rule="nonzero" fill-opacity="1" /><path clip-path="url(#clip450)" d="M1027.7 1374.61 L1033.56 1374.61 L1033.56 1410.26 L1027.7 1410.26 L1027.7 1374.61 M1027.7 1360.73 L1033.56 1360.73 L1033.56 1368.15 L1027.7 1368.15 L1027.7 1360.73 Z" fill="#000000" fill-rule="nonzero" fill-opacity="1" /><path clip-path="url(#clip450)" d="M1073.57 1381.45 Q1075.76 1377.51 1078.82 1375.63 Q1081.87 1373.75 1086.01 1373.75 Q1091.58 1373.75 1094.61 1377.67 Q1097.63 1381.55 1097.63 1388.74 L1097.63 1410.26 L1091.74 1410.26 L1091.74 1388.93 Q1091.74 1383.81 1089.93 1381.33 Q1088.11 1378.84 1084.39 1378.84 Q1079.84 1378.84 1077.2 1381.87 Q1074.55 1384.89 1074.55 1390.11 L1074.55 1410.26 L1068.67 1410.26 L1068.67 1388.93 Q1068.67 1383.78 1066.85 1381.33 Q1065.04 1378.84 1061.25 1378.84 Q1056.76 1378.84 1054.12 1381.9 Q1051.48 1384.92 1051.48 1390.11 L1051.48 1410.26 L1045.59 1410.26 L1045.59 1374.61 L1051.48 1374.61 L1051.48 1380.15 Q1053.48 1376.87 1056.28 1375.31 Q1059.09 1373.75 1062.94 1373.75 Q1066.82 1373.75 1069.53 1375.72 Q1072.26 1377.7 1073.57 1381.45 Z" fill="#000000" fill-rule="nonzero" fill-opacity="1" /><path clip-path="url(#clip450)" d="M1139.8 1390.97 L1139.8 1393.84 L1112.88 1393.84 Q1113.26 1399.88 1116.5 1403.07 Q1119.78 1406.22 1125.61 1406.22 Q1128.98 1406.22 1132.13 1405.39 Q1135.31 1404.56 1138.43 1402.91 L1138.43 1408.44 Q1135.28 1409.78 1131.97 1410.48 Q1128.66 1411.18 1125.26 1411.18 Q1116.73 1411.18 1111.73 1406.22 Q1106.76 1401.25 1106.76 1392.78 Q1106.76 1384.03 1111.48 1378.91 Q1116.22 1373.75 1124.24 1373.75 Q1131.43 1373.75 1135.6 1378.4 Q1139.8 1383.01 1139.8 1390.97 M1133.95 1389.25 Q1133.88 1384.45 1131.24 1381.58 Q1128.63 1378.72 1124.3 1378.72 Q1119.4 1378.72 1116.44 1381.49 Q1113.51 1384.25 1113.07 1389.28 L1133.95 1389.25 Z" fill="#000000" fill-rule="nonzero" fill-opacity="1" /><polyline clip-path="url(#clip452)" style="stroke:#000000; stroke-linecap:round; stroke-linejoin:round; stroke-width:2; stroke-opacity:0.1; fill:none" points="202.411,1253.39 1552.76,1253.39 "/>
<polyline clip-path="url(#clip452)" style="stroke:#000000; stroke-linecap:round; stroke-linejoin:round; stroke-width:2; stroke-opacity:0.1; fill:none" points="202.411,951.857 1552.76,951.857 "/>
<polyline clip-path="url(#clip452)" style="stroke:#000000; stroke-linecap:round; stroke-linejoin:round; stroke-width:2; stroke-opacity:0.1; fill:none" points="202.411,650.319 1552.76,650.319 "/>
<polyline clip-path="url(#clip452)" style="stroke:#000000; stroke-linecap:round; stroke-linejoin:round; stroke-width:2; stroke-opacity:0.1; fill:none" points="202.411,348.782 1552.76,348.782 "/>
<polyline clip-path="url(#clip452)" style="stroke:#000000; stroke-linecap:round; stroke-linejoin:round; stroke-width:2; stroke-opacity:0.1; fill:none" points="202.411,47.2441 1552.76,47.2441 "/>
<polyline clip-path="url(#clip450)" style="stroke:#000000; stroke-linecap:round; stroke-linejoin:round; stroke-width:4; stroke-opacity:1; fill:none" points="202.411,1253.39 202.411,47.2441 "/>
<polyline clip-path="url(#clip450)" style="stroke:#000000; stroke-linecap:round; stroke-linejoin:round; stroke-width:4; stroke-opacity:1; fill:none" points="202.411,1253.39 221.309,1253.39 "/>
<polyline clip-path="url(#clip450)" style="stroke:#000000; stroke-linecap:round; stroke-linejoin:round; stroke-width:4; stroke-opacity:1; fill:none" points="202.411,951.857 221.309,951.857 "/>
<polyline clip-path="url(#clip450)" style="stroke:#000000; stroke-linecap:round; stroke-linejoin:round; stroke-width:4; stroke-opacity:1; fill:none" points="202.411,650.319 221.309,650.319 "/>
<polyline clip-path="url(#clip450)" style="stroke:#000000; stroke-linecap:round; stroke-linejoin:round; stroke-width:4; stroke-opacity:1; fill:none" points="202.411,348.782 221.309,348.782 "/>
<polyline clip-path="url(#clip450)" style="stroke:#000000; stroke-linecap:round; stroke-linejoin:round; stroke-width:4; stroke-opacity:1; fill:none" points="202.411,47.2441 221.309,47.2441 "/>
<path clip-path="url(#clip450)" d="M94.2955 1253.85 L123.971 1253.85 L123.971 1257.78 L94.2955 1257.78 L94.2955 1253.85 Z" fill="#000000" fill-rule="nonzero" fill-opacity="1" /><path clip-path="url(#clip450)" d="M138.092 1266.74 L154.411 1266.74 L154.411 1270.67 L132.467 1270.67 L132.467 1266.74 Q135.129 1263.99 139.712 1259.36 Q144.318 1254.7 145.499 1253.36 Q147.744 1250.84 148.624 1249.1 Q149.527 1247.34 149.527 1245.65 Q149.527 1242.9 147.582 1241.16 Q145.661 1239.43 142.559 1239.43 Q140.36 1239.43 137.906 1240.19 Q135.476 1240.95 132.698 1242.5 L132.698 1237.78 Q135.522 1236.65 137.976 1236.07 Q140.43 1235.49 142.467 1235.49 Q147.837 1235.49 151.031 1238.18 Q154.226 1240.86 154.226 1245.35 Q154.226 1247.48 153.416 1249.4 Q152.629 1251.3 150.522 1253.89 Q149.943 1254.56 146.842 1257.78 Q143.74 1260.98 138.092 1266.74 Z" fill="#000000" fill-rule="nonzero" fill-opacity="1" /><path clip-path="url(#clip450)" d="M93.9252 952.309 L123.601 952.309 L123.601 956.244 L93.9252 956.244 L93.9252 952.309 Z" fill="#000000" fill-rule="nonzero" fill-opacity="1" /><path clip-path="url(#clip450)" d="M134.504 965.202 L142.142 965.202 L142.142 938.836 L133.832 940.503 L133.832 936.244 L142.096 934.577 L146.772 934.577 L146.772 965.202 L154.411 965.202 L154.411 969.137 L134.504 969.137 L134.504 965.202 Z" fill="#000000" fill-rule="nonzero" fill-opacity="1" /><path clip-path="url(#clip450)" d="M142.467 636.118 Q138.855 636.118 137.027 639.683 Q135.221 643.225 135.221 650.354 Q135.221 657.461 137.027 661.025 Q138.855 664.567 142.467 664.567 Q146.101 664.567 147.906 661.025 Q149.735 657.461 149.735 650.354 Q149.735 643.225 147.906 639.683 Q146.101 636.118 142.467 636.118 M142.467 632.414 Q148.277 632.414 151.332 637.021 Q154.411 641.604 154.411 650.354 Q154.411 659.081 151.332 663.687 Q148.277 668.271 142.467 668.271 Q136.656 668.271 133.578 663.687 Q130.522 659.081 130.522 650.354 Q130.522 641.604 133.578 637.021 Q136.656 632.414 142.467 632.414 Z" fill="#000000" fill-rule="nonzero" fill-opacity="1" /><path clip-path="url(#clip450)" d="M134.504 362.127 L142.142 362.127 L142.142 335.761 L133.832 337.428 L133.832 333.168 L142.096 331.502 L146.772 331.502 L146.772 362.127 L154.411 362.127 L154.411 366.062 L134.504 366.062 L134.504 362.127 Z" fill="#000000" fill-rule="nonzero" fill-opacity="1" /><path clip-path="url(#clip450)" d="M138.092 60.5889 L154.411 60.5889 L154.411 64.5241 L132.467 64.5241 L132.467 60.5889 Q135.129 57.8343 139.712 53.2047 Q144.318 48.552 145.499 47.2094 Q147.744 44.6862 148.624 42.9501 Q149.527 41.1909 149.527 39.5011 Q149.527 36.7465 147.582 35.0104 Q145.661 33.2743 142.559 33.2743 Q140.36 33.2743 137.906 34.0381 Q135.476 34.802 132.698 36.3529 L132.698 31.6308 Q135.522 30.4965 137.976 29.9178 Q140.43 29.3391 142.467 29.3391 Q147.837 29.3391 151.031 32.0243 Q154.226 34.7094 154.226 39.2002 Q154.226 41.3298 153.416 43.2511 Q152.629 45.1492 150.522 47.7418 Q149.943 48.4131 146.842 51.6306 Q143.74 54.8251 138.092 60.5889 Z" fill="#000000" fill-rule="nonzero" fill-opacity="1" /><path clip-path="url(#clip450)" d="M-15.4849 651.173 L1.32651 655.327 Q2.3893 655.617 2.51813 655.81 Q2.64695 655.971 2.64695 656.487 Q2.64695 657.485 1.97063 657.485 Q1.90622 657.485 1.06886 657.389 Q0.199305 657.292 -1.37878 657.292 Q-7.20804 657.292 -10.6541 660.126 Q-14.1001 662.928 -14.1001 667.92 Q-14.1001 672.235 -11.9101 676.583 Q-9.7201 680.899 -6.14525 683.991 Q-3.43996 686.309 -0.0261364 688.016 Q3.38768 689.691 6.51165 690.496 Q9.63562 691.269 11.9866 691.623 Q14.3377 691.978 16.0446 691.978 Q18.5244 691.978 20.6178 691.462 Q22.7112 690.915 24.1927 689.949 Q25.6419 688.982 26.7691 687.759 Q27.8641 686.503 28.5083 685.053 Q29.1524 683.572 29.4744 682.09 Q29.7643 680.609 29.7643 679.063 Q29.7643 672.847 24.9334 666.921 Q20.9721 662.219 14.4987 660.255 Q13.8546 660.094 13.8546 659.417 Q13.8546 658.612 14.4987 658.612 Q14.6275 658.612 15.2716 658.773 Q15.8836 658.934 17.1396 659.417 Q18.3634 659.901 19.7483 660.641 Q21.1331 661.382 22.8722 662.767 Q24.6113 664.152 26.125 665.859 Q28.6371 668.757 30.2152 672.429 Q31.7933 676.1 31.7933 680.126 Q31.7933 685.15 29.5711 689.208 Q27.3488 693.266 23.1943 695.649 Q19.0397 698 13.7258 698 Q8.12195 698 2.61474 695.424 Q-2.89246 692.847 -6.9826 688.757 Q-11.0727 684.667 -13.617 679.256 Q-16.1613 673.846 -16.1613 668.435 Q-16.1613 666.374 -15.6138 664.538 Q-15.0663 662.702 -14.39 661.607 Q-13.7136 660.48 -12.7152 659.482 Q-11.7491 658.484 -11.2982 658.161 Q-10.8473 657.807 -10.2998 657.485 L-15.3561 652.88 Q-16.1613 652.075 -16.1613 651.881 Q-16.1613 651.495 -15.9358 651.334 Q-15.7104 651.173 -15.4849 651.173 Z" fill="#000000" fill-rule="nonzero" fill-opacity="1" /><path clip-path="url(#clip450)" d="M30.6626 609.324 Q34.3824 609.324 38.0346 610.925 Q41.6642 612.503 44.4145 615.073 Q47.1424 617.621 48.8332 621.07 Q50.524 624.519 50.524 628.036 L50.524 643.321 Q50.524 643.862 50.5014 644.087 Q50.4789 644.29 50.3662 644.448 Q50.2309 644.606 49.9604 644.606 Q49.5321 644.606 49.3517 644.426 Q49.1488 644.245 49.1263 644.042 Q49.1037 643.839 49.1037 643.321 Q49.1037 642.194 49.0361 641.517 Q48.9684 640.841 48.8783 640.413 Q48.7656 639.962 48.4499 639.736 Q48.1343 639.488 47.8638 639.376 Q47.5707 639.263 46.9169 639.105 L22.1184 632.928 Q21.3745 632.748 21.2617 632.748 Q20.8785 632.748 20.7432 632.973 Q20.5854 633.176 20.5178 633.762 Q20.4276 634.889 20.4276 635.746 Q20.4276 636.31 20.4051 636.535 Q20.3825 636.738 20.2698 636.918 Q20.1345 637.076 19.864 637.076 Q19.4357 637.076 19.2553 636.896 Q19.0524 636.693 19.0299 636.468 Q18.9848 636.242 18.9848 635.701 L18.9848 620.191 Q18.9848 616.832 20.5629 614.329 Q22.1184 611.827 24.7561 610.587 Q27.3712 609.324 30.6626 609.324 M28.9718 613.36 Q24.6659 613.36 22.5468 615.704 Q20.4276 618.026 20.4276 621.701 L20.4276 626.638 Q20.4276 628.104 20.6981 628.464 Q20.9461 628.825 22.1861 629.141 L47.5256 635.476 Q48.3598 635.701 48.5852 635.701 Q48.8332 635.701 48.9234 635.588 Q48.991 635.453 49.0361 635.092 Q49.1037 634.687 49.1037 634.078 L49.1037 628.87 Q49.1037 626.864 48.5627 625.038 Q47.9991 623.189 47.1198 621.859 Q46.2181 620.529 45.4516 619.672 Q44.6625 618.815 43.8735 618.207 Q42.0925 616.832 39.7705 615.817 Q37.4484 614.78 35.3293 614.307 Q33.1876 613.811 31.6095 613.585 Q30.0089 613.36 28.9718 613.36 Z" fill="#000000" fill-rule="nonzero" fill-opacity="1" /><polyline clip-path="url(#clip452)" style="stroke:#009af9; stroke-linecap:round; stroke-linejoin:round; stroke-width:4; stroke-opacity:1; fill:none" points="202.411,650.319 232.419,650.319 262.426,650.319 292.434,650.319 322.442,650.319 352.449,650.319 382.457,650.319 412.465,650.319 442.472,650.319 472.48,650.319 502.488,650.319 532.495,650.319 562.503,650.319 592.511,650.319 622.518,650.319 652.526,650.319 682.534,650.319 712.541,650.319 742.549,650.319 772.557,650.319 802.564,650.319 832.572,650.319 862.58,650.319 892.587,650.319 922.595,650.319 952.603,650.319 982.61,650.319 1012.62,650.319 1042.63,650.319 1072.63,650.319 1102.64,650.319 1132.65,650.319 1162.66,650.319 1192.66,650.319 1222.67,650.319 1252.68,650.319 1282.69,650.319 1312.69,650.319 1342.7,650.319 1372.71,650.319 1402.72,650.319 1432.73,650.319 1462.73,650.319 1492.74,650.319 1522.75,650.319 1552.76,650.319 "/>
<path clip-path="url(#clip450)" d="M1802.41 1253.39 L3152.76 1253.39 L3152.76 47.2441 L1802.41 47.2441  Z" fill="#ffffff" fill-rule="evenodd" fill-opacity="1"/>
<defs>
  <clipPath id="clip453">
    <rect x="1802" y="47" width="1351" height="1207"/>
  </clipPath>
</defs>
<polyline clip-path="url(#clip453)" style="stroke:#000000; stroke-linecap:round; stroke-linejoin:round; stroke-width:2; stroke-opacity:0.1; fill:none" points="1802.41,1253.39 1802.41,47.2441 "/>
<polyline clip-path="url(#clip453)" style="stroke:#000000; stroke-linecap:round; stroke-linejoin:round; stroke-width:2; stroke-opacity:0.1; fill:none" points="2249.81,1253.39 2249.81,47.2441 "/>
<polyline clip-path="url(#clip453)" style="stroke:#000000; stroke-linecap:round; stroke-linejoin:round; stroke-width:2; stroke-opacity:0.1; fill:none" points="2697.21,1253.39 2697.21,47.2441 "/>
<polyline clip-path="url(#clip453)" style="stroke:#000000; stroke-linecap:round; stroke-linejoin:round; stroke-width:2; stroke-opacity:0.1; fill:none" points="3144.6,1253.39 3144.6,47.2441 "/>
<polyline clip-path="url(#clip450)" style="stroke:#000000; stroke-linecap:round; stroke-linejoin:round; stroke-width:4; stroke-opacity:1; fill:none" points="1802.41,1253.39 3152.76,1253.39 "/>
<polyline clip-path="url(#clip450)" style="stroke:#000000; stroke-linecap:round; stroke-linejoin:round; stroke-width:4; stroke-opacity:1; fill:none" points="1802.41,1253.39 1802.41,1234.5 "/>
<polyline clip-path="url(#clip450)" style="stroke:#000000; stroke-linecap:round; stroke-linejoin:round; stroke-width:4; stroke-opacity:1; fill:none" points="2249.81,1253.39 2249.81,1234.5 "/>
<polyline clip-path="url(#clip450)" style="stroke:#000000; stroke-linecap:round; stroke-linejoin:round; stroke-width:4; stroke-opacity:1; fill:none" points="2697.21,1253.39 2697.21,1234.5 "/>
<polyline clip-path="url(#clip450)" style="stroke:#000000; stroke-linecap:round; stroke-linejoin:round; stroke-width:4; stroke-opacity:1; fill:none" points="3144.6,1253.39 3144.6,1234.5 "/>
<path clip-path="url(#clip450)" d="M1779.8 1290.71 Q1776.18 1290.71 1774.36 1294.28 Q1772.55 1297.82 1772.55 1304.95 Q1772.55 1312.06 1774.36 1315.62 Q1776.18 1319.16 1779.8 1319.16 Q1783.43 1319.16 1785.24 1315.62 Q1787.06 1312.06 1787.06 1304.95 Q1787.06 1297.82 1785.24 1294.28 Q1783.43 1290.71 1779.8 1290.71 M1779.8 1287.01 Q1785.61 1287.01 1788.66 1291.62 Q1791.74 1296.2 1791.74 1304.95 Q1791.74 1313.68 1788.66 1318.28 Q1785.61 1322.87 1779.8 1322.87 Q1773.99 1322.87 1770.91 1318.28 Q1767.85 1313.68 1767.85 1304.95 Q1767.85 1296.2 1770.91 1291.62 Q1773.99 1287.01 1779.8 1287.01 Z" fill="#000000" fill-rule="nonzero" fill-opacity="1" /><path clip-path="url(#clip450)" d="M1799.96 1316.32 L1804.84 1316.32 L1804.84 1322.19 L1799.96 1322.19 L1799.96 1316.32 Z" fill="#000000" fill-rule="nonzero" fill-opacity="1" /><path clip-path="url(#clip450)" d="M1825.03 1290.71 Q1821.42 1290.71 1819.59 1294.28 Q1817.78 1297.82 1817.78 1304.95 Q1817.78 1312.06 1819.59 1315.62 Q1821.42 1319.16 1825.03 1319.16 Q1828.66 1319.16 1830.47 1315.62 Q1832.3 1312.06 1832.3 1304.95 Q1832.3 1297.82 1830.47 1294.28 Q1828.66 1290.71 1825.03 1290.71 M1825.03 1287.01 Q1830.84 1287.01 1833.89 1291.62 Q1836.97 1296.2 1836.97 1304.95 Q1836.97 1313.68 1833.89 1318.28 Q1830.84 1322.87 1825.03 1322.87 Q1819.22 1322.87 1816.14 1318.28 Q1813.08 1313.68 1813.08 1304.95 Q1813.08 1296.2 1816.14 1291.62 Q1819.22 1287.01 1825.03 1287.01 Z" fill="#000000" fill-rule="nonzero" fill-opacity="1" /><path clip-path="url(#clip450)" d="M2227.69 1290.71 Q2224.08 1290.71 2222.25 1294.28 Q2220.45 1297.82 2220.45 1304.95 Q2220.45 1312.06 2222.25 1315.62 Q2224.08 1319.16 2227.69 1319.16 Q2231.33 1319.16 2233.13 1315.62 Q2234.96 1312.06 2234.96 1304.95 Q2234.96 1297.82 2233.13 1294.28 Q2231.33 1290.71 2227.69 1290.71 M2227.69 1287.01 Q2233.5 1287.01 2236.56 1291.62 Q2239.64 1296.2 2239.64 1304.95 Q2239.64 1313.68 2236.56 1318.28 Q2233.5 1322.87 2227.69 1322.87 Q2221.88 1322.87 2218.8 1318.28 Q2215.75 1313.68 2215.75 1304.95 Q2215.75 1296.2 2218.8 1291.62 Q2221.88 1287.01 2227.69 1287.01 Z" fill="#000000" fill-rule="nonzero" fill-opacity="1" /><path clip-path="url(#clip450)" d="M2247.85 1316.32 L2252.74 1316.32 L2252.74 1322.19 L2247.85 1322.19 L2247.85 1316.32 Z" fill="#000000" fill-rule="nonzero" fill-opacity="1" /><path clip-path="url(#clip450)" d="M2262.97 1287.63 L2281.32 1287.63 L2281.32 1291.57 L2267.25 1291.57 L2267.25 1300.04 Q2268.27 1299.69 2269.29 1299.53 Q2270.31 1299.35 2271.32 1299.35 Q2277.11 1299.35 2280.49 1302.52 Q2283.87 1305.69 2283.87 1311.11 Q2283.87 1316.69 2280.4 1319.79 Q2276.93 1322.87 2270.61 1322.87 Q2268.43 1322.87 2266.16 1322.5 Q2263.92 1322.13 2261.51 1321.38 L2261.51 1316.69 Q2263.59 1317.82 2265.82 1318.38 Q2268.04 1318.93 2270.51 1318.93 Q2274.52 1318.93 2276.86 1316.82 Q2279.2 1314.72 2279.2 1311.11 Q2279.2 1307.5 2276.86 1305.39 Q2274.52 1303.28 2270.51 1303.28 Q2268.64 1303.28 2266.76 1303.7 Q2264.91 1304.12 2262.97 1305 L2262.97 1287.63 Z" fill="#000000" fill-rule="nonzero" fill-opacity="1" /><path clip-path="url(#clip450)" d="M2664.36 1318.26 L2672 1318.26 L2672 1291.89 L2663.69 1293.56 L2663.69 1289.3 L2671.95 1287.63 L2676.63 1287.63 L2676.63 1318.26 L2684.27 1318.26 L2684.27 1322.19 L2664.36 1322.19 L2664.36 1318.26 Z" fill="#000000" fill-rule="nonzero" fill-opacity="1" /><path clip-path="url(#clip450)" d="M2693.71 1316.32 L2698.6 1316.32 L2698.6 1322.19 L2693.71 1322.19 L2693.71 1316.32 Z" fill="#000000" fill-rule="nonzero" fill-opacity="1" /><path clip-path="url(#clip450)" d="M2718.78 1290.71 Q2715.17 1290.71 2713.34 1294.28 Q2711.54 1297.82 2711.54 1304.95 Q2711.54 1312.06 2713.34 1315.62 Q2715.17 1319.16 2718.78 1319.16 Q2722.41 1319.16 2724.22 1315.62 Q2726.05 1312.06 2726.05 1304.95 Q2726.05 1297.82 2724.22 1294.28 Q2722.41 1290.71 2718.78 1290.71 M2718.78 1287.01 Q2724.59 1287.01 2727.65 1291.62 Q2730.73 1296.2 2730.73 1304.95 Q2730.73 1313.68 2727.65 1318.28 Q2724.59 1322.87 2718.78 1322.87 Q2712.97 1322.87 2709.89 1318.28 Q2706.84 1313.68 2706.84 1304.95 Q2706.84 1296.2 2709.89 1291.62 Q2712.97 1287.01 2718.78 1287.01 Z" fill="#000000" fill-rule="nonzero" fill-opacity="1" /><path clip-path="url(#clip450)" d="M3112.26 1318.26 L3119.89 1318.26 L3119.89 1291.89 L3111.58 1293.56 L3111.58 1289.3 L3119.85 1287.63 L3124.52 1287.63 L3124.52 1318.26 L3132.16 1318.26 L3132.16 1322.19 L3112.26 1322.19 L3112.26 1318.26 Z" fill="#000000" fill-rule="nonzero" fill-opacity="1" /><path clip-path="url(#clip450)" d="M3141.61 1316.32 L3146.49 1316.32 L3146.49 1322.19 L3141.61 1322.19 L3141.61 1316.32 Z" fill="#000000" fill-rule="nonzero" fill-opacity="1" /><path clip-path="url(#clip450)" d="M3156.72 1287.63 L3175.08 1287.63 L3175.08 1291.57 L3161.01 1291.57 L3161.01 1300.04 Q3162.02 1299.69 3163.04 1299.53 Q3164.06 1299.35 3165.08 1299.35 Q3170.87 1299.35 3174.25 1302.52 Q3177.63 1305.69 3177.63 1311.11 Q3177.63 1316.69 3174.15 1319.79 Q3170.68 1322.87 3164.36 1322.87 Q3162.19 1322.87 3159.92 1322.5 Q3157.67 1322.13 3155.26 1321.38 L3155.26 1316.69 Q3157.35 1317.82 3159.57 1318.38 Q3161.79 1318.93 3164.27 1318.93 Q3168.27 1318.93 3170.61 1316.82 Q3172.95 1314.72 3172.95 1311.11 Q3172.95 1307.5 3170.61 1305.39 Q3168.27 1303.28 3164.27 1303.28 Q3162.39 1303.28 3160.52 1303.7 Q3158.67 1304.12 3156.72 1305 L3156.72 1287.63 Z" fill="#000000" fill-rule="nonzero" fill-opacity="1" /><path clip-path="url(#clip450)" d="M2253.69 1366.4 L2253.69 1373.18 Q2250.44 1370.15 2246.75 1368.66 Q2243.09 1367.16 2238.95 1367.16 Q2230.8 1367.16 2226.47 1372.16 Q2222.14 1377.13 2222.14 1386.55 Q2222.14 1395.94 2226.47 1400.93 Q2230.8 1405.9 2238.95 1405.9 Q2243.09 1405.9 2246.75 1404.4 Q2250.44 1402.91 2253.69 1399.88 L2253.69 1406.6 Q2250.31 1408.89 2246.52 1410.04 Q2242.77 1411.18 2238.57 1411.18 Q2227.78 1411.18 2221.57 1404.59 Q2215.36 1397.97 2215.36 1386.55 Q2215.36 1375.09 2221.57 1368.5 Q2227.78 1361.88 2238.57 1361.88 Q2242.83 1361.88 2246.59 1363.03 Q2250.38 1364.14 2253.69 1366.4 Z" fill="#000000" fill-rule="nonzero" fill-opacity="1" /><path clip-path="url(#clip450)" d="M2277.18 1378.72 Q2272.46 1378.72 2269.73 1382.41 Q2266.99 1386.07 2266.99 1392.47 Q2266.99 1398.86 2269.7 1402.56 Q2272.43 1406.22 2277.18 1406.22 Q2281.85 1406.22 2284.59 1402.52 Q2287.33 1398.83 2287.33 1392.47 Q2287.33 1386.13 2284.59 1382.44 Q2281.85 1378.72 2277.18 1378.72 M2277.18 1373.75 Q2284.81 1373.75 2289.17 1378.72 Q2293.53 1383.68 2293.53 1392.47 Q2293.53 1401.22 2289.17 1406.22 Q2284.81 1411.18 2277.18 1411.18 Q2269.5 1411.18 2265.14 1406.22 Q2260.82 1401.22 2260.82 1392.47 Q2260.82 1383.68 2265.14 1378.72 Q2269.5 1373.75 2277.18 1373.75 Z" fill="#000000" fill-rule="nonzero" fill-opacity="1" /><path clip-path="url(#clip450)" d="M2332.87 1388.74 L2332.87 1410.26 L2327.02 1410.26 L2327.02 1388.93 Q2327.02 1383.87 2325.05 1381.36 Q2323.07 1378.84 2319.13 1378.84 Q2314.38 1378.84 2311.65 1381.87 Q2308.91 1384.89 2308.91 1390.11 L2308.91 1410.26 L2303.02 1410.26 L2303.02 1374.61 L2308.91 1374.61 L2308.91 1380.15 Q2311.01 1376.93 2313.84 1375.34 Q2316.71 1373.75 2320.43 1373.75 Q2326.57 1373.75 2329.72 1377.57 Q2332.87 1381.36 2332.87 1388.74 Z" fill="#000000" fill-rule="nonzero" fill-opacity="1" /><path clip-path="url(#clip450)" d="M2340.35 1374.61 L2346.56 1374.61 L2357.7 1404.53 L2368.84 1374.61 L2375.05 1374.61 L2361.68 1410.26 L2353.72 1410.26 L2340.35 1374.61 Z" fill="#000000" fill-rule="nonzero" fill-opacity="1" /><path clip-path="url(#clip450)" d="M2413.62 1390.97 L2413.62 1393.84 L2386.7 1393.84 Q2387.08 1399.88 2390.33 1403.07 Q2393.6 1406.22 2399.43 1406.22 Q2402.8 1406.22 2405.95 1405.39 Q2409.14 1404.56 2412.26 1402.91 L2412.26 1408.44 Q2409.1 1409.78 2405.79 1410.48 Q2402.48 1411.18 2399.08 1411.18 Q2390.55 1411.18 2385.55 1406.22 Q2380.59 1401.25 2380.59 1392.78 Q2380.59 1384.03 2385.3 1378.91 Q2390.04 1373.75 2398.06 1373.75 Q2405.25 1373.75 2409.42 1378.4 Q2413.62 1383.01 2413.62 1390.97 M2407.77 1389.25 Q2407.7 1384.45 2405.06 1381.58 Q2402.45 1378.72 2398.12 1378.72 Q2393.22 1378.72 2390.26 1381.49 Q2387.33 1384.25 2386.89 1389.28 L2407.77 1389.25 Z" fill="#000000" fill-rule="nonzero" fill-opacity="1" /><path clip-path="url(#clip450)" d="M2448.89 1375.98 L2448.89 1381.45 Q2446.41 1380.09 2443.89 1379.42 Q2441.41 1378.72 2438.86 1378.72 Q2433.17 1378.72 2430.02 1382.35 Q2426.86 1385.94 2426.86 1392.47 Q2426.86 1398.99 2430.02 1402.62 Q2433.17 1406.22 2438.86 1406.22 Q2441.41 1406.22 2443.89 1405.55 Q2446.41 1404.85 2448.89 1403.48 L2448.89 1408.89 Q2446.44 1410.04 2443.8 1410.61 Q2441.19 1411.18 2438.23 1411.18 Q2430.17 1411.18 2425.43 1406.12 Q2420.69 1401.06 2420.69 1392.47 Q2420.69 1383.75 2425.46 1378.75 Q2430.27 1373.75 2438.61 1373.75 Q2441.31 1373.75 2443.89 1374.32 Q2446.47 1374.87 2448.89 1375.98 Z" fill="#000000" fill-rule="nonzero" fill-opacity="1" /><path clip-path="url(#clip450)" d="M2464.87 1364.49 L2464.87 1374.61 L2476.93 1374.61 L2476.93 1379.16 L2464.87 1379.16 L2464.87 1398.51 Q2464.87 1402.87 2466.05 1404.12 Q2467.26 1405.36 2470.92 1405.36 L2476.93 1405.36 L2476.93 1410.26 L2470.92 1410.26 Q2464.14 1410.26 2461.56 1407.74 Q2458.98 1405.2 2458.98 1398.51 L2458.98 1379.16 L2454.68 1379.16 L2454.68 1374.61 L2458.98 1374.61 L2458.98 1364.49 L2464.87 1364.49 Z" fill="#000000" fill-rule="nonzero" fill-opacity="1" /><path clip-path="url(#clip450)" d="M2484.63 1374.61 L2490.49 1374.61 L2490.49 1410.26 L2484.63 1410.26 L2484.63 1374.61 M2484.63 1360.73 L2490.49 1360.73 L2490.49 1368.15 L2484.63 1368.15 L2484.63 1360.73 Z" fill="#000000" fill-rule="nonzero" fill-opacity="1" /><path clip-path="url(#clip450)" d="M2498.54 1374.61 L2504.75 1374.61 L2515.89 1404.53 L2527.03 1374.61 L2533.24 1374.61 L2519.87 1410.26 L2511.91 1410.26 L2498.54 1374.61 Z" fill="#000000" fill-rule="nonzero" fill-opacity="1" /><path clip-path="url(#clip450)" d="M2571.81 1390.97 L2571.81 1393.84 L2544.88 1393.84 Q2545.27 1399.88 2548.51 1403.07 Q2551.79 1406.22 2557.62 1406.22 Q2560.99 1406.22 2564.14 1405.39 Q2567.32 1404.56 2570.44 1402.91 L2570.44 1408.44 Q2567.29 1409.78 2563.98 1410.48 Q2560.67 1411.18 2557.27 1411.18 Q2548.74 1411.18 2543.74 1406.22 Q2538.77 1401.25 2538.77 1392.78 Q2538.77 1384.03 2543.48 1378.91 Q2548.23 1373.75 2556.25 1373.75 Q2563.44 1373.75 2567.61 1378.4 Q2571.81 1383.01 2571.81 1390.97 M2565.96 1389.25 Q2565.89 1384.45 2563.25 1381.58 Q2560.64 1378.72 2556.31 1378.72 Q2551.41 1378.72 2548.45 1381.49 Q2545.52 1384.25 2545.08 1389.28 L2565.96 1389.25 Z" fill="#000000" fill-rule="nonzero" fill-opacity="1" /><path clip-path="url(#clip450)" d="M2607.94 1364.49 L2607.94 1374.61 L2620 1374.61 L2620 1379.16 L2607.94 1379.16 L2607.94 1398.51 Q2607.94 1402.87 2609.11 1404.12 Q2610.32 1405.36 2613.98 1405.36 L2620 1405.36 L2620 1410.26 L2613.98 1410.26 Q2607.21 1410.26 2604.63 1407.74 Q2602.05 1405.2 2602.05 1398.51 L2602.05 1379.16 L2597.75 1379.16 L2597.75 1374.61 L2602.05 1374.61 L2602.05 1364.49 L2607.94 1364.49 Z" fill="#000000" fill-rule="nonzero" fill-opacity="1" /><path clip-path="url(#clip450)" d="M2627.7 1374.61 L2633.56 1374.61 L2633.56 1410.26 L2627.7 1410.26 L2627.7 1374.61 M2627.7 1360.73 L2633.56 1360.73 L2633.56 1368.15 L2627.7 1368.15 L2627.7 1360.73 Z" fill="#000000" fill-rule="nonzero" fill-opacity="1" /><path clip-path="url(#clip450)" d="M2673.57 1381.45 Q2675.76 1377.51 2678.82 1375.63 Q2681.87 1373.75 2686.01 1373.75 Q2691.58 1373.75 2694.61 1377.67 Q2697.63 1381.55 2697.63 1388.74 L2697.63 1410.26 L2691.74 1410.26 L2691.74 1388.93 Q2691.74 1383.81 2689.93 1381.33 Q2688.11 1378.84 2684.39 1378.84 Q2679.84 1378.84 2677.2 1381.87 Q2674.55 1384.89 2674.55 1390.11 L2674.55 1410.26 L2668.67 1410.26 L2668.67 1388.93 Q2668.67 1383.78 2666.85 1381.33 Q2665.04 1378.84 2661.25 1378.84 Q2656.76 1378.84 2654.12 1381.9 Q2651.48 1384.92 2651.48 1390.11 L2651.48 1410.26 L2645.59 1410.26 L2645.59 1374.61 L2651.48 1374.61 L2651.48 1380.15 Q2653.48 1376.87 2656.28 1375.31 Q2659.09 1373.75 2662.94 1373.75 Q2666.82 1373.75 2669.53 1375.72 Q2672.26 1377.7 2673.57 1381.45 Z" fill="#000000" fill-rule="nonzero" fill-opacity="1" /><path clip-path="url(#clip450)" d="M2739.8 1390.97 L2739.8 1393.84 L2712.88 1393.84 Q2713.26 1399.88 2716.5 1403.07 Q2719.78 1406.22 2725.61 1406.22 Q2728.98 1406.22 2732.13 1405.39 Q2735.31 1404.56 2738.43 1402.91 L2738.43 1408.44 Q2735.28 1409.78 2731.97 1410.48 Q2728.66 1411.18 2725.26 1411.18 Q2716.73 1411.18 2711.73 1406.22 Q2706.76 1401.25 2706.76 1392.78 Q2706.76 1384.03 2711.48 1378.91 Q2716.22 1373.75 2724.24 1373.75 Q2731.43 1373.75 2735.6 1378.4 Q2739.8 1383.01 2739.8 1390.97 M2733.95 1389.25 Q2733.88 1384.45 2731.24 1381.58 Q2728.63 1378.72 2724.3 1378.72 Q2719.4 1378.72 2716.44 1381.49 Q2713.51 1384.25 2713.07 1389.28 L2733.95 1389.25 Z" fill="#000000" fill-rule="nonzero" fill-opacity="1" /><polyline clip-path="url(#clip453)" style="stroke:#000000; stroke-linecap:round; stroke-linejoin:round; stroke-width:2; stroke-opacity:0.1; fill:none" points="1802.41,1253.39 3152.76,1253.39 "/>
<polyline clip-path="url(#clip453)" style="stroke:#000000; stroke-linecap:round; stroke-linejoin:round; stroke-width:2; stroke-opacity:0.1; fill:none" points="1802.41,951.857 3152.76,951.857 "/>
<polyline clip-path="url(#clip453)" style="stroke:#000000; stroke-linecap:round; stroke-linejoin:round; stroke-width:2; stroke-opacity:0.1; fill:none" points="1802.41,650.319 3152.76,650.319 "/>
<polyline clip-path="url(#clip453)" style="stroke:#000000; stroke-linecap:round; stroke-linejoin:round; stroke-width:2; stroke-opacity:0.1; fill:none" points="1802.41,348.782 3152.76,348.782 "/>
<polyline clip-path="url(#clip453)" style="stroke:#000000; stroke-linecap:round; stroke-linejoin:round; stroke-width:2; stroke-opacity:0.1; fill:none" points="1802.41,47.2441 3152.76,47.2441 "/>
<polyline clip-path="url(#clip450)" style="stroke:#000000; stroke-linecap:round; stroke-linejoin:round; stroke-width:4; stroke-opacity:1; fill:none" points="1802.41,1253.39 1802.41,47.2441 "/>
<polyline clip-path="url(#clip450)" style="stroke:#000000; stroke-linecap:round; stroke-linejoin:round; stroke-width:4; stroke-opacity:1; fill:none" points="1802.41,1253.39 1821.31,1253.39 "/>
<polyline clip-path="url(#clip450)" style="stroke:#000000; stroke-linecap:round; stroke-linejoin:round; stroke-width:4; stroke-opacity:1; fill:none" points="1802.41,951.857 1821.31,951.857 "/>
<polyline clip-path="url(#clip450)" style="stroke:#000000; stroke-linecap:round; stroke-linejoin:round; stroke-width:4; stroke-opacity:1; fill:none" points="1802.41,650.319 1821.31,650.319 "/>
<polyline clip-path="url(#clip450)" style="stroke:#000000; stroke-linecap:round; stroke-linejoin:round; stroke-width:4; stroke-opacity:1; fill:none" points="1802.41,348.782 1821.31,348.782 "/>
<polyline clip-path="url(#clip450)" style="stroke:#000000; stroke-linecap:round; stroke-linejoin:round; stroke-width:4; stroke-opacity:1; fill:none" points="1802.41,47.2441 1821.31,47.2441 "/>
<path clip-path="url(#clip450)" d="M1694.3 1253.85 L1723.97 1253.85 L1723.97 1257.78 L1694.3 1257.78 L1694.3 1253.85 Z" fill="#000000" fill-rule="nonzero" fill-opacity="1" /><path clip-path="url(#clip450)" d="M1738.09 1266.74 L1754.41 1266.74 L1754.41 1270.67 L1732.47 1270.67 L1732.47 1266.74 Q1735.13 1263.99 1739.71 1259.36 Q1744.32 1254.7 1745.5 1253.36 Q1747.74 1250.84 1748.62 1249.1 Q1749.53 1247.34 1749.53 1245.65 Q1749.53 1242.9 1747.58 1241.16 Q1745.66 1239.43 1742.56 1239.43 Q1740.36 1239.43 1737.91 1240.19 Q1735.48 1240.95 1732.7 1242.5 L1732.7 1237.78 Q1735.52 1236.65 1737.98 1236.07 Q1740.43 1235.49 1742.47 1235.49 Q1747.84 1235.49 1751.03 1238.18 Q1754.23 1240.86 1754.23 1245.35 Q1754.23 1247.48 1753.42 1249.4 Q1752.63 1251.3 1750.52 1253.89 Q1749.94 1254.56 1746.84 1257.78 Q1743.74 1260.98 1738.09 1266.74 Z" fill="#000000" fill-rule="nonzero" fill-opacity="1" /><path clip-path="url(#clip450)" d="M1693.93 952.309 L1723.6 952.309 L1723.6 956.244 L1693.93 956.244 L1693.93 952.309 Z" fill="#000000" fill-rule="nonzero" fill-opacity="1" /><path clip-path="url(#clip450)" d="M1734.5 965.202 L1742.14 965.202 L1742.14 938.836 L1733.83 940.503 L1733.83 936.244 L1742.1 934.577 L1746.77 934.577 L1746.77 965.202 L1754.41 965.202 L1754.41 969.137 L1734.5 969.137 L1734.5 965.202 Z" fill="#000000" fill-rule="nonzero" fill-opacity="1" /><path clip-path="url(#clip450)" d="M1742.47 636.118 Q1738.86 636.118 1737.03 639.683 Q1735.22 643.225 1735.22 650.354 Q1735.22 657.461 1737.03 661.025 Q1738.86 664.567 1742.47 664.567 Q1746.1 664.567 1747.91 661.025 Q1749.74 657.461 1749.74 650.354 Q1749.74 643.225 1747.91 639.683 Q1746.1 636.118 1742.47 636.118 M1742.47 632.414 Q1748.28 632.414 1751.33 637.021 Q1754.41 641.604 1754.41 650.354 Q1754.41 659.081 1751.33 663.687 Q1748.28 668.271 1742.47 668.271 Q1736.66 668.271 1733.58 663.687 Q1730.52 659.081 1730.52 650.354 Q1730.52 641.604 1733.58 637.021 Q1736.66 632.414 1742.47 632.414 Z" fill="#000000" fill-rule="nonzero" fill-opacity="1" /><path clip-path="url(#clip450)" d="M1734.5 362.127 L1742.14 362.127 L1742.14 335.761 L1733.83 337.428 L1733.83 333.168 L1742.1 331.502 L1746.77 331.502 L1746.77 362.127 L1754.41 362.127 L1754.41 366.062 L1734.5 366.062 L1734.5 362.127 Z" fill="#000000" fill-rule="nonzero" fill-opacity="1" /><path clip-path="url(#clip450)" d="M1738.09 60.5889 L1754.41 60.5889 L1754.41 64.5241 L1732.47 64.5241 L1732.47 60.5889 Q1735.13 57.8343 1739.71 53.2047 Q1744.32 48.552 1745.5 47.2094 Q1747.74 44.6862 1748.62 42.9501 Q1749.53 41.1909 1749.53 39.5011 Q1749.53 36.7465 1747.58 35.0104 Q1745.66 33.2743 1742.56 33.2743 Q1740.36 33.2743 1737.91 34.0381 Q1735.48 34.802 1732.7 36.3529 L1732.7 31.6308 Q1735.52 30.4965 1737.98 29.9178 Q1740.43 29.3391 1742.47 29.3391 Q1747.84 29.3391 1751.03 32.0243 Q1754.23 34.7094 1754.23 39.2002 Q1754.23 41.3298 1753.42 43.2511 Q1752.63 45.1492 1750.52 47.7418 Q1749.94 48.4131 1746.84 51.6306 Q1743.74 54.8251 1738.09 60.5889 Z" fill="#000000" fill-rule="nonzero" fill-opacity="1" /><path clip-path="url(#clip450)" d="M1584.52 647.512 L1601.33 651.667 Q1602.39 651.957 1602.52 652.15 Q1602.65 652.311 1602.65 652.826 Q1602.65 653.825 1601.97 653.825 Q1601.91 653.825 1601.07 653.728 Q1600.2 653.631 1598.62 653.631 Q1592.79 653.631 1589.35 656.466 Q1585.9 659.267 1585.9 664.259 Q1585.9 668.575 1588.09 672.923 Q1590.28 677.238 1593.85 680.33 Q1596.56 682.649 1599.97 684.356 Q1603.39 686.031 1606.51 686.836 Q1609.64 687.609 1611.99 687.963 Q1614.34 688.317 1616.04 688.317 Q1618.52 688.317 1620.62 687.802 Q1622.71 687.254 1624.19 686.288 Q1625.64 685.322 1626.77 684.098 Q1627.86 682.842 1628.51 681.393 Q1629.15 679.911 1629.47 678.43 Q1629.76 676.949 1629.76 675.403 Q1629.76 669.187 1624.93 663.261 Q1620.97 658.559 1614.5 656.594 Q1613.85 656.433 1613.85 655.757 Q1613.85 654.952 1614.5 654.952 Q1614.63 654.952 1615.27 655.113 Q1615.88 655.274 1617.14 655.757 Q1618.36 656.24 1619.75 656.981 Q1621.13 657.722 1622.87 659.106 Q1624.61 660.491 1626.13 662.198 Q1628.64 665.097 1630.22 668.768 Q1631.79 672.44 1631.79 676.465 Q1631.79 681.49 1629.57 685.547 Q1627.35 689.605 1623.19 691.989 Q1619.04 694.34 1613.73 694.34 Q1608.12 694.34 1602.61 691.763 Q1597.11 689.187 1593.02 685.097 Q1588.93 681.006 1586.38 675.596 Q1583.84 670.185 1583.84 664.775 Q1583.84 662.714 1584.39 660.878 Q1584.93 659.042 1585.61 657.947 Q1586.29 656.82 1587.28 655.821 Q1588.25 654.823 1588.7 654.501 Q1589.15 654.147 1589.7 653.825 L1584.64 649.219 Q1583.84 648.414 1583.84 648.221 Q1583.84 647.834 1584.06 647.673 Q1584.29 647.512 1584.52 647.512 Z" fill="#000000" fill-rule="nonzero" fill-opacity="1" /><path clip-path="url(#clip450)" d="M1639.12 613.058 Q1639.25 613.058 1639.77 613.239 L1649.73 616.891 Q1650.32 617.094 1650.43 617.297 Q1650.52 617.5 1650.52 618.334 L1650.52 639.706 Q1650.52 640.224 1650.5 640.427 Q1650.48 640.63 1650.37 640.788 Q1650.25 640.946 1650.01 640.946 Q1649.55 640.946 1649.35 640.788 Q1649.15 640.607 1649.13 640.404 Q1649.1 640.202 1649.1 639.706 Q1649.1 638.578 1649.04 637.902 Q1648.97 637.226 1648.88 636.797 Q1648.77 636.347 1648.45 636.121 Q1648.13 635.873 1647.86 635.76 Q1647.57 635.648 1646.92 635.49 L1622.12 629.313 Q1621.37 629.132 1621.26 629.132 Q1620.83 629.132 1620.72 629.403 Q1620.59 629.651 1620.52 630.372 L1620.43 632.131 Q1620.43 632.672 1620.41 632.897 Q1620.38 633.1 1620.27 633.258 Q1620.16 633.416 1619.91 633.416 Q1619.48 633.416 1619.28 633.258 Q1619.05 633.078 1619.03 632.942 Q1618.98 632.785 1618.98 632.537 L1619.12 626.405 L1618.98 619.574 Q1618.98 618.83 1619.55 618.83 Q1620.18 618.83 1620.31 619.145 Q1620.43 619.461 1620.43 620.588 Q1620.43 622.752 1620.65 623.744 Q1620.88 624.714 1621.26 624.984 Q1621.62 625.232 1622.59 625.48 L1647.53 631.725 Q1648.36 631.95 1648.59 631.95 Q1648.83 631.95 1648.92 631.838 Q1648.99 631.702 1649.04 631.342 Q1649.1 630.936 1649.1 630.327 L1649.1 625.999 Q1649.1 624.691 1648.9 623.541 Q1648.7 622.392 1648.4 621.512 Q1648.11 620.611 1647.57 619.799 Q1647.03 618.988 1646.56 618.424 Q1646.06 617.838 1645.29 617.274 Q1644.5 616.688 1643.96 616.35 Q1643.4 615.989 1642.5 615.583 Q1641.57 615.178 1641.06 614.975 Q1640.51 614.749 1639.59 614.411 Q1639.12 614.208 1638.98 614.141 Q1638.85 614.073 1638.73 613.96 Q1638.62 613.825 1638.62 613.622 Q1638.62 613.352 1638.78 613.216 Q1638.94 613.058 1639.12 613.058 Z" fill="#000000" fill-rule="nonzero" fill-opacity="1" /><polyline clip-path="url(#clip453)" style="stroke:#009af9; stroke-linecap:round; stroke-linejoin:round; stroke-width:4; stroke-opacity:1; fill:none" points="1802.41,650.319 1832.42,-2584.78 1862.43,712.394 1892.43,707.379 1922.44,701.179 1952.45,695.522 1982.46,690.072 2012.46,685.319 2042.47,680.303 2072.48,675.777 2102.49,671.024 2132.5,666.467 2162.5,661.899 2192.51,657.487 2222.52,652.755 2252.53,648.509 2282.53,643.686 2312.54,639.439 2342.55,634.672 2372.56,630.351 2402.56,625.558 2432.57,621.33 2462.58,616.512 2492.59,612.275 2522.59,607.49 2552.6,603.289 2582.61,598.52 2612.62,594.287 2642.63,589.665 2672.63,585.481 2702.64,580.95 2732.65,576.818 2762.66,572.591 2792.66,568.544 2822.67,564.605 2852.68,560.624 2882.69,556.972 2912.69,553.245 2942.7,549.851 2972.71,546.476 3002.72,543.254 3032.73,540.289 3062.73,537.331 3092.74,534.639 3122.75,532.138 3152.76,529.702 "/>
</svg>
