<?xml version="1.0" encoding="utf-8"?>
<svg xmlns="http://www.w3.org/2000/svg" xmlns:xlink="http://www.w3.org/1999/xlink" width="600" height="400" viewBox="0 0 2400 1600">
<defs>
  <clipPath id="clip600">
    <rect x="0" y="0" width="2400" height="1600"/>
  </clipPath>
</defs>
<path clip-path="url(#clip600)" d="M0 1600 L2400 1600 L2400 0 L0 0  Z" fill="#ffffff" fill-rule="evenodd" fill-opacity="1"/>
<defs>
  <clipPath id="clip601">
    <rect x="480" y="0" width="1681" height="1600"/>
  </clipPath>
</defs>
<path clip-path="url(#clip600)" d="M170.714 1486.45 L2329.52 1486.45 L2329.52 47.2441 L170.714 47.2441  Z" fill="#ffffff" fill-rule="evenodd" fill-opacity="1"/>
<defs>
  <clipPath id="clip602">
    <rect x="170" y="47" width="2160" height="1440"/>
  </clipPath>
</defs>
<polyline clip-path="url(#clip600)" style="stroke:#000000; stroke-linecap:round; stroke-linejoin:round; stroke-width:4; stroke-opacity:1; fill:none" points="170.714,1486.45 2329.52,1486.45 "/>
<polyline clip-path="url(#clip600)" style="stroke:#000000; stroke-linecap:round; stroke-linejoin:round; stroke-width:4; stroke-opacity:1; fill:none" points="170.714,1486.45 170.714,1467.55 "/>
<polyline clip-path="url(#clip600)" style="stroke:#000000; stroke-linecap:round; stroke-linejoin:round; stroke-width:4; stroke-opacity:1; fill:none" points="530.515,1486.45 530.515,1467.55 "/>
<polyline clip-path="url(#clip600)" style="stroke:#000000; stroke-linecap:round; stroke-linejoin:round; stroke-width:4; stroke-opacity:1; fill:none" points="890.316,1486.45 890.316,1467.55 "/>
<polyline clip-path="url(#clip600)" style="stroke:#000000; stroke-linecap:round; stroke-linejoin:round; stroke-width:4; stroke-opacity:1; fill:none" points="1250.12,1486.45 1250.12,1467.55 "/>
<polyline clip-path="url(#clip600)" style="stroke:#000000; stroke-linecap:round; stroke-linejoin:round; stroke-width:4; stroke-opacity:1; fill:none" points="1609.92,1486.45 1609.92,1467.55 "/>
<polyline clip-path="url(#clip600)" style="stroke:#000000; stroke-linecap:round; stroke-linejoin:round; stroke-width:4; stroke-opacity:1; fill:none" points="1969.72,1486.45 1969.72,1467.55 "/>
<polyline clip-path="url(#clip600)" style="stroke:#000000; stroke-linecap:round; stroke-linejoin:round; stroke-width:4; stroke-opacity:1; fill:none" points="2329.52,1486.45 2329.52,1467.55 "/>
<path clip-path="url(#clip600)" d="M140.471 1532.02 L170.147 1532.02 L170.147 1535.95 L140.471 1535.95 L140.471 1532.02 Z" fill="#000000" fill-rule="nonzero" fill-opacity="1" /><path clip-path="url(#clip600)" d="M181.05 1544.91 L188.689 1544.91 L188.689 1518.55 L180.378 1520.21 L180.378 1515.95 L188.642 1514.29 L193.318 1514.29 L193.318 1544.91 L200.957 1544.91 L200.957 1548.85 L181.05 1548.85 L181.05 1544.91 Z" fill="#000000" fill-rule="nonzero" fill-opacity="1" /><path clip-path="url(#clip600)" d="M530.515 1517.37 Q526.904 1517.37 525.075 1520.93 Q523.27 1524.47 523.27 1531.6 Q523.27 1538.71 525.075 1542.27 Q526.904 1545.82 530.515 1545.82 Q534.149 1545.82 535.955 1542.27 Q537.783 1538.71 537.783 1531.6 Q537.783 1524.47 535.955 1520.93 Q534.149 1517.37 530.515 1517.37 M530.515 1513.66 Q536.325 1513.66 539.381 1518.27 Q542.459 1522.85 542.459 1531.6 Q542.459 1540.33 539.381 1544.94 Q536.325 1549.52 530.515 1549.52 Q524.705 1549.52 521.626 1544.94 Q518.571 1540.33 518.571 1531.6 Q518.571 1522.85 521.626 1518.27 Q524.705 1513.66 530.515 1513.66 Z" fill="#000000" fill-rule="nonzero" fill-opacity="1" /><path clip-path="url(#clip600)" d="M880.698 1544.91 L888.337 1544.91 L888.337 1518.55 L880.027 1520.21 L880.027 1515.95 L888.291 1514.29 L892.966 1514.29 L892.966 1544.91 L900.605 1544.91 L900.605 1548.85 L880.698 1548.85 L880.698 1544.91 Z" fill="#000000" fill-rule="nonzero" fill-opacity="1" /><path clip-path="url(#clip600)" d="M1244.77 1544.91 L1261.09 1544.91 L1261.09 1548.85 L1239.14 1548.85 L1239.14 1544.91 Q1241.81 1542.16 1246.39 1537.53 Q1251 1532.88 1252.18 1531.53 Q1254.42 1529.01 1255.3 1527.27 Q1256.2 1525.51 1256.2 1523.82 Q1256.2 1521.07 1254.26 1519.33 Q1252.34 1517.6 1249.24 1517.6 Q1247.04 1517.6 1244.58 1518.36 Q1242.15 1519.13 1239.38 1520.68 L1239.38 1515.95 Q1242.2 1514.82 1244.65 1514.24 Q1247.11 1513.66 1249.14 1513.66 Q1254.52 1513.66 1257.71 1516.35 Q1260.9 1519.03 1260.9 1523.52 Q1260.9 1525.65 1260.09 1527.57 Q1259.31 1529.47 1257.2 1532.07 Q1256.62 1532.74 1253.52 1535.95 Q1250.42 1539.15 1244.77 1544.91 Z" fill="#000000" fill-rule="nonzero" fill-opacity="1" /><path clip-path="url(#clip600)" d="M1614.17 1530.21 Q1617.52 1530.93 1619.4 1533.2 Q1621.3 1535.47 1621.3 1538.8 Q1621.3 1543.92 1617.78 1546.72 Q1614.26 1549.52 1607.78 1549.52 Q1605.6 1549.52 1603.29 1549.08 Q1600.99 1548.66 1598.54 1547.81 L1598.54 1543.29 Q1600.49 1544.43 1602.8 1545.01 Q1605.11 1545.58 1607.64 1545.58 Q1612.04 1545.58 1614.33 1543.85 Q1616.64 1542.11 1616.64 1538.8 Q1616.64 1535.75 1614.49 1534.03 Q1612.36 1532.3 1608.54 1532.3 L1604.51 1532.3 L1604.51 1528.45 L1608.73 1528.45 Q1612.17 1528.45 1614 1527.09 Q1615.83 1525.7 1615.83 1523.11 Q1615.83 1520.45 1613.93 1519.03 Q1612.06 1517.6 1608.54 1517.6 Q1606.62 1517.6 1604.42 1518.01 Q1602.22 1518.43 1599.58 1519.31 L1599.58 1515.14 Q1602.24 1514.4 1604.56 1514.03 Q1606.9 1513.66 1608.96 1513.66 Q1614.28 1513.66 1617.38 1516.09 Q1620.48 1518.5 1620.48 1522.62 Q1620.48 1525.49 1618.84 1527.48 Q1617.2 1529.45 1614.17 1530.21 Z" fill="#000000" fill-rule="nonzero" fill-opacity="1" /><path clip-path="url(#clip600)" d="M1972.73 1518.36 L1960.92 1536.81 L1972.73 1536.81 L1972.73 1518.36 M1971.5 1514.29 L1977.38 1514.29 L1977.38 1536.81 L1982.31 1536.81 L1982.31 1540.7 L1977.38 1540.7 L1977.38 1548.85 L1972.73 1548.85 L1972.73 1540.7 L1957.13 1540.7 L1957.13 1536.19 L1971.5 1514.29 Z" fill="#000000" fill-rule="nonzero" fill-opacity="1" /><path clip-path="url(#clip600)" d="M2319.8 1514.29 L2338.15 1514.29 L2338.15 1518.22 L2324.08 1518.22 L2324.08 1526.7 Q2325.1 1526.35 2326.12 1526.19 Q2327.14 1526 2328.15 1526 Q2333.94 1526 2337.32 1529.17 Q2340.7 1532.34 2340.7 1537.76 Q2340.7 1543.34 2337.23 1546.44 Q2333.76 1549.52 2327.44 1549.52 Q2325.26 1549.52 2322.99 1549.15 Q2320.75 1548.78 2318.34 1548.04 L2318.34 1543.34 Q2320.42 1544.47 2322.64 1545.03 Q2324.87 1545.58 2327.34 1545.58 Q2331.35 1545.58 2333.69 1543.48 Q2336.02 1541.37 2336.02 1537.76 Q2336.02 1534.15 2333.69 1532.04 Q2331.35 1529.94 2327.34 1529.94 Q2325.47 1529.94 2323.59 1530.35 Q2321.74 1530.77 2319.8 1531.65 L2319.8 1514.29 Z" fill="#000000" fill-rule="nonzero" fill-opacity="1" /><polyline clip-path="url(#clip600)" style="stroke:#000000; stroke-linecap:round; stroke-linejoin:round; stroke-width:4; stroke-opacity:1; fill:none" points="170.714,1486.45 170.714,47.2441 "/>
<polyline clip-path="url(#clip600)" style="stroke:#000000; stroke-linecap:round; stroke-linejoin:round; stroke-width:4; stroke-opacity:1; fill:none" points="170.714,1486.45 189.213,1486.45 "/>
<polyline clip-path="url(#clip600)" style="stroke:#000000; stroke-linecap:round; stroke-linejoin:round; stroke-width:4; stroke-opacity:1; fill:none" points="170.714,1126.65 189.213,1126.65 "/>
<polyline clip-path="url(#clip600)" style="stroke:#000000; stroke-linecap:round; stroke-linejoin:round; stroke-width:4; stroke-opacity:1; fill:none" points="170.714,766.846 189.213,766.846 "/>
<polyline clip-path="url(#clip600)" style="stroke:#000000; stroke-linecap:round; stroke-linejoin:round; stroke-width:4; stroke-opacity:1; fill:none" points="170.714,407.045 189.213,407.045 "/>
<polyline clip-path="url(#clip600)" style="stroke:#000000; stroke-linecap:round; stroke-linejoin:round; stroke-width:4; stroke-opacity:1; fill:none" points="170.714,47.2441 189.213,47.2441 "/>
<path clip-path="url(#clip600)" d="M74.5987 1486.9 L104.274 1486.9 L104.274 1490.83 L74.5987 1490.83 L74.5987 1486.9 Z" fill="#000000" fill-rule="nonzero" fill-opacity="1" /><path clip-path="url(#clip600)" d="M118.395 1499.79 L134.714 1499.79 L134.714 1503.73 L112.77 1503.73 L112.77 1499.79 Q115.432 1497.04 120.015 1492.41 Q124.622 1487.76 125.802 1486.41 Q128.047 1483.89 128.927 1482.15 Q129.83 1480.39 129.83 1478.7 Q129.83 1475.95 127.885 1474.21 Q125.964 1472.48 122.862 1472.48 Q120.663 1472.48 118.21 1473.24 Q115.779 1474.01 113.001 1475.56 L113.001 1470.83 Q115.825 1469.7 118.279 1469.12 Q120.733 1468.54 122.77 1468.54 Q128.14 1468.54 131.334 1471.23 Q134.529 1473.91 134.529 1478.4 Q134.529 1480.53 133.719 1482.45 Q132.932 1484.35 130.825 1486.95 Q130.247 1487.62 127.145 1490.83 Q124.043 1494.03 118.395 1499.79 Z" fill="#000000" fill-rule="nonzero" fill-opacity="1" /><path clip-path="url(#clip600)" d="M74.2283 1127.1 L103.904 1127.1 L103.904 1131.03 L74.2283 1131.03 L74.2283 1127.1 Z" fill="#000000" fill-rule="nonzero" fill-opacity="1" /><path clip-path="url(#clip600)" d="M114.807 1139.99 L122.446 1139.99 L122.446 1113.63 L114.135 1115.29 L114.135 1111.03 L122.399 1109.37 L127.075 1109.37 L127.075 1139.99 L134.714 1139.99 L134.714 1143.93 L114.807 1143.93 L114.807 1139.99 Z" fill="#000000" fill-rule="nonzero" fill-opacity="1" /><path clip-path="url(#clip600)" d="M122.77 752.645 Q119.159 752.645 117.33 756.209 Q115.524 759.751 115.524 766.881 Q115.524 773.987 117.33 777.552 Q119.159 781.094 122.77 781.094 Q126.404 781.094 128.209 777.552 Q130.038 773.987 130.038 766.881 Q130.038 759.751 128.209 756.209 Q126.404 752.645 122.77 752.645 M122.77 748.941 Q128.58 748.941 131.635 753.547 Q134.714 758.131 134.714 766.881 Q134.714 775.608 131.635 780.214 Q128.58 784.797 122.77 784.797 Q116.96 784.797 113.881 780.214 Q110.825 775.608 110.825 766.881 Q110.825 758.131 113.881 753.547 Q116.96 748.941 122.77 748.941 Z" fill="#000000" fill-rule="nonzero" fill-opacity="1" /><path clip-path="url(#clip600)" d="M114.807 420.39 L122.446 420.39 L122.446 394.024 L114.135 395.691 L114.135 391.432 L122.399 389.765 L127.075 389.765 L127.075 420.39 L134.714 420.39 L134.714 424.325 L114.807 424.325 L114.807 420.39 Z" fill="#000000" fill-rule="nonzero" fill-opacity="1" /><path clip-path="url(#clip600)" d="M118.395 60.5889 L134.714 60.5889 L134.714 64.5241 L112.77 64.5241 L112.77 60.5889 Q115.432 57.8343 120.015 53.2047 Q124.622 48.552 125.802 47.2094 Q128.047 44.6862 128.927 42.9501 Q129.83 41.1909 129.83 39.5011 Q129.83 36.7465 127.885 35.0104 Q125.964 33.2743 122.862 33.2743 Q120.663 33.2743 118.21 34.0381 Q115.779 34.802 113.001 36.3529 L113.001 31.6308 Q115.825 30.4965 118.279 29.9178 Q120.733 29.3391 122.77 29.3391 Q128.14 29.3391 131.334 32.0243 Q134.529 34.7094 134.529 39.2002 Q134.529 41.3298 133.719 43.2511 Q132.932 45.1492 130.825 47.7418 Q130.247 48.4131 127.145 51.6306 Q124.043 54.8251 118.395 60.5889 Z" fill="#000000" fill-rule="nonzero" fill-opacity="1" /><path clip-path="url(#clip602)" d="M470.444 954.126 L477.511 947.059 L484.578 939.991 L491.646 932.924 L498.713 925.857 L505.78 918.79 L512.847 911.723 L519.914 904.656 L526.981 897.588 L534.049 890.521 L541.116 883.454 L548.183 876.387 L555.25 869.32 L562.317 862.253 L569.384 855.185 L576.452 848.118 L583.519 841.051 L590.586 833.984 L597.653 826.917 L604.72 819.85 L611.787 812.783 L618.854 805.715 L625.922 798.648 L632.989 791.581 L640.056 784.514 L647.123 777.447 L654.19 770.38 L661.257 763.312 L668.325 756.245 L675.392 749.178 L682.459 742.111 L689.526 735.044 L696.593 727.977 L703.66 720.909 L710.728 713.842 L717.795 706.775 L717.795 699.708 L710.728 692.641 L703.66 685.574 L696.593 678.507 L689.526 671.439 L682.459 664.372 L675.392 657.305 L668.325 650.238 L661.257 643.171 L654.19 636.104 L647.123 629.036 L640.056 621.969 L632.989 614.902 L625.922 607.835 L618.854 600.768 L611.787 593.701 L604.72 586.633 L597.653 579.566 L590.586 579.566 L583.519 586.633 L576.452 593.701 L569.384 600.768 L562.317 607.835 L555.25 614.902 L548.183 621.969 L541.116 629.036 L534.049 636.104 L526.981 643.171 L519.914 650.238 L512.847 657.305 L505.78 664.372 L498.713 671.439 L491.646 678.507 L484.578 685.574 L477.511 692.641 L470.444 699.708 L463.377 706.775 L456.31 713.842 L449.243 720.909 L442.176 727.977 L435.108 735.044 L428.041 742.111 L420.974 749.178 L413.907 756.245 L406.84 763.312 L399.773 770.38 L392.705 777.447 L385.638 784.514 L378.571 791.581 L371.504 798.648 L364.437 805.715 L357.37 812.783 L350.302 819.85 L343.235 826.917 L343.235 833.984 L350.302 841.051 L357.37 848.118 L364.437 855.185 L371.504 862.253 L378.571 869.32 L385.638 876.387 L392.705 883.454 L399.773 890.521 L406.84 897.588 L413.907 904.656 L420.974 911.723 L428.041 918.79 L435.108 925.857 L442.176 932.924 L449.243 939.991 L456.31 947.059 L463.377 954.126 L470.444 954.126 L470.444 766.846 L463.377 766.846 L456.31 766.846 L449.243 766.846 L442.176 766.846 L435.108 766.846 L428.041 766.846 L420.974 766.846 L413.907 766.846 L406.84 766.846 L399.773 766.846 L392.705 766.846 L385.638 766.846 L378.571 766.846 L371.504 766.846 L364.437 766.846 L357.37 766.846 L350.302 766.846 L343.235 766.846 L343.235 766.846 L350.302 766.846 L357.37 766.846 L364.437 766.846 L371.504 766.846 L378.571 766.846 L385.638 766.846 L392.705 766.846 L399.773 766.846 L406.84 766.846 L413.907 766.846 L420.974 766.846 L428.041 766.846 L435.108 766.846 L442.176 766.846 L449.243 766.846 L456.31 766.846 L463.377 766.846 L470.444 766.846 L477.511 766.846 L484.578 766.846 L491.646 766.846 L498.713 766.846 L505.78 766.846 L512.847 766.846 L519.914 766.846 L526.981 766.846 L534.049 766.846 L541.116 766.846 L548.183 766.846 L555.25 766.846 L562.317 766.846 L569.384 766.846 L576.452 766.846 L583.519 766.846 L590.586 766.846 L597.653 766.846 L604.72 766.846 L611.787 766.846 L618.854 766.846 L625.922 766.846 L632.989 766.846 L640.056 766.846 L647.123 766.846 L654.19 766.846 L661.257 766.846 L668.325 766.846 L675.392 766.846 L682.459 766.846 L689.526 766.846 L696.593 766.846 L703.66 766.846 L710.728 766.846 L717.795 766.846 L717.795 766.846 L710.728 766.846 L703.66 766.846 L696.593 766.846 L689.526 766.846 L682.459 766.846 L675.392 766.846 L668.325 766.846 L661.257 766.846 L654.19 766.846 L647.123 766.846 L640.056 766.846 L632.989 766.846 L625.922 766.846 L618.854 766.846 L611.787 766.846 L604.72 766.846 L597.653 766.846 L590.586 766.846 L583.519 766.846 L576.452 766.846 L569.384 766.846 L562.317 766.846 L555.25 766.846 L548.183 766.846 L541.116 766.846 L534.049 766.846 L526.981 766.846 L519.914 766.846 L512.847 766.846 L505.78 766.846 L498.713 766.846 L491.646 766.846 L484.578 766.846 L477.511 766.846 L470.444 766.846  Z" fill="#97b476" fill-rule="evenodd" fill-opacity="1"/>
<polyline clip-path="url(#clip602)" style="stroke:#97b476; stroke-linecap:round; stroke-linejoin:round; stroke-width:4; stroke-opacity:1; fill:none" points="470.444,954.126 477.511,947.059 484.578,939.991 491.646,932.924 498.713,925.857 505.78,918.79 512.847,911.723 519.914,904.656 526.981,897.588 534.049,890.521 541.116,883.454 548.183,876.387 555.25,869.32 562.317,862.253 569.384,855.185 576.452,848.118 583.519,841.051 590.586,833.984 597.653,826.917 604.72,819.85 611.787,812.783 618.854,805.715 625.922,798.648 632.989,791.581 640.056,784.514 647.123,777.447 654.19,770.38 661.257,763.312 668.325,756.245 675.392,749.178 682.459,742.111 689.526,735.044 696.593,727.977 703.66,720.909 710.728,713.842 717.795,706.775 717.795,699.708 710.728,692.641 703.66,685.574 696.593,678.507 689.526,671.439 682.459,664.372 675.392,657.305 668.325,650.238 661.257,643.171 654.19,636.104 647.123,629.036 640.056,621.969 632.989,614.902 625.922,607.835 618.854,600.768 611.787,593.701 604.72,586.633 597.653,579.566 590.586,579.566 583.519,586.633 576.452,593.701 569.384,600.768 562.317,607.835 555.25,614.902 548.183,621.969 541.116,629.036 534.049,636.104 526.981,643.171 519.914,650.238 512.847,657.305 505.78,664.372 498.713,671.439 491.646,678.507 484.578,685.574 477.511,692.641 470.444,699.708 463.377,706.775 456.31,713.842 449.243,720.909 442.176,727.977 435.108,735.044 428.041,742.111 420.974,749.178 413.907,756.245 406.84,763.312 399.773,770.38 392.705,777.447 385.638,784.514 378.571,791.581 371.504,798.648 364.437,805.715 357.37,812.783 350.302,819.85 343.235,826.917 343.235,833.984 350.302,841.051 357.37,848.118 364.437,855.185 371.504,862.253 378.571,869.32 385.638,876.387 392.705,883.454 399.773,890.521 406.84,897.588 413.907,904.656 420.974,911.723 428.041,918.79 435.108,925.857 442.176,932.924 449.243,939.991 456.31,947.059 463.377,954.126 470.444,954.126 "/>
</svg>
