<?xml version="1.0" encoding="utf-8"?>
<svg xmlns="http://www.w3.org/2000/svg" xmlns:xlink="http://www.w3.org/1999/xlink" width="600" height="400" viewBox="0 0 2400 1600">
<defs>
  <clipPath id="clip730">
    <rect x="0" y="0" width="2400" height="1600"/>
  </clipPath>
</defs>
<path clip-path="url(#clip730)" d="M0 1600 L2400 1600 L2400 0 L0 0  Z" fill="#ffffff" fill-rule="evenodd" fill-opacity="1"/>
<defs>
  <clipPath id="clip731">
    <rect x="480" y="0" width="1681" height="1600"/>
  </clipPath>
</defs>
<path clip-path="url(#clip730)" d="M224.098 1423.18 L2352.76 1423.18 L2352.76 47.2441 L224.098 47.2441  Z" fill="#ffffff" fill-rule="evenodd" fill-opacity="1"/>
<defs>
  <clipPath id="clip732">
    <rect x="224" y="47" width="2130" height="1377"/>
  </clipPath>
</defs>
<polyline clip-path="url(#clip732)" style="stroke:#000000; stroke-linecap:round; stroke-linejoin:round; stroke-width:2; stroke-opacity:0.1; fill:none" points="284.343,1423.18 284.343,47.2441 "/>
<polyline clip-path="url(#clip732)" style="stroke:#000000; stroke-linecap:round; stroke-linejoin:round; stroke-width:2; stroke-opacity:0.1; fill:none" points="685.175,1423.18 685.175,47.2441 "/>
<polyline clip-path="url(#clip732)" style="stroke:#000000; stroke-linecap:round; stroke-linejoin:round; stroke-width:2; stroke-opacity:0.1; fill:none" points="1086.01,1423.18 1086.01,47.2441 "/>
<polyline clip-path="url(#clip732)" style="stroke:#000000; stroke-linecap:round; stroke-linejoin:round; stroke-width:2; stroke-opacity:0.1; fill:none" points="1486.84,1423.18 1486.84,47.2441 "/>
<polyline clip-path="url(#clip732)" style="stroke:#000000; stroke-linecap:round; stroke-linejoin:round; stroke-width:2; stroke-opacity:0.1; fill:none" points="1887.67,1423.18 1887.67,47.2441 "/>
<polyline clip-path="url(#clip732)" style="stroke:#000000; stroke-linecap:round; stroke-linejoin:round; stroke-width:2; stroke-opacity:0.1; fill:none" points="2288.5,1423.18 2288.5,47.2441 "/>
<polyline clip-path="url(#clip732)" style="stroke:#000000; stroke-linecap:round; stroke-linejoin:round; stroke-width:2; stroke-opacity:0.1; fill:none" points="224.098,1357.02 2352.76,1357.02 "/>
<polyline clip-path="url(#clip732)" style="stroke:#000000; stroke-linecap:round; stroke-linejoin:round; stroke-width:2; stroke-opacity:0.1; fill:none" points="224.098,1102.85 2352.76,1102.85 "/>
<polyline clip-path="url(#clip732)" style="stroke:#000000; stroke-linecap:round; stroke-linejoin:round; stroke-width:2; stroke-opacity:0.1; fill:none" points="224.098,848.684 2352.76,848.684 "/>
<polyline clip-path="url(#clip732)" style="stroke:#000000; stroke-linecap:round; stroke-linejoin:round; stroke-width:2; stroke-opacity:0.1; fill:none" points="224.098,594.518 2352.76,594.518 "/>
<polyline clip-path="url(#clip732)" style="stroke:#000000; stroke-linecap:round; stroke-linejoin:round; stroke-width:2; stroke-opacity:0.1; fill:none" points="224.098,340.352 2352.76,340.352 "/>
<polyline clip-path="url(#clip732)" style="stroke:#000000; stroke-linecap:round; stroke-linejoin:round; stroke-width:2; stroke-opacity:0.1; fill:none" points="224.098,86.1857 2352.76,86.1857 "/>
<polyline clip-path="url(#clip730)" style="stroke:#000000; stroke-linecap:round; stroke-linejoin:round; stroke-width:4; stroke-opacity:1; fill:none" points="224.098,1423.18 2352.76,1423.18 "/>
<polyline clip-path="url(#clip730)" style="stroke:#000000; stroke-linecap:round; stroke-linejoin:round; stroke-width:4; stroke-opacity:1; fill:none" points="284.343,1423.18 284.343,1404.28 "/>
<polyline clip-path="url(#clip730)" style="stroke:#000000; stroke-linecap:round; stroke-linejoin:round; stroke-width:4; stroke-opacity:1; fill:none" points="685.175,1423.18 685.175,1404.28 "/>
<polyline clip-path="url(#clip730)" style="stroke:#000000; stroke-linecap:round; stroke-linejoin:round; stroke-width:4; stroke-opacity:1; fill:none" points="1086.01,1423.18 1086.01,1404.28 "/>
<polyline clip-path="url(#clip730)" style="stroke:#000000; stroke-linecap:round; stroke-linejoin:round; stroke-width:4; stroke-opacity:1; fill:none" points="1486.84,1423.18 1486.84,1404.28 "/>
<polyline clip-path="url(#clip730)" style="stroke:#000000; stroke-linecap:round; stroke-linejoin:round; stroke-width:4; stroke-opacity:1; fill:none" points="1887.67,1423.18 1887.67,1404.28 "/>
<polyline clip-path="url(#clip730)" style="stroke:#000000; stroke-linecap:round; stroke-linejoin:round; stroke-width:4; stroke-opacity:1; fill:none" points="2288.5,1423.18 2288.5,1404.28 "/>
<path clip-path="url(#clip730)" d="M261.727 1454.1 Q258.116 1454.1 256.288 1457.66 Q254.482 1461.2 254.482 1468.33 Q254.482 1475.44 256.288 1479.01 Q258.116 1482.55 261.727 1482.55 Q265.362 1482.55 267.167 1479.01 Q268.996 1475.44 268.996 1468.33 Q268.996 1461.2 267.167 1457.66 Q265.362 1454.1 261.727 1454.1 M261.727 1450.39 Q267.537 1450.39 270.593 1455 Q273.672 1459.58 273.672 1468.33 Q273.672 1477.06 270.593 1481.67 Q267.537 1486.25 261.727 1486.25 Q255.917 1486.25 252.838 1481.67 Q249.783 1477.06 249.783 1468.33 Q249.783 1459.58 252.838 1455 Q255.917 1450.39 261.727 1450.39 Z" fill="#000000" fill-rule="nonzero" fill-opacity="1" /><path clip-path="url(#clip730)" d="M281.889 1479.7 L286.773 1479.7 L286.773 1485.58 L281.889 1485.58 L281.889 1479.7 Z" fill="#000000" fill-rule="nonzero" fill-opacity="1" /><path clip-path="url(#clip730)" d="M306.959 1454.1 Q303.347 1454.1 301.519 1457.66 Q299.713 1461.2 299.713 1468.33 Q299.713 1475.44 301.519 1479.01 Q303.347 1482.55 306.959 1482.55 Q310.593 1482.55 312.398 1479.01 Q314.227 1475.44 314.227 1468.33 Q314.227 1461.2 312.398 1457.66 Q310.593 1454.1 306.959 1454.1 M306.959 1450.39 Q312.769 1450.39 315.824 1455 Q318.903 1459.58 318.903 1468.33 Q318.903 1477.06 315.824 1481.67 Q312.769 1486.25 306.959 1486.25 Q301.148 1486.25 298.07 1481.67 Q295.014 1477.06 295.014 1468.33 Q295.014 1459.58 298.07 1455 Q301.148 1450.39 306.959 1450.39 Z" fill="#000000" fill-rule="nonzero" fill-opacity="1" /><path clip-path="url(#clip730)" d="M663.057 1454.1 Q659.446 1454.1 657.617 1457.66 Q655.812 1461.2 655.812 1468.33 Q655.812 1475.44 657.617 1479.01 Q659.446 1482.55 663.057 1482.55 Q666.691 1482.55 668.497 1479.01 Q670.325 1475.44 670.325 1468.33 Q670.325 1461.2 668.497 1457.66 Q666.691 1454.1 663.057 1454.1 M663.057 1450.39 Q668.867 1450.39 671.923 1455 Q675.001 1459.58 675.001 1468.33 Q675.001 1477.06 671.923 1481.67 Q668.867 1486.25 663.057 1486.25 Q657.247 1486.25 654.168 1481.67 Q651.113 1477.06 651.113 1468.33 Q651.113 1459.58 654.168 1455 Q657.247 1450.39 663.057 1450.39 Z" fill="#000000" fill-rule="nonzero" fill-opacity="1" /><path clip-path="url(#clip730)" d="M683.219 1479.7 L688.103 1479.7 L688.103 1485.58 L683.219 1485.58 L683.219 1479.7 Z" fill="#000000" fill-rule="nonzero" fill-opacity="1" /><path clip-path="url(#clip730)" d="M698.334 1451.02 L716.691 1451.02 L716.691 1454.96 L702.617 1454.96 L702.617 1463.43 Q703.635 1463.08 704.654 1462.92 Q705.672 1462.73 706.691 1462.73 Q712.478 1462.73 715.858 1465.9 Q719.237 1469.08 719.237 1474.49 Q719.237 1480.07 715.765 1483.17 Q712.293 1486.25 705.973 1486.25 Q703.797 1486.25 701.529 1485.88 Q699.284 1485.51 696.876 1484.77 L696.876 1480.07 Q698.959 1481.2 701.182 1481.76 Q703.404 1482.32 705.881 1482.32 Q709.885 1482.32 712.223 1480.21 Q714.561 1478.1 714.561 1474.49 Q714.561 1470.88 712.223 1468.77 Q709.885 1466.67 705.881 1466.67 Q704.006 1466.67 702.131 1467.08 Q700.279 1467.5 698.334 1468.38 L698.334 1451.02 Z" fill="#000000" fill-rule="nonzero" fill-opacity="1" /><path clip-path="url(#clip730)" d="M1053.16 1481.64 L1060.8 1481.64 L1060.8 1455.28 L1052.49 1456.95 L1052.49 1452.69 L1060.75 1451.02 L1065.43 1451.02 L1065.43 1481.64 L1073.07 1481.64 L1073.07 1485.58 L1053.16 1485.58 L1053.16 1481.64 Z" fill="#000000" fill-rule="nonzero" fill-opacity="1" /><path clip-path="url(#clip730)" d="M1082.51 1479.7 L1087.4 1479.7 L1087.4 1485.58 L1082.51 1485.58 L1082.51 1479.7 Z" fill="#000000" fill-rule="nonzero" fill-opacity="1" /><path clip-path="url(#clip730)" d="M1107.58 1454.1 Q1103.97 1454.1 1102.14 1457.66 Q1100.34 1461.2 1100.34 1468.33 Q1100.34 1475.44 1102.14 1479.01 Q1103.97 1482.55 1107.58 1482.55 Q1111.21 1482.55 1113.02 1479.01 Q1114.85 1475.44 1114.85 1468.33 Q1114.85 1461.2 1113.02 1457.66 Q1111.21 1454.1 1107.58 1454.1 M1107.58 1450.39 Q1113.39 1450.39 1116.45 1455 Q1119.53 1459.58 1119.53 1468.33 Q1119.53 1477.06 1116.45 1481.67 Q1113.39 1486.25 1107.58 1486.25 Q1101.77 1486.25 1098.69 1481.67 Q1095.64 1477.06 1095.64 1468.33 Q1095.64 1459.58 1098.69 1455 Q1101.77 1450.39 1107.58 1450.39 Z" fill="#000000" fill-rule="nonzero" fill-opacity="1" /><path clip-path="url(#clip730)" d="M1454.49 1481.64 L1462.13 1481.64 L1462.13 1455.28 L1453.82 1456.95 L1453.82 1452.69 L1462.08 1451.02 L1466.76 1451.02 L1466.76 1481.64 L1474.4 1481.64 L1474.4 1485.58 L1454.49 1485.58 L1454.49 1481.64 Z" fill="#000000" fill-rule="nonzero" fill-opacity="1" /><path clip-path="url(#clip730)" d="M1483.84 1479.7 L1488.73 1479.7 L1488.73 1485.58 L1483.84 1485.58 L1483.84 1479.7 Z" fill="#000000" fill-rule="nonzero" fill-opacity="1" /><path clip-path="url(#clip730)" d="M1498.96 1451.02 L1517.31 1451.02 L1517.31 1454.96 L1503.24 1454.96 L1503.24 1463.43 Q1504.26 1463.08 1505.28 1462.92 Q1506.29 1462.73 1507.31 1462.73 Q1513.1 1462.73 1516.48 1465.9 Q1519.86 1469.08 1519.86 1474.49 Q1519.86 1480.07 1516.39 1483.17 Q1512.91 1486.25 1506.6 1486.25 Q1504.42 1486.25 1502.15 1485.88 Q1499.91 1485.51 1497.5 1484.77 L1497.5 1480.07 Q1499.58 1481.2 1501.8 1481.76 Q1504.03 1482.32 1506.5 1482.32 Q1510.51 1482.32 1512.85 1480.21 Q1515.18 1478.1 1515.18 1474.49 Q1515.18 1470.88 1512.85 1468.77 Q1510.51 1466.67 1506.5 1466.67 Q1504.63 1466.67 1502.75 1467.08 Q1500.9 1467.5 1498.96 1468.38 L1498.96 1451.02 Z" fill="#000000" fill-rule="nonzero" fill-opacity="1" /><path clip-path="url(#clip730)" d="M1858.91 1481.64 L1875.23 1481.64 L1875.23 1485.58 L1853.28 1485.58 L1853.28 1481.64 Q1855.95 1478.89 1860.53 1474.26 Q1865.14 1469.61 1866.32 1468.27 Q1868.56 1465.74 1869.44 1464.01 Q1870.34 1462.25 1870.34 1460.56 Q1870.34 1457.8 1868.4 1456.07 Q1866.48 1454.33 1863.38 1454.33 Q1861.18 1454.33 1858.72 1455.09 Q1856.29 1455.86 1853.52 1457.41 L1853.52 1452.69 Q1856.34 1451.55 1858.79 1450.97 Q1861.25 1450.39 1863.28 1450.39 Q1868.65 1450.39 1871.85 1453.08 Q1875.04 1455.77 1875.04 1460.26 Q1875.04 1462.39 1874.23 1464.31 Q1873.45 1466.2 1871.34 1468.8 Q1870.76 1469.47 1867.66 1472.69 Q1864.56 1475.88 1858.91 1481.64 Z" fill="#000000" fill-rule="nonzero" fill-opacity="1" /><path clip-path="url(#clip730)" d="M1885.04 1479.7 L1889.93 1479.7 L1889.93 1485.58 L1885.04 1485.58 L1885.04 1479.7 Z" fill="#000000" fill-rule="nonzero" fill-opacity="1" /><path clip-path="url(#clip730)" d="M1910.11 1454.1 Q1906.5 1454.1 1904.67 1457.66 Q1902.87 1461.2 1902.87 1468.33 Q1902.87 1475.44 1904.67 1479.01 Q1906.5 1482.55 1910.11 1482.55 Q1913.75 1482.55 1915.55 1479.01 Q1917.38 1475.44 1917.38 1468.33 Q1917.38 1461.2 1915.55 1457.66 Q1913.75 1454.1 1910.11 1454.1 M1910.11 1450.39 Q1915.92 1450.39 1918.98 1455 Q1922.06 1459.58 1922.06 1468.33 Q1922.06 1477.06 1918.98 1481.67 Q1915.92 1486.25 1910.11 1486.25 Q1904.3 1486.25 1901.22 1481.67 Q1898.17 1477.06 1898.17 1468.33 Q1898.17 1459.58 1901.22 1455 Q1904.3 1450.39 1910.11 1450.39 Z" fill="#000000" fill-rule="nonzero" fill-opacity="1" /><path clip-path="url(#clip730)" d="M2260.24 1481.64 L2276.56 1481.64 L2276.56 1485.58 L2254.61 1485.58 L2254.61 1481.64 Q2257.28 1478.89 2261.86 1474.26 Q2266.47 1469.61 2267.65 1468.27 Q2269.89 1465.74 2270.77 1464.01 Q2271.67 1462.25 2271.67 1460.56 Q2271.67 1457.8 2269.73 1456.07 Q2267.81 1454.33 2264.71 1454.33 Q2262.51 1454.33 2260.05 1455.09 Q2257.62 1455.86 2254.85 1457.41 L2254.85 1452.69 Q2257.67 1451.55 2260.12 1450.97 Q2262.58 1450.39 2264.61 1450.39 Q2269.98 1450.39 2273.18 1453.08 Q2276.37 1455.77 2276.37 1460.26 Q2276.37 1462.39 2275.56 1464.31 Q2274.78 1466.2 2272.67 1468.8 Q2272.09 1469.47 2268.99 1472.69 Q2265.89 1475.88 2260.24 1481.64 Z" fill="#000000" fill-rule="nonzero" fill-opacity="1" /><path clip-path="url(#clip730)" d="M2286.37 1479.7 L2291.26 1479.7 L2291.26 1485.58 L2286.37 1485.58 L2286.37 1479.7 Z" fill="#000000" fill-rule="nonzero" fill-opacity="1" /><path clip-path="url(#clip730)" d="M2301.49 1451.02 L2319.84 1451.02 L2319.84 1454.96 L2305.77 1454.96 L2305.77 1463.43 Q2306.79 1463.08 2307.81 1462.92 Q2308.83 1462.73 2309.85 1462.73 Q2315.63 1462.73 2319.01 1465.9 Q2322.39 1469.08 2322.39 1474.49 Q2322.39 1480.07 2318.92 1483.17 Q2315.45 1486.25 2309.13 1486.25 Q2306.95 1486.25 2304.68 1485.88 Q2302.44 1485.51 2300.03 1484.77 L2300.03 1480.07 Q2302.11 1481.2 2304.34 1481.76 Q2306.56 1482.32 2309.03 1482.32 Q2313.04 1482.32 2315.38 1480.21 Q2317.72 1478.1 2317.72 1474.49 Q2317.72 1470.88 2315.38 1468.77 Q2313.04 1466.67 2309.03 1466.67 Q2307.16 1466.67 2305.28 1467.08 Q2303.43 1467.5 2301.49 1468.38 L2301.49 1451.02 Z" fill="#000000" fill-rule="nonzero" fill-opacity="1" /><path clip-path="url(#clip730)" d="M1296.9 1531.91 Q1296.9 1532.81 1296.48 1533.04 Q1296.06 1533.23 1294.9 1533.23 L1288.72 1533.23 L1283.82 1552.69 Q1283.44 1554.39 1283.44 1555.84 Q1283.44 1557.45 1283.92 1558.16 Q1284.43 1558.87 1285.5 1558.87 Q1287.59 1558.87 1289.84 1556.97 Q1292.13 1555.07 1294.06 1550.43 Q1294.32 1549.82 1294.45 1549.69 Q1294.61 1549.53 1295.03 1549.53 Q1295.84 1549.53 1295.84 1550.17 Q1295.84 1550.4 1295.38 1551.43 Q1294.97 1552.46 1294.03 1553.97 Q1293.13 1555.49 1291.94 1556.9 Q1290.78 1558.32 1289.01 1559.35 Q1287.24 1560.35 1285.34 1560.35 Q1282.66 1560.35 1280.96 1558.64 Q1279.28 1556.94 1279.28 1554.26 Q1279.28 1553.39 1279.96 1550.62 Q1280.63 1547.82 1284.31 1533.23 L1278.48 1533.23 Q1277.67 1533.23 1277.35 1533.2 Q1277.06 1533.17 1276.83 1533.01 Q1276.64 1532.81 1276.64 1532.43 Q1276.64 1531.82 1276.9 1531.56 Q1277.16 1531.27 1277.48 1531.24 Q1277.83 1531.17 1278.64 1531.17 L1284.82 1531.17 L1287.4 1520.71 Q1287.65 1519.67 1288.3 1519.09 Q1288.98 1518.48 1289.36 1518.42 Q1289.75 1518.32 1290.04 1518.32 Q1290.91 1518.32 1291.42 1518.81 Q1291.94 1519.26 1291.94 1520.09 Q1291.94 1520.54 1289.23 1531.17 L1295.03 1531.17 Q1295.77 1531.17 1296.06 1531.2 Q1296.38 1531.24 1296.64 1531.4 Q1296.9 1531.56 1296.9 1531.91 Z" fill="#000000" fill-rule="nonzero" fill-opacity="1" /><polyline clip-path="url(#clip730)" style="stroke:#000000; stroke-linecap:round; stroke-linejoin:round; stroke-width:4; stroke-opacity:1; fill:none" points="224.098,1423.18 224.098,47.2441 "/>
<polyline clip-path="url(#clip730)" style="stroke:#000000; stroke-linecap:round; stroke-linejoin:round; stroke-width:4; stroke-opacity:1; fill:none" points="224.098,1357.02 242.996,1357.02 "/>
<polyline clip-path="url(#clip730)" style="stroke:#000000; stroke-linecap:round; stroke-linejoin:round; stroke-width:4; stroke-opacity:1; fill:none" points="224.098,1102.85 242.996,1102.85 "/>
<polyline clip-path="url(#clip730)" style="stroke:#000000; stroke-linecap:round; stroke-linejoin:round; stroke-width:4; stroke-opacity:1; fill:none" points="224.098,848.684 242.996,848.684 "/>
<polyline clip-path="url(#clip730)" style="stroke:#000000; stroke-linecap:round; stroke-linejoin:round; stroke-width:4; stroke-opacity:1; fill:none" points="224.098,594.518 242.996,594.518 "/>
<polyline clip-path="url(#clip730)" style="stroke:#000000; stroke-linecap:round; stroke-linejoin:round; stroke-width:4; stroke-opacity:1; fill:none" points="224.098,340.352 242.996,340.352 "/>
<polyline clip-path="url(#clip730)" style="stroke:#000000; stroke-linecap:round; stroke-linejoin:round; stroke-width:4; stroke-opacity:1; fill:none" points="224.098,86.1857 242.996,86.1857 "/>
<path clip-path="url(#clip730)" d="M51.9875 1357.47 L81.6633 1357.47 L81.6633 1361.4 L51.9875 1361.4 L51.9875 1357.47 Z" fill="#000000" fill-rule="nonzero" fill-opacity="1" /><path clip-path="url(#clip730)" d="M101.756 1342.82 Q98.1447 1342.82 96.316 1346.38 Q94.5104 1349.92 94.5104 1357.05 Q94.5104 1364.16 96.316 1367.72 Q98.1447 1371.26 101.756 1371.26 Q105.39 1371.26 107.196 1367.72 Q109.024 1364.16 109.024 1357.05 Q109.024 1349.92 107.196 1346.38 Q105.39 1342.82 101.756 1342.82 M101.756 1339.11 Q107.566 1339.11 110.621 1343.72 Q113.7 1348.3 113.7 1357.05 Q113.7 1365.78 110.621 1370.38 Q107.566 1374.97 101.756 1374.97 Q95.9456 1374.97 92.8669 1370.38 Q89.8114 1365.78 89.8114 1357.05 Q89.8114 1348.3 92.8669 1343.72 Q95.9456 1339.11 101.756 1339.11 Z" fill="#000000" fill-rule="nonzero" fill-opacity="1" /><path clip-path="url(#clip730)" d="M121.918 1368.42 L126.802 1368.42 L126.802 1374.3 L121.918 1374.3 L121.918 1368.42 Z" fill="#000000" fill-rule="nonzero" fill-opacity="1" /><path clip-path="url(#clip730)" d="M141.015 1370.36 L157.334 1370.36 L157.334 1374.3 L135.39 1374.3 L135.39 1370.36 Q138.052 1367.61 142.635 1362.98 Q147.242 1358.32 148.422 1356.98 Q150.668 1354.46 151.547 1352.72 Q152.45 1350.96 152.45 1349.27 Q152.45 1346.52 150.505 1344.78 Q148.584 1343.05 145.482 1343.05 Q143.283 1343.05 140.83 1343.81 Q138.399 1344.57 135.621 1346.13 L135.621 1341.4 Q138.445 1340.27 140.899 1339.69 Q143.353 1339.11 145.39 1339.11 Q150.76 1339.11 153.955 1341.8 Q157.149 1344.48 157.149 1348.97 Q157.149 1351.1 156.339 1353.02 Q155.552 1354.92 153.445 1357.51 Q152.867 1358.19 149.765 1361.4 Q146.663 1364.6 141.015 1370.36 Z" fill="#000000" fill-rule="nonzero" fill-opacity="1" /><path clip-path="url(#clip730)" d="M167.195 1339.74 L185.552 1339.74 L185.552 1343.67 L171.478 1343.67 L171.478 1352.14 Q172.496 1351.8 173.515 1351.63 Q174.533 1351.45 175.552 1351.45 Q181.339 1351.45 184.718 1354.62 Q188.098 1357.79 188.098 1363.21 Q188.098 1368.79 184.626 1371.89 Q181.153 1374.97 174.834 1374.97 Q172.658 1374.97 170.39 1374.6 Q168.144 1374.23 165.737 1373.49 L165.737 1368.79 Q167.82 1369.92 170.042 1370.48 Q172.265 1371.03 174.741 1371.03 Q178.746 1371.03 181.084 1368.93 Q183.422 1366.82 183.422 1363.21 Q183.422 1359.6 181.084 1357.49 Q178.746 1355.38 174.741 1355.38 Q172.866 1355.38 170.991 1355.8 Q169.14 1356.22 167.195 1357.1 L167.195 1339.74 Z" fill="#000000" fill-rule="nonzero" fill-opacity="1" /><path clip-path="url(#clip730)" d="M50.9921 1103.3 L80.6679 1103.3 L80.6679 1107.24 L50.9921 1107.24 L50.9921 1103.3 Z" fill="#000000" fill-rule="nonzero" fill-opacity="1" /><path clip-path="url(#clip730)" d="M100.76 1088.65 Q97.1493 1088.65 95.3206 1092.21 Q93.515 1095.76 93.515 1102.89 Q93.515 1109.99 95.3206 1113.56 Q97.1493 1117.1 100.76 1117.1 Q104.395 1117.1 106.2 1113.56 Q108.029 1109.99 108.029 1102.89 Q108.029 1095.76 106.2 1092.21 Q104.395 1088.65 100.76 1088.65 M100.76 1084.95 Q106.571 1084.95 109.626 1089.55 Q112.705 1094.14 112.705 1102.89 Q112.705 1111.61 109.626 1116.22 Q106.571 1120.8 100.76 1120.8 Q94.9502 1120.8 91.8715 1116.22 Q88.816 1111.61 88.816 1102.89 Q88.816 1094.14 91.8715 1089.55 Q94.9502 1084.95 100.76 1084.95 Z" fill="#000000" fill-rule="nonzero" fill-opacity="1" /><path clip-path="url(#clip730)" d="M120.922 1114.25 L125.807 1114.25 L125.807 1120.13 L120.922 1120.13 L120.922 1114.25 Z" fill="#000000" fill-rule="nonzero" fill-opacity="1" /><path clip-path="url(#clip730)" d="M140.019 1116.2 L156.339 1116.2 L156.339 1120.13 L134.394 1120.13 L134.394 1116.2 Q137.056 1113.44 141.64 1108.81 Q146.246 1104.16 147.427 1102.82 Q149.672 1100.29 150.552 1098.56 Q151.455 1096.8 151.455 1095.11 Q151.455 1092.35 149.51 1090.62 Q147.589 1088.88 144.487 1088.88 Q142.288 1088.88 139.834 1089.64 Q137.404 1090.41 134.626 1091.96 L134.626 1087.24 Q137.45 1086.1 139.904 1085.52 Q142.357 1084.95 144.394 1084.95 Q149.765 1084.95 152.959 1087.63 Q156.154 1090.32 156.154 1094.81 Q156.154 1096.94 155.343 1098.86 Q154.556 1100.76 152.45 1103.35 Q151.871 1104.02 148.769 1107.24 Q145.668 1110.43 140.019 1116.2 Z" fill="#000000" fill-rule="nonzero" fill-opacity="1" /><path clip-path="url(#clip730)" d="M176.153 1088.65 Q172.542 1088.65 170.714 1092.21 Q168.908 1095.76 168.908 1102.89 Q168.908 1109.99 170.714 1113.56 Q172.542 1117.1 176.153 1117.1 Q179.788 1117.1 181.593 1113.56 Q183.422 1109.99 183.422 1102.89 Q183.422 1095.76 181.593 1092.21 Q179.788 1088.65 176.153 1088.65 M176.153 1084.95 Q181.964 1084.95 185.019 1089.55 Q188.098 1094.14 188.098 1102.89 Q188.098 1111.61 185.019 1116.22 Q181.964 1120.8 176.153 1120.8 Q170.343 1120.8 167.265 1116.22 Q164.209 1111.61 164.209 1102.89 Q164.209 1094.14 167.265 1089.55 Q170.343 1084.95 176.153 1084.95 Z" fill="#000000" fill-rule="nonzero" fill-opacity="1" /><path clip-path="url(#clip730)" d="M51.9875 849.136 L81.6633 849.136 L81.6633 853.071 L51.9875 853.071 L51.9875 849.136 Z" fill="#000000" fill-rule="nonzero" fill-opacity="1" /><path clip-path="url(#clip730)" d="M101.756 834.483 Q98.1447 834.483 96.316 838.048 Q94.5104 841.59 94.5104 848.719 Q94.5104 855.826 96.316 859.39 Q98.1447 862.932 101.756 862.932 Q105.39 862.932 107.196 859.39 Q109.024 855.826 109.024 848.719 Q109.024 841.59 107.196 838.048 Q105.39 834.483 101.756 834.483 M101.756 830.779 Q107.566 830.779 110.621 835.386 Q113.7 839.969 113.7 848.719 Q113.7 857.446 110.621 862.052 Q107.566 866.636 101.756 866.636 Q95.9456 866.636 92.8669 862.052 Q89.8114 857.446 89.8114 848.719 Q89.8114 839.969 92.8669 835.386 Q95.9456 830.779 101.756 830.779 Z" fill="#000000" fill-rule="nonzero" fill-opacity="1" /><path clip-path="url(#clip730)" d="M121.918 860.085 L126.802 860.085 L126.802 865.964 L121.918 865.964 L121.918 860.085 Z" fill="#000000" fill-rule="nonzero" fill-opacity="1" /><path clip-path="url(#clip730)" d="M137.797 862.029 L145.436 862.029 L145.436 835.664 L137.126 837.33 L137.126 833.071 L145.39 831.404 L150.066 831.404 L150.066 862.029 L157.705 862.029 L157.705 865.964 L137.797 865.964 L137.797 862.029 Z" fill="#000000" fill-rule="nonzero" fill-opacity="1" /><path clip-path="url(#clip730)" d="M167.195 831.404 L185.552 831.404 L185.552 835.34 L171.478 835.34 L171.478 843.812 Q172.496 843.465 173.515 843.302 Q174.533 843.117 175.552 843.117 Q181.339 843.117 184.718 846.289 Q188.098 849.46 188.098 854.876 Q188.098 860.455 184.626 863.557 Q181.153 866.636 174.834 866.636 Q172.658 866.636 170.39 866.265 Q168.144 865.895 165.737 865.154 L165.737 860.455 Q167.82 861.589 170.042 862.145 Q172.265 862.701 174.741 862.701 Q178.746 862.701 181.084 860.594 Q183.422 858.488 183.422 854.876 Q183.422 851.265 181.084 849.159 Q178.746 847.052 174.741 847.052 Q172.866 847.052 170.991 847.469 Q169.14 847.886 167.195 848.765 L167.195 831.404 Z" fill="#000000" fill-rule="nonzero" fill-opacity="1" /><path clip-path="url(#clip730)" d="M50.9921 594.97 L80.6679 594.97 L80.6679 598.905 L50.9921 598.905 L50.9921 594.97 Z" fill="#000000" fill-rule="nonzero" fill-opacity="1" /><path clip-path="url(#clip730)" d="M100.76 580.317 Q97.1493 580.317 95.3206 583.882 Q93.515 587.423 93.515 594.553 Q93.515 601.659 95.3206 605.224 Q97.1493 608.766 100.76 608.766 Q104.395 608.766 106.2 605.224 Q108.029 601.659 108.029 594.553 Q108.029 587.423 106.2 583.882 Q104.395 580.317 100.76 580.317 M100.76 576.613 Q106.571 576.613 109.626 581.22 Q112.705 585.803 112.705 594.553 Q112.705 603.28 109.626 607.886 Q106.571 612.469 100.76 612.469 Q94.9502 612.469 91.8715 607.886 Q88.816 603.28 88.816 594.553 Q88.816 585.803 91.8715 581.22 Q94.9502 576.613 100.76 576.613 Z" fill="#000000" fill-rule="nonzero" fill-opacity="1" /><path clip-path="url(#clip730)" d="M120.922 605.919 L125.807 605.919 L125.807 611.798 L120.922 611.798 L120.922 605.919 Z" fill="#000000" fill-rule="nonzero" fill-opacity="1" /><path clip-path="url(#clip730)" d="M136.802 607.863 L144.441 607.863 L144.441 581.497 L136.131 583.164 L136.131 578.905 L144.394 577.238 L149.07 577.238 L149.07 607.863 L156.709 607.863 L156.709 611.798 L136.802 611.798 L136.802 607.863 Z" fill="#000000" fill-rule="nonzero" fill-opacity="1" /><path clip-path="url(#clip730)" d="M176.153 580.317 Q172.542 580.317 170.714 583.882 Q168.908 587.423 168.908 594.553 Q168.908 601.659 170.714 605.224 Q172.542 608.766 176.153 608.766 Q179.788 608.766 181.593 605.224 Q183.422 601.659 183.422 594.553 Q183.422 587.423 181.593 583.882 Q179.788 580.317 176.153 580.317 M176.153 576.613 Q181.964 576.613 185.019 581.22 Q188.098 585.803 188.098 594.553 Q188.098 603.28 185.019 607.886 Q181.964 612.469 176.153 612.469 Q170.343 612.469 167.265 607.886 Q164.209 603.28 164.209 594.553 Q164.209 585.803 167.265 581.22 Q170.343 576.613 176.153 576.613 Z" fill="#000000" fill-rule="nonzero" fill-opacity="1" /><path clip-path="url(#clip730)" d="M51.9875 340.803 L81.6633 340.803 L81.6633 344.738 L51.9875 344.738 L51.9875 340.803 Z" fill="#000000" fill-rule="nonzero" fill-opacity="1" /><path clip-path="url(#clip730)" d="M101.756 326.151 Q98.1447 326.151 96.316 329.715 Q94.5104 333.257 94.5104 340.387 Q94.5104 347.493 96.316 351.058 Q98.1447 354.6 101.756 354.6 Q105.39 354.6 107.196 351.058 Q109.024 347.493 109.024 340.387 Q109.024 333.257 107.196 329.715 Q105.39 326.151 101.756 326.151 M101.756 322.447 Q107.566 322.447 110.621 327.053 Q113.7 331.637 113.7 340.387 Q113.7 349.113 110.621 353.72 Q107.566 358.303 101.756 358.303 Q95.9456 358.303 92.8669 353.72 Q89.8114 349.113 89.8114 340.387 Q89.8114 331.637 92.8669 327.053 Q95.9456 322.447 101.756 322.447 Z" fill="#000000" fill-rule="nonzero" fill-opacity="1" /><path clip-path="url(#clip730)" d="M121.918 351.752 L126.802 351.752 L126.802 357.632 L121.918 357.632 L121.918 351.752 Z" fill="#000000" fill-rule="nonzero" fill-opacity="1" /><path clip-path="url(#clip730)" d="M146.987 326.151 Q143.376 326.151 141.547 329.715 Q139.742 333.257 139.742 340.387 Q139.742 347.493 141.547 351.058 Q143.376 354.6 146.987 354.6 Q150.621 354.6 152.427 351.058 Q154.255 347.493 154.255 340.387 Q154.255 333.257 152.427 329.715 Q150.621 326.151 146.987 326.151 M146.987 322.447 Q152.797 322.447 155.853 327.053 Q158.931 331.637 158.931 340.387 Q158.931 349.113 155.853 353.72 Q152.797 358.303 146.987 358.303 Q141.177 358.303 138.098 353.72 Q135.043 349.113 135.043 340.387 Q135.043 331.637 138.098 327.053 Q141.177 322.447 146.987 322.447 Z" fill="#000000" fill-rule="nonzero" fill-opacity="1" /><path clip-path="url(#clip730)" d="M167.195 323.072 L185.552 323.072 L185.552 327.007 L171.478 327.007 L171.478 335.479 Q172.496 335.132 173.515 334.97 Q174.533 334.785 175.552 334.785 Q181.339 334.785 184.718 337.956 Q188.098 341.127 188.098 346.544 Q188.098 352.123 184.626 355.225 Q181.153 358.303 174.834 358.303 Q172.658 358.303 170.39 357.933 Q168.144 357.562 165.737 356.822 L165.737 352.123 Q167.82 353.257 170.042 353.812 Q172.265 354.368 174.741 354.368 Q178.746 354.368 181.084 352.262 Q183.422 350.155 183.422 346.544 Q183.422 342.933 181.084 340.826 Q178.746 338.72 174.741 338.72 Q172.866 338.72 170.991 339.137 Q169.14 339.553 167.195 340.433 L167.195 323.072 Z" fill="#000000" fill-rule="nonzero" fill-opacity="1" /><path clip-path="url(#clip730)" d="M100.76 71.9844 Q97.1493 71.9844 95.3206 75.5492 Q93.515 79.0908 93.515 86.2204 Q93.515 93.3268 95.3206 96.8916 Q97.1493 100.433 100.76 100.433 Q104.395 100.433 106.2 96.8916 Q108.029 93.3268 108.029 86.2204 Q108.029 79.0908 106.2 75.5492 Q104.395 71.9844 100.76 71.9844 M100.76 68.2807 Q106.571 68.2807 109.626 72.8871 Q112.705 77.4704 112.705 86.2204 Q112.705 94.9472 109.626 99.5537 Q106.571 104.137 100.76 104.137 Q94.9502 104.137 91.8715 99.5537 Q88.816 94.9472 88.816 86.2204 Q88.816 77.4704 91.8715 72.8871 Q94.9502 68.2807 100.76 68.2807 Z" fill="#000000" fill-rule="nonzero" fill-opacity="1" /><path clip-path="url(#clip730)" d="M120.922 97.5861 L125.807 97.5861 L125.807 103.466 L120.922 103.466 L120.922 97.5861 Z" fill="#000000" fill-rule="nonzero" fill-opacity="1" /><path clip-path="url(#clip730)" d="M145.992 71.9844 Q142.381 71.9844 140.552 75.5492 Q138.746 79.0908 138.746 86.2204 Q138.746 93.3268 140.552 96.8916 Q142.381 100.433 145.992 100.433 Q149.626 100.433 151.431 96.8916 Q153.26 93.3268 153.26 86.2204 Q153.26 79.0908 151.431 75.5492 Q149.626 71.9844 145.992 71.9844 M145.992 68.2807 Q151.802 68.2807 154.857 72.8871 Q157.936 77.4704 157.936 86.2204 Q157.936 94.9472 154.857 99.5537 Q151.802 104.137 145.992 104.137 Q140.181 104.137 137.103 99.5537 Q134.047 94.9472 134.047 86.2204 Q134.047 77.4704 137.103 72.8871 Q140.181 68.2807 145.992 68.2807 Z" fill="#000000" fill-rule="nonzero" fill-opacity="1" /><path clip-path="url(#clip730)" d="M176.153 71.9844 Q172.542 71.9844 170.714 75.5492 Q168.908 79.0908 168.908 86.2204 Q168.908 93.3268 170.714 96.8916 Q172.542 100.433 176.153 100.433 Q179.788 100.433 181.593 96.8916 Q183.422 93.3268 183.422 86.2204 Q183.422 79.0908 181.593 75.5492 Q179.788 71.9844 176.153 71.9844 M176.153 68.2807 Q181.964 68.2807 185.019 72.8871 Q188.098 77.4704 188.098 86.2204 Q188.098 94.9472 185.019 99.5537 Q181.964 104.137 176.153 104.137 Q170.343 104.137 167.265 99.5537 Q164.209 94.9472 164.209 86.2204 Q164.209 77.4704 167.265 72.8871 Q170.343 68.2807 176.153 68.2807 Z" fill="#000000" fill-rule="nonzero" fill-opacity="1" /><polyline clip-path="url(#clip732)" style="stroke:#009af9; stroke-linecap:round; stroke-linejoin:round; stroke-width:4; stroke-opacity:1; fill:none" points="284.343,86.1857 290.355,86.5328 296.368,87.2557 302.38,88.0976 308.393,89.0195 314.405,89.8551 320.418,90.5585 326.43,90.9527 332.443,91.149 338.455,91.4762 344.468,92.1415 350.48,93.1281 356.493,94.2677 362.505,95.4641 368.518,96.5779 374.53,97.7718 380.543,99.1805 386.555,100.887 392.568,102.823 398.58,104.827 404.592,106.75 410.605,108.749 416.617,110.963 422.63,113.439 428.642,116.321 434.655,119.364 440.667,122.418 446.68,125.423 452.692,128.338 458.705,131.273 464.717,134.292 470.73,137.494 476.742,140.682 482.755,143.924 488.767,147.418 494.78,151.082 500.792,155.123 506.805,159.475 512.817,163.966 518.83,168.457 524.842,172.807 530.855,177.088 536.867,181.36 542.88,185.483 548.892,189.345 554.904,193.122 560.917,196.871 566.929,200.49 572.942,203.931 578.954,207.19 584.967,210.376 590.979,213.36 596.992,216.034 603.004,218.869 609.017,222.2 615.029,225.608 621.042,229.085 627.054,232.847 633.067,236.505 639.079,240.073 645.092,243.846 651.104,247.617 657.117,250.995 663.129,253.589 669.142,255.456 675.154,257.072 681.167,258.623 687.179,260.209 693.191,261.669 699.204,262.738 705.216,263.647 711.229,264.852 717.241,266.361 723.254,268.095 729.266,270.03 735.279,272.36 741.291,275.195 747.304,278.237 753.316,281.285 759.329,284.254 765.341,287.422 771.354,290.834 777.366,294.269 783.379,297.37 789.391,300.156 795.404,303.043 801.416,306.016 807.429,308.869 813.441,311.743 819.454,314.611 825.466,317.111 831.478,319.641 837.491,322.595 843.503,325.681 849.516,328.768 855.528,331.812 861.541,334.827 867.553,337.779 873.566,340.874 879.578,344.232 885.591,347.585 891.603,350.988 897.616,354.532 903.628,358.198 909.641,361.767 915.653,365.421 921.666,369.279 927.678,373.367 933.691,377.77 939.703,382.147 945.716,386.557 951.728,391.295 957.741,396.173 963.753,401.152 969.766,406.107 975.778,410.732 981.79,414.887 987.803,418.673 993.815,422.422 999.828,426.296 1005.84,430.384 1011.85,434.559 1017.87,438.55 1023.88,442.122 1029.89,445.738 1035.9,449.782 1041.92,454.017 1047.93,458.331 1053.94,462.549 1059.95,466.491 1065.97,470.152 1071.98,473.518 1077.99,476.705 1084,480.016 1090.02,483.429 1096.03,486.557 1102.04,489.138 1108.05,491.54 1114.07,494.121 1120.08,496.991 1126.09,500.169 1132.1,503.509 1138.11,506.806 1144.13,510.017 1150.14,513.389 1156.15,516.794 1162.16,519.991 1168.18,523.113 1174.19,526.348 1180.2,529.553 1186.21,532.737 1192.23,535.982 1198.24,539.25 1204.25,542.563 1210.26,545.997 1216.28,549.843 1222.29,554.024 1228.3,558.242 1234.31,562.462 1240.33,566.6 1246.34,570.926 1252.35,575.782 1258.36,580.783 1264.38,585.787 1270.39,591.01 1276.4,596.216 1282.41,601.182 1288.43,606.183 1294.44,611.284 1300.45,616.314 1306.46,621.416 1312.48,626.666 1318.49,632.003 1324.5,637.433 1330.51,642.885 1336.53,648.196 1342.54,653.387 1348.55,658.4 1354.56,663.426 1360.58,668.751 1366.59,674.195 1372.6,679.489 1378.61,684.635 1384.63,689.738 1390.64,694.853 1396.65,699.83 1402.66,704.773 1408.68,709.828 1414.69,714.701 1420.7,719.494 1426.71,724.494 1432.73,729.779 1438.74,735.307 1444.75,740.944 1450.76,746.76 1456.78,752.656 1462.79,758.144 1468.8,763.179 1474.81,767.801 1480.83,771.905 1486.84,775.693 1492.85,779.453 1498.86,783.244 1504.88,787.078 1510.89,791.036 1516.9,795.041 1522.91,799.108 1528.93,803.54 1534.94,808.317 1540.95,813.044 1546.96,818.003 1552.98,823.428 1558.99,829.063 1565,835.123 1571.01,841.462 1577.03,847.69 1583.04,853.949 1589.05,860.255 1595.06,866.465 1601.08,872.506 1607.09,878.537 1613.1,884.616 1619.11,890.453 1625.13,896.061 1631.14,901.601 1637.15,906.878 1643.16,911.877 1649.18,916.711 1655.19,921.412 1661.2,925.864 1667.21,930.051 1673.23,934.333 1679.24,938.811 1685.25,943.177 1691.26,947.341 1697.28,951.332 1703.29,955.192 1709.3,959.074 1715.31,963.265 1721.33,967.749 1727.34,972.279 1733.35,976.779 1739.36,981.18 1745.38,985.574 1751.39,990.149 1757.4,994.698 1763.41,998.819 1769.43,1002.6 1775.44,1006.17 1781.45,1009.6 1787.46,1012.85 1793.48,1015.97 1799.49,1019.08 1805.5,1022.38 1811.51,1026.09 1817.53,1029.96 1823.54,1033.64 1829.55,1037.36 1835.56,1041.35 1841.57,1045.39 1847.59,1049.44 1853.6,1053.64 1859.61,1057.84 1865.62,1062.05 1871.64,1066.29 1877.65,1070.5 1883.66,1074.88 1889.67,1079.51 1895.69,1084.39 1901.7,1089.36 1907.71,1094.46 1913.72,1099.78 1919.74,1105.22 1925.75,1110.55 1931.76,1115.71 1937.77,1120.78 1943.79,1125.7 1949.8,1130.4 1955.81,1134.89 1961.82,1139.21 1967.84,1143.58 1973.85,1147.95 1979.86,1151.97 1985.87,1155.84 1991.89,1159.75 1997.9,1163.85 2003.91,1168 2009.92,1172.07 2015.94,1176.2 2021.95,1180.29 2027.96,1184.58 2033.97,1188.79 2039.99,1192.72 2046,1196.81 2052.01,1200.99 2058.02,1205.26 2064.04,1209.69 2070.05,1214.1 2076.06,1218.53 2082.07,1223.08 2088.09,1227.72 2094.1,1232.48 2100.11,1237.47 2106.12,1242.48 2112.14,1247.52 2118.15,1252.78 2124.16,1258.04 2130.17,1263.31 2136.19,1268.46 2142.2,1273.32 2148.21,1278.11 2154.22,1282.84 2160.24,1287.83 2166.25,1293.13 2172.26,1298.37 2178.27,1303.86 2184.29,1309.61 2190.3,1315.11 2196.31,1320.21 2202.32,1324.94 2208.34,1329.43 2214.35,1333.81 2220.36,1337.98 2226.37,1341.94 2232.39,1345.81 2238.4,1349.57 2244.41,1353.46 2250.42,1357.41 2256.44,1361.27 2262.45,1365.09 2268.46,1368.82 2274.47,1372.43 2280.49,1376.21 2286.5,1380.26 2292.51,1384.24 "/>
<polyline clip-path="url(#clip732)" style="stroke:#e26f46; stroke-linecap:round; stroke-linejoin:round; stroke-width:4; stroke-opacity:1; fill:none" points="284.343,86.1857 290.355,178.743 296.368,186.406 302.38,210.474 308.393,207.74 314.405,187.449 320.418,172.499 326.43,104.998 332.443,119.732 338.455,139.89 344.468,209.882 350.48,225.59 356.493,250.665 362.505,240.753 368.518,228.626 374.53,262.114 380.543,285.917 386.555,341.419 392.568,347.398 398.58,359.198 404.592,325.959 410.605,379.576 416.617,383.156 422.63,449.551 428.642,491.452 434.655,492.287 440.667,494.588 446.68,478.903 452.692,470.858 458.705,484.329 464.717,492.884 470.73,533.467 476.742,489.034 482.755,547.99 488.767,556.062 494.78,593.35 500.792,656.53 506.805,676.438 512.817,693.639 518.83,676.298 524.842,655.899 530.855,658.177 536.867,653.278 542.88,618.62 548.892,583.795 554.904,595.693 560.917,576.373 566.929,561.011 572.942,529.007 578.954,512.499 584.967,509.313 590.979,458.967 596.992,426.258 603.004,502.369 609.017,558.072 615.029,523.042 621.042,576.648 627.054,598.952 633.067,548.943 639.079,574.76 645.092,603.863 651.104,574.103 657.117,499.034 663.129,365.15 669.142,305.05 675.154,298.154 681.167,287.746 687.179,307.731 693.191,253.957 699.204,203.403 705.216,211.427 711.229,282.283 717.241,292.563 723.254,341.97 729.266,346.588 735.279,447.155 741.291,481.227 747.304,502.217 753.316,482.977 759.329,481.223 765.341,535.813 771.354,546.575 777.366,541.637 783.379,457.742 789.391,457.442 795.404,484.783 801.416,480.625 807.429,452.498 813.441,486.288 819.454,450.805 825.466,388.145 831.478,459.058 837.491,501.002 843.503,494.232 849.516,501.267 855.528,482.895 861.541,493.503 867.553,466.071 873.566,531.774 879.578,535.969 885.591,530.561 891.603,549.226 897.616,568.202 903.628,581.735 909.641,542.337 915.653,604.527 921.666,596.676 927.678,665.698 933.691,680.891 939.703,658.727 945.716,689.572 951.728,746.341 957.741,726.638 963.753,773.542 969.766,720.102 975.778,685.665 981.79,594.874 987.803,586.883 993.815,585.229 999.828,620.195 1005.84,642.336 1011.85,643.479 1017.87,593.076 1023.88,532.012 1029.89,604.384 1035.9,646.378 1041.92,655.462 1047.93,667.213 1053.94,629.934 1059.95,593.81 1065.97,554.685 1071.98,515.394 1077.99,506.759 1084,548.576 1090.02,533.909 1096.03,472.619 1102.04,387.911 1108.05,425.177 1114.07,435.344 1120.08,502.479 1126.09,517.326 1132.1,545.578 1138.11,506.132 1144.13,522.521 1150.14,549.043 1156.15,531.201 1162.16,493.726 1168.18,511.274 1174.19,523.639 1180.2,503.567 1186.21,517.774 1192.23,519.893 1198.24,524.141 1204.25,531.595 1210.26,556.544 1216.28,641.389 1222.29,645.801 1228.3,651.405 1234.31,646.438 1240.33,629.191 1246.34,697.019 1252.35,770.16 1258.36,735.745 1264.38,771.119 1270.39,793.972 1276.4,766.721 1282.41,729.863 1288.43,776.265 1294.44,756.161 1300.45,757.536 1306.46,775.522 1312.48,796.796 1318.49,798.742 1324.5,821.736 1330.51,804.584 1336.53,783.854 1342.54,772.76 1348.55,736.54 1354.56,776.06 1360.58,816.289 1366.59,807.909 1372.6,776.01 1378.61,768.724 1384.63,764.456 1390.64,772.04 1396.65,727.353 1402.66,763.111 1408.68,757.471 1414.69,714.324 1420.7,736.167 1426.71,769.484 1432.73,812.134 1438.74,834.492 1444.75,840.963 1450.76,882.326 1456.78,862.52 1462.79,773.323 1468.8,741.673 1474.81,663.068 1480.83,603.886 1486.84,578.407 1492.85,596.668 1498.86,586.822 1504.88,607.789 1510.89,620.009 1516.9,620.442 1522.91,636.553 1528.93,717.709 1534.94,728.384 1540.95,704.494 1546.96,790.47 1552.98,828.56 1558.99,846.39 1565,942.012 1571.01,920.768 1577.03,912.351 1583.04,929.041 1589.05,925.09 1595.06,903.271 1601.08,879.859 1607.09,900.72 1613.1,892.918 1619.11,835.829 1625.13,832.102 1631.14,817.672 1637.15,761.749 1643.16,743.681 1649.18,717.8 1655.19,708.228 1661.2,651.446 1667.21,637.379 1673.23,676.848 1679.24,689.516 1685.25,647.291 1691.26,635.377 1697.28,601.265 1703.29,600.53 1709.3,607.111 1715.31,682.729 1721.33,685.37 1727.34,695.052 1733.35,677.245 1739.36,668.828 1745.38,675.155 1751.39,717.21 1757.4,668.23 1763.41,603.111 1769.43,577.332 1775.44,546.917 1781.45,540.444 1787.46,499.282 1793.48,503.491 1799.49,499.176 1805.5,554.091 1811.51,606.488 1817.53,596.996 1823.54,557.057 1829.55,608.073 1835.56,628.304 1841.57,621.075 1847.59,631.555 1853.6,659.589 1859.61,633.204 1865.62,663.441 1871.64,638.42 1877.65,657.294 1883.66,682.17 1889.67,725.881 1895.69,747.101 1901.7,750.867 1907.71,780.999 1913.72,809.446 1919.74,815.321 1925.75,778.012 1931.76,770.455 1937.77,753.587 1943.79,730.453 1949.8,696.057 1955.81,673.413 1961.82,651.615 1967.84,686.229 1973.85,649.969 1979.86,595.513 1985.87,607.545 1991.89,607.119 1997.9,659.15 2003.91,620.189 2009.92,637.404 2015.94,637.992 2021.95,624.955 2027.96,689.472 2033.97,606.761 2039.99,614.125 2046,647.864 2052.01,638.054 2058.02,674.081 2064.04,679.051 2070.05,669.905 2076.06,684.395 2082.07,702.1 2088.09,706.194 2094.1,735.974 2100.11,767.604 2106.12,739.288 2112.14,777.36 2118.15,798.814 2124.16,774.886 2130.17,803.791 2136.19,742.104 2142.2,726.227 2148.21,722.289 2154.22,713.261 2160.24,788.285 2166.25,796.347 2172.26,773.75 2178.27,864.254 2184.29,840.058 2190.3,799.238 2196.31,734.664 2202.32,699.145 2208.34,668.973 2214.35,670.496 2220.36,614.14 2226.37,615.557 2232.39,589.045 2238.4,586.566 2244.41,623.007 2250.42,602.313 2256.44,597.686 2262.45,595.203 2268.46,570.861 2274.47,565.042 2280.49,613.674 2286.5,640.123 2292.51,592.691 "/>
<path clip-path="url(#clip730)" d="M2045.67 248.629 L2281.8 248.629 L2281.8 93.1086 L2045.67 93.1086  Z" fill="#ffffff" fill-rule="evenodd" fill-opacity="1"/>
<polyline clip-path="url(#clip730)" style="stroke:#000000; stroke-linecap:round; stroke-linejoin:round; stroke-width:4; stroke-opacity:1; fill:none" points="2045.67,248.629 2281.8,248.629 2281.8,93.1086 2045.67,93.1086 2045.67,248.629 "/>
<polyline clip-path="url(#clip730)" style="stroke:#009af9; stroke-linecap:round; stroke-linejoin:round; stroke-width:4; stroke-opacity:1; fill:none" points="2069.32,144.949 2211.23,144.949 "/>
<path clip-path="url(#clip730)" d="M2257.02 131.203 Q2257.02 131.531 2256.81 132.304 L2252.22 150.62 Q2251.21 154.696 2247.93 157.554 Q2244.68 160.411 2240.98 160.411 Q2238.75 160.411 2237.32 159.217 Q2235.89 158.045 2235.89 156.242 Q2235.89 154.649 2236.74 153.876 Q2237.58 153.127 2238.59 153.127 Q2238.91 153.127 2239.27 153.22 Q2239.62 153.314 2239.99 153.712 Q2240.37 154.11 2240.37 154.79 Q2240.37 155.891 2239.41 156.757 Q2238.94 157.155 2238.49 157.249 Q2238.07 157.343 2237.35 157.343 Q2237.63 157.999 2238.14 158.444 Q2238.66 158.889 2239.24 159.053 Q2239.83 159.24 2240.2 159.287 Q2240.6 159.357 2240.98 159.357 Q2243.97 159.357 2246.27 156.336 Q2246.95 155.422 2247.44 154.509 Q2247.96 153.619 2248.33 152.518 Q2248.71 151.44 2248.87 150.855 Q2249.06 150.269 2249.38 148.934 Q2247.21 151.112 2244.54 151.112 Q2243.41 151.112 2242.4 150.808 Q2241.42 150.503 2240.55 149.871 Q2239.69 149.215 2239.17 148.067 Q2238.68 146.92 2238.68 145.397 Q2238.68 143.781 2239.31 141.579 Q2239.95 139.378 2241.47 135.326 Q2242.29 133.054 2242.29 131.953 Q2242.29 131.414 2242.17 131.086 Q2242.05 130.735 2241.82 130.618 Q2241.58 130.477 2241.44 130.454 Q2241.33 130.43 2241.09 130.43 Q2239.71 130.43 2238.42 131.836 Q2237.13 133.241 2236.24 136.38 Q2236.06 136.965 2235.94 137.106 Q2235.82 137.246 2235.47 137.246 Q2234.89 137.223 2234.89 136.754 Q2234.89 136.567 2235.1 135.841 Q2235.31 135.091 2235.8 133.991 Q2236.31 132.866 2237.02 131.859 Q2237.72 130.828 2238.82 130.102 Q2239.95 129.376 2241.23 129.376 Q2242.99 129.376 2244.07 130.524 Q2245.17 131.648 2245.17 133.311 Q2245.17 133.991 2244.98 134.6 Q2244.82 135.185 2244.21 136.754 Q2241.75 143.078 2241.75 146.17 Q2241.75 146.92 2241.87 147.552 Q2242.01 148.161 2242.31 148.77 Q2242.62 149.356 2243.22 149.707 Q2243.86 150.035 2244.72 150.035 Q2245.82 150.035 2246.85 149.52 Q2247.91 148.981 2248.56 148.255 Q2249.24 147.529 2249.64 146.92 Q2250.06 146.287 2250.16 145.959 L2252.31 137.34 L2253.27 133.499 Q2253.72 131.414 2253.93 130.899 Q2254.21 130.407 2254.7 130.149 Q2255.19 129.892 2255.61 129.892 Q2256.2 129.892 2256.6 130.243 Q2257.02 130.594 2257.02 131.203 Z" fill="#000000" fill-rule="nonzero" fill-opacity="1" /><polyline clip-path="url(#clip730)" style="stroke:#e26f46; stroke-linecap:round; stroke-linejoin:round; stroke-width:4; stroke-opacity:1; fill:none" points="2069.32,196.789 2211.23,196.789 "/>
<path clip-path="url(#clip730)" d="M2255.94 189.167 Q2255.94 189.776 2255.78 190.971 Q2255.61 192.165 2255.22 193.899 Q2254.82 195.632 2254.23 197.459 Q2253.67 199.286 2252.78 201.113 Q2251.89 202.916 2250.84 204.345 Q2249.78 205.774 2248.31 206.664 Q2246.83 207.554 2245.17 207.554 Q2244.4 207.554 2243.65 207.437 Q2242.9 207.32 2241.96 206.945 Q2241.02 206.57 2240.34 205.961 Q2239.66 205.329 2239.2 204.204 Q2238.73 203.08 2238.73 201.605 Q2238.73 200.082 2239.29 198.044 Q2239.87 195.983 2241.47 191.767 Q2242.29 189.589 2242.29 188.394 Q2242.29 187.856 2242.17 187.528 Q2242.05 187.176 2241.82 187.059 Q2241.58 186.919 2241.44 186.895 Q2241.33 186.872 2241.09 186.872 Q2239.8 186.872 2238.49 188.207 Q2237.18 189.542 2236.24 192.821 Q2236.06 193.407 2235.94 193.547 Q2235.82 193.688 2235.47 193.688 Q2234.89 193.664 2234.89 193.196 Q2234.89 193.055 2235.05 192.517 Q2235.21 191.955 2235.52 191.111 Q2235.82 190.245 2236.36 189.355 Q2236.9 188.441 2237.56 187.645 Q2238.24 186.848 2239.2 186.333 Q2240.16 185.818 2241.23 185.818 Q2242.99 185.818 2244.07 186.966 Q2245.17 188.09 2245.17 189.753 Q2245.17 190.666 2244.58 192.142 Q2243.6 194.812 2243.15 196.1 Q2242.71 197.389 2242.24 199.216 Q2241.8 201.042 2241.8 202.307 Q2241.8 204.228 2242.69 205.352 Q2243.58 206.476 2245.36 206.476 Q2246.95 206.476 2248.38 205.329 Q2249.83 204.158 2250.79 202.495 Q2251.75 200.808 2252.48 198.934 Q2253.2 197.037 2253.53 195.608 Q2253.88 194.156 2253.88 193.477 Q2253.88 191.111 2252.27 189.565 Q2251.82 189.12 2251.66 188.839 Q2251.49 188.558 2251.49 188.113 Q2251.49 187.293 2252.22 186.567 Q2252.97 185.818 2253.83 185.818 Q2254.63 185.818 2255.29 186.614 Q2255.94 187.411 2255.94 189.167 Z" fill="#000000" fill-rule="nonzero" fill-opacity="1" /></svg>
