<?xml version="1.0" encoding="utf-8"?>
<svg xmlns="http://www.w3.org/2000/svg" xmlns:xlink="http://www.w3.org/1999/xlink" width="600" height="400" viewBox="0 0 2400 1600">
<defs>
  <clipPath id="clip990">
    <rect x="0" y="0" width="2400" height="1600"/>
  </clipPath>
</defs>
<path clip-path="url(#clip990)" d="M0 1600 L2400 1600 L2400 0 L0 0  Z" fill="#ffffff" fill-rule="evenodd" fill-opacity="1"/>
<defs>
  <clipPath id="clip991">
    <rect x="480" y="0" width="1681" height="1600"/>
  </clipPath>
</defs>
<path clip-path="url(#clip990)" d="M224.26 1423.18 L2352.76 1423.18 L2352.76 47.2441 L224.26 47.2441  Z" fill="#ffffff" fill-rule="evenodd" fill-opacity="1"/>
<defs>
  <clipPath id="clip992">
    <rect x="224" y="47" width="2129" height="1377"/>
  </clipPath>
</defs>
<polyline clip-path="url(#clip992)" style="stroke:#000000; stroke-linecap:round; stroke-linejoin:round; stroke-width:2; stroke-opacity:0.1; fill:none" points="284.5,1423.18 284.5,47.2441 "/>
<polyline clip-path="url(#clip992)" style="stroke:#000000; stroke-linecap:round; stroke-linejoin:round; stroke-width:2; stroke-opacity:0.1; fill:none" points="685.302,1423.18 685.302,47.2441 "/>
<polyline clip-path="url(#clip992)" style="stroke:#000000; stroke-linecap:round; stroke-linejoin:round; stroke-width:2; stroke-opacity:0.1; fill:none" points="1086.1,1423.18 1086.1,47.2441 "/>
<polyline clip-path="url(#clip992)" style="stroke:#000000; stroke-linecap:round; stroke-linejoin:round; stroke-width:2; stroke-opacity:0.1; fill:none" points="1486.9,1423.18 1486.9,47.2441 "/>
<polyline clip-path="url(#clip992)" style="stroke:#000000; stroke-linecap:round; stroke-linejoin:round; stroke-width:2; stroke-opacity:0.1; fill:none" points="1887.71,1423.18 1887.71,47.2441 "/>
<polyline clip-path="url(#clip992)" style="stroke:#000000; stroke-linecap:round; stroke-linejoin:round; stroke-width:2; stroke-opacity:0.1; fill:none" points="2288.51,1423.18 2288.51,47.2441 "/>
<polyline clip-path="url(#clip992)" style="stroke:#000000; stroke-linecap:round; stroke-linejoin:round; stroke-width:2; stroke-opacity:0.1; fill:none" points="224.26,1211.17 2352.76,1211.17 "/>
<polyline clip-path="url(#clip992)" style="stroke:#000000; stroke-linecap:round; stroke-linejoin:round; stroke-width:2; stroke-opacity:0.1; fill:none" points="224.26,972.979 2352.76,972.979 "/>
<polyline clip-path="url(#clip992)" style="stroke:#000000; stroke-linecap:round; stroke-linejoin:round; stroke-width:2; stroke-opacity:0.1; fill:none" points="224.26,734.793 2352.76,734.793 "/>
<polyline clip-path="url(#clip992)" style="stroke:#000000; stroke-linecap:round; stroke-linejoin:round; stroke-width:2; stroke-opacity:0.1; fill:none" points="224.26,496.607 2352.76,496.607 "/>
<polyline clip-path="url(#clip992)" style="stroke:#000000; stroke-linecap:round; stroke-linejoin:round; stroke-width:2; stroke-opacity:0.1; fill:none" points="224.26,258.421 2352.76,258.421 "/>
<polyline clip-path="url(#clip990)" style="stroke:#000000; stroke-linecap:round; stroke-linejoin:round; stroke-width:4; stroke-opacity:1; fill:none" points="224.26,1423.18 2352.76,1423.18 "/>
<polyline clip-path="url(#clip990)" style="stroke:#000000; stroke-linecap:round; stroke-linejoin:round; stroke-width:4; stroke-opacity:1; fill:none" points="284.5,1423.18 284.5,1404.28 "/>
<polyline clip-path="url(#clip990)" style="stroke:#000000; stroke-linecap:round; stroke-linejoin:round; stroke-width:4; stroke-opacity:1; fill:none" points="685.302,1423.18 685.302,1404.28 "/>
<polyline clip-path="url(#clip990)" style="stroke:#000000; stroke-linecap:round; stroke-linejoin:round; stroke-width:4; stroke-opacity:1; fill:none" points="1086.1,1423.18 1086.1,1404.28 "/>
<polyline clip-path="url(#clip990)" style="stroke:#000000; stroke-linecap:round; stroke-linejoin:round; stroke-width:4; stroke-opacity:1; fill:none" points="1486.9,1423.18 1486.9,1404.28 "/>
<polyline clip-path="url(#clip990)" style="stroke:#000000; stroke-linecap:round; stroke-linejoin:round; stroke-width:4; stroke-opacity:1; fill:none" points="1887.71,1423.18 1887.71,1404.28 "/>
<polyline clip-path="url(#clip990)" style="stroke:#000000; stroke-linecap:round; stroke-linejoin:round; stroke-width:4; stroke-opacity:1; fill:none" points="2288.51,1423.18 2288.51,1404.28 "/>
<path clip-path="url(#clip990)" d="M261.885 1454.1 Q258.274 1454.1 256.445 1457.66 Q254.639 1461.2 254.639 1468.33 Q254.639 1475.44 256.445 1479.01 Q258.274 1482.55 261.885 1482.55 Q265.519 1482.55 267.325 1479.01 Q269.153 1475.44 269.153 1468.33 Q269.153 1461.2 267.325 1457.66 Q265.519 1454.1 261.885 1454.1 M261.885 1450.39 Q267.695 1450.39 270.75 1455 Q273.829 1459.58 273.829 1468.33 Q273.829 1477.06 270.75 1481.67 Q267.695 1486.25 261.885 1486.25 Q256.075 1486.25 252.996 1481.67 Q249.94 1477.06 249.94 1468.33 Q249.94 1459.58 252.996 1455 Q256.075 1450.39 261.885 1450.39 Z" fill="#000000" fill-rule="nonzero" fill-opacity="1" /><path clip-path="url(#clip990)" d="M282.047 1479.7 L286.931 1479.7 L286.931 1485.58 L282.047 1485.58 L282.047 1479.7 Z" fill="#000000" fill-rule="nonzero" fill-opacity="1" /><path clip-path="url(#clip990)" d="M307.116 1454.1 Q303.505 1454.1 301.676 1457.66 Q299.871 1461.2 299.871 1468.33 Q299.871 1475.44 301.676 1479.01 Q303.505 1482.55 307.116 1482.55 Q310.75 1482.55 312.556 1479.01 Q314.384 1475.44 314.384 1468.33 Q314.384 1461.2 312.556 1457.66 Q310.75 1454.1 307.116 1454.1 M307.116 1450.39 Q312.926 1450.39 315.982 1455 Q319.06 1459.58 319.06 1468.33 Q319.06 1477.06 315.982 1481.67 Q312.926 1486.25 307.116 1486.25 Q301.306 1486.25 298.227 1481.67 Q295.172 1477.06 295.172 1468.33 Q295.172 1459.58 298.227 1455 Q301.306 1450.39 307.116 1450.39 Z" fill="#000000" fill-rule="nonzero" fill-opacity="1" /><path clip-path="url(#clip990)" d="M663.184 1454.1 Q659.573 1454.1 657.744 1457.66 Q655.939 1461.2 655.939 1468.33 Q655.939 1475.44 657.744 1479.01 Q659.573 1482.55 663.184 1482.55 Q666.818 1482.55 668.624 1479.01 Q670.452 1475.44 670.452 1468.33 Q670.452 1461.2 668.624 1457.66 Q666.818 1454.1 663.184 1454.1 M663.184 1450.39 Q668.994 1450.39 672.05 1455 Q675.128 1459.58 675.128 1468.33 Q675.128 1477.06 672.05 1481.67 Q668.994 1486.25 663.184 1486.25 Q657.374 1486.25 654.295 1481.67 Q651.239 1477.06 651.239 1468.33 Q651.239 1459.58 654.295 1455 Q657.374 1450.39 663.184 1450.39 Z" fill="#000000" fill-rule="nonzero" fill-opacity="1" /><path clip-path="url(#clip990)" d="M683.346 1479.7 L688.23 1479.7 L688.23 1485.58 L683.346 1485.58 L683.346 1479.7 Z" fill="#000000" fill-rule="nonzero" fill-opacity="1" /><path clip-path="url(#clip990)" d="M698.461 1451.02 L716.818 1451.02 L716.818 1454.96 L702.744 1454.96 L702.744 1463.43 Q703.762 1463.08 704.781 1462.92 Q705.799 1462.73 706.818 1462.73 Q712.605 1462.73 715.984 1465.9 Q719.364 1469.08 719.364 1474.49 Q719.364 1480.07 715.892 1483.17 Q712.42 1486.25 706.1 1486.25 Q703.924 1486.25 701.656 1485.88 Q699.41 1485.51 697.003 1484.77 L697.003 1480.07 Q699.086 1481.2 701.309 1481.76 Q703.531 1482.32 706.008 1482.32 Q710.012 1482.32 712.35 1480.21 Q714.688 1478.1 714.688 1474.49 Q714.688 1470.88 712.35 1468.77 Q710.012 1466.67 706.008 1466.67 Q704.133 1466.67 702.258 1467.08 Q700.406 1467.5 698.461 1468.38 L698.461 1451.02 Z" fill="#000000" fill-rule="nonzero" fill-opacity="1" /><path clip-path="url(#clip990)" d="M1053.26 1481.64 L1060.89 1481.64 L1060.89 1455.28 L1052.58 1456.95 L1052.58 1452.69 L1060.85 1451.02 L1065.52 1451.02 L1065.52 1481.64 L1073.16 1481.64 L1073.16 1485.58 L1053.26 1485.58 L1053.26 1481.64 Z" fill="#000000" fill-rule="nonzero" fill-opacity="1" /><path clip-path="url(#clip990)" d="M1082.61 1479.7 L1087.49 1479.7 L1087.49 1485.58 L1082.61 1485.58 L1082.61 1479.7 Z" fill="#000000" fill-rule="nonzero" fill-opacity="1" /><path clip-path="url(#clip990)" d="M1107.68 1454.1 Q1104.07 1454.1 1102.24 1457.66 Q1100.43 1461.2 1100.43 1468.33 Q1100.43 1475.44 1102.24 1479.01 Q1104.07 1482.55 1107.68 1482.55 Q1111.31 1482.55 1113.12 1479.01 Q1114.95 1475.44 1114.95 1468.33 Q1114.95 1461.2 1113.12 1457.66 Q1111.31 1454.1 1107.68 1454.1 M1107.68 1450.39 Q1113.49 1450.39 1116.54 1455 Q1119.62 1459.58 1119.62 1468.33 Q1119.62 1477.06 1116.54 1481.67 Q1113.49 1486.25 1107.68 1486.25 Q1101.87 1486.25 1098.79 1481.67 Q1095.73 1477.06 1095.73 1468.33 Q1095.73 1459.58 1098.79 1455 Q1101.87 1450.39 1107.68 1450.39 Z" fill="#000000" fill-rule="nonzero" fill-opacity="1" /><path clip-path="url(#clip990)" d="M1454.56 1481.64 L1462.19 1481.64 L1462.19 1455.28 L1453.88 1456.95 L1453.88 1452.69 L1462.15 1451.02 L1466.82 1451.02 L1466.82 1481.64 L1474.46 1481.64 L1474.46 1485.58 L1454.56 1485.58 L1454.56 1481.64 Z" fill="#000000" fill-rule="nonzero" fill-opacity="1" /><path clip-path="url(#clip990)" d="M1483.91 1479.7 L1488.79 1479.7 L1488.79 1485.58 L1483.91 1485.58 L1483.91 1479.7 Z" fill="#000000" fill-rule="nonzero" fill-opacity="1" /><path clip-path="url(#clip990)" d="M1499.02 1451.02 L1517.38 1451.02 L1517.38 1454.96 L1503.3 1454.96 L1503.3 1463.43 Q1504.32 1463.08 1505.34 1462.92 Q1506.36 1462.73 1507.38 1462.73 Q1513.17 1462.73 1516.55 1465.9 Q1519.93 1469.08 1519.93 1474.49 Q1519.93 1480.07 1516.45 1483.17 Q1512.98 1486.25 1506.66 1486.25 Q1504.49 1486.25 1502.22 1485.88 Q1499.97 1485.51 1497.56 1484.77 L1497.56 1480.07 Q1499.65 1481.2 1501.87 1481.76 Q1504.09 1482.32 1506.57 1482.32 Q1510.57 1482.32 1512.91 1480.21 Q1515.25 1478.1 1515.25 1474.49 Q1515.25 1470.88 1512.91 1468.77 Q1510.57 1466.67 1506.57 1466.67 Q1504.69 1466.67 1502.82 1467.08 Q1500.97 1467.5 1499.02 1468.38 L1499.02 1451.02 Z" fill="#000000" fill-rule="nonzero" fill-opacity="1" /><path clip-path="url(#clip990)" d="M1858.94 1481.64 L1875.26 1481.64 L1875.26 1485.58 L1853.32 1485.58 L1853.32 1481.64 Q1855.98 1478.89 1860.56 1474.26 Q1865.17 1469.61 1866.35 1468.27 Q1868.6 1465.74 1869.48 1464.01 Q1870.38 1462.25 1870.38 1460.56 Q1870.38 1457.8 1868.44 1456.07 Q1866.51 1454.33 1863.41 1454.33 Q1861.21 1454.33 1858.76 1455.09 Q1856.33 1455.86 1853.55 1457.41 L1853.55 1452.69 Q1856.38 1451.55 1858.83 1450.97 Q1861.28 1450.39 1863.32 1450.39 Q1868.69 1450.39 1871.88 1453.08 Q1875.08 1455.77 1875.08 1460.26 Q1875.08 1462.39 1874.27 1464.31 Q1873.48 1466.2 1871.38 1468.8 Q1870.8 1469.47 1867.69 1472.69 Q1864.59 1475.88 1858.94 1481.64 Z" fill="#000000" fill-rule="nonzero" fill-opacity="1" /><path clip-path="url(#clip990)" d="M1885.08 1479.7 L1889.96 1479.7 L1889.96 1485.58 L1885.08 1485.58 L1885.08 1479.7 Z" fill="#000000" fill-rule="nonzero" fill-opacity="1" /><path clip-path="url(#clip990)" d="M1910.15 1454.1 Q1906.54 1454.1 1904.71 1457.66 Q1902.9 1461.2 1902.9 1468.33 Q1902.9 1475.44 1904.71 1479.01 Q1906.54 1482.55 1910.15 1482.55 Q1913.78 1482.55 1915.59 1479.01 Q1917.42 1475.44 1917.42 1468.33 Q1917.42 1461.2 1915.59 1457.66 Q1913.78 1454.1 1910.15 1454.1 M1910.15 1450.39 Q1915.96 1450.39 1919.01 1455 Q1922.09 1459.58 1922.09 1468.33 Q1922.09 1477.06 1919.01 1481.67 Q1915.96 1486.25 1910.15 1486.25 Q1904.34 1486.25 1901.26 1481.67 Q1898.2 1477.06 1898.2 1468.33 Q1898.2 1459.58 1901.26 1455 Q1904.34 1450.39 1910.15 1450.39 Z" fill="#000000" fill-rule="nonzero" fill-opacity="1" /><path clip-path="url(#clip990)" d="M2260.24 1481.64 L2276.56 1481.64 L2276.56 1485.58 L2254.62 1485.58 L2254.62 1481.64 Q2257.28 1478.89 2261.86 1474.26 Q2266.47 1469.61 2267.65 1468.27 Q2269.9 1465.74 2270.78 1464.01 Q2271.68 1462.25 2271.68 1460.56 Q2271.68 1457.8 2269.73 1456.07 Q2267.81 1454.33 2264.71 1454.33 Q2262.51 1454.33 2260.06 1455.09 Q2257.63 1455.86 2254.85 1457.41 L2254.85 1452.69 Q2257.67 1451.55 2260.13 1450.97 Q2262.58 1450.39 2264.62 1450.39 Q2269.99 1450.39 2273.18 1453.08 Q2276.38 1455.77 2276.38 1460.26 Q2276.38 1462.39 2275.57 1464.31 Q2274.78 1466.2 2272.67 1468.8 Q2272.1 1469.47 2268.99 1472.69 Q2265.89 1475.88 2260.24 1481.64 Z" fill="#000000" fill-rule="nonzero" fill-opacity="1" /><path clip-path="url(#clip990)" d="M2286.38 1479.7 L2291.26 1479.7 L2291.26 1485.58 L2286.38 1485.58 L2286.38 1479.7 Z" fill="#000000" fill-rule="nonzero" fill-opacity="1" /><path clip-path="url(#clip990)" d="M2301.49 1451.02 L2319.85 1451.02 L2319.85 1454.96 L2305.78 1454.96 L2305.78 1463.43 Q2306.79 1463.08 2307.81 1462.92 Q2308.83 1462.73 2309.85 1462.73 Q2315.64 1462.73 2319.02 1465.9 Q2322.4 1469.08 2322.4 1474.49 Q2322.4 1480.07 2318.92 1483.17 Q2315.45 1486.25 2309.13 1486.25 Q2306.96 1486.25 2304.69 1485.88 Q2302.44 1485.51 2300.04 1484.77 L2300.04 1480.07 Q2302.12 1481.2 2304.34 1481.76 Q2306.56 1482.32 2309.04 1482.32 Q2313.04 1482.32 2315.38 1480.21 Q2317.72 1478.1 2317.72 1474.49 Q2317.72 1470.88 2315.38 1468.77 Q2313.04 1466.67 2309.04 1466.67 Q2307.16 1466.67 2305.29 1467.08 Q2303.44 1467.5 2301.49 1468.38 L2301.49 1451.02 Z" fill="#000000" fill-rule="nonzero" fill-opacity="1" /><path clip-path="url(#clip990)" d="M1296.98 1531.91 Q1296.98 1532.81 1296.56 1533.04 Q1296.14 1533.23 1294.98 1533.23 L1288.8 1533.23 L1283.9 1552.69 Q1283.52 1554.39 1283.52 1555.84 Q1283.52 1557.45 1284 1558.16 Q1284.52 1558.87 1285.58 1558.87 Q1287.67 1558.87 1289.93 1556.97 Q1292.21 1555.07 1294.14 1550.43 Q1294.4 1549.82 1294.53 1549.69 Q1294.69 1549.53 1295.11 1549.53 Q1295.92 1549.53 1295.92 1550.17 Q1295.92 1550.4 1295.47 1551.43 Q1295.05 1552.46 1294.11 1553.97 Q1293.21 1555.49 1292.02 1556.9 Q1290.86 1558.32 1289.09 1559.35 Q1287.32 1560.35 1285.42 1560.35 Q1282.74 1560.35 1281.04 1558.64 Q1279.36 1556.94 1279.36 1554.26 Q1279.36 1553.39 1280.04 1550.62 Q1280.71 1547.82 1284.39 1533.23 L1278.56 1533.23 Q1277.75 1533.23 1277.43 1533.2 Q1277.14 1533.17 1276.91 1533.01 Q1276.72 1532.81 1276.72 1532.43 Q1276.72 1531.82 1276.98 1531.56 Q1277.24 1531.27 1277.56 1531.24 Q1277.91 1531.17 1278.72 1531.17 L1284.9 1531.17 L1287.48 1520.71 Q1287.74 1519.67 1288.38 1519.09 Q1289.06 1518.48 1289.44 1518.42 Q1289.83 1518.32 1290.12 1518.32 Q1290.99 1518.32 1291.5 1518.81 Q1292.02 1519.26 1292.02 1520.09 Q1292.02 1520.54 1289.31 1531.17 L1295.11 1531.17 Q1295.85 1531.17 1296.14 1531.2 Q1296.46 1531.24 1296.72 1531.4 Q1296.98 1531.56 1296.98 1531.91 Z" fill="#000000" fill-rule="nonzero" fill-opacity="1" /><polyline clip-path="url(#clip990)" style="stroke:#000000; stroke-linecap:round; stroke-linejoin:round; stroke-width:4; stroke-opacity:1; fill:none" points="224.26,1423.18 224.26,47.2441 "/>
<polyline clip-path="url(#clip990)" style="stroke:#000000; stroke-linecap:round; stroke-linejoin:round; stroke-width:4; stroke-opacity:1; fill:none" points="224.26,1211.17 243.158,1211.17 "/>
<polyline clip-path="url(#clip990)" style="stroke:#000000; stroke-linecap:round; stroke-linejoin:round; stroke-width:4; stroke-opacity:1; fill:none" points="224.26,972.979 243.158,972.979 "/>
<polyline clip-path="url(#clip990)" style="stroke:#000000; stroke-linecap:round; stroke-linejoin:round; stroke-width:4; stroke-opacity:1; fill:none" points="224.26,734.793 243.158,734.793 "/>
<polyline clip-path="url(#clip990)" style="stroke:#000000; stroke-linecap:round; stroke-linejoin:round; stroke-width:4; stroke-opacity:1; fill:none" points="224.26,496.607 243.158,496.607 "/>
<polyline clip-path="url(#clip990)" style="stroke:#000000; stroke-linecap:round; stroke-linejoin:round; stroke-width:4; stroke-opacity:1; fill:none" points="224.26,258.421 243.158,258.421 "/>
<path clip-path="url(#clip990)" d="M52.7514 1211.62 L82.4271 1211.62 L82.4271 1215.55 L52.7514 1215.55 L52.7514 1211.62 Z" fill="#000000" fill-rule="nonzero" fill-opacity="1" /><path clip-path="url(#clip990)" d="M102.52 1196.96 Q98.9085 1196.96 97.0798 1200.53 Q95.2743 1204.07 95.2743 1211.2 Q95.2743 1218.31 97.0798 1221.87 Q98.9085 1225.41 102.52 1225.41 Q106.154 1225.41 107.959 1221.87 Q109.788 1218.31 109.788 1211.2 Q109.788 1204.07 107.959 1200.53 Q106.154 1196.96 102.52 1196.96 M102.52 1193.26 Q108.33 1193.26 111.385 1197.87 Q114.464 1202.45 114.464 1211.2 Q114.464 1219.93 111.385 1224.53 Q108.33 1229.12 102.52 1229.12 Q96.7095 1229.12 93.6308 1224.53 Q90.5752 1219.93 90.5752 1211.2 Q90.5752 1202.45 93.6308 1197.87 Q96.7095 1193.26 102.52 1193.26 Z" fill="#000000" fill-rule="nonzero" fill-opacity="1" /><path clip-path="url(#clip990)" d="M122.682 1222.57 L127.566 1222.57 L127.566 1228.45 L122.682 1228.45 L122.682 1222.57 Z" fill="#000000" fill-rule="nonzero" fill-opacity="1" /><path clip-path="url(#clip990)" d="M138.561 1224.51 L146.2 1224.51 L146.2 1198.14 L137.89 1199.81 L137.89 1195.55 L146.154 1193.89 L150.83 1193.89 L150.83 1224.51 L158.468 1224.51 L158.468 1228.45 L138.561 1228.45 L138.561 1224.51 Z" fill="#000000" fill-rule="nonzero" fill-opacity="1" /><path clip-path="url(#clip990)" d="M171.941 1224.51 L188.26 1224.51 L188.26 1228.45 L166.316 1228.45 L166.316 1224.51 Q168.978 1221.76 173.561 1217.13 Q178.167 1212.47 179.348 1211.13 Q181.593 1208.61 182.473 1206.87 Q183.376 1205.11 183.376 1203.42 Q183.376 1200.67 181.431 1198.93 Q179.51 1197.2 176.408 1197.2 Q174.209 1197.2 171.755 1197.96 Q169.325 1198.72 166.547 1200.27 L166.547 1195.55 Q169.371 1194.42 171.825 1193.84 Q174.279 1193.26 176.316 1193.26 Q181.686 1193.26 184.88 1195.95 Q188.075 1198.63 188.075 1203.12 Q188.075 1205.25 187.265 1207.17 Q186.478 1209.07 184.371 1211.66 Q183.792 1212.33 180.691 1215.55 Q177.589 1218.75 171.941 1224.51 Z" fill="#000000" fill-rule="nonzero" fill-opacity="1" /><path clip-path="url(#clip990)" d="M51.3393 973.431 L81.0151 973.431 L81.0151 977.366 L51.3393 977.366 L51.3393 973.431 Z" fill="#000000" fill-rule="nonzero" fill-opacity="1" /><path clip-path="url(#clip990)" d="M101.108 958.778 Q97.4965 958.778 95.6678 962.343 Q93.8623 965.885 93.8623 973.014 Q93.8623 980.121 95.6678 983.685 Q97.4965 987.227 101.108 987.227 Q104.742 987.227 106.547 983.685 Q108.376 980.121 108.376 973.014 Q108.376 965.885 106.547 962.343 Q104.742 958.778 101.108 958.778 M101.108 955.074 Q106.918 955.074 109.973 959.681 Q113.052 964.264 113.052 973.014 Q113.052 981.741 109.973 986.347 Q106.918 990.931 101.108 990.931 Q95.2974 990.931 92.2188 986.347 Q89.1632 981.741 89.1632 973.014 Q89.1632 964.264 92.2188 959.681 Q95.2974 955.074 101.108 955.074 Z" fill="#000000" fill-rule="nonzero" fill-opacity="1" /><path clip-path="url(#clip990)" d="M121.27 984.38 L126.154 984.38 L126.154 990.259 L121.27 990.259 L121.27 984.38 Z" fill="#000000" fill-rule="nonzero" fill-opacity="1" /><path clip-path="url(#clip990)" d="M146.339 958.778 Q142.728 958.778 140.899 962.343 Q139.094 965.885 139.094 973.014 Q139.094 980.121 140.899 983.685 Q142.728 987.227 146.339 987.227 Q149.973 987.227 151.779 983.685 Q153.607 980.121 153.607 973.014 Q153.607 965.885 151.779 962.343 Q149.973 958.778 146.339 958.778 M146.339 955.074 Q152.149 955.074 155.205 959.681 Q158.283 964.264 158.283 973.014 Q158.283 981.741 155.205 986.347 Q152.149 990.931 146.339 990.931 Q140.529 990.931 137.45 986.347 Q134.394 981.741 134.394 973.014 Q134.394 964.264 137.45 959.681 Q140.529 955.074 146.339 955.074 Z" fill="#000000" fill-rule="nonzero" fill-opacity="1" /><path clip-path="url(#clip990)" d="M166.64 989.542 L166.64 985.283 Q168.399 986.116 170.204 986.556 Q172.01 986.996 173.746 986.996 Q178.376 986.996 180.806 983.894 Q183.26 980.769 183.607 974.426 Q182.265 976.417 180.204 977.482 Q178.144 978.547 175.644 978.547 Q170.459 978.547 167.427 975.422 Q164.417 972.273 164.417 966.834 Q164.417 961.51 167.566 958.292 Q170.714 955.074 175.945 955.074 Q181.94 955.074 185.089 959.681 Q188.26 964.264 188.26 973.014 Q188.26 981.185 184.371 986.07 Q180.505 990.931 173.954 990.931 Q172.195 990.931 170.39 990.584 Q168.584 990.236 166.64 989.542 M175.945 974.889 Q179.093 974.889 180.922 972.736 Q182.774 970.584 182.774 966.834 Q182.774 963.107 180.922 960.954 Q179.093 958.778 175.945 958.778 Q172.797 958.778 170.945 960.954 Q169.116 963.107 169.116 966.834 Q169.116 970.584 170.945 972.736 Q172.797 974.889 175.945 974.889 Z" fill="#000000" fill-rule="nonzero" fill-opacity="1" /><path clip-path="url(#clip990)" d="M50.9921 735.245 L80.6679 735.245 L80.6679 739.18 L50.9921 739.18 L50.9921 735.245 Z" fill="#000000" fill-rule="nonzero" fill-opacity="1" /><path clip-path="url(#clip990)" d="M100.76 720.592 Q97.1493 720.592 95.3206 724.157 Q93.515 727.698 93.515 734.828 Q93.515 741.934 95.3206 745.499 Q97.1493 749.041 100.76 749.041 Q104.395 749.041 106.2 745.499 Q108.029 741.934 108.029 734.828 Q108.029 727.698 106.2 724.157 Q104.395 720.592 100.76 720.592 M100.76 716.888 Q106.571 716.888 109.626 721.495 Q112.705 726.078 112.705 734.828 Q112.705 743.555 109.626 748.161 Q106.571 752.744 100.76 752.744 Q94.9502 752.744 91.8715 748.161 Q88.816 743.555 88.816 734.828 Q88.816 726.078 91.8715 721.495 Q94.9502 716.888 100.76 716.888 Z" fill="#000000" fill-rule="nonzero" fill-opacity="1" /><path clip-path="url(#clip990)" d="M120.922 746.194 L125.807 746.194 L125.807 752.073 L120.922 752.073 L120.922 746.194 Z" fill="#000000" fill-rule="nonzero" fill-opacity="1" /><path clip-path="url(#clip990)" d="M145.992 720.592 Q142.381 720.592 140.552 724.157 Q138.746 727.698 138.746 734.828 Q138.746 741.934 140.552 745.499 Q142.381 749.041 145.992 749.041 Q149.626 749.041 151.431 745.499 Q153.26 741.934 153.26 734.828 Q153.26 727.698 151.431 724.157 Q149.626 720.592 145.992 720.592 M145.992 716.888 Q151.802 716.888 154.857 721.495 Q157.936 726.078 157.936 734.828 Q157.936 743.555 154.857 748.161 Q151.802 752.744 145.992 752.744 Q140.181 752.744 137.103 748.161 Q134.047 743.555 134.047 734.828 Q134.047 726.078 137.103 721.495 Q140.181 716.888 145.992 716.888 Z" fill="#000000" fill-rule="nonzero" fill-opacity="1" /><path clip-path="url(#clip990)" d="M176.732 732.93 Q173.584 732.93 171.732 735.083 Q169.904 737.235 169.904 740.985 Q169.904 744.712 171.732 746.888 Q173.584 749.041 176.732 749.041 Q179.88 749.041 181.709 746.888 Q183.561 744.712 183.561 740.985 Q183.561 737.235 181.709 735.083 Q179.88 732.93 176.732 732.93 M186.015 718.277 L186.015 722.536 Q184.255 721.703 182.45 721.263 Q180.667 720.823 178.908 720.823 Q174.279 720.823 171.825 723.948 Q169.394 727.073 169.047 733.393 Q170.413 731.379 172.473 730.314 Q174.533 729.226 177.01 729.226 Q182.218 729.226 185.228 732.397 Q188.26 735.546 188.26 740.985 Q188.26 746.309 185.112 749.527 Q181.964 752.744 176.732 752.744 Q170.737 752.744 167.566 748.161 Q164.394 743.555 164.394 734.828 Q164.394 726.634 168.283 721.772 Q172.172 716.888 178.723 716.888 Q180.482 716.888 182.265 717.235 Q184.07 717.583 186.015 718.277 Z" fill="#000000" fill-rule="nonzero" fill-opacity="1" /><path clip-path="url(#clip990)" d="M51.8023 497.058 L81.4781 497.058 L81.4781 500.994 L51.8023 500.994 L51.8023 497.058 Z" fill="#000000" fill-rule="nonzero" fill-opacity="1" /><path clip-path="url(#clip990)" d="M101.571 482.406 Q97.9595 482.406 96.1308 485.97 Q94.3252 489.512 94.3252 496.642 Q94.3252 503.748 96.1308 507.313 Q97.9595 510.855 101.571 510.855 Q105.205 510.855 107.01 507.313 Q108.839 503.748 108.839 496.642 Q108.839 489.512 107.01 485.97 Q105.205 482.406 101.571 482.406 M101.571 478.702 Q107.381 478.702 110.436 483.308 Q113.515 487.892 113.515 496.642 Q113.515 505.368 110.436 509.975 Q107.381 514.558 101.571 514.558 Q95.7604 514.558 92.6817 509.975 Q89.6262 505.368 89.6262 496.642 Q89.6262 487.892 92.6817 483.308 Q95.7604 478.702 101.571 478.702 Z" fill="#000000" fill-rule="nonzero" fill-opacity="1" /><path clip-path="url(#clip990)" d="M121.732 508.007 L126.617 508.007 L126.617 513.887 L121.732 513.887 L121.732 508.007 Z" fill="#000000" fill-rule="nonzero" fill-opacity="1" /><path clip-path="url(#clip990)" d="M146.802 482.406 Q143.191 482.406 141.362 485.97 Q139.556 489.512 139.556 496.642 Q139.556 503.748 141.362 507.313 Q143.191 510.855 146.802 510.855 Q150.436 510.855 152.242 507.313 Q154.07 503.748 154.07 496.642 Q154.07 489.512 152.242 485.97 Q150.436 482.406 146.802 482.406 M146.802 478.702 Q152.612 478.702 155.667 483.308 Q158.746 487.892 158.746 496.642 Q158.746 505.368 155.667 509.975 Q152.612 514.558 146.802 514.558 Q140.992 514.558 137.913 509.975 Q134.857 505.368 134.857 496.642 Q134.857 487.892 137.913 483.308 Q140.992 478.702 146.802 478.702 Z" fill="#000000" fill-rule="nonzero" fill-opacity="1" /><path clip-path="url(#clip990)" d="M181.13 495.253 Q184.487 495.97 186.362 498.239 Q188.26 500.507 188.26 503.841 Q188.26 508.956 184.741 511.757 Q181.223 514.558 174.741 514.558 Q172.566 514.558 170.251 514.118 Q167.959 513.702 165.505 512.845 L165.505 508.331 Q167.45 509.466 169.765 510.044 Q172.079 510.623 174.603 510.623 Q179.001 510.623 181.292 508.887 Q183.607 507.151 183.607 503.841 Q183.607 500.785 181.454 499.072 Q179.325 497.336 175.505 497.336 L171.478 497.336 L171.478 493.494 L175.691 493.494 Q179.14 493.494 180.968 492.128 Q182.797 490.739 182.797 488.146 Q182.797 485.484 180.899 484.072 Q179.024 482.637 175.505 482.637 Q173.584 482.637 171.385 483.054 Q169.186 483.47 166.547 484.35 L166.547 480.183 Q169.209 479.443 171.524 479.072 Q173.862 478.702 175.922 478.702 Q181.246 478.702 184.348 481.132 Q187.45 483.54 187.45 487.66 Q187.45 490.531 185.806 492.521 Q184.163 494.489 181.13 495.253 Z" fill="#000000" fill-rule="nonzero" fill-opacity="1" /><path clip-path="url(#clip990)" d="M100.922 244.219 Q97.3113 244.219 95.4826 247.784 Q93.6771 251.326 93.6771 258.455 Q93.6771 265.562 95.4826 269.127 Q97.3113 272.668 100.922 272.668 Q104.557 272.668 106.362 269.127 Q108.191 265.562 108.191 258.455 Q108.191 251.326 106.362 247.784 Q104.557 244.219 100.922 244.219 M100.922 240.516 Q106.733 240.516 109.788 245.122 Q112.867 249.705 112.867 258.455 Q112.867 267.182 109.788 271.789 Q106.733 276.372 100.922 276.372 Q95.1123 276.372 92.0336 271.789 Q88.978 267.182 88.978 258.455 Q88.978 249.705 92.0336 245.122 Q95.1123 240.516 100.922 240.516 Z" fill="#000000" fill-rule="nonzero" fill-opacity="1" /><path clip-path="url(#clip990)" d="M121.084 269.821 L125.969 269.821 L125.969 275.701 L121.084 275.701 L121.084 269.821 Z" fill="#000000" fill-rule="nonzero" fill-opacity="1" /><path clip-path="url(#clip990)" d="M146.154 244.219 Q142.543 244.219 140.714 247.784 Q138.908 251.326 138.908 258.455 Q138.908 265.562 140.714 269.127 Q142.543 272.668 146.154 272.668 Q149.788 272.668 151.593 269.127 Q153.422 265.562 153.422 258.455 Q153.422 251.326 151.593 247.784 Q149.788 244.219 146.154 244.219 M146.154 240.516 Q151.964 240.516 155.019 245.122 Q158.098 249.705 158.098 258.455 Q158.098 267.182 155.019 271.789 Q151.964 276.372 146.154 276.372 Q140.343 276.372 137.265 271.789 Q134.209 267.182 134.209 258.455 Q134.209 249.705 137.265 245.122 Q140.343 240.516 146.154 240.516 Z" fill="#000000" fill-rule="nonzero" fill-opacity="1" /><path clip-path="url(#clip990)" d="M176.316 244.219 Q172.704 244.219 170.876 247.784 Q169.07 251.326 169.07 258.455 Q169.07 265.562 170.876 269.127 Q172.704 272.668 176.316 272.668 Q179.95 272.668 181.755 269.127 Q183.584 265.562 183.584 258.455 Q183.584 251.326 181.755 247.784 Q179.95 244.219 176.316 244.219 M176.316 240.516 Q182.126 240.516 185.181 245.122 Q188.26 249.705 188.26 258.455 Q188.26 267.182 185.181 271.789 Q182.126 276.372 176.316 276.372 Q170.505 276.372 167.427 271.789 Q164.371 267.182 164.371 258.455 Q164.371 249.705 167.427 245.122 Q170.505 240.516 176.316 240.516 Z" fill="#000000" fill-rule="nonzero" fill-opacity="1" /><polyline clip-path="url(#clip992)" style="stroke:#009af9; stroke-linecap:round; stroke-linejoin:round; stroke-width:4; stroke-opacity:1; fill:none" points="284.5,258.421 290.512,258.423 296.524,258.609 302.536,258.863 308.548,258.938 314.56,258.984 320.572,258.862 326.585,258.548 332.597,258.244 338.609,257.843 344.621,257.613 350.633,257.726 356.645,258.215 362.657,258.931 368.669,259.615 374.681,260.559 380.693,262.036 386.705,264.05 392.717,266.759 398.729,269.378 404.741,270.906 410.753,272.234 416.765,273.496 422.777,273.963 428.789,273.982 434.801,273.771 440.813,273.054 446.825,272.145 452.837,271.507 458.849,270.946 464.861,270.069 470.873,269.074 476.885,268.06 482.897,267.13 488.909,266.201 494.921,264.975 500.933,263.887 506.945,263.125 512.957,262.701 518.969,262.3 524.981,261.814 530.993,261.353 537.005,260.892 543.017,260.936 549.029,261.399 555.041,262.222 561.053,263.483 567.065,264.801 573.077,266.406 579.089,268.564 585.101,271.144 591.113,273.597 597.125,275.462 603.137,277.007 609.15,278.309 615.162,279.577 621.174,281.128 627.186,282.735 633.198,283.94 639.21,284.75 645.222,285.601 651.234,286.542 657.246,287.57 663.258,288.925 669.27,290.829 675.282,293.007 681.294,295.319 687.306,297.64 693.318,299.739 699.33,301.949 705.342,304.205 711.354,306.715 717.366,309.717 723.378,313.04 729.39,316.416 735.402,319.561 741.414,322.824 747.426,326.377 753.438,330.196 759.45,334.324 765.462,338.818 771.474,343.32 777.486,347.773 783.498,352.161 789.51,356.333 795.522,360.587 801.534,365.034 807.546,369.697 813.558,374.411 819.57,378.995 825.582,383.617 831.594,388.121 837.606,392.312 843.618,396.397 849.63,400.373 855.642,403.73 861.654,406.339 867.666,408.925 873.678,411.844 879.69,415.096 885.702,418.533 891.715,421.904 897.727,425.351 903.739,429.289 909.751,433.441 915.763,437.267 921.775,440.932 927.787,444.926 933.799,449.094 939.811,453.191 945.823,457.41 951.835,461.775 957.847,466.165 963.859,470.239 969.871,474.12 975.883,477.65 981.895,480.918 987.907,484.305 993.919,487.555 999.931,490.76 1005.94,494.066 1011.95,497.647 1017.97,501.138 1023.98,504.257 1029.99,507.349 1036,510.563 1042.02,513.737 1048.03,516.958 1054.04,520.267 1060.05,523.195 1066.06,525.964 1072.08,528.74 1078.09,530.852 1084.1,532.587 1090.11,534.677 1096.12,537.074 1102.14,539.767 1108.15,543.184 1114.16,547.1 1120.17,551.355 1126.18,555.953 1132.2,560.319 1138.21,564.609 1144.22,569.216 1150.23,574.046 1156.24,579.407 1162.26,585.568 1168.27,592.323 1174.28,599.06 1180.29,605.665 1186.3,612.385 1192.32,619.203 1198.33,625.915 1204.34,632.517 1210.35,639.323 1216.36,646.117 1222.38,652.797 1228.39,659.032 1234.4,664.34 1240.41,668.898 1246.42,673.345 1252.44,677.493 1258.45,681.168 1264.46,684.494 1270.47,686.846 1276.48,688.409 1282.5,689.654 1288.51,691.007 1294.52,692.624 1300.53,694.213 1306.54,695.63 1312.56,696.618 1318.57,697.354 1324.58,698.365 1330.59,699.996 1336.6,702.254 1342.62,704.832 1348.63,707.556 1354.64,710.258 1360.65,712.54 1366.66,714.828 1372.68,717.56 1378.69,720.215 1384.7,722.43 1390.71,724.492 1396.72,726.437 1402.74,728.513 1408.75,730.689 1414.76,732.879 1420.77,735.118 1426.78,737.408 1432.8,739.922 1438.81,742.499 1444.82,745.2 1450.83,747.887 1456.84,750.46 1462.86,753.67 1468.87,757.802 1474.88,762.253 1480.89,766.682 1486.9,770.773 1492.92,774.657 1498.93,778.482 1504.94,782.327 1510.95,786.498 1516.96,790.771 1522.98,794.967 1528.99,799.347 1535,804.157 1541.01,809.517 1547.02,815.198 1553.04,821.078 1559.05,827.146 1565.06,833.153 1571.07,839.068 1577.08,844.899 1583.1,850.917 1589.11,856.816 1595.12,862.43 1601.13,867.995 1607.15,873.202 1613.16,878.498 1619.17,884.167 1625.18,890.163 1631.19,896.57 1637.21,902.938 1643.22,909.407 1649.23,915.996 1655.24,922.307 1661.25,928.769 1667.27,935.379 1673.28,942.103 1679.29,948.948 1685.3,955.975 1691.31,963.146 1697.33,969.827 1703.34,975.992 1709.35,982.332 1715.36,988.895 1721.37,995.329 1727.39,1001.74 1733.4,1008.24 1739.41,1014.89 1745.42,1021.72 1751.43,1028.87 1757.45,1036.26 1763.46,1043.98 1769.47,1052.1 1775.48,1060.44 1781.49,1068.42 1787.51,1076.23 1793.52,1084.24 1799.53,1091.97 1805.54,1099.41 1811.55,1106.74 1817.57,1114.05 1823.58,1120.73 1829.59,1127.03 1835.6,1133.55 1841.61,1139.63 1847.63,1145.6 1853.64,1151.83 1859.65,1157.59 1865.66,1162.86 1871.67,1167.77 1877.69,1172.86 1883.7,1178.66 1889.71,1184.33 1895.72,1189.66 1901.73,1195.21 1907.75,1200.91 1913.76,1206.44 1919.77,1211.68 1925.78,1216.69 1931.79,1221.58 1937.81,1226.25 1943.82,1230.66 1949.83,1234.9 1955.84,1239.01 1961.85,1242.98 1967.87,1246.82 1973.88,1250.44 1979.89,1253.85 1985.9,1257.08 1991.91,1259.95 1997.93,1262.55 2003.94,1264.57 2009.95,1265.83 2015.96,1266.86 2021.97,1267.7 2027.99,1268.31 2034,1268.89 2040.01,1269.77 2046.02,1271 2052.03,1272.53 2058.05,1274.71 2064.06,1276.86 2070.07,1278.26 2076.08,1279.52 2082.09,1281.17 2088.11,1282.83 2094.12,1284.31 2100.13,1285.65 2106.14,1287.02 2112.15,1288.25 2118.17,1289.48 2124.18,1291.2 2130.19,1292.95 2136.2,1295.04 2142.21,1297.61 2148.23,1299.87 2154.24,1301.75 2160.25,1303.23 2166.26,1304.55 2172.28,1306.24 2178.29,1308.17 2184.3,1309.86 2190.31,1311.56 2196.32,1313.71 2202.34,1316.61 2208.35,1320.08 2214.36,1323.25 2220.37,1326.01 2226.38,1329.18 2232.4,1332.73 2238.41,1336.59 2244.42,1341.08 2250.43,1346.12 2256.44,1351.5 2262.46,1356.88 2268.47,1362.18 2274.48,1367.67 2280.49,1373.35 2286.5,1378.85 2292.52,1384.24 "/>
<polyline clip-path="url(#clip992)" style="stroke:#e26f46; stroke-linecap:round; stroke-linejoin:round; stroke-width:4; stroke-opacity:1; fill:none" points="284.5,258.421 290.512,259.037 296.524,307.521 302.536,276.921 308.548,259.861 314.56,269.296 320.572,214.972 326.585,218.122 332.597,217.725 338.609,192.276 344.621,263.017 350.633,284.053 356.645,363.102 362.657,344.664 368.669,354.836 374.681,413.482 380.693,497.445 386.705,556.394 392.717,682.931 398.729,532.267 404.741,391.917 410.753,479.153 416.765,374.159 422.777,267.331 428.789,254.497 434.801,205.999 440.813,119.657 446.825,154.749 452.837,191.959 458.849,175.339 464.861,107.794 470.873,143.474 476.885,103.075 482.897,165.713 488.909,103.587 494.921,86.1857 500.933,140.59 506.945,173.115 512.957,230.498 518.969,179.41 524.981,207.76 530.993,186.334 537.005,207.62 543.017,320.81 549.029,319.478 555.041,416.92 561.053,436.073 567.065,432.362 573.077,512.505 579.089,579.627 585.101,625.392 591.113,545.511 597.125,468.781 603.137,459.899 609.15,404.097 615.162,450.979 621.174,479.419 627.186,465.953 633.198,372.343 639.21,360.468 645.222,383.334 651.234,384.341 657.246,406.765 663.258,471.391 669.27,553.043 675.282,544.725 681.294,588.552 687.306,547.105 693.318,529.488 699.33,576.791 705.342,541.744 711.354,644.201 717.366,673.367 723.378,729.452 729.39,687.871 735.402,667.531 741.414,719.561 747.426,744.643 753.438,790.518 759.45,827.079 765.462,888.246 771.474,829.047 777.486,875.462 783.498,811.421 789.51,817.973 795.522,833.322 801.534,869.424 807.546,890.693 813.558,883.219 819.57,856.004 825.582,893.548 831.594,824.268 837.606,810.271 843.618,795.868 849.63,781.077 855.642,631.068 861.654,581.406 867.666,625.044 873.678,670.362 879.69,713.595 885.702,719.848 891.715,695.947 897.727,740.141 903.739,826.668 909.751,797.345 915.763,739.78 921.775,754.346 927.787,827.711 933.799,800.668 939.811,808.695 945.823,833.04 951.835,847.838 957.847,839.646 963.859,763.671 969.871,787.958 975.883,670.28 981.895,718.115 987.907,701.937 993.919,681.442 999.931,690.195 1005.94,708.214 1011.95,763.666 1017.97,683.986 1023.98,664.544 1029.99,676.986 1036,696.709 1042.02,666.699 1048.03,708.913 1054.04,690.411 1060.05,607.326 1066.06,647.927 1072.08,609.229 1078.09,470.671 1084.1,508.841 1090.11,565.419 1096.12,590.498 1102.14,644.467 1108.15,783.535 1114.16,777.777 1120.17,873.552 1126.18,869.527 1132.2,811.61 1138.21,849.302 1144.22,895.845 1150.23,909.042 1156.24,1037.44 1162.26,1122.38 1168.27,1195.72 1174.28,1117.63 1180.29,1160.53 1186.3,1148.28 1192.32,1186.84 1198.33,1119.8 1204.34,1157.68 1210.35,1173.94 1216.36,1154.58 1222.38,1143.59 1228.39,1036.01 1234.4,896.297 1240.41,835.931 1246.42,866.923 1252.44,756.096 1258.45,740.799 1264.46,662.81 1270.47,481.249 1276.48,452.324 1282.5,396.553 1288.51,481.159 1294.52,466.776 1300.53,473.786 1306.54,421.085 1312.56,359.106 1318.57,354.107 1324.58,432.355 1330.59,519.237 1336.6,599.772 1342.62,604.658 1348.63,638.578 1354.64,598.708 1360.65,526.596 1366.66,600.584 1372.68,644.788 1378.69,579.873 1384.7,527.845 1390.71,538.7 1396.72,496.775 1402.74,573.804 1408.75,523.203 1414.76,577.748 1420.77,536.065 1426.78,591.489 1432.8,595.847 1438.81,608.046 1444.82,629.18 1450.83,604.184 1456.84,598.6 1462.86,774.275 1468.87,844.452 1474.88,859.441 1480.89,838.33 1486.9,769.612 1492.92,782.802 1498.93,754.109 1504.94,788.017 1510.95,841.115 1516.96,815.245 1522.98,820.425 1528.99,864.394 1535,935.355 1541.01,1010.59 1547.02,1021.35 1553.04,1063.31 1559.05,1071.85 1565.06,1046.87 1571.07,1047.24 1577.08,1024.62 1583.1,1096.77 1589.11,993.23 1595.12,1020.58 1601.13,980.283 1607.15,925.086 1613.16,1004.03 1619.17,1024.54 1625.18,1091.32 1631.19,1134 1637.21,1081.15 1643.22,1160.62 1649.23,1113.43 1655.24,1086.25 1661.25,1153.74 1667.27,1125.81 1673.28,1184.1 1679.29,1158.01 1685.3,1232.67 1691.31,1196.51 1697.33,1101.97 1703.34,1058.96 1709.35,1148.54 1715.36,1118.43 1721.37,1114.04 1727.39,1111.27 1733.4,1140.31 1739.41,1150.3 1745.42,1187.2 1751.43,1236.16 1757.45,1252.25 1763.46,1321.81 1769.47,1362.05 1775.48,1377.18 1781.49,1267.94 1787.51,1332.23 1793.52,1320.97 1799.53,1257.84 1805.54,1240.42 1811.55,1232.9 1817.57,1232.36 1823.58,1066.28 1829.59,1130.68 1835.6,1125.63 1841.61,1012.64 1847.63,1096 1853.64,1080.94 1859.65,971.612 1865.66,950.381 1871.67,876.053 1877.69,998.485 1883.7,1065.4 1889.71,962.727 1895.72,977.201 1901.73,1017.41 1907.75,1019.49 1913.76,971.89 1919.77,942.076 1925.78,912.458 1931.79,909.131 1937.81,850.632 1943.82,843.358 1949.83,804.783 1955.84,807.734 1961.85,767.278 1967.87,773.618 1973.88,709.136 1979.89,715.755 1985.9,663.548 1991.91,618.538 1997.93,591.267 2003.94,465.204 2009.95,387.074 2015.96,403.755 2021.97,337.585 2027.99,341.898 2034,328.879 2040.01,424.611 2046.02,418.636 2052.03,506.709 2058.05,591.244 2064.06,499.693 2070.07,389.861 2076.08,463.21 2082.09,492.177 2088.11,468.725 2094.12,442.427 2100.13,431.777 2106.14,451.292 2112.15,391.789 2118.17,454.024 2124.18,521.814 2130.19,462.2 2136.2,611.566 2142.21,589.791 2148.23,530.235 2154.24,486.571 2160.25,426.277 2166.26,442.14 2172.28,524.493 2178.29,508.912 2184.3,458.295 2190.31,510.832 2196.32,580.326 2202.34,710.277 2208.35,731.685 2214.36,628.646 2220.37,626.812 2226.38,733.437 2232.4,730.158 2238.41,816.089 2244.42,899.08 2250.43,962.304 2256.44,988.661 2262.46,963.338 2268.47,965.743 2274.48,1013.89 2280.49,1019.52 2286.5,964.627 2292.52,987.829 "/>
<path clip-path="url(#clip990)" d="M295.21 1377.32 L531.322 1377.32 L531.322 1221.8 L295.21 1221.8  Z" fill="#ffffff" fill-rule="evenodd" fill-opacity="1"/>
<polyline clip-path="url(#clip990)" style="stroke:#000000; stroke-linecap:round; stroke-linejoin:round; stroke-width:4; stroke-opacity:1; fill:none" points="295.21,1377.32 531.322,1377.32 531.322,1221.8 295.21,1221.8 295.21,1377.32 "/>
<polyline clip-path="url(#clip990)" style="stroke:#009af9; stroke-linecap:round; stroke-linejoin:round; stroke-width:4; stroke-opacity:1; fill:none" points="318.86,1273.64 460.759,1273.64 "/>
<path clip-path="url(#clip990)" d="M506.544 1259.89 Q506.544 1260.22 506.333 1260.99 L501.742 1279.31 Q500.735 1283.38 497.456 1286.24 Q494.2 1289.1 490.499 1289.1 Q488.274 1289.1 486.845 1287.9 Q485.417 1286.73 485.417 1284.93 Q485.417 1283.34 486.26 1282.56 Q487.103 1281.81 488.11 1281.81 Q488.438 1281.81 488.789 1281.91 Q489.141 1282 489.516 1282.4 Q489.89 1282.8 489.89 1283.48 Q489.89 1284.58 488.93 1285.44 Q488.462 1285.84 488.016 1285.94 Q487.595 1286.03 486.869 1286.03 Q487.15 1286.69 487.665 1287.13 Q488.18 1287.58 488.766 1287.74 Q489.352 1287.93 489.726 1287.97 Q490.124 1288.04 490.499 1288.04 Q493.497 1288.04 495.793 1285.02 Q496.472 1284.11 496.964 1283.2 Q497.479 1282.31 497.854 1281.2 Q498.229 1280.13 498.393 1279.54 Q498.58 1278.96 498.908 1277.62 Q496.73 1279.8 494.059 1279.8 Q492.935 1279.8 491.928 1279.49 Q490.944 1279.19 490.078 1278.56 Q489.211 1277.9 488.696 1276.75 Q488.204 1275.61 488.204 1274.08 Q488.204 1272.47 488.836 1270.27 Q489.469 1268.06 490.991 1264.01 Q491.811 1261.74 491.811 1260.64 Q491.811 1260.1 491.694 1259.77 Q491.577 1259.42 491.342 1259.3 Q491.108 1259.16 490.968 1259.14 Q490.851 1259.12 490.616 1259.12 Q489.234 1259.12 487.946 1260.52 Q486.658 1261.93 485.768 1265.07 Q485.581 1265.65 485.463 1265.79 Q485.346 1265.93 484.995 1265.93 Q484.409 1265.91 484.409 1265.44 Q484.409 1265.25 484.62 1264.53 Q484.831 1263.78 485.323 1262.68 Q485.838 1261.55 486.541 1260.55 Q487.244 1259.52 488.344 1258.79 Q489.469 1258.06 490.757 1258.06 Q492.514 1258.06 493.591 1259.21 Q494.692 1260.33 494.692 1262 Q494.692 1262.68 494.504 1263.29 Q494.341 1263.87 493.732 1265.44 Q491.272 1271.77 491.272 1274.86 Q491.272 1275.61 491.389 1276.24 Q491.53 1276.85 491.834 1277.46 Q492.139 1278.04 492.748 1278.39 Q493.38 1278.72 494.247 1278.72 Q495.348 1278.72 496.378 1278.21 Q497.432 1277.67 498.088 1276.94 Q498.767 1276.22 499.166 1275.61 Q499.587 1274.97 499.681 1274.65 L501.836 1266.03 L502.796 1262.19 Q503.241 1260.1 503.452 1259.59 Q503.733 1259.09 504.225 1258.84 Q504.717 1258.58 505.138 1258.58 Q505.724 1258.58 506.122 1258.93 Q506.544 1259.28 506.544 1259.89 Z" fill="#000000" fill-rule="nonzero" fill-opacity="1" /><polyline clip-path="url(#clip990)" style="stroke:#e26f46; stroke-linecap:round; stroke-linejoin:round; stroke-width:4; stroke-opacity:1; fill:none" points="318.86,1325.48 460.759,1325.48 "/>
<path clip-path="url(#clip990)" d="M505.466 1317.85 Q505.466 1318.46 505.302 1319.66 Q505.138 1320.85 504.74 1322.59 Q504.342 1324.32 503.756 1326.15 Q503.194 1327.97 502.304 1329.8 Q501.414 1331.6 500.36 1333.03 Q499.306 1334.46 497.83 1335.35 Q496.355 1336.24 494.692 1336.24 Q493.919 1336.24 493.169 1336.12 Q492.42 1336.01 491.483 1335.63 Q490.546 1335.26 489.867 1334.65 Q489.188 1334.02 488.719 1332.89 Q488.251 1331.77 488.251 1330.29 Q488.251 1328.77 488.813 1326.73 Q489.398 1324.67 490.991 1320.45 Q491.811 1318.28 491.811 1317.08 Q491.811 1316.54 491.694 1316.21 Q491.577 1315.86 491.342 1315.75 Q491.108 1315.61 490.968 1315.58 Q490.851 1315.56 490.616 1315.56 Q489.328 1315.56 488.016 1316.89 Q486.705 1318.23 485.768 1321.51 Q485.581 1322.09 485.463 1322.23 Q485.346 1322.37 484.995 1322.37 Q484.409 1322.35 484.409 1321.88 Q484.409 1321.74 484.573 1321.2 Q484.737 1320.64 485.042 1319.8 Q485.346 1318.93 485.885 1318.04 Q486.424 1317.13 487.08 1316.33 Q487.759 1315.54 488.719 1315.02 Q489.679 1314.5 490.757 1314.5 Q492.514 1314.5 493.591 1315.65 Q494.692 1316.78 494.692 1318.44 Q494.692 1319.35 494.106 1320.83 Q493.123 1323.5 492.678 1324.79 Q492.233 1326.08 491.764 1327.9 Q491.319 1329.73 491.319 1330.99 Q491.319 1332.91 492.209 1334.04 Q493.099 1335.16 494.879 1335.16 Q496.472 1335.16 497.901 1334.02 Q499.353 1332.84 500.313 1331.18 Q501.274 1329.49 502 1327.62 Q502.726 1325.72 503.054 1324.3 Q503.405 1322.84 503.405 1322.16 Q503.405 1319.8 501.789 1318.25 Q501.344 1317.81 501.18 1317.53 Q501.016 1317.24 501.016 1316.8 Q501.016 1315.98 501.742 1315.25 Q502.492 1314.5 503.358 1314.5 Q504.155 1314.5 504.81 1315.3 Q505.466 1316.1 505.466 1317.85 Z" fill="#000000" fill-rule="nonzero" fill-opacity="1" /></svg>
