<?xml version="1.0" encoding="utf-8"?>
<svg xmlns="http://www.w3.org/2000/svg" xmlns:xlink="http://www.w3.org/1999/xlink" width="600" height="400" viewBox="0 0 2400 1600">
<defs>
  <clipPath id="clip680">
    <rect x="0" y="0" width="2400" height="1600"/>
  </clipPath>
</defs>
<path clip-path="url(#clip680)" d="M0 1600 L2400 1600 L2400 0 L0 0  Z" fill="#ffffff" fill-rule="evenodd" fill-opacity="1"/>
<defs>
  <clipPath id="clip681">
    <rect x="480" y="0" width="1681" height="1600"/>
  </clipPath>
</defs>
<path clip-path="url(#clip680)" d="M224.26 1423.18 L2352.76 1423.18 L2352.76 47.2441 L224.26 47.2441  Z" fill="#ffffff" fill-rule="evenodd" fill-opacity="1"/>
<defs>
  <clipPath id="clip682">
    <rect x="224" y="47" width="2129" height="1377"/>
  </clipPath>
</defs>
<polyline clip-path="url(#clip682)" style="stroke:#000000; stroke-linecap:round; stroke-linejoin:round; stroke-width:2; stroke-opacity:0.1; fill:none" points="284.5,1423.18 284.5,47.2441 "/>
<polyline clip-path="url(#clip682)" style="stroke:#000000; stroke-linecap:round; stroke-linejoin:round; stroke-width:2; stroke-opacity:0.1; fill:none" points="685.302,1423.18 685.302,47.2441 "/>
<polyline clip-path="url(#clip682)" style="stroke:#000000; stroke-linecap:round; stroke-linejoin:round; stroke-width:2; stroke-opacity:0.1; fill:none" points="1086.1,1423.18 1086.1,47.2441 "/>
<polyline clip-path="url(#clip682)" style="stroke:#000000; stroke-linecap:round; stroke-linejoin:round; stroke-width:2; stroke-opacity:0.1; fill:none" points="1486.9,1423.18 1486.9,47.2441 "/>
<polyline clip-path="url(#clip682)" style="stroke:#000000; stroke-linecap:round; stroke-linejoin:round; stroke-width:2; stroke-opacity:0.1; fill:none" points="1887.71,1423.18 1887.71,47.2441 "/>
<polyline clip-path="url(#clip682)" style="stroke:#000000; stroke-linecap:round; stroke-linejoin:round; stroke-width:2; stroke-opacity:0.1; fill:none" points="2288.51,1423.18 2288.51,47.2441 "/>
<polyline clip-path="url(#clip682)" style="stroke:#000000; stroke-linecap:round; stroke-linejoin:round; stroke-width:2; stroke-opacity:0.1; fill:none" points="224.26,1284.18 2352.76,1284.18 "/>
<polyline clip-path="url(#clip682)" style="stroke:#000000; stroke-linecap:round; stroke-linejoin:round; stroke-width:2; stroke-opacity:0.1; fill:none" points="224.26,1036.05 2352.76,1036.05 "/>
<polyline clip-path="url(#clip682)" style="stroke:#000000; stroke-linecap:round; stroke-linejoin:round; stroke-width:2; stroke-opacity:0.1; fill:none" points="224.26,787.929 2352.76,787.929 "/>
<polyline clip-path="url(#clip682)" style="stroke:#000000; stroke-linecap:round; stroke-linejoin:round; stroke-width:2; stroke-opacity:0.1; fill:none" points="224.26,539.804 2352.76,539.804 "/>
<polyline clip-path="url(#clip682)" style="stroke:#000000; stroke-linecap:round; stroke-linejoin:round; stroke-width:2; stroke-opacity:0.1; fill:none" points="224.26,291.679 2352.76,291.679 "/>
<polyline clip-path="url(#clip680)" style="stroke:#000000; stroke-linecap:round; stroke-linejoin:round; stroke-width:4; stroke-opacity:1; fill:none" points="224.26,1423.18 2352.76,1423.18 "/>
<polyline clip-path="url(#clip680)" style="stroke:#000000; stroke-linecap:round; stroke-linejoin:round; stroke-width:4; stroke-opacity:1; fill:none" points="284.5,1423.18 284.5,1404.28 "/>
<polyline clip-path="url(#clip680)" style="stroke:#000000; stroke-linecap:round; stroke-linejoin:round; stroke-width:4; stroke-opacity:1; fill:none" points="685.302,1423.18 685.302,1404.28 "/>
<polyline clip-path="url(#clip680)" style="stroke:#000000; stroke-linecap:round; stroke-linejoin:round; stroke-width:4; stroke-opacity:1; fill:none" points="1086.1,1423.18 1086.1,1404.28 "/>
<polyline clip-path="url(#clip680)" style="stroke:#000000; stroke-linecap:round; stroke-linejoin:round; stroke-width:4; stroke-opacity:1; fill:none" points="1486.9,1423.18 1486.9,1404.28 "/>
<polyline clip-path="url(#clip680)" style="stroke:#000000; stroke-linecap:round; stroke-linejoin:round; stroke-width:4; stroke-opacity:1; fill:none" points="1887.71,1423.18 1887.71,1404.28 "/>
<polyline clip-path="url(#clip680)" style="stroke:#000000; stroke-linecap:round; stroke-linejoin:round; stroke-width:4; stroke-opacity:1; fill:none" points="2288.51,1423.18 2288.51,1404.28 "/>
<path clip-path="url(#clip680)" d="M261.885 1454.1 Q258.274 1454.1 256.445 1457.66 Q254.639 1461.2 254.639 1468.33 Q254.639 1475.44 256.445 1479.01 Q258.274 1482.55 261.885 1482.55 Q265.519 1482.55 267.325 1479.01 Q269.153 1475.44 269.153 1468.33 Q269.153 1461.2 267.325 1457.66 Q265.519 1454.1 261.885 1454.1 M261.885 1450.39 Q267.695 1450.39 270.75 1455 Q273.829 1459.58 273.829 1468.33 Q273.829 1477.06 270.75 1481.67 Q267.695 1486.25 261.885 1486.25 Q256.075 1486.25 252.996 1481.67 Q249.94 1477.06 249.94 1468.33 Q249.94 1459.58 252.996 1455 Q256.075 1450.39 261.885 1450.39 Z" fill="#000000" fill-rule="nonzero" fill-opacity="1" /><path clip-path="url(#clip680)" d="M282.047 1479.7 L286.931 1479.7 L286.931 1485.58 L282.047 1485.58 L282.047 1479.7 Z" fill="#000000" fill-rule="nonzero" fill-opacity="1" /><path clip-path="url(#clip680)" d="M307.116 1454.1 Q303.505 1454.1 301.676 1457.66 Q299.871 1461.2 299.871 1468.33 Q299.871 1475.44 301.676 1479.01 Q303.505 1482.55 307.116 1482.55 Q310.75 1482.55 312.556 1479.01 Q314.384 1475.44 314.384 1468.33 Q314.384 1461.2 312.556 1457.66 Q310.75 1454.1 307.116 1454.1 M307.116 1450.39 Q312.926 1450.39 315.982 1455 Q319.06 1459.58 319.06 1468.33 Q319.06 1477.06 315.982 1481.67 Q312.926 1486.25 307.116 1486.25 Q301.306 1486.25 298.227 1481.67 Q295.172 1477.06 295.172 1468.33 Q295.172 1459.58 298.227 1455 Q301.306 1450.39 307.116 1450.39 Z" fill="#000000" fill-rule="nonzero" fill-opacity="1" /><path clip-path="url(#clip680)" d="M663.184 1454.1 Q659.573 1454.1 657.744 1457.66 Q655.939 1461.2 655.939 1468.33 Q655.939 1475.44 657.744 1479.01 Q659.573 1482.55 663.184 1482.55 Q666.818 1482.55 668.624 1479.01 Q670.452 1475.44 670.452 1468.33 Q670.452 1461.2 668.624 1457.66 Q666.818 1454.1 663.184 1454.1 M663.184 1450.39 Q668.994 1450.39 672.05 1455 Q675.128 1459.58 675.128 1468.33 Q675.128 1477.06 672.05 1481.67 Q668.994 1486.25 663.184 1486.25 Q657.374 1486.25 654.295 1481.67 Q651.239 1477.06 651.239 1468.33 Q651.239 1459.58 654.295 1455 Q657.374 1450.39 663.184 1450.39 Z" fill="#000000" fill-rule="nonzero" fill-opacity="1" /><path clip-path="url(#clip680)" d="M683.346 1479.7 L688.23 1479.7 L688.23 1485.58 L683.346 1485.58 L683.346 1479.7 Z" fill="#000000" fill-rule="nonzero" fill-opacity="1" /><path clip-path="url(#clip680)" d="M698.461 1451.02 L716.818 1451.02 L716.818 1454.96 L702.744 1454.96 L702.744 1463.43 Q703.762 1463.08 704.781 1462.92 Q705.799 1462.73 706.818 1462.73 Q712.605 1462.73 715.984 1465.9 Q719.364 1469.08 719.364 1474.49 Q719.364 1480.07 715.892 1483.17 Q712.42 1486.25 706.1 1486.25 Q703.924 1486.25 701.656 1485.88 Q699.41 1485.51 697.003 1484.77 L697.003 1480.07 Q699.086 1481.2 701.309 1481.76 Q703.531 1482.32 706.008 1482.32 Q710.012 1482.32 712.35 1480.21 Q714.688 1478.1 714.688 1474.49 Q714.688 1470.88 712.35 1468.77 Q710.012 1466.67 706.008 1466.67 Q704.133 1466.67 702.258 1467.08 Q700.406 1467.5 698.461 1468.38 L698.461 1451.02 Z" fill="#000000" fill-rule="nonzero" fill-opacity="1" /><path clip-path="url(#clip680)" d="M1053.26 1481.64 L1060.89 1481.64 L1060.89 1455.28 L1052.58 1456.95 L1052.58 1452.69 L1060.85 1451.02 L1065.52 1451.02 L1065.52 1481.64 L1073.16 1481.64 L1073.16 1485.58 L1053.26 1485.58 L1053.26 1481.64 Z" fill="#000000" fill-rule="nonzero" fill-opacity="1" /><path clip-path="url(#clip680)" d="M1082.61 1479.7 L1087.49 1479.7 L1087.49 1485.58 L1082.61 1485.58 L1082.61 1479.7 Z" fill="#000000" fill-rule="nonzero" fill-opacity="1" /><path clip-path="url(#clip680)" d="M1107.68 1454.1 Q1104.07 1454.1 1102.24 1457.66 Q1100.43 1461.2 1100.43 1468.33 Q1100.43 1475.44 1102.24 1479.01 Q1104.07 1482.55 1107.68 1482.55 Q1111.31 1482.55 1113.12 1479.01 Q1114.95 1475.44 1114.95 1468.33 Q1114.95 1461.2 1113.12 1457.66 Q1111.31 1454.1 1107.68 1454.1 M1107.68 1450.39 Q1113.49 1450.39 1116.54 1455 Q1119.62 1459.58 1119.62 1468.33 Q1119.62 1477.06 1116.54 1481.67 Q1113.49 1486.25 1107.68 1486.25 Q1101.87 1486.25 1098.79 1481.67 Q1095.73 1477.06 1095.73 1468.33 Q1095.73 1459.58 1098.79 1455 Q1101.87 1450.39 1107.68 1450.39 Z" fill="#000000" fill-rule="nonzero" fill-opacity="1" /><path clip-path="url(#clip680)" d="M1454.56 1481.64 L1462.19 1481.64 L1462.19 1455.28 L1453.88 1456.95 L1453.88 1452.69 L1462.15 1451.02 L1466.82 1451.02 L1466.82 1481.64 L1474.46 1481.64 L1474.46 1485.58 L1454.56 1485.58 L1454.56 1481.64 Z" fill="#000000" fill-rule="nonzero" fill-opacity="1" /><path clip-path="url(#clip680)" d="M1483.91 1479.7 L1488.79 1479.7 L1488.79 1485.58 L1483.91 1485.58 L1483.91 1479.7 Z" fill="#000000" fill-rule="nonzero" fill-opacity="1" /><path clip-path="url(#clip680)" d="M1499.02 1451.02 L1517.38 1451.02 L1517.38 1454.96 L1503.3 1454.96 L1503.3 1463.43 Q1504.32 1463.08 1505.34 1462.92 Q1506.36 1462.73 1507.38 1462.73 Q1513.17 1462.73 1516.55 1465.9 Q1519.93 1469.08 1519.93 1474.49 Q1519.93 1480.07 1516.45 1483.17 Q1512.98 1486.25 1506.66 1486.25 Q1504.49 1486.25 1502.22 1485.88 Q1499.97 1485.51 1497.56 1484.77 L1497.56 1480.07 Q1499.65 1481.2 1501.87 1481.76 Q1504.09 1482.32 1506.57 1482.32 Q1510.57 1482.32 1512.91 1480.21 Q1515.25 1478.1 1515.25 1474.49 Q1515.25 1470.88 1512.91 1468.77 Q1510.57 1466.67 1506.57 1466.67 Q1504.69 1466.67 1502.82 1467.08 Q1500.97 1467.5 1499.02 1468.38 L1499.02 1451.02 Z" fill="#000000" fill-rule="nonzero" fill-opacity="1" /><path clip-path="url(#clip680)" d="M1858.94 1481.64 L1875.26 1481.64 L1875.26 1485.58 L1853.32 1485.58 L1853.32 1481.64 Q1855.98 1478.89 1860.56 1474.26 Q1865.17 1469.61 1866.35 1468.27 Q1868.6 1465.74 1869.48 1464.01 Q1870.38 1462.25 1870.38 1460.56 Q1870.38 1457.8 1868.44 1456.07 Q1866.51 1454.33 1863.41 1454.33 Q1861.21 1454.33 1858.76 1455.09 Q1856.33 1455.86 1853.55 1457.41 L1853.55 1452.69 Q1856.38 1451.55 1858.83 1450.97 Q1861.28 1450.39 1863.32 1450.39 Q1868.69 1450.39 1871.88 1453.08 Q1875.08 1455.77 1875.08 1460.26 Q1875.08 1462.39 1874.27 1464.31 Q1873.48 1466.2 1871.38 1468.8 Q1870.8 1469.47 1867.69 1472.69 Q1864.59 1475.88 1858.94 1481.64 Z" fill="#000000" fill-rule="nonzero" fill-opacity="1" /><path clip-path="url(#clip680)" d="M1885.08 1479.7 L1889.96 1479.7 L1889.96 1485.58 L1885.08 1485.58 L1885.08 1479.7 Z" fill="#000000" fill-rule="nonzero" fill-opacity="1" /><path clip-path="url(#clip680)" d="M1910.15 1454.1 Q1906.54 1454.1 1904.71 1457.66 Q1902.9 1461.2 1902.9 1468.33 Q1902.9 1475.44 1904.71 1479.01 Q1906.54 1482.55 1910.15 1482.55 Q1913.78 1482.55 1915.59 1479.01 Q1917.42 1475.44 1917.42 1468.33 Q1917.42 1461.2 1915.59 1457.66 Q1913.78 1454.1 1910.15 1454.1 M1910.15 1450.39 Q1915.96 1450.39 1919.01 1455 Q1922.09 1459.58 1922.09 1468.33 Q1922.09 1477.06 1919.01 1481.67 Q1915.96 1486.25 1910.15 1486.25 Q1904.34 1486.25 1901.26 1481.67 Q1898.2 1477.06 1898.2 1468.33 Q1898.2 1459.58 1901.26 1455 Q1904.34 1450.39 1910.15 1450.39 Z" fill="#000000" fill-rule="nonzero" fill-opacity="1" /><path clip-path="url(#clip680)" d="M2260.24 1481.64 L2276.56 1481.64 L2276.56 1485.58 L2254.62 1485.58 L2254.62 1481.64 Q2257.28 1478.89 2261.86 1474.26 Q2266.47 1469.61 2267.65 1468.27 Q2269.9 1465.74 2270.78 1464.01 Q2271.68 1462.25 2271.68 1460.56 Q2271.68 1457.8 2269.73 1456.07 Q2267.81 1454.33 2264.71 1454.33 Q2262.51 1454.33 2260.06 1455.09 Q2257.63 1455.86 2254.85 1457.41 L2254.85 1452.69 Q2257.67 1451.55 2260.13 1450.97 Q2262.58 1450.39 2264.62 1450.39 Q2269.99 1450.39 2273.18 1453.08 Q2276.38 1455.77 2276.38 1460.26 Q2276.38 1462.39 2275.57 1464.31 Q2274.78 1466.2 2272.67 1468.8 Q2272.1 1469.47 2268.99 1472.69 Q2265.89 1475.88 2260.24 1481.64 Z" fill="#000000" fill-rule="nonzero" fill-opacity="1" /><path clip-path="url(#clip680)" d="M2286.38 1479.7 L2291.26 1479.7 L2291.26 1485.58 L2286.38 1485.58 L2286.38 1479.7 Z" fill="#000000" fill-rule="nonzero" fill-opacity="1" /><path clip-path="url(#clip680)" d="M2301.49 1451.02 L2319.85 1451.02 L2319.85 1454.96 L2305.78 1454.96 L2305.78 1463.43 Q2306.79 1463.08 2307.81 1462.92 Q2308.83 1462.73 2309.85 1462.73 Q2315.64 1462.73 2319.02 1465.9 Q2322.4 1469.08 2322.4 1474.49 Q2322.4 1480.07 2318.92 1483.17 Q2315.45 1486.25 2309.13 1486.25 Q2306.96 1486.25 2304.69 1485.88 Q2302.44 1485.51 2300.04 1484.77 L2300.04 1480.07 Q2302.12 1481.2 2304.34 1481.76 Q2306.56 1482.32 2309.04 1482.32 Q2313.04 1482.32 2315.38 1480.21 Q2317.72 1478.1 2317.72 1474.49 Q2317.72 1470.88 2315.38 1468.77 Q2313.04 1466.67 2309.04 1466.67 Q2307.16 1466.67 2305.29 1467.08 Q2303.44 1467.5 2301.49 1468.38 L2301.49 1451.02 Z" fill="#000000" fill-rule="nonzero" fill-opacity="1" /><path clip-path="url(#clip680)" d="M1296.98 1531.91 Q1296.98 1532.81 1296.56 1533.04 Q1296.14 1533.23 1294.98 1533.23 L1288.8 1533.23 L1283.9 1552.69 Q1283.52 1554.39 1283.52 1555.84 Q1283.52 1557.45 1284 1558.16 Q1284.52 1558.87 1285.58 1558.87 Q1287.67 1558.87 1289.93 1556.97 Q1292.21 1555.07 1294.14 1550.43 Q1294.4 1549.82 1294.53 1549.69 Q1294.69 1549.53 1295.11 1549.53 Q1295.92 1549.53 1295.92 1550.17 Q1295.92 1550.4 1295.47 1551.43 Q1295.05 1552.46 1294.11 1553.97 Q1293.21 1555.49 1292.02 1556.9 Q1290.86 1558.32 1289.09 1559.35 Q1287.32 1560.35 1285.42 1560.35 Q1282.74 1560.35 1281.04 1558.64 Q1279.36 1556.94 1279.36 1554.26 Q1279.36 1553.39 1280.04 1550.62 Q1280.71 1547.82 1284.39 1533.23 L1278.56 1533.23 Q1277.75 1533.23 1277.43 1533.2 Q1277.14 1533.17 1276.91 1533.01 Q1276.72 1532.81 1276.72 1532.43 Q1276.72 1531.82 1276.98 1531.56 Q1277.24 1531.27 1277.56 1531.24 Q1277.91 1531.17 1278.72 1531.17 L1284.9 1531.17 L1287.48 1520.71 Q1287.74 1519.67 1288.38 1519.09 Q1289.06 1518.48 1289.44 1518.42 Q1289.83 1518.32 1290.12 1518.32 Q1290.99 1518.32 1291.5 1518.81 Q1292.02 1519.26 1292.02 1520.09 Q1292.02 1520.54 1289.31 1531.17 L1295.11 1531.17 Q1295.85 1531.17 1296.14 1531.2 Q1296.46 1531.24 1296.72 1531.4 Q1296.98 1531.56 1296.98 1531.91 Z" fill="#000000" fill-rule="nonzero" fill-opacity="1" /><polyline clip-path="url(#clip680)" style="stroke:#000000; stroke-linecap:round; stroke-linejoin:round; stroke-width:4; stroke-opacity:1; fill:none" points="224.26,1423.18 224.26,47.2441 "/>
<polyline clip-path="url(#clip680)" style="stroke:#000000; stroke-linecap:round; stroke-linejoin:round; stroke-width:4; stroke-opacity:1; fill:none" points="224.26,1284.18 243.158,1284.18 "/>
<polyline clip-path="url(#clip680)" style="stroke:#000000; stroke-linecap:round; stroke-linejoin:round; stroke-width:4; stroke-opacity:1; fill:none" points="224.26,1036.05 243.158,1036.05 "/>
<polyline clip-path="url(#clip680)" style="stroke:#000000; stroke-linecap:round; stroke-linejoin:round; stroke-width:4; stroke-opacity:1; fill:none" points="224.26,787.929 243.158,787.929 "/>
<polyline clip-path="url(#clip680)" style="stroke:#000000; stroke-linecap:round; stroke-linejoin:round; stroke-width:4; stroke-opacity:1; fill:none" points="224.26,539.804 243.158,539.804 "/>
<polyline clip-path="url(#clip680)" style="stroke:#000000; stroke-linecap:round; stroke-linejoin:round; stroke-width:4; stroke-opacity:1; fill:none" points="224.26,291.679 243.158,291.679 "/>
<path clip-path="url(#clip680)" d="M52.7514 1284.63 L82.4271 1284.63 L82.4271 1288.57 L52.7514 1288.57 L52.7514 1284.63 Z" fill="#000000" fill-rule="nonzero" fill-opacity="1" /><path clip-path="url(#clip680)" d="M102.52 1269.98 Q98.9085 1269.98 97.0798 1273.54 Q95.2743 1277.08 95.2743 1284.21 Q95.2743 1291.32 97.0798 1294.89 Q98.9085 1298.43 102.52 1298.43 Q106.154 1298.43 107.959 1294.89 Q109.788 1291.32 109.788 1284.21 Q109.788 1277.08 107.959 1273.54 Q106.154 1269.98 102.52 1269.98 M102.52 1266.27 Q108.33 1266.27 111.385 1270.88 Q114.464 1275.46 114.464 1284.21 Q114.464 1292.94 111.385 1297.55 Q108.33 1302.13 102.52 1302.13 Q96.7095 1302.13 93.6308 1297.55 Q90.5752 1292.94 90.5752 1284.21 Q90.5752 1275.46 93.6308 1270.88 Q96.7095 1266.27 102.52 1266.27 Z" fill="#000000" fill-rule="nonzero" fill-opacity="1" /><path clip-path="url(#clip680)" d="M122.682 1295.58 L127.566 1295.58 L127.566 1301.46 L122.682 1301.46 L122.682 1295.58 Z" fill="#000000" fill-rule="nonzero" fill-opacity="1" /><path clip-path="url(#clip680)" d="M138.561 1297.52 L146.2 1297.52 L146.2 1271.16 L137.89 1272.83 L137.89 1268.57 L146.154 1266.9 L150.83 1266.9 L150.83 1297.52 L158.468 1297.52 L158.468 1301.46 L138.561 1301.46 L138.561 1297.52 Z" fill="#000000" fill-rule="nonzero" fill-opacity="1" /><path clip-path="url(#clip680)" d="M171.941 1297.52 L188.26 1297.52 L188.26 1301.46 L166.316 1301.46 L166.316 1297.52 Q168.978 1294.77 173.561 1290.14 Q178.167 1285.49 179.348 1284.14 Q181.593 1281.62 182.473 1279.89 Q183.376 1278.13 183.376 1276.44 Q183.376 1273.68 181.431 1271.95 Q179.51 1270.21 176.408 1270.21 Q174.209 1270.21 171.755 1270.97 Q169.325 1271.74 166.547 1273.29 L166.547 1268.57 Q169.371 1267.43 171.825 1266.85 Q174.279 1266.27 176.316 1266.27 Q181.686 1266.27 184.88 1268.96 Q188.075 1271.64 188.075 1276.14 Q188.075 1278.27 187.265 1280.19 Q186.478 1282.08 184.371 1284.68 Q183.792 1285.35 180.691 1288.57 Q177.589 1291.76 171.941 1297.52 Z" fill="#000000" fill-rule="nonzero" fill-opacity="1" /><path clip-path="url(#clip680)" d="M51.3393 1036.51 L81.0151 1036.51 L81.0151 1040.44 L51.3393 1040.44 L51.3393 1036.51 Z" fill="#000000" fill-rule="nonzero" fill-opacity="1" /><path clip-path="url(#clip680)" d="M101.108 1021.85 Q97.4965 1021.85 95.6678 1025.42 Q93.8623 1028.96 93.8623 1036.09 Q93.8623 1043.2 95.6678 1046.76 Q97.4965 1050.3 101.108 1050.3 Q104.742 1050.3 106.547 1046.76 Q108.376 1043.2 108.376 1036.09 Q108.376 1028.96 106.547 1025.42 Q104.742 1021.85 101.108 1021.85 M101.108 1018.15 Q106.918 1018.15 109.973 1022.76 Q113.052 1027.34 113.052 1036.09 Q113.052 1044.82 109.973 1049.42 Q106.918 1054.01 101.108 1054.01 Q95.2974 1054.01 92.2188 1049.42 Q89.1632 1044.82 89.1632 1036.09 Q89.1632 1027.34 92.2188 1022.76 Q95.2974 1018.15 101.108 1018.15 Z" fill="#000000" fill-rule="nonzero" fill-opacity="1" /><path clip-path="url(#clip680)" d="M121.27 1047.45 L126.154 1047.45 L126.154 1053.33 L121.27 1053.33 L121.27 1047.45 Z" fill="#000000" fill-rule="nonzero" fill-opacity="1" /><path clip-path="url(#clip680)" d="M146.339 1021.85 Q142.728 1021.85 140.899 1025.42 Q139.094 1028.96 139.094 1036.09 Q139.094 1043.2 140.899 1046.76 Q142.728 1050.3 146.339 1050.3 Q149.973 1050.3 151.779 1046.76 Q153.607 1043.2 153.607 1036.09 Q153.607 1028.96 151.779 1025.42 Q149.973 1021.85 146.339 1021.85 M146.339 1018.15 Q152.149 1018.15 155.205 1022.76 Q158.283 1027.34 158.283 1036.09 Q158.283 1044.82 155.205 1049.42 Q152.149 1054.01 146.339 1054.01 Q140.529 1054.01 137.45 1049.42 Q134.394 1044.82 134.394 1036.09 Q134.394 1027.34 137.45 1022.76 Q140.529 1018.15 146.339 1018.15 Z" fill="#000000" fill-rule="nonzero" fill-opacity="1" /><path clip-path="url(#clip680)" d="M166.64 1052.62 L166.64 1048.36 Q168.399 1049.19 170.204 1049.63 Q172.01 1050.07 173.746 1050.07 Q178.376 1050.07 180.806 1046.97 Q183.26 1043.84 183.607 1037.5 Q182.265 1039.49 180.204 1040.56 Q178.144 1041.62 175.644 1041.62 Q170.459 1041.62 167.427 1038.5 Q164.417 1035.35 164.417 1029.91 Q164.417 1024.58 167.566 1021.37 Q170.714 1018.15 175.945 1018.15 Q181.94 1018.15 185.089 1022.76 Q188.26 1027.34 188.26 1036.09 Q188.26 1044.26 184.371 1049.14 Q180.505 1054.01 173.954 1054.01 Q172.195 1054.01 170.39 1053.66 Q168.584 1053.31 166.64 1052.62 M175.945 1037.96 Q179.093 1037.96 180.922 1035.81 Q182.774 1033.66 182.774 1029.91 Q182.774 1026.18 180.922 1024.03 Q179.093 1021.85 175.945 1021.85 Q172.797 1021.85 170.945 1024.03 Q169.116 1026.18 169.116 1029.91 Q169.116 1033.66 170.945 1035.81 Q172.797 1037.96 175.945 1037.96 Z" fill="#000000" fill-rule="nonzero" fill-opacity="1" /><path clip-path="url(#clip680)" d="M50.9921 788.381 L80.6679 788.381 L80.6679 792.316 L50.9921 792.316 L50.9921 788.381 Z" fill="#000000" fill-rule="nonzero" fill-opacity="1" /><path clip-path="url(#clip680)" d="M100.76 773.728 Q97.1493 773.728 95.3206 777.293 Q93.515 780.835 93.515 787.964 Q93.515 795.071 95.3206 798.635 Q97.1493 802.177 100.76 802.177 Q104.395 802.177 106.2 798.635 Q108.029 795.071 108.029 787.964 Q108.029 780.835 106.2 777.293 Q104.395 773.728 100.76 773.728 M100.76 770.024 Q106.571 770.024 109.626 774.631 Q112.705 779.214 112.705 787.964 Q112.705 796.691 109.626 801.297 Q106.571 805.881 100.76 805.881 Q94.9502 805.881 91.8715 801.297 Q88.816 796.691 88.816 787.964 Q88.816 779.214 91.8715 774.631 Q94.9502 770.024 100.76 770.024 Z" fill="#000000" fill-rule="nonzero" fill-opacity="1" /><path clip-path="url(#clip680)" d="M120.922 799.33 L125.807 799.33 L125.807 805.209 L120.922 805.209 L120.922 799.33 Z" fill="#000000" fill-rule="nonzero" fill-opacity="1" /><path clip-path="url(#clip680)" d="M145.992 773.728 Q142.381 773.728 140.552 777.293 Q138.746 780.835 138.746 787.964 Q138.746 795.071 140.552 798.635 Q142.381 802.177 145.992 802.177 Q149.626 802.177 151.431 798.635 Q153.26 795.071 153.26 787.964 Q153.26 780.835 151.431 777.293 Q149.626 773.728 145.992 773.728 M145.992 770.024 Q151.802 770.024 154.857 774.631 Q157.936 779.214 157.936 787.964 Q157.936 796.691 154.857 801.297 Q151.802 805.881 145.992 805.881 Q140.181 805.881 137.103 801.297 Q134.047 796.691 134.047 787.964 Q134.047 779.214 137.103 774.631 Q140.181 770.024 145.992 770.024 Z" fill="#000000" fill-rule="nonzero" fill-opacity="1" /><path clip-path="url(#clip680)" d="M176.732 786.066 Q173.584 786.066 171.732 788.219 Q169.904 790.372 169.904 794.122 Q169.904 797.848 171.732 800.024 Q173.584 802.177 176.732 802.177 Q179.88 802.177 181.709 800.024 Q183.561 797.848 183.561 794.122 Q183.561 790.372 181.709 788.219 Q179.88 786.066 176.732 786.066 M186.015 771.413 L186.015 775.673 Q184.255 774.839 182.45 774.399 Q180.667 773.96 178.908 773.96 Q174.279 773.96 171.825 777.085 Q169.394 780.21 169.047 786.529 Q170.413 784.515 172.473 783.45 Q174.533 782.362 177.01 782.362 Q182.218 782.362 185.228 785.534 Q188.26 788.682 188.26 794.122 Q188.26 799.446 185.112 802.663 Q181.964 805.881 176.732 805.881 Q170.737 805.881 167.566 801.297 Q164.394 796.691 164.394 787.964 Q164.394 779.77 168.283 774.909 Q172.172 770.024 178.723 770.024 Q180.482 770.024 182.265 770.372 Q184.07 770.719 186.015 771.413 Z" fill="#000000" fill-rule="nonzero" fill-opacity="1" /><path clip-path="url(#clip680)" d="M51.8023 540.256 L81.4781 540.256 L81.4781 544.191 L51.8023 544.191 L51.8023 540.256 Z" fill="#000000" fill-rule="nonzero" fill-opacity="1" /><path clip-path="url(#clip680)" d="M101.571 525.603 Q97.9595 525.603 96.1308 529.168 Q94.3252 532.709 94.3252 539.839 Q94.3252 546.946 96.1308 550.51 Q97.9595 554.052 101.571 554.052 Q105.205 554.052 107.01 550.51 Q108.839 546.946 108.839 539.839 Q108.839 532.709 107.01 529.168 Q105.205 525.603 101.571 525.603 M101.571 521.899 Q107.381 521.899 110.436 526.506 Q113.515 531.089 113.515 539.839 Q113.515 548.566 110.436 553.172 Q107.381 557.756 101.571 557.756 Q95.7604 557.756 92.6817 553.172 Q89.6262 548.566 89.6262 539.839 Q89.6262 531.089 92.6817 526.506 Q95.7604 521.899 101.571 521.899 Z" fill="#000000" fill-rule="nonzero" fill-opacity="1" /><path clip-path="url(#clip680)" d="M121.732 551.205 L126.617 551.205 L126.617 557.084 L121.732 557.084 L121.732 551.205 Z" fill="#000000" fill-rule="nonzero" fill-opacity="1" /><path clip-path="url(#clip680)" d="M146.802 525.603 Q143.191 525.603 141.362 529.168 Q139.556 532.709 139.556 539.839 Q139.556 546.946 141.362 550.51 Q143.191 554.052 146.802 554.052 Q150.436 554.052 152.242 550.51 Q154.07 546.946 154.07 539.839 Q154.07 532.709 152.242 529.168 Q150.436 525.603 146.802 525.603 M146.802 521.899 Q152.612 521.899 155.667 526.506 Q158.746 531.089 158.746 539.839 Q158.746 548.566 155.667 553.172 Q152.612 557.756 146.802 557.756 Q140.992 557.756 137.913 553.172 Q134.857 548.566 134.857 539.839 Q134.857 531.089 137.913 526.506 Q140.992 521.899 146.802 521.899 Z" fill="#000000" fill-rule="nonzero" fill-opacity="1" /><path clip-path="url(#clip680)" d="M181.13 538.45 Q184.487 539.168 186.362 541.436 Q188.26 543.705 188.26 547.038 Q188.26 552.154 184.741 554.955 Q181.223 557.756 174.741 557.756 Q172.566 557.756 170.251 557.316 Q167.959 556.899 165.505 556.043 L165.505 551.529 Q167.45 552.663 169.765 553.242 Q172.079 553.82 174.603 553.82 Q179.001 553.82 181.292 552.084 Q183.607 550.348 183.607 547.038 Q183.607 543.983 181.454 542.27 Q179.325 540.533 175.505 540.533 L171.478 540.533 L171.478 536.691 L175.691 536.691 Q179.14 536.691 180.968 535.325 Q182.797 533.936 182.797 531.344 Q182.797 528.682 180.899 527.27 Q179.024 525.835 175.505 525.835 Q173.584 525.835 171.385 526.251 Q169.186 526.668 166.547 527.547 L166.547 523.381 Q169.209 522.64 171.524 522.27 Q173.862 521.899 175.922 521.899 Q181.246 521.899 184.348 524.33 Q187.45 526.737 187.45 530.858 Q187.45 533.728 185.806 535.719 Q184.163 537.686 181.13 538.45 Z" fill="#000000" fill-rule="nonzero" fill-opacity="1" /><path clip-path="url(#clip680)" d="M100.922 277.478 Q97.3113 277.478 95.4826 281.043 Q93.6771 284.584 93.6771 291.714 Q93.6771 298.82 95.4826 302.385 Q97.3113 305.927 100.922 305.927 Q104.557 305.927 106.362 302.385 Q108.191 298.82 108.191 291.714 Q108.191 284.584 106.362 281.043 Q104.557 277.478 100.922 277.478 M100.922 273.774 Q106.733 273.774 109.788 278.381 Q112.867 282.964 112.867 291.714 Q112.867 300.441 109.788 305.047 Q106.733 309.631 100.922 309.631 Q95.1123 309.631 92.0336 305.047 Q88.978 300.441 88.978 291.714 Q88.978 282.964 92.0336 278.381 Q95.1123 273.774 100.922 273.774 Z" fill="#000000" fill-rule="nonzero" fill-opacity="1" /><path clip-path="url(#clip680)" d="M121.084 303.08 L125.969 303.08 L125.969 308.959 L121.084 308.959 L121.084 303.08 Z" fill="#000000" fill-rule="nonzero" fill-opacity="1" /><path clip-path="url(#clip680)" d="M146.154 277.478 Q142.543 277.478 140.714 281.043 Q138.908 284.584 138.908 291.714 Q138.908 298.82 140.714 302.385 Q142.543 305.927 146.154 305.927 Q149.788 305.927 151.593 302.385 Q153.422 298.82 153.422 291.714 Q153.422 284.584 151.593 281.043 Q149.788 277.478 146.154 277.478 M146.154 273.774 Q151.964 273.774 155.019 278.381 Q158.098 282.964 158.098 291.714 Q158.098 300.441 155.019 305.047 Q151.964 309.631 146.154 309.631 Q140.343 309.631 137.265 305.047 Q134.209 300.441 134.209 291.714 Q134.209 282.964 137.265 278.381 Q140.343 273.774 146.154 273.774 Z" fill="#000000" fill-rule="nonzero" fill-opacity="1" /><path clip-path="url(#clip680)" d="M176.316 277.478 Q172.704 277.478 170.876 281.043 Q169.07 284.584 169.07 291.714 Q169.07 298.82 170.876 302.385 Q172.704 305.927 176.316 305.927 Q179.95 305.927 181.755 302.385 Q183.584 298.82 183.584 291.714 Q183.584 284.584 181.755 281.043 Q179.95 277.478 176.316 277.478 M176.316 273.774 Q182.126 273.774 185.181 278.381 Q188.26 282.964 188.26 291.714 Q188.26 300.441 185.181 305.047 Q182.126 309.631 176.316 309.631 Q170.505 309.631 167.427 305.047 Q164.371 300.441 164.371 291.714 Q164.371 282.964 167.427 278.381 Q170.505 273.774 176.316 273.774 Z" fill="#000000" fill-rule="nonzero" fill-opacity="1" /><polyline clip-path="url(#clip682)" style="stroke:#009af9; stroke-linecap:round; stroke-linejoin:round; stroke-width:4; stroke-opacity:1; fill:none" points="284.5,291.679 290.512,291.535 296.524,291.465 302.536,291.838 308.548,292.462 314.56,292.893 320.572,293.148 326.585,293.252 332.597,293.072 338.609,292.822 344.621,292.726 350.633,292.764 356.645,292.684 362.657,292.554 368.669,292.666 374.681,292.923 380.693,293.2 386.705,293.278 392.717,293.306 398.729,293.075 404.741,292.606 410.753,292.788 416.765,293.147 422.777,293.158 428.789,292.992 434.801,292.812 440.813,292.851 446.825,292.981 452.837,292.802 458.849,292.089 464.861,291.152 470.873,290.33 476.885,289.243 482.897,288.081 488.909,287.321 494.921,286.94 500.933,286.585 506.945,286.107 512.957,285.782 518.969,285.095 524.981,284.036 530.993,282.994 537.005,281.678 543.017,280.18 549.029,278.888 555.041,278.059 561.053,277.586 567.065,277.274 573.077,277.222 579.089,277.308 585.101,277.376 591.113,277.683 597.125,278.197 603.137,278.782 609.15,279.391 615.162,279.895 621.174,280.779 627.186,282.24 633.198,283.901 639.21,285.864 645.222,288.314 651.234,291.024 657.246,293.731 663.258,296.68 669.27,300.022 675.282,303.662 681.294,307.376 687.306,310.551 693.318,313.321 699.33,316.088 705.342,318.97 711.354,322.03 717.366,325.32 723.378,328.587 729.39,331.382 735.402,334.139 741.414,337.122 747.426,340.202 753.438,343.363 759.45,346.681 765.462,350.248 771.474,353.455 777.486,355.892 783.498,358.039 789.51,360.044 795.522,361.664 801.534,363.281 807.546,365.236 813.558,367.645 819.57,370.66 825.582,373.9 831.594,377.154 837.606,380.527 843.618,384.027 849.63,387.733 855.642,391.697 861.654,395.39 867.666,398.536 873.678,401.678 879.69,404.998 885.702,408.046 891.715,410.864 897.727,413.75 903.739,416.498 909.751,418.951 915.763,421.52 921.775,424.075 927.787,426.121 933.799,427.624 939.811,428.756 945.823,429.851 951.835,430.604 957.847,431.135 963.859,431.796 969.871,432.162 975.883,431.698 981.895,431.099 987.907,430.941 993.919,431.128 999.931,431.94 1005.94,433.096 1011.95,434.442 1017.97,436.322 1023.98,438.584 1029.99,440.946 1036,443.341 1042.02,446.389 1048.03,449.905 1054.04,452.843 1060.05,455.629 1066.06,458.809 1072.08,461.722 1078.09,464.462 1084.1,466.916 1090.11,468.744 1096.12,470.624 1102.14,472.597 1108.15,474.322 1114.16,475.878 1120.17,477.399 1126.18,478.771 1132.2,479.971 1138.21,480.79 1144.22,481.229 1150.23,481.746 1156.24,482.338 1162.26,483.092 1168.27,483.877 1174.28,484.654 1180.29,485.645 1186.3,487.01 1192.32,488.895 1198.33,491.228 1204.34,493.663 1210.35,495.854 1216.36,497.757 1222.38,499.416 1228.39,501.091 1234.4,503.033 1240.41,505.327 1246.42,507.482 1252.44,509.445 1258.45,511.262 1264.46,513.125 1270.47,515.113 1276.48,517.141 1282.5,519.189 1288.51,520.675 1294.52,521.715 1300.53,522.813 1306.54,524.172 1312.56,525.24 1318.57,525.554 1324.58,525.704 1330.59,525.744 1336.6,525.516 1342.62,525.713 1348.63,526.41 1354.64,526.871 1360.65,527.378 1366.66,528.771 1372.68,530.512 1378.69,531.653 1384.7,532.65 1390.71,533.545 1396.72,534.466 1402.74,535.948 1408.75,537.79 1414.76,540.148 1420.77,542.875 1426.78,545.604 1432.8,548.34 1438.81,550.708 1444.82,553.121 1450.83,555.704 1456.84,558.429 1462.86,561.116 1468.87,563.531 1474.88,566.362 1480.89,568.998 1486.9,571.778 1492.92,575.673 1498.93,580.42 1504.94,585.378 1510.95,590.365 1516.96,595.521 1522.98,600.286 1528.99,604.577 1535,609.315 1541.01,614.497 1547.02,619.79 1553.04,625.335 1559.05,630.843 1565.06,636.317 1571.07,641.635 1577.08,646.742 1583.1,651.539 1589.11,656.006 1595.12,660.794 1601.13,666.008 1607.15,671.339 1613.16,676.752 1619.17,682.293 1625.18,687.957 1631.19,693.556 1637.21,699.013 1643.22,704.128 1649.23,708.968 1655.24,713.926 1661.25,718.812 1667.27,723.211 1673.28,726.971 1679.29,730.537 1685.3,734.096 1691.31,737.291 1697.33,740.55 1703.34,744.022 1709.35,747.468 1715.36,750.882 1721.37,754.244 1727.39,757.689 1733.4,761.284 1739.41,765.213 1745.42,769.694 1751.43,774.371 1757.45,779.268 1763.46,784.472 1769.47,789.682 1775.48,795.098 1781.49,800.871 1787.51,806.625 1793.52,812.035 1799.53,817.514 1805.54,823.542 1811.55,830.463 1817.57,837.595 1823.58,844.049 1829.59,849.878 1835.6,855.429 1841.61,861.206 1847.63,867.662 1853.64,874.227 1859.65,880.767 1865.66,887.961 1871.67,895.616 1877.69,903.589 1883.7,911.669 1889.71,919.263 1895.72,926.607 1901.73,933.997 1907.75,940.49 1913.76,946.128 1919.77,951.694 1925.78,956.805 1931.79,961.597 1937.81,966.722 1943.82,972.259 1949.83,978.116 1955.84,984.22 1961.85,990.683 1967.87,997.294 1973.88,1003.97 1979.89,1010.81 1985.9,1017.61 1991.91,1024.65 1997.93,1031.33 2003.94,1037.35 2009.95,1043.24 2015.96,1048.98 2021.97,1054.33 2027.99,1059.11 2034,1063.75 2040.01,1069.02 2046.02,1075.16 2052.03,1081.24 2058.05,1086.69 2064.06,1091.72 2070.07,1096.67 2076.08,1101.64 2082.09,1106.44 2088.11,1111.19 2094.12,1116 2100.13,1121.02 2106.14,1126.29 2112.15,1131.67 2118.17,1136.91 2124.18,1141.75 2130.19,1146.82 2136.2,1152 2142.21,1157.35 2148.23,1163.09 2154.24,1168.77 2160.25,1174.61 2166.26,1180.83 2172.28,1187.67 2178.29,1194.89 2184.3,1202.29 2190.31,1209.75 2196.32,1216.62 2202.34,1223.18 2208.35,1229.72 2214.36,1235.87 2220.37,1241.6 2226.38,1247.15 2232.4,1252.75 2238.41,1258.01 2244.42,1262.92 2250.43,1268.29 2256.44,1274.41 2262.46,1281.19 2268.47,1288.02 2274.48,1295.11 2280.49,1302.53 2286.5,1309.93 2292.52,1316.9 "/>
<polyline clip-path="url(#clip682)" style="stroke:#e26f46; stroke-linecap:round; stroke-linejoin:round; stroke-width:4; stroke-opacity:1; fill:none" points="284.5,291.679 290.512,253.231 296.524,311.484 302.536,371.307 308.548,378.339 314.56,319.989 320.572,331.493 326.585,279.657 332.597,255.485 338.609,261.379 344.621,296.389 350.633,297.143 356.645,264.729 362.657,283.958 368.669,329.282 374.681,322.513 380.693,334.841 386.705,269.218 392.717,321.823 398.729,199.83 404.741,258.546 410.753,373.367 416.765,305.615 422.777,280.658 428.789,258.474 434.801,276.746 440.813,316.99 446.825,301.183 452.837,234.443 458.849,158.682 464.861,174.897 470.873,189.355 476.885,103.97 482.897,169.607 488.909,211.045 494.921,270.837 500.933,217.762 506.945,238.244 512.957,258.231 518.969,142.04 524.981,158.994 530.993,146.361 537.005,86.1857 543.017,97.5129 549.029,141.388 555.041,220.99 561.053,236.2 567.065,263.983 573.077,305.588 579.089,300.498 585.101,301.137 591.113,364.035 597.125,356.407 603.137,382.815 609.15,363.187 615.162,354.455 621.174,464.692 627.186,508.225 633.198,517.963 639.21,589.014 645.222,647.63 651.234,658.453 657.246,646.618 663.258,723.089 669.27,751.546 675.282,802.441 681.294,771.517 687.306,658.47 693.318,663.559 699.33,657.495 705.342,694.463 711.354,705.027 717.366,755.478 723.378,699.256 729.39,629.371 735.402,689.051 741.414,689.807 747.426,715.051 753.438,711.02 759.45,757.317 765.462,777.1 771.474,661.657 777.486,571.45 783.498,584.432 789.51,533.701 795.522,481.666 801.534,532.783 807.546,571.868 813.558,654.061 819.57,733.109 825.582,714.192 831.594,737.103 837.606,745.687 843.618,770.972 849.63,800.619 855.642,839.837 861.654,728.249 867.666,694.234 873.678,726.874 879.69,741.747 885.702,654.487 891.715,680.27 897.727,672.76 903.739,643.255 909.751,594.377 915.763,674.129 921.775,590.346 927.787,538.851 933.799,445.136 939.811,440.206 945.823,435.151 951.835,348.921 957.847,376.164 963.859,383.437 969.871,297.397 975.883,162.221 981.895,261.449 987.907,279.788 993.919,353.383 999.931,446.435 1005.94,445.264 1011.95,497.116 1017.97,587.519 1023.98,598.961 1029.99,614.368 1036,607.537 1042.02,788.838 1048.03,732.104 1054.04,634.624 1060.05,691.794 1066.06,739.349 1072.08,620.799 1078.09,693.401 1084.1,544.239 1090.11,526.569 1096.12,558.312 1102.14,551 1108.15,492.525 1114.16,505.775 1120.17,483.098 1126.18,466.044 1132.2,437.398 1138.21,364.313 1144.22,336.015 1150.23,385.441 1156.24,355.6 1162.26,428.851 1168.27,364.02 1174.28,426.386 1180.29,421.17 1186.3,526.214 1192.32,559.865 1198.33,645.515 1204.34,587.195 1210.35,580.592 1216.36,510.238 1222.38,515.571 1228.39,514.256 1234.4,587.158 1240.41,607.734 1246.42,550.503 1252.44,556.184 1258.45,511.831 1264.46,568.303 1270.47,545.148 1276.48,578.965 1282.5,550.494 1288.51,429.131 1294.52,431.555 1300.53,444.543 1306.54,501.365 1312.56,366.803 1318.57,300.269 1324.58,323.081 1330.59,270.862 1336.6,251.631 1342.62,384.341 1348.63,385.024 1354.64,321.209 1360.65,397.313 1366.66,557.506 1372.68,490.049 1378.69,397.59 1384.7,451.787 1390.71,370.106 1396.72,458.802 1402.74,519.957 1408.75,554.54 1414.76,657.512 1420.77,653.016 1426.78,658.088 1432.8,654.915 1438.81,559.855 1444.82,667.045 1450.83,605.194 1456.84,704.798 1462.86,595.043 1468.87,632.385 1474.88,705.732 1480.89,580.803 1486.9,743.808 1492.92,878.085 1498.93,971.104 1504.94,934.635 1510.95,978.544 1516.96,979.784 1522.98,874.202 1528.99,853.333 1535,993.401 1541.01,971.975 1547.02,1022.78 1553.04,1039.3 1559.05,1012.87 1565.06,1030.12 1571.07,971.545 1577.08,973.522 1583.1,889.135 1589.11,885.47 1595.12,974.592 1601.13,999.252 1607.15,1005.71 1613.16,1020.96 1619.17,1039.98 1625.18,1054.02 1631.19,1022.21 1637.21,1016.51 1643.22,930.782 1649.23,943.186 1655.24,962.366 1661.25,923.981 1667.27,832.418 1673.28,753.563 1679.29,780.689 1685.3,751.632 1691.31,683.805 1697.33,768.734 1703.34,740.317 1709.35,762.163 1715.36,731.526 1721.37,748.418 1727.39,753.438 1733.4,788.577 1739.41,842.533 1745.42,935.787 1751.43,894.765 1757.45,994.606 1763.46,976.512 1769.47,996.095 1775.48,1031.52 1781.49,1091.33 1787.51,1026.31 1793.52,999.871 1799.53,1044.52 1805.54,1146.2 1811.55,1282.89 1817.57,1202.32 1823.58,1101.97 1829.59,1035.82 1835.6,1027.98 1841.61,1095.65 1847.63,1209.36 1853.64,1124.8 1859.65,1202.62 1865.66,1299.11 1871.67,1325.38 1877.69,1384.24 1883.7,1353.8 1889.71,1254.61 1895.72,1287.16 1901.73,1266.9 1907.75,1047.8 1913.76,1039.06 1919.77,1028.47 1925.78,918.069 1931.79,943.155 1937.81,1006.79 1943.82,1053.17 1949.83,1091.98 1955.84,1119.01 1961.85,1187.86 1967.87,1158.37 1973.88,1204.13 1979.89,1204.82 1985.9,1191.89 1991.91,1267.61 1997.93,1098.64 2003.94,1090.26 2009.95,1063.89 2015.96,1049.29 2021.97,959.221 2027.99,899.962 2034,920.343 2040.01,1068.93 2046.02,1152.23 2052.03,1051.93 2058.05,983.453 2064.06,943.118 2070.07,958.686 2076.08,951.856 2082.09,909.994 2088.11,940.844 2094.12,924.574 2100.13,998.364 2106.14,988.614 2112.15,1029.87 2118.17,951.173 2124.18,922.597 2130.19,1013.73 2136.2,950.929 2142.21,1059.19 2148.23,1054.19 2154.24,1045.39 2160.25,1093.05 2166.26,1151.23 2172.28,1253.67 2178.29,1256.64 2184.3,1300.19 2190.31,1271.29 2196.32,1145.61 2202.34,1186.56 2208.35,1140.92 2214.36,1080.98 2220.37,1032.11 2226.38,1030.64 2232.4,1046.4 2238.41,937.76 2244.42,956.172 2250.43,1060.08 2256.44,1155.28 2262.46,1234.21 2268.47,1172.41 2274.48,1300.84 2280.49,1262 2286.5,1292.85 2292.52,1150.25 "/>
<path clip-path="url(#clip680)" d="M2045.69 248.629 L2281.81 248.629 L2281.81 93.1086 L2045.69 93.1086  Z" fill="#ffffff" fill-rule="evenodd" fill-opacity="1"/>
<polyline clip-path="url(#clip680)" style="stroke:#000000; stroke-linecap:round; stroke-linejoin:round; stroke-width:4; stroke-opacity:1; fill:none" points="2045.69,248.629 2281.81,248.629 2281.81,93.1086 2045.69,93.1086 2045.69,248.629 "/>
<polyline clip-path="url(#clip680)" style="stroke:#009af9; stroke-linecap:round; stroke-linejoin:round; stroke-width:4; stroke-opacity:1; fill:none" points="2069.34,144.949 2211.24,144.949 "/>
<path clip-path="url(#clip680)" d="M2257.03 131.203 Q2257.03 131.531 2256.82 132.304 L2252.23 150.62 Q2251.22 154.696 2247.94 157.554 Q2244.68 160.411 2240.98 160.411 Q2238.76 160.411 2237.33 159.217 Q2235.9 158.045 2235.9 156.242 Q2235.9 154.649 2236.74 153.876 Q2237.59 153.127 2238.59 153.127 Q2238.92 153.127 2239.27 153.22 Q2239.62 153.314 2240 153.712 Q2240.37 154.11 2240.37 154.79 Q2240.37 155.891 2239.41 156.757 Q2238.95 157.155 2238.5 157.249 Q2238.08 157.343 2237.35 157.343 Q2237.63 157.999 2238.15 158.444 Q2238.66 158.889 2239.25 159.053 Q2239.84 159.24 2240.21 159.287 Q2240.61 159.357 2240.98 159.357 Q2243.98 159.357 2246.28 156.336 Q2246.96 155.422 2247.45 154.509 Q2247.96 153.619 2248.34 152.518 Q2248.71 151.44 2248.88 150.855 Q2249.06 150.269 2249.39 148.934 Q2247.21 151.112 2244.54 151.112 Q2243.42 151.112 2242.41 150.808 Q2241.43 150.503 2240.56 149.871 Q2239.69 149.215 2239.18 148.067 Q2238.69 146.92 2238.69 145.397 Q2238.69 143.781 2239.32 141.579 Q2239.95 139.378 2241.47 135.326 Q2242.29 133.054 2242.29 131.953 Q2242.29 131.414 2242.18 131.086 Q2242.06 130.735 2241.83 130.618 Q2241.59 130.477 2241.45 130.454 Q2241.33 130.43 2241.1 130.43 Q2239.72 130.43 2238.43 131.836 Q2237.14 133.241 2236.25 136.38 Q2236.06 136.965 2235.95 137.106 Q2235.83 137.246 2235.48 137.246 Q2234.89 137.223 2234.89 136.754 Q2234.89 136.567 2235.1 135.841 Q2235.31 135.091 2235.81 133.991 Q2236.32 132.866 2237.02 131.859 Q2237.73 130.828 2238.83 130.102 Q2239.95 129.376 2241.24 129.376 Q2243 129.376 2244.07 130.524 Q2245.18 131.648 2245.18 133.311 Q2245.18 133.991 2244.99 134.6 Q2244.82 135.185 2244.22 136.754 Q2241.76 143.078 2241.76 146.17 Q2241.76 146.92 2241.87 147.552 Q2242.01 148.161 2242.32 148.77 Q2242.62 149.356 2243.23 149.707 Q2243.86 150.035 2244.73 150.035 Q2245.83 150.035 2246.86 149.52 Q2247.92 148.981 2248.57 148.255 Q2249.25 147.529 2249.65 146.92 Q2250.07 146.287 2250.16 145.959 L2252.32 137.34 L2253.28 133.499 Q2253.72 131.414 2253.94 130.899 Q2254.22 130.407 2254.71 130.149 Q2255.2 129.892 2255.62 129.892 Q2256.21 129.892 2256.61 130.243 Q2257.03 130.594 2257.03 131.203 Z" fill="#000000" fill-rule="nonzero" fill-opacity="1" /><polyline clip-path="url(#clip680)" style="stroke:#e26f46; stroke-linecap:round; stroke-linejoin:round; stroke-width:4; stroke-opacity:1; fill:none" points="2069.34,196.789 2211.24,196.789 "/>
<path clip-path="url(#clip680)" d="M2255.95 189.167 Q2255.95 189.776 2255.79 190.971 Q2255.62 192.165 2255.22 193.899 Q2254.83 195.632 2254.24 197.459 Q2253.68 199.286 2252.79 201.113 Q2251.9 202.916 2250.84 204.345 Q2249.79 205.774 2248.31 206.664 Q2246.84 207.554 2245.18 207.554 Q2244.4 207.554 2243.65 207.437 Q2242.9 207.32 2241.97 206.945 Q2241.03 206.57 2240.35 205.961 Q2239.67 205.329 2239.2 204.204 Q2238.73 203.08 2238.73 201.605 Q2238.73 200.082 2239.3 198.044 Q2239.88 195.983 2241.47 191.767 Q2242.29 189.589 2242.29 188.394 Q2242.29 187.856 2242.18 187.528 Q2242.06 187.176 2241.83 187.059 Q2241.59 186.919 2241.45 186.895 Q2241.33 186.872 2241.1 186.872 Q2239.81 186.872 2238.5 188.207 Q2237.19 189.542 2236.25 192.821 Q2236.06 193.407 2235.95 193.547 Q2235.83 193.688 2235.48 193.688 Q2234.89 193.664 2234.89 193.196 Q2234.89 193.055 2235.06 192.517 Q2235.22 191.955 2235.53 191.111 Q2235.83 190.245 2236.37 189.355 Q2236.91 188.441 2237.56 187.645 Q2238.24 186.848 2239.2 186.333 Q2240.16 185.818 2241.24 185.818 Q2243 185.818 2244.07 186.966 Q2245.18 188.09 2245.18 189.753 Q2245.18 190.666 2244.59 192.142 Q2243.61 194.812 2243.16 196.1 Q2242.72 197.389 2242.25 199.216 Q2241.8 201.042 2241.8 202.307 Q2241.8 204.228 2242.69 205.352 Q2243.58 206.476 2245.36 206.476 Q2246.96 206.476 2248.38 205.329 Q2249.84 204.158 2250.8 202.495 Q2251.76 200.808 2252.48 198.934 Q2253.21 197.037 2253.54 195.608 Q2253.89 194.156 2253.89 193.477 Q2253.89 191.111 2252.27 189.565 Q2251.83 189.12 2251.66 188.839 Q2251.5 188.558 2251.5 188.113 Q2251.5 187.293 2252.23 186.567 Q2252.98 185.818 2253.84 185.818 Q2254.64 185.818 2255.29 186.614 Q2255.95 187.411 2255.95 189.167 Z" fill="#000000" fill-rule="nonzero" fill-opacity="1" /></svg>
