<?xml version="1.0" encoding="utf-8"?>
<svg xmlns="http://www.w3.org/2000/svg" xmlns:xlink="http://www.w3.org/1999/xlink" width="600" height="400" viewBox="0 0 2400 1600">
<defs>
  <clipPath id="clip690">
    <rect x="0" y="0" width="2400" height="1600"/>
  </clipPath>
</defs>
<path clip-path="url(#clip690)" d="M0 1600 L2400 1600 L2400 0 L0 0  Z" fill="#ffffff" fill-rule="evenodd" fill-opacity="1"/>
<defs>
  <clipPath id="clip691">
    <rect x="480" y="0" width="1681" height="1600"/>
  </clipPath>
</defs>
<path clip-path="url(#clip690)" d="M194.422 1486.45 L2352.76 1486.45 L2352.76 47.2441 L194.422 47.2441  Z" fill="#ffffff" fill-rule="evenodd" fill-opacity="1"/>
<defs>
  <clipPath id="clip692">
    <rect x="194" y="47" width="2159" height="1440"/>
  </clipPath>
</defs>
<polyline clip-path="url(#clip690)" style="stroke:#000000; stroke-linecap:round; stroke-linejoin:round; stroke-width:4; stroke-opacity:1; fill:none" points="194.422,1486.45 2352.76,1486.45 "/>
<polyline clip-path="url(#clip690)" style="stroke:#000000; stroke-linecap:round; stroke-linejoin:round; stroke-width:4; stroke-opacity:1; fill:none" points="458.945,1486.45 458.945,1467.55 "/>
<polyline clip-path="url(#clip690)" style="stroke:#000000; stroke-linecap:round; stroke-linejoin:round; stroke-width:4; stroke-opacity:1; fill:none" points="730.493,1486.45 730.493,1467.55 "/>
<polyline clip-path="url(#clip690)" style="stroke:#000000; stroke-linecap:round; stroke-linejoin:round; stroke-width:4; stroke-opacity:1; fill:none" points="1002.04,1486.45 1002.04,1467.55 "/>
<polyline clip-path="url(#clip690)" style="stroke:#000000; stroke-linecap:round; stroke-linejoin:round; stroke-width:4; stroke-opacity:1; fill:none" points="1273.59,1486.45 1273.59,1467.55 "/>
<polyline clip-path="url(#clip690)" style="stroke:#000000; stroke-linecap:round; stroke-linejoin:round; stroke-width:4; stroke-opacity:1; fill:none" points="1545.14,1486.45 1545.14,1467.55 "/>
<polyline clip-path="url(#clip690)" style="stroke:#000000; stroke-linecap:round; stroke-linejoin:round; stroke-width:4; stroke-opacity:1; fill:none" points="1816.68,1486.45 1816.68,1467.55 "/>
<polyline clip-path="url(#clip690)" style="stroke:#000000; stroke-linecap:round; stroke-linejoin:round; stroke-width:4; stroke-opacity:1; fill:none" points="2088.23,1486.45 2088.23,1467.55 "/>
<path clip-path="url(#clip690)" d="M405.392 1532.02 L435.068 1532.02 L435.068 1535.95 L405.392 1535.95 L405.392 1532.02 Z" fill="#000000" fill-rule="nonzero" fill-opacity="1" /><path clip-path="url(#clip690)" d="M455.161 1517.37 Q451.55 1517.37 449.721 1520.93 Q447.915 1524.47 447.915 1531.6 Q447.915 1538.71 449.721 1542.27 Q451.55 1545.82 455.161 1545.82 Q458.795 1545.82 460.6 1542.27 Q462.429 1538.71 462.429 1531.6 Q462.429 1524.47 460.6 1520.93 Q458.795 1517.37 455.161 1517.37 M455.161 1513.66 Q460.971 1513.66 464.026 1518.27 Q467.105 1522.85 467.105 1531.6 Q467.105 1540.33 464.026 1544.94 Q460.971 1549.52 455.161 1549.52 Q449.351 1549.52 446.272 1544.94 Q443.216 1540.33 443.216 1531.6 Q443.216 1522.85 446.272 1518.27 Q449.351 1513.66 455.161 1513.66 Z" fill="#000000" fill-rule="nonzero" fill-opacity="1" /><path clip-path="url(#clip690)" d="M475.323 1542.97 L480.207 1542.97 L480.207 1548.85 L475.323 1548.85 L475.323 1542.97 Z" fill="#000000" fill-rule="nonzero" fill-opacity="1" /><path clip-path="url(#clip690)" d="M500.971 1529.7 Q497.822 1529.7 495.971 1531.86 Q494.142 1534.01 494.142 1537.76 Q494.142 1541.49 495.971 1543.66 Q497.822 1545.82 500.971 1545.82 Q504.119 1545.82 505.947 1543.66 Q507.799 1541.49 507.799 1537.76 Q507.799 1534.01 505.947 1531.86 Q504.119 1529.7 500.971 1529.7 M510.253 1515.05 L510.253 1519.31 Q508.494 1518.48 506.688 1518.04 Q504.906 1517.6 503.147 1517.6 Q498.517 1517.6 496.063 1520.72 Q493.633 1523.85 493.285 1530.17 Q494.651 1528.15 496.711 1527.09 Q498.772 1526 501.248 1526 Q506.457 1526 509.466 1529.17 Q512.498 1532.32 512.498 1537.76 Q512.498 1543.08 509.35 1546.3 Q506.202 1549.52 500.971 1549.52 Q494.975 1549.52 491.804 1544.94 Q488.633 1540.33 488.633 1531.6 Q488.633 1523.41 492.522 1518.55 Q496.41 1513.66 502.961 1513.66 Q504.721 1513.66 506.503 1514.01 Q508.309 1514.36 510.253 1515.05 Z" fill="#000000" fill-rule="nonzero" fill-opacity="1" /><path clip-path="url(#clip690)" d="M676.778 1532.02 L706.454 1532.02 L706.454 1535.95 L676.778 1535.95 L676.778 1532.02 Z" fill="#000000" fill-rule="nonzero" fill-opacity="1" /><path clip-path="url(#clip690)" d="M726.547 1517.37 Q722.935 1517.37 721.107 1520.93 Q719.301 1524.47 719.301 1531.6 Q719.301 1538.71 721.107 1542.27 Q722.935 1545.82 726.547 1545.82 Q730.181 1545.82 731.986 1542.27 Q733.815 1538.71 733.815 1531.6 Q733.815 1524.47 731.986 1520.93 Q730.181 1517.37 726.547 1517.37 M726.547 1513.66 Q732.357 1513.66 735.412 1518.27 Q738.491 1522.85 738.491 1531.6 Q738.491 1540.33 735.412 1544.94 Q732.357 1549.52 726.547 1549.52 Q720.736 1549.52 717.658 1544.94 Q714.602 1540.33 714.602 1531.6 Q714.602 1522.85 717.658 1518.27 Q720.736 1513.66 726.547 1513.66 Z" fill="#000000" fill-rule="nonzero" fill-opacity="1" /><path clip-path="url(#clip690)" d="M746.708 1542.97 L751.593 1542.97 L751.593 1548.85 L746.708 1548.85 L746.708 1542.97 Z" fill="#000000" fill-rule="nonzero" fill-opacity="1" /><path clip-path="url(#clip690)" d="M774.625 1518.36 L762.819 1536.81 L774.625 1536.81 L774.625 1518.36 M773.398 1514.29 L779.278 1514.29 L779.278 1536.81 L784.208 1536.81 L784.208 1540.7 L779.278 1540.7 L779.278 1548.85 L774.625 1548.85 L774.625 1540.7 L759.023 1540.7 L759.023 1536.19 L773.398 1514.29 Z" fill="#000000" fill-rule="nonzero" fill-opacity="1" /><path clip-path="url(#clip690)" d="M949.368 1532.02 L979.044 1532.02 L979.044 1535.95 L949.368 1535.95 L949.368 1532.02 Z" fill="#000000" fill-rule="nonzero" fill-opacity="1" /><path clip-path="url(#clip690)" d="M999.136 1517.37 Q995.525 1517.37 993.696 1520.93 Q991.891 1524.47 991.891 1531.6 Q991.891 1538.71 993.696 1542.27 Q995.525 1545.82 999.136 1545.82 Q1002.77 1545.82 1004.58 1542.27 Q1006.4 1538.71 1006.4 1531.6 Q1006.4 1524.47 1004.58 1520.93 Q1002.77 1517.37 999.136 1517.37 M999.136 1513.66 Q1004.95 1513.66 1008 1518.27 Q1011.08 1522.85 1011.08 1531.6 Q1011.08 1540.33 1008 1544.94 Q1004.95 1549.52 999.136 1549.52 Q993.326 1549.52 990.247 1544.94 Q987.192 1540.33 987.192 1531.6 Q987.192 1522.85 990.247 1518.27 Q993.326 1513.66 999.136 1513.66 Z" fill="#000000" fill-rule="nonzero" fill-opacity="1" /><path clip-path="url(#clip690)" d="M1019.3 1542.97 L1024.18 1542.97 L1024.18 1548.85 L1019.3 1548.85 L1019.3 1542.97 Z" fill="#000000" fill-rule="nonzero" fill-opacity="1" /><path clip-path="url(#clip690)" d="M1038.4 1544.91 L1054.71 1544.91 L1054.71 1548.85 L1032.77 1548.85 L1032.77 1544.91 Q1035.43 1542.16 1040.02 1537.53 Q1044.62 1532.88 1045.8 1531.53 Q1048.05 1529.01 1048.93 1527.27 Q1049.83 1525.51 1049.83 1523.82 Q1049.83 1521.07 1047.89 1519.33 Q1045.96 1517.6 1042.86 1517.6 Q1040.66 1517.6 1038.21 1518.36 Q1035.78 1519.13 1033 1520.68 L1033 1515.95 Q1035.83 1514.82 1038.28 1514.24 Q1040.73 1513.66 1042.77 1513.66 Q1048.14 1513.66 1051.33 1516.35 Q1054.53 1519.03 1054.53 1523.52 Q1054.53 1525.65 1053.72 1527.57 Q1052.93 1529.47 1050.83 1532.07 Q1050.25 1532.74 1047.15 1535.95 Q1044.04 1539.15 1038.4 1544.91 Z" fill="#000000" fill-rule="nonzero" fill-opacity="1" /><path clip-path="url(#clip690)" d="M1250.97 1517.37 Q1247.36 1517.37 1245.53 1520.93 Q1243.73 1524.47 1243.73 1531.6 Q1243.73 1538.71 1245.53 1542.27 Q1247.36 1545.82 1250.97 1545.82 Q1254.61 1545.82 1256.41 1542.27 Q1258.24 1538.71 1258.24 1531.6 Q1258.24 1524.47 1256.41 1520.93 Q1254.61 1517.37 1250.97 1517.37 M1250.97 1513.66 Q1256.78 1513.66 1259.84 1518.27 Q1262.92 1522.85 1262.92 1531.6 Q1262.92 1540.33 1259.84 1544.94 Q1256.78 1549.52 1250.97 1549.52 Q1245.16 1549.52 1242.08 1544.94 Q1239.03 1540.33 1239.03 1531.6 Q1239.03 1522.85 1242.08 1518.27 Q1245.16 1513.66 1250.97 1513.66 Z" fill="#000000" fill-rule="nonzero" fill-opacity="1" /><path clip-path="url(#clip690)" d="M1271.14 1542.97 L1276.02 1542.97 L1276.02 1548.85 L1271.14 1548.85 L1271.14 1542.97 Z" fill="#000000" fill-rule="nonzero" fill-opacity="1" /><path clip-path="url(#clip690)" d="M1296.2 1517.37 Q1292.59 1517.37 1290.76 1520.93 Q1288.96 1524.47 1288.96 1531.6 Q1288.96 1538.71 1290.76 1542.27 Q1292.59 1545.82 1296.2 1545.82 Q1299.84 1545.82 1301.64 1542.27 Q1303.47 1538.71 1303.47 1531.6 Q1303.47 1524.47 1301.64 1520.93 Q1299.84 1517.37 1296.2 1517.37 M1296.2 1513.66 Q1302.01 1513.66 1305.07 1518.27 Q1308.15 1522.85 1308.15 1531.6 Q1308.15 1540.33 1305.07 1544.94 Q1302.01 1549.52 1296.2 1549.52 Q1290.39 1549.52 1287.32 1544.94 Q1284.26 1540.33 1284.26 1531.6 Q1284.26 1522.85 1287.32 1518.27 Q1290.39 1513.66 1296.2 1513.66 Z" fill="#000000" fill-rule="nonzero" fill-opacity="1" /><path clip-path="url(#clip690)" d="M1523.32 1517.37 Q1519.71 1517.37 1517.88 1520.93 Q1516.07 1524.47 1516.07 1531.6 Q1516.07 1538.71 1517.88 1542.27 Q1519.71 1545.82 1523.32 1545.82 Q1526.95 1545.82 1528.76 1542.27 Q1530.59 1538.71 1530.59 1531.6 Q1530.59 1524.47 1528.76 1520.93 Q1526.95 1517.37 1523.32 1517.37 M1523.32 1513.66 Q1529.13 1513.66 1532.19 1518.27 Q1535.26 1522.85 1535.26 1531.6 Q1535.26 1540.33 1532.19 1544.94 Q1529.13 1549.52 1523.32 1549.52 Q1517.51 1549.52 1514.43 1544.94 Q1511.38 1540.33 1511.38 1531.6 Q1511.38 1522.85 1514.43 1518.27 Q1517.51 1513.66 1523.32 1513.66 Z" fill="#000000" fill-rule="nonzero" fill-opacity="1" /><path clip-path="url(#clip690)" d="M1543.48 1542.97 L1548.37 1542.97 L1548.37 1548.85 L1543.48 1548.85 L1543.48 1542.97 Z" fill="#000000" fill-rule="nonzero" fill-opacity="1" /><path clip-path="url(#clip690)" d="M1562.58 1544.91 L1578.9 1544.91 L1578.9 1548.85 L1556.95 1548.85 L1556.95 1544.91 Q1559.62 1542.16 1564.2 1537.53 Q1568.81 1532.88 1569.99 1531.53 Q1572.23 1529.01 1573.11 1527.27 Q1574.01 1525.51 1574.01 1523.82 Q1574.01 1521.07 1572.07 1519.33 Q1570.15 1517.6 1567.05 1517.6 Q1564.85 1517.6 1562.39 1518.36 Q1559.96 1519.13 1557.19 1520.68 L1557.19 1515.95 Q1560.01 1514.82 1562.46 1514.24 Q1564.92 1513.66 1566.95 1513.66 Q1572.32 1513.66 1575.52 1516.35 Q1578.71 1519.03 1578.71 1523.52 Q1578.71 1525.65 1577.9 1527.57 Q1577.12 1529.47 1575.01 1532.07 Q1574.43 1532.74 1571.33 1535.95 Q1568.23 1539.15 1562.58 1544.91 Z" fill="#000000" fill-rule="nonzero" fill-opacity="1" /><path clip-path="url(#clip690)" d="M1793.83 1517.37 Q1790.22 1517.37 1788.39 1520.93 Q1786.58 1524.47 1786.58 1531.6 Q1786.58 1538.71 1788.39 1542.27 Q1790.22 1545.82 1793.83 1545.82 Q1797.46 1545.82 1799.27 1542.27 Q1801.09 1538.71 1801.09 1531.6 Q1801.09 1524.47 1799.27 1520.93 Q1797.46 1517.37 1793.83 1517.37 M1793.83 1513.66 Q1799.64 1513.66 1802.69 1518.27 Q1805.77 1522.85 1805.77 1531.6 Q1805.77 1540.33 1802.69 1544.94 Q1799.64 1549.52 1793.83 1549.52 Q1788.02 1549.52 1784.94 1544.94 Q1781.88 1540.33 1781.88 1531.6 Q1781.88 1522.85 1784.94 1518.27 Q1788.02 1513.66 1793.83 1513.66 Z" fill="#000000" fill-rule="nonzero" fill-opacity="1" /><path clip-path="url(#clip690)" d="M1813.99 1542.97 L1818.87 1542.97 L1818.87 1548.85 L1813.99 1548.85 L1813.99 1542.97 Z" fill="#000000" fill-rule="nonzero" fill-opacity="1" /><path clip-path="url(#clip690)" d="M1841.9 1518.36 L1830.1 1536.81 L1841.9 1536.81 L1841.9 1518.36 M1840.68 1514.29 L1846.56 1514.29 L1846.56 1536.81 L1851.49 1536.81 L1851.49 1540.7 L1846.56 1540.7 L1846.56 1548.85 L1841.9 1548.85 L1841.9 1540.7 L1826.3 1540.7 L1826.3 1536.19 L1840.68 1514.29 Z" fill="#000000" fill-rule="nonzero" fill-opacity="1" /><path clip-path="url(#clip690)" d="M2065.54 1517.37 Q2061.92 1517.37 2060.1 1520.93 Q2058.29 1524.47 2058.29 1531.6 Q2058.29 1538.71 2060.1 1542.27 Q2061.92 1545.82 2065.54 1545.82 Q2069.17 1545.82 2070.98 1542.27 Q2072.8 1538.71 2072.8 1531.6 Q2072.8 1524.47 2070.98 1520.93 Q2069.17 1517.37 2065.54 1517.37 M2065.54 1513.66 Q2071.35 1513.66 2074.4 1518.27 Q2077.48 1522.85 2077.48 1531.6 Q2077.48 1540.33 2074.4 1544.94 Q2071.35 1549.52 2065.54 1549.52 Q2059.73 1549.52 2056.65 1544.94 Q2053.59 1540.33 2053.59 1531.6 Q2053.59 1522.85 2056.65 1518.27 Q2059.73 1513.66 2065.54 1513.66 Z" fill="#000000" fill-rule="nonzero" fill-opacity="1" /><path clip-path="url(#clip690)" d="M2085.7 1542.97 L2090.58 1542.97 L2090.58 1548.85 L2085.7 1548.85 L2085.7 1542.97 Z" fill="#000000" fill-rule="nonzero" fill-opacity="1" /><path clip-path="url(#clip690)" d="M2111.35 1529.7 Q2108.2 1529.7 2106.35 1531.86 Q2104.52 1534.01 2104.52 1537.76 Q2104.52 1541.49 2106.35 1543.66 Q2108.2 1545.82 2111.35 1545.82 Q2114.49 1545.82 2116.32 1543.66 Q2118.17 1541.49 2118.17 1537.76 Q2118.17 1534.01 2116.32 1531.86 Q2114.49 1529.7 2111.35 1529.7 M2120.63 1515.05 L2120.63 1519.31 Q2118.87 1518.48 2117.06 1518.04 Q2115.28 1517.6 2113.52 1517.6 Q2108.89 1517.6 2106.44 1520.72 Q2104.01 1523.85 2103.66 1530.17 Q2105.03 1528.15 2107.09 1527.09 Q2109.15 1526 2111.62 1526 Q2116.83 1526 2119.84 1529.17 Q2122.87 1532.32 2122.87 1537.76 Q2122.87 1543.08 2119.73 1546.3 Q2116.58 1549.52 2111.35 1549.52 Q2105.35 1549.52 2102.18 1544.94 Q2099.01 1540.33 2099.01 1531.6 Q2099.01 1523.41 2102.9 1518.55 Q2106.79 1513.66 2113.34 1513.66 Q2115.1 1513.66 2116.88 1514.01 Q2118.68 1514.36 2120.63 1515.05 Z" fill="#000000" fill-rule="nonzero" fill-opacity="1" /><polyline clip-path="url(#clip690)" style="stroke:#000000; stroke-linecap:round; stroke-linejoin:round; stroke-width:4; stroke-opacity:1; fill:none" points="194.422,1486.45 194.422,47.2441 "/>
<polyline clip-path="url(#clip690)" style="stroke:#000000; stroke-linecap:round; stroke-linejoin:round; stroke-width:4; stroke-opacity:1; fill:none" points="194.422,1309.94 213.32,1309.94 "/>
<polyline clip-path="url(#clip690)" style="stroke:#000000; stroke-linecap:round; stroke-linejoin:round; stroke-width:4; stroke-opacity:1; fill:none" points="194.422,1038.39 213.32,1038.39 "/>
<polyline clip-path="url(#clip690)" style="stroke:#000000; stroke-linecap:round; stroke-linejoin:round; stroke-width:4; stroke-opacity:1; fill:none" points="194.422,766.846 213.32,766.846 "/>
<polyline clip-path="url(#clip690)" style="stroke:#000000; stroke-linecap:round; stroke-linejoin:round; stroke-width:4; stroke-opacity:1; fill:none" points="194.422,495.298 213.32,495.298 "/>
<polyline clip-path="url(#clip690)" style="stroke:#000000; stroke-linecap:round; stroke-linejoin:round; stroke-width:4; stroke-opacity:1; fill:none" points="194.422,223.75 213.32,223.75 "/>
<path clip-path="url(#clip690)" d="M50.9921 1310.39 L80.6679 1310.39 L80.6679 1314.33 L50.9921 1314.33 L50.9921 1310.39 Z" fill="#000000" fill-rule="nonzero" fill-opacity="1" /><path clip-path="url(#clip690)" d="M100.76 1295.74 Q97.1493 1295.74 95.3206 1299.31 Q93.515 1302.85 93.515 1309.98 Q93.515 1317.08 95.3206 1320.65 Q97.1493 1324.19 100.76 1324.19 Q104.395 1324.19 106.2 1320.65 Q108.029 1317.08 108.029 1309.98 Q108.029 1302.85 106.2 1299.31 Q104.395 1295.74 100.76 1295.74 M100.76 1292.04 Q106.571 1292.04 109.626 1296.64 Q112.705 1301.23 112.705 1309.98 Q112.705 1318.7 109.626 1323.31 Q106.571 1327.89 100.76 1327.89 Q94.9502 1327.89 91.8715 1323.31 Q88.816 1318.7 88.816 1309.98 Q88.816 1301.23 91.8715 1296.64 Q94.9502 1292.04 100.76 1292.04 Z" fill="#000000" fill-rule="nonzero" fill-opacity="1" /><path clip-path="url(#clip690)" d="M120.922 1321.34 L125.807 1321.34 L125.807 1327.22 L120.922 1327.22 L120.922 1321.34 Z" fill="#000000" fill-rule="nonzero" fill-opacity="1" /><path clip-path="url(#clip690)" d="M148.839 1296.74 L137.033 1315.18 L148.839 1315.18 L148.839 1296.74 M147.612 1292.66 L153.492 1292.66 L153.492 1315.18 L158.422 1315.18 L158.422 1319.07 L153.492 1319.07 L153.492 1327.22 L148.839 1327.22 L148.839 1319.07 L133.237 1319.07 L133.237 1314.56 L147.612 1292.66 Z" fill="#000000" fill-rule="nonzero" fill-opacity="1" /><path clip-path="url(#clip690)" d="M53.0754 1038.85 L82.7512 1038.85 L82.7512 1042.78 L53.0754 1042.78 L53.0754 1038.85 Z" fill="#000000" fill-rule="nonzero" fill-opacity="1" /><path clip-path="url(#clip690)" d="M102.844 1024.19 Q99.2326 1024.19 97.4039 1027.76 Q95.5984 1031.3 95.5984 1038.43 Q95.5984 1045.54 97.4039 1049.1 Q99.2326 1052.64 102.844 1052.64 Q106.478 1052.64 108.283 1049.1 Q110.112 1045.54 110.112 1038.43 Q110.112 1031.3 108.283 1027.76 Q106.478 1024.19 102.844 1024.19 M102.844 1020.49 Q108.654 1020.49 111.709 1025.1 Q114.788 1029.68 114.788 1038.43 Q114.788 1047.16 111.709 1051.76 Q108.654 1056.35 102.844 1056.35 Q97.0335 1056.35 93.9549 1051.76 Q90.8993 1047.16 90.8993 1038.43 Q90.8993 1029.68 93.9549 1025.1 Q97.0335 1020.49 102.844 1020.49 Z" fill="#000000" fill-rule="nonzero" fill-opacity="1" /><path clip-path="url(#clip690)" d="M123.006 1049.79 L127.89 1049.79 L127.89 1055.67 L123.006 1055.67 L123.006 1049.79 Z" fill="#000000" fill-rule="nonzero" fill-opacity="1" /><path clip-path="url(#clip690)" d="M142.103 1051.74 L158.422 1051.74 L158.422 1055.67 L136.478 1055.67 L136.478 1051.74 Q139.14 1048.98 143.723 1044.35 Q148.33 1039.7 149.51 1038.36 Q151.755 1035.84 152.635 1034.1 Q153.538 1032.34 153.538 1030.65 Q153.538 1027.9 151.593 1026.16 Q149.672 1024.42 146.57 1024.42 Q144.371 1024.42 141.918 1025.19 Q139.487 1025.95 136.709 1027.5 L136.709 1022.78 Q139.533 1021.65 141.987 1021.07 Q144.441 1020.49 146.478 1020.49 Q151.848 1020.49 155.042 1023.17 Q158.237 1025.86 158.237 1030.35 Q158.237 1032.48 157.427 1034.4 Q156.64 1036.3 154.533 1038.89 Q153.955 1039.56 150.853 1042.78 Q147.751 1045.97 142.103 1051.74 Z" fill="#000000" fill-rule="nonzero" fill-opacity="1" /><path clip-path="url(#clip690)" d="M101.246 752.645 Q97.6354 752.645 95.8067 756.209 Q94.0012 759.751 94.0012 766.881 Q94.0012 773.987 95.8067 777.552 Q97.6354 781.094 101.246 781.094 Q104.881 781.094 106.686 777.552 Q108.515 773.987 108.515 766.881 Q108.515 759.751 106.686 756.209 Q104.881 752.645 101.246 752.645 M101.246 748.941 Q107.057 748.941 110.112 753.547 Q113.191 758.131 113.191 766.881 Q113.191 775.608 110.112 780.214 Q107.057 784.797 101.246 784.797 Q95.4363 784.797 92.3576 780.214 Q89.3021 775.608 89.3021 766.881 Q89.3021 758.131 92.3576 753.547 Q95.4363 748.941 101.246 748.941 Z" fill="#000000" fill-rule="nonzero" fill-opacity="1" /><path clip-path="url(#clip690)" d="M121.408 778.246 L126.293 778.246 L126.293 784.126 L121.408 784.126 L121.408 778.246 Z" fill="#000000" fill-rule="nonzero" fill-opacity="1" /><path clip-path="url(#clip690)" d="M146.478 752.645 Q142.867 752.645 141.038 756.209 Q139.232 759.751 139.232 766.881 Q139.232 773.987 141.038 777.552 Q142.867 781.094 146.478 781.094 Q150.112 781.094 151.918 777.552 Q153.746 773.987 153.746 766.881 Q153.746 759.751 151.918 756.209 Q150.112 752.645 146.478 752.645 M146.478 748.941 Q152.288 748.941 155.343 753.547 Q158.422 758.131 158.422 766.881 Q158.422 775.608 155.343 780.214 Q152.288 784.797 146.478 784.797 Q140.668 784.797 137.589 780.214 Q134.533 775.608 134.533 766.881 Q134.533 758.131 137.589 753.547 Q140.668 748.941 146.478 748.941 Z" fill="#000000" fill-rule="nonzero" fill-opacity="1" /><path clip-path="url(#clip690)" d="M102.844 481.097 Q99.2326 481.097 97.4039 484.662 Q95.5984 488.203 95.5984 495.333 Q95.5984 502.439 97.4039 506.004 Q99.2326 509.546 102.844 509.546 Q106.478 509.546 108.283 506.004 Q110.112 502.439 110.112 495.333 Q110.112 488.203 108.283 484.662 Q106.478 481.097 102.844 481.097 M102.844 477.393 Q108.654 477.393 111.709 482 Q114.788 486.583 114.788 495.333 Q114.788 504.06 111.709 508.666 Q108.654 513.249 102.844 513.249 Q97.0335 513.249 93.9549 508.666 Q90.8993 504.06 90.8993 495.333 Q90.8993 486.583 93.9549 482 Q97.0335 477.393 102.844 477.393 Z" fill="#000000" fill-rule="nonzero" fill-opacity="1" /><path clip-path="url(#clip690)" d="M123.006 506.699 L127.89 506.699 L127.89 512.578 L123.006 512.578 L123.006 506.699 Z" fill="#000000" fill-rule="nonzero" fill-opacity="1" /><path clip-path="url(#clip690)" d="M142.103 508.643 L158.422 508.643 L158.422 512.578 L136.478 512.578 L136.478 508.643 Q139.14 505.888 143.723 501.259 Q148.33 496.606 149.51 495.263 Q151.755 492.74 152.635 491.004 Q153.538 489.245 153.538 487.555 Q153.538 484.8 151.593 483.064 Q149.672 481.328 146.57 481.328 Q144.371 481.328 141.918 482.092 Q139.487 482.856 136.709 484.407 L136.709 479.685 Q139.533 478.551 141.987 477.972 Q144.441 477.393 146.478 477.393 Q151.848 477.393 155.042 480.078 Q158.237 482.763 158.237 487.254 Q158.237 489.384 157.427 491.305 Q156.64 493.203 154.533 495.796 Q153.955 496.467 150.853 499.685 Q147.751 502.879 142.103 508.643 Z" fill="#000000" fill-rule="nonzero" fill-opacity="1" /><path clip-path="url(#clip690)" d="M100.76 209.549 Q97.1493 209.549 95.3206 213.114 Q93.515 216.655 93.515 223.785 Q93.515 230.891 95.3206 234.456 Q97.1493 237.998 100.76 237.998 Q104.395 237.998 106.2 234.456 Q108.029 230.891 108.029 223.785 Q108.029 216.655 106.2 213.114 Q104.395 209.549 100.76 209.549 M100.76 205.845 Q106.571 205.845 109.626 210.452 Q112.705 215.035 112.705 223.785 Q112.705 232.512 109.626 237.118 Q106.571 241.702 100.76 241.702 Q94.9502 241.702 91.8715 237.118 Q88.816 232.512 88.816 223.785 Q88.816 215.035 91.8715 210.452 Q94.9502 205.845 100.76 205.845 Z" fill="#000000" fill-rule="nonzero" fill-opacity="1" /><path clip-path="url(#clip690)" d="M120.922 235.151 L125.807 235.151 L125.807 241.03 L120.922 241.03 L120.922 235.151 Z" fill="#000000" fill-rule="nonzero" fill-opacity="1" /><path clip-path="url(#clip690)" d="M148.839 210.544 L137.033 228.993 L148.839 228.993 L148.839 210.544 M147.612 206.47 L153.492 206.47 L153.492 228.993 L158.422 228.993 L158.422 232.882 L153.492 232.882 L153.492 241.03 L148.839 241.03 L148.839 232.882 L133.237 232.882 L133.237 228.368 L147.612 206.47 Z" fill="#000000" fill-rule="nonzero" fill-opacity="1" /><polyline clip-path="url(#clip692)" style="stroke:#97b476; stroke-linecap:round; stroke-linejoin:round; stroke-width:4; stroke-opacity:1; fill:none" points="599.467,1445.72 608.961,1445.72 618.456,1445.72 627.951,1445.72 637.445,1445.72 646.94,1445.72 656.435,1445.72 665.929,1445.72 675.424,1445.72 684.919,1445.72 694.413,1445.72 703.908,1445.72 713.403,1445.72 722.897,1445.72 732.392,1445.72 741.887,1445.72 751.382,1445.72 760.876,1445.72 770.371,1445.72 779.866,1445.72 789.36,1445.72 798.855,1445.72 808.35,1445.72 817.844,1445.72 827.339,1445.72 836.834,1445.72 846.328,1445.72 855.823,1445.72 865.318,1445.72 874.812,1445.72 884.307,1445.72 893.802,1445.72 903.296,1445.72 912.791,1445.72 922.286,1445.72 931.78,1445.72 941.275,1445.72 950.77,1445.72 960.265,1445.72 969.759,1445.72 979.254,1445.72 988.749,1445.72 998.243,1445.72 1007.74,1445.72 1017.23,1445.72 1026.73,1445.72 1036.22,1445.72 1045.72,1445.72 1055.21,1445.72 1064.71,1445.72 1074.2,1445.72 1083.7,1445.72 1093.19,1445.72 1102.68,1445.72 1112.18,1445.72 1121.67,1445.72 1131.17,1445.72 1140.66,1445.72 1150.16,1445.72 1159.65,1445.72 1169.15,1445.72 1178.64,1445.72 1188.14,1445.72 1197.63,1445.72 1207.13,1445.72 1216.62,1445.72 1226.12,1445.72 1235.61,1445.72 1245.1,1445.72 1254.6,1445.72 1264.09,1445.72 1273.59,1445.72 1283.08,1445.72 1292.58,1445.72 1302.07,1445.72 1311.57,1445.72 1321.06,1445.72 1330.56,1445.72 1340.05,1445.72 1349.55,1445.72 1359.04,1445.72 1368.54,1445.72 1378.03,1445.72 1387.53,1445.72 1397.02,1445.72 1406.51,1445.72 1416.01,1445.72 1425.5,1445.72 1435,1445.72 1444.49,1445.72 1453.99,1445.72 1463.48,1445.72 1472.98,1445.72 1482.47,1445.72 1491.97,1445.72 1501.46,1445.72 1510.96,1445.72 1520.45,1445.72 1529.95,1445.72 1539.44,1445.72 1548.93,1445.72 1558.43,1445.72 1567.92,1445.72 1577.42,1445.72 1586.91,1445.72 1596.41,1445.72 1605.9,1445.72 1615.4,1445.72 1624.89,1445.72 1634.39,1445.72 1643.88,1445.72 1653.38,1445.72 1662.87,1445.72 1672.37,1445.72 1681.86,1445.72 1691.35,1445.72 1700.85,1445.72 1710.34,1445.72 1719.84,1445.72 1729.33,1445.72 1738.83,1445.72 1748.32,1445.72 1757.82,1445.72 1767.31,1445.72 1776.81,1445.72 1786.3,1445.72 1795.8,1445.72 1805.29,1445.72 1814.79,1445.72 1824.28,1445.72 1833.78,1445.72 1843.27,1445.72 1852.76,1445.72 1862.26,1445.72 1871.75,1445.72 1881.25,1445.72 1890.74,1445.72 1900.24,1445.72 1909.73,1445.72 1919.23,1445.72 1928.72,1445.72 1938.22,1445.72 1947.71,1445.72 1952.46,1440.97 1952.46,1431.47 1952.46,1421.98 1952.46,1412.48 1952.46,1402.99 1952.46,1393.49 1952.46,1384 1952.46,1374.51 1952.46,1365.01 1952.46,1355.52 1952.46,1346.02 1952.46,1336.53 1952.46,1327.03 1952.46,1317.54 1952.46,1308.04 1952.46,1298.55 1952.46,1289.05 1952.46,1279.56 1952.46,1270.06 1952.46,1260.57 1952.46,1251.07 1952.46,1241.58 1952.46,1232.09 1952.46,1222.59 1952.46,1213.1 1952.46,1203.6 1952.46,1194.11 1952.46,1184.61 1952.46,1175.12 1952.46,1165.62 1952.46,1156.13 1952.46,1146.63 1952.46,1137.14 1952.46,1127.64 1952.46,1118.15 1952.46,1108.65 1952.46,1099.16 1952.46,1089.67 1952.46,1080.17 1952.46,1070.68 1952.46,1061.18 1952.46,1051.69 1952.46,1042.19 1952.46,1032.7 1952.46,1023.2 1952.46,1013.71 1952.46,1004.21 1952.46,994.718 1952.46,985.224 1952.46,975.729 1952.46,966.234 1952.46,956.74 1952.46,947.245 1952.46,937.75 1952.46,928.256 1952.46,918.761 1952.46,909.266 1952.46,899.772 1952.46,890.277 1952.46,880.782 1952.46,871.287 1952.46,861.793 1952.46,852.298 1952.46,842.803 1952.46,833.309 1952.46,823.814 1952.46,814.319 1952.46,804.825 1952.46,795.33 1952.46,785.835 1952.46,776.341 1952.46,766.846 1952.46,757.351 1952.46,747.857 1952.46,738.362 1952.46,728.867 1952.46,719.373 1952.46,709.878 1952.46,700.383 1952.46,690.889 1952.46,681.394 1952.46,671.899 1952.46,662.404 1952.46,652.91 1952.46,643.415 1952.46,633.92 1952.46,624.426 1952.46,614.931 1952.46,605.436 1952.46,595.942 1952.46,586.447 1952.46,576.952 1952.46,567.458 1952.46,557.963 1952.46,548.468 1952.46,538.974 1952.46,529.479 1952.46,519.984 1952.46,510.49 1952.46,500.995 1952.46,491.5 1952.46,482.006 1952.46,472.511 1952.46,463.016 1952.46,453.522 1952.46,444.027 1952.46,434.532 1952.46,425.037 1952.46,415.543 1952.46,406.048 1952.46,396.553 1952.46,387.059 1952.46,377.564 1952.46,368.069 1952.46,358.575 1952.46,349.08 1952.46,339.585 1952.46,330.091 1952.46,320.596 1952.46,311.101 1952.46,301.607 1952.46,292.112 1952.46,282.617 1952.46,273.123 1952.46,263.628 1952.46,254.133 1952.46,244.639 1952.46,235.144 1952.46,225.649 1952.46,216.154 1952.46,206.66 1952.46,197.165 1952.46,187.67 1952.46,178.176 1952.46,168.681 1952.46,159.186 1952.46,149.692 1952.46,140.197 1952.46,130.702 1952.46,121.208 1952.46,111.713 1952.46,102.218 1952.46,92.7236 1947.71,87.9763 1938.22,87.9763 1928.72,87.9763 1919.23,87.9763 1909.73,87.9763 1900.24,87.9763 1890.74,87.9763 1881.25,87.9763 1871.75,87.9763 1862.26,87.9763 1852.76,87.9763 1843.27,87.9763 1833.78,87.9763 1824.28,87.9763 1814.79,87.9763 1805.29,87.9763 1795.8,87.9763 1786.3,87.9763 1776.81,87.9763 1767.31,87.9763 1757.82,87.9763 1748.32,87.9763 1738.83,87.9763 1729.33,87.9763 1719.84,87.9763 1710.34,87.9763 1700.85,87.9763 1691.35,87.9763 1681.86,87.9763 1672.37,87.9763 1662.87,87.9763 1653.38,87.9763 1643.88,87.9763 1634.39,87.9763 1624.89,87.9763 1615.4,87.9763 1605.9,87.9763 1596.41,87.9763 1586.91,87.9763 1577.42,87.9763 1567.92,87.9763 1558.43,87.9763 1548.93,87.9763 1539.44,87.9763 1529.95,87.9763 1520.45,87.9763 1510.96,87.9763 1501.46,87.9763 1491.97,87.9763 1482.47,87.9763 1472.98,87.9763 1463.48,87.9763 1453.99,87.9763 1444.49,87.9763 1435,87.9763 1425.5,87.9763 1416.01,87.9763 1406.51,87.9763 1397.02,87.9763 1387.53,87.9763 1378.03,87.9763 1368.54,87.9763 1359.04,87.9763 1349.55,87.9763 1340.05,87.9763 1330.56,87.9763 1321.06,87.9763 1311.57,87.9763 1302.07,87.9763 1292.58,87.9763 1283.08,87.9763 1273.59,87.9763 1264.09,87.9763 1254.6,87.9763 1245.1,87.9763 1235.61,87.9763 1226.12,87.9763 1216.62,87.9763 1207.13,87.9763 1197.63,87.9763 1188.14,87.9763 1178.64,87.9763 1169.15,87.9763 1159.65,87.9763 1150.16,87.9763 1140.66,87.9763 1131.17,87.9763 1121.67,87.9763 1112.18,87.9763 1102.68,87.9763 1093.19,87.9763 1083.7,87.9763 1074.2,87.9763 1064.71,87.9763 1055.21,87.9763 1045.72,87.9763 1036.22,87.9763 1026.73,87.9763 1017.23,87.9763 1007.74,87.9763 998.243,87.9763 988.749,87.9763 979.254,87.9763 969.759,87.9763 960.265,87.9763 950.77,87.9763 941.275,87.9763 931.78,87.9763 922.286,87.9763 912.791,87.9763 903.296,87.9763 893.802,87.9763 884.307,87.9763 874.812,87.9763 865.318,87.9763 855.823,87.9763 846.328,87.9763 836.834,87.9763 827.339,87.9763 817.844,87.9763 808.35,87.9763 798.855,87.9763 789.36,87.9763 779.866,87.9763 770.371,87.9763 760.876,87.9763 751.382,87.9763 741.887,87.9763 732.392,87.9763 722.897,87.9763 713.403,87.9763 703.908,87.9763 694.413,87.9763 684.919,87.9763 675.424,87.9763 665.929,87.9763 656.435,87.9763 646.94,87.9763 637.445,87.9763 627.951,87.9763 618.456,87.9763 608.961,87.9763 599.467,87.9763 594.719,92.7236 594.719,102.218 594.719,111.713 594.719,121.208 594.719,130.702 594.719,140.197 594.719,149.692 594.719,159.186 594.719,168.681 594.719,178.176 594.719,187.67 594.719,197.165 594.719,206.66 594.719,216.154 594.719,225.649 594.719,235.144 594.719,244.639 594.719,254.133 594.719,263.628 594.719,273.123 594.719,282.617 594.719,292.112 594.719,301.607 594.719,311.101 594.719,320.596 594.719,330.091 594.719,339.585 594.719,349.08 594.719,358.575 594.719,368.069 594.719,377.564 594.719,387.059 594.719,396.553 594.719,406.048 594.719,415.543 594.719,425.037 594.719,434.532 594.719,444.027 594.719,453.522 594.719,463.016 594.719,472.511 594.719,482.006 594.719,491.5 594.719,500.995 594.719,510.49 594.719,519.984 594.719,529.479 594.719,538.974 594.719,548.468 594.719,557.963 594.719,567.458 594.719,576.952 594.719,586.447 594.719,595.942 594.719,605.436 594.719,614.931 594.719,624.426 594.719,633.92 594.719,643.415 594.719,652.91 594.719,662.404 594.719,671.899 594.719,681.394 594.719,690.889 594.719,700.383 594.719,709.878 594.719,719.373 594.719,728.867 594.719,738.362 594.719,747.857 594.719,757.351 594.719,766.846 594.719,776.341 594.719,785.835 594.719,795.33 594.719,804.825 594.719,814.319 594.719,823.814 594.719,833.309 594.719,842.803 594.719,852.298 594.719,861.793 594.719,871.287 594.719,880.782 594.719,890.277 594.719,899.772 594.719,909.266 594.719,918.761 594.719,928.256 594.719,937.75 594.719,947.245 594.719,956.74 594.719,966.234 594.719,975.729 594.719,985.224 594.719,994.718 594.719,1004.21 594.719,1013.71 594.719,1023.2 594.719,1032.7 594.719,1042.19 594.719,1051.69 594.719,1061.18 594.719,1070.68 594.719,1080.17 594.719,1089.67 594.719,1099.16 594.719,1108.65 594.719,1118.15 594.719,1127.64 594.719,1137.14 594.719,1146.63 594.719,1156.13 594.719,1165.62 594.719,1175.12 594.719,1184.61 594.719,1194.11 594.719,1203.6 594.719,1213.1 594.719,1222.59 594.719,1232.09 594.719,1241.58 594.719,1251.07 594.719,1260.57 594.719,1270.06 594.719,1279.56 594.719,1289.05 594.719,1298.55 594.719,1308.04 594.719,1317.54 594.719,1327.03 594.719,1336.53 594.719,1346.02 594.719,1355.52 594.719,1365.01 594.719,1374.51 594.719,1384 594.719,1393.49 594.719,1402.99 594.719,1412.48 594.719,1421.98 594.719,1431.47 594.719,1440.97 599.467,1445.72 "/>
</svg>
