<?xml version="1.0" encoding="utf-8"?>
<svg xmlns="http://www.w3.org/2000/svg" xmlns:xlink="http://www.w3.org/1999/xlink" width="600" height="400" viewBox="0 0 2400 1600">
<defs>
  <clipPath id="clip920">
    <rect x="0" y="0" width="2400" height="1600"/>
  </clipPath>
</defs>
<path clip-path="url(#clip920)" d="M0 1600 L2400 1600 L2400 0 L0 0  Z" fill="#ffffff" fill-rule="evenodd" fill-opacity="1"/>
<defs>
  <clipPath id="clip921">
    <rect x="480" y="0" width="1681" height="1600"/>
  </clipPath>
</defs>
<path clip-path="url(#clip920)" d="M224.098 1423.18 L2352.76 1423.18 L2352.76 47.2441 L224.098 47.2441  Z" fill="#ffffff" fill-rule="evenodd" fill-opacity="1"/>
<defs>
  <clipPath id="clip922">
    <rect x="224" y="47" width="2130" height="1377"/>
  </clipPath>
</defs>
<polyline clip-path="url(#clip922)" style="stroke:#000000; stroke-linecap:round; stroke-linejoin:round; stroke-width:2; stroke-opacity:0.1; fill:none" points="284.343,1423.18 284.343,47.2441 "/>
<polyline clip-path="url(#clip922)" style="stroke:#000000; stroke-linecap:round; stroke-linejoin:round; stroke-width:2; stroke-opacity:0.1; fill:none" points="685.175,1423.18 685.175,47.2441 "/>
<polyline clip-path="url(#clip922)" style="stroke:#000000; stroke-linecap:round; stroke-linejoin:round; stroke-width:2; stroke-opacity:0.1; fill:none" points="1086.01,1423.18 1086.01,47.2441 "/>
<polyline clip-path="url(#clip922)" style="stroke:#000000; stroke-linecap:round; stroke-linejoin:round; stroke-width:2; stroke-opacity:0.1; fill:none" points="1486.84,1423.18 1486.84,47.2441 "/>
<polyline clip-path="url(#clip922)" style="stroke:#000000; stroke-linecap:round; stroke-linejoin:round; stroke-width:2; stroke-opacity:0.1; fill:none" points="1887.67,1423.18 1887.67,47.2441 "/>
<polyline clip-path="url(#clip922)" style="stroke:#000000; stroke-linecap:round; stroke-linejoin:round; stroke-width:2; stroke-opacity:0.1; fill:none" points="2288.5,1423.18 2288.5,47.2441 "/>
<polyline clip-path="url(#clip920)" style="stroke:#000000; stroke-linecap:round; stroke-linejoin:round; stroke-width:4; stroke-opacity:1; fill:none" points="224.098,1423.18 2352.76,1423.18 "/>
<polyline clip-path="url(#clip920)" style="stroke:#000000; stroke-linecap:round; stroke-linejoin:round; stroke-width:4; stroke-opacity:1; fill:none" points="284.343,1423.18 284.343,1404.28 "/>
<polyline clip-path="url(#clip920)" style="stroke:#000000; stroke-linecap:round; stroke-linejoin:round; stroke-width:4; stroke-opacity:1; fill:none" points="685.175,1423.18 685.175,1404.28 "/>
<polyline clip-path="url(#clip920)" style="stroke:#000000; stroke-linecap:round; stroke-linejoin:round; stroke-width:4; stroke-opacity:1; fill:none" points="1086.01,1423.18 1086.01,1404.28 "/>
<polyline clip-path="url(#clip920)" style="stroke:#000000; stroke-linecap:round; stroke-linejoin:round; stroke-width:4; stroke-opacity:1; fill:none" points="1486.84,1423.18 1486.84,1404.28 "/>
<polyline clip-path="url(#clip920)" style="stroke:#000000; stroke-linecap:round; stroke-linejoin:round; stroke-width:4; stroke-opacity:1; fill:none" points="1887.67,1423.18 1887.67,1404.28 "/>
<polyline clip-path="url(#clip920)" style="stroke:#000000; stroke-linecap:round; stroke-linejoin:round; stroke-width:4; stroke-opacity:1; fill:none" points="2288.5,1423.18 2288.5,1404.28 "/>
<path clip-path="url(#clip920)" d="M261.727 1454.1 Q258.116 1454.1 256.288 1457.66 Q254.482 1461.2 254.482 1468.33 Q254.482 1475.44 256.288 1479.01 Q258.116 1482.55 261.727 1482.55 Q265.362 1482.55 267.167 1479.01 Q268.996 1475.44 268.996 1468.33 Q268.996 1461.2 267.167 1457.66 Q265.362 1454.1 261.727 1454.1 M261.727 1450.39 Q267.537 1450.39 270.593 1455 Q273.672 1459.58 273.672 1468.33 Q273.672 1477.06 270.593 1481.67 Q267.537 1486.25 261.727 1486.25 Q255.917 1486.25 252.838 1481.67 Q249.783 1477.06 249.783 1468.33 Q249.783 1459.58 252.838 1455 Q255.917 1450.39 261.727 1450.39 Z" fill="#000000" fill-rule="nonzero" fill-opacity="1" /><path clip-path="url(#clip920)" d="M281.889 1479.7 L286.773 1479.7 L286.773 1485.58 L281.889 1485.58 L281.889 1479.7 Z" fill="#000000" fill-rule="nonzero" fill-opacity="1" /><path clip-path="url(#clip920)" d="M306.959 1454.1 Q303.347 1454.1 301.519 1457.66 Q299.713 1461.2 299.713 1468.33 Q299.713 1475.44 301.519 1479.01 Q303.347 1482.55 306.959 1482.55 Q310.593 1482.55 312.398 1479.01 Q314.227 1475.44 314.227 1468.33 Q314.227 1461.2 312.398 1457.66 Q310.593 1454.1 306.959 1454.1 M306.959 1450.39 Q312.769 1450.39 315.824 1455 Q318.903 1459.58 318.903 1468.33 Q318.903 1477.06 315.824 1481.67 Q312.769 1486.25 306.959 1486.25 Q301.148 1486.25 298.07 1481.67 Q295.014 1477.06 295.014 1468.33 Q295.014 1459.58 298.07 1455 Q301.148 1450.39 306.959 1450.39 Z" fill="#000000" fill-rule="nonzero" fill-opacity="1" /><path clip-path="url(#clip920)" d="M663.057 1454.1 Q659.446 1454.1 657.617 1457.66 Q655.812 1461.2 655.812 1468.33 Q655.812 1475.44 657.617 1479.01 Q659.446 1482.55 663.057 1482.55 Q666.691 1482.55 668.497 1479.01 Q670.325 1475.44 670.325 1468.33 Q670.325 1461.2 668.497 1457.66 Q666.691 1454.1 663.057 1454.1 M663.057 1450.39 Q668.867 1450.39 671.923 1455 Q675.001 1459.58 675.001 1468.33 Q675.001 1477.06 671.923 1481.67 Q668.867 1486.25 663.057 1486.25 Q657.247 1486.25 654.168 1481.67 Q651.113 1477.06 651.113 1468.33 Q651.113 1459.58 654.168 1455 Q657.247 1450.39 663.057 1450.39 Z" fill="#000000" fill-rule="nonzero" fill-opacity="1" /><path clip-path="url(#clip920)" d="M683.219 1479.7 L688.103 1479.7 L688.103 1485.58 L683.219 1485.58 L683.219 1479.7 Z" fill="#000000" fill-rule="nonzero" fill-opacity="1" /><path clip-path="url(#clip920)" d="M698.334 1451.02 L716.691 1451.02 L716.691 1454.96 L702.617 1454.96 L702.617 1463.43 Q703.635 1463.08 704.654 1462.92 Q705.672 1462.73 706.691 1462.73 Q712.478 1462.73 715.858 1465.9 Q719.237 1469.08 719.237 1474.49 Q719.237 1480.07 715.765 1483.17 Q712.293 1486.25 705.973 1486.25 Q703.797 1486.25 701.529 1485.88 Q699.284 1485.51 696.876 1484.77 L696.876 1480.07 Q698.959 1481.2 701.182 1481.76 Q703.404 1482.32 705.881 1482.32 Q709.885 1482.32 712.223 1480.21 Q714.561 1478.1 714.561 1474.49 Q714.561 1470.88 712.223 1468.77 Q709.885 1466.67 705.881 1466.67 Q704.006 1466.67 702.131 1467.08 Q700.279 1467.5 698.334 1468.38 L698.334 1451.02 Z" fill="#000000" fill-rule="nonzero" fill-opacity="1" /><path clip-path="url(#clip920)" d="M1053.16 1481.64 L1060.8 1481.64 L1060.8 1455.28 L1052.49 1456.95 L1052.49 1452.69 L1060.75 1451.02 L1065.43 1451.02 L1065.43 1481.64 L1073.07 1481.64 L1073.07 1485.58 L1053.16 1485.58 L1053.16 1481.64 Z" fill="#000000" fill-rule="nonzero" fill-opacity="1" /><path clip-path="url(#clip920)" d="M1082.51 1479.7 L1087.4 1479.7 L1087.4 1485.58 L1082.51 1485.58 L1082.51 1479.7 Z" fill="#000000" fill-rule="nonzero" fill-opacity="1" /><path clip-path="url(#clip920)" d="M1107.58 1454.1 Q1103.97 1454.1 1102.14 1457.66 Q1100.34 1461.2 1100.34 1468.33 Q1100.34 1475.44 1102.14 1479.01 Q1103.97 1482.55 1107.58 1482.55 Q1111.21 1482.55 1113.02 1479.01 Q1114.85 1475.44 1114.85 1468.33 Q1114.85 1461.2 1113.02 1457.66 Q1111.21 1454.1 1107.58 1454.1 M1107.58 1450.39 Q1113.39 1450.39 1116.45 1455 Q1119.53 1459.58 1119.53 1468.33 Q1119.53 1477.06 1116.45 1481.67 Q1113.39 1486.25 1107.58 1486.25 Q1101.77 1486.25 1098.69 1481.67 Q1095.64 1477.06 1095.64 1468.33 Q1095.64 1459.58 1098.69 1455 Q1101.77 1450.39 1107.58 1450.39 Z" fill="#000000" fill-rule="nonzero" fill-opacity="1" /><path clip-path="url(#clip920)" d="M1454.49 1481.64 L1462.13 1481.64 L1462.13 1455.28 L1453.82 1456.95 L1453.82 1452.69 L1462.08 1451.02 L1466.76 1451.02 L1466.76 1481.64 L1474.4 1481.64 L1474.4 1485.58 L1454.49 1485.58 L1454.49 1481.64 Z" fill="#000000" fill-rule="nonzero" fill-opacity="1" /><path clip-path="url(#clip920)" d="M1483.84 1479.7 L1488.73 1479.7 L1488.73 1485.58 L1483.84 1485.58 L1483.84 1479.7 Z" fill="#000000" fill-rule="nonzero" fill-opacity="1" /><path clip-path="url(#clip920)" d="M1498.96 1451.02 L1517.31 1451.02 L1517.31 1454.96 L1503.24 1454.96 L1503.24 1463.43 Q1504.26 1463.08 1505.28 1462.92 Q1506.29 1462.73 1507.31 1462.73 Q1513.1 1462.73 1516.48 1465.9 Q1519.86 1469.08 1519.86 1474.49 Q1519.86 1480.07 1516.39 1483.17 Q1512.91 1486.25 1506.6 1486.25 Q1504.42 1486.25 1502.15 1485.88 Q1499.91 1485.51 1497.5 1484.77 L1497.5 1480.07 Q1499.58 1481.2 1501.8 1481.76 Q1504.03 1482.32 1506.5 1482.32 Q1510.51 1482.32 1512.85 1480.21 Q1515.18 1478.1 1515.18 1474.49 Q1515.18 1470.88 1512.85 1468.77 Q1510.51 1466.67 1506.5 1466.67 Q1504.63 1466.67 1502.75 1467.08 Q1500.9 1467.5 1498.96 1468.38 L1498.96 1451.02 Z" fill="#000000" fill-rule="nonzero" fill-opacity="1" /><path clip-path="url(#clip920)" d="M1858.91 1481.64 L1875.23 1481.64 L1875.23 1485.58 L1853.28 1485.58 L1853.28 1481.64 Q1855.95 1478.89 1860.53 1474.26 Q1865.14 1469.61 1866.32 1468.27 Q1868.56 1465.74 1869.44 1464.01 Q1870.34 1462.25 1870.34 1460.56 Q1870.34 1457.8 1868.4 1456.07 Q1866.48 1454.33 1863.38 1454.33 Q1861.18 1454.33 1858.72 1455.09 Q1856.29 1455.86 1853.52 1457.41 L1853.52 1452.69 Q1856.34 1451.55 1858.79 1450.97 Q1861.25 1450.39 1863.28 1450.39 Q1868.65 1450.39 1871.85 1453.08 Q1875.04 1455.77 1875.04 1460.26 Q1875.04 1462.39 1874.23 1464.31 Q1873.45 1466.2 1871.34 1468.8 Q1870.76 1469.47 1867.66 1472.69 Q1864.56 1475.88 1858.91 1481.64 Z" fill="#000000" fill-rule="nonzero" fill-opacity="1" /><path clip-path="url(#clip920)" d="M1885.04 1479.7 L1889.93 1479.7 L1889.93 1485.58 L1885.04 1485.58 L1885.04 1479.7 Z" fill="#000000" fill-rule="nonzero" fill-opacity="1" /><path clip-path="url(#clip920)" d="M1910.11 1454.1 Q1906.5 1454.1 1904.67 1457.66 Q1902.87 1461.2 1902.87 1468.33 Q1902.87 1475.44 1904.67 1479.01 Q1906.5 1482.55 1910.11 1482.55 Q1913.75 1482.55 1915.55 1479.01 Q1917.38 1475.44 1917.38 1468.33 Q1917.38 1461.2 1915.55 1457.66 Q1913.75 1454.1 1910.11 1454.1 M1910.11 1450.39 Q1915.92 1450.39 1918.98 1455 Q1922.06 1459.58 1922.06 1468.33 Q1922.06 1477.06 1918.98 1481.67 Q1915.92 1486.25 1910.11 1486.25 Q1904.3 1486.25 1901.22 1481.67 Q1898.17 1477.06 1898.17 1468.33 Q1898.17 1459.58 1901.22 1455 Q1904.3 1450.39 1910.11 1450.39 Z" fill="#000000" fill-rule="nonzero" fill-opacity="1" /><path clip-path="url(#clip920)" d="M2260.24 1481.64 L2276.56 1481.64 L2276.56 1485.58 L2254.61 1485.58 L2254.61 1481.64 Q2257.28 1478.89 2261.86 1474.26 Q2266.47 1469.61 2267.65 1468.27 Q2269.89 1465.74 2270.77 1464.01 Q2271.67 1462.25 2271.67 1460.56 Q2271.67 1457.8 2269.73 1456.07 Q2267.81 1454.33 2264.71 1454.33 Q2262.51 1454.33 2260.05 1455.09 Q2257.62 1455.86 2254.85 1457.41 L2254.85 1452.69 Q2257.67 1451.55 2260.12 1450.97 Q2262.58 1450.39 2264.61 1450.39 Q2269.98 1450.39 2273.18 1453.08 Q2276.37 1455.77 2276.37 1460.26 Q2276.37 1462.39 2275.56 1464.31 Q2274.78 1466.2 2272.67 1468.8 Q2272.09 1469.47 2268.99 1472.69 Q2265.89 1475.88 2260.24 1481.64 Z" fill="#000000" fill-rule="nonzero" fill-opacity="1" /><path clip-path="url(#clip920)" d="M2286.37 1479.7 L2291.26 1479.7 L2291.26 1485.58 L2286.37 1485.58 L2286.37 1479.7 Z" fill="#000000" fill-rule="nonzero" fill-opacity="1" /><path clip-path="url(#clip920)" d="M2301.49 1451.02 L2319.84 1451.02 L2319.84 1454.96 L2305.77 1454.96 L2305.77 1463.43 Q2306.79 1463.08 2307.81 1462.92 Q2308.83 1462.73 2309.85 1462.73 Q2315.63 1462.73 2319.01 1465.9 Q2322.39 1469.08 2322.39 1474.49 Q2322.39 1480.07 2318.92 1483.17 Q2315.45 1486.25 2309.13 1486.25 Q2306.95 1486.25 2304.68 1485.88 Q2302.44 1485.51 2300.03 1484.77 L2300.03 1480.07 Q2302.11 1481.2 2304.34 1481.76 Q2306.56 1482.32 2309.03 1482.32 Q2313.04 1482.32 2315.38 1480.21 Q2317.72 1478.1 2317.72 1474.49 Q2317.72 1470.88 2315.38 1468.77 Q2313.04 1466.67 2309.03 1466.67 Q2307.16 1466.67 2305.28 1467.08 Q2303.43 1467.5 2301.49 1468.38 L2301.49 1451.02 Z" fill="#000000" fill-rule="nonzero" fill-opacity="1" /><path clip-path="url(#clip920)" d="M1296.9 1531.91 Q1296.9 1532.81 1296.48 1533.04 Q1296.06 1533.23 1294.9 1533.23 L1288.72 1533.23 L1283.82 1552.69 Q1283.44 1554.39 1283.44 1555.84 Q1283.44 1557.45 1283.92 1558.16 Q1284.43 1558.87 1285.5 1558.87 Q1287.59 1558.87 1289.84 1556.97 Q1292.13 1555.07 1294.06 1550.43 Q1294.32 1549.82 1294.45 1549.69 Q1294.61 1549.53 1295.03 1549.53 Q1295.84 1549.53 1295.84 1550.17 Q1295.84 1550.4 1295.38 1551.43 Q1294.97 1552.46 1294.03 1553.97 Q1293.13 1555.49 1291.94 1556.9 Q1290.78 1558.32 1289.01 1559.35 Q1287.24 1560.35 1285.34 1560.35 Q1282.66 1560.35 1280.96 1558.64 Q1279.28 1556.94 1279.28 1554.26 Q1279.28 1553.39 1279.96 1550.62 Q1280.63 1547.82 1284.31 1533.23 L1278.48 1533.23 Q1277.67 1533.23 1277.35 1533.2 Q1277.06 1533.17 1276.83 1533.01 Q1276.64 1532.81 1276.64 1532.43 Q1276.64 1531.82 1276.9 1531.56 Q1277.16 1531.27 1277.48 1531.24 Q1277.83 1531.17 1278.64 1531.17 L1284.82 1531.17 L1287.4 1520.71 Q1287.65 1519.67 1288.3 1519.09 Q1288.98 1518.48 1289.36 1518.42 Q1289.75 1518.32 1290.04 1518.32 Q1290.91 1518.32 1291.42 1518.81 Q1291.94 1519.26 1291.94 1520.09 Q1291.94 1520.54 1289.23 1531.17 L1295.03 1531.17 Q1295.77 1531.17 1296.06 1531.2 Q1296.38 1531.24 1296.64 1531.4 Q1296.9 1531.56 1296.9 1531.91 Z" fill="#000000" fill-rule="nonzero" fill-opacity="1" /><polyline clip-path="url(#clip922)" style="stroke:#000000; stroke-linecap:round; stroke-linejoin:round; stroke-width:2; stroke-opacity:0.1; fill:none" points="224.098,1179.27 2352.76,1179.27 "/>
<polyline clip-path="url(#clip922)" style="stroke:#000000; stroke-linecap:round; stroke-linejoin:round; stroke-width:2; stroke-opacity:0.1; fill:none" points="224.098,928.807 2352.76,928.807 "/>
<polyline clip-path="url(#clip922)" style="stroke:#000000; stroke-linecap:round; stroke-linejoin:round; stroke-width:2; stroke-opacity:0.1; fill:none" points="224.098,678.348 2352.76,678.348 "/>
<polyline clip-path="url(#clip922)" style="stroke:#000000; stroke-linecap:round; stroke-linejoin:round; stroke-width:2; stroke-opacity:0.1; fill:none" points="224.098,427.888 2352.76,427.888 "/>
<polyline clip-path="url(#clip922)" style="stroke:#000000; stroke-linecap:round; stroke-linejoin:round; stroke-width:2; stroke-opacity:0.1; fill:none" points="224.098,177.428 2352.76,177.428 "/>
<polyline clip-path="url(#clip920)" style="stroke:#000000; stroke-linecap:round; stroke-linejoin:round; stroke-width:4; stroke-opacity:1; fill:none" points="224.098,1423.18 224.098,47.2441 "/>
<polyline clip-path="url(#clip920)" style="stroke:#000000; stroke-linecap:round; stroke-linejoin:round; stroke-width:4; stroke-opacity:1; fill:none" points="224.098,1179.27 242.996,1179.27 "/>
<polyline clip-path="url(#clip920)" style="stroke:#000000; stroke-linecap:round; stroke-linejoin:round; stroke-width:4; stroke-opacity:1; fill:none" points="224.098,928.807 242.996,928.807 "/>
<polyline clip-path="url(#clip920)" style="stroke:#000000; stroke-linecap:round; stroke-linejoin:round; stroke-width:4; stroke-opacity:1; fill:none" points="224.098,678.348 242.996,678.348 "/>
<polyline clip-path="url(#clip920)" style="stroke:#000000; stroke-linecap:round; stroke-linejoin:round; stroke-width:4; stroke-opacity:1; fill:none" points="224.098,427.888 242.996,427.888 "/>
<polyline clip-path="url(#clip920)" style="stroke:#000000; stroke-linecap:round; stroke-linejoin:round; stroke-width:4; stroke-opacity:1; fill:none" points="224.098,177.428 242.996,177.428 "/>
<path clip-path="url(#clip920)" d="M50.9921 1179.72 L80.6679 1179.72 L80.6679 1183.65 L50.9921 1183.65 L50.9921 1179.72 Z" fill="#000000" fill-rule="nonzero" fill-opacity="1" /><path clip-path="url(#clip920)" d="M100.76 1165.07 Q97.1493 1165.07 95.3206 1168.63 Q93.515 1172.17 93.515 1179.3 Q93.515 1186.41 95.3206 1189.97 Q97.1493 1193.51 100.76 1193.51 Q104.395 1193.51 106.2 1189.97 Q108.029 1186.41 108.029 1179.3 Q108.029 1172.17 106.2 1168.63 Q104.395 1165.07 100.76 1165.07 M100.76 1161.36 Q106.571 1161.36 109.626 1165.97 Q112.705 1170.55 112.705 1179.3 Q112.705 1188.03 109.626 1192.63 Q106.571 1197.22 100.76 1197.22 Q94.9502 1197.22 91.8715 1192.63 Q88.816 1188.03 88.816 1179.3 Q88.816 1170.55 91.8715 1165.97 Q94.9502 1161.36 100.76 1161.36 Z" fill="#000000" fill-rule="nonzero" fill-opacity="1" /><path clip-path="url(#clip920)" d="M120.922 1190.67 L125.807 1190.67 L125.807 1196.55 L120.922 1196.55 L120.922 1190.67 Z" fill="#000000" fill-rule="nonzero" fill-opacity="1" /><path clip-path="url(#clip920)" d="M140.019 1192.61 L156.339 1192.61 L156.339 1196.55 L134.394 1196.55 L134.394 1192.61 Q137.056 1189.86 141.64 1185.23 Q146.246 1180.57 147.427 1179.23 Q149.672 1176.71 150.552 1174.97 Q151.455 1173.21 151.455 1171.52 Q151.455 1168.77 149.51 1167.03 Q147.589 1165.3 144.487 1165.3 Q142.288 1165.3 139.834 1166.06 Q137.404 1166.82 134.626 1168.38 L134.626 1163.65 Q137.45 1162.52 139.904 1161.94 Q142.357 1161.36 144.394 1161.36 Q149.765 1161.36 152.959 1164.05 Q156.154 1166.73 156.154 1171.22 Q156.154 1173.35 155.343 1175.27 Q154.556 1177.17 152.45 1179.76 Q151.871 1180.44 148.769 1183.65 Q145.668 1186.85 140.019 1192.61 Z" fill="#000000" fill-rule="nonzero" fill-opacity="1" /><path clip-path="url(#clip920)" d="M176.153 1165.07 Q172.542 1165.07 170.714 1168.63 Q168.908 1172.17 168.908 1179.3 Q168.908 1186.41 170.714 1189.97 Q172.542 1193.51 176.153 1193.51 Q179.788 1193.51 181.593 1189.97 Q183.422 1186.41 183.422 1179.3 Q183.422 1172.17 181.593 1168.63 Q179.788 1165.07 176.153 1165.07 M176.153 1161.36 Q181.964 1161.36 185.019 1165.97 Q188.098 1170.55 188.098 1179.3 Q188.098 1188.03 185.019 1192.63 Q181.964 1197.22 176.153 1197.22 Q170.343 1197.22 167.265 1192.63 Q164.209 1188.03 164.209 1179.3 Q164.209 1170.55 167.265 1165.97 Q170.343 1161.36 176.153 1161.36 Z" fill="#000000" fill-rule="nonzero" fill-opacity="1" /><path clip-path="url(#clip920)" d="M51.9875 929.259 L81.6633 929.259 L81.6633 933.194 L51.9875 933.194 L51.9875 929.259 Z" fill="#000000" fill-rule="nonzero" fill-opacity="1" /><path clip-path="url(#clip920)" d="M101.756 914.606 Q98.1447 914.606 96.316 918.171 Q94.5104 921.712 94.5104 928.842 Q94.5104 935.948 96.316 939.513 Q98.1447 943.055 101.756 943.055 Q105.39 943.055 107.196 939.513 Q109.024 935.948 109.024 928.842 Q109.024 921.712 107.196 918.171 Q105.39 914.606 101.756 914.606 M101.756 910.902 Q107.566 910.902 110.621 915.509 Q113.7 920.092 113.7 928.842 Q113.7 937.569 110.621 942.175 Q107.566 946.759 101.756 946.759 Q95.9456 946.759 92.8669 942.175 Q89.8114 937.569 89.8114 928.842 Q89.8114 920.092 92.8669 915.509 Q95.9456 910.902 101.756 910.902 Z" fill="#000000" fill-rule="nonzero" fill-opacity="1" /><path clip-path="url(#clip920)" d="M121.918 940.208 L126.802 940.208 L126.802 946.087 L121.918 946.087 L121.918 940.208 Z" fill="#000000" fill-rule="nonzero" fill-opacity="1" /><path clip-path="url(#clip920)" d="M137.797 942.152 L145.436 942.152 L145.436 915.786 L137.126 917.453 L137.126 913.194 L145.39 911.527 L150.066 911.527 L150.066 942.152 L157.705 942.152 L157.705 946.087 L137.797 946.087 L137.797 942.152 Z" fill="#000000" fill-rule="nonzero" fill-opacity="1" /><path clip-path="url(#clip920)" d="M167.195 911.527 L185.552 911.527 L185.552 915.462 L171.478 915.462 L171.478 923.935 Q172.496 923.587 173.515 923.425 Q174.533 923.24 175.552 923.24 Q181.339 923.24 184.718 926.411 Q188.098 929.583 188.098 934.999 Q188.098 940.578 184.626 943.68 Q181.153 946.759 174.834 946.759 Q172.658 946.759 170.39 946.388 Q168.144 946.018 165.737 945.277 L165.737 940.578 Q167.82 941.712 170.042 942.268 Q172.265 942.823 174.741 942.823 Q178.746 942.823 181.084 940.717 Q183.422 938.61 183.422 934.999 Q183.422 931.388 181.084 929.282 Q178.746 927.175 174.741 927.175 Q172.866 927.175 170.991 927.592 Q169.14 928.009 167.195 928.888 L167.195 911.527 Z" fill="#000000" fill-rule="nonzero" fill-opacity="1" /><path clip-path="url(#clip920)" d="M50.9921 678.799 L80.6679 678.799 L80.6679 682.734 L50.9921 682.734 L50.9921 678.799 Z" fill="#000000" fill-rule="nonzero" fill-opacity="1" /><path clip-path="url(#clip920)" d="M100.76 664.146 Q97.1493 664.146 95.3206 667.711 Q93.515 671.253 93.515 678.382 Q93.515 685.489 95.3206 689.054 Q97.1493 692.595 100.76 692.595 Q104.395 692.595 106.2 689.054 Q108.029 685.489 108.029 678.382 Q108.029 671.253 106.2 667.711 Q104.395 664.146 100.76 664.146 M100.76 660.443 Q106.571 660.443 109.626 665.049 Q112.705 669.632 112.705 678.382 Q112.705 687.109 109.626 691.716 Q106.571 696.299 100.76 696.299 Q94.9502 696.299 91.8715 691.716 Q88.816 687.109 88.816 678.382 Q88.816 669.632 91.8715 665.049 Q94.9502 660.443 100.76 660.443 Z" fill="#000000" fill-rule="nonzero" fill-opacity="1" /><path clip-path="url(#clip920)" d="M120.922 689.748 L125.807 689.748 L125.807 695.628 L120.922 695.628 L120.922 689.748 Z" fill="#000000" fill-rule="nonzero" fill-opacity="1" /><path clip-path="url(#clip920)" d="M136.802 691.692 L144.441 691.692 L144.441 665.327 L136.131 666.994 L136.131 662.734 L144.394 661.068 L149.07 661.068 L149.07 691.692 L156.709 691.692 L156.709 695.628 L136.802 695.628 L136.802 691.692 Z" fill="#000000" fill-rule="nonzero" fill-opacity="1" /><path clip-path="url(#clip920)" d="M176.153 664.146 Q172.542 664.146 170.714 667.711 Q168.908 671.253 168.908 678.382 Q168.908 685.489 170.714 689.054 Q172.542 692.595 176.153 692.595 Q179.788 692.595 181.593 689.054 Q183.422 685.489 183.422 678.382 Q183.422 671.253 181.593 667.711 Q179.788 664.146 176.153 664.146 M176.153 660.443 Q181.964 660.443 185.019 665.049 Q188.098 669.632 188.098 678.382 Q188.098 687.109 185.019 691.716 Q181.964 696.299 176.153 696.299 Q170.343 696.299 167.265 691.716 Q164.209 687.109 164.209 678.382 Q164.209 669.632 167.265 665.049 Q170.343 660.443 176.153 660.443 Z" fill="#000000" fill-rule="nonzero" fill-opacity="1" /><path clip-path="url(#clip920)" d="M51.9875 428.339 L81.6633 428.339 L81.6633 432.275 L51.9875 432.275 L51.9875 428.339 Z" fill="#000000" fill-rule="nonzero" fill-opacity="1" /><path clip-path="url(#clip920)" d="M101.756 413.687 Q98.1447 413.687 96.316 417.251 Q94.5104 420.793 94.5104 427.923 Q94.5104 435.029 96.316 438.594 Q98.1447 442.136 101.756 442.136 Q105.39 442.136 107.196 438.594 Q109.024 435.029 109.024 427.923 Q109.024 420.793 107.196 417.251 Q105.39 413.687 101.756 413.687 M101.756 409.983 Q107.566 409.983 110.621 414.589 Q113.7 419.173 113.7 427.923 Q113.7 436.65 110.621 441.256 Q107.566 445.839 101.756 445.839 Q95.9456 445.839 92.8669 441.256 Q89.8114 436.65 89.8114 427.923 Q89.8114 419.173 92.8669 414.589 Q95.9456 409.983 101.756 409.983 Z" fill="#000000" fill-rule="nonzero" fill-opacity="1" /><path clip-path="url(#clip920)" d="M121.918 439.288 L126.802 439.288 L126.802 445.168 L121.918 445.168 L121.918 439.288 Z" fill="#000000" fill-rule="nonzero" fill-opacity="1" /><path clip-path="url(#clip920)" d="M146.987 413.687 Q143.376 413.687 141.547 417.251 Q139.742 420.793 139.742 427.923 Q139.742 435.029 141.547 438.594 Q143.376 442.136 146.987 442.136 Q150.621 442.136 152.427 438.594 Q154.255 435.029 154.255 427.923 Q154.255 420.793 152.427 417.251 Q150.621 413.687 146.987 413.687 M146.987 409.983 Q152.797 409.983 155.853 414.589 Q158.931 419.173 158.931 427.923 Q158.931 436.65 155.853 441.256 Q152.797 445.839 146.987 445.839 Q141.177 445.839 138.098 441.256 Q135.043 436.65 135.043 427.923 Q135.043 419.173 138.098 414.589 Q141.177 409.983 146.987 409.983 Z" fill="#000000" fill-rule="nonzero" fill-opacity="1" /><path clip-path="url(#clip920)" d="M167.195 410.608 L185.552 410.608 L185.552 414.543 L171.478 414.543 L171.478 423.015 Q172.496 422.668 173.515 422.506 Q174.533 422.321 175.552 422.321 Q181.339 422.321 184.718 425.492 Q188.098 428.663 188.098 434.08 Q188.098 439.659 184.626 442.761 Q181.153 445.839 174.834 445.839 Q172.658 445.839 170.39 445.469 Q168.144 445.099 165.737 444.358 L165.737 439.659 Q167.82 440.793 170.042 441.349 Q172.265 441.904 174.741 441.904 Q178.746 441.904 181.084 439.798 Q183.422 437.691 183.422 434.08 Q183.422 430.469 181.084 428.363 Q178.746 426.256 174.741 426.256 Q172.866 426.256 170.991 426.673 Q169.14 427.089 167.195 427.969 L167.195 410.608 Z" fill="#000000" fill-rule="nonzero" fill-opacity="1" /><path clip-path="url(#clip920)" d="M100.76 163.227 Q97.1493 163.227 95.3206 166.792 Q93.515 170.334 93.515 177.463 Q93.515 184.57 95.3206 188.134 Q97.1493 191.676 100.76 191.676 Q104.395 191.676 106.2 188.134 Q108.029 184.57 108.029 177.463 Q108.029 170.334 106.2 166.792 Q104.395 163.227 100.76 163.227 M100.76 159.523 Q106.571 159.523 109.626 164.13 Q112.705 168.713 112.705 177.463 Q112.705 186.19 109.626 190.796 Q106.571 195.38 100.76 195.38 Q94.9502 195.38 91.8715 190.796 Q88.816 186.19 88.816 177.463 Q88.816 168.713 91.8715 164.13 Q94.9502 159.523 100.76 159.523 Z" fill="#000000" fill-rule="nonzero" fill-opacity="1" /><path clip-path="url(#clip920)" d="M120.922 188.829 L125.807 188.829 L125.807 194.708 L120.922 194.708 L120.922 188.829 Z" fill="#000000" fill-rule="nonzero" fill-opacity="1" /><path clip-path="url(#clip920)" d="M145.992 163.227 Q142.381 163.227 140.552 166.792 Q138.746 170.334 138.746 177.463 Q138.746 184.57 140.552 188.134 Q142.381 191.676 145.992 191.676 Q149.626 191.676 151.431 188.134 Q153.26 184.57 153.26 177.463 Q153.26 170.334 151.431 166.792 Q149.626 163.227 145.992 163.227 M145.992 159.523 Q151.802 159.523 154.857 164.13 Q157.936 168.713 157.936 177.463 Q157.936 186.19 154.857 190.796 Q151.802 195.38 145.992 195.38 Q140.181 195.38 137.103 190.796 Q134.047 186.19 134.047 177.463 Q134.047 168.713 137.103 164.13 Q140.181 159.523 145.992 159.523 Z" fill="#000000" fill-rule="nonzero" fill-opacity="1" /><path clip-path="url(#clip920)" d="M176.153 163.227 Q172.542 163.227 170.714 166.792 Q168.908 170.334 168.908 177.463 Q168.908 184.57 170.714 188.134 Q172.542 191.676 176.153 191.676 Q179.788 191.676 181.593 188.134 Q183.422 184.57 183.422 177.463 Q183.422 170.334 181.593 166.792 Q179.788 163.227 176.153 163.227 M176.153 159.523 Q181.964 159.523 185.019 164.13 Q188.098 168.713 188.098 177.463 Q188.098 186.19 185.019 190.796 Q181.964 195.38 176.153 195.38 Q170.343 195.38 167.265 190.796 Q164.209 186.19 164.209 177.463 Q164.209 168.713 167.265 164.13 Q170.343 159.523 176.153 159.523 Z" fill="#000000" fill-rule="nonzero" fill-opacity="1" /><polyline clip-path="url(#clip922)" style="stroke:#009af9; stroke-linecap:round; stroke-linejoin:round; stroke-width:4; stroke-opacity:1; fill:none" points="284.343,177.428 290.355,177.247 296.368,176.908 302.38,176.504 308.393,175.914 314.405,175.364 320.418,175.101 326.43,175.215 332.443,175.469 338.455,175.666 344.468,176.037 350.48,176.762 356.493,177.813 362.505,179.048 368.518,180.606 374.53,182.427 380.543,184.563 386.555,186.895 392.568,189.045 398.58,190.965 404.592,192.683 410.605,194.276 416.617,195.871 422.63,197.723 428.642,199.746 434.655,201.759 440.667,203.933 446.68,206.226 452.692,208.522 458.705,210.785 464.717,212.974 470.73,215.1 476.742,217.332 482.755,219.642 488.767,221.56 494.78,223.018 500.792,224.178 506.805,225.163 512.817,225.939 518.83,226.595 524.842,227.183 530.855,227.702 536.867,228.4 542.88,229.465 548.892,230.776 554.904,232.015 560.917,233.174 566.929,234.454 572.942,236.112 578.954,237.97 584.967,239.712 590.979,241.427 596.992,242.925 603.004,244.307 609.017,245.994 615.029,247.883 621.042,250.039 627.054,252.351 633.067,254.559 639.079,256.642 645.092,258.734 651.104,261.13 657.117,263.696 663.129,266.296 669.142,268.964 675.154,271.936 681.167,275.266 687.179,278.619 693.191,281.771 699.204,284.731 705.216,287.837 711.229,290.967 717.241,293.992 723.254,297.081 729.266,300.28 735.279,303.488 741.291,306.583 747.304,309.539 753.316,312.29 759.329,314.952 765.341,317.51 771.354,320.105 777.366,323.023 783.379,326.169 789.391,329.572 795.404,333.136 801.416,336.689 807.429,340.185 813.441,343.436 819.454,346.551 825.466,349.612 831.478,352.56 837.491,355.602 843.503,359.072 849.516,362.777 855.528,366.13 861.541,369.092 867.553,372.299 873.566,375.633 879.578,378.916 885.591,382.206 891.603,384.999 897.616,387.567 903.628,390.277 909.641,393.127 915.653,395.898 921.666,398.295 927.678,400.27 933.691,402.068 939.703,404.016 945.716,406.122 951.728,408.441 957.741,410.817 963.753,413.03 969.766,415.276 975.778,417.483 981.79,419.35 987.803,421.116 993.815,423.065 999.828,425.3 1005.84,427.792 1011.85,430.397 1017.87,432.935 1023.88,435.351 1029.89,437.93 1035.9,440.628 1041.92,443.332 1047.93,445.648 1053.94,447.487 1059.95,449.103 1065.97,450.603 1071.98,452.237 1077.99,454.051 1084,456.015 1090.02,457.899 1096.03,459.722 1102.04,461.883 1108.05,464.409 1114.07,467.089 1120.08,470.027 1126.09,473.013 1132.1,475.981 1138.11,479.134 1144.13,482.092 1150.14,484.958 1156.15,488.099 1162.16,491.248 1168.18,494.284 1174.19,497.457 1180.2,501.087 1186.21,504.854 1192.23,508.499 1198.24,512.136 1204.25,515.756 1210.26,519.222 1216.28,522.451 1222.29,525.618 1228.3,528.951 1234.31,532.556 1240.33,536.426 1246.34,540.392 1252.35,544.383 1258.36,548.794 1264.38,553.518 1270.39,558.241 1276.4,563.134 1282.41,568.264 1288.43,573.527 1294.44,578.69 1300.45,583.547 1306.46,588.22 1312.48,593.015 1318.49,598.045 1324.5,603.259 1330.51,608.764 1336.53,614.43 1342.54,620.076 1348.55,625.887 1354.56,631.806 1360.58,637.594 1366.59,643.448 1372.6,649.212 1378.61,654.844 1384.63,660.538 1390.64,666.147 1396.65,671.724 1402.66,677.282 1408.68,682.355 1414.69,686.948 1420.7,691.693 1426.71,696.549 1432.73,701.176 1438.74,705.918 1444.75,710.92 1450.76,715.93 1456.78,720.858 1462.79,725.744 1468.8,730.707 1474.81,735.609 1480.83,740.607 1486.84,745.678 1492.85,750.643 1498.86,755.641 1504.88,760.785 1510.89,766.07 1516.9,771.428 1522.91,776.83 1528.93,782.092 1534.94,787.133 1540.95,792.042 1546.96,796.769 1552.98,801.057 1558.99,805.063 1565,809.205 1571.01,813.367 1577.03,817.449 1583.04,821.303 1589.05,824.718 1595.06,827.784 1601.08,830.564 1607.09,833.262 1613.1,836.3 1619.11,839.826 1625.13,843.575 1631.14,847.241 1637.15,850.859 1643.16,854.435 1649.18,858.057 1655.19,861.783 1661.2,865.514 1667.21,869.046 1673.23,872.224 1679.24,875.266 1685.25,878.323 1691.26,881.508 1697.28,884.742 1703.29,888.037 1709.3,891.435 1715.31,894.76 1721.33,897.986 1727.34,901.234 1733.35,904.402 1739.36,907.494 1745.38,910.711 1751.39,914.049 1757.4,917.513 1763.41,921.034 1769.43,924.702 1775.44,928.483 1781.45,932.097 1787.46,935.479 1793.48,938.639 1799.49,941.703 1805.5,944.758 1811.51,947.725 1817.53,950.451 1823.54,953.082 1829.55,955.871 1835.56,959.012 1841.57,962.285 1847.59,965.491 1853.6,968.897 1859.61,972.484 1865.62,976.083 1871.64,979.608 1877.65,983.193 1883.66,986.982 1889.67,990.813 1895.69,994.692 1901.7,998.853 1907.71,1003.22 1913.72,1007.6 1919.74,1012.09 1925.75,1016.67 1931.76,1021.32 1937.77,1026.15 1943.79,1031.09 1949.8,1036.06 1955.81,1041.2 1961.82,1046.45 1967.84,1051.46 1973.85,1056.37 1979.86,1061.37 1985.87,1066.52 1991.89,1071.85 1997.9,1077.25 2003.91,1082.7 2009.92,1088.33 2015.94,1094.11 2021.95,1100.06 2027.96,1106.16 2033.97,1112.26 2039.99,1118.31 2046,1124.4 2052.01,1130.33 2058.02,1136.05 2064.04,1141.62 2070.05,1147.03 2076.06,1152.3 2082.07,1157.39 2088.09,1162.29 2094.1,1167.12 2100.11,1172.08 2106.12,1177.26 2112.14,1182.33 2118.15,1187.02 2124.16,1191.6 2130.17,1196.29 2136.19,1201.33 2142.2,1206.7 2148.21,1212.13 2154.22,1217.8 2160.24,1223.87 2166.25,1230.41 2172.26,1237.28 2178.27,1244.46 2184.29,1251.81 2190.3,1258.74 2196.31,1265.52 2202.32,1272.52 2208.34,1279.6 2214.35,1286.67 2220.36,1293.86 2226.37,1301.24 2232.39,1308.69 2238.4,1316.2 2244.41,1323.69 2250.42,1331.24 2256.44,1338.91 2262.45,1346.45 2268.46,1354.14 2274.47,1361.98 2280.49,1369.59 2286.5,1377 2292.51,1384.24 "/>
<polyline clip-path="url(#clip922)" style="stroke:#e26f46; stroke-linecap:round; stroke-linejoin:round; stroke-width:4; stroke-opacity:1; fill:none" points="284.343,177.428 290.355,129.031 296.368,135.553 302.38,111.388 308.393,86.1857 314.405,122.055 320.418,162.731 326.43,222.401 332.443,200.263 338.455,207.13 344.468,246.5 350.48,301.719 356.493,333.386 362.505,350.906 368.518,419.38 374.53,421.078 380.543,503.428 386.555,473.334 392.568,454.799 398.58,412.139 404.592,400.796 410.605,378.882 416.617,401.211 422.63,447.701 428.642,446.588 434.655,445.08 440.667,489.464 446.68,476.849 452.692,490.203 458.705,468.148 464.717,470.425 470.73,451.453 476.742,498.405 482.755,472.532 488.767,393.735 494.78,350.096 500.792,313.902 506.805,303.637 512.817,258.291 518.83,271.558 524.842,240.124 530.855,253.054 536.867,287.922 542.88,350.797 548.892,353.703 554.904,331.653 560.917,332.285 566.929,363.866 572.942,433.257 578.954,416.852 584.967,402.505 590.979,409.762 596.992,344.472 603.004,379.142 609.017,425.381 615.029,433.375 621.042,496.448 627.054,474.772 633.067,469.085 639.079,441.211 645.092,471.51 651.104,522.195 657.117,516.977 663.129,531.088 669.142,535.248 675.154,612.093 681.167,630.79 687.179,618.356 693.191,576.87 699.204,567.506 705.216,615.62 711.229,573.753 717.241,587.761 723.254,591.012 729.266,616.736 735.279,593.555 741.291,586.838 747.304,556.23 753.316,532.296 759.329,532.409 765.341,504.518 771.354,542.236 777.366,590.813 783.379,602.992 789.391,659.258 795.404,646.153 801.416,656.091 807.429,630.886 813.441,590.998 819.454,594.664 825.466,576.481 831.478,564.381 837.491,601.564 843.503,678.774 849.516,664.113 855.528,584.803 861.541,559.867 867.553,650.3 873.566,593.535 879.578,636.877 885.591,595.155 891.603,504.737 897.616,534.798 903.628,542.767 909.641,572.055 915.653,521.701 921.666,472.323 927.678,409.278 933.691,424.949 939.703,449.481 945.716,467.042 951.728,506.077 957.741,482.508 963.753,462.286 969.766,491.586 975.778,451.706 981.79,401.034 987.803,424.827 993.815,449.842 999.828,501.076 1005.84,518.276 1011.85,531.194 1017.87,500.409 1023.88,498.79 1029.89,543.644 1035.9,530.78 1041.92,545.112 1047.93,427.323 1053.94,417.893 1059.95,368.057 1065.97,386.73 1071.98,403.842 1077.99,434.655 1084,444.199 1090.02,412.989 1096.03,427.87 1102.04,503.313 1108.05,525.097 1114.07,544.456 1120.08,593.806 1126.09,557.42 1132.1,588.762 1138.11,607.146 1144.13,536.41 1150.14,582.581 1156.15,610.039 1162.16,584.555 1168.18,579.879 1174.19,621.053 1180.2,701.863 1186.21,657.452 1192.23,669.494 1198.24,655.294 1204.25,664.912 1210.26,613.969 1216.28,602.198 1222.29,597.017 1228.3,646.739 1234.31,669.267 1240.33,717.825 1246.34,694.505 1252.35,724.676 1258.36,806.418 1264.38,808.229 1270.39,806.137 1276.4,853.4 1282.41,869.471 1288.43,888.747 1294.44,842.885 1300.45,807.431 1306.46,793.421 1312.48,840.189 1318.49,855.964 1324.5,889.356 1330.51,933.376 1336.53,932.36 1342.54,928.246 1348.55,976.217 1354.56,957.023 1360.58,941.269 1366.59,974.638 1372.6,917.254 1378.61,939.474 1384.63,933.734 1390.64,916.79 1396.65,925.407 1402.66,911.501 1408.68,796.223 1414.69,783.399 1420.7,836.772 1426.71,812.974 1432.73,775.957 1438.74,843.389 1444.75,845.195 1450.76,845.779 1456.78,823.053 1462.79,834.964 1468.8,843.256 1474.81,818.712 1480.83,869.102 1486.84,837.996 1492.85,840.695 1498.86,847.198 1504.88,879.167 1510.89,885.006 1516.9,898.762 1522.91,896.626 1528.93,861.444 1534.94,837.634 1540.95,826.43 1546.96,788.77 1552.98,709.69 1558.99,713.292 1565,746.087 1571.01,718.827 1577.03,724.378 1583.04,658.436 1589.05,606.84 1595.06,565.805 1601.08,530.344 1607.09,543.913 1613.1,621.175 1619.11,673.925 1625.13,680.526 1631.14,652.096 1637.15,667.628 1643.16,640.834 1649.18,679.724 1655.19,668.875 1661.2,680.849 1667.21,615.935 1673.23,586.33 1679.24,579.582 1685.25,590.691 1691.26,613.308 1697.28,604.094 1703.29,629.493 1709.3,631.416 1715.31,610.036 1721.33,604.982 1727.34,616.106 1733.35,583.621 1739.36,595.631 1745.38,617.136 1751.39,628.031 1757.4,650.538 1763.41,643.028 1769.43,690.102 1775.44,673.014 1781.45,645.641 1787.46,611.033 1793.48,586.586 1799.49,585.25 1805.5,584.113 1811.51,562.044 1817.53,519.814 1823.54,536.681 1829.55,561.929 1835.56,630.438 1841.57,597.348 1847.59,612.413 1853.6,650.706 1859.61,660.642 1865.62,653.867 1871.64,640.978 1877.65,669.905 1883.66,695.408 1889.67,680.957 1895.69,708.348 1901.7,756.051 1907.71,764.555 1913.72,756.343 1919.74,797.52 1925.75,778.605 1931.76,815.398 1937.77,827.194 1943.79,845.931 1949.8,833.293 1955.81,892.984 1961.82,860.441 1967.84,831.07 1973.85,833.297 1979.86,854.848 1985.87,873.449 1991.89,902.78 1997.9,890.96 2003.91,919.431 2009.92,935.505 2015.94,961.734 2021.95,978.769 2027.96,1003.72 2033.97,975.801 2039.99,993.32 2046,985.129 2052.01,951.195 2058.02,929.817 2064.04,910.082 2070.05,887.496 2076.06,873.377 2082.07,838.695 2088.09,821.345 2094.1,822.228 2100.11,855.93 2106.12,879.098 2112.14,827.721 2118.15,778.238 2124.16,797.076 2130.17,809.117 2136.19,889.246 2142.2,899.616 2148.21,902.446 2154.22,963.638 2160.24,1011.57 2166.25,1085.46 2172.26,1102.24 2178.27,1168.1 2184.29,1146.61 2190.3,1054.8 2196.31,1108.5 2202.32,1113.14 2208.34,1128.58 2214.35,1113.91 2220.36,1156.01 2226.37,1167.34 2232.39,1173.98 2238.4,1184.02 2244.41,1169.03 2250.42,1199.99 2256.44,1199.33 2262.45,1166.63 2268.46,1239 2274.47,1206.46 2280.49,1176.8 2286.5,1152.99 2292.51,1133.22 "/>
<path clip-path="url(#clip920)" d="M2045.67 248.629 L2281.8 248.629 L2281.8 93.1086 L2045.67 93.1086  Z" fill="#ffffff" fill-rule="evenodd" fill-opacity="1"/>
<polyline clip-path="url(#clip920)" style="stroke:#000000; stroke-linecap:round; stroke-linejoin:round; stroke-width:4; stroke-opacity:1; fill:none" points="2045.67,248.629 2281.8,248.629 2281.8,93.1086 2045.67,93.1086 2045.67,248.629 "/>
<polyline clip-path="url(#clip920)" style="stroke:#009af9; stroke-linecap:round; stroke-linejoin:round; stroke-width:4; stroke-opacity:1; fill:none" points="2069.32,144.949 2211.23,144.949 "/>
<path clip-path="url(#clip920)" d="M2257.02 131.203 Q2257.02 131.531 2256.81 132.304 L2252.22 150.62 Q2251.21 154.696 2247.93 157.554 Q2244.68 160.411 2240.98 160.411 Q2238.75 160.411 2237.32 159.217 Q2235.89 158.045 2235.89 156.242 Q2235.89 154.649 2236.74 153.876 Q2237.58 153.127 2238.59 153.127 Q2238.91 153.127 2239.27 153.22 Q2239.62 153.314 2239.99 153.712 Q2240.37 154.11 2240.37 154.79 Q2240.37 155.891 2239.41 156.757 Q2238.94 157.155 2238.49 157.249 Q2238.07 157.343 2237.35 157.343 Q2237.63 157.999 2238.14 158.444 Q2238.66 158.889 2239.24 159.053 Q2239.83 159.24 2240.2 159.287 Q2240.6 159.357 2240.98 159.357 Q2243.97 159.357 2246.27 156.336 Q2246.95 155.422 2247.44 154.509 Q2247.96 153.619 2248.33 152.518 Q2248.71 151.44 2248.87 150.855 Q2249.06 150.269 2249.38 148.934 Q2247.21 151.112 2244.54 151.112 Q2243.41 151.112 2242.4 150.808 Q2241.42 150.503 2240.55 149.871 Q2239.69 149.215 2239.17 148.067 Q2238.68 146.92 2238.68 145.397 Q2238.68 143.781 2239.31 141.579 Q2239.95 139.378 2241.47 135.326 Q2242.29 133.054 2242.29 131.953 Q2242.29 131.414 2242.17 131.086 Q2242.05 130.735 2241.82 130.618 Q2241.58 130.477 2241.44 130.454 Q2241.33 130.43 2241.09 130.43 Q2239.71 130.43 2238.42 131.836 Q2237.13 133.241 2236.24 136.38 Q2236.06 136.965 2235.94 137.106 Q2235.82 137.246 2235.47 137.246 Q2234.89 137.223 2234.89 136.754 Q2234.89 136.567 2235.1 135.841 Q2235.31 135.091 2235.8 133.991 Q2236.31 132.866 2237.02 131.859 Q2237.72 130.828 2238.82 130.102 Q2239.95 129.376 2241.23 129.376 Q2242.99 129.376 2244.07 130.524 Q2245.17 131.648 2245.17 133.311 Q2245.17 133.991 2244.98 134.6 Q2244.82 135.185 2244.21 136.754 Q2241.75 143.078 2241.75 146.17 Q2241.75 146.92 2241.87 147.552 Q2242.01 148.161 2242.31 148.77 Q2242.62 149.356 2243.22 149.707 Q2243.86 150.035 2244.72 150.035 Q2245.82 150.035 2246.85 149.52 Q2247.91 148.981 2248.56 148.255 Q2249.24 147.529 2249.64 146.92 Q2250.06 146.287 2250.16 145.959 L2252.31 137.34 L2253.27 133.499 Q2253.72 131.414 2253.93 130.899 Q2254.21 130.407 2254.7 130.149 Q2255.19 129.892 2255.61 129.892 Q2256.2 129.892 2256.6 130.243 Q2257.02 130.594 2257.02 131.203 Z" fill="#000000" fill-rule="nonzero" fill-opacity="1" /><polyline clip-path="url(#clip920)" style="stroke:#e26f46; stroke-linecap:round; stroke-linejoin:round; stroke-width:4; stroke-opacity:1; fill:none" points="2069.32,196.789 2211.23,196.789 "/>
<path clip-path="url(#clip920)" d="M2255.94 189.167 Q2255.94 189.776 2255.78 190.971 Q2255.61 192.165 2255.22 193.899 Q2254.82 195.632 2254.23 197.459 Q2253.67 199.286 2252.78 201.113 Q2251.89 202.916 2250.84 204.345 Q2249.78 205.774 2248.31 206.664 Q2246.83 207.554 2245.17 207.554 Q2244.4 207.554 2243.65 207.437 Q2242.9 207.32 2241.96 206.945 Q2241.02 206.57 2240.34 205.961 Q2239.66 205.329 2239.2 204.204 Q2238.73 203.08 2238.73 201.605 Q2238.73 200.082 2239.29 198.044 Q2239.87 195.983 2241.47 191.767 Q2242.29 189.589 2242.29 188.394 Q2242.29 187.856 2242.17 187.528 Q2242.05 187.176 2241.82 187.059 Q2241.58 186.919 2241.44 186.895 Q2241.33 186.872 2241.09 186.872 Q2239.8 186.872 2238.49 188.207 Q2237.18 189.542 2236.24 192.821 Q2236.06 193.407 2235.94 193.547 Q2235.82 193.688 2235.47 193.688 Q2234.89 193.664 2234.89 193.196 Q2234.89 193.055 2235.05 192.517 Q2235.21 191.955 2235.52 191.111 Q2235.82 190.245 2236.36 189.355 Q2236.9 188.441 2237.56 187.645 Q2238.24 186.848 2239.2 186.333 Q2240.16 185.818 2241.23 185.818 Q2242.99 185.818 2244.07 186.966 Q2245.17 188.09 2245.17 189.753 Q2245.17 190.666 2244.58 192.142 Q2243.6 194.812 2243.15 196.1 Q2242.71 197.389 2242.24 199.216 Q2241.8 201.042 2241.8 202.307 Q2241.8 204.228 2242.69 205.352 Q2243.58 206.476 2245.36 206.476 Q2246.95 206.476 2248.38 205.329 Q2249.83 204.158 2250.79 202.495 Q2251.75 200.808 2252.48 198.934 Q2253.2 197.037 2253.53 195.608 Q2253.88 194.156 2253.88 193.477 Q2253.88 191.111 2252.27 189.565 Q2251.82 189.12 2251.66 188.839 Q2251.49 188.558 2251.49 188.113 Q2251.49 187.293 2252.22 186.567 Q2252.97 185.818 2253.83 185.818 Q2254.63 185.818 2255.29 186.614 Q2255.94 187.411 2255.94 189.167 Z" fill="#000000" fill-rule="nonzero" fill-opacity="1" /></svg>
