<?xml version="1.0" encoding="utf-8"?>
<svg xmlns="http://www.w3.org/2000/svg" xmlns:xlink="http://www.w3.org/1999/xlink" width="600" height="400" viewBox="0 0 2400 1600">
<defs>
  <clipPath id="clip250">
    <rect x="0" y="0" width="2400" height="1600"/>
  </clipPath>
</defs>
<path clip-path="url(#clip250)" d="M0 1600 L2400 1600 L2400 0 L0 0  Z" fill="#ffffff" fill-rule="evenodd" fill-opacity="1"/>
<defs>
  <clipPath id="clip251">
    <rect x="480" y="0" width="1681" height="1600"/>
  </clipPath>
</defs>
<path clip-path="url(#clip250)" d="M224.098 1423.18 L2352.76 1423.18 L2352.76 47.2441 L224.098 47.2441  Z" fill="#ffffff" fill-rule="evenodd" fill-opacity="1"/>
<defs>
  <clipPath id="clip252">
    <rect x="224" y="47" width="2130" height="1377"/>
  </clipPath>
</defs>
<polyline clip-path="url(#clip252)" style="stroke:#000000; stroke-linecap:round; stroke-linejoin:round; stroke-width:2; stroke-opacity:0.1; fill:none" points="284.343,1423.18 284.343,47.2441 "/>
<polyline clip-path="url(#clip252)" style="stroke:#000000; stroke-linecap:round; stroke-linejoin:round; stroke-width:2; stroke-opacity:0.1; fill:none" points="685.175,1423.18 685.175,47.2441 "/>
<polyline clip-path="url(#clip252)" style="stroke:#000000; stroke-linecap:round; stroke-linejoin:round; stroke-width:2; stroke-opacity:0.1; fill:none" points="1086.01,1423.18 1086.01,47.2441 "/>
<polyline clip-path="url(#clip252)" style="stroke:#000000; stroke-linecap:round; stroke-linejoin:round; stroke-width:2; stroke-opacity:0.1; fill:none" points="1486.84,1423.18 1486.84,47.2441 "/>
<polyline clip-path="url(#clip252)" style="stroke:#000000; stroke-linecap:round; stroke-linejoin:round; stroke-width:2; stroke-opacity:0.1; fill:none" points="1887.67,1423.18 1887.67,47.2441 "/>
<polyline clip-path="url(#clip252)" style="stroke:#000000; stroke-linecap:round; stroke-linejoin:round; stroke-width:2; stroke-opacity:0.1; fill:none" points="2288.5,1423.18 2288.5,47.2441 "/>
<polyline clip-path="url(#clip250)" style="stroke:#000000; stroke-linecap:round; stroke-linejoin:round; stroke-width:4; stroke-opacity:1; fill:none" points="224.098,1423.18 2352.76,1423.18 "/>
<polyline clip-path="url(#clip250)" style="stroke:#000000; stroke-linecap:round; stroke-linejoin:round; stroke-width:4; stroke-opacity:1; fill:none" points="284.343,1423.18 284.343,1404.28 "/>
<polyline clip-path="url(#clip250)" style="stroke:#000000; stroke-linecap:round; stroke-linejoin:round; stroke-width:4; stroke-opacity:1; fill:none" points="685.175,1423.18 685.175,1404.28 "/>
<polyline clip-path="url(#clip250)" style="stroke:#000000; stroke-linecap:round; stroke-linejoin:round; stroke-width:4; stroke-opacity:1; fill:none" points="1086.01,1423.18 1086.01,1404.28 "/>
<polyline clip-path="url(#clip250)" style="stroke:#000000; stroke-linecap:round; stroke-linejoin:round; stroke-width:4; stroke-opacity:1; fill:none" points="1486.84,1423.18 1486.84,1404.28 "/>
<polyline clip-path="url(#clip250)" style="stroke:#000000; stroke-linecap:round; stroke-linejoin:round; stroke-width:4; stroke-opacity:1; fill:none" points="1887.67,1423.18 1887.67,1404.28 "/>
<polyline clip-path="url(#clip250)" style="stroke:#000000; stroke-linecap:round; stroke-linejoin:round; stroke-width:4; stroke-opacity:1; fill:none" points="2288.5,1423.18 2288.5,1404.28 "/>
<path clip-path="url(#clip250)" d="M261.727 1454.1 Q258.116 1454.1 256.288 1457.66 Q254.482 1461.2 254.482 1468.33 Q254.482 1475.44 256.288 1479.01 Q258.116 1482.55 261.727 1482.55 Q265.362 1482.55 267.167 1479.01 Q268.996 1475.44 268.996 1468.33 Q268.996 1461.2 267.167 1457.66 Q265.362 1454.1 261.727 1454.1 M261.727 1450.39 Q267.537 1450.39 270.593 1455 Q273.672 1459.58 273.672 1468.33 Q273.672 1477.06 270.593 1481.67 Q267.537 1486.25 261.727 1486.25 Q255.917 1486.25 252.838 1481.67 Q249.783 1477.06 249.783 1468.33 Q249.783 1459.58 252.838 1455 Q255.917 1450.39 261.727 1450.39 Z" fill="#000000" fill-rule="nonzero" fill-opacity="1" /><path clip-path="url(#clip250)" d="M281.889 1479.7 L286.773 1479.7 L286.773 1485.58 L281.889 1485.58 L281.889 1479.7 Z" fill="#000000" fill-rule="nonzero" fill-opacity="1" /><path clip-path="url(#clip250)" d="M306.959 1454.1 Q303.347 1454.1 301.519 1457.66 Q299.713 1461.2 299.713 1468.33 Q299.713 1475.44 301.519 1479.01 Q303.347 1482.55 306.959 1482.55 Q310.593 1482.55 312.398 1479.01 Q314.227 1475.44 314.227 1468.33 Q314.227 1461.2 312.398 1457.66 Q310.593 1454.1 306.959 1454.1 M306.959 1450.39 Q312.769 1450.39 315.824 1455 Q318.903 1459.58 318.903 1468.33 Q318.903 1477.06 315.824 1481.67 Q312.769 1486.25 306.959 1486.25 Q301.148 1486.25 298.07 1481.67 Q295.014 1477.06 295.014 1468.33 Q295.014 1459.58 298.07 1455 Q301.148 1450.39 306.959 1450.39 Z" fill="#000000" fill-rule="nonzero" fill-opacity="1" /><path clip-path="url(#clip250)" d="M663.057 1454.1 Q659.446 1454.1 657.617 1457.66 Q655.812 1461.2 655.812 1468.33 Q655.812 1475.44 657.617 1479.01 Q659.446 1482.55 663.057 1482.55 Q666.691 1482.55 668.497 1479.01 Q670.325 1475.44 670.325 1468.33 Q670.325 1461.2 668.497 1457.66 Q666.691 1454.1 663.057 1454.1 M663.057 1450.39 Q668.867 1450.39 671.923 1455 Q675.001 1459.58 675.001 1468.33 Q675.001 1477.06 671.923 1481.67 Q668.867 1486.25 663.057 1486.25 Q657.247 1486.25 654.168 1481.67 Q651.113 1477.06 651.113 1468.33 Q651.113 1459.58 654.168 1455 Q657.247 1450.39 663.057 1450.39 Z" fill="#000000" fill-rule="nonzero" fill-opacity="1" /><path clip-path="url(#clip250)" d="M683.219 1479.7 L688.103 1479.7 L688.103 1485.58 L683.219 1485.58 L683.219 1479.7 Z" fill="#000000" fill-rule="nonzero" fill-opacity="1" /><path clip-path="url(#clip250)" d="M698.334 1451.02 L716.691 1451.02 L716.691 1454.96 L702.617 1454.96 L702.617 1463.43 Q703.635 1463.08 704.654 1462.92 Q705.672 1462.73 706.691 1462.73 Q712.478 1462.73 715.858 1465.9 Q719.237 1469.08 719.237 1474.49 Q719.237 1480.07 715.765 1483.17 Q712.293 1486.25 705.973 1486.25 Q703.797 1486.25 701.529 1485.88 Q699.284 1485.51 696.876 1484.77 L696.876 1480.07 Q698.959 1481.2 701.182 1481.76 Q703.404 1482.32 705.881 1482.32 Q709.885 1482.32 712.223 1480.21 Q714.561 1478.1 714.561 1474.49 Q714.561 1470.88 712.223 1468.77 Q709.885 1466.67 705.881 1466.67 Q704.006 1466.67 702.131 1467.08 Q700.279 1467.5 698.334 1468.38 L698.334 1451.02 Z" fill="#000000" fill-rule="nonzero" fill-opacity="1" /><path clip-path="url(#clip250)" d="M1053.16 1481.64 L1060.8 1481.64 L1060.8 1455.28 L1052.49 1456.95 L1052.49 1452.69 L1060.75 1451.02 L1065.43 1451.02 L1065.43 1481.64 L1073.07 1481.64 L1073.07 1485.58 L1053.16 1485.58 L1053.16 1481.64 Z" fill="#000000" fill-rule="nonzero" fill-opacity="1" /><path clip-path="url(#clip250)" d="M1082.51 1479.7 L1087.4 1479.7 L1087.4 1485.58 L1082.51 1485.58 L1082.51 1479.7 Z" fill="#000000" fill-rule="nonzero" fill-opacity="1" /><path clip-path="url(#clip250)" d="M1107.58 1454.1 Q1103.97 1454.1 1102.14 1457.66 Q1100.34 1461.2 1100.34 1468.33 Q1100.34 1475.44 1102.14 1479.01 Q1103.97 1482.55 1107.58 1482.55 Q1111.21 1482.55 1113.02 1479.01 Q1114.85 1475.44 1114.85 1468.33 Q1114.85 1461.2 1113.02 1457.66 Q1111.21 1454.1 1107.58 1454.1 M1107.58 1450.39 Q1113.39 1450.39 1116.45 1455 Q1119.53 1459.58 1119.53 1468.33 Q1119.53 1477.06 1116.45 1481.67 Q1113.39 1486.25 1107.58 1486.25 Q1101.77 1486.25 1098.69 1481.67 Q1095.64 1477.06 1095.64 1468.33 Q1095.64 1459.58 1098.69 1455 Q1101.77 1450.39 1107.58 1450.39 Z" fill="#000000" fill-rule="nonzero" fill-opacity="1" /><path clip-path="url(#clip250)" d="M1454.49 1481.64 L1462.13 1481.64 L1462.13 1455.28 L1453.82 1456.95 L1453.82 1452.69 L1462.08 1451.02 L1466.76 1451.02 L1466.76 1481.64 L1474.4 1481.64 L1474.4 1485.58 L1454.49 1485.58 L1454.49 1481.64 Z" fill="#000000" fill-rule="nonzero" fill-opacity="1" /><path clip-path="url(#clip250)" d="M1483.84 1479.7 L1488.73 1479.7 L1488.73 1485.58 L1483.84 1485.58 L1483.84 1479.7 Z" fill="#000000" fill-rule="nonzero" fill-opacity="1" /><path clip-path="url(#clip250)" d="M1498.96 1451.02 L1517.31 1451.02 L1517.31 1454.96 L1503.24 1454.96 L1503.24 1463.43 Q1504.26 1463.08 1505.28 1462.92 Q1506.29 1462.73 1507.31 1462.73 Q1513.1 1462.73 1516.48 1465.9 Q1519.86 1469.08 1519.86 1474.49 Q1519.86 1480.07 1516.39 1483.17 Q1512.91 1486.25 1506.6 1486.25 Q1504.42 1486.25 1502.15 1485.88 Q1499.91 1485.51 1497.5 1484.77 L1497.5 1480.07 Q1499.58 1481.2 1501.8 1481.76 Q1504.03 1482.32 1506.5 1482.32 Q1510.51 1482.32 1512.85 1480.21 Q1515.18 1478.1 1515.18 1474.49 Q1515.18 1470.88 1512.85 1468.77 Q1510.51 1466.67 1506.5 1466.67 Q1504.63 1466.67 1502.75 1467.08 Q1500.9 1467.5 1498.96 1468.38 L1498.96 1451.02 Z" fill="#000000" fill-rule="nonzero" fill-opacity="1" /><path clip-path="url(#clip250)" d="M1858.91 1481.64 L1875.23 1481.64 L1875.23 1485.58 L1853.28 1485.58 L1853.28 1481.64 Q1855.95 1478.89 1860.53 1474.26 Q1865.14 1469.61 1866.32 1468.27 Q1868.56 1465.74 1869.44 1464.01 Q1870.34 1462.25 1870.34 1460.56 Q1870.34 1457.8 1868.4 1456.07 Q1866.48 1454.33 1863.38 1454.33 Q1861.18 1454.33 1858.72 1455.09 Q1856.29 1455.86 1853.52 1457.41 L1853.52 1452.69 Q1856.34 1451.55 1858.79 1450.97 Q1861.25 1450.39 1863.28 1450.39 Q1868.65 1450.39 1871.85 1453.08 Q1875.04 1455.77 1875.04 1460.26 Q1875.04 1462.39 1874.23 1464.31 Q1873.45 1466.2 1871.34 1468.8 Q1870.76 1469.47 1867.66 1472.69 Q1864.56 1475.88 1858.91 1481.64 Z" fill="#000000" fill-rule="nonzero" fill-opacity="1" /><path clip-path="url(#clip250)" d="M1885.04 1479.7 L1889.93 1479.7 L1889.93 1485.58 L1885.04 1485.58 L1885.04 1479.7 Z" fill="#000000" fill-rule="nonzero" fill-opacity="1" /><path clip-path="url(#clip250)" d="M1910.11 1454.1 Q1906.5 1454.1 1904.67 1457.66 Q1902.87 1461.2 1902.87 1468.33 Q1902.87 1475.44 1904.67 1479.01 Q1906.5 1482.55 1910.11 1482.55 Q1913.75 1482.55 1915.55 1479.01 Q1917.38 1475.44 1917.38 1468.33 Q1917.38 1461.2 1915.55 1457.66 Q1913.75 1454.1 1910.11 1454.1 M1910.11 1450.39 Q1915.92 1450.39 1918.98 1455 Q1922.06 1459.58 1922.06 1468.33 Q1922.06 1477.06 1918.98 1481.67 Q1915.92 1486.25 1910.11 1486.25 Q1904.3 1486.25 1901.22 1481.67 Q1898.17 1477.06 1898.17 1468.33 Q1898.17 1459.58 1901.22 1455 Q1904.3 1450.39 1910.11 1450.39 Z" fill="#000000" fill-rule="nonzero" fill-opacity="1" /><path clip-path="url(#clip250)" d="M2260.24 1481.64 L2276.56 1481.64 L2276.56 1485.58 L2254.61 1485.58 L2254.61 1481.64 Q2257.28 1478.89 2261.86 1474.26 Q2266.47 1469.61 2267.65 1468.27 Q2269.89 1465.74 2270.77 1464.01 Q2271.67 1462.25 2271.67 1460.56 Q2271.67 1457.8 2269.73 1456.07 Q2267.81 1454.33 2264.71 1454.33 Q2262.51 1454.33 2260.05 1455.09 Q2257.62 1455.86 2254.85 1457.41 L2254.85 1452.69 Q2257.67 1451.55 2260.12 1450.97 Q2262.58 1450.39 2264.61 1450.39 Q2269.98 1450.39 2273.18 1453.08 Q2276.37 1455.77 2276.37 1460.26 Q2276.37 1462.39 2275.56 1464.31 Q2274.78 1466.2 2272.67 1468.8 Q2272.09 1469.47 2268.99 1472.69 Q2265.89 1475.88 2260.24 1481.64 Z" fill="#000000" fill-rule="nonzero" fill-opacity="1" /><path clip-path="url(#clip250)" d="M2286.37 1479.7 L2291.26 1479.7 L2291.26 1485.58 L2286.37 1485.58 L2286.37 1479.7 Z" fill="#000000" fill-rule="nonzero" fill-opacity="1" /><path clip-path="url(#clip250)" d="M2301.49 1451.02 L2319.84 1451.02 L2319.84 1454.96 L2305.77 1454.96 L2305.77 1463.43 Q2306.79 1463.08 2307.81 1462.92 Q2308.83 1462.73 2309.85 1462.73 Q2315.63 1462.73 2319.01 1465.9 Q2322.39 1469.08 2322.39 1474.49 Q2322.39 1480.07 2318.92 1483.17 Q2315.45 1486.25 2309.13 1486.25 Q2306.95 1486.25 2304.68 1485.88 Q2302.44 1485.51 2300.03 1484.77 L2300.03 1480.07 Q2302.11 1481.2 2304.34 1481.76 Q2306.56 1482.32 2309.03 1482.32 Q2313.04 1482.32 2315.38 1480.21 Q2317.72 1478.1 2317.72 1474.49 Q2317.72 1470.88 2315.38 1468.77 Q2313.04 1466.67 2309.03 1466.67 Q2307.16 1466.67 2305.28 1467.08 Q2303.43 1467.5 2301.49 1468.38 L2301.49 1451.02 Z" fill="#000000" fill-rule="nonzero" fill-opacity="1" /><path clip-path="url(#clip250)" d="M1296.9 1531.91 Q1296.9 1532.81 1296.48 1533.04 Q1296.06 1533.23 1294.9 1533.23 L1288.72 1533.23 L1283.82 1552.69 Q1283.44 1554.39 1283.44 1555.84 Q1283.44 1557.45 1283.92 1558.16 Q1284.43 1558.87 1285.5 1558.87 Q1287.59 1558.87 1289.84 1556.97 Q1292.13 1555.07 1294.06 1550.43 Q1294.32 1549.82 1294.45 1549.69 Q1294.61 1549.53 1295.03 1549.53 Q1295.84 1549.53 1295.84 1550.17 Q1295.84 1550.4 1295.38 1551.43 Q1294.97 1552.46 1294.03 1553.97 Q1293.13 1555.49 1291.94 1556.9 Q1290.78 1558.32 1289.01 1559.35 Q1287.24 1560.35 1285.34 1560.35 Q1282.66 1560.35 1280.96 1558.64 Q1279.28 1556.94 1279.28 1554.26 Q1279.28 1553.39 1279.96 1550.62 Q1280.63 1547.82 1284.31 1533.23 L1278.48 1533.23 Q1277.67 1533.23 1277.35 1533.2 Q1277.06 1533.17 1276.83 1533.01 Q1276.64 1532.81 1276.64 1532.43 Q1276.64 1531.82 1276.9 1531.56 Q1277.16 1531.27 1277.48 1531.24 Q1277.83 1531.17 1278.64 1531.17 L1284.82 1531.17 L1287.4 1520.71 Q1287.65 1519.67 1288.3 1519.09 Q1288.98 1518.48 1289.36 1518.42 Q1289.75 1518.32 1290.04 1518.32 Q1290.91 1518.32 1291.42 1518.81 Q1291.94 1519.26 1291.94 1520.09 Q1291.94 1520.54 1289.23 1531.17 L1295.03 1531.17 Q1295.77 1531.17 1296.06 1531.2 Q1296.38 1531.24 1296.64 1531.4 Q1296.9 1531.56 1296.9 1531.91 Z" fill="#000000" fill-rule="nonzero" fill-opacity="1" /><polyline clip-path="url(#clip252)" style="stroke:#000000; stroke-linecap:round; stroke-linejoin:round; stroke-width:2; stroke-opacity:0.1; fill:none" points="224.098,1293.81 2352.76,1293.81 "/>
<polyline clip-path="url(#clip252)" style="stroke:#000000; stroke-linecap:round; stroke-linejoin:round; stroke-width:2; stroke-opacity:0.1; fill:none" points="224.098,1001.75 2352.76,1001.75 "/>
<polyline clip-path="url(#clip252)" style="stroke:#000000; stroke-linecap:round; stroke-linejoin:round; stroke-width:2; stroke-opacity:0.1; fill:none" points="224.098,709.688 2352.76,709.688 "/>
<polyline clip-path="url(#clip252)" style="stroke:#000000; stroke-linecap:round; stroke-linejoin:round; stroke-width:2; stroke-opacity:0.1; fill:none" points="224.098,417.626 2352.76,417.626 "/>
<polyline clip-path="url(#clip252)" style="stroke:#000000; stroke-linecap:round; stroke-linejoin:round; stroke-width:2; stroke-opacity:0.1; fill:none" points="224.098,125.564 2352.76,125.564 "/>
<polyline clip-path="url(#clip250)" style="stroke:#000000; stroke-linecap:round; stroke-linejoin:round; stroke-width:4; stroke-opacity:1; fill:none" points="224.098,1423.18 224.098,47.2441 "/>
<polyline clip-path="url(#clip250)" style="stroke:#000000; stroke-linecap:round; stroke-linejoin:round; stroke-width:4; stroke-opacity:1; fill:none" points="224.098,1293.81 242.996,1293.81 "/>
<polyline clip-path="url(#clip250)" style="stroke:#000000; stroke-linecap:round; stroke-linejoin:round; stroke-width:4; stroke-opacity:1; fill:none" points="224.098,1001.75 242.996,1001.75 "/>
<polyline clip-path="url(#clip250)" style="stroke:#000000; stroke-linecap:round; stroke-linejoin:round; stroke-width:4; stroke-opacity:1; fill:none" points="224.098,709.688 242.996,709.688 "/>
<polyline clip-path="url(#clip250)" style="stroke:#000000; stroke-linecap:round; stroke-linejoin:round; stroke-width:4; stroke-opacity:1; fill:none" points="224.098,417.626 242.996,417.626 "/>
<polyline clip-path="url(#clip250)" style="stroke:#000000; stroke-linecap:round; stroke-linejoin:round; stroke-width:4; stroke-opacity:1; fill:none" points="224.098,125.564 242.996,125.564 "/>
<path clip-path="url(#clip250)" d="M50.9921 1294.26 L80.6679 1294.26 L80.6679 1298.2 L50.9921 1298.2 L50.9921 1294.26 Z" fill="#000000" fill-rule="nonzero" fill-opacity="1" /><path clip-path="url(#clip250)" d="M100.76 1279.61 Q97.1493 1279.61 95.3206 1283.18 Q93.515 1286.72 93.515 1293.85 Q93.515 1300.95 95.3206 1304.52 Q97.1493 1308.06 100.76 1308.06 Q104.395 1308.06 106.2 1304.52 Q108.029 1300.95 108.029 1293.85 Q108.029 1286.72 106.2 1283.18 Q104.395 1279.61 100.76 1279.61 M100.76 1275.91 Q106.571 1275.91 109.626 1280.51 Q112.705 1285.1 112.705 1293.85 Q112.705 1302.57 109.626 1307.18 Q106.571 1311.76 100.76 1311.76 Q94.9502 1311.76 91.8715 1307.18 Q88.816 1302.57 88.816 1293.85 Q88.816 1285.1 91.8715 1280.51 Q94.9502 1275.91 100.76 1275.91 Z" fill="#000000" fill-rule="nonzero" fill-opacity="1" /><path clip-path="url(#clip250)" d="M120.922 1305.21 L125.807 1305.21 L125.807 1311.09 L120.922 1311.09 L120.922 1305.21 Z" fill="#000000" fill-rule="nonzero" fill-opacity="1" /><path clip-path="url(#clip250)" d="M140.019 1307.16 L156.339 1307.16 L156.339 1311.09 L134.394 1311.09 L134.394 1307.16 Q137.056 1304.4 141.64 1299.77 Q146.246 1295.12 147.427 1293.78 Q149.672 1291.25 150.552 1289.52 Q151.455 1287.76 151.455 1286.07 Q151.455 1283.31 149.51 1281.58 Q147.589 1279.84 144.487 1279.84 Q142.288 1279.84 139.834 1280.61 Q137.404 1281.37 134.626 1282.92 L134.626 1278.2 Q137.45 1277.06 139.904 1276.49 Q142.357 1275.91 144.394 1275.91 Q149.765 1275.91 152.959 1278.59 Q156.154 1281.28 156.154 1285.77 Q156.154 1287.9 155.343 1289.82 Q154.556 1291.72 152.45 1294.31 Q151.871 1294.98 148.769 1298.2 Q145.668 1301.39 140.019 1307.16 Z" fill="#000000" fill-rule="nonzero" fill-opacity="1" /><path clip-path="url(#clip250)" d="M176.153 1279.61 Q172.542 1279.61 170.714 1283.18 Q168.908 1286.72 168.908 1293.85 Q168.908 1300.95 170.714 1304.52 Q172.542 1308.06 176.153 1308.06 Q179.788 1308.06 181.593 1304.52 Q183.422 1300.95 183.422 1293.85 Q183.422 1286.72 181.593 1283.18 Q179.788 1279.61 176.153 1279.61 M176.153 1275.91 Q181.964 1275.91 185.019 1280.51 Q188.098 1285.1 188.098 1293.85 Q188.098 1302.57 185.019 1307.18 Q181.964 1311.76 176.153 1311.76 Q170.343 1311.76 167.265 1307.18 Q164.209 1302.57 164.209 1293.85 Q164.209 1285.1 167.265 1280.51 Q170.343 1275.91 176.153 1275.91 Z" fill="#000000" fill-rule="nonzero" fill-opacity="1" /><path clip-path="url(#clip250)" d="M51.9875 1002.2 L81.6633 1002.2 L81.6633 1006.14 L51.9875 1006.14 L51.9875 1002.2 Z" fill="#000000" fill-rule="nonzero" fill-opacity="1" /><path clip-path="url(#clip250)" d="M101.756 987.549 Q98.1447 987.549 96.316 991.113 Q94.5104 994.655 94.5104 1001.78 Q94.5104 1008.89 96.316 1012.46 Q98.1447 1016 101.756 1016 Q105.39 1016 107.196 1012.46 Q109.024 1008.89 109.024 1001.78 Q109.024 994.655 107.196 991.113 Q105.39 987.549 101.756 987.549 M101.756 983.845 Q107.566 983.845 110.621 988.451 Q113.7 993.035 113.7 1001.78 Q113.7 1010.51 110.621 1015.12 Q107.566 1019.7 101.756 1019.7 Q95.9456 1019.7 92.8669 1015.12 Q89.8114 1010.51 89.8114 1001.78 Q89.8114 993.035 92.8669 988.451 Q95.9456 983.845 101.756 983.845 Z" fill="#000000" fill-rule="nonzero" fill-opacity="1" /><path clip-path="url(#clip250)" d="M121.918 1013.15 L126.802 1013.15 L126.802 1019.03 L121.918 1019.03 L121.918 1013.15 Z" fill="#000000" fill-rule="nonzero" fill-opacity="1" /><path clip-path="url(#clip250)" d="M137.797 1015.09 L145.436 1015.09 L145.436 988.729 L137.126 990.396 L137.126 986.137 L145.39 984.47 L150.066 984.47 L150.066 1015.09 L157.705 1015.09 L157.705 1019.03 L137.797 1019.03 L137.797 1015.09 Z" fill="#000000" fill-rule="nonzero" fill-opacity="1" /><path clip-path="url(#clip250)" d="M167.195 984.47 L185.552 984.47 L185.552 988.405 L171.478 988.405 L171.478 996.877 Q172.496 996.53 173.515 996.368 Q174.533 996.183 175.552 996.183 Q181.339 996.183 184.718 999.354 Q188.098 1002.53 188.098 1007.94 Q188.098 1013.52 184.626 1016.62 Q181.153 1019.7 174.834 1019.7 Q172.658 1019.7 170.39 1019.33 Q168.144 1018.96 165.737 1018.22 L165.737 1013.52 Q167.82 1014.66 170.042 1015.21 Q172.265 1015.77 174.741 1015.77 Q178.746 1015.77 181.084 1013.66 Q183.422 1011.55 183.422 1007.94 Q183.422 1004.33 181.084 1002.22 Q178.746 1000.12 174.741 1000.12 Q172.866 1000.12 170.991 1000.53 Q169.14 1000.95 167.195 1001.83 L167.195 984.47 Z" fill="#000000" fill-rule="nonzero" fill-opacity="1" /><path clip-path="url(#clip250)" d="M50.9921 710.139 L80.6679 710.139 L80.6679 714.075 L50.9921 714.075 L50.9921 710.139 Z" fill="#000000" fill-rule="nonzero" fill-opacity="1" /><path clip-path="url(#clip250)" d="M100.76 695.487 Q97.1493 695.487 95.3206 699.051 Q93.515 702.593 93.515 709.723 Q93.515 716.829 95.3206 720.394 Q97.1493 723.936 100.76 723.936 Q104.395 723.936 106.2 720.394 Q108.029 716.829 108.029 709.723 Q108.029 702.593 106.2 699.051 Q104.395 695.487 100.76 695.487 M100.76 691.783 Q106.571 691.783 109.626 696.389 Q112.705 700.973 112.705 709.723 Q112.705 718.449 109.626 723.056 Q106.571 727.639 100.76 727.639 Q94.9502 727.639 91.8715 723.056 Q88.816 718.449 88.816 709.723 Q88.816 700.973 91.8715 696.389 Q94.9502 691.783 100.76 691.783 Z" fill="#000000" fill-rule="nonzero" fill-opacity="1" /><path clip-path="url(#clip250)" d="M120.922 721.088 L125.807 721.088 L125.807 726.968 L120.922 726.968 L120.922 721.088 Z" fill="#000000" fill-rule="nonzero" fill-opacity="1" /><path clip-path="url(#clip250)" d="M136.802 723.033 L144.441 723.033 L144.441 696.667 L136.131 698.334 L136.131 694.075 L144.394 692.408 L149.07 692.408 L149.07 723.033 L156.709 723.033 L156.709 726.968 L136.802 726.968 L136.802 723.033 Z" fill="#000000" fill-rule="nonzero" fill-opacity="1" /><path clip-path="url(#clip250)" d="M176.153 695.487 Q172.542 695.487 170.714 699.051 Q168.908 702.593 168.908 709.723 Q168.908 716.829 170.714 720.394 Q172.542 723.936 176.153 723.936 Q179.788 723.936 181.593 720.394 Q183.422 716.829 183.422 709.723 Q183.422 702.593 181.593 699.051 Q179.788 695.487 176.153 695.487 M176.153 691.783 Q181.964 691.783 185.019 696.389 Q188.098 700.973 188.098 709.723 Q188.098 718.449 185.019 723.056 Q181.964 727.639 176.153 727.639 Q170.343 727.639 167.265 723.056 Q164.209 718.449 164.209 709.723 Q164.209 700.973 167.265 696.389 Q170.343 691.783 176.153 691.783 Z" fill="#000000" fill-rule="nonzero" fill-opacity="1" /><path clip-path="url(#clip250)" d="M51.9875 418.077 L81.6633 418.077 L81.6633 422.012 L51.9875 422.012 L51.9875 418.077 Z" fill="#000000" fill-rule="nonzero" fill-opacity="1" /><path clip-path="url(#clip250)" d="M101.756 403.425 Q98.1447 403.425 96.316 406.989 Q94.5104 410.531 94.5104 417.661 Q94.5104 424.767 96.316 428.332 Q98.1447 431.874 101.756 431.874 Q105.39 431.874 107.196 428.332 Q109.024 424.767 109.024 417.661 Q109.024 410.531 107.196 406.989 Q105.39 403.425 101.756 403.425 M101.756 399.721 Q107.566 399.721 110.621 404.327 Q113.7 408.911 113.7 417.661 Q113.7 426.387 110.621 430.994 Q107.566 435.577 101.756 435.577 Q95.9456 435.577 92.8669 430.994 Q89.8114 426.387 89.8114 417.661 Q89.8114 408.911 92.8669 404.327 Q95.9456 399.721 101.756 399.721 Z" fill="#000000" fill-rule="nonzero" fill-opacity="1" /><path clip-path="url(#clip250)" d="M121.918 429.026 L126.802 429.026 L126.802 434.906 L121.918 434.906 L121.918 429.026 Z" fill="#000000" fill-rule="nonzero" fill-opacity="1" /><path clip-path="url(#clip250)" d="M146.987 403.425 Q143.376 403.425 141.547 406.989 Q139.742 410.531 139.742 417.661 Q139.742 424.767 141.547 428.332 Q143.376 431.874 146.987 431.874 Q150.621 431.874 152.427 428.332 Q154.255 424.767 154.255 417.661 Q154.255 410.531 152.427 406.989 Q150.621 403.425 146.987 403.425 M146.987 399.721 Q152.797 399.721 155.853 404.327 Q158.931 408.911 158.931 417.661 Q158.931 426.387 155.853 430.994 Q152.797 435.577 146.987 435.577 Q141.177 435.577 138.098 430.994 Q135.043 426.387 135.043 417.661 Q135.043 408.911 138.098 404.327 Q141.177 399.721 146.987 399.721 Z" fill="#000000" fill-rule="nonzero" fill-opacity="1" /><path clip-path="url(#clip250)" d="M167.195 400.346 L185.552 400.346 L185.552 404.281 L171.478 404.281 L171.478 412.753 Q172.496 412.406 173.515 412.244 Q174.533 412.059 175.552 412.059 Q181.339 412.059 184.718 415.23 Q188.098 418.401 188.098 423.818 Q188.098 429.397 184.626 432.499 Q181.153 435.577 174.834 435.577 Q172.658 435.577 170.39 435.207 Q168.144 434.836 165.737 434.096 L165.737 429.397 Q167.82 430.531 170.042 431.087 Q172.265 431.642 174.741 431.642 Q178.746 431.642 181.084 429.536 Q183.422 427.429 183.422 423.818 Q183.422 420.207 181.084 418.1 Q178.746 415.994 174.741 415.994 Q172.866 415.994 170.991 416.411 Q169.14 416.827 167.195 417.707 L167.195 400.346 Z" fill="#000000" fill-rule="nonzero" fill-opacity="1" /><path clip-path="url(#clip250)" d="M100.76 111.363 Q97.1493 111.363 95.3206 114.927 Q93.515 118.469 93.515 125.599 Q93.515 132.705 95.3206 136.27 Q97.1493 139.812 100.76 139.812 Q104.395 139.812 106.2 136.27 Q108.029 132.705 108.029 125.599 Q108.029 118.469 106.2 114.927 Q104.395 111.363 100.76 111.363 M100.76 107.659 Q106.571 107.659 109.626 112.265 Q112.705 116.849 112.705 125.599 Q112.705 134.325 109.626 138.932 Q106.571 143.515 100.76 143.515 Q94.9502 143.515 91.8715 138.932 Q88.816 134.325 88.816 125.599 Q88.816 116.849 91.8715 112.265 Q94.9502 107.659 100.76 107.659 Z" fill="#000000" fill-rule="nonzero" fill-opacity="1" /><path clip-path="url(#clip250)" d="M120.922 136.964 L125.807 136.964 L125.807 142.844 L120.922 142.844 L120.922 136.964 Z" fill="#000000" fill-rule="nonzero" fill-opacity="1" /><path clip-path="url(#clip250)" d="M145.992 111.363 Q142.381 111.363 140.552 114.927 Q138.746 118.469 138.746 125.599 Q138.746 132.705 140.552 136.27 Q142.381 139.812 145.992 139.812 Q149.626 139.812 151.431 136.27 Q153.26 132.705 153.26 125.599 Q153.26 118.469 151.431 114.927 Q149.626 111.363 145.992 111.363 M145.992 107.659 Q151.802 107.659 154.857 112.265 Q157.936 116.849 157.936 125.599 Q157.936 134.325 154.857 138.932 Q151.802 143.515 145.992 143.515 Q140.181 143.515 137.103 138.932 Q134.047 134.325 134.047 125.599 Q134.047 116.849 137.103 112.265 Q140.181 107.659 145.992 107.659 Z" fill="#000000" fill-rule="nonzero" fill-opacity="1" /><path clip-path="url(#clip250)" d="M176.153 111.363 Q172.542 111.363 170.714 114.927 Q168.908 118.469 168.908 125.599 Q168.908 132.705 170.714 136.27 Q172.542 139.812 176.153 139.812 Q179.788 139.812 181.593 136.27 Q183.422 132.705 183.422 125.599 Q183.422 118.469 181.593 114.927 Q179.788 111.363 176.153 111.363 M176.153 107.659 Q181.964 107.659 185.019 112.265 Q188.098 116.849 188.098 125.599 Q188.098 134.325 185.019 138.932 Q181.964 143.515 176.153 143.515 Q170.343 143.515 167.265 138.932 Q164.209 134.325 164.209 125.599 Q164.209 116.849 167.265 112.265 Q170.343 107.659 176.153 107.659 Z" fill="#000000" fill-rule="nonzero" fill-opacity="1" /><polyline clip-path="url(#clip252)" style="stroke:#009af9; stroke-linecap:round; stroke-linejoin:round; stroke-width:4; stroke-opacity:1; fill:none" points="284.343,125.564 290.355,125.605 296.368,125.752 302.38,126.047 308.393,126.501 314.405,126.981 320.418,127.05 326.43,126.811 332.443,126.795 338.455,127.026 344.468,127.216 350.48,127.121 356.493,126.969 362.505,127.011 368.518,127.301 374.53,127.83 380.543,128.677 386.555,129.645 392.568,130.319 398.58,130.85 404.592,131.33 410.605,131.824 416.617,132.441 422.63,133.154 428.642,133.999 434.655,135.156 440.667,136.447 446.68,137.688 452.692,139.075 458.705,140.561 464.717,141.87 470.73,143.256 476.742,145.228 482.755,147.305 488.767,149.507 494.78,151.834 500.792,154.152 506.805,156.772 512.817,159.34 518.83,161.852 524.842,164.725 530.855,167.663 536.867,170.369 542.88,172.859 548.892,175.25 554.904,177.498 560.917,179.503 566.929,181.379 572.942,183.138 578.954,185.231 584.967,187.806 590.979,190.511 596.992,193.02 603.004,195.268 609.017,197.677 615.029,200.272 621.042,203.121 627.054,206.684 633.067,210.57 639.079,214.149 645.092,217.843 651.104,221.863 657.117,225.744 663.129,229.619 669.142,233.883 675.154,238.323 681.167,242.64 687.179,247.196 693.191,252.069 699.204,256.88 705.216,261.58 711.229,266.068 717.241,270.205 723.254,274.33 729.266,278.67 735.279,283.242 741.291,287.726 747.304,292.257 753.316,297.17 759.329,302.21 765.341,307.2 771.354,312.126 777.366,316.975 783.379,321.593 789.391,326.497 795.404,332.361 801.416,338.98 807.429,345.857 813.441,352.749 819.454,359.832 825.466,367.397 831.478,375.406 837.491,383.702 843.503,392.056 849.516,400.271 855.528,408.431 861.541,416.576 867.553,424.651 873.566,432.789 879.578,440.882 885.591,449.097 891.603,457.423 897.616,465.521 903.628,473.612 909.641,481.481 915.653,488.62 921.666,495.258 927.678,501.809 933.691,508.479 939.703,515.061 945.716,521.503 951.728,528.136 957.741,535.258 963.753,542.731 969.766,549.867 975.778,556.27 981.79,562.402 987.803,568.574 993.815,574.404 999.828,579.98 1005.84,585.835 1011.85,592.01 1017.87,598.006 1023.88,603.89 1029.89,609.938 1035.9,615.839 1041.92,621.388 1047.93,626.803 1053.94,632.334 1059.95,637.969 1065.97,643.46 1071.98,648.782 1077.99,654.137 1084,659.446 1090.02,664.723 1096.03,669.778 1102.04,674.545 1108.05,679.287 1114.07,683.98 1120.08,688.946 1126.09,694.005 1132.1,698.7 1138.11,703.279 1144.13,707.957 1150.14,712.734 1156.15,717.401 1162.16,721.825 1168.18,726.067 1174.19,730.442 1180.2,734.866 1186.21,739.053 1192.23,743.044 1198.24,746.845 1204.25,750.458 1210.26,753.672 1216.28,756.572 1222.29,759.367 1228.3,762.302 1234.31,765.322 1240.33,768.441 1246.34,771.91 1252.35,775.524 1258.36,779.006 1264.38,782.457 1270.39,786.381 1276.4,790.538 1282.41,794.49 1288.43,798.056 1294.44,801.333 1300.45,804.716 1306.46,808.174 1312.48,811.574 1318.49,814.695 1324.5,817.668 1330.51,820.745 1336.53,823.743 1342.54,826.767 1348.55,829.93 1354.56,833.224 1360.58,836.631 1366.59,839.91 1372.6,843.078 1378.61,845.997 1384.63,848.659 1390.64,851.454 1396.65,854.171 1402.66,856.711 1408.68,859.153 1414.69,861.37 1420.7,863.719 1426.71,866.306 1432.73,869.039 1438.74,871.851 1444.75,874.584 1450.76,877.098 1456.78,879.412 1462.79,881.527 1468.8,883.753 1474.81,886.248 1480.83,888.906 1486.84,891.902 1492.85,894.982 1498.86,897.918 1504.88,900.955 1510.89,904.01 1516.9,906.692 1522.91,909.464 1528.93,912.383 1534.94,915.032 1540.95,917.557 1546.96,919.846 1552.98,922.058 1558.99,924.574 1565,927.138 1571.01,929.645 1577.03,932.159 1583.04,934.265 1589.05,935.878 1595.06,937.302 1601.08,938.674 1607.09,939.838 1613.1,940.799 1619.11,941.738 1625.13,942.91 1631.14,944.197 1637.15,945.66 1643.16,947.479 1649.18,949.135 1655.19,950.794 1661.2,952.705 1667.21,954.719 1673.23,956.73 1679.24,958.838 1685.25,961.047 1691.26,963.293 1697.28,965.792 1703.29,968.414 1709.3,970.958 1715.31,973.39 1721.33,975.891 1727.34,978.482 1733.35,980.706 1739.36,982.627 1745.38,984.662 1751.39,986.868 1757.4,989.069 1763.41,991.51 1769.43,994.358 1775.44,997.12 1781.45,999.591 1787.46,1002.05 1793.48,1004.59 1799.49,1006.89 1805.5,1009.01 1811.51,1011.33 1817.53,1013.94 1823.54,1016.61 1829.55,1019.42 1835.56,1022.67 1841.57,1026.29 1847.59,1030.26 1853.6,1034.46 1859.61,1038.78 1865.62,1043.18 1871.64,1047.54 1877.65,1051.76 1883.66,1055.78 1889.67,1059.74 1895.69,1063.78 1901.7,1067.9 1907.71,1072.1 1913.72,1076.5 1919.74,1080.99 1925.75,1085.24 1931.76,1089.31 1937.77,1093.37 1943.79,1097.23 1949.8,1100.88 1955.81,1104.32 1961.82,1107.64 1967.84,1110.96 1973.85,1114.29 1979.86,1117.8 1985.87,1121.4 1991.89,1125.26 1997.9,1129.07 2003.91,1132.6 2009.92,1136.31 2015.94,1140.3 2021.95,1144.24 2027.96,1147.85 2033.97,1151.3 2039.99,1154.81 2046,1158.42 2052.01,1162.25 2058.02,1166.26 2064.04,1170.28 2070.05,1174.35 2076.06,1178.55 2082.07,1182.69 2088.09,1186.75 2094.1,1190.59 2100.11,1194.55 2106.12,1198.89 2112.14,1203.21 2118.15,1207.38 2124.16,1211.45 2130.17,1215.78 2136.19,1220.53 2142.2,1225.36 2148.21,1229.99 2154.22,1235.02 2160.24,1240.42 2166.25,1245.91 2172.26,1251.75 2178.27,1257.87 2184.29,1263.97 2190.3,1269.98 2196.31,1275.96 2202.32,1282.01 2208.34,1288.04 2214.35,1294.01 2220.36,1300.26 2226.37,1306.75 2232.39,1313.52 2238.4,1320.47 2244.41,1327.42 2250.42,1334.25 2256.44,1341.1 2262.45,1348.23 2268.46,1355.38 2274.47,1362.5 2280.49,1369.76 2286.5,1376.99 2292.51,1384.24 "/>
<polyline clip-path="url(#clip252)" style="stroke:#e26f46; stroke-linecap:round; stroke-linejoin:round; stroke-width:4; stroke-opacity:1; fill:none" points="284.343,125.564 290.355,136.595 296.368,153.536 302.38,176.445 308.393,195.691 314.405,183.37 320.418,86.1857 326.43,101.279 332.443,145.443 338.455,167.36 344.468,134.481 350.48,91.2974 356.493,119.215 362.505,143.064 368.518,185.518 374.53,206.752 380.543,270.252 386.555,238.968 392.568,191.746 398.58,200.972 404.592,178.325 410.605,204.492 416.617,211.062 422.63,230.173 428.642,246.434 434.655,313.224 440.667,282.037 446.68,300.227 452.692,320.745 458.705,326.548 464.717,273.593 470.73,347.304 476.742,429.507 482.755,375.518 488.767,462.761 494.78,409.153 500.792,460.038 506.805,489.606 512.817,446.321 518.83,474.882 524.842,542.152 530.855,492.488 536.867,480.34 542.88,434.889 548.892,453.595 554.904,397.123 560.917,388.765 566.929,362.649 572.942,357.51 578.954,451.621 584.967,486.181 590.979,486.349 596.992,433.737 603.004,416.83 609.017,476.855 615.029,466.328 621.042,544.313 627.054,657.064 633.067,630.392 639.079,575.101 645.092,660.95 651.104,662.235 657.117,623.923 663.129,660.419 669.142,727.866 675.154,707.376 681.167,694.885 687.179,771.087 693.191,779.576 699.204,754.511 705.216,749.931 711.229,697.879 717.241,656.651 723.254,694.433 729.266,713.954 735.279,756.398 741.291,690.302 747.304,769.261 753.316,791.826 759.329,803.562 765.341,778.164 771.354,786.531 777.366,757.584 783.379,724.971 789.391,834.107 795.404,980.633 801.416,1035.46 807.429,1049.62 813.441,1039.32 819.454,1100.65 825.466,1167.97 831.478,1218.71 837.491,1244.78 843.503,1234.18 849.516,1207.46 855.528,1219.73 861.541,1203.3 867.553,1201.12 873.566,1220.22 879.578,1189.01 885.591,1252.97 891.603,1218.19 897.616,1192.37 903.628,1216.52 909.641,1132.98 915.653,1021.82 921.666,999.524 927.678,998.536 933.691,1031.09 939.703,975.308 945.716,993.831 951.728,1026.03 957.741,1124.16 963.753,1119.84 969.766,1034.14 975.778,924.641 981.79,961.625 987.803,935.26 993.815,870.747 999.828,867.192 1005.84,945.276 1011.85,952.582 1017.87,897.345 1023.88,923.016 1029.89,940.925 1035.9,883.751 1041.92,846.996 1047.93,848.088 1053.94,877.948 1059.95,876.054 1065.97,839.176 1071.98,831.223 1077.99,848.05 1084,818.646 1090.02,839.769 1096.03,759.292 1102.04,763.124 1108.05,752.516 1114.07,750.015 1120.08,825.306 1126.09,774.925 1132.1,728.137 1138.11,744.062 1144.13,754.542 1150.14,770.575 1156.15,724.937 1162.16,705.941 1168.18,676.375 1174.19,741.47 1180.2,689.44 1186.21,678.374 1192.23,636.817 1198.24,627.911 1204.25,586.671 1210.26,521.599 1216.28,502.966 1222.29,493.434 1228.3,540.365 1234.31,516.174 1240.33,566.558 1246.34,609.72 1252.35,604.991 1258.36,574.642 1264.38,596.91 1270.39,700.643 1276.4,658.995 1282.41,646.004 1288.43,555.998 1294.44,569.015 1300.45,584.264 1306.46,588.857 1312.48,569.055 1318.49,514.458 1324.5,529.337 1330.51,542.367 1336.53,508.075 1342.54,549.577 1348.55,544.942 1354.56,584.695 1360.58,574.97 1366.59,550.636 1372.6,545.044 1378.61,484.704 1384.63,476.159 1390.64,520.347 1396.65,455.422 1402.66,473.027 1408.68,429.111 1414.69,413.292 1420.7,464.273 1426.71,476.642 1432.73,503.213 1438.74,498.039 1444.75,481.753 1450.76,439.851 1456.78,428.264 1462.79,386.988 1468.8,457.547 1474.81,459.041 1480.83,500.943 1486.84,549.038 1492.85,523.367 1498.86,510.6 1504.88,550.398 1510.89,515.614 1516.9,450.59 1522.91,539.674 1528.93,490.07 1534.94,467.318 1540.95,457.208 1546.96,404.298 1552.98,436.748 1558.99,485.147 1565,449.872 1571.01,469.761 1577.03,451.717 1583.04,361.12 1589.05,319.943 1595.06,310.972 1601.08,306.053 1607.09,255.452 1613.1,252.012 1619.11,249.553 1625.13,313.914 1631.14,280.549 1637.15,360.616 1643.16,375.534 1649.18,317.429 1655.19,375.878 1661.2,385.046 1667.21,402.995 1673.23,384.444 1679.24,428.88 1685.25,411.375 1691.26,438.509 1697.28,479.162 1703.29,471.091 1709.3,458.429 1715.31,441.262 1721.33,476.829 1727.34,465.216 1733.35,378.887 1739.36,384.456 1745.38,409.486 1751.39,429.825 1757.4,408.166 1763.41,494.029 1769.43,516.522 1775.44,471.078 1781.45,439.121 1787.46,468.356 1793.48,458.846 1799.49,405.729 1805.5,409.99 1811.51,460.039 1817.53,486.797 1823.54,478.753 1829.55,521.829 1835.56,593.752 1841.57,624.032 1847.59,685.315 1853.6,685.621 1859.61,716.68 1865.62,709.176 1871.64,703.751 1877.65,672.897 1883.66,649.775 1889.67,657.464 1895.69,672.551 1901.7,675.458 1907.71,695.606 1913.72,728.623 1919.74,721.44 1925.75,663.337 1931.76,672.591 1937.77,661.943 1943.79,616.947 1949.8,608.861 1955.81,559.765 1961.82,577.168 1967.84,558.525 1973.85,579.527 1979.86,606.861 1985.87,604.8 1991.89,675.549 1997.9,591.222 2003.91,603.756 2009.92,636.676 2015.94,676.751 2021.95,626.773 2027.96,584.637 2033.97,588.423 2039.99,598.071 2046,616.621 2052.01,655.311 2058.02,664.899 2064.04,656.606 2070.05,680.286 2076.06,691.042 2082.07,665.557 2088.09,668.604 2094.1,605.116 2100.11,701.985 2106.12,707.427 2112.14,694.981 2118.15,669.278 2124.16,667.37 2130.17,736.965 2136.19,782.331 2142.2,754.405 2148.21,733.517 2154.22,858.192 2160.24,831.769 2166.25,884.559 2172.26,923.611 2178.27,959.331 2184.29,919.775 2190.3,932.942 2196.31,913.615 2202.32,950.747 2208.34,906.621 2214.35,938.71 2220.36,977.409 2226.37,1005.63 2232.39,1049.11 2238.4,1055.01 2244.41,1051.88 2250.42,1018.24 2256.44,1061.42 2262.45,1091.23 2268.46,1064.68 2274.47,1085.81 2280.49,1101.47 2286.5,1076.58 2292.51,1108.68 "/>
<path clip-path="url(#clip250)" d="M2045.67 248.629 L2281.8 248.629 L2281.8 93.1086 L2045.67 93.1086  Z" fill="#ffffff" fill-rule="evenodd" fill-opacity="1"/>
<polyline clip-path="url(#clip250)" style="stroke:#000000; stroke-linecap:round; stroke-linejoin:round; stroke-width:4; stroke-opacity:1; fill:none" points="2045.67,248.629 2281.8,248.629 2281.8,93.1086 2045.67,93.1086 2045.67,248.629 "/>
<polyline clip-path="url(#clip250)" style="stroke:#009af9; stroke-linecap:round; stroke-linejoin:round; stroke-width:4; stroke-opacity:1; fill:none" points="2069.32,144.949 2211.23,144.949 "/>
<path clip-path="url(#clip250)" d="M2257.02 131.203 Q2257.02 131.531 2256.81 132.304 L2252.22 150.62 Q2251.21 154.696 2247.93 157.554 Q2244.68 160.411 2240.98 160.411 Q2238.75 160.411 2237.32 159.217 Q2235.89 158.045 2235.89 156.242 Q2235.89 154.649 2236.74 153.876 Q2237.58 153.127 2238.59 153.127 Q2238.91 153.127 2239.27 153.22 Q2239.62 153.314 2239.99 153.712 Q2240.37 154.11 2240.37 154.79 Q2240.37 155.891 2239.41 156.757 Q2238.94 157.155 2238.49 157.249 Q2238.07 157.343 2237.35 157.343 Q2237.63 157.999 2238.14 158.444 Q2238.66 158.889 2239.24 159.053 Q2239.83 159.24 2240.2 159.287 Q2240.6 159.357 2240.98 159.357 Q2243.97 159.357 2246.27 156.336 Q2246.95 155.422 2247.44 154.509 Q2247.96 153.619 2248.33 152.518 Q2248.71 151.44 2248.87 150.855 Q2249.06 150.269 2249.38 148.934 Q2247.21 151.112 2244.54 151.112 Q2243.41 151.112 2242.4 150.808 Q2241.42 150.503 2240.55 149.871 Q2239.69 149.215 2239.17 148.067 Q2238.68 146.92 2238.68 145.397 Q2238.68 143.781 2239.31 141.579 Q2239.95 139.378 2241.47 135.326 Q2242.29 133.054 2242.29 131.953 Q2242.29 131.414 2242.17 131.086 Q2242.05 130.735 2241.82 130.618 Q2241.58 130.477 2241.44 130.454 Q2241.33 130.43 2241.09 130.43 Q2239.71 130.43 2238.42 131.836 Q2237.13 133.241 2236.24 136.38 Q2236.06 136.965 2235.94 137.106 Q2235.82 137.246 2235.47 137.246 Q2234.89 137.223 2234.89 136.754 Q2234.89 136.567 2235.1 135.841 Q2235.31 135.091 2235.8 133.991 Q2236.31 132.866 2237.02 131.859 Q2237.72 130.828 2238.82 130.102 Q2239.95 129.376 2241.23 129.376 Q2242.99 129.376 2244.07 130.524 Q2245.17 131.648 2245.17 133.311 Q2245.17 133.991 2244.98 134.6 Q2244.82 135.185 2244.21 136.754 Q2241.75 143.078 2241.75 146.17 Q2241.75 146.92 2241.87 147.552 Q2242.01 148.161 2242.31 148.77 Q2242.62 149.356 2243.22 149.707 Q2243.86 150.035 2244.72 150.035 Q2245.82 150.035 2246.85 149.52 Q2247.91 148.981 2248.56 148.255 Q2249.24 147.529 2249.64 146.92 Q2250.06 146.287 2250.16 145.959 L2252.31 137.34 L2253.27 133.499 Q2253.72 131.414 2253.93 130.899 Q2254.21 130.407 2254.7 130.149 Q2255.19 129.892 2255.61 129.892 Q2256.2 129.892 2256.6 130.243 Q2257.02 130.594 2257.02 131.203 Z" fill="#000000" fill-rule="nonzero" fill-opacity="1" /><polyline clip-path="url(#clip250)" style="stroke:#e26f46; stroke-linecap:round; stroke-linejoin:round; stroke-width:4; stroke-opacity:1; fill:none" points="2069.32,196.789 2211.23,196.789 "/>
<path clip-path="url(#clip250)" d="M2255.94 189.167 Q2255.94 189.776 2255.78 190.971 Q2255.61 192.165 2255.22 193.899 Q2254.82 195.632 2254.23 197.459 Q2253.67 199.286 2252.78 201.113 Q2251.89 202.916 2250.84 204.345 Q2249.78 205.774 2248.31 206.664 Q2246.83 207.554 2245.17 207.554 Q2244.4 207.554 2243.65 207.437 Q2242.9 207.32 2241.96 206.945 Q2241.02 206.57 2240.34 205.961 Q2239.66 205.329 2239.2 204.204 Q2238.73 203.08 2238.73 201.605 Q2238.73 200.082 2239.29 198.044 Q2239.87 195.983 2241.47 191.767 Q2242.29 189.589 2242.29 188.394 Q2242.29 187.856 2242.17 187.528 Q2242.05 187.176 2241.82 187.059 Q2241.58 186.919 2241.44 186.895 Q2241.33 186.872 2241.09 186.872 Q2239.8 186.872 2238.49 188.207 Q2237.18 189.542 2236.24 192.821 Q2236.06 193.407 2235.94 193.547 Q2235.82 193.688 2235.47 193.688 Q2234.89 193.664 2234.89 193.196 Q2234.89 193.055 2235.05 192.517 Q2235.21 191.955 2235.52 191.111 Q2235.82 190.245 2236.36 189.355 Q2236.9 188.441 2237.56 187.645 Q2238.24 186.848 2239.2 186.333 Q2240.16 185.818 2241.23 185.818 Q2242.99 185.818 2244.07 186.966 Q2245.17 188.09 2245.17 189.753 Q2245.17 190.666 2244.58 192.142 Q2243.6 194.812 2243.15 196.1 Q2242.71 197.389 2242.24 199.216 Q2241.8 201.042 2241.8 202.307 Q2241.8 204.228 2242.69 205.352 Q2243.58 206.476 2245.36 206.476 Q2246.95 206.476 2248.38 205.329 Q2249.83 204.158 2250.79 202.495 Q2251.75 200.808 2252.48 198.934 Q2253.2 197.037 2253.53 195.608 Q2253.88 194.156 2253.88 193.477 Q2253.88 191.111 2252.27 189.565 Q2251.82 189.12 2251.66 188.839 Q2251.49 188.558 2251.49 188.113 Q2251.49 187.293 2252.22 186.567 Q2252.97 185.818 2253.83 185.818 Q2254.63 185.818 2255.29 186.614 Q2255.94 187.411 2255.94 189.167 Z" fill="#000000" fill-rule="nonzero" fill-opacity="1" /></svg>
